<svg xmlns="http://www.w3.org/2000/svg" xmlns:xlink="http://www.w3.org/1999/xlink" width="127.5" height="107.331" viewBox="0 0 127.5 107.331">
  <defs>
    <clipPath id="clip-path">
      <rect id="Rectángulo_56647" data-name="Rectángulo 56647" width="59.978" height="56.964" fill="#fff"/>
    </clipPath>
  </defs>
  <g id="Grupo_179442" data-name="Grupo 179442" transform="translate(-401.502 -569.124)">
    <g id="Grupo_176517" data-name="Grupo 176517" transform="translate(436.277 582.121)">
      <ellipse id="Elipse_4870" data-name="Elipse 4870" cx="46.5" cy="47" rx="46.5" ry="47" transform="translate(-0.275 0.334)" fill="#43a99b"/>
      <g id="Grupo_176134" data-name="Grupo 176134" transform="translate(15.174 18.941)">
        <g id="Grupo_176133" data-name="Grupo 176133" transform="translate(0 0)" clip-path="url(#clip-path)">
          <path id="Trazado_218540" data-name="Trazado 218540" d="M59.978,31.41c-1.45,3.4-3.384,6.373-7.118,7.608a10.156,10.156,0,0,1-10.566-2.125A10.1,10.1,0,0,1,39,26.65c.085-.389.168-.779.328-1.519-3.854,0-7.578.02-11.3-.013-1-.009-.934.6-.932,1.263.007,1.931.028,3.861,0,5.792-.043,2.522-1.012,3.564-3.47,3.576q-10.021.052-20.042,0C1.068,35.739.051,34.734.028,32.261q-.057-6.153,0-12.307c.022-2.489,1.029-3.48,3.522-3.517s4.994-.084,7.484.023c1.306.056,1.6-.393,1.583-1.623-.072-4.1-.029-8.2-.025-12.306A3.569,3.569,0,0,1,13.074,0H54.658a3.582,3.582,0,0,1,.484,2.528c0,5.3-.01,10.607.015,15.911,0,.677-.306,1.474.451,1.993,2.358,1.618,3.438,4.074,4.37,6.629ZM33.772,4.832c-3.3,0-6.593-.074-9.885.022-3.063.089-2.852,4.516-5.986,4.673-.594.03-.435.744-.478,1.206-.477,5.161.01,5.682,5.328,5.7.4,0,.8,0,1.205,0,1.675.015,2.932.837,3.031,2.469.09,1.474.807,1.408,1.819,1.4,4.34-.023,8.68,0,13.02-.014a5.869,5.869,0,0,0,4.726-2.338c.5-.612,1.071-1.383,1.755-1.582,2.007-.584,2.122-1.96,2.025-3.661-.093-1.629.323-3.3-1.973-3.932a3.7,3.7,0,0,1-2.347-2.6c-.348-1.188-1.023-1.385-2.114-1.365-3.374.058-6.751.021-10.126.021M49.348,20.3a8.692,8.692,0,1,0,8.69,8.765,8.709,8.709,0,0,0-8.69-8.765M13.5,33.824h5.8c5.989,0,5.912,0,5.909-5.987,0-1.622-.586-1.785-1.94-1.767-5.232.069-10.466.028-15.7.028-6.012,0-5.967,0-5.648,5.982.075,1.407.629,1.784,1.921,1.762,3.219-.055,6.441-.018,9.661-.018M53.209,18.9c0-5.319-.036-10.545.026-15.77.015-1.228-.61-1.213-1.489-1.212q-17.881.021-35.762-.015c-1.152,0-1.507.3-1.486,1.472.07,4.023.024,8.049.033,12.074,0,.458-.091,1.037.963.9,0-2.188.043-4.418-.017-6.645-.033-1.226.248-1.891,1.655-2.082A3.5,3.5,0,0,0,20.251,4.4c.163-1.328.856-1.51,1.953-1.508q11.719.032,23.439,0c1,0,1.657.182,1.814,1.383A3.751,3.751,0,0,0,50.948,7.7c.606.089,1.2.251,1.224.914.074,1.928-.243,3.921.138,5.777.562,2.734-1.447,3.022-3.43,3.767l4.329.743M13.576,24.159c3.288,0,6.578.028,9.865-.024.644-.01,1.687.543,1.735-.9s-.975-.986-1.652-.989q-9.985-.039-19.971-.005c-.709,0-1.677-.376-1.619,1.033.052,1.253.923.863,1.536.869,3.369.031,6.737.015,10.106.015m-.146-3.865c3.369,0,6.738.028,10.106-.028.561-.009,1.6.555,1.6-.731-.007-1.128-.85-1.178-1.7-1.172-1.444.011-2.888,0-4.332,0q-7.581,0-15.161,0C3.068,18.37,1.984,18.2,2,19.52c.014,1.407,1.191.724,1.81.739,3.206.074,6.415.034,9.624.034m13.709,2.084.016.821c4.537-.08,9.083.144,13.615-.128q-.011-.347-.023-.694Z" transform="translate(0 0)" fill="#fff"/>
          <path id="Trazado_218541" data-name="Trazado 218541" d="M19.458,82.13c2.04.618,4.357,1.267,6.635,2.033a2.518,2.518,0,0,0,2.661-.531c3.563-2.451,7.392-4.519,11.169-6.648a3.261,3.261,0,0,1,2.584.14q4.811,1.563,9.654,3.029c.816.247,1.41.563,2.383-.444,1.349-1.4,3.113.2,4.613.692,1.16.383.553,1.45.292,2.282-1.1,3.523-2.179,7.055-3.3,10.574-.253.794-.366,2.147-1.487,1.8-1.523-.475-4.021-.193-4.295-2-.373-2.473-1.419-1.576-2.524-1.038-2.311,1.124-4.571,2.35-6.857,3.526a3.989,3.989,0,0,1-3.23.413c-6.5-2.071-13.029-4.064-19.544-6.1-1.759-.549-2.813-1.692-2.39-3.6.413-1.864.788-3.9,3.632-4.125m30.651,7.5c.9.531,1.14-.136,1.343-.764.518-1.6.949-3.232,1.523-4.812.45-1.239.006-1.641-1.179-1.976-3.24-.914-6.442-1.963-9.643-3.009a2.53,2.53,0,0,0-2.286.108c-2.969,1.756-5.945,3.5-8.969,5.163-1.307.717-1.078,1.493-.531,2.555.6,1.162,1.277,1.493,2.483.826,2.1-1.165,4.258-2.24,6.392-3.35.669-.348,1.407-.7,1.844.225.367.775-.293,1.152-.866,1.455-2.41,1.275-4.786,2.626-7.259,3.767a2.69,2.69,0,0,1-3.872-1.341,4.179,4.179,0,0,0-3.1-2.339c-1.616-.468-3.208-1.022-4.83-1.471-1.22-.337-2.452-1.253-3.191.963-.8,2.392.9,2.353,2.161,2.757,3.893,1.248,7.98,2.042,11.678,3.708,5.092,2.294,9.594,2,14.086-1.226,1.184-.852,2.531-1.815,4.216-1.238m3.428,3.128c.825.178.862-.44,1.031-.98.907-2.9,1.851-5.786,2.74-8.69.17-.555.5-1.222-.538-1.483-.9-.227-1.119.224-1.329.907-.9,2.9-1.786,5.807-2.738,8.69-.3.9-.086,1.379.834,1.557" transform="translate(-8.028 -39.166)" fill="#fff"/>
          <path id="Trazado_218542" data-name="Trazado 218542" d="M68.9,19.58A5.8,5.8,0,1,1,63,13.823a5.838,5.838,0,0,1,5.9,5.757m-5.815,3.891a3.859,3.859,0,1,0-3.841-3.813,3.9,3.9,0,0,0,3.841,3.813" transform="translate(-29.237 -7.053)" fill="#fff"/>
          <path id="Trazado_218543" data-name="Trazado 218543" d="M96.967,47.4c.56,1.4,1.993.7,3.055,1.107a.823.823,0,0,1,.492.995.911.911,0,0,1-.845.736c-.964.041-1.931.016-2.9.051-.763.027-1.834-.246-1.9.9-.069,1.189,1,.99,1.774,1.025a8.4,8.4,0,0,1,1.444.064,2.891,2.891,0,0,1,2.423,2.382c.231,1.323-.528,2.138-1.49,3.037-1.877,1.752-3.682.324-5.509.2a.766.766,0,0,1-.615-.905.93.93,0,0,1,.965-.879c1.126-.041,2.254-.021,3.381-.032.7-.007,1.363-.176,1.31-1.021-.041-.65-.6-.887-1.226-.9-.483-.008-.966,0-1.449-.014A2.814,2.814,0,0,1,92.923,51.8a2.6,2.6,0,0,1,1.855-3.227c.812-.251,1.137-1.143,2.188-1.182" transform="translate(-47.373 -24.182)" fill="#fff"/>
        </g>
      </g>
    </g>
    <text id="_02" data-name="02" transform="translate(401.502 569.124)" fill="#12263f" font-size="20" font-family="SegoeUIBlack, Segoe UI" opacity="0.134"><tspan x="-11.982" y="22">02</tspan></text>
  </g>
</svg>
