<svg xmlns="http://www.w3.org/2000/svg" xmlns:xlink="http://www.w3.org/1999/xlink" width="127.5" height="107.331" viewBox="0 0 127.5 107.331">
  <defs>
    <clipPath id="clip-path">
      <rect id="Rectángulo_56646" data-name="Rectángulo 56646" width="50.444" height="50.444" fill="#fff"/>
    </clipPath>
  </defs>
  <g id="Grupo_179441" data-name="Grupo 179441" transform="translate(-195.5 -569.124)">
    <g id="Grupo_176516" data-name="Grupo 176516" transform="translate(230.275 582.121)">
      <ellipse id="Elipse_4870" data-name="Elipse 4870" cx="46.5" cy="47" rx="46.5" ry="47" transform="translate(-0.275 0.334)" fill="#7f4fc7"/>
      <g id="Grupo_176132" data-name="Grupo 176132" transform="translate(21.003 22.954)">
        <g id="Grupo_176131" data-name="Grupo 176131" clip-path="url(#clip-path)">
          <path id="Trazado_218527" data-name="Trazado 218527" d="M291.268,27.975c-.062.147-.129.292-.186.441a2.827,2.827,0,0,1-5.432-.483c-.182-1.05-.326-2.107-.488-3.16-.025-.159-.055-.317-.1-.546l-.766.715-1.147-1.24c.44-.43.932-.888,1.393-1.375a.715.715,0,0,0,.171-.506c-.068-.635-.181-1.265-.275-1.89l-2.535,2.579-1.3-1.284,1.878-1.806L271.867,8.8l-3.526,3.535L267.2,11.1c.485-.481,1.021-1.009,1.554-1.54q1.168-1.165,2.334-2.333c.683-.682,1.025-.678,1.722.017l5.505,5.5q2.734,2.733,5.468,5.467c.125.125.257.242.474.445-.171-1.177-.322-2.238-.48-3.3-.252-1.687-.5-3.374-.775-5.058a.717.717,0,0,0-.337-.449,2.574,2.574,0,0,1-1.414-2.866,2.535,2.535,0,1,1,3.706,2.776.564.564,0,0,0-.245.432c.478,3.328.976,6.653,1.473,9.978.018.125.054.247.095.432,1.083-1.08,2.131-2.115,3.16-3.169a.654.654,0,0,0,.067-.457q-.409-3.817-.834-7.632c-.21-1.891-.434-3.781-.63-5.674-.032-.306-.121-.408-.432-.442q-6.507-.709-13.01-1.454a1.253,1.253,0,0,0-1.16.414c-1.557,1.6-3.149,3.166-4.724,4.748a3.591,3.591,0,0,0-.309.418l-1.185-1.274c.032-.037.1-.129.18-.208q2.75-2.752,5.5-5.5c.137-.136.294-.252.441-.378h.788a.666.666,0,0,0,.175.075c1.873.208,3.746.41,5.619.617q4.421.49,8.841.987a.859.859,0,0,1,.83.874c.046.407.087.815.132,1.222q.576,5.178,1.155,10.356c.114,1,.257,2.006.387,3.009v.788c-.438.461-.866.933-1.32,1.379a.644.644,0,0,0-.209.69c.272,1.181.5,2.372.762,3.556.246,1.115.51,2.227.766,3.34Zm-3.023-6.968c-.569.576-1.065,1.07-1.549,1.576a.414.414,0,0,0-.1.3c.233,1.6.456,3.207.729,4.8a1.1,1.1,0,0,0,1.337.862,1.161,1.161,0,0,0,.9-1.369c-.419-2.015-.856-4.027-1.314-6.173M282.876,7.54a.805.805,0,0,0,.815.85.836.836,0,0,0,.852-.827.865.865,0,0,0-.8-.838.836.836,0,0,0-.863.815" transform="translate(-240.824)" fill="#fff"/>
          <path id="Trazado_218528" data-name="Trazado 218528" d="M21.668,0a9.511,9.511,0,0,1,1.161.384,3.953,3.953,0,0,1,2.463,3.675c.052,4.021.044,8.044.006,12.065a4.165,4.165,0,0,1-4.191,4.051c-1.428.026-2.856.005-4.285.006h-.563c.209,1.068.4,2.082.608,3.092a.835.835,0,0,1-.338.951.858.858,0,0,1-1.051-.074c-1.734-1.243-3.465-2.488-5.212-3.712a1.435,1.435,0,0,0-.76-.245c-1.625-.022-3.25-.01-4.875-.011A4.235,4.235,0,0,1,.1,15.667q0-5.59,0-11.179A4.2,4.2,0,0,1,3.524.078.439.439,0,0,0,3.642,0ZM14.746,21.562a.966.966,0,0,0,.024-.184q-.155-.821-.315-1.641c-.167-.857.139-1.234,1.018-1.235,1.8,0,3.61,0,5.415,0a2.548,2.548,0,0,0,2.746-2.727q0-5.685,0-11.371a2.54,2.54,0,0,0-2.744-2.723q-8.2,0-16.392,0A2.538,2.538,0,0,0,1.775,4.423q0,5.661,0,11.322A2.552,2.552,0,0,0,4.541,18.5c1.723,0,3.446.016,5.168-.008a2.111,2.111,0,0,1,1.361.436c1.2.885,2.419,1.738,3.675,2.635" transform="translate(-0.086)" fill="#fff"/>
          <path id="Trazado_218529" data-name="Trazado 218529" d="M195.353,216.59c2.043,2.041,4.071,4.074,6.108,6.1a2.606,2.606,0,0,1,.848,2.355,2.618,2.618,0,0,1-4.45,1.455q-2.835-2.806-5.643-5.64a3.716,3.716,0,0,1-.329-.446,13.355,13.355,0,0,1-11.157,2.294,12.994,12.994,0,0,1-7.8-5.225,13.434,13.434,0,1,1,22.423-.893m.272-6.963a11.765,11.765,0,1,0-11.73,11.764,11.8,11.8,0,0,0,11.73-11.764m-2.566,9.818a4.33,4.33,0,0,1,.455.345q2.613,2.6,5.218,5.212a4.189,4.189,0,0,0,.429.4.932.932,0,0,0,1.322-1.282,2.16,2.16,0,0,0-.26-.293q-2.78-2.783-5.563-5.562c-.088-.088-.189-.163-.286-.246l-1.314,1.423" transform="translate(-153.58 -176.85)" fill="#fff"/>
          <path id="Trazado_218530" data-name="Trazado 218530" d="M10.314,224.583l1.146,1.172L2.108,235.1l15.6,15.6,3.483-3.491,1.245,1.384a3.708,3.708,0,0,0-.573.41c-1.158,1.139-2.3,2.294-3.451,3.441-.559.557-.952.559-1.511,0q-8.252-8.248-16.5-16.5c-.513-.513-.54-.936-.073-1.4q4.92-4.931,9.85-9.851a1.253,1.253,0,0,1,.132-.1" transform="translate(0 -202.417)" fill="#fff"/>
          <path id="Trazado_218531" data-name="Trazado 218531" d="M69.457,277.027l1,1.014-5.424,5.421-.946-1.072,5.365-5.364" transform="translate(-57.766 -249.685)" fill="#fff"/>
          <path id="Trazado_218532" data-name="Trazado 218532" d="M96.518,304.736l-5.309,5.319-1.073-1.089,5.332-5.329,1.05,1.1" transform="translate(-81.24 -273.669)" fill="#fff"/>
          <path id="Trazado_218533" data-name="Trazado 218533" d="M115.956,355.9l3.1-3.116,1.022,1.077-3.089,3.082-1.03-1.043" transform="translate(-104.511 -317.969)" fill="#fff"/>
          <path id="Trazado_218534" data-name="Trazado 218534" d="M142.5,390.621l2.139-2.131,1.056,1.069-2.134,2.127-1.06-1.065" transform="translate(-128.433 -350.147)" fill="#fff"/>
          <path id="Trazado_218535" data-name="Trazado 218535" d="M169.354,423.1l-1.068-1.092,1.606-1.6,1.021,1.144-1.559,1.547" transform="translate(-151.677 -378.919)" fill="#fff"/>
          <path id="Trazado_218536" data-name="Trazado 218536" d="M399.985,418.575l1.314-1.423c.1.084.2.159.286.246q2.783,2.779,5.563,5.562a2.17,2.17,0,0,1,.261.293.932.932,0,0,1-1.323,1.282,4.177,4.177,0,0,1-.429-.4q-2.609-2.606-5.218-5.212a4.3,4.3,0,0,0-.455-.345" transform="translate(-360.508 -375.98)" fill="#fff"/>
          <path id="Trazado_218537" data-name="Trazado 218537" d="M51.035,43.345l1.447.8c-.077.159-.134.291-.2.416Q50.37,48,48.458,51.441c-.5.9-1.087.953-1.748.158q-1.479-1.78-2.962-3.556c-.092-.11-.2-.209-.326-.347-.869,1.3-1.71,2.572-2.562,3.834a1.791,1.791,0,0,1-.461.5.847.847,0,0,1-1.153-.326c-.578-.755-1.145-1.519-1.77-2.351a11.46,11.46,0,0,0-1.6,2.241,6.446,6.446,0,0,0-.051,2.238h16.76v1.691H35.318c-.944,0-1.207-.261-1.207-1.193q0-5.442,0-10.884c0-.16.013-.32.022-.5h1.642v5.684l.109.043c.27-.357.535-.718.81-1.07a.891.891,0,0,1,1.58.016c.556.73,1.1,1.465,1.686,2.239l2.284-3.421c.1-.15.2-.3.3-.45.484-.706,1.046-.743,1.59-.095.97,1.157,1.933,2.32,2.9,3.48.114.136.233.268.4.454l3.6-6.474" transform="translate(-30.744 -38.702)" fill="#fff"/>
          <path id="Trazado_218538" data-name="Trazado 218538" d="M224.758,240.017A10.084,10.084,0,1,1,214.692,229.9a10.085,10.085,0,0,1,10.065,10.115m-1.686-.04a8.4,8.4,0,1,0-8.362,8.416,8.409,8.409,0,0,0,8.362-8.416" transform="translate(-184.398 -207.211)" fill="#fff"/>
          <path id="Trazado_218539" data-name="Trazado 218539" d="M276.673,276.188V277.8H275v-1.577c-1.692-.37-2.561-1.262-2.5-2.585.468,0,.94-.015,1.41.012.1.006.228.151.276.261a.887.887,0,0,0,.887.575c.509,0,1.018.011,1.527,0a.837.837,0,0,0,.894-.894c.069-1.445-.11-1.635-1.541-1.635-.361,0-.723.009-1.083-.011a2.72,2.72,0,0,1-.675-.115c-1.3-.418-1.879-1.571-1.73-3.415a2.479,2.479,0,0,1,2.145-2.288c.34-.046.4-.188.384-.476-.016-.39,0-.782,0-1.21h1.674V266c1.8.533,2.48,1.231,2.485,2.542h-1.629c-.114-.674-.6-.824-1.225-.787-.393.023-.788,0-1.181.007a1.4,1.4,0,0,0-.437.055c-.488.174-.673.783-.533,1.695a.834.834,0,0,0,.885.749c.509.013,1.018,0,1.527.006a2.509,2.509,0,0,1,2.615,2.6,5.4,5.4,0,0,1-.077,1.37,2.527,2.527,0,0,1-2.424,1.949" transform="translate(-245.554 -238.334)" fill="#fff"/>
        </g>
      </g>
    </g>
    <text id="_01" data-name="01" transform="translate(195.5 569.124)" fill="#12263f" font-size="20" font-family="SegoeUIBlack, Segoe UI" opacity="0.134"><tspan x="-10.825" y="22">01</tspan></text>
  </g>
</svg>
