<svg xmlns="http://www.w3.org/2000/svg" xmlns:xlink="http://www.w3.org/1999/xlink" width="87.339" height="87.338" viewBox="0 0 87.339 87.338">
  <defs>
    <radialGradient id="radial-gradient" cx="0.076" cy="0.019" r="1.465" gradientTransform="translate(0.001)" gradientUnits="objectBoundingBox">
      <stop offset="0" stop-color="#f6f6f7"/>
      <stop offset="0.477" stop-color="#f9f9fa"/>
      <stop offset="0.715" stop-color="#fff"/>
    </radialGradient>
    <clipPath id="clip-path">
      <rect id="Rectángulo_56330" data-name="Rectángulo 56330" width="28.811" height="38.753" fill="#12263f"/>
    </clipPath>
  </defs>
  <g id="Grupo_179442" data-name="Grupo 179442" transform="translate(-256.279 -2301.653)">
    <g id="Grupo_176561" data-name="Grupo 176561" transform="translate(256.279 2301.653)">
      <g id="Grupo_18423" data-name="Grupo 18423" transform="translate(0 0)">
        <g id="Grupo_18421" data-name="Grupo 18421">
          <g id="Grupo_18420" data-name="Grupo 18420">
            <g id="Grupo_18419" data-name="Grupo 18419">
              <path id="Trazado_40936" data-name="Trazado 40936" d="M281.962,2189.389a43.669,43.669,0,1,1-43.669-43.668A43.669,43.669,0,0,1,281.962,2189.389Z" transform="translate(-194.623 -2145.721)" fill="#fff"/>
            </g>
          </g>
        </g>
        <path id="Trazado_40937" data-name="Trazado 40937" d="M281.7,2189.1a43.669,43.669,0,1,0-43.669,43.67A43.5,43.5,0,0,0,281.7,2189.1Z" transform="translate(-194.361 -2145.436)" fill="url(#radial-gradient)"/>
        <path id="Trazado_40938" data-name="Trazado 40938" d="M269.1,2186.859a33.332,33.332,0,1,0-33.333,33.333A33.209,33.209,0,0,0,269.1,2186.859Z" transform="translate(-191.968 -2143.046)" fill="none" stroke="#7f4fc7" stroke-miterlimit="10" stroke-width="4"/>
        <g id="Grupo_18422" data-name="Grupo 18422" transform="translate(7.736 24.517)">
          <path id="Trazado_40939" data-name="Trazado 40939" d="M275.732,2164.488a43.675,43.675,0,0,1-75.187,43.488,43.536,43.536,0,0,0,75.187-43.488Z" transform="translate(-200.545 -2164.488)" fill="#eceef0"/>
        </g>
      </g>
      <g id="Grupo_175653" data-name="Grupo 175653" transform="translate(30.414 23.072)">
        <g id="Grupo_175652" data-name="Grupo 175652" clip-path="url(#clip-path)">
          <path id="Trazado_217949" data-name="Trazado 217949" d="M21.4,65.291V63.223c.08-.005.146-.014.212-.014.931,0,1.862-.009,2.792,0a4.372,4.372,0,0,1,4.335,3.71,16.129,16.129,0,0,1,.065,2.356q.006,8.364,0,16.729c0,2.733-.029,5.467.008,8.2a4.465,4.465,0,0,1-4.522,4.542q-9.888,0-19.775,0A4.418,4.418,0,0,1,.056,95.039,4.7,4.7,0,0,1,0,94.256Q0,80.966,0,67.677A4.4,4.4,0,0,1,4.453,63.21c.905-.006,1.811,0,2.716,0,.074,0,.149.007.236.012v2.07h-.28c-.905,0-1.811-.01-2.716,0a2.328,2.328,0,0,0-2.268,1.795,3.161,3.161,0,0,0-.057.68q0,9.938,0,19.877c0,2.166.034,4.333-.012,6.5A2.427,2.427,0,0,0,4.6,96.673c4.916-.014,9.833-.006,14.749-.006q2.437,0,4.874,0a2.494,2.494,0,0,0,1.708-.6,2.286,2.286,0,0,0,.788-1.823q-.008-6.308,0-12.616c0-4.612-.023-9.224.012-13.835a2.42,2.42,0,0,0-2.519-2.51c-.929.035-1.86.007-2.816.007" transform="translate(0 -59.996)" fill="#12263f"/>
          <path id="Trazado_217950" data-name="Trazado 217950" d="M175.662,2.738a2.648,2.648,0,1,1,5.293-.014c.086,0,.174.013.263.013.719,0,1.438,0,2.156,0,.419,0,.568.15.569.564q0,1.827,0,3.653c0,.38-.158.536-.542.536H173.226c-.4,0-.547-.153-.548-.557q0-1.827,0-3.653c0-.39.161-.545.562-.544h2.42m2.646,1A1.108,1.108,0,1,0,177.2,2.633a1.107,1.107,0,0,0,1.109,1.109" transform="translate(-163.91 -0.001)" fill="#12263f"/>
          <rect id="Rectángulo_56327" data-name="Rectángulo 56327" width="10.461" height="1.549" transform="translate(13.217 13.246)" fill="#12263f"/>
          <rect id="Rectángulo_56328" data-name="Rectángulo 56328" width="10.46" height="1.548" transform="translate(13.217 20.966)" fill="#12263f"/>
          <rect id="Rectángulo_56329" data-name="Rectángulo 56329" width="10.466" height="1.555" transform="translate(13.22 28.683)" fill="#12263f"/>
          <path id="Trazado_217951" data-name="Trazado 217951" d="M108.109,205.019a1.616,1.616,0,0,1-.121.207q-2.039,2.5-4.08,4.989c-.134.165-.252.158-.4.02q-1.386-1.286-2.779-2.564a.246.246,0,0,1-.017-.408q.393-.414.774-.84a.255.255,0,0,1,.428-.018c.456.429.917.852,1.379,1.275.237.217.28.211.483-.037l2.814-3.435c.216-.264.273-.271.531-.061.275.225.551.448.823.677a1.61,1.61,0,0,1,.167.195" transform="translate(-95.501 -193.639)" fill="#12263f"/>
          <path id="Trazado_217952" data-name="Trazado 217952" d="M108.109,509.043a1.727,1.727,0,0,1-.124.208q-2.04,2.5-4.082,4.989c-.122.149-.236.166-.382.031q-1.4-1.294-2.8-2.581a.246.246,0,0,1-.011-.409c.262-.276.521-.555.774-.84.145-.163.272-.159.428-.012.437.412.881.816,1.323,1.223.307.282.314.281.587-.051l2.767-3.376c.218-.266.265-.27.529-.054s.551.449.822.678a1.615,1.615,0,0,1,.167.194" transform="translate(-95.5 -482.221)" fill="#12263f"/>
          <path id="Trazado_217953" data-name="Trazado 217953" d="M101.612,358.218a2.2,2.2,0,0,1,.23.161c.437.4.871.8,1.307,1.2.3.278.319.276.571-.032l2.782-3.4c.219-.267.26-.272.529-.053s.547.453.826.673a.247.247,0,0,1,.042.407q-2.044,2.491-4.083,4.987a.226.226,0,0,1-.382.031q-1.406-1.3-2.816-2.6a.22.22,0,0,1-.026-.351c.28-.306.56-.611.844-.913a1.01,1.01,0,0,1,.178-.119" transform="translate(-95.41 -337.872)" fill="#12263f"/>
        </g>
      </g>
    </g>
  </g>
</svg>
