<svg xmlns="http://www.w3.org/2000/svg" xmlns:xlink="http://www.w3.org/1999/xlink" width="107.59" height="107.59" viewBox="0 0 107.59 107.59">
  <defs>
    <clipPath id="clip-path">
      <rect id="Rectángulo_56875" data-name="Rectángulo 56875" width="107.59" height="107.59" transform="translate(0 0)" fill="none"/>
    </clipPath>
    <linearGradient id="linear-gradient" x1="0.5" x2="0.5" y2="1" gradientUnits="objectBoundingBox">
      <stop offset="0" stop-color="#f5f5f5"/>
      <stop offset="0.25" stop-color="#f5f5f5"/>
      <stop offset="1" stop-color="#a7b3cf"/>
    </linearGradient>
    <linearGradient id="linear-gradient-2" x1="0.5" x2="0.5" y2="1" gradientUnits="objectBoundingBox">
      <stop offset="0" stop-color="#116eb9"/>
      <stop offset="1" stop-color="#1894f6"/>
    </linearGradient>
    <linearGradient id="linear-gradient-3" x1="0.5" x2="0.5" y2="1" gradientUnits="objectBoundingBox">
      <stop offset="0" stop-color="#fdbe41"/>
      <stop offset="1" stop-color="#d09f40"/>
    </linearGradient>
    <linearGradient id="linear-gradient-4" x1="0.5" x2="0.5" y2="1" gradientUnits="objectBoundingBox">
      <stop offset="0" stop-color="#278d7e"/>
      <stop offset="1" stop-color="#4fc1b1"/>
    </linearGradient>
  </defs>
  <g id="Grupo_179443" data-name="Grupo 179443" transform="translate(-9579 9455.203)">
    <g id="Grupo_179380" data-name="Grupo 179380" transform="translate(9578.599 -9454.929)">
      <g id="Grupo_176592" data-name="Grupo 176592" transform="translate(0.401 -0.275)" clip-path="url(#clip-path)">
        <path id="Trazado_219599" data-name="Trazado 219599" d="M0,0H63.952c.261.31.5.64.786.925q8.586,8.6,17.2,17.173a2.954,2.954,0,0,1,.949,2.352c-.044,4.163-.019,8.327-.019,12.49v1.34c4.314-.288,8.4-.031,11.77,2.91a12.342,12.342,0,0,1,4.4,11.03,11.944,11.944,0,0,1-4.379,8.228,12.607,12.607,0,0,1-11.737,2.518v2.286c3.084,0,6.112-.024,9.141,0a16.183,16.183,0,0,1,15.363,11.686c.257.9.442,1.812.661,2.718v32.426H64.825v-3.619H0ZM3.682,3.657V100.79h61.17V99.351c0-7.318-.052-14.636.018-21.953a15.81,15.81,0,0,1,6.849-13.15,16.066,16.066,0,0,1,7.545-2.912c0-1.027-.047-2,.015-2.959a2.027,2.027,0,0,0-.858-1.9A10.645,10.645,0,0,1,74.1,48.853c-.282-4.785-.164-9.593-.209-14.392,0-.058.081-.116.185-.258H79.2V21.577H61.221V3.657ZM104.387,104.43a1.709,1.709,0,0,0,.088-.357c0-9.116.1-18.233-.053-27.346a12.424,12.424,0,0,0-10.707-11.72.916.916,0,0,0-1.124.6c-.69,1.455-1.454,2.876-2.122,4.341a2.6,2.6,0,0,0-.18,1.387c1.005,6.707,1.958,13.425,3.121,20.106.356,2.047.1,3.5-1.555,4.884-1.908,1.6-3.561,3.5-5.38,5.332-2.22-2.226-4.306-4.379-6.469-6.452a2.192,2.192,0,0,1-.69-2.181c1.046-6.55,1.993-13.116,3.105-19.654a7.059,7.059,0,0,0-.9-5.43,11.847,11.847,0,0,1-1.108-2.206c-.277-.7-.683-.8-1.383-.7A12.6,12.6,0,0,0,68.467,77.481c-.041,8.7-.012,17.406-.008,26.109,0,.284.052.568.079.84Zm-26.908-59.4c0,.874-.033,1.617.006,2.357A9,9,0,0,0,94.4,51.1a1,1,0,0,0-.2-1.435,17.013,17.013,0,0,0-6.728-3.949c-3.23-1.009-6.545-.581-9.993-.69m8.974,51.642c1.039-1.086,1.849-2.025,2.76-2.852a1.862,1.862,0,0,0,.6-1.888C88.889,86.084,88,80.236,87.1,74.391c-.159-1.028-.347-2.052-.522-3.078a12.815,12.815,0,0,0-.7,2.886c-.92,5.957-1.846,11.912-2.736,17.873a1.867,1.867,0,0,0,.253,1.329c.91,1.085,1.929,2.078,3.06,3.266M76.228,17.99,64.941,6.706V17.99Zm1.309,19.855v3.391c3.138.208,6.212.267,9.244.653A18.389,18.389,0,0,1,95.3,45.785a10.4,10.4,0,0,0-.118-1.059,8.9,8.9,0,0,0-8.2-6.86c-3.108-.1-6.222-.02-9.438-.02m6.478,27.061,2.459,4.926,2.437-4.926Z" transform="translate(-0.284 0.145)"/>
        <path id="Trazado_219600" data-name="Trazado 219600" d="M16.318,16.2H73.857v17.92H91.832V46.752H86.715c-.1.141-.186.2-.185.258.046,4.8-.072,9.607.21,14.392a10.644,10.644,0,0,0,4.318,7.626,2.027,2.027,0,0,1,.858,1.9c-.062.963-.014,1.933-.014,2.959A16.068,16.068,0,0,0,84.355,76.8a15.809,15.809,0,0,0-6.849,13.15c-.069,7.317-.018,14.635-.018,21.953v1.439H16.318Zm64.75,32.441H41.542v3.445H81.068ZM41.51,59.308H81V55.842H41.51ZM73.836,70.275H41.513v3.462H73.836Zm0,7.2H41.551v3.467H73.834Zm-1.8,14.415H41.514v3.461H72.035Zm-.046,7.2H41.549V102.6H71.99ZM35.544,79.466l-4.217-4.007,4-3.856-2.56-2.827-4.15,4.308L24.83,69.21l-2.737,2.458,4.365,4.012-4.192,3.984,2.6,2.712,3.99-4.343,4.055,4.258,2.633-2.824m.018,21.695-4.269-3.927,4.223-4.112-2.628-2.634-4.025,4.4-4.121-4.225-2.689,2.587,4.36,3.932-4.207,4.1,2.7,2.707L28.98,99.7l3.956,4.082,2.626-2.624m5.947-70.678H68.427V27.021H41.508Zm26.88,3.742H41.532v3.5H68.389ZM35.236,30.059l-2.39-2.636-5.973,6.141-1.82-2.358-2.605,2.344,4.63,4.638,8.159-8.129m0,21.665-2.387-2.671-6.05,6.1-1.775-2.33-2.577,2.317,4.622,4.655,8.168-8.067" transform="translate(-12.92 -12.403)" fill="url(#linear-gradient)"/>
        <path id="Trazado_219601" data-name="Trazado 219601" d="M339.266,327.455H303.417c-.027-.272-.079-.556-.079-.84,0-8.7-.033-17.406.008-26.109a12.6,12.6,0,0,1,10.564-12.447c.7-.1,1.106,0,1.383.7a11.847,11.847,0,0,0,1.108,2.206,7.058,7.058,0,0,1,.9,5.43c-1.112,6.538-2.059,13.1-3.105,19.654a2.191,2.191,0,0,0,.69,2.18c2.162,2.074,4.249,4.226,6.469,6.452,1.819-1.827,3.473-3.731,5.38-5.332,1.655-1.389,1.911-2.838,1.555-4.884-1.162-6.681-2.115-13.4-3.121-20.106a2.594,2.594,0,0,1,.18-1.386c.668-1.465,1.432-2.886,2.122-4.341a.916.916,0,0,1,1.124-.6,12.424,12.424,0,0,1,10.707,11.72c.154,9.113.051,18.231.053,27.346a1.706,1.706,0,0,1-.088.357" transform="translate(-235.163 -222.879)" fill="url(#linear-gradient-2)"/>
        <path id="Trazado_219603" data-name="Trazado 219603" d="M371.676,341.388c-1.13-1.188-2.15-2.181-3.06-3.266a1.865,1.865,0,0,1-.253-1.328c.89-5.961,1.816-11.917,2.736-17.873a12.819,12.819,0,0,1,.7-2.886c.175,1.026.363,2.05.522,3.078.9,5.845,1.792,11.693,2.712,17.536a1.862,1.862,0,0,1-.6,1.888c-.911.827-1.722,1.767-2.76,2.852" transform="translate(-285.508 -244.575)" fill="#7f4fc7"/>
        <path id="Trazado_219604" data-name="Trazado 219604" d="M299.079,41H287.792V29.718L299.079,41" transform="translate(-223.136 -22.867)" fill="url(#linear-gradient-3)"/>
        <path id="Trazado_219605" data-name="Trazado 219605" d="M343.612,167.615c3.216,0,6.33-.079,9.438.02a8.9,8.9,0,0,1,8.2,6.859,10.279,10.279,0,0,1,.118,1.06,18.388,18.388,0,0,0-8.515-3.895c-3.032-.386-6.106-.445-9.244-.653Z" transform="translate(-266.36 -129.624)" fill="url(#linear-gradient-4)"/>
        <path id="Trazado_219606" data-name="Trazado 219606" d="M372.32,287.641h4.9l-2.437,4.926-2.459-4.926" transform="translate(-288.59 -222.589)" fill="#7f4fc7"/>
        <rect id="Rectángulo_56867" data-name="Rectángulo 56867" width="39.526" height="3.445" transform="translate(28.622 36.243)"/>
        <rect id="Rectángulo_56868" data-name="Rectángulo 56868" width="39.489" height="3.466" transform="translate(28.59 43.439)"/>
        <rect id="Rectángulo_56869" data-name="Rectángulo 56869" width="32.323" height="3.462" transform="translate(28.593 57.872)"/>
        <rect id="Rectángulo_56870" data-name="Rectángulo 56870" width="32.283" height="3.467" transform="translate(28.631 65.075)"/>
        <rect id="Rectángulo_56871" data-name="Rectángulo 56871" width="30.521" height="3.461" transform="translate(28.594 79.49)"/>
        <rect id="Rectángulo_56872" data-name="Rectángulo 56872" width="30.441" height="3.507" transform="translate(28.628 86.69)"/>
        <path id="Trazado_219607" data-name="Trazado 219607" d="M55.362,259.869l-2.633,2.824-4.055-4.258-3.99,4.343-2.6-2.712,4.192-3.984-4.365-4.012,2.737-2.458,3.791,3.873,4.15-4.308,2.56,2.827-4,3.856,4.217,4.007" transform="translate(-32.739 -192.806)"/>
        <path id="Trazado_219608" data-name="Trazado 219608" d="M55.243,356.07l-2.626,2.624-3.956-4.082-4.071,4.281-2.7-2.707,4.207-4.1-4.36-3.932,2.689-2.587,4.121,4.225,4.025-4.4,2.627,2.635-4.222,4.112,4.268,3.927" transform="translate(-32.602 -267.312)"/>
        <rect id="Rectángulo_56873" data-name="Rectángulo 56873" width="26.919" height="3.462" transform="translate(28.588 14.618)"/>
        <rect id="Rectángulo_56874" data-name="Rectángulo 56874" width="26.857" height="3.505" transform="translate(28.612 21.822)"/>
        <path id="Trazado_219609" data-name="Trazado 219609" d="M56.269,68.553l-8.159,8.129L43.48,72.044,46.085,69.7l1.82,2.358,5.973-6.141,2.39,2.636" transform="translate(-33.953 -50.898)"/>
        <path id="Trazado_219610" data-name="Trazado 219610" d="M56.272,164.444,48.1,172.512l-4.622-4.654,2.577-2.317,1.775,2.33,6.05-6.1,2.387,2.671" transform="translate(-33.954 -125.124)"/>
      </g>
    </g>
  </g>
</svg>
