<svg xmlns="http://www.w3.org/2000/svg" xmlns:xlink="http://www.w3.org/1999/xlink" width="564.567" height="238.92" viewBox="0 0 564.567 238.92">
  <defs>
    <clipPath id="clip-path">
      <path id="Trazado_194907" data-name="Trazado 194907" d="M0,133.562A80.229,80.229,0,1,0,80.229,53.333,80.227,80.227,0,0,0,0,133.562" transform="translate(0 -53.333)" fill="#7f4fc7"/>
    </clipPath>
    <clipPath id="clip-path-2">
      <path id="Trazado_196480" data-name="Trazado 196480" d="M332.475,156.322a86.169,86.169,0,0,0-27.534,60.411L341.047,218a50.614,50.614,0,0,1,101.167,3.537l36.106,1.263a86.175,86.175,0,0,0-23.247-62.187q-.532-.571-1.071-1.129a86.149,86.149,0,0,0-59.339-26.405q-1.559-.055-3.11-.054a86.124,86.124,0,0,0-59.078,23.3" transform="translate(-304.941 -133.021)" fill="none"/>
    </clipPath>
  </defs>
  <g id="Grupo_179450" data-name="Grupo 179450" transform="translate(-722 -2703.417)">
    <g id="Grupo_154732" data-name="Grupo 154732" transform="translate(541.875 2553.533)">
      <g id="Grupo_154313" data-name="Grupo 154313" transform="translate(180.125 161.692)">
        <g id="Grupo_152768" data-name="Grupo 152768" transform="translate(0 0)" clip-path="url(#clip-path)">
          <path id="Trazado_194826" data-name="Trazado 194826" d="M4.223,55.443a2.112,2.112,0,1,0-2.11,2.113,2.111,2.111,0,0,0,2.11-2.113" transform="translate(0 -53.333)" fill="#7f4fc7"/>
          <path id="Trazado_194827" data-name="Trazado 194827" d="M12.5,55.443a2.112,2.112,0,1,0-2.11,2.113,2.111,2.111,0,0,0,2.11-2.113" transform="translate(11.256 -53.333)" fill="#7f4fc7"/>
          <path id="Trazado_194828" data-name="Trazado 194828" d="M20.768,55.443a2.112,2.112,0,1,0-2.11,2.113,2.111,2.111,0,0,0,2.11-2.113" transform="translate(22.513 -53.333)" fill="#7f4fc7"/>
          <path id="Trazado_194829" data-name="Trazado 194829" d="M29.041,55.443a2.112,2.112,0,1,0-2.11,2.113,2.111,2.111,0,0,0,2.11-2.113" transform="translate(33.77 -53.333)" fill="#7f4fc7"/>
          <path id="Trazado_194830" data-name="Trazado 194830" d="M37.313,55.443a2.112,2.112,0,1,0-2.11,2.113,2.111,2.111,0,0,0,2.11-2.113" transform="translate(45.026 -53.333)" fill="#7f4fc7"/>
          <path id="Trazado_194831" data-name="Trazado 194831" d="M45.586,55.443a2.112,2.112,0,1,0-2.11,2.113,2.111,2.111,0,0,0,2.11-2.113" transform="translate(56.283 -53.333)" fill="#7f4fc7"/>
          <path id="Trazado_194832" data-name="Trazado 194832" d="M53.858,55.443a2.112,2.112,0,1,0-2.11,2.113,2.111,2.111,0,0,0,2.11-2.113" transform="translate(67.539 -53.333)" fill="#7f4fc7"/>
          <path id="Trazado_194833" data-name="Trazado 194833" d="M62.131,55.443a2.112,2.112,0,1,0-2.11,2.113,2.113,2.113,0,0,0,2.11-2.113" transform="translate(78.796 -53.333)" fill="#7f4fc7"/>
          <path id="Trazado_194834" data-name="Trazado 194834" d="M70.4,55.443a2.112,2.112,0,1,0-2.11,2.113,2.111,2.111,0,0,0,2.11-2.113" transform="translate(90.053 -53.333)" fill="#7f4fc7"/>
          <path id="Trazado_194835" data-name="Trazado 194835" d="M4.223,63.716a2.112,2.112,0,1,0-2.11,2.11,2.11,2.11,0,0,0,2.11-2.11" transform="translate(0 -42.076)" fill="#7f4fc7"/>
          <path id="Trazado_194836" data-name="Trazado 194836" d="M12.5,63.716a2.112,2.112,0,1,0-2.11,2.11,2.11,2.11,0,0,0,2.11-2.11" transform="translate(11.256 -42.076)" fill="#7f4fc7"/>
          <path id="Trazado_194837" data-name="Trazado 194837" d="M20.768,63.716a2.112,2.112,0,1,0-2.11,2.11,2.11,2.11,0,0,0,2.11-2.11" transform="translate(22.513 -42.076)" fill="#7f4fc7"/>
          <path id="Trazado_194838" data-name="Trazado 194838" d="M29.041,63.716a2.112,2.112,0,1,0-2.11,2.11,2.11,2.11,0,0,0,2.11-2.11" transform="translate(33.77 -42.076)" fill="#7f4fc7"/>
          <path id="Trazado_194839" data-name="Trazado 194839" d="M37.313,63.716a2.112,2.112,0,1,0-2.11,2.11,2.11,2.11,0,0,0,2.11-2.11" transform="translate(45.026 -42.076)" fill="#7f4fc7"/>
          <path id="Trazado_194840" data-name="Trazado 194840" d="M45.586,63.716a2.112,2.112,0,1,0-2.11,2.11,2.11,2.11,0,0,0,2.11-2.11" transform="translate(56.283 -42.076)" fill="#7f4fc7"/>
          <path id="Trazado_194841" data-name="Trazado 194841" d="M53.858,63.716a2.112,2.112,0,1,0-2.11,2.11,2.11,2.11,0,0,0,2.11-2.11" transform="translate(67.539 -42.076)" fill="#7f4fc7"/>
          <path id="Trazado_194842" data-name="Trazado 194842" d="M62.131,63.716a2.112,2.112,0,1,0-2.11,2.11,2.111,2.111,0,0,0,2.11-2.11" transform="translate(78.796 -42.076)" fill="#7f4fc7"/>
          <path id="Trazado_194843" data-name="Trazado 194843" d="M70.4,63.716a2.112,2.112,0,1,0-2.11,2.11,2.11,2.11,0,0,0,2.11-2.11" transform="translate(90.053 -42.076)" fill="#7f4fc7"/>
          <path id="Trazado_194844" data-name="Trazado 194844" d="M4.223,71.989a2.112,2.112,0,1,0-2.11,2.11,2.11,2.11,0,0,0,2.11-2.11" transform="translate(0 -30.819)" fill="#7f4fc7"/>
          <path id="Trazado_194845" data-name="Trazado 194845" d="M12.5,71.989a2.112,2.112,0,1,0-2.11,2.11,2.11,2.11,0,0,0,2.11-2.11" transform="translate(11.256 -30.819)" fill="#7f4fc7"/>
          <path id="Trazado_194846" data-name="Trazado 194846" d="M20.768,71.989a2.112,2.112,0,1,0-2.11,2.11,2.11,2.11,0,0,0,2.11-2.11" transform="translate(22.513 -30.819)" fill="#7f4fc7"/>
          <path id="Trazado_194847" data-name="Trazado 194847" d="M29.041,71.989a2.112,2.112,0,1,0-2.11,2.11,2.11,2.11,0,0,0,2.11-2.11" transform="translate(33.77 -30.819)" fill="#7f4fc7"/>
          <path id="Trazado_194848" data-name="Trazado 194848" d="M37.313,71.989A2.112,2.112,0,1,0,35.2,74.1a2.11,2.11,0,0,0,2.11-2.11" transform="translate(45.026 -30.819)" fill="#7f4fc7"/>
          <path id="Trazado_194849" data-name="Trazado 194849" d="M45.586,71.989a2.112,2.112,0,1,0-2.11,2.11,2.11,2.11,0,0,0,2.11-2.11" transform="translate(56.283 -30.819)" fill="#7f4fc7"/>
          <path id="Trazado_194850" data-name="Trazado 194850" d="M53.858,71.989a2.112,2.112,0,1,0-2.11,2.11,2.11,2.11,0,0,0,2.11-2.11" transform="translate(67.539 -30.819)" fill="#7f4fc7"/>
          <path id="Trazado_194851" data-name="Trazado 194851" d="M62.131,71.989a2.112,2.112,0,1,0-2.11,2.11,2.111,2.111,0,0,0,2.11-2.11" transform="translate(78.796 -30.819)" fill="#7f4fc7"/>
          <path id="Trazado_194852" data-name="Trazado 194852" d="M70.4,71.989a2.112,2.112,0,1,0-2.11,2.11,2.11,2.11,0,0,0,2.11-2.11" transform="translate(90.053 -30.819)" fill="#7f4fc7"/>
          <path id="Trazado_194853" data-name="Trazado 194853" d="M4.223,80.261a2.112,2.112,0,1,0-2.11,2.11,2.11,2.11,0,0,0,2.11-2.11" transform="translate(0 -19.563)" fill="#7f4fc7"/>
          <path id="Trazado_194854" data-name="Trazado 194854" d="M12.5,80.261a2.112,2.112,0,1,0-2.11,2.11,2.11,2.11,0,0,0,2.11-2.11" transform="translate(11.256 -19.563)" fill="#7f4fc7"/>
          <path id="Trazado_194855" data-name="Trazado 194855" d="M20.768,80.261a2.112,2.112,0,1,0-2.11,2.11,2.11,2.11,0,0,0,2.11-2.11" transform="translate(22.513 -19.563)" fill="#7f4fc7"/>
          <path id="Trazado_194856" data-name="Trazado 194856" d="M29.041,80.261a2.112,2.112,0,1,0-2.11,2.11,2.11,2.11,0,0,0,2.11-2.11" transform="translate(33.77 -19.563)" fill="#7f4fc7"/>
          <path id="Trazado_194857" data-name="Trazado 194857" d="M37.313,80.261a2.112,2.112,0,1,0-2.11,2.11,2.11,2.11,0,0,0,2.11-2.11" transform="translate(45.026 -19.563)" fill="#7f4fc7"/>
          <path id="Trazado_194858" data-name="Trazado 194858" d="M45.586,80.261a2.112,2.112,0,1,0-2.11,2.11,2.11,2.11,0,0,0,2.11-2.11" transform="translate(56.283 -19.563)" fill="#7f4fc7"/>
          <path id="Trazado_194859" data-name="Trazado 194859" d="M53.858,80.261a2.112,2.112,0,1,0-2.11,2.11,2.11,2.11,0,0,0,2.11-2.11" transform="translate(67.539 -19.563)" fill="#7f4fc7"/>
          <path id="Trazado_194860" data-name="Trazado 194860" d="M62.131,80.261a2.112,2.112,0,1,0-2.11,2.11,2.111,2.111,0,0,0,2.11-2.11" transform="translate(78.796 -19.563)" fill="#7f4fc7"/>
          <path id="Trazado_194861" data-name="Trazado 194861" d="M70.4,80.261a2.112,2.112,0,1,0-2.11,2.11,2.11,2.11,0,0,0,2.11-2.11" transform="translate(90.053 -19.563)" fill="#7f4fc7"/>
          <path id="Trazado_194862" data-name="Trazado 194862" d="M4.223,88.534a2.112,2.112,0,1,0-2.11,2.113,2.11,2.11,0,0,0,2.11-2.113" transform="translate(0 -8.306)" fill="#7f4fc7"/>
          <path id="Trazado_194863" data-name="Trazado 194863" d="M12.5,88.534a2.112,2.112,0,1,0-2.11,2.113,2.11,2.11,0,0,0,2.11-2.113" transform="translate(11.256 -8.306)" fill="#7f4fc7"/>
          <path id="Trazado_194864" data-name="Trazado 194864" d="M20.768,88.534a2.112,2.112,0,1,0-2.11,2.113,2.11,2.11,0,0,0,2.11-2.113" transform="translate(22.513 -8.306)" fill="#7f4fc7"/>
          <path id="Trazado_194865" data-name="Trazado 194865" d="M29.041,88.534a2.112,2.112,0,1,0-2.11,2.113,2.11,2.11,0,0,0,2.11-2.113" transform="translate(33.77 -8.306)" fill="#7f4fc7"/>
          <path id="Trazado_194866" data-name="Trazado 194866" d="M37.313,88.534a2.112,2.112,0,1,0-2.11,2.113,2.11,2.11,0,0,0,2.11-2.113" transform="translate(45.026 -8.306)" fill="#7f4fc7"/>
          <path id="Trazado_194867" data-name="Trazado 194867" d="M45.586,88.534a2.112,2.112,0,1,0-2.11,2.113,2.11,2.11,0,0,0,2.11-2.113" transform="translate(56.283 -8.306)" fill="#7f4fc7"/>
          <path id="Trazado_194868" data-name="Trazado 194868" d="M53.858,88.534a2.112,2.112,0,1,0-2.11,2.113,2.11,2.11,0,0,0,2.11-2.113" transform="translate(67.539 -8.306)" fill="#7f4fc7"/>
          <path id="Trazado_194869" data-name="Trazado 194869" d="M62.131,88.534a2.112,2.112,0,1,0-2.11,2.113,2.111,2.111,0,0,0,2.11-2.113" transform="translate(78.796 -8.306)" fill="#7f4fc7"/>
          <path id="Trazado_194870" data-name="Trazado 194870" d="M70.4,88.534a2.112,2.112,0,1,0-2.11,2.113,2.11,2.11,0,0,0,2.11-2.113" transform="translate(90.053 -8.306)" fill="#7f4fc7"/>
          <path id="Trazado_194871" data-name="Trazado 194871" d="M4.223,96.808a2.112,2.112,0,1,0-2.11,2.11,2.11,2.11,0,0,0,2.11-2.11" transform="translate(0 2.951)" fill="#7f4fc7"/>
          <path id="Trazado_194872" data-name="Trazado 194872" d="M12.5,96.808a2.112,2.112,0,1,0-2.11,2.11,2.11,2.11,0,0,0,2.11-2.11" transform="translate(11.256 2.951)" fill="#7f4fc7"/>
          <path id="Trazado_194873" data-name="Trazado 194873" d="M20.768,96.808a2.112,2.112,0,1,0-2.11,2.11,2.11,2.11,0,0,0,2.11-2.11" transform="translate(22.513 2.951)" fill="#7f4fc7"/>
          <path id="Trazado_194874" data-name="Trazado 194874" d="M29.041,96.808a2.112,2.112,0,1,0-2.11,2.11,2.11,2.11,0,0,0,2.11-2.11" transform="translate(33.77 2.951)" fill="#7f4fc7"/>
          <path id="Trazado_194875" data-name="Trazado 194875" d="M37.313,96.808a2.112,2.112,0,1,0-2.11,2.11,2.11,2.11,0,0,0,2.11-2.11" transform="translate(45.026 2.951)" fill="#7f4fc7"/>
          <path id="Trazado_194876" data-name="Trazado 194876" d="M45.586,96.808a2.112,2.112,0,1,0-2.11,2.11,2.11,2.11,0,0,0,2.11-2.11" transform="translate(56.283 2.951)" fill="#7f4fc7"/>
          <path id="Trazado_194877" data-name="Trazado 194877" d="M53.858,96.808a2.112,2.112,0,1,0-2.11,2.11,2.11,2.11,0,0,0,2.11-2.11" transform="translate(67.539 2.951)" fill="#7f4fc7"/>
          <path id="Trazado_194878" data-name="Trazado 194878" d="M62.131,96.808a2.112,2.112,0,1,0-2.11,2.11,2.111,2.111,0,0,0,2.11-2.11" transform="translate(78.796 2.951)" fill="#7f4fc7"/>
          <path id="Trazado_194879" data-name="Trazado 194879" d="M70.4,96.808a2.112,2.112,0,1,0-2.11,2.11,2.11,2.11,0,0,0,2.11-2.11" transform="translate(90.053 2.951)" fill="#7f4fc7"/>
          <path id="Trazado_194880" data-name="Trazado 194880" d="M4.223,105.079a2.112,2.112,0,1,0-2.11,2.111,2.11,2.11,0,0,0,2.11-2.111" transform="translate(0 14.207)" fill="#7f4fc7"/>
          <path id="Trazado_194881" data-name="Trazado 194881" d="M12.5,105.079a2.112,2.112,0,1,0-2.11,2.111,2.11,2.11,0,0,0,2.11-2.111" transform="translate(11.256 14.207)" fill="#7f4fc7"/>
          <path id="Trazado_194882" data-name="Trazado 194882" d="M20.768,105.079a2.112,2.112,0,1,0-2.11,2.111,2.11,2.11,0,0,0,2.11-2.111" transform="translate(22.513 14.207)" fill="#7f4fc7"/>
          <path id="Trazado_194883" data-name="Trazado 194883" d="M29.041,105.079a2.112,2.112,0,1,0-2.11,2.111,2.11,2.11,0,0,0,2.11-2.111" transform="translate(33.77 14.207)" fill="#7f4fc7"/>
          <path id="Trazado_194884" data-name="Trazado 194884" d="M37.313,105.079a2.112,2.112,0,1,0-2.11,2.111,2.11,2.11,0,0,0,2.11-2.111" transform="translate(45.026 14.207)" fill="#7f4fc7"/>
          <path id="Trazado_194885" data-name="Trazado 194885" d="M45.586,105.079a2.112,2.112,0,1,0-2.11,2.111,2.11,2.11,0,0,0,2.11-2.111" transform="translate(56.283 14.207)" fill="#7f4fc7"/>
          <path id="Trazado_194886" data-name="Trazado 194886" d="M53.858,105.079a2.112,2.112,0,1,0-2.11,2.111,2.11,2.11,0,0,0,2.11-2.111" transform="translate(67.539 14.207)" fill="#7f4fc7"/>
          <path id="Trazado_194887" data-name="Trazado 194887" d="M62.131,105.079a2.112,2.112,0,1,0-2.11,2.111,2.111,2.111,0,0,0,2.11-2.111" transform="translate(78.796 14.207)" fill="#7f4fc7"/>
          <path id="Trazado_194888" data-name="Trazado 194888" d="M70.4,105.079a2.112,2.112,0,1,0-2.11,2.111,2.11,2.11,0,0,0,2.11-2.111" transform="translate(90.053 14.207)" fill="#7f4fc7"/>
          <path id="Trazado_194889" data-name="Trazado 194889" d="M4.223,113.353a2.112,2.112,0,1,0-2.11,2.11,2.11,2.11,0,0,0,2.11-2.11" transform="translate(0 25.464)" fill="#7f4fc7"/>
          <path id="Trazado_194890" data-name="Trazado 194890" d="M12.5,113.353a2.112,2.112,0,1,0-2.11,2.11,2.11,2.11,0,0,0,2.11-2.11" transform="translate(11.256 25.464)" fill="#7f4fc7"/>
          <path id="Trazado_194891" data-name="Trazado 194891" d="M20.768,113.353a2.112,2.112,0,1,0-2.11,2.11,2.11,2.11,0,0,0,2.11-2.11" transform="translate(22.513 25.464)" fill="#7f4fc7"/>
          <path id="Trazado_194892" data-name="Trazado 194892" d="M29.041,113.353a2.112,2.112,0,1,0-2.11,2.11,2.11,2.11,0,0,0,2.11-2.11" transform="translate(33.77 25.464)" fill="#7f4fc7"/>
          <path id="Trazado_194893" data-name="Trazado 194893" d="M37.313,113.353a2.112,2.112,0,1,0-2.11,2.11,2.11,2.11,0,0,0,2.11-2.11" transform="translate(45.026 25.464)" fill="#7f4fc7"/>
          <path id="Trazado_194894" data-name="Trazado 194894" d="M45.586,113.353a2.112,2.112,0,1,0-2.11,2.11,2.11,2.11,0,0,0,2.11-2.11" transform="translate(56.283 25.464)" fill="#7f4fc7"/>
          <path id="Trazado_194895" data-name="Trazado 194895" d="M53.858,113.353a2.112,2.112,0,1,0-2.11,2.11,2.11,2.11,0,0,0,2.11-2.11" transform="translate(67.539 25.464)" fill="#7f4fc7"/>
          <path id="Trazado_194896" data-name="Trazado 194896" d="M62.131,113.353a2.112,2.112,0,1,0-2.11,2.11,2.111,2.111,0,0,0,2.11-2.11" transform="translate(78.796 25.464)" fill="#7f4fc7"/>
          <path id="Trazado_194897" data-name="Trazado 194897" d="M70.4,113.353a2.112,2.112,0,1,0-2.11,2.11,2.11,2.11,0,0,0,2.11-2.11" transform="translate(90.053 25.464)" fill="#7f4fc7"/>
          <path id="Trazado_194898" data-name="Trazado 194898" d="M4.223,121.624a2.112,2.112,0,1,0-2.11,2.11,2.11,2.11,0,0,0,2.11-2.11" transform="translate(0 36.72)" fill="#7f4fc7"/>
          <path id="Trazado_194899" data-name="Trazado 194899" d="M12.5,121.624a2.112,2.112,0,1,0-2.11,2.11,2.11,2.11,0,0,0,2.11-2.11" transform="translate(11.256 36.72)" fill="#7f4fc7"/>
          <path id="Trazado_194900" data-name="Trazado 194900" d="M20.768,121.624a2.112,2.112,0,1,0-2.11,2.11,2.11,2.11,0,0,0,2.11-2.11" transform="translate(22.513 36.72)" fill="#7f4fc7"/>
          <path id="Trazado_194901" data-name="Trazado 194901" d="M29.041,121.624a2.112,2.112,0,1,0-2.11,2.11,2.11,2.11,0,0,0,2.11-2.11" transform="translate(33.77 36.72)" fill="#7f4fc7"/>
          <path id="Trazado_194902" data-name="Trazado 194902" d="M37.313,121.624a2.112,2.112,0,1,0-2.11,2.11,2.11,2.11,0,0,0,2.11-2.11" transform="translate(45.026 36.72)" fill="#7f4fc7"/>
          <path id="Trazado_194903" data-name="Trazado 194903" d="M45.586,121.624a2.112,2.112,0,1,0-2.11,2.11,2.11,2.11,0,0,0,2.11-2.11" transform="translate(56.283 36.72)" fill="#7f4fc7"/>
          <path id="Trazado_194904" data-name="Trazado 194904" d="M53.858,121.624a2.112,2.112,0,1,0-2.11,2.11,2.11,2.11,0,0,0,2.11-2.11" transform="translate(67.539 36.72)" fill="#7f4fc7"/>
          <path id="Trazado_194905" data-name="Trazado 194905" d="M62.131,121.624a2.112,2.112,0,1,0-2.11,2.11,2.111,2.111,0,0,0,2.11-2.11" transform="translate(78.796 36.72)" fill="#7f4fc7"/>
          <path id="Trazado_194906" data-name="Trazado 194906" d="M70.4,121.624a2.112,2.112,0,1,0-2.11,2.11,2.11,2.11,0,0,0,2.11-2.11" transform="translate(90.053 36.72)" fill="#7f4fc7"/>
        </g>
      </g>
      <g id="Grupo_154314" data-name="Grupo 154314" transform="translate(685.911 203.25)">
        <g id="Grupo_152551" data-name="Grupo 152551" transform="translate(0 163.409) rotate(-90)">
          <rect id="Rectángulo_45220" data-name="Rectángulo 45220" width="146.228" height="40.649" transform="translate(147.249 40.649) rotate(180)" fill="#e8e8e8"/>
          <g id="Grupo_152556" data-name="Grupo 152556" transform="translate(0 22.517)">
            <rect id="Rectángulo_45221" data-name="Rectángulo 45221" width="6.908" height="6.907" transform="translate(156.502 29.356)" fill="#1894f6"/>
            <rect id="Rectángulo_45222" data-name="Rectángulo 45222" width="6.907" height="6.907" transform="translate(141.823 29.356)" fill="#1894f6"/>
            <rect id="Rectángulo_45223" data-name="Rectángulo 45223" width="6.907" height="6.907" transform="translate(125.201 29.356)" fill="#1894f6"/>
            <rect id="Rectángulo_45224" data-name="Rectángulo 45224" width="6.907" height="6.907" transform="translate(109.551 29.356)" fill="#1894f6"/>
            <rect id="Rectángulo_45225" data-name="Rectángulo 45225" width="6.907" height="6.907" transform="translate(93.901 29.356)" fill="#1894f6"/>
            <rect id="Rectángulo_45226" data-name="Rectángulo 45226" width="6.907" height="6.907" transform="translate(78.251 29.356)" fill="#1894f6"/>
            <rect id="Rectángulo_45227" data-name="Rectángulo 45227" width="6.907" height="6.907" transform="translate(62.601 29.356)" fill="#1894f6"/>
            <rect id="Rectángulo_45228" data-name="Rectángulo 45228" width="6.907" height="6.907" transform="translate(46.951 29.356)" fill="#1894f6"/>
            <rect id="Rectángulo_45229" data-name="Rectángulo 45229" width="6.908" height="6.907" transform="translate(31.3 29.356)" fill="#1894f6"/>
            <rect id="Rectángulo_45230" data-name="Rectángulo 45230" width="6.907" height="6.907" transform="translate(14.678 29.356)" fill="#1894f6"/>
            <rect id="Rectángulo_45231" data-name="Rectángulo 45231" width="6.908" height="6.907" transform="translate(0 29.356)" fill="#1894f6"/>
            <rect id="Rectángulo_45232" data-name="Rectángulo 45232" width="6.908" height="6.908" transform="translate(156.502 14.678)" fill="#1894f6"/>
            <rect id="Rectángulo_45233" data-name="Rectángulo 45233" width="6.907" height="6.908" transform="translate(141.823 14.678)" fill="#1894f6"/>
            <rect id="Rectángulo_45234" data-name="Rectángulo 45234" width="6.907" height="6.908" transform="translate(125.201 14.678)" fill="#1894f6"/>
            <rect id="Rectángulo_45235" data-name="Rectángulo 45235" width="6.907" height="6.908" transform="translate(109.551 14.678)" fill="#1894f6"/>
            <rect id="Rectángulo_45236" data-name="Rectángulo 45236" width="6.907" height="6.908" transform="translate(93.901 14.678)" fill="#1894f6"/>
            <rect id="Rectángulo_45237" data-name="Rectángulo 45237" width="6.907" height="6.908" transform="translate(78.251 14.678)" fill="#1894f6"/>
            <rect id="Rectángulo_45238" data-name="Rectángulo 45238" width="6.907" height="6.908" transform="translate(62.601 14.678)" fill="#1894f6"/>
            <rect id="Rectángulo_45239" data-name="Rectángulo 45239" width="6.907" height="6.908" transform="translate(46.951 14.678)" fill="#1894f6"/>
            <rect id="Rectángulo_45240" data-name="Rectángulo 45240" width="6.908" height="6.908" transform="translate(31.3 14.678)" fill="#1894f6"/>
            <rect id="Rectángulo_45241" data-name="Rectángulo 45241" width="6.907" height="6.908" transform="translate(14.678 14.678)" fill="#1894f6"/>
            <rect id="Rectángulo_45242" data-name="Rectángulo 45242" width="6.908" height="6.908" transform="translate(0 14.678)" fill="#1894f6"/>
            <rect id="Rectángulo_45243" data-name="Rectángulo 45243" width="6.908" height="6.907" transform="translate(156.502)" fill="#1894f6"/>
            <rect id="Rectángulo_45244" data-name="Rectángulo 45244" width="6.907" height="6.907" transform="translate(141.823)" fill="#1894f6"/>
            <rect id="Rectángulo_45245" data-name="Rectángulo 45245" width="6.907" height="6.907" transform="translate(125.201)" fill="#1894f6"/>
            <rect id="Rectángulo_45246" data-name="Rectángulo 45246" width="6.907" height="6.907" transform="translate(109.551)" fill="#1894f6"/>
            <rect id="Rectángulo_45247" data-name="Rectángulo 45247" width="6.907" height="6.907" transform="translate(93.901)" fill="#1894f6"/>
            <rect id="Rectángulo_45248" data-name="Rectángulo 45248" width="6.907" height="6.907" transform="translate(78.251)" fill="#1894f6"/>
            <rect id="Rectángulo_45249" data-name="Rectángulo 45249" width="6.907" height="6.907" transform="translate(62.601)" fill="#1894f6"/>
            <rect id="Rectángulo_45250" data-name="Rectángulo 45250" width="6.907" height="6.907" transform="translate(46.951)" fill="#1894f6"/>
            <rect id="Rectángulo_45251" data-name="Rectángulo 45251" width="6.908" height="6.907" transform="translate(31.3)" fill="#1894f6"/>
            <rect id="Rectángulo_45252" data-name="Rectángulo 45252" width="6.907" height="6.907" transform="translate(14.678)" fill="#1894f6"/>
            <rect id="Rectángulo_45253" data-name="Rectángulo 45253" width="6.908" height="6.907" fill="#1894f6"/>
          </g>
        </g>
      </g>
      <g id="Grupo_154317" data-name="Grupo 154317" transform="translate(188.637 353.468)">
        <g id="Grupo_154315" data-name="Grupo 154315" transform="translate(60.153 17.495)">
          <path id="Trazado_195058" data-name="Trazado 195058" d="M15.282,228.314H89.5a2.782,2.782,0,1,0,0-5.563H15.282a2.782,2.782,0,1,0,0,5.563" transform="translate(-12.5 -222.751)" fill="#3cafff"/>
          <path id="Trazado_195059" data-name="Trazado 195059" d="M85.243,228.314h18.737a2.782,2.782,0,1,0,0-5.563H85.243a2.782,2.782,0,1,0,0,5.563" transform="translate(4.149 -222.751)" fill="#3cafff"/>
          <path id="Trazado_195064" data-name="Trazado 195064" d="M137.363,232.612H85.229a1.954,1.954,0,0,0,0,3.908h52.135a1.954,1.954,0,0,0,0-3.908" transform="translate(4.342 -220.404)" fill="#3cafff"/>
          <path id="Trazado_195065" data-name="Trazado 195065" d="M80.728,232.612H67.568a1.954,1.954,0,0,0,0,3.908H80.728a1.954,1.954,0,1,0,0-3.908" transform="translate(0.14 -220.404)" fill="#3cafff"/>
        </g>
        <g id="Grupo_154316" data-name="Grupo 154316">
          <path id="Trazado_195062" data-name="Trazado 195062" d="M202.868,1.333H115.252c-1.814,0-3.283.875-3.283,1.954s1.469,1.955,3.283,1.955h87.616c1.814,0,3.285-.875,3.285-1.955s-1.471-1.954-3.285-1.954" transform="translate(-54.848 -1.333)" fill="#7f4fc7"/>
          <path id="Trazado_195063" data-name="Trazado 195063" d="M133.8,1.333H99.413c-2.82,0-5.1.875-5.1,1.954s2.284,1.955,5.1,1.955H133.8c2.82,0,5.1-.875,5.1-1.955s-2.284-1.954-5.1-1.954" transform="translate(-94.309 -1.333)" fill="#7f4fc7"/>
        </g>
      </g>
      <g id="Grupo_154318" data-name="Grupo 154318" transform="translate(392.449 246.436)">
        <g id="Grupo_154315-2" data-name="Grupo 154315" transform="translate(91.836 8.887)">
          <path id="Trazado_195058-2" data-name="Trazado 195058" d="M14.48,226.711H67.3a1.98,1.98,0,1,0,0-3.96H14.48a1.98,1.98,0,1,0,0,3.96" transform="translate(-12.5 -222.751)" fill="#3cafff"/>
          <path id="Trazado_195059-2" data-name="Trazado 195059" d="M84.441,226.711H97.776a1.98,1.98,0,1,0,0-3.96H84.441a1.98,1.98,0,1,0,0,3.96" transform="translate(-20.818 -222.751)" fill="#3cafff"/>
          <path id="Trazado_195064-2" data-name="Trazado 195064" d="M121.771,232.612H84.665a1.391,1.391,0,0,0,0,2.782h37.106a1.391,1.391,0,0,0,0-2.782" transform="translate(-20.915 -223.923)" fill="#3cafff"/>
          <path id="Trazado_195065-2" data-name="Trazado 195065" d="M76.371,232.612H67a1.391,1.391,0,0,0,0,2.782h9.367a1.391,1.391,0,1,0,0-2.782" transform="translate(-18.815 -223.923)" fill="#3cafff"/>
        </g>
        <g id="Grupo_154316-2" data-name="Grupo 154316">
          <path id="Trazado_195062-2" data-name="Trazado 195062" d="M176.665,1.333H114.306c-1.291,0-2.337.623-2.337,1.39s1.045,1.391,2.337,1.391h62.359c1.291,0,2.338-.623,2.338-1.391s-1.047-1.39-2.338-1.39" transform="translate(-71.314 -1.333)" fill="#7f4fc7"/>
          <path id="Trazado_195063-2" data-name="Trazado 195063" d="M122.415,1.333H97.942c-2.007,0-3.633.623-3.633,1.39s1.625,1.391,3.633,1.391h24.473c2.007,0,3.633-.623,3.633-1.391s-1.625-1.39-3.633-1.39" transform="translate(-94.309 -1.333)" fill="#7f4fc7"/>
        </g>
      </g>
      <path id="Trazado_196485" data-name="Trazado 196485" d="M487.091,290.81A17.815,17.815,0,1,0,504.905,273a17.814,17.814,0,0,0-17.814,17.814" transform="translate(-0.976 58.872)" fill="#7463e5"/>
      <rect id="Rectángulo_46352" data-name="Rectángulo 46352" width="9.655" height="9.655" transform="translate(499.101 344.855)" fill="#1e0b4a"/>
      <path id="Trazado_196546" data-name="Trazado 196546" d="M280.7,87.887a49.34,49.34,0,0,1-.884-6.243c.063-.754,3.264-3.908,3.264-3.908s.58.654.011,2.087a16.085,16.085,0,0,1-1.137,2.115l1.463,4.151Z" transform="translate(68.183 124.02)" fill="#ed9f78"/>
      <g id="Grupo_154724" data-name="Grupo 154724" transform="translate(317.594 185.476)">
        <path id="Trazado_196476" data-name="Trazado 196476" d="M72.4,140.351H8.164l3.412-40.984H74.012Z" transform="translate(-6.007 -99.367)" fill="#7f4fc7"/>
        <line id="Línea_1859" data-name="Línea 1859" x2="32.904" transform="translate(6.066 13.192)" fill="none" stroke="#fff" stroke-linecap="round" stroke-linejoin="round" stroke-width="1.052"/>
        <line id="Línea_1860" data-name="Línea 1860" x2="32.904" transform="translate(6.066 16.505)" fill="none" stroke="#fff" stroke-linecap="round" stroke-linejoin="round" stroke-width="1.052"/>
        <line id="Línea_1861" data-name="Línea 1861" x2="11.701" transform="translate(6.066 19.818)" fill="none" stroke="#fff" stroke-linecap="round" stroke-linejoin="round" stroke-width="1.052"/>
        <line id="Línea_1862" data-name="Línea 1862" x2="32.904" transform="translate(6.066 23.131)" fill="none" stroke="#fff" stroke-linecap="round" stroke-linejoin="round" stroke-width="1.052"/>
        <ellipse id="Elipse_5793" data-name="Elipse 5793" cx="0.958" cy="0.958" rx="0.958" ry="0.958" transform="matrix(0.985, -0.17, 0.17, 0.985, 7.274, 2.784)" fill="none" stroke="#fff" stroke-linecap="round" stroke-linejoin="round" stroke-width="1.052"/>
        <ellipse id="Elipse_5794" data-name="Elipse 5794" cx="0.958" cy="0.958" rx="0.958" ry="0.958" transform="translate(10.528 2.773) rotate(-9.217)" fill="none" stroke="#fff" stroke-linecap="round" stroke-linejoin="round" stroke-width="1.052"/>
        <ellipse id="Elipse_5795" data-name="Elipse 5795" cx="0.958" cy="0.958" rx="0.958" ry="0.958" transform="translate(13.775 2.773) rotate(-9.217)" fill="none" stroke="#fff" stroke-linecap="round" stroke-linejoin="round" stroke-width="1.052"/>
        <line id="Línea_1863" data-name="Línea 1863" x2="24.886" transform="translate(0 6.529)" fill="none" stroke="#1e0b4a" stroke-linecap="round" stroke-linejoin="round" stroke-width="1.052"/>
        <path id="Trazado_196477" data-name="Trazado 196477" d="M38.721,244.495,9.612,274.648H8.164l16.883-30.153Z" transform="translate(26.917 -203.509)" fill="#12263f"/>
      </g>
      <g id="Grupo_154726" data-name="Grupo 154726" transform="translate(232.194 149.956)">
        <path id="Trazado_196486" data-name="Trazado 196486" d="M226.757,107.2a4.3,4.3,0,0,1-1.8,3.266" transform="translate(-145.712 -35.766)" fill="none" stroke="#d66050" stroke-linecap="round" stroke-linejoin="round" stroke-width="0.848"/>
        <path id="Trazado_196487" data-name="Trazado 196487" d="M106.033,344.24v-.67a2.222,2.222,0,0,1,.359-1.212l5.646-8.692,11.808-3.468,2.016,12.467a2.262,2.262,0,0,1,.029.355v1.219Z" transform="translate(-106.033 -110.169)" fill="#1e0b4a"/>
        <path id="Trazado_196488" data-name="Trazado 196488" d="M168.519,331.771l11.723-1.573,25.01,12.263a.937.937,0,0,1-.412,1.779H168.318Z" transform="translate(-126.814 -110.169)" fill="#1e0b4a"/>
        <path id="Trazado_196489" data-name="Trazado 196489" d="M163.76,144.715c5.126,35.677-.758,81.949,3.238,125.171l16.677.856c3.551-54.606,8.379-77.724,11.247-122.893Z" transform="translate(-125.293 -48.283)" fill="#1e0b4a"/>
        <path id="Trazado_196490" data-name="Trazado 196490" d="M167.183,145.427S138.838,246.238,127.51,271.85l-12.465-.318c6.616-45.087,16.492-98.074,22.279-127.564Z" transform="translate(-109.04 -48.034)" fill="#1e0b4a"/>
        <path id="Trazado_196491" data-name="Trazado 196491" d="M221.808,92.823c-.967-3.77-2.823-11.351-2.823-11.351l-16.2-3.678s5.7,26.654,11.209,26.174c4.613-.4,9.069-6.267,7.818-11.145" transform="translate(-138.312 -25.955)" fill="#ed9f78"/>
        <path id="Trazado_196492" data-name="Trazado 196492" d="M218.252,72.617H200.583l4.643-21.361c7.634,2.694,11.658,15.257,13.026,21.361" transform="translate(-137.579 -17.101)" fill="#e0d5f1"/>
        <path id="Trazado_196493" data-name="Trazado 196493" d="M188.311,114.119c2.21-28.981,3.488-46.393,3.612-56.983.057-4.882-1.83-6.378-3.562-7.385-8.863-5.146-27.471-6.8-39.8-5.9-4.169.3-4.892,2.48-4.535,8.006.418,6.466,2.871,25.54,3.209,40.716.212,9.544-.27,17.916-.27,17.916Z" transform="translate(-118.683 -14.552)" fill="#e0d5f1"/>
        <path id="Trazado_196494" data-name="Trazado 196494" d="M164.8,43.659c7.432,11.984,18.16,6.921,17.285,1.742A98.182,98.182,0,0,0,164.8,43.659" transform="translate(-125.642 -14.567)" fill="#fcc5a0"/>
        <path id="Trazado_196495" data-name="Trazado 196495" d="M146.7,53.921c.932,11.539,1.135,18.361,2.045,29.028,0,0,30.133,3.264,37.4,3.912l-1.122,7.985c-7.928.093-32.993,1.415-44.129.566-4.933-.376-5.767-4.423-6.265-10.664-.615-7.709-.767-10.291-.889-18.575C133.588,55.42,146.7,53.921,146.7,53.921" transform="translate(-115.279 -17.99)" fill="#fcc5a0"/>
        <path id="Trazado_196496" data-name="Trazado 196496" d="M148.289,43.712c-4.924.169-5.829.207-8.35.811-5.127,1.227-6.925,6.851-6.694,15.762.095,3.642.513,10.3.513,10.3l15.764.04Z" transform="translate(-115.105 -14.584)" fill="#e0d5f1"/>
        <path id="Trazado_196497" data-name="Trazado 196497" d="M201.184,107.436c6.831-.277,9.991-12.929,4.262-13.945-2.591-.459-36.121-5.257-40.271-5.292-2.645-.023-4.131,5.033-2.531,6.187,2.875,2.074,30.1,13.392,38.539,13.05" transform="translate(-124.701 -29.427)" fill="#fcc5a0"/>
        <path id="Trazado_196498" data-name="Trazado 196498" d="M163.452,88.194s-3.837-.317-5.911.538a4.294,4.294,0,0,0-2.107,1.82l.484,3.814,5.553.6Z" transform="translate(-122.515 -29.406)" fill="#fcc5a0"/>
        <path id="Trazado_196499" data-name="Trazado 196499" d="M196.291,110.512c-2.562.071-8.274.261-12.931.4a78.483,78.483,0,0,1-13.778-10.079c6.662,2.913,18.877,7.705,26.709,9.678" transform="translate(-127.236 -33.643)" fill="#ed9f78"/>
        <path id="Trazado_196500" data-name="Trazado 196500" d="M188.24,5.751a4.856,4.856,0,0,1,.1,4,15.02,15.02,0,0,0-.948-2.733Z" transform="translate(-133.178 -1.919)" fill="#1e0b4a"/>
        <path id="Trazado_196501" data-name="Trazado 196501" d="M181.833,3.911s3.378,12.551,3.884,20.118c.161,2.41-1.341,3.076-3.757,3.392a6.711,6.711,0,0,1-7.225-4.055C170.2,14.034,170.526,6.793,173.149,5.3s8.684-1.393,8.684-1.393" transform="translate(-127.787 -1.305)" fill="#fcc5a0"/>
        <path id="Trazado_196502" data-name="Trazado 196502" d="M174.462,17.754l-.63,20.9,5.613.21.793-20.852Z" transform="translate(-128.653 -5.924)" fill="#fcc5a0"/>
        <path id="Trazado_196503" data-name="Trazado 196503" d="M176.8,35.86a12.3,12.3,0,0,1-.84-4.231c.015.05.029.1.043.149a6.518,6.518,0,0,0,4.416,4.639l-.093,2.619A6.526,6.526,0,0,1,176.8,35.86" transform="translate(-129.363 -10.553)" fill="#d66050"/>
        <path id="Trazado_196504" data-name="Trazado 196504" d="M171.853,20.849c.243-1.415,1.737-3.764,1.587-6.6-.05-.946-1.519-4.389-1.383-5.326.25-1.713,2.53-2.251,4.222-2.478s4.293-.127,5.011-.912c1.1-1.2.327-4.643.327-4.643l-4.133.136L177.159,0s-5.8.831-8,3.355a6.62,6.62,0,0,0-1.589,6.614c.818,2.9,4.282,10.88,4.282,10.88" transform="translate(-126.464)" fill="#1e0b4a"/>
        <path id="Trazado_196505" data-name="Trazado 196505" d="M172.2,21a1.7,1.7,0,0,0-1.906.628,1.852,1.852,0,0,0,.025,1.657,4.329,4.329,0,0,0,4.175,2.573s.281-4.053-2.294-4.858" transform="translate(-127.41 -6.981)" fill="#fcc5a0"/>
        <path id="Trazado_196506" data-name="Trazado 196506" d="M183.4,16.618l-2.468.491s2.168-2.274,2.468-.491" transform="translate(-131.022 -5.317)" fill="#1e0b4a"/>
        <path id="Trazado_196507" data-name="Trazado 196507" d="M187.45,15.949l1.816-.361s-2.208-1.4-1.816.361" transform="translate(-133.182 -5.025)" fill="#1e0b4a"/>
        <path id="Trazado_196508" data-name="Trazado 196508" d="M187.162,27.665a6.366,6.366,0,0,1-3.767-1.7" transform="translate(-131.844 -8.663)" fill="none" stroke="#d66050" stroke-linecap="round" stroke-linejoin="round" stroke-width="0.848"/>
        <path id="Trazado_196509" data-name="Trazado 196509" d="M187.105,17.456a5.75,5.75,0,0,0,.546,3.015,7.444,7.444,0,0,1,.482,1.046,1.472,1.472,0,0,1-.4,1.179" transform="translate(-133.074 -5.824)" fill="none" stroke="#d66050" stroke-linecap="round" stroke-linejoin="round" stroke-width="0.848"/>
        <path id="Trazado_196510" data-name="Trazado 196510" d="M184.22,18.925a.376.376,0,1,1-.442-.3.376.376,0,0,1,.442.3" transform="translate(-131.871 -6.213)" fill="#1e0b4a"/>
        <path id="Trazado_196511" data-name="Trazado 196511" d="M189.42,17.891a.376.376,0,1,1-.442-.3.376.376,0,0,1,.442.3" transform="translate(-133.606 -5.868)" fill="#1e0b4a"/>
        <path id="Trazado_196512" data-name="Trazado 196512" d="M188.339,35.879a5.311,5.311,0,0,1-1.415-.179" transform="translate(-133.022 -11.911)" fill="none" stroke="#d66050" stroke-linecap="round" stroke-linejoin="round" stroke-width="0.848"/>
        <path id="Trazado_196513" data-name="Trazado 196513" d="M174.106,24.749a1.963,1.963,0,0,0-.462-1.742,1.932,1.932,0,0,0-.778-.506" transform="translate(-128.331 -7.507)" fill="none" stroke="#d66050" stroke-linecap="round" stroke-linejoin="round" stroke-width="0.848"/>
        <path id="Trazado_196514" data-name="Trazado 196514" d="M141.529,112.524a3.773,3.773,0,0,1-2.217-2.054" transform="translate(-117.136 -36.858)" fill="none" stroke="#d66050" stroke-linecap="round" stroke-linejoin="round" stroke-width="0.848"/>
        <path id="Trazado_196515" data-name="Trazado 196515" d="M161.65,150.6a23.665,23.665,0,0,1-10.328,9.3" transform="translate(-121.143 -50.246)" fill="none" stroke="#7463e5" stroke-linecap="round" stroke-linejoin="round" stroke-width="0.848"/>
        <path id="Trazado_196516" data-name="Trazado 196516" d="M132.119,338.77a16.912,16.912,0,0,0-1.327,7.828" transform="translate(-114.28 -113.029)" fill="none" stroke="#7463e5" stroke-linecap="round" stroke-linejoin="round" stroke-width="0.848"/>
      </g>
      <g id="Grupo_154725" data-name="Grupo 154725" transform="translate(248.711 246.436)">
        <path id="Trazado_196551" data-name="Trazado 196551" d="M253.61,144.788H218.627a3.289,3.289,0,0,0-3.111,2.219l-9.027,26.215h34.982A3.291,3.291,0,0,0,244.583,171Z" transform="translate(-156.067 -144.788)" fill="#1e0b4a"/>
        <path id="Trazado_196552" data-name="Trazado 196552" d="M228.984,184.35H185.16a2.25,2.25,0,0,0-2.012,2.072h45.836Z" transform="translate(-148.28 -157.988)" fill="#1e0b4a"/>
        <path id="Trazado_196553" data-name="Trazado 196553" d="M130.821,187.459h97.985a6.27,6.27,0,0,1,6.1,4.812l24.971,104.345" transform="translate(-130.821 -159.025)" fill="none" stroke="#3cafff" stroke-linecap="round" stroke-linejoin="round" stroke-width="1.052"/>
      </g>
      <g id="Grupo_154723" data-name="Grupo 154723" transform="translate(532.228 211.908)">
        <path id="Trazado_196478" data-name="Trazado 196478" d="M454,159.48q.54.56,1.071,1.129A86.174,86.174,0,0,1,478.321,222.8l-36.106-1.263A50.615,50.615,0,0,0,341.046,218l-36.106-1.262A86.744,86.744,0,0,1,454,159.48" transform="translate(-304.887 -133.02)" fill="#eeac3a"/>
        <path id="Trazado_196479" data-name="Trazado 196479" d="M478.314,233.461a86.743,86.743,0,1,1-173.38-6.063l36.106,1.262A50.614,50.614,0,1,0,442.207,232.2Z" transform="translate(-304.88 -143.685)" fill="#7f4fc7"/>
        <g id="Grupo_154720" data-name="Grupo 154720" transform="translate(0.055 0)">
          <g id="Grupo_154719" data-name="Grupo 154719" transform="translate(0 0)" clip-path="url(#clip-path-2)">
            <line id="Línea_1864" data-name="Línea 1864" y1="87.772" x2="232.604" transform="translate(-57.184 -79.605)" fill="none" stroke="#fff" stroke-linecap="round" stroke-linejoin="round" stroke-width="1.052"/>
            <line id="Línea_1865" data-name="Línea 1865" y1="87.772" x2="232.604" transform="translate(-54.905 -73.567)" fill="none" stroke="#fff" stroke-linecap="round" stroke-linejoin="round" stroke-width="1.052"/>
            <line id="Línea_1866" data-name="Línea 1866" y1="87.772" x2="232.604" transform="translate(-52.626 -67.528)" fill="none" stroke="#fff" stroke-linecap="round" stroke-linejoin="round" stroke-width="1.052"/>
            <line id="Línea_1867" data-name="Línea 1867" y1="87.772" x2="232.604" transform="translate(-50.347 -61.487)" fill="none" stroke="#fff" stroke-linecap="round" stroke-linejoin="round" stroke-width="1.052"/>
            <line id="Línea_1868" data-name="Línea 1868" y1="87.772" x2="232.604" transform="translate(-48.068 -55.448)" fill="none" stroke="#fff" stroke-linecap="round" stroke-linejoin="round" stroke-width="1.052"/>
            <line id="Línea_1869" data-name="Línea 1869" y1="87.772" x2="232.604" transform="translate(-45.789 -49.409)" fill="none" stroke="#fff" stroke-linecap="round" stroke-linejoin="round" stroke-width="1.052"/>
            <line id="Línea_1870" data-name="Línea 1870" y1="87.772" x2="232.604" transform="translate(-43.51 -43.37)" fill="none" stroke="#fff" stroke-linecap="round" stroke-linejoin="round" stroke-width="1.052"/>
            <line id="Línea_1871" data-name="Línea 1871" y1="87.772" x2="232.604" transform="translate(-41.232 -37.331)" fill="none" stroke="#fff" stroke-linecap="round" stroke-linejoin="round" stroke-width="1.052"/>
            <line id="Línea_1872" data-name="Línea 1872" y1="87.772" x2="232.604" transform="translate(-38.953 -31.292)" fill="none" stroke="#fff" stroke-linecap="round" stroke-linejoin="round" stroke-width="1.052"/>
            <line id="Línea_1873" data-name="Línea 1873" y1="87.772" x2="232.604" transform="translate(-36.674 -25.252)" fill="none" stroke="#fff" stroke-linecap="round" stroke-linejoin="round" stroke-width="1.052"/>
            <line id="Línea_1874" data-name="Línea 1874" y1="87.772" x2="232.604" transform="translate(-34.395 -19.213)" fill="none" stroke="#fff" stroke-linecap="round" stroke-linejoin="round" stroke-width="1.052"/>
            <line id="Línea_1875" data-name="Línea 1875" y1="87.772" x2="232.604" transform="translate(-32.116 -13.174)" fill="none" stroke="#fff" stroke-linecap="round" stroke-linejoin="round" stroke-width="1.052"/>
            <line id="Línea_1876" data-name="Línea 1876" y1="87.772" x2="232.604" transform="translate(-29.837 -7.134)" fill="none" stroke="#fff" stroke-linecap="round" stroke-linejoin="round" stroke-width="1.052"/>
            <line id="Línea_1877" data-name="Línea 1877" y1="87.772" x2="232.604" transform="translate(-27.558 -1.095)" fill="none" stroke="#fff" stroke-linecap="round" stroke-linejoin="round" stroke-width="1.052"/>
          </g>
        </g>
      </g>
      <g id="Grupo_154728" data-name="Grupo 154728" transform="translate(586.532 159.969)">
        <path id="Trazado_196554" data-name="Trazado 196554" d="M471.285,6.316C490.858.953,507.607,35.4,486.165,43.044,447.024,53.623,444.837,5.59,467.748,5.9c.89.012,3.537.42,3.537.42" transform="translate(-412.649 -5.751)" fill="#1e0b4a"/>
        <rect id="Rectángulo_46353" data-name="Rectángulo 46353" width="22.273" height="4.939" transform="translate(55.716 41.567) rotate(-82.571)" fill="#be6248"/>
        <path id="Trazado_196555" data-name="Trazado 196555" d="M472.645,36.73c1.255,1.7,3.358.527,4.081.083,3.156-1.938,5.727-6.427,6.7-12.138a38.511,38.511,0,0,0,.554-8.868,11.874,11.874,0,0,0-11.3-2.663c-1.5,7.165-2.917,19.678-.031,23.586" transform="translate(-418.632 -8.053)" fill="#be6248"/>
        <path id="Trazado_196556" data-name="Trazado 196556" d="M473.676,25.254l-2.222,0s1.235-1.475,2.222,0" transform="translate(-418.793 -12.039)" fill="#1e0b4a"/>
        <path id="Trazado_196557" data-name="Trazado 196557" d="M473.167,27.661c-.042.323-.276.56-.522.528a.536.536,0,0,1-.37-.644c.042-.323.277-.559.522-.527a.534.534,0,0,1,.37.644" transform="translate(-419.065 -12.846)" fill="#1e0b4a"/>
        <path id="Trazado_196558" data-name="Trazado 196558" d="M478.356,25.7l3.542.918s-2.287-2.444-3.542-.918" transform="translate(-421.096 -12.24)" fill="#1e0b4a"/>
        <path id="Trazado_196559" data-name="Trazado 196559" d="M479.06,28.406a.55.55,0,1,0,.62-.574.6.6,0,0,0-.62.574" transform="translate(-421.329 -13.117)" fill="#1e0b4a"/>
        <path id="Trazado_196560" data-name="Trazado 196560" d="M475.591,26.841a6.234,6.234,0,0,1-.941,3.887c-.267.368-.46.486-.513.734-.1.5.458.895,1.022.968" transform="translate(-419.684 -12.788)" fill="none" stroke="#853534" stroke-linecap="round" stroke-linejoin="round" stroke-width="0.829"/>
        <path id="Trazado_196561" data-name="Trazado 196561" d="M478.751,31.343a1.019,1.019,0,1,0,1.143-.879,1.019,1.019,0,0,0-1.143.879" transform="translate(-421.225 -13.994)" fill="#853534"/>
        <path id="Trazado_196562" data-name="Trazado 196562" d="M471.509,29.412a1.025,1.025,0,0,1-.264,2.022.8.8,0,0,1-.21-.059c.057-.644.124-1.3.2-1.947a.822.822,0,0,1,.275-.015" transform="translate(-418.653 -13.644)" fill="#853534"/>
        <path id="Trazado_196563" data-name="Trazado 196563" d="M483.468,41a15.652,15.652,0,0,1-5.77,9.6l.51-3.915c1.888-.82,3.755-2.747,5.26-5.686" transform="translate(-420.876 -17.511)" fill="#853534"/>
        <path id="Trazado_196564" data-name="Trazado 196564" d="M471.992,9.586s1.435,4.707,2.484,5.963c1.546,1.847,8.329,5.927,9.288,8.1,2.547,5.79-3.686,21.81-3.686,21.81s19.04-8.124,14.985-20.63S471.992,9.586,471.992,9.586" transform="translate(-418.973 -7.031)" fill="#1e0b4a"/>
        <path id="Trazado_196565" data-name="Trazado 196565" d="M478.1,35.77a3.959,3.959,0,0,1-3.444,1.731" transform="translate(-419.861 -15.767)" fill="none" stroke="#853534" stroke-linecap="round" stroke-linejoin="round" stroke-width="0.829"/>
        <path id="Trazado_196566" data-name="Trazado 196566" d="M488.262,28.077a3.482,3.482,0,0,1,.98-1.61,1.208,1.208,0,0,1,1.307-.359,1.288,1.288,0,0,1,.555.968,2.963,2.963,0,0,1-.821,2.519,2.4,2.4,0,0,1-2.383.586Z" transform="translate(-424.281 -12.515)" fill="#be6248"/>
        <path id="Trazado_196567" data-name="Trazado 196567" d="M489.651,29.2a2.606,2.606,0,0,1,.424-1.624,1.589,1.589,0,0,1,.547-.483" transform="translate(-424.864 -12.872)" fill="none" stroke="#853534" stroke-linecap="round" stroke-linejoin="round" stroke-width="0.829"/>
        <path id="Trazado_196568" data-name="Trazado 196568" d="M440.734,106.128c4.091-3.484,8.15-10.367,10.015-14.6-.155-7.234-9.157-4.577-9.157-4.577a103.848,103.848,0,0,0-3.24,11.406Z" transform="translate(-407.749 -32.683)" fill="#853534"/>
        <path id="Trazado_196569" data-name="Trazado 196569" d="M407.393,47.733c.792-1.437,4.169.88,5.935,2.256s3.892,3.041,6.1,3.419c-2.937-4.051-2.3-4.88-1.99-5.294,1.776,1.733,5.571,4.688,5,10.2a12.647,12.647,0,0,0,.566,3.257,31.517,31.517,0,0,1-5.469,2.625c-.1-.881-.243-1.644-.311-2.409-3.133-.639-5.885-2.877-6.991-3.654l-.089-.042a29.911,29.911,0,0,1-6.49-3.218c.108-.33.337-.607,1.295-.53,1.458.119,3.288,1.317,5.469,1.64a35.348,35.348,0,0,1-7.6-4.33c.212-.327.558-.778,1.942-.3,1.271.443,4.993,2.034,6.216,2.549a65.328,65.328,0,0,1-7.455-5.25c.137-.522,1.093-.858,2.623.046,2.759,1.629,4.231,2.314,6.552,3.508Z" transform="translate(-395.895 -19.607)" fill="#be6248"/>
        <path id="Trazado_196570" data-name="Trazado 196570" d="M430.374,68.727c2.066,7.71,6.316,15.57,8.211,23.764,1.377,5.959-3.289,10.272-6.759,8.835-3.275-1.357-5.7-18.608-6.921-29.974Z" transform="translate(-403.262 -26.763)" fill="#be6248"/>
        <path id="Trazado_196571" data-name="Trazado 196571" d="M424.225,57.192a10.45,10.45,0,0,0,2.661,6.154" transform="translate(-403.035 -22.914)" fill="none" stroke="#853534" stroke-linecap="round" stroke-linejoin="round" stroke-width="0.829"/>
        <path id="Trazado_196572" data-name="Trazado 196572" d="M422.933,205.754c-1.19,9.52,1.26,46.542,2.332,58.375l11.425,5.854c1.862-14.828,5.206-39.525,6.318-58.2a14.819,14.819,0,0,1,1.128-4.849c4.787-11.443,8.437-19.271,12.386-32.76.087,30.662-.86,55.843-.7,89.956l11.3,5.552c6.546-27.307,16.64-79.123,16.26-97.974-.165-8.19-3.511-29.7-6.488-36.634-9.558,1.719-25.511.114-36.5,3.725l-4.7,19.566s-10.4,28.532-12.76,47.39" transform="translate(-402.498 -48.899)" fill="#1e0b4a"/>
        <path id="Trazado_196573" data-name="Trazado 196573" d="M447.612,113.44c4.5-15.242.834-34.706,3-46.465.251-1.361,2.279-2.775,3.626-3.221a84.876,84.876,0,0,1,29.721-4.665c4.628.1,4.74,8.139,3.965,13.2-2.838,18.553-6.486,26.871-2.451,38.278-15.25,1.187-33.519,2.638-37.856,2.869" transform="translate(-410.838 -23.54)" fill="#fff"/>
        <path id="Trazado_196574" data-name="Trazado 196574" d="M462.03,342.351v-.556a2.789,2.789,0,0,1,.358-1.368c3.243-4.039,6.158-8.033,6.584-11.679L478,330.5a3.809,3.809,0,0,1,3.056,3.288l.858,7.207v1.355Z" transform="translate(-415.649 -113.517)" fill="#7463e5"/>
        <path id="Trazado_196575" data-name="Trazado 196575" d="M423.823,329.906l-8.631-1.158c-5.286,4.509-12.331,8.284-22.257,11.879a.908.908,0,0,0,.4,1.724h33.408l-.151-9.33a3.194,3.194,0,0,0-2.769-3.115" transform="translate(-392.426 -113.517)" fill="#7463e5"/>
        <path id="Trazado_196576" data-name="Trazado 196576" d="M484.526,59.135c-12.491,19.778-20.315,11.224-20.921,3.242a76.022,76.022,0,0,1,20.921-3.242" transform="translate(-416.174 -23.562)" fill="#be6248"/>
        <path id="Trazado_196577" data-name="Trazado 196577" d="M457.415,63.217,451.3,136.358l-11.3-1.589s7.393-30.833,7.393-36.945c0-4.954-.206-13.175-.284-16.114a1.489,1.489,0,0,0-1.072-1.389l-3.9-1.131c3.768-12.545,5.824-13.35,15.271-15.973" transform="translate(-408.301 -24.924)" fill="#2194e5"/>
        <path id="Trazado_196578" data-name="Trazado 196578" d="M496.575,82.436l.052,20,6.734,33.622H481.7s-5.439-35.591-3.541-45.973,8.372-30.862,8.372-30.862Z" transform="translate(-420.895 -23.593)" fill="#2194e5"/>
        <path id="Trazado_196579" data-name="Trazado 196579" d="M523.026,111.709c-3.625-5.507-10.321-16.952-13.232-19.692l12.52-5.009a141.065,141.065,0,0,1,10.32,23.3Z" transform="translate(-431.585 -32.862)" fill="#853534"/>
        <path id="Trazado_196580" data-name="Trazado 196580" d="M501.436,128.946c4.511-1.7,16.163-11.477,20.95-12.355,5.1-.934,11.5,3.895,4.251,8.8s-21.046,9.013-21.046,9.013Z" transform="translate(-428.796 -42.694)" fill="#be6248"/>
        <path id="Trazado_196581" data-name="Trazado 196581" d="M500.99,140.565c.037,1.016-2.364,6.224-3.69,6.109-2.951-1.021-7.106-2.742-7.106-2.742a10.444,10.444,0,0,1,.9-3.27,9.281,9.281,0,0,0,.9-2.182c-.793,1.07-2.116,4.379-3.581,4.87a1.59,1.59,0,0,1-1.623-.121c.84-2.046,2.946-5.141,4.734-6.32a16.291,16.291,0,0,1,5.028-1.718Z" transform="translate(-423.909 -48.938)" fill="#be6248"/>
        <path id="Trazado_196582" data-name="Trazado 196582" d="M510.72,67.654c2.3,3.533,8.33,15.752,8.33,15.752l-15.634,6.458L490.921,59.13c9.344-.475,13.7-.818,19.8,8.523" transform="translate(-425.288 -23.496)" fill="#2194e5"/>
        <line id="Línea_1883" data-name="Línea 1883" x1="10.073" y1="3.977" transform="translate(65.158 94.487)" fill="none" stroke="#1e0b4a" stroke-linecap="round" stroke-linejoin="round" stroke-width="0.829"/>
      </g>
      <g id="Grupo_154727" data-name="Grupo 154727" transform="translate(415.309 161.692)">
        <path id="Trazado_196517" data-name="Trazado 196517" d="M303.072,117.213s-7.429-18.344-4.8-24c.853-1.832,9.631.093,9.631.093l2.45,14.4Z" transform="translate(-248.92 -39.521)" fill="#ed9f78"/>
        <path id="Trazado_196518" data-name="Trazado 196518" d="M301.378,87.228l9.561-21.958c7.217,1.679,9.419,7.2,11.088,18.769-6.657,1.551-13.9,3.272-20.649,3.19" transform="translate(-263.034 -30.461)" fill="#1e0b4a"/>
        <path id="Trazado_196519" data-name="Trazado 196519" d="M301.331,101.207s-4.926,15.441-7.846,19.787c-2.565,3.819-8.7,1.183-8.539-4,.093-3.031,9.94-12.35,10.428-16.861Z" transform="translate(-231.388 -42.093)" fill="#fcc5a0"/>
        <path id="Trazado_196520" data-name="Trazado 196520" d="M338.064,46.986c-.29,2-.552,4.161.424,5.927a9.232,9.232,0,0,0,1.933,2.214,9.81,9.81,0,0,1,1.955,2.2,3.243,3.243,0,0,1,.323,2.829,7.089,7.089,0,0,1-3.314,3.765,12.248,12.248,0,0,1-4.866.8,14.564,14.564,0,0,1-5.567-.856,6.787,6.787,0,0,1-3.945-3.833,10.619,10.619,0,0,1-.065-5.078,9.993,9.993,0,0,1,1.578-4.772A8.544,8.544,0,0,1,330,47.807a14.348,14.348,0,0,1,8.062-.821" transform="translate(-299.421 -24.277)" fill="#7463e5"/>
        <path id="Trazado_196521" data-name="Trazado 196521" d="M351.628,29.818a30.349,30.349,0,0,0,.284,4.338,6.4,6.4,0,0,1-.9,4.2c-1.552,2.2-4.92,2.909-7.324,4.489a7.581,7.581,0,0,0-3.391,4.692,6.107,6.107,0,0,0,1.564,5.343,14,14,0,0,0,5.38,3.133q2.218.84,4.52,1.5c.825.238,3.728,1.387,4.493,1.044.748-.334,1.345-2.823,1.615-3.5q.734-1.834,1.293-3.714a42.651,42.651,0,0,0,1.666-15.4c-.221-2.92-.249-7.4-2.7-9.8a3.314,3.314,0,0,0-3.794-.519,4.743,4.743,0,0,0-2.71,4.182" transform="translate(-327.812 -17.117)" fill="#7463e5"/>
        <path id="Trazado_196522" data-name="Trazado 196522" d="M334.371,55.689l.846-19.765,4.934.211-.87,20.353Z" transform="translate(-303.144 -20.67)" fill="#fcc5a0"/>
        <path id="Trazado_196523" data-name="Trazado 196523" d="M334.986,40.815a15.434,15.434,0,0,0,3.936,10.4l.169-4.159c-1.617-1.235-2.951-3.191-4.1-6.242" transform="translate(-302.493 -22.302)" fill="#d66050"/>
        <path id="Trazado_196524" data-name="Trazado 196524" d="M333.029,39.182c-1.509,1.55-2.658.523-3.361,0-3.069-2.276-5.229-7.023-5.577-12.806a32.434,32.434,0,0,1,.674-8.321c2.988-2.352,8.168-1.3,11.712.36.732,7.287.021,17.2-3.448,20.766" transform="translate(-292.841 -14.252)" fill="#fcc5a0"/>
        <path id="Trazado_196525" data-name="Trazado 196525" d="M334.63,27.543l-3.84.156s2.886-1.911,3.84-.156" transform="translate(-295.236 -17.626)" fill="#1e0b4a"/>
        <path id="Trazado_196526" data-name="Trazado 196526" d="M332.934,30.117a.516.516,0,1,1-.523-.575.55.55,0,0,1,.523.575" transform="translate(-294.287 -18.541)" fill="#1e0b4a"/>
        <path id="Trazado_196527" data-name="Trazado 196527" d="M323.742,28.017l2.548.354s-1.806-2.056-2.548-.354" transform="translate(-282.2 -17.807)" fill="#1e0b4a"/>
        <path id="Trazado_196528" data-name="Trazado 196528" d="M325.273,30.479a.528.528,0,0,0,.376.644.546.546,0,0,0,.556-.512.528.528,0,0,0-.376-.644.546.546,0,0,0-.556.512" transform="translate(-283.137 -18.681)" fill="#1e0b4a"/>
        <path id="Trazado_196529" data-name="Trazado 196529" d="M332.964,32.011a1.085,1.085,0,0,1,1.074,1.148,1.189,1.189,0,0,1-1.074,1.229,1.085,1.085,0,0,1-1.073-1.147,1.19,1.19,0,0,1,1.073-1.23" transform="translate(-295.376 -19.364)" fill="#d66050"/>
        <path id="Trazado_196530" data-name="Trazado 196530" d="M333.032,39.673a3.086,3.086,0,0,1-3.29-2.549" transform="translate(-292.94 -21.071)" fill="none" stroke="#d66050" stroke-linecap="round" stroke-linejoin="round" stroke-width="0.829"/>
        <path id="Trazado_196531" data-name="Trazado 196531" d="M324.222,33.758a1.19,1.19,0,0,1,1.073-1.23,1,1,0,0,1,.578.171c-.051.728-.1,1.419-.2,2.123a1.429,1.429,0,0,1-.379.084,1.086,1.086,0,0,1-1.073-1.148" transform="translate(-282.104 -19.537)" fill="#d66050"/>
        <path id="Trazado_196532" data-name="Trazado 196532" d="M326.511,14.665c1.785-1.483,5.414-1.876,7.371-1.5,4.36.846,5.8,2.964,6.079,3.823a6.358,6.358,0,0,1,.125,2.982c-.194-1.309-.322-2.366-2.376-2.571-2.776-.277-4.85-.408-7.048,5.182a1.166,1.166,0,0,1-.83.7c-.822.181-1.443.4-1.822,2.174a10.562,10.562,0,0,0,.24,4.486,7.971,7.971,0,0,1-3.6-4.7c-.963-3.185-1.421-7.5,1.858-10.58" transform="translate(-296.249 -13.033)" fill="#7463e5"/>
        <path id="Trazado_196533" data-name="Trazado 196533" d="M344.19,27.69c-.442-1.248-1.333-1.438-1.778-1.263a1.287,1.287,0,0,0-.658.9,2.961,2.961,0,0,0,.536,2.595,2.046,2.046,0,0,0,2.112.78,5.4,5.4,0,0,0-.211-3.012" transform="translate(-312.366 -17.483)" fill="#fcc5a0"/>
        <path id="Trazado_196534" data-name="Trazado 196534" d="M343.739,29.677a2.6,2.6,0,0,0-.242-1.661,1.577,1.577,0,0,0-.49-.541" transform="translate(-312.524 -17.851)" fill="none" stroke="#d66050" stroke-linecap="round" stroke-linejoin="round" stroke-width="0.829"/>
        <path id="Trazado_196535" data-name="Trazado 196535" d="M328.673,29.127a26.6,26.6,0,0,0,.464,4.585,1.323,1.323,0,0,1-.559,1.259" transform="translate(-288.283 -18.402)" fill="none" stroke="#d66050" stroke-linecap="round" stroke-linejoin="round" stroke-width="0.829"/>
        <path id="Trazado_196536" data-name="Trazado 196536" d="M313.637,147.611c-2.8,18.022-5.353,52.868-7.205,64.5-1.583,9.939-9.673,42.511-12.512,61.386l12.086-5.041c8.349-18.643,21.261-54.832,29-91.677,0,31.517.8,65.159-.384,96.718l12.054-4.89c4.976-34.66,9.186-62.718,10.015-98.216.2-8.376-2.2-20.184-4.958-26.564Z" transform="translate(-292.738 -56.672)" fill="#b0c0d2"/>
        <path id="Trazado_196537" data-name="Trazado 196537" d="M301.437,64.368a3.353,3.353,0,0,1,3.19-3.266,96.664,96.664,0,0,1,29.325,2.944,4.635,4.635,0,0,1,3.435,4.1c.433,5.154,1.905,14.02.365,21.415,1.722,12.236,3.933,18.362,6.492,26.627l-38.094,3.783a90.06,90.06,0,0,0,.648-15.48c-.967-9.6-2.314-17.847-4.852-25.3a99.39,99.39,0,0,1-.51-14.82" transform="translate(-285.25 -29.032)" fill="#1e0b4a"/>
        <path id="Trazado_196538" data-name="Trazado 196538" d="M379.085,344.46V343.9a2.789,2.789,0,0,0-.359-1.368c-3.991-3.336-7.563-8.032-7.99-11.679l-9.03,1.753a3.808,3.808,0,0,0-3.056,3.288l-1.181,7.207v1.355Z" transform="translate(-357.468 -119.073)" fill="#1e0b4a"/>
        <path id="Trazado_196539" data-name="Trazado 196539" d="M318.385,344.46V343.9a2.788,2.788,0,0,0-.359-1.368c-3.242-4.039-6.158-8.032-6.584-11.679l-9.03,1.753a3.809,3.809,0,0,0-3.056,3.288l-.858,7.207v1.355Z" transform="translate(-257.473 -119.073)" fill="#1e0b4a"/>
        <path id="Trazado_196540" data-name="Trazado 196540" d="M343.512,62.8c-.107,3.555-9.683,8.863-18.559-1.812A89.368,89.368,0,0,1,343.512,62.8" transform="translate(-300.228 -29.032)" fill="#fcc5a0"/>
        <path id="Trazado_196541" data-name="Trazado 196541" d="M374.552,89.1c-1.028,6-1,13.816-.992,20l-9.795-1.316c-.265-6.336-.139-11.539.143-18.68Z" transform="translate(-357.035 -38.412)" fill="#ed9f78"/>
        <path id="Trazado_196542" data-name="Trazado 196542" d="M355.345,82.118c.11-6.524.691-13.1,2.134-16.472,2.09-4.882,7.565-4.524,14.312-4.648-.54,7.023-2.112,15.122-3.59,23.636Z" transform="translate(-348.759 -29.036)" fill="#1e0b4a"/>
        <path id="Trazado_196543" data-name="Trazado 196543" d="M368.844,142.176c-2.486-7.077-6.688-22.6-5.761-29.124.964-6.783,9.257-.249,9.48,2.374.864,1.481.147,16.794,1.625,25.363Z" transform="translate(-356.225 -45.407)" fill="#fcc5a0"/>
        <path id="Trazado_196544" data-name="Trazado 196544" d="M364.179,176.869a1.391,1.391,0,0,1-1.289.039,18.149,18.149,0,0,1-2.016-1.293h-.015a3.53,3.53,0,0,1-1.874-.618,8.616,8.616,0,0,1-1.592-1.814,8.112,8.112,0,0,1-1.327-3.948,28.793,28.793,0,0,1-.233-8.167,22.711,22.711,0,0,0-.5-3.52c1.825-.518,3.455-1.571,5.344-1.387.065.68.139,1.469.2,2.15a19,19,0,0,1,2.6,3.431,17.038,17.038,0,0,1,1.578,5.891c.094,1.408.233,3.939.327,5.347a2.7,2.7,0,0,1-1.905-1.723,8.906,8.906,0,0,1-.524-2.771,8.931,8.931,0,0,0-.438-2.172,15.529,15.529,0,0,0,.559,6.074,10.854,10.854,0,0,0,2.1,3.2,2.17,2.17,0,0,1,.367,2.408c-.516-.388-.9-.712-1.361-1.124" transform="translate(-342.709 -60.779)" fill="#fcc5a0"/>
        <path id="Trazado_196545" data-name="Trazado 196545" d="M269.193,89.9h20.6a2.771,2.771,0,0,0,2.078-1.3l13.468-22.416c.431-.717.2-1.3-.518-1.3h-20.6a2.771,2.771,0,0,0-2.078,1.3L268.675,88.6c-.431.717-.2,1.3.518,1.3" transform="translate(-224.632 -30.334)" fill="#1e0b4a"/>
        <path id="Trazado_196547" data-name="Trazado 196547" d="M285.914,92.786a8.385,8.385,0,0,1-1.091,2.282s2.478,1.338,3.2.448c1.715-2.112,3.961-8.427,3-9.42a13.866,13.866,0,0,0-2.041-1.287l-7.057-3.058c-1.046,1.263,2.575,2.864,4.426,4.122.6.405,1.223.872,1.852,1.279l-7.638-3.52c-.752,1.4,1.727,2.818,3.745,4.071a9.621,9.621,0,0,1,1.658,1.245l-5.114-2.284c-.922,1.3,1.862,3.032,3.9,4.269a2.38,2.38,0,0,1,1.165,1.852" transform="translate(-218.298 -35.96)" fill="#fcc5a0"/>
        <path id="Trazado_196548" data-name="Trazado 196548" d="M347.045,92.891c.776,4.271,3.537,7.257,7.635,7.78" transform="translate(-326.118 -39.677)" fill="none" stroke="#7463e5" stroke-linecap="round" stroke-linejoin="round" stroke-width="0.829"/>
        <path id="Trazado_196549" data-name="Trazado 196549" d="M322.459,338.941a18,18,0,0,1,1.868,7.211" transform="translate(-279.382 -121.77)" fill="none" stroke="#3cafff" stroke-linecap="round" stroke-linejoin="round" stroke-width="0.829"/>
        <path id="Trazado_196550" data-name="Trazado 196550" d="M352.542,152.335a20.476,20.476,0,0,1-5.276,10.307" transform="translate(-324.127 -59.51)" fill="none" stroke="#1e0b4a" stroke-linecap="round" stroke-linejoin="round" stroke-width="0.829"/>
      </g>
      <g id="Grupo_154729" data-name="Grupo 154729" transform="translate(474.754 149.955)">
        <path id="Trazado_196476-2" data-name="Trazado 196476" d="M72.4,140.351H8.164l3.412-40.984H74.012Z" transform="translate(-6.007 -99.367)" fill="#7f4fc7"/>
        <line id="Línea_1859-2" data-name="Línea 1859" x2="32.904" transform="translate(6.066 13.192)" fill="none" stroke="#fff" stroke-linecap="round" stroke-linejoin="round" stroke-width="1.052"/>
        <line id="Línea_1860-2" data-name="Línea 1860" x2="32.904" transform="translate(6.066 16.505)" fill="none" stroke="#fff" stroke-linecap="round" stroke-linejoin="round" stroke-width="1.052"/>
        <line id="Línea_1861-2" data-name="Línea 1861" x2="11.701" transform="translate(6.066 19.818)" fill="none" stroke="#fff" stroke-linecap="round" stroke-linejoin="round" stroke-width="1.052"/>
        <line id="Línea_1862-2" data-name="Línea 1862" x2="32.904" transform="translate(6.066 23.131)" fill="none" stroke="#fff" stroke-linecap="round" stroke-linejoin="round" stroke-width="1.052"/>
        <ellipse id="Elipse_5793-2" data-name="Elipse 5793" cx="0.958" cy="0.958" rx="0.958" ry="0.958" transform="matrix(0.985, -0.17, 0.17, 0.985, 7.274, 2.784)" fill="none" stroke="#fff" stroke-linecap="round" stroke-linejoin="round" stroke-width="1.052"/>
        <ellipse id="Elipse_5794-2" data-name="Elipse 5794" cx="0.958" cy="0.958" rx="0.958" ry="0.958" transform="translate(10.528 2.773) rotate(-9.217)" fill="none" stroke="#fff" stroke-linecap="round" stroke-linejoin="round" stroke-width="1.052"/>
        <ellipse id="Elipse_5795-2" data-name="Elipse 5795" cx="0.958" cy="0.958" rx="0.958" ry="0.958" transform="translate(13.775 2.773) rotate(-9.217)" fill="none" stroke="#fff" stroke-linecap="round" stroke-linejoin="round" stroke-width="1.052"/>
        <line id="Línea_1863-2" data-name="Línea 1863" x2="24.886" transform="translate(0 6.529)" fill="none" stroke="#1e0b4a" stroke-linecap="round" stroke-linejoin="round" stroke-width="1.052"/>
        <path id="Trazado_196477-2" data-name="Trazado 196477" d="M38.721,244.495,9.612,274.648H8.164l16.883-30.153Z" transform="translate(26.917 -203.509)" fill="#12263f"/>
      </g>
      <g id="Grupo_154730" data-name="Grupo 154730" transform="translate(559.739 149.883)">
        <path id="Trazado_196476-3" data-name="Trazado 196476" d="M9.771,140.351H74.012L70.6,99.367H8.164Z" transform="translate(-8.164 -99.367)" fill="#7f4fc7"/>
        <g id="Grupo_154731" data-name="Grupo 154731" transform="translate(6.743 12.584)">
          <line id="Línea_1859-3" data-name="Línea 1859" x2="52.363" transform="translate(0 0)" fill="none" stroke="#fff" stroke-linecap="round" stroke-linejoin="round" stroke-width="1.052"/>
          <line id="Línea_1860-3" data-name="Línea 1860" x2="52.363" transform="translate(0 5.271)" fill="none" stroke="#fff" stroke-linecap="round" stroke-linejoin="round" stroke-width="1.052"/>
          <line id="Línea_1861-3" data-name="Línea 1861" x2="18.62" transform="translate(0 10.543)" fill="none" stroke="#fff" stroke-linecap="round" stroke-linejoin="round" stroke-width="1.052"/>
          <line id="Línea_1862-3" data-name="Línea 1862" x2="52.363" transform="translate(0 15.816)" fill="none" stroke="#fff" stroke-linecap="round" stroke-linejoin="round" stroke-width="1.052"/>
        </g>
        <path id="Trazado_196477-3" data-name="Trazado 196477" d="M8.164,244.495l29.109,30.153h1.448L21.838,244.495Z" transform="translate(-5.797 -203.509)" fill="#12263f"/>
      </g>
    </g>
  </g>
</svg>
