<svg xmlns="http://www.w3.org/2000/svg" xmlns:xlink="http://www.w3.org/1999/xlink" width="115.78" height="148.54" viewBox="0 0 115.78 148.54">
  <defs>
    <clipPath id="clip-path">
      <rect id="Rectángulo_56866" data-name="Rectángulo 56866" width="115.78" height="148.54" fill="none"/>
    </clipPath>
    <linearGradient id="linear-gradient" x1="0.5" x2="0.5" y2="1" gradientUnits="objectBoundingBox">
      <stop offset="0" stop-color="#f5f5f5"/>
      <stop offset="0.25" stop-color="#f5f5f5"/>
      <stop offset="1" stop-color="#a7b3cf"/>
    </linearGradient>
    <linearGradient id="linear-gradient-2" x1="0.5" x2="0.5" y2="1" gradientUnits="objectBoundingBox">
      <stop offset="0" stop-color="#fdbe41"/>
      <stop offset="1" stop-color="#d09f40"/>
    </linearGradient>
    <linearGradient id="linear-gradient-3" x1="0.5" x2="0.5" y2="1" gradientUnits="objectBoundingBox">
      <stop offset="0" stop-color="#278d7e"/>
      <stop offset="1" stop-color="#4fc1b1"/>
    </linearGradient>
  </defs>
  <g id="Grupo_179449" data-name="Grupo 179449" transform="translate(-9165.267 7078.905)">
    <g id="Grupo_179422" data-name="Grupo 179422" transform="translate(9165.267 -7078.905)">
      <g id="Grupo_176590" data-name="Grupo 176590" clip-path="url(#clip-path)">
        <path id="Trazado_219586" data-name="Trazado 219586" d="M79.939,121.417q0-19.369.005-38.737c.011-6.989,3.8-10.767,10.818-10.778q19.712-.032,39.423,0c6.676.012,10.635,3.924,10.644,10.649q.054,38.737,0,77.474c-.008,7.111-3.911,11.005-11.035,11.031q-19.369.069-38.737,0c-7.334-.022-11.109-3.876-11.117-11.248q-.022-19.2,0-38.395M135.82,84.793c.682-5.98-1.134-8.17-6.314-8.177q-19.382-.026-38.764.006c-4.193.01-6.071,1.877-6.075,6.072q-.035,38.764,0,77.527c0,4.188,1.823,6.039,6.055,6.183,3.2.109,6.4.031,9.6.031q14.579,0,29.159,0c2.988,0,5.987-.789,6.291-4.018.485-5.147.13-10.373.13-15.758-12.707,0-25.05,0-37.392,0a41.17,41.17,0,0,1-6.5-.13c-.916-.148-1.646-1.454-2.46-2.234a14.27,14.27,0,0,1,2.494-2.278c.608-.345,1.564-.083,2.365-.083q18.867,0,37.734,0h3.786V89.5h-4.245q-19.038,0-38.078-.014c-1.823,0-4.042.124-3.983-2.533.056-2.533,2.246-2.136,3.89-2.139q19.04-.043,38.078-.017h4.225" transform="translate(-25.076 -22.551)"/>
        <path id="Trazado_219587" data-name="Trazado 219587" d="M89.957,22.255H4.726v3.588q0,19.2,0,38.409c.005,5.409,1.734,7.109,7.2,7.113q15.946.013,31.893,0c.686,0,1.523-.25,2.027.054a25.864,25.864,0,0,1,3.019,2.428c-.948.742-1.89,2.119-2.847,2.13-12.23.141-24.463.188-36.692.034A9.436,9.436,0,0,1,.1,66.374Q-.092,38.083.1,9.789A9.61,9.61,0,0,1,10.054.077q37.38-.148,74.76.015c5.914.03,9.766,4.222,9.811,10.107.073,9.6.014,19.2.032,28.806,0,1.794-.019,3.939-2.36,3.565-.955-.152-2.172-2.4-2.235-3.743-.254-5.447-.106-10.913-.106-16.573M4.883,16.944H89.891c0-1.4,0-2.532,0-3.66.019-7.3-1.175-8.479-8.586-8.48H30.193c-6.4,0-12.808-.043-19.211.023-3.536.037-5.725,1.715-6.05,4.8a71.954,71.954,0,0,0-.049,7.315" transform="translate(0 0)"/>
        <path id="Trazado_219588" data-name="Trazado 219588" d="M37.955,189.7c3.039-3.2,5.463-5.772,7.913-8.322,1.177-1.225,2.7-2.408,3.968-.6.544.774.169,2.909-.566,3.738-2.8,3.161-5.941,6.016-8.9,9.036-1.595,1.627-3.052,1.749-4.67.034a70.432,70.432,0,0,1-5.232-5.418c-.589-.778-.152-2.332-.183-3.532,1.123.073,2.562-.264,3.3.307,1.508,1.162,2.64,2.813,4.369,4.759" transform="translate(-9.46 -56.42)" fill="#7f4fc7"/>
        <path id="Trazado_219589" data-name="Trazado 219589" d="M37.993,163.463c3.021-3.44,5.306-6.121,7.684-8.717,1.161-1.268,2.555-2.78,4.264-.876,1.579,1.758.194,3.1-1.065,4.35-2.841,2.812-5.7,5.609-8.489,8.47-1.6,1.644-3.059,1.7-4.664.014a69.187,69.187,0,0,1-5.236-5.4c-.59-.777-.163-2.327-.2-3.525,1.123.074,2.6-.275,3.294.31,1.451,1.231,2.487,2.952,4.411,5.376" transform="translate(-9.465 -47.987)" fill="#7f4fc7"/>
        <path id="Trazado_219590" data-name="Trazado 219590" d="M37.8,136.186c3.012-3.2,5.322-5.72,7.7-8.168,1.179-1.213,2.5-2.845,4.289-1.073,1.669,1.657.452,3.078-.846,4.357-2.849,2.807-5.712,5.6-8.5,8.469-1.728,1.78-3.29,1.723-4.962-.03a71.8,71.8,0,0,1-5.2-5.44c-.544-.707-.11-2.167-.121-3.283,1.115.034,2.577-.364,3.276.194,1.491,1.188,2.585,2.873,4.368,4.974" transform="translate(-9.412 -39.579)" fill="#7f4fc7"/>
        <path id="Trazado_219591" data-name="Trazado 219591" d="M22.956,58.525c2.445,2.331,4.461,3.91,5.991,5.869.675.864.365,2.5.5,3.783-1.211-.115-2.8.216-3.563-.428a49.414,49.414,0,0,1-7-7.035,4.228,4.228,0,0,1,.051-4.033,49.912,49.912,0,0,1,7.019-7.017c.76-.636,2.342-.29,3.548-.395-.091,1.205.275,2.8-.359,3.541a68.3,68.3,0,0,1-6.193,5.714" transform="translate(-5.773 -15.456)"/>
        <path id="Trazado_219592" data-name="Trazado 219592" d="M68.506,58.5a56.493,56.493,0,0,1-5.853-5.5c-.688-.849-.379-2.508-.522-3.8,1.2.13,2.775-.176,3.544.47A49.953,49.953,0,0,1,72.688,56.7a4.231,4.231,0,0,1-.006,4.04,49.537,49.537,0,0,1-7.027,7.007c-.757.631-2.341.272-3.546.367.081-1.2-.285-2.755.33-3.53A72.873,72.873,0,0,1,68.506,58.5" transform="translate(-19.473 -15.437)"/>
        <path id="Trazado_219593" data-name="Trazado 219593" d="M41.483,69.482c-.422-1.227-1.495-2.681-1.159-3.645,2.019-5.791,4.267-11.51,6.7-17.142.362-.838,2.094-1.084,3.193-1.6.336,1.163,1.242,2.527.914,3.457C49.17,56.12,46.973,61.61,44.737,67.079a10.11,10.11,0,0,1-2.015,2.373Z" transform="translate(-12.63 -14.773)"/>
        <path id="Trazado_219594" data-name="Trazado 219594" d="M137.976,86.948h-4.225q-19.038,0-38.078.016c-1.644,0-3.834-.393-3.89,2.139-.059,2.658,2.16,2.53,3.984,2.534q19.038.036,38.077.014h4.245v52.434H96.569c-.8,0-1.757-.262-2.365.083a14.294,14.294,0,0,0-2.494,2.278c.815.78,1.544,2.086,2.46,2.234a41.17,41.17,0,0,0,6.5.13c12.342,0,24.685,0,37.392,0,0,5.385.355,10.611-.13,15.758-.3,3.229-3.3,4.02-6.291,4.017q-14.58-.011-29.159,0c-3.2,0-6.407.078-9.6-.031-4.232-.144-6.052-2-6.055-6.184q-.037-38.764,0-77.527c0-4.194,1.882-6.061,6.075-6.071q19.382-.048,38.764-.007c5.18.007,7,2.2,6.314,8.178m-25.67,29.8c5.373,0,10.747-.047,16.118.023,2.285.03,3.422-.9,3.412-3.21-.015-3.658.011-7.317-.013-10.975-.015-2.272-1.156-3.178-3.464-3.162q-15.775.108-31.55,0c-2.74-.023-3.661,1.242-3.626,3.742.045,3.314.075,6.632-.01,9.944-.069,2.63,1.085,3.713,3.7,3.669,5.143-.086,10.288-.025,15.432-.028m.825,45.729v.014c1.364,0,2.845.327,4.059-.1,1.027-.362,1.747-1.6,2.6-2.447-.837-.713-1.618-1.944-2.521-2.041a35.464,35.464,0,0,0-7.824.01c-.915.106-1.69,1.41-2.529,2.167.82.8,1.513,1.947,2.495,2.3,1.1.4,2.468.093,3.718.093" transform="translate(-27.232 -24.706)" fill="url(#linear-gradient)"/>
        <path id="Trazado_219595" data-name="Trazado 219595" d="M7.081,19.133a71.954,71.954,0,0,1,.049-7.315c.325-3.088,2.514-4.766,6.05-4.8,6.4-.066,12.807-.023,19.211-.023H83.5c7.411,0,8.6,1.182,8.586,8.48,0,1.128,0,2.257,0,3.66Z" transform="translate(-2.198 -2.19)" fill="url(#linear-gradient-2)"/>
        <path id="Trazado_219596" data-name="Trazado 219596" d="M115.214,126.2c-5.144,0-10.29-.06-15.432.026-2.617.044-3.77-1.039-3.7-3.668.086-3.313.056-6.63.01-9.945-.034-2.5.887-3.765,3.626-3.742q15.775.132,31.551,0c2.308-.016,3.449.89,3.464,3.162.024,3.658,0,7.316.013,10.974.01,2.309-1.127,3.24-3.412,3.21-5.372-.07-10.745-.022-16.118-.021m14.5-12.272h-28.4c-1.226,7.527-1.226,7.527,5.979,7.527h22.421Z" transform="translate(-30.14 -34.153)"/>
        <path id="Trazado_219597" data-name="Trazado 219597" d="M122.324,198.562c-1.25,0-2.614.31-3.718-.093-.981-.358-1.675-1.506-2.495-2.3.839-.757,1.614-2.061,2.529-2.167a35.463,35.463,0,0,1,7.824-.01c.9.1,1.684,1.328,2.521,2.041-.856.849-1.575,2.085-2.6,2.447-1.214.428-2.694.1-4.059.1v-.014" transform="translate(-36.425 -60.789)"/>
        <path id="Trazado_219598" data-name="Trazado 219598" d="M131.829,116.239v7.527H109.408c-7.205,0-7.205,0-5.979-7.527Z" transform="translate(-32.255 -36.465)" fill="url(#linear-gradient-3)"/>
      </g>
    </g>
  </g>
</svg>
