<svg xmlns="http://www.w3.org/2000/svg" xmlns:xlink="http://www.w3.org/1999/xlink" width="126" height="126" viewBox="0 0 126 126">
  <defs>
    <filter id="Elipse_6216" x="0" y="0" width="126" height="126" filterUnits="userSpaceOnUse">
      <feOffset dy="3" input="SourceAlpha"/>
      <feGaussianBlur stdDeviation="3" result="blur"/>
      <feFlood flood-opacity="0.161"/>
      <feComposite operator="in" in2="blur"/>
      <feComposite in="SourceGraphic"/>
    </filter>
    <clipPath id="clip-path">
      <rect id="Rectángulo_56902" data-name="Rectángulo 56902" width="57.62" height="57.652" fill="#1a76b7"/>
    </clipPath>
  </defs>
  <g id="Grupo_179456" data-name="Grupo 179456" transform="translate(-200 -4245.475)">
    <g transform="matrix(1, 0, 0, 1, 200, 4245.48)" filter="url(#Elipse_6216)">
      <circle id="Elipse_6216-2" data-name="Elipse 6216" cx="54" cy="54" r="54" transform="translate(9 6)" fill="#fff"/>
    </g>
    <g id="Grupo_179359" data-name="Grupo 179359" transform="translate(236.526 4274.649)">
      <g id="Grupo_176610" data-name="Grupo 176610" transform="translate(0 0)" clip-path="url(#clip-path)">
        <path id="Trazado_219656" data-name="Trazado 219656" d="M51.846,20.189c.958,0,1.594-.019,2.23,0,2.505.088,3.483,1.022,3.517,3.495.044,3.2.027,6.392.012,9.588-.015,3.3-.794,4.095-4.047,4.2-.471.015-.942.048-1.708.088,0,3.3,0,6.55,0,9.8,0,2.859-7.231,10.253-10.058,10.255-11.186.008-22.372-.035-33.558.037-1.863.012-2.556-.494-2.491-2.438.133-3.99-.261-8.016.1-11.978.834-9.16-2.934-17.348-5.024-25.895-.075-.309-.191-.608-.285-.913-.477-1.551-1.148-3.436.616-4.287,1.221-.589,2.955-.113,4.634-.113,0-2.944.063-6.364-.028-9.78C5.711.606,6.236,0,7.939.007Q28.794.085,49.648,0c1.912-.009,2.244.8,2.224,2.45-.069,5.818-.027,11.638-.027,17.74M7.7,2.047c0,4.652-.124,9.046.044,13.43A49.327,49.327,0,0,0,8.784,24.2c.808,3.654,2.194,7.179,3.042,10.827,1.586,6.83,4.8,13.292,4.778,20.528H42.249c0-1.962.062-3.787-.02-5.607-.066-1.468.522-2.01,1.968-1.948,1.876.079,3.757.019,5.512.019V36.87c-1.709,1.8-2.934,3.168-4.245,4.442a6.235,6.235,0,0,1-1.6.831,7.069,7.069,0,0,1-.63-1.668,24.53,24.53,0,0,1-.029-2.788c-4.479-.546-4.787-.895-4.8-5.261-.007-2.878-.029-5.756.008-8.634.033-2.611,1.009-3.563,3.658-3.6,2.536-.031,5.073-.007,7.7-.007V2.047ZM45.435,38.765c1.832-3.627,4.885-3.341,7.876-3.224.16.006.321-.017.479,0,1.286.1,1.918-.4,1.9-1.778q-.071-4.914,0-9.828c.019-1.333-.505-1.854-1.841-1.838-3.915.047-7.833-.053-11.743.09a2.37,2.37,0,0,0-1.69,1.569c-.162,3.348-.162,6.712,0,10.06.028.6,1.077,1.671,1.6,1.638,2.241-.142,3.615.36,3.429,3.314m-31.54,15.5.7-.181a15.679,15.679,0,0,0-.243-3.129Q9.9,35.168,5.316,19.419c-.173-.593-.847-1.04-1.287-1.555-.157.729-.6,1.539-.427,2.176Q8,35.84,12.568,51.593a16.193,16.193,0,0,0,1.326,2.671m-6.07-11.83V55.511h4.05L7.825,42.435M44.271,53.606l3.578-3.541H44.271Z" transform="translate(0 0)" fill="#1a76b7"/>
        <path id="Trazado_219657" data-name="Trazado 219657" d="M49.307,37.075H24.973L26.856,34.7l.459.252c0-2.707.144-5.424-.044-8.118-.163-2.337.456-3.17,2.99-3.2,2.739-.034,2.959,1.2,2.852,3.336-.132,2.624-.031,5.26-.031,7.985,1.281.547,1.939.365,1.918-1.163-.039-2.874.03-5.751-.035-8.625-.044-1.949-.2-3.645,2.722-3.419,3.045.236,3.061.042,3.063,3.285,0,3.27,0,6.541,0,9.778,1.634.993,1.946.24,1.932-1.215-.039-3.833.108-7.672-.056-11.5-.1-2.446,1.358-2.214,2.928-2.216s3.04-.212,2.926,2.224c-.164,3.506-.121,7.028,0,10.538a29.368,29.368,0,0,0,.829,4.429m-4.666-2.222.7.595c.386-.554,1.09-1.1,1.107-1.664.1-3.506.016-7.018.065-10.527.022-1.579-.645-1.686-1.87-1.159ZM38.774,24.136l-.68-.591c-.394.539-1.106,1.065-1.127,1.618-.112,2.871-.006,5.749-.06,8.624-.029,1.546.617,1.707,1.868,1.213ZM31.1,26.055l-.689-.58c-.391.535-1.087,1.052-1.119,1.608-.13,2.228-.014,4.47-.068,6.7-.037,1.535.624,1.707,1.875,1.216Z" transform="translate(-12.897 -10.265)" fill="#1a76b7"/>
        <path id="Trazado_219658" data-name="Trazado 219658" d="M55.028,71.076c4.1.244,4.4.519,3.307,4.457a25.877,25.877,0,0,1-2.444,5.4c-1.016,1.851-2.333,2.322-3.784.319a5.468,5.468,0,0,0-.862-.782c-6.65,4.273-13.8,2.111-16.539-4.24a10.5,10.5,0,0,1,6.218-14.057c4.759-1.714,12.215.188,14.1,8.9m-13.891-6.8c1.174,2.144,2.209,4.118,3.341,6.034a1.841,1.841,0,0,0,1.259.834c2.351.082,4.705.039,7.105.039-1.119-5.995-6.051-8.9-11.706-6.906M37.906,77.539c1.563-1.657,3.024-3.13,4.377-4.7a1.9,1.9,0,0,0,.424-1.606c-1.009-2.023-2.175-3.966-3.306-5.973-4.165,3.283-4.8,8.114-1.5,12.275m1.4,1.257a7.294,7.294,0,0,0,10.014.045l-4.957-4.991L39.308,78.8m15.06,1.556,2.878-7.109H47.463l6.9,7.109" transform="translate(-17.478 -31.811)" fill="#1a76b7"/>
        <path id="Trazado_219659" data-name="Trazado 219659" d="M79.306,18.224v7.99c-1.311.48-1.948.262-1.915-1.247.052-2.4.079-4.8-.02-7.2-.082-1.984,1.174-2.032,2.514-1.868,1.3.159,3.314-.869,3.283,1.807-.032,2.792-.007,5.585-.007,8.467-1.316.517-1.983.331-1.941-1.2a57.359,57.359,0,0,0-.033-5.754c-.04-.554-.736-1.059-1.132-1.587l-.749.586" transform="translate(-39.954 -8.178)" fill="#1a76b7"/>
        <path id="Trazado_219660" data-name="Trazado 219660" d="M45.259,11.254c.457-.424.9-1.2,1.373-1.214q5.508-.153,11.022-.006c.506.014.993.733,1.488,1.126l-.383.615H45.888l-.629-.521" transform="translate(-23.373 -5.145)" fill="#1a76b7"/>
        <path id="Trazado_219661" data-name="Trazado 219661" d="M98.807,48.937c.1.635.5,1.436.251,1.88-1.573,2.837-3.288,5.6-4.956,8.38l-.744.05c-.109-.662-.529-1.5-.275-1.958,1.527-2.777,3.21-5.468,4.84-8.188Z" transform="translate(-48.028 -25.272)" fill="#1a76b7"/>
      </g>
    </g>
  </g>
</svg>
