<svg xmlns="http://www.w3.org/2000/svg" xmlns:xlink="http://www.w3.org/1999/xlink" width="128.933" height="113.212" viewBox="0 0 128.933 113.212">
  <defs>
    <clipPath id="clip-path">
      <rect id="Rectángulo_56914" data-name="Rectángulo 56914" width="128.933" height="113.212" fill="none"/>
    </clipPath>
    <linearGradient id="linear-gradient" x1="0.5" x2="0.5" y2="1" gradientUnits="objectBoundingBox">
      <stop offset="0" stop-color="#2a9d8d"/>
      <stop offset="1" stop-color="#43a99b"/>
    </linearGradient>
  </defs>
  <g id="Grupo_179455" data-name="Grupo 179455" transform="translate(-5829.654 7511.598)">
    <g id="Grupo_176621" data-name="Grupo 176621" transform="translate(5829.654 -7511.598)">
      <g id="Grupo_176620" data-name="Grupo 176620" clip-path="url(#clip-path)">
        <path id="Trazado_219704" data-name="Trazado 219704" d="M75.371,61.031c-3.45-.136-5.976-1.608-7.265-4.732-1.277-3.094-.553-5.9,1.726-8.379a7.809,7.809,0,0,1-1.557-8.945H67.123c-5.014,0-10.028.036-15.04-.03a7.529,7.529,0,0,1-2.914-14.393,9.2,9.2,0,0,1,3.466-.689c10.683-.052,21.367-.031,32.051-.032H85.8c0-.725-.02-1.371,0-2.017a8.491,8.491,0,0,1,8.234-8.07c7.861-.415,14.768,2.223,21.277,6.268,2,1.243,3.906,2.635,5.88,3.922,1.091.711,2.233,1.345,3.552,2.133.036-.527.071-.8.071-1.076q0-8.595,0-17.189A3.33,3.33,0,0,0,121.2,4.171q-56.671,0-113.342,0a3.342,3.342,0,0,0-3.64,3.612c-.016,4.208,0,8.416-.011,12.623a2.049,2.049,0,0,1-1.83,2.167A2.086,2.086,0,0,1,.132,21.05a3.617,3.617,0,0,1-.073-.887Q.053,13.9.058,7.629A7.417,7.417,0,0,1,7.707.006q22.74-.013,45.48,0,34.021,0,68.041,0a7.442,7.442,0,0,1,7.641,6.191,7.893,7.893,0,0,1,.1,1.424q.008,37.6,0,75.2a8.357,8.357,0,0,1-8.434,8.5c-1.069.012-2.139,0-3.335,0,0,.7,0,1.315,0,1.932-.009,3.671-1.988,5.709-5.647,5.819-.173.005-.346.033-.625.061a10.807,10.807,0,0,0,.035,1.96,1.229,1.229,0,0,0,.746.816c3.9.827,5.039,2.2,5.064,6.18,0,.266,0,.533,0,.956.7,0,1.337-.008,1.977,0a2.092,2.092,0,1,1-.015,4.161c-3.432.01-6.864,0-10.3,0h-97.5c-.358,0-.718.015-1.073-.018a2.074,2.074,0,0,1,.019-4.132c.3-.027.6-.014.895-.014H42.181c-.207-2.923.287-5.6,2.325-7.763a8.913,8.913,0,0,1,7.519-2.788V91.321H9.048c-5.5,0-8.991-3.5-8.991-9.02q0-18.89.008-37.781a4.139,4.139,0,0,1,.2-1.4,2,2,0,0,1,2.18-1.2,2.029,2.029,0,0,1,1.75,1.771,8.045,8.045,0,0,1,.018.894q0,15.667,0,31.335v1.141H124.766V65.472a30.03,30.03,0,0,0-3.364,1.213,52.541,52.541,0,0,1-21.793,5.1c-5.841.225-11.7.2-17.543.159a7.511,7.511,0,0,1-6.9-10.307c.064-.164.112-.334.2-.611m26.154,6.4a2.575,2.575,0,0,0,.43.047,50.331,50.331,0,0,0,16.764-4.123,49.488,49.488,0,0,1,5.369-1.931c.544-.178.747-.387.746-.975q-.027-14.678,0-29.355a.936.936,0,0,0-.664-.978c-1.917-.943-3.843-1.888-5.671-2.987-2.221-1.335-4.3-2.906-6.525-4.236-5.418-3.242-11.174-5.336-17.633-4.977-2.475.138-4.353,1.773-4.371,4.17-.04,5.25-.029,10.5,0,15.751a3.088,3.088,0,0,0,2.392,3.257,3.372,3.372,0,0,0,3.86-1.891,11.207,11.207,0,0,0,1.024-3.035c.289-2,.392-4.027.54-6.045a2.119,2.119,0,0,1,2.109-2.1,2.066,2.066,0,0,1,2.048,2.067A25.535,25.535,0,0,1,100.816,39a2.5,2.5,0,0,0,.006,1.711c.97,2.9,1.541,5.827.537,8.855a1.351,1.351,0,0,0,.132.828,7.769,7.769,0,0,1,.462,4.558,8.129,8.129,0,0,1-2.143,3.953,7.8,7.8,0,0,1,1.715,8.521m23.2,13.949H4.312c-.543,3.472,1.258,5.748,4.52,5.748q55.731.006,111.462-.009a5.333,5.333,0,0,0,1.835-.3c2.06-.771,3-2.786,2.59-5.443M112.587,108.99c0-.549,0-1.022,0-1.495-.007-1.13-.107-1.237-1.263-1.373a4.976,4.976,0,0,1-4.56-5.081c-.005-.64,0-1.281,0-1.933-.367-.019-.573-.036-.78-.039a5.219,5.219,0,0,1-5.492-5.516c0-.708,0-1.416,0-2.166h-23.5v7.09a9.023,9.023,0,0,1,7.505,2.77c2.051,2.165,2.559,4.833,2.364,7.742Zm-66.112-.006H82.669c0-.615.007-1.174,0-1.733a4.561,4.561,0,0,0-4.6-4.606c-1.014-.018-2.028,0-3.043-.009a2.075,2.075,0,0,1-2.268-2.29c-.015-2.655-.005-5.31-.005-7.965V91.4h-16.4v7.077h1.132c2.774,0,5.548-.013,8.323.009a2.036,2.036,0,0,1,2.117,1.887,2.057,2.057,0,0,1-1.567,2.207,4.461,4.461,0,0,1-.979.063q-7.025.006-14.05.008a6.378,6.378,0,0,0-1.244.094c-2.762.557-4.192,3.014-3.609,6.244M85.738,28.045c-.282-.016-.458-.036-.634-.036q-7.692,0-15.384,0-8.587,0-17.173,0a3.374,3.374,0,0,0-3.24,1.833c-1.246,2.368.464,4.942,3.28,4.944q16.145.009,32.289,0c.283,0,.566-.037.862-.057ZM84.659,56.827v-.015q4.877,0,9.755,0A3.264,3.264,0,0,0,97.623,54.8,3.388,3.388,0,0,0,94.3,50.027c-6.294-.014-12.589,0-18.883,0a5.83,5.83,0,0,0-.626.023A3.418,3.418,0,0,0,71.7,53.673a3.463,3.463,0,0,0,3.564,3.162c3.132-.028,6.264-.008,9.4-.008m3.717,10.941v0c2,0,4,.019,6-.005a3.383,3.383,0,1,0-.03-6.755q-6.036-.02-12.072,0a3.376,3.376,0,1,0-.068,6.751c2.058.025,4.117.006,6.175.006m9.093-23.7c-.382.193-.643.327-.9.457a7.345,7.345,0,0,1-4.695.727,7.011,7.011,0,0,1-5.838-5.475c-.111-.408-.116-.812-.726-.8-3.519.041-7.04.005-10.558.1A3.272,3.272,0,0,0,71.7,42.26a3.349,3.349,0,0,0,2.746,3.465,13.955,13.955,0,0,0,2.049.134c7.041.144,14.1-.3,21.206.288l-.229-2.083m7.183,47.3c0,.872-.028,1.642.008,2.41A1.072,1.072,0,0,0,105.8,94.9c2.021.021,4.043.013,6.065,0a1.043,1.043,0,0,0,1.144-1.015c.058-.819.014-1.645.014-2.517Z" transform="translate(-0.044 0)"/>
        <path id="Trazado_219705" data-name="Trazado 219705" d="M12.346,58.606c2.029,0,4.058.009,6.087,0,1.671-.009,2.172-.371,2.681-1.93,1.268-3.883,2.49-7.783,3.8-11.651a6.181,6.181,0,0,1,10.3-2.436,6.779,6.779,0,0,1,1.5,2.492c1.295,3.748,2.464,7.539,3.729,11.3a7.092,7.092,0,0,0,1.067,1.915,2.141,2.141,0,0,1-.053,2.855,2.092,2.092,0,0,1-2.844.15,6.371,6.371,0,0,1-2-3.114c-1.232-3.832-2.45-7.67-3.754-11.478a3.068,3.068,0,0,0-1.282-1.579c-1.109-.608-2.316.069-2.761,1.418q-1.876,5.692-3.714,11.4c-1.064,3.294-3.177,4.843-6.656,4.846q-5.909.006-11.817.007c-1.31,0-1.994.425-2.321,1.4a2.071,2.071,0,0,0,1.023,2.511c3.3,2.41,6.611,4.806,9.912,7.215a6.119,6.119,0,0,1,2.336,7.12c-1.257,3.949-2.553,7.886-3.824,11.831a2.045,2.045,0,0,0,1.194,2.78,2.088,2.088,0,0,0,2.088-.405q4.842-3.536,9.7-7.047c2.788-2.019,5.355-2.025,8.151,0,3.261,2.357,6.51,4.731,9.77,7.089a1.957,1.957,0,0,0,2.557.077,1.983,1.983,0,0,0,.709-2.378c-.192-.657-.413-1.306-.624-1.957q-1.645-5.062-3.294-10.122a5.914,5.914,0,0,1-.006-3.7,2.083,2.083,0,0,1,2.509-1.478,2.179,2.179,0,0,1,1.551,2.478,5.4,5.4,0,0,0,.158,2.087C49.411,84.109,50.664,87.9,51.9,91.7a6.164,6.164,0,0,1-2.163,7.019,6.094,6.094,0,0,1-7.346.069c-3.276-2.337-6.517-4.723-9.771-7.092-1.509-1.1-2.073-1.1-3.6.007-3.258,2.367-6.492,4.768-9.783,7.088A6.188,6.188,0,0,1,9.428,94.15a7.857,7.857,0,0,1,.443-2.8c1.18-3.785,2.433-7.548,3.655-11.32a2.135,2.135,0,0,0-.918-2.86C9.33,74.78,6.042,72.4,2.767,70.008a6.235,6.235,0,0,1,3.76-11.4c1.94,0,3.879,0,5.819,0Z" transform="translate(0 -33.431)"/>
        <path id="Trazado_219706" data-name="Trazado 219706" d="M513.639,149.372a7.794,7.794,0,0,0-1.715-8.521,8.128,8.128,0,0,0,2.143-3.953,7.768,7.768,0,0,0-.462-4.558,1.351,1.351,0,0,1-.132-.828c1-3.028.433-5.959-.537-8.855a2.5,2.5,0,0,1-.006-1.711,25.54,25.54,0,0,0,1.122-8.92A2.066,2.066,0,0,0,512,109.96a2.119,2.119,0,0,0-2.109,2.1c-.148,2.018-.25,4.046-.539,6.045a11.214,11.214,0,0,1-1.025,3.035,3.372,3.372,0,0,1-3.86,1.891,3.088,3.088,0,0,1-2.392-3.257c-.028-5.25-.04-10.5,0-15.751.018-2.4,1.9-4.032,4.371-4.169,6.459-.359,12.214,1.735,17.633,4.977,2.224,1.331,4.3,2.9,6.525,4.236,1.829,1.1,3.754,2.044,5.671,2.987a.935.935,0,0,1,.664.978q-.021,14.678,0,29.355c0,.587-.2.8-.746.975a49.534,49.534,0,0,0-5.369,1.931,50.329,50.329,0,0,1-16.764,4.123,2.558,2.558,0,0,1-.43-.047" transform="translate(-412.158 -81.943)" fill="#eeac3a"/>
        <path id="Trazado_219707" data-name="Trazado 219707" d="M143.808,454.482c.414,2.657-.531,4.671-2.59,5.443a5.334,5.334,0,0,1-1.835.3q-55.731.02-111.462.009c-3.262,0-5.062-2.276-4.52-5.748Z" transform="translate(-19.132 -373.104)" fill="url(#linear-gradient)"/>
        <path id="Trazado_219708" data-name="Trazado 219708" d="M465.339,527.987H439.612c.2-2.909-.313-5.577-2.364-7.742a9.024,9.024,0,0,0-7.505-2.77v-7.09h23.5c0,.75,0,1.457,0,2.165a5.219,5.219,0,0,0,5.492,5.516c.207,0,.413.02.78.039,0,.652,0,1.292,0,1.933a4.976,4.976,0,0,0,4.56,5.08c1.157.136,1.256.243,1.263,1.373,0,.473,0,.946,0,1.495" transform="translate(-352.795 -418.997)" fill="#fff"/>
        <path id="Trazado_219709" data-name="Trazado 219709" d="M258.725,528.014c-.583-3.231.848-5.687,3.609-6.245a6.361,6.361,0,0,1,1.244-.094q7.025-.01,14.05-.008a4.467,4.467,0,0,0,.979-.063,2.057,2.057,0,0,0,1.567-2.207,2.036,2.036,0,0,0-2.117-1.887c-2.774-.022-5.548-.008-8.323-.009H268.6v-7.077H285v.986c0,2.655-.009,5.31.005,7.964a2.075,2.075,0,0,0,2.268,2.29c1.014.013,2.029-.009,3.042.01a4.561,4.561,0,0,1,4.6,4.605c.008.559,0,1.118,0,1.733Z" transform="translate(-212.293 -419.03)" fill="#7f4fc7"/>
        <path id="Trazado_219710" data-name="Trazado 219710" d="M309.668,156.438v6.678c-.3.02-.579.057-.862.057q-16.145,0-32.289,0c-2.816,0-4.526-2.576-3.28-4.944a3.374,3.374,0,0,1,3.24-1.833q8.587.008,17.173,0,7.692,0,15.384,0c.176,0,.352.019.634.036" transform="translate(-223.973 -128.394)" fill="#eeac3a"/>
        <path id="Trazado_219711" data-name="Trazado 219711" d="M413.1,286.158c-3.132,0-6.264-.02-9.4.008A3.463,3.463,0,0,1,400.137,283a3.417,3.417,0,0,1,3.091-3.626,5.872,5.872,0,0,1,.626-.023c6.294,0,12.589-.011,18.883,0a3.388,3.388,0,0,1,3.325,4.772,3.264,3.264,0,0,1-3.209,2.012q-4.878,0-9.755,0v.015" transform="translate(-328.482 -229.331)" fill="#eeac3a"/>
        <path id="Trazado_219712" data-name="Trazado 219712" d="M449.474,347.453c-2.058,0-4.117.019-6.175-.006a3.376,3.376,0,1,1,.068-6.752q6.036-.015,12.072,0a3.383,3.383,0,1,1,.03,6.755c-2,.024-4,.005-6,.005Z" transform="translate(-361.141 -279.685)" fill="#eeac3a"/>
        <path id="Trazado_219713" data-name="Trazado 219713" d="M425.925,222.731l.229,2.083c-7.111-.588-14.165-.144-21.206-.288a13.953,13.953,0,0,1-2.049-.134,3.349,3.349,0,0,1-2.746-3.465,3.273,3.273,0,0,1,3.051-3.191c3.518-.094,7.039-.059,10.558-.1.61-.007.615.4.726.8a7.012,7.012,0,0,0,5.838,5.475,7.348,7.348,0,0,0,4.695-.727c.262-.131.523-.264.9-.458" transform="translate(-328.5 -178.667)" fill="#eeac3a"/>
        <path id="Trazado_219714" data-name="Trazado 219714" d="M584.171,510.279h8.373c0,.872.044,1.7-.014,2.517a1.043,1.043,0,0,1-1.144,1.015c-2.021.014-4.043.021-6.065,0a1.073,1.073,0,0,1-1.141-1.122c-.037-.767-.008-1.538-.008-2.41" transform="translate(-479.563 -418.91)" fill="#d8dbf7"/>
      </g>
    </g>
  </g>
</svg>
