<svg xmlns="http://www.w3.org/2000/svg" xmlns:xlink="http://www.w3.org/1999/xlink" width="68.327" height="72.51" viewBox="0 0 68.327 72.51">
  <defs>
    <clipPath id="clip-path">
      <rect id="Rect치ngulo_37044" data-name="Rect치ngulo 37044" width="44.479" height="48.995" fill="#12263f"/>
    </clipPath>
  </defs>
  <g id="Grupo_179426" data-name="Grupo 179426" transform="translate(-600 -704.735)">
    <g id="Rect치ngulo_37275" data-name="Rect치ngulo 37275" transform="translate(600 704.735)" fill="#fff" stroke="#1565c0" stroke-width="1">
      <rect width="68.327" height="72.51" rx="10" stroke="none"/>
      <rect x="0.5" y="0.5" width="67.327" height="71.51" rx="9.5" fill="none"/>
    </g>
    <g id="Grupo_141597" data-name="Grupo 141597" transform="translate(611.536 714.631)" clip-path="url(#clip-path)">
      <path id="Trazado_183339" data-name="Trazado 183339" d="M127.855,53.87a4.062,4.062,0,1,1,4.062-4.062,4.066,4.066,0,0,1-4.062,4.062m0-6.574a2.512,2.512,0,1,0,2.512,2.512,2.515,2.515,0,0,0-2.512-2.512" transform="translate(-105.524 -38.995)" fill="#12263f"/>
      <path id="Trazado_183340" data-name="Trazado 183340" d="M120.149,210.674a2.5,2.5,0,0,1-.4-.033,2.529,2.529,0,0,1-2.052-2.516v-17.68a.775.775,0,1,1,1.55,0v17.68a.982.982,0,0,0,.751.987.911.911,0,0,0,1.068-.9v-12.8a1.579,1.579,0,1,1,3.158,0v12.713a.982.982,0,0,0,.751.987.911.911,0,0,0,1.068-.9V206.8a.775.775,0,1,1,1.55,0v1.414a2.46,2.46,0,0,1-2.866,2.426,2.529,2.529,0,0,1-2.052-2.516V195.412c0-.033-.059-.033-.059,0v12.8a2.458,2.458,0,0,1-2.463,2.459" transform="translate(-100.325 -161.68)" fill="#12263f"/>
      <path id="Trazado_183341" data-name="Trazado 183341" d="M175.026,218.109a.775.775,0,0,1-.775-.775V202.8a.775.775,0,1,1,1.549,0v14.533a.775.775,0,0,1-.775.775" transform="translate(-148.536 -172.213)" fill="#12263f"/>
      <path id="Trazado_183342" data-name="Trazado 183342" d="M103.986,187.667a2.1,2.1,0,0,1-2.092-2.093v-4.794a.775.775,0,0,1,1.55,0v4.794a.544.544,0,0,0,.543.543.536.536,0,0,0,.251-.061.775.775,0,0,1,.721,1.372,2.1,2.1,0,0,1-.972.239" transform="translate(-86.857 -153.442)" fill="#12263f"/>
      <path id="Trazado_183343" data-name="Trazado 183343" d="M116,106.326a.772.772,0,0,1-.544-.223,8.033,8.033,0,0,0-5.669-2.325h-.229a8.033,8.033,0,0,0-5.669,2.325.775.775,0,1,1-1.087-1.1,9.573,9.573,0,0,1,6.756-2.771h.229A9.573,9.573,0,0,1,116.547,105a.775.775,0,0,1-.544,1.327" transform="translate(-87.437 -87.142)" fill="#12263f"/>
      <path id="Trazado_183344" data-name="Trazado 183344" d="M177.319,218.32a2.1,2.1,0,0,1-.972-.239.775.775,0,0,1,.721-1.372.536.536,0,0,0,.251.061.543.543,0,0,0,.5-.332.775.775,0,0,1,1.427.6,2.089,2.089,0,0,1-1.928,1.278" transform="translate(-149.969 -184.094)" fill="#12263f"/>
      <path id="Trazado_183345" data-name="Trazado 183345" d="M245.627,63.918a.775.775,0,0,1,0-1.55,2.012,2.012,0,1,0-.377-3.989.775.775,0,0,1-.289-1.523,3.562,3.562,0,1,1,.666,7.061" transform="translate(-208.273 -48.413)" fill="#12263f"/>
      <path id="Trazado_183346" data-name="Trazado 183346" d="M222.045,273.337q-.117,0-.234-.011a2.518,2.518,0,0,1-2.22-2.52v-6.85a.775.775,0,1,1,1.55,0v6.85a.957.957,0,0,0,.818.978.91.91,0,0,0,1-.905v-6.487a.775.775,0,1,1,1.55,0v6.487a2.459,2.459,0,0,1-2.464,2.459" transform="translate(-187.184 -224.342)" fill="#12263f"/>
      <path id="Trazado_183347" data-name="Trazado 183347" d="M255.772,242.887c-.078,0-.156,0-.234-.011a2.518,2.518,0,0,1-2.22-2.52V230.062a.775.775,0,1,1,1.549,0v10.293a.957.957,0,0,0,.818.978.91.91,0,0,0,1-.905V228.234a.775.775,0,1,1,1.55,0v12.194a2.459,2.459,0,0,1-2.464,2.459" transform="translate(-215.934 -193.892)" fill="#12263f"/>
      <path id="Trazado_183348" data-name="Trazado 183348" d="M276.922,161.693a.775.775,0,0,1-.775-.775V149.265a.775.775,0,1,1,1.55,0v11.654a.775.775,0,0,1-.775.775" transform="translate(-235.395 -126.577)" fill="#12263f"/>
      <path id="Trazado_183349" data-name="Trazado 183349" d="M283.084,224.116a.775.775,0,0,1-.775-.775V222.2a.775.775,0,1,1,1.549,0v1.144a.775.775,0,0,1-.775.775" transform="translate(-240.647 -188.746)" fill="#12263f"/>
      <path id="Trazado_183350" data-name="Trazado 183350" d="M252.668,123.464a2.1,2.1,0,0,1-.972-.239.775.775,0,0,1,.721-1.372.535.535,0,0,0,.251.061.544.544,0,0,0,.543-.543V110.177a2.825,2.825,0,0,0-.831-2,6.7,6.7,0,0,0-4.724-1.938h-.195a.775.775,0,1,1,0-1.55h.195a8.235,8.235,0,0,1,5.811,2.383,4.384,4.384,0,0,1,1.294,3.106v11.194a2.1,2.1,0,0,1-2.092,2.093" transform="translate(-210.281 -89.238)" fill="#12263f"/>
      <path id="Trazado_183351" data-name="Trazado 183351" d="M79.293,224.116a.775.775,0,0,1-.775-.775V222.2a.775.775,0,0,1,1.55,0v1.144a.775.775,0,0,1-.775.775" transform="translate(-66.931 -188.746)" fill="#12263f"/>
      <path id="Trazado_183352" data-name="Trazado 183352" d="M73.237,240.465H70.7a.775.775,0,0,1-.775-.775V231.3a.775.775,0,0,1,.775-.775h2.536a.775.775,0,0,1,.775.775v8.392a.775.775,0,0,1-.775.775m-1.761-1.55h.987v-6.842h-.987Z" transform="translate(-59.607 -196.504)" fill="#12263f"/>
      <path id="Trazado_183353" data-name="Trazado 183353" d="M28.579,63.912h-.048a3.562,3.562,0,0,1,.222-7.117.775.775,0,0,1,0,1.55,2.012,2.012,0,0,0-.127,4.021.775.775,0,0,1-.047,1.548" transform="translate(-21.473 -48.413)" fill="#12263f"/>
      <path id="Trazado_183354" data-name="Trazado 183354" d="M23.232,175.571a2.5,2.5,0,0,1-.4-.033,2.529,2.529,0,0,1-2.052-2.516V160.309c0-.033-.059-.033-.059,0v12.8a2.46,2.46,0,0,1-2.867,2.426,2.529,2.529,0,0,1-2.052-2.516V149.265a.775.775,0,1,1,1.55,0v23.758a.982.982,0,0,0,.751.987.911.911,0,0,0,1.068-.9v-12.8a1.579,1.579,0,1,1,3.158,0v12.713a.982.982,0,0,0,.751.987.911.911,0,0,0,1.068-.9v-1.535a.775.775,0,0,1,1.55,0v1.535a2.458,2.458,0,0,1-2.463,2.459" transform="translate(-13.467 -126.577)" fill="#12263f"/>
      <path id="Trazado_183355" data-name="Trazado 183355" d="M73.13,169.822a.775.775,0,0,1-.775-.775V158.5a.775.775,0,0,1,1.55,0v10.544a.775.775,0,0,1-.775.775" transform="translate(-61.677 -134.452)" fill="#12263f"/>
      <path id="Trazado_183356" data-name="Trazado 183356" d="M2.092,123.464A2.1,2.1,0,0,1,0,121.371V110.177a4.382,4.382,0,0,1,1.294-3.106,8.234,8.234,0,0,1,5.811-2.383.775.775,0,0,1,0,1.55,6.7,6.7,0,0,0-4.724,1.938,2.824,2.824,0,0,0-.831,2v11.194a.544.544,0,0,0,.543.543.535.535,0,0,0,.251-.061.775.775,0,1,1,.721,1.372,2.1,2.1,0,0,1-.972.239" transform="translate(0 -89.238)" fill="#12263f"/>
      <path id="Trazado_183357" data-name="Trazado 183357" d="M75.424,180.545a2.1,2.1,0,0,1-.972-.239.775.775,0,0,1,.721-1.372.535.535,0,0,0,.251.061.544.544,0,0,0,.543-.543v-6.027a.775.775,0,0,1,1.55,0v6.027a2.1,2.1,0,0,1-2.093,2.093" transform="translate(-63.111 -146.319)" fill="#12263f"/>
      <path id="Trazado_183358" data-name="Trazado 183358" d="M183.887,171.473a3.429,3.429,0,0,1-.823-.1,3.387,3.387,0,0,1-2.1-1.546l-6.417-10.608a.775.775,0,0,1,1.326-.8l6.417,10.608a1.86,1.86,0,0,0,2.555.629l.013-.008a1.86,1.86,0,0,0,.62-2.549l-6.332-10.467a.775.775,0,1,1,1.326-.8l6.332,10.467a3.41,3.41,0,0,1-1.152,4.683l-.013.008a3.369,3.369,0,0,1-1.748.488" transform="translate(-148.69 -132.512)" fill="#12263f"/>
      <path id="Trazado_183359" data-name="Trazado 183359" d="M69.551,27.691a13.929,13.929,0,0,1-3.332-.407A13.84,13.84,0,0,1,62.363,2a13.84,13.84,0,0,1,20.6,15.15A13.857,13.857,0,0,1,69.551,27.691M69.505,1.55A12.294,12.294,0,0,0,59.011,20.207,12.29,12.29,0,1,0,80.042,7.484a12.209,12.209,0,0,0-7.578-5.573,12.372,12.372,0,0,0-2.959-.361m.04,23.278a11.053,11.053,0,0,1-2.643-.322A10.977,10.977,0,0,1,63.845,4.453,10.977,10.977,0,1,1,75.208,23.238a10.9,10.9,0,0,1-5.662,1.59M69.51,4.413A9.431,9.431,0,0,0,67.273,23a9.361,9.361,0,0,0,7.133-1.089h0A9.428,9.428,0,0,0,71.78,4.69a9.5,9.5,0,0,0-2.27-.277" transform="translate(-47.464 0)" fill="#12263f"/>
      <path id="Trazado_183360" data-name="Trazado 183360" d="M222.879,153.692a.775.775,0,0,1-.775-.775v-1.492a.775.775,0,1,1,1.549,0v1.492a.775.775,0,0,1-.775.775" transform="translate(-189.327 -128.418)" fill="#12263f"/>
    </g>
  </g>
</svg>
