<svg xmlns="http://www.w3.org/2000/svg" xmlns:xlink="http://www.w3.org/1999/xlink" width="91.188" height="91" viewBox="0 0 91.188 91">
  <defs>
    <clipPath id="clip-path">
      <rect id="Rectángulo_56284" data-name="Rectángulo 56284" width="91.188" height="91" fill="#12263f"/>
    </clipPath>
    <linearGradient id="linear-gradient" x1="0.5" x2="0.5" y2="1" gradientUnits="objectBoundingBox">
      <stop offset="0" stop-color="#f5f5f5"/>
      <stop offset="0.25" stop-color="#f5f5f5"/>
      <stop offset="1" stop-color="#a7b3cf"/>
    </linearGradient>
    <linearGradient id="linear-gradient-2" x1="0.5" x2="0.5" y2="1" gradientUnits="objectBoundingBox">
      <stop offset="0" stop-color="#2a9d8d"/>
      <stop offset="1" stop-color="#43a99b"/>
    </linearGradient>
    <linearGradient id="linear-gradient-5" x1="0.5" x2="0.5" y2="1" gradientUnits="objectBoundingBox">
      <stop offset="0" stop-color="#116eb9"/>
      <stop offset="1" stop-color="#1894f6"/>
    </linearGradient>
  </defs>
  <g id="Grupo_179427" data-name="Grupo 179427" transform="translate(6436.5 10077.086)">
    <g id="Grupo_175626" data-name="Grupo 175626" transform="translate(-6436.5 -10077.086)">
      <g id="Grupo_175625" data-name="Grupo 175625" clip-path="url(#clip-path)">
        <path id="Trazado_217848" data-name="Trazado 217848" d="M80.5,48.458H77.681V27.538H59.3V9.373H42.623v1.633q0,16.685-.009,33.37a28.988,28.988,0,0,1-.175,3.034c-.287,2.7-1.649,4.077-4.358,4.214-2.554.129-5.116.116-7.675.125-4.944.017-9.887,0-14.831.011-.558,0-1.117.078-1.722.124V87.839H77.441V70.18h2.847V91H10.718V51.682c-2.139,0-4.119.088-6.088-.02C1.555,51.492.014,49.8.011,46.7q-.02-20.856,0-41.712C.013,1.748,1.782.009,5.032.006Q20.987-.01,36.943,0c3.724,0,5.09,1.169,5.651,4.839.053.348.09.7.161,1.255.459,0,.923,0,1.387,0,5.031-.013,10.063-.007,15.094-.05a5.139,5.139,0,0,1,3.909,1.6q7.8,7.928,15.628,15.825a5.469,5.469,0,0,1,1.776,3.986q0,10.129,0,20.258c0,.211-.029.423-.051.741M39.475,25.812q0-9.992,0-19.984c0-2.371-.324-2.712-2.634-2.713q-15.617-.007-31.233,0c-2.185,0-2.427.242-2.539,2.392-.019.352-.007.706-.007,1.059q0,7.61,0,15.22,0,11.977,0,23.954c0,2.572.321,2.88,2.765,2.881q15.484.007,30.969,0c2.308,0,2.679-.381,2.68-2.7q.005-10.058,0-20.116m34.08-1.642L62.569,13.2V24.17Z" transform="translate(0 0)" fill="#12263f"/>
        <path id="Trazado_217849" data-name="Trazado 217849" d="M238.929,182.706a5.067,5.067,0,0,1-1.839,3.677q-2.595,2.647-5.231,5.254c-6.553,6.485-13.072,13-19.708,19.4a19.1,19.1,0,0,1-4.457,2.786,36.158,36.158,0,0,1-4.492,1.924c-.506.184-1.382.228-1.665-.068a1.991,1.991,0,0,1-.368-1.762c1.864-4.32,3.656-8.609,7.24-12,6.6-6.246,12.9-12.806,19.372-19.188a28.635,28.635,0,0,1,4.62-3.9c2.8-1.773,6.543.543,6.528,3.879m-11.951,5.463c-.439.354-.768.573-1.042.847q-7.962,7.95-15.915,15.909a14.928,14.928,0,0,0-3.881,5.278,3.042,3.042,0,0,0-.06.838c.274-.037.606.013.814-.124a26.281,26.281,0,0,0,3.879-2.725c4.875-4.73,9.656-9.557,14.468-14.352,1.152-1.148,2.29-2.31,3.516-3.547l-1.779-2.123m7.646-3.025c.2-1.393,1.765-2.377.539-3.455-.983-.864-1.9.29-2.936.7l2.4,2.756M231,187.889l1.017-.869c-1.577-2.08-1.713-2.131-2.635-1L231,187.889" transform="translate(-147.742 -130.936)" fill="#12263f"/>
        <path id="Trazado_217850" data-name="Trazado 217850" d="M89.784,236.9A15.184,15.184,0,0,1,74.61,221.771,15.166,15.166,0,1,1,89.784,236.9m-12.16-15.208a12.176,12.176,0,0,0,12.05,12.08A12.322,12.322,0,0,0,101.965,221.6c.048-6.361-5.625-11.986-12.165-12.065a12.357,12.357,0,0,0-12.176,12.152" transform="translate(-54.817 -151.768)" fill="#12263f"/>
        <rect id="Rectángulo_56266" data-name="Rectángulo 56266" width="17.895" height="2.697" transform="translate(54.929 32.109)" fill="#12263f"/>
        <rect id="Rectángulo_56267" data-name="Rectángulo 56267" width="17.938" height="2.705" transform="translate(54.844 38.186)" fill="#12263f"/>
        <rect id="Rectángulo_56268" data-name="Rectángulo 56268" width="17.801" height="2.795" transform="translate(54.952 44.296)" fill="#12263f"/>
        <rect id="Rectángulo_56269" data-name="Rectángulo 56269" width="17.895" height="2.688" transform="translate(54.935 50.391)" fill="#12263f"/>
        <rect id="Rectángulo_56270" data-name="Rectángulo 56270" width="2.688" height="2.74" transform="translate(48.844 32.131)" fill="#12263f"/>
        <rect id="Rectángulo_56271" data-name="Rectángulo 56271" width="2.657" height="2.755" transform="translate(48.861 38.149)" fill="#12263f"/>
        <rect id="Rectángulo_56272" data-name="Rectángulo 56272" width="2.717" height="2.674" transform="translate(48.855 50.385)" fill="#12263f"/>
        <rect id="Rectángulo_56273" data-name="Rectángulo 56273" width="2.555" height="2.813" transform="translate(48.856 44.177)" fill="#12263f"/>
        <path id="Trazado_217851" data-name="Trazado 217851" d="M47.936,34.431q0,10.058,0,20.116c0,2.315-.373,2.7-2.68,2.7q-15.484.006-30.969,0c-2.443,0-2.76-.309-2.765-2.881q-.022-11.977,0-23.954,0-7.61,0-15.22c0-.353-.011-.707.008-1.059.112-2.149.354-2.39,2.539-2.391q15.617-.01,31.233,0c2.31,0,2.633.342,2.634,2.713q0,9.992,0,19.984M13.123,23.563H46.2V13.369H13.123ZM25.171,51.145c-.019,3.807.823,4.645,4.653,4.644.176,0,.353,0,.529,0,2.918-.052,3.876-1,3.941-3.9.1-4.627-1.079-5.729-5.717-5.327-2.369.205-3.282,1.149-3.4,3.528-.018.352,0,.705,0,1.058m9.1-10.613c0-.441.029-.884,0-1.322-.164-2.149-.851-2.965-2.965-3.161a20.14,20.14,0,0,0-3.812.119,2.244,2.244,0,0,0-2.126,2.026,19.932,19.932,0,0,0-.2,3.154c.035,2.73.916,3.608,3.655,3.754.308.016.617.005.926,0,3.8,0,4.545-.757,4.524-4.575M23.579,51.27c0-.352.009-.7,0-1.055-.077-2.548-.984-3.536-3.5-3.645a18.728,18.728,0,0,0-3.145.181,2.3,2.3,0,0,0-2.172,2.138,22.2,22.2,0,0,0-.039,4.456c.165,1.516,1,2.2,2.567,2.362a19.906,19.906,0,0,0,3.03.043c2.246-.108,3.15-1.046,3.252-3.293.018-.395,0-.791,0-1.187m.1-10.7a12.067,12.067,0,0,0-.4-2.719A2.91,2.91,0,0,0,21.852,36.3c-4.6-1.809-7.413.153-7.292,5,0,.044,0,.088,0,.132.089,2.729.851,3.517,3.559,3.672.307.018.616.006.925.006,3.855,0,4.539-.679,4.638-4.535M40.32,55.738v.034c.352,0,.7.014,1.056,0,2.468-.112,3.349-.922,3.482-3.348a10.174,10.174,0,0,0-.145-3.278,3.628,3.628,0,0,0-1.59-2.188c-4.372-1.929-7.412.14-7.327,4.85a7.664,7.664,0,0,0,.115,1.312,2.756,2.756,0,0,0,2.825,2.612,14.853,14.853,0,0,0,1.583.009M23.579,30c0-4.013-.683-4.7-4.665-4.687a10.278,10.278,0,0,0-1.839.132,2.514,2.514,0,0,0-2.427,2.527,20.446,20.446,0,0,0,.042,3.954c.177,1.608.837,2.232,2.467,2.43a15.887,15.887,0,0,0,3.419.08c2.2-.214,2.9-1.046,3-3.245.017-.4,0-.793,0-1.189M44.863,40.645c0-.484.034-.971-.006-1.453-.185-2.263-.952-3.063-3.206-3.209a15.291,15.291,0,0,0-3.029.1c-1.895.258-2.579,1.021-2.788,2.926a13.457,13.457,0,0,0-.041,1.453c0,3.89.757,4.654,4.617,4.648,3.792-.006,4.479-.69,4.453-4.461m-.014-10.736c0-.484.036-.972-.006-1.453-.187-2.157-1.013-3.026-3.156-3.12-5.237-.23-6.252.525-5.826,6.3a3.829,3.829,0,0,0,.075.389,2.515,2.515,0,0,0,2.343,2.306,18.139,18.139,0,0,0,1.969.168c3.923.02,4.642-.7,4.6-4.594M25.2,29.857h-.022c0,.4-.019.794,0,1.189.13,2.3.9,3.184,3.193,3.4a18.307,18.307,0,0,0,3.419-.111,2.438,2.438,0,0,0,2.372-2.408,26.129,26.129,0,0,0-.007-4.081A2.332,2.332,0,0,0,32,25.528a19.648,19.648,0,0,0-4.2-.064c-1.726.194-2.432,1.078-2.6,2.808-.051.524-.008,1.056-.008,1.585" transform="translate(-8.459 -8.619)" fill="url(#linear-gradient)"/>
        <path id="Trazado_217852" data-name="Trazado 217852" d="M246.836,60.737H235.85V49.77l10.986,10.967" transform="translate(-173.281 -36.566)" fill="url(#linear-gradient-2)"/>
        <path id="Trazado_217853" data-name="Trazado 217853" d="M240.8,215.738l1.779,2.123c-1.226,1.238-2.364,2.4-3.516,3.547-4.812,4.8-9.592,9.622-14.468,14.352a26.3,26.3,0,0,1-3.879,2.725c-.207.138-.539.088-.814.125a3.04,3.04,0,0,1,.06-.838,14.922,14.922,0,0,1,3.881-5.278q7.964-7.948,15.915-15.909c.274-.274.6-.493,1.042-.847" transform="translate(-161.564 -158.505)" fill="#eeac3a"/>
        <path id="Trazado_217854" data-name="Trazado 217854" d="M320.858,193.9l-2.4-2.756c1.032-.409,1.953-1.562,2.936-.7,1.226,1.078-.339,2.061-.539,3.455" transform="translate(-233.976 -139.694)" fill="#eeac3a"/>
        <path id="Trazado_217855" data-name="Trazado 217855" d="M309.362,207.464l-1.617-1.866c.922-1.134,1.058-1.083,2.635,1l-1.017.869" transform="translate(-226.103 -150.512)" fill="#12263f"/>
        <path id="Trazado_217856" data-name="Trazado 217856" d="M85.972,229.9A12.357,12.357,0,0,1,98.148,217.75c6.54.079,12.212,5.7,12.165,12.064a12.322,12.322,0,0,1-12.292,12.168A12.175,12.175,0,0,1,85.972,229.9m6.348,2.734a3.527,3.527,0,0,0,1.615,3.582,30.9,30.9,0,0,1,2.644,1.965c1.237,1.109,2.293,1.067,3.438-.195a6.416,6.416,0,0,1,1.527-1.234c1.646-.947,2.811-2.2,2.616-4.219-.209-2.164-1.751-3.168-3.656-3.665-1.142-.3-2.338-.388-3.5-.614-.74-.143-1.551-.3-1.528-1.316a1.45,1.45,0,0,1,1.676-1.475,13.309,13.309,0,0,1,2.977.444c1.262.329,2.486.8,3.92,1.279a4.613,4.613,0,0,0-1.894-3.746c-1.067-.719-1.941-1.741-3.043-2.384-.522-.3-1.811-.3-2,.014-.771,1.267-2.006,1.784-3.142,2.522a3.808,3.808,0,0,0,.4,6.822,32.771,32.771,0,0,0,4.051,1.087A25.265,25.265,0,0,1,101,232.618c-1.434,2.109-2.222,2.088-8.677.017" transform="translate(-63.164 -159.982)" fill="url(#linear-gradient)"/>
        <path id="Trazado_217857" data-name="Trazado 217857" d="M17.58,17.905H50.657V28.1H17.58Zm30.055,3.117H20.83v4.031h26.8Z" transform="translate(-12.916 -13.155)" fill="#12263f"/>
        <path id="Trazado_217858" data-name="Trazado 217858" d="M62.977,147.389c0-.353-.016-.706,0-1.058.121-2.378,1.035-3.322,3.4-3.528,4.638-.4,5.821.7,5.717,5.327-.065,2.9-1.023,3.85-3.941,3.9-.176,0-.353,0-.529,0-3.83,0-4.672-.838-4.653-4.645m5.8-1.155H66.3v2.549h2.482Z" transform="translate(-46.265 -104.863)" fill="#12263f"/>
        <path id="Trazado_217859" data-name="Trazado 217859" d="M72.087,107.74c.022,3.818-.728,4.573-4.524,4.575-.309,0-.618.011-.926,0-2.739-.146-3.62-1.023-3.655-3.754a19.932,19.932,0,0,1,.2-3.154,2.244,2.244,0,0,1,2.126-2.026,20.139,20.139,0,0,1,3.812-.119c2.114.2,2.8,1.013,2.965,3.161.033.438,0,.881,0,1.322m-3.27-1.125H66.3v2.538h2.521Z" transform="translate(-46.273 -75.827)" fill="#12263f"/>
        <path id="Trazado_217860" data-name="Trazado 217860" d="M32.212,147.725c0,.4.015.792,0,1.186-.1,2.247-1.006,3.186-3.252,3.293a19.9,19.9,0,0,1-3.03-.043c-1.565-.165-2.4-.846-2.567-2.362a22.2,22.2,0,0,1,.039-4.456,2.3,2.3,0,0,1,2.172-2.138,18.729,18.729,0,0,1,3.145-.181c2.511.109,3.418,1.1,3.5,3.645.011.352,0,.7,0,1.055m-3.2-1.305H26.467v2.417h2.549Z" transform="translate(-17.092 -105.073)" fill="#12263f"/>
        <path id="Trazado_217861" data-name="Trazado 217861" d="M32.108,106.772c-.1,3.856-.783,4.535-4.638,4.535-.308,0-.617.012-.925-.006-2.708-.155-3.47-.943-3.559-3.672,0-.044,0-.088,0-.132-.121-4.846,2.691-6.808,7.292-5a2.908,2.908,0,0,1,1.431,1.555,12.067,12.067,0,0,1,.4,2.719m-5.853,1.3h2.5v-2.524h-2.5Z" transform="translate(-16.884 -74.819)" fill="#12263f"/>
        <path id="Trazado_217862" data-name="Trazado 217862" d="M107.562,151.3a14.853,14.853,0,0,1-1.583-.009,2.756,2.756,0,0,1-2.825-2.612,7.663,7.663,0,0,1-.115-1.312c-.085-4.71,2.955-6.779,7.327-4.85a3.627,3.627,0,0,1,1.59,2.188,10.174,10.174,0,0,1,.145,3.278c-.133,2.426-1.014,3.236-3.482,3.348-.352.016-.7,0-1.056,0V151.3m1.328-5.784H106.4v2.45h2.49Z" transform="translate(-75.702 -104.183)" fill="#12263f"/>
        <path id="Trazado_217863" data-name="Trazado 217863" d="M32.045,67.626c0,.4.015.794,0,1.189-.1,2.2-.8,3.031-3,3.245a15.887,15.887,0,0,1-3.419-.08c-1.63-.2-2.29-.821-2.467-2.43a20.446,20.446,0,0,1-.042-3.954,2.514,2.514,0,0,1,2.427-2.527,10.278,10.278,0,0,1,1.839-.132c3.983-.016,4.667.675,4.665,4.687m-5.738,1.166h2.538V66.241H26.307Z" transform="translate(-16.925 -46.242)" fill="#12263f"/>
        <path id="Trazado_217864" data-name="Trazado 217864" d="M112.1,107.714c.026,3.771-.661,4.455-4.453,4.461-3.86.006-4.621-.758-4.617-4.648a13.52,13.52,0,0,1,.041-1.452c.209-1.9.893-2.667,2.788-2.926a15.251,15.251,0,0,1,3.029-.1c2.254.146,3.021.946,3.206,3.209.039.481.006.968.006,1.453m-3.189-1.292h-2.6v2.544h2.6Z" transform="translate(-75.696 -75.688)" fill="#12263f"/>
        <path id="Trazado_217865" data-name="Trazado 217865" d="M112.036,67.489c.043,3.893-.676,4.614-4.6,4.594a18.207,18.207,0,0,1-1.969-.168,2.515,2.515,0,0,1-2.343-2.306,3.821,3.821,0,0,1-.075-.389c-.427-5.779.588-6.534,5.826-6.3,2.142.094,2.968.963,3.156,3.12.042.481.006.969.006,1.453m-3.161-1.318h-2.5v2.6h2.5Z" transform="translate(-75.646 -46.199)" fill="#12263f"/>
        <path id="Trazado_217866" data-name="Trazado 217866" d="M63.01,67.652c0-.528-.043-1.061.008-1.585.167-1.73.873-2.614,2.6-2.808a19.666,19.666,0,0,1,4.2.064,2.332,2.332,0,0,1,2.153,2.315,26.129,26.129,0,0,1,.007,4.081A2.438,2.438,0,0,1,69.6,72.127a18.307,18.307,0,0,1-3.419.111c-2.292-.213-3.062-1.1-3.193-3.4-.022-.4,0-.793,0-1.189Zm5.885-1.235H66.307v2.6h2.588Z" transform="translate(-46.272 -46.414)" fill="#12263f"/>
        <path id="Trazado_217867" data-name="Trazado 217867" d="M109.118,241.168c6.455,2.071,7.242,2.092,8.677-.018a25.265,25.265,0,0,0-2.582-1.117,32.776,32.776,0,0,1-4.051-1.087,3.808,3.808,0,0,1-.4-6.822c1.136-.737,2.371-1.255,3.142-2.522.193-.318,1.482-.319,2-.014,1.1.644,1.976,1.665,3.043,2.384a4.613,4.613,0,0,1,1.894,3.746c-1.434-.476-2.658-.95-3.92-1.279A13.309,13.309,0,0,0,113.95,234a1.45,1.45,0,0,0-1.676,1.475c-.023,1.014.788,1.172,1.528,1.316,1.163.226,2.359.315,3.5.614,1.9.5,3.446,1.5,3.656,3.665.195,2.016-.97,3.272-2.616,4.219a6.416,6.416,0,0,0-1.527,1.234c-1.144,1.262-2.2,1.3-3.438.195a30.916,30.916,0,0,0-2.644-1.965,3.527,3.527,0,0,1-1.615-3.582" transform="translate(-79.962 -168.514)" fill="#12263f"/>
        <rect id="Rectángulo_56274" data-name="Rectángulo 56274" width="26.805" height="4.031" transform="translate(7.914 7.867)" fill="url(#linear-gradient-2)"/>
        <rect id="Rectángulo_56275" data-name="Rectángulo 56275" width="2.482" height="2.549" transform="translate(20.03 41.371)" fill="url(#linear-gradient-5)"/>
        <rect id="Rectángulo_56276" data-name="Rectángulo 56276" width="2.521" height="2.538" transform="translate(20.023 30.788)" fill="url(#linear-gradient-5)"/>
        <rect id="Rectángulo_56277" data-name="Rectángulo 56277" width="2.549" height="2.417" transform="translate(9.375 41.346)" fill="url(#linear-gradient-5)"/>
        <rect id="Rectángulo_56278" data-name="Rectángulo 56278" width="2.497" height="2.525" transform="translate(9.372 30.725)" fill="url(#linear-gradient-5)"/>
        <rect id="Rectángulo_56279" data-name="Rectángulo 56279" width="2.49" height="2.45" transform="translate(30.698 41.335)" fill="url(#linear-gradient-5)"/>
        <rect id="Rectángulo_56280" data-name="Rectángulo 56280" width="2.538" height="2.552" transform="translate(9.381 19.999)" fill="url(#linear-gradient-5)"/>
        <rect id="Rectángulo_56281" data-name="Rectángulo 56281" width="2.597" height="2.544" transform="translate(30.617 30.734)" fill="url(#linear-gradient-5)"/>
        <rect id="Rectángulo_56282" data-name="Rectángulo 56282" width="2.501" height="2.603" transform="translate(30.727 19.972)" fill="url(#linear-gradient-5)"/>
        <rect id="Rectángulo_56283" data-name="Rectángulo 56283" width="2.588" height="2.599" transform="translate(20.034 20.003)" fill="url(#linear-gradient-5)"/>
      </g>
    </g>
  </g>
</svg>
