<svg xmlns="http://www.w3.org/2000/svg" xmlns:xlink="http://www.w3.org/1999/xlink" width="132" height="132" viewBox="0 0 132 132">
  <defs>
    <clipPath id="clip-path">
      <rect id="Rectángulo_56293" data-name="Rectángulo 56293" width="132" height="132" transform="translate(0.083 -0.001)" fill="#12263f"/>
    </clipPath>
    <linearGradient id="linear-gradient" x1="0.5" x2="0.5" y2="1" gradientUnits="objectBoundingBox">
      <stop offset="0" stop-color="#f5f5f5"/>
      <stop offset="0.25" stop-color="#f5f5f5"/>
      <stop offset="1" stop-color="#a7b3cf"/>
    </linearGradient>
    <linearGradient id="linear-gradient-2" x1="0.5" x2="0.5" y2="1" gradientUnits="objectBoundingBox">
      <stop offset="0" stop-color="#0a518b"/>
      <stop offset="1" stop-color="#1894f6"/>
    </linearGradient>
    <linearGradient id="linear-gradient-3" x1="0.5" x2="0.5" y2="1" gradientUnits="objectBoundingBox">
      <stop offset="0" stop-color="#278d7e"/>
      <stop offset="1" stop-color="#4fc1b1"/>
    </linearGradient>
  </defs>
  <g id="Grupo_179429" data-name="Grupo 179429" transform="translate(6451 9519.001)">
    <g id="Grupo_175630" data-name="Grupo 175630" transform="translate(-6451.083 -9518.832)">
      <g id="Grupo_175629" data-name="Grupo 175629" transform="translate(0 -0.168)" clip-path="url(#clip-path)">
        <path id="Trazado_217891" data-name="Trazado 217891" d="M117.986,0h1.65a3.521,3.521,0,0,1,1.4,3.323c-.087,2.193-.023,4.393-.023,6.59v3.214c5.978.405,8.64,2.38,8.791,6.384a6.5,6.5,0,0,1-1.486,4.454c-1.867,2.315-4.46,2.629-7.222,2.416V28.6c1.492,0,2.9-.03,4.314.006,3.493.09,5.446,2.157,6.6,5.217v73.156c-1.41,3.982-4.287,5.31-8.406,5.277-15.72-.126-31.441-.051-47.162-.051H74.882v6.6H76.3c3.758,0,7.517-.01,11.275,0,1.811.007,2.618.8,2.631,2.585q.031,3.987,0,7.975c-.012,1.808-.805,2.629-2.589,2.63q-21.587.015-43.175,0c-1.811,0-2.616-.8-2.63-2.587q-.03-3.988,0-7.975c.012-1.855.812-2.625,2.723-2.631,3.713-.012,7.425,0,11.137,0H57.1v-6.6H55.343q-24.131,0-48.263,0c-4.29,0-7.073-2.769-7.075-7.036q-.01-34.787,0-69.575A6.609,6.609,0,0,1,6.986,28.6c1.311-.008,2.621,0,4.017,0V26.931Q11,18.2,11,9.468c0-2.145.733-2.866,2.9-2.866q21.312,0,42.625,0c2.144,0,2.868.735,2.87,2.9q.008,8.8,0,17.6V28.53H72.518V26.4c-1.365,0-2.642.015-3.918,0-1.786-.027-2.576-.821-2.588-2.63q-.026-3.987,0-7.975c.014-1.789.816-2.566,2.627-2.588,1.31-.016,2.619,0,3.967,0,0-.483,0-.757,0-1.03.025-2.843.551-3.37,3.366-3.37,4.217,0,8.433.021,12.65-.018a9.281,9.281,0,0,0,2.549-.4Q99.126,6,107.053,3.527c3.655-1.142,7.289-2.349,10.933-3.527M87.813,30.684c-.136.7-.253,1.179-.324,1.668-.552,3.806-1.09,7.614-1.645,11.42-.268,1.841-.948,2.419-2.828,2.429-1.65.009-3.3,0-4.95,0-2.64,0-3.257-.607-3.258-3.206,0-3.287,0-6.574,0-9.911h-15.4c0,3.557.012,7.032-.005,10.507-.009,1.736-.808,2.6-2.476,2.6q-21.724.02-43.449,0a2.2,2.2,0,0,1-2.465-2.47c-.026-3.116-.008-6.233-.008-9.35,0-.436,0-.873,0-1.372H7.65c-2.636,0-3.247.6-3.247,3.214q0,30.593,0,61.186v1.524h123.21V97.638q0-30.8,0-61.6c0-.367.128-.839-.05-1.079-.508-.688-1.068-1.706-1.745-1.826a28.047,28.047,0,0,0-4.8-.086c0,1.2,0,2.245,0,3.295,0,2.928-1.073,3.724-3.851,2.866-8.7-2.686-17.392-5.388-26.1-8.037a22.135,22.135,0,0,0-3.245-.488M54.947,11.1H15.515V41.729H54.947ZM4.49,103.454c-.32,3.8.179,4.355,3.791,4.355H124.018a13.73,13.73,0,0,0,1.511-.021,2.113,2.113,0,0,0,2.053-2.028,22.832,22.832,0,0,0,.014-2.306ZM116.554,5.264c-.272.063-.492.1-.7.164-7.52,2.311-15.035,4.637-22.563,6.919a1.077,1.077,0,0,0-.891,1.262c.026,4.124.033,8.248,0,12.372-.007.794.271,1.087,1.015,1.308,3.859,1.143,7.7,2.356,11.544,3.542l11.6,3.579ZM46.267,127.513H85.695v-4.231H46.267ZM87.983,13.288H77.106v13H87.983ZM70.292,112.3h-8.58v6.479h8.58ZM81.7,41.758l1.555-10.876H79.292V41.758Zm39.374-19.789c1.5-.038,3.134.53,3.974-1.112a2.719,2.719,0,0,0-.093-2.262c-.9-1.485-2.456-.919-3.881-.957ZM72.5,17.671H70.488v4.282H72.5Z" transform="translate(0 0.075)" fill="#12263f"/>
        <path id="Trazado_217892" data-name="Trazado 217892" d="M95.728,70.9H56.3V40.275H95.728ZM69.386,55.52c0,2.108-.026,4.217.007,6.325S70.945,64.928,72.842,64c4.232-2.073,8.462-4.155,12.626-6.359a2.888,2.888,0,0,0,1.4-2.073A2.913,2.913,0,0,0,85.445,53.5c-4.165-2.2-8.394-4.285-12.627-6.357-1.886-.924-3.4.064-3.426,2.188-.029,2.062-.006,4.125-.006,6.187" transform="translate(-40.781 -29.1)" fill="url(#linear-gradient)"/>
        <path id="Trazado_217893" data-name="Trazado 217893" d="M16.077,375.383H139.184a22.832,22.832,0,0,1-.014,2.306,2.113,2.113,0,0,1-2.053,2.028,13.662,13.662,0,0,1-1.511.021H19.869c-3.612,0-4.111-.554-3.791-4.355" transform="translate(-11.588 -271.854)" fill="#135989"/>
        <path id="Trazado_217894" data-name="Trazado 217894" d="M359.406,19.1V48.247l-11.6-3.579c-3.846-1.187-7.684-2.4-11.544-3.542-.744-.22-1.022-.514-1.015-1.308.038-4.124.031-8.248.005-12.372a1.077,1.077,0,0,1,.891-1.262c7.528-2.282,15.044-4.608,22.563-6.919.211-.065.431-.1.7-.164" transform="translate(-242.852 -13.762)" fill="url(#linear-gradient-2)"/>
        <rect id="Rectángulo_56286" data-name="Rectángulo 56286" width="39.428" height="4.231" transform="translate(46.267 123.357)" fill="#135989"/>
        <rect id="Rectángulo_56287" data-name="Rectángulo 56287" width="10.877" height="13.003" transform="translate(77.106 13.363)" fill="url(#linear-gradient-3)"/>
        <path id="Trazado_217895" data-name="Trazado 217895" d="M290.119,122.933h-2.408V112.057h3.964l-1.555,10.876" transform="translate(-208.419 -81.1)" fill="url(#linear-gradient-3)"/>
        <path id="Trazado_217896" data-name="Trazado 217896" d="M439.319,68.133V63.8c1.425.038,2.984-.528,3.881.957a2.719,2.719,0,0,1,.093,2.262c-.84,1.641-2.475,1.074-3.974,1.112" transform="translate(-318.245 -46.089)" fill="#12263f"/>
        <rect id="Rectángulo_56288" data-name="Rectángulo 56288" width="2.017" height="4.282" transform="translate(70.487 17.746)" fill="#12263f"/>
        <path id="Trazado_217897" data-name="Trazado 217897" d="M62.738,199.583q13.888,0,27.776,0c2.341,0,3.028.685,3.029,3.022q0,16.775,0,33.551c0,2.339-.689,3.028-3.025,3.028q-27.776,0-55.552,0c-2.34,0-3.025-.685-3.026-3.024q0-16.776,0-33.551c0-2.343.681-3.024,3.022-3.025q13.888,0,27.776,0M36.385,234.688H89.049V205.835c-.558.325-.989.562-1.407.82-7.6,4.676-15.22,9.321-22.781,14.059a3.519,3.519,0,0,1-4.263-.025c-7.6-4.765-15.254-9.436-22.893-14.137-.4-.243-.813-.452-1.32-.732Zm5.788-30.649c.372.283.5.4.655.5,6.347,3.912,12.7,7.809,19.035,11.748a1.513,1.513,0,0,0,1.855-.059c5.323-3.306,10.667-6.58,16-9.867,1.142-.7,2.277-1.419,3.716-2.318Z" transform="translate(-23.136 -144.504)" fill="#12263f"/>
        <path id="Trazado_217898" data-name="Trazado 217898" d="M278.032,214.415c-1.5,0-2.822.023-4.143-.006a2.216,2.216,0,0,1-2.45-2.485q-.023-12.918,0-25.835a2.194,2.194,0,0,1,2.464-2.467q19.514-.02,39.028,0c1.685,0,2.48.846,2.5,2.576.021,2.01,0,4.02,0,6.217.653,0,1.228-.009,1.8,0,1.788.035,2.588.819,2.594,2.623.015,4.856.005,9.711.005,14.567,0,3.619.008,7.238,0,10.856-.006,1.972-.777,2.75-2.745,2.75q-18.14.01-36.279,0c-1.989,0-2.76-.765-2.773-2.721s0-3.927,0-6.077m37.306-17.492H282.505v21.832h32.832Zm-4.367-8.817h-35.04v21.842h2.1v-1.406q0-6.525,0-13.051c0-2.423.66-3.076,3.1-3.077q14.15,0,28.3,0h1.533Z" transform="translate(-196.624 -132.934)" fill="#12263f"/>
        <path id="Trazado_217899" data-name="Trazado 217899" d="M103.769,72.668c0-2.063-.023-4.125.006-6.188.03-2.123,1.54-3.111,3.426-2.188,4.233,2.072,8.462,4.154,12.627,6.357a2.915,2.915,0,0,1,1.424,2.064,2.888,2.888,0,0,1-1.4,2.072c-4.164,2.2-8.394,4.286-12.625,6.359-1.9.93-3.416-.039-3.449-2.153s-.007-4.217-.007-6.325m4.473-2.944V75.73l5.993-3.008-5.993-3" transform="translate(-75.164 -46.248)" fill="#12263f"/>
        <path id="Trazado_217900" data-name="Trazado 217900" d="M48.074,251.082V222.214c.507.28.924.488,1.32.732,7.638,4.7,15.294,9.372,22.893,14.137a3.519,3.519,0,0,0,4.263.025c7.561-4.738,15.181-9.383,22.781-14.059.418-.257.849-.5,1.407-.82v28.853Z" transform="translate(-34.825 -160.898)" fill="#eeac3a"/>
        <path id="Trazado_217901" data-name="Trazado 217901" d="M69.076,215.752h41.263c-1.44.9-2.574,1.614-3.716,2.318-5.335,3.287-10.678,6.561-16,9.867a1.513,1.513,0,0,1-1.855.059c-6.331-3.939-12.687-7.836-19.035-11.748-.15-.092-.283-.212-.655-.5" transform="translate(-50.039 -156.217)" fill="#eeac3a"/>
        <path id="Trazado_217902" data-name="Trazado 217902" d="M344.455,253.742H311.623V231.91h32.832Zm-19.639-13.214h15.246V236.3H324.817Zm15.258,4.562H329.253v4.251h10.822Zm-15.385.009h-8.628v4.231h8.628Zm-8.682-4.566h4.262V236.3h-4.262Z" transform="translate(-225.741 -167.922)" fill="url(#linear-gradient)"/>
        <path id="Trazado_217903" data-name="Trazado 217903" d="M322.806,199.92v4.308h-1.533q-14.15,0-28.3,0c-2.444,0-3.1.654-3.1,3.077q0,6.525,0,13.051v1.406h-2.1V199.92Z" transform="translate(-208.459 -144.748)" fill="url(#linear-gradient)"/>
        <rect id="Rectángulo_56289" data-name="Rectángulo 56289" width="15.246" height="4.227" transform="translate(99.075 68.379)" fill="#12263f"/>
        <rect id="Rectángulo_56290" data-name="Rectángulo 56290" width="10.822" height="4.25" transform="translate(103.512 77.168)" fill="#12263f"/>
        <rect id="Rectángulo_56291" data-name="Rectángulo 56291" width="8.628" height="4.231" transform="translate(90.32 77.178)" fill="#12263f"/>
        <rect id="Rectángulo_56292" data-name="Rectángulo 56292" width="4.262" height="4.238" transform="translate(90.266 68.374)" fill="#12263f"/>
      </g>
    </g>
  </g>
</svg>
