<svg xmlns="http://www.w3.org/2000/svg" xmlns:xlink="http://www.w3.org/1999/xlink" width="112" height="112" viewBox="0 0 112 112">
  <defs>
    <clipPath id="clip-path">
      <rect id="Rectángulo_56209" data-name="Rectángulo 56209" width="65.733" height="59.104" fill="#fff"/>
    </clipPath>
  </defs>
  <g id="Grupo_179431" data-name="Grupo 179431" transform="translate(5458.95 8567.362)">
    <circle id="Elipse_6194" data-name="Elipse 6194" cx="56" cy="56" r="56" transform="translate(-5458.95 -8567.362)" fill="#12263f"/>
    <g id="Grupo_175592" data-name="Grupo 175592" transform="translate(-5434.899 -8545.125)">
      <g id="Grupo_175591" data-name="Grupo 175591" clip-path="url(#clip-path)">
        <path id="Trazado_217758" data-name="Trazado 217758" d="M11.567,30.207v-2.2c0-6.644.034-13.289-.022-19.933a5.168,5.168,0,0,1,2.066-4.3,14.509,14.509,0,0,1,5.081-2.5A31.4,31.4,0,0,1,26.669.032,35.026,35.026,0,0,1,37.408,1.14a15.49,15.49,0,0,1,5.34,2.472,6.619,6.619,0,0,1,1.575,1.662,4.23,4.23,0,0,1,.688,2.354q0,6.1-.009,12.206c0,.722-.032,1.445-.05,2.2.451-.033.949-.076,1.447-.1a34.056,34.056,0,0,1,13.244,1.537A12.782,12.782,0,0,1,63.776,25.7a4.925,4.925,0,0,1,1.89,3,8.127,8.127,0,0,1,.049,1.256c0,6.507-.021,13.015.018,19.522a4.908,4.908,0,0,1-1.761,3.872,12.7,12.7,0,0,1-4.32,2.407,28.444,28.444,0,0,1-7.106,1.466,39.181,39.181,0,0,1-6.359.056,26.415,26.415,0,0,1-9.6-2.267,9.72,9.72,0,0,1-3.042-2.155,4.456,4.456,0,0,1-1.269-3.227c0-.115,0-.231-.007-.346,0-.019-.016-.037-.035-.075-.639.042-1.285.092-1.932.126-.577.03-1.155.052-1.732.056a.288.288,0,0,0-.314.228,14.311,14.311,0,0,1-3.178,5.021,14.159,14.159,0,0,1-7.835,4.207A14.191,14.191,0,0,1,5.4,55.822,13.958,13.958,0,0,1,.162,46.627,14.232,14.232,0,0,1,4.26,34.2a14.113,14.113,0,0,1,7-3.916c.091-.022.182-.047.308-.079M27.276,44.5A12.679,12.679,0,1,0,14.666,57.17,12.723,12.723,0,0,0,27.276,44.5M49.01,23.771,49,23.684c-1.652.139-3.311.231-4.956.43a21.765,21.765,0,0,0-5.983,1.565,9.013,9.013,0,0,0-3.057,1.958,2.138,2.138,0,0,0-.215,3.1,4.509,4.509,0,0,0,.5.526,10.323,10.323,0,0,0,3.368,1.923,29.046,29.046,0,0,0,9.991,1.672,34.155,34.155,0,0,0,5.306-.336,24.151,24.151,0,0,0,5.733-1.464,9.184,9.184,0,0,0,3.357-2.107,2.129,2.129,0,0,0,.072-3.2,4.654,4.654,0,0,0-.539-.529,12.289,12.289,0,0,0-4.334-2.177,30.677,30.677,0,0,0-9.233-1.279M27.433,1.9c-.863.076-2.574.176-4.27.388a21.27,21.27,0,0,0-6.058,1.642A8.224,8.224,0,0,0,14.174,5.9,2.1,2.1,0,0,0,14.163,9a7.885,7.885,0,0,0,2.89,1.97,26.667,26.667,0,0,0,9.917,2.016,34.109,34.109,0,0,0,7-.428A22.145,22.145,0,0,0,39.675,10.9a8.023,8.023,0,0,0,2.7-1.866A2.091,2.091,0,0,0,42.546,6.1a4.408,4.408,0,0,0-.534-.578,11.273,11.273,0,0,0-4.05-2.176A32.919,32.919,0,0,0,27.433,1.9M63.805,39.859a14.861,14.861,0,0,1-5.263,2.607,34.777,34.777,0,0,1-11.35,1.218,32.067,32.067,0,0,1-6.818-.967,16.045,16.045,0,0,1-6.079-2.789c-.011-.009-.038,0-.079.005,0,.922.024,1.847-.008,2.769a2.571,2.571,0,0,0,.731,1.884,7.784,7.784,0,0,0,2.517,1.755,24.309,24.309,0,0,0,8.3,2.047,36.036,36.036,0,0,0,6.42.006,26.793,26.793,0,0,0,6.976-1.457A10.816,10.816,0,0,0,62.664,45a2.742,2.742,0,0,0,1.13-1.9c.046-1.057.011-2.118.011-3.239m0,6.931a12.434,12.434,0,0,1-3.159,1.86A28.433,28.433,0,0,1,51.1,50.6a35.555,35.555,0,0,1-10.722-.952,15.716,15.716,0,0,1-6.053-2.772c-.02-.016-.055-.011-.105-.019,0,.926.028,1.84-.008,2.752a2.657,2.657,0,0,0,.843,2.028,7.8,7.8,0,0,0,2.212,1.542A23.373,23.373,0,0,0,45.2,55.265a36.047,36.047,0,0,0,6.891.069,27.059,27.059,0,0,0,6.863-1.391,11,11,0,0,0,3.784-2.079,2.64,2.64,0,0,0,1.054-1.8c.047-1.067.012-2.138.012-3.268M34.216,32.985v.323c0,.851.014,1.7,0,2.554a2.347,2.347,0,0,0,.528,1.544A7.176,7.176,0,0,0,37.4,39.377a23.446,23.446,0,0,0,7.668,2.009,36.19,36.19,0,0,0,6.45.126,27.353,27.353,0,0,0,7.516-1.463,10.951,10.951,0,0,0,3.7-2.043,2.887,2.887,0,0,0,1.094-2.4c-.042-.786-.008-1.576-.009-2.364,0-.088-.011-.175-.02-.3a14.467,14.467,0,0,1-4.965,2.511A33.409,33.409,0,0,1,48.62,36.79a35.741,35.741,0,0,1-7-.7,19.564,19.564,0,0,1-5.886-2.1c-.513-.3-.994-.65-1.522-1M13.481,11.094c0,.959.028,1.85-.008,2.74a2.727,2.727,0,0,0,.873,2.113,8.4,8.4,0,0,0,2.5,1.669,24.624,24.624,0,0,0,8.285,2,35.4,35.4,0,0,0,8.392-.247A22.042,22.042,0,0,0,39.743,17.6a7.348,7.348,0,0,0,2.822-2.064,2.286,2.286,0,0,0,.509-1.488c-.019-.883,0-1.766-.006-2.649,0-.086-.014-.171-.023-.278a15.443,15.443,0,0,1-5.431,2.634A35.16,35.16,0,0,1,26.65,14.919a33.32,33.32,0,0,1-5.462-.62,17.785,17.785,0,0,1-7.708-3.2m29.582,6.962c-.478.322-.906.642-1.363.913a19.219,19.219,0,0,1-5.916,2.164,36.874,36.874,0,0,1-8.927.713,33.085,33.085,0,0,1-7.409-1.031,15.649,15.649,0,0,1-5.841-2.71.409.409,0,0,0-.126-.036c0,.939.021,1.853-.006,2.766a2.6,2.6,0,0,0,.724,1.887A8.166,8.166,0,0,0,16.967,24.6a24,24,0,0,0,7.543,1.886,35.2,35.2,0,0,0,8.893-.183.73.73,0,0,0,.377-.186A10.3,10.3,0,0,1,36.3,24.358,22.329,22.329,0,0,1,42.4,22.405c.1-.02.251-.066.287-.143a2.726,2.726,0,0,0,.363-.957c.045-1.07.017-2.143.017-3.25M13.481,24.939c0,.986.024,1.889-.007,2.789a2.7,2.7,0,0,0,.785,1.99.6.6,0,0,0,.463.194c.681.038,1.366.059,2.039.159a14.425,14.425,0,0,1,7.1,3.156.8.8,0,0,0,.394.155,34.2,34.2,0,0,0,6.131.172c.624-.037,1.247-.1,1.905-.16v-4.76c-1.119.057-2.239.141-3.36.166A36.56,36.56,0,0,1,23,28.456a24.809,24.809,0,0,1-6.752-1.83,12.449,12.449,0,0,1-2.767-1.688M26.262,35.721c.069.1.119.178.172.251a14.775,14.775,0,0,1,1.98,3.817c.083.236.1.572.261.683.181.122.5.053.762.041.941-.047,1.881-.105,2.827-.159V35.564c-1.012.053-2,.126-2.983.151s-1.985.006-3.019.006m2.917,6.95c0,.817.03,1.6-.008,2.388s-.146,1.578-.229,2.426l3.326-.2v-4.8l-3.088.186" transform="translate(0 0.001)" fill="#fff"/>
        <path id="Trazado_217759" data-name="Trazado 217759" d="M177.989,587.529h-1.2v-1.837c-.586-.114-1.147-.191-1.689-.339a6.234,6.234,0,0,1-1.064-.461.275.275,0,0,1-.124-.232c.121-.388.268-.767.413-1.166a4.8,4.8,0,0,0,2.581.806,3.5,3.5,0,0,0,1.373-.258,1.741,1.741,0,0,0,.408-2.98,8.67,8.67,0,0,0-1.459-.851c-.636-.341-1.316-.611-1.92-1a2.645,2.645,0,0,1-1.245-2.732,2.9,2.9,0,0,1,1.83-2.378,3.759,3.759,0,0,1,.776-.248c.2-.041.251-.121.247-.314-.012-.546,0-1.092,0-1.658H178.1V573.7a5.368,5.368,0,0,1,2.494.693l-.452,1.194a12.214,12.214,0,0,0-1.659-.5,4.686,4.686,0,0,0-1.527.029,1.554,1.554,0,0,0-.546,2.838c.485.307,1.017.539,1.528.806a17.966,17.966,0,0,1,1.691.9,3,3,0,0,1,1.356,3.053,3.121,3.121,0,0,1-2.1,2.61c-.281.113-.579.183-.9.281Z" transform="translate(-162.934 -535.799)" fill="#fff"/>
      </g>
    </g>
  </g>
</svg>
