<svg xmlns="http://www.w3.org/2000/svg" xmlns:xlink="http://www.w3.org/1999/xlink" width="112" height="112" viewBox="0 0 112 112">
  <defs>
    <clipPath id="clip-path">
      <rect id="Rectángulo_56207" data-name="Rectángulo 56207" width="65.511" height="73.839" fill="#fff"/>
    </clipPath>
  </defs>
  <g id="Grupo_179428" data-name="Grupo 179428" transform="translate(6433.95 8567.362)">
    <circle id="Elipse_6192" data-name="Elipse 6192" cx="56" cy="56" r="56" transform="translate(-6433.95 -8567.362)" fill="#12263f"/>
    <g id="Grupo_175588" data-name="Grupo 175588" transform="translate(-6409.729 -8550.839)">
      <g id="Grupo_175588-2" data-name="Grupo 175588" clip-path="url(#clip-path)">
        <path id="Trazado_217752" data-name="Trazado 217752" d="M35.35,0a3.479,3.479,0,0,1,2.463,3.351c.1,1.1.321,2.185.467,3.279a.674.674,0,0,0,.6.66,24.653,24.653,0,0,1,7.607,3.164.607.607,0,0,0,.817-.075q1.58-1.2,3.185-2.359a2.976,2.976,0,0,1,4.164.313q1.289,1.26,2.549,2.549a2.968,2.968,0,0,1,.305,4.111q-1.182,1.635-2.4,3.242a.612.612,0,0,0-.027.821,24.544,24.544,0,0,1,3.115,7.473.81.81,0,0,0,.8.723c1.309.169,2.614.375,3.918.579A2.937,2.937,0,0,1,65.5,30.815q.024,1.946,0,3.893a2.9,2.9,0,0,1-2.522,2.954c-1.347.238-2.7.434-4.057.624a.707.707,0,0,0-.706.632,24.816,24.816,0,0,1-3.134,7.543.612.612,0,0,0,.031.822c.8,1.049,1.582,2.116,2.361,3.183a3,3,0,0,1-.32,4.222q-1.215,1.232-2.447,2.447a3,3,0,0,1-4.278.309c-1.05-.762-2.079-1.552-3.139-2.3a.812.812,0,0,0-.679-.119c-1.022.524-2.016,1.1-3.1,1.7.152.232.294.468.455.691a5.714,5.714,0,0,1,.929,3.7.843.843,0,0,0,.252.646c2.2,1.393,2.662,2.445,2.055,4.876.161.071.33.143.5.219A3.505,3.505,0,0,1,49.942,70.1c.031.768.015,1.538.01,2.307-.007,1.078-.351,1.427-1.419,1.428q-4.614,0-9.228,0H17.173c-1.327,0-1.613-.283-1.617-1.591,0-.457.023-.915,0-1.37a3.762,3.762,0,0,1,2.694-4.2,10.472,10.472,0,0,1-.172-1.864,3.526,3.526,0,0,1,2.043-2.938c.21-.11.494-.378.485-.559a5.994,5.994,0,0,1,1.436-4.565c-1.113-.625-2.145-1.224-3.2-1.774-.142-.074-.451.049-.62.169-1.075.768-2.126,1.569-3.2,2.344a2.987,2.987,0,0,1-4.165-.313C10,56.338,9.144,55.492,8.3,54.633a2.971,2.971,0,0,1-.3-4.11c.775-1.07,1.551-2.14,2.362-3.183a.7.7,0,0,0,.031-.947,24.184,24.184,0,0,1-3.077-7.411.8.8,0,0,0-.8-.716C5.206,38.093,3.9,37.9,2.6,37.675A2.914,2.914,0,0,1,.008,34.561c-.008-1.25-.013-2.5,0-3.749a2.933,2.933,0,0,1,2.585-2.98q1.957-.305,3.918-.584c.408-.058.671-.158.784-.65a24.467,24.467,0,0,1,3.133-7.543.61.61,0,0,0-.029-.821c-.817-1.069-1.614-2.152-2.4-3.242a2.965,2.965,0,0,1,.308-4.109q1.285-1.315,2.6-2.6a2.956,2.956,0,0,1,4.053-.3c1.112.8,2.2,1.637,3.319,2.419a.82.82,0,0,0,.73.036,25.732,25.732,0,0,1,7.619-3.144.674.674,0,0,0,.6-.661c.146-1.095.373-2.181.467-3.279A3.475,3.475,0,0,1,30.159,0Zm-10.7,51.331c-.247-.129-.372-.2-.5-.259A20.061,20.061,0,0,1,12.875,29.1a19.684,19.684,0,0,1,9.387-13.642,1.091,1.091,0,1,1,1.18,1.815c-.117.083-.243.155-.365.232A18.076,18.076,0,0,0,23.059,48c.65.416,1.351.751,2.237,1.239l.377-5.763c-1.489-.127-1.942-.379-1.929-1.078.023-1.219,1.008-1.118,1.859-1.185a9.563,9.563,0,0,1,.007-1.065.938.938,0,0,0-.722-1.154A3.3,3.3,0,0,1,22.7,36.108a11.476,11.476,0,0,1,.192-2.153c.046.089.041.06.024.049-.08-.051-.161-.1-.244-.143a3.562,3.562,0,0,1-2.048-3.373c.011-1.971,0-3.941,0-5.912A2.2,2.2,0,0,1,23.02,22.21c.721-.006,1.442,0,2.163,0,1.757,0,2.58.833,2.59,2.613,0,.612,0,1.225,0,1.847H29.02c0-.75-.014-1.466,0-2.18a2.212,2.212,0,0,1,2.28-2.276c.913-.015,1.826-.008,2.74,0a2.25,2.25,0,0,1,2.447,2.476c0,.664,0,1.328,0,1.981h1.255c0-.8-.031-1.568.007-2.331a2.155,2.155,0,0,1,2.194-2.122c.889-.021,1.778-.016,2.667,0a2.176,2.176,0,0,1,2.266,2.272c.015,2.043.009,4.086,0,6.128a3.489,3.489,0,0,1-1.836,3.136l-.516.308c.753,2.556.093,3.99-2.288,5.115a.594.594,0,0,0-.315.388c-.036.543-.015,1.09-.015,1.62,1.443.2,1.845.451,1.865,1.136s-.345.925-1.948,1.215l.392,5.616c.357-.139.512-.187.656-.257A18.068,18.068,0,0,0,27.567,15.443c-.9.257-1.5.014-1.686-.684-.168-.638.215-1.127,1.107-1.395A20.236,20.236,0,0,1,41.446,51.037c-.167.081-.327.176-.585.315L42.35,54.9c1.333-.763,2.554-1.425,3.734-2.154a1.35,1.35,0,0,1,1.714.058c1.245.942,2.509,1.859,3.767,2.783.8.586,1.048.57,1.727-.1q1.1-1.093,2.192-2.192c.677-.682.69-.928.1-1.727-.94-1.277-1.876-2.557-2.826-3.826a1.2,1.2,0,0,1-.087-1.524,24.021,24.021,0,0,0,3.676-8.849,1.217,1.217,0,0,1,1.178-1.055c1.594-.216,3.182-.47,4.772-.711.828-.125,1.032-.353,1.037-1.173.006-1.105-.025-2.212.011-3.316a1.012,1.012,0,0,0-1.027-1.188c-1.5-.2-2.992-.446-4.489-.66-1.077-.154-1.339-.344-1.53-1.3a23.133,23.133,0,0,0-3.509-8.454,1.423,1.423,0,0,1,.077-1.891c.971-1.253,1.881-2.552,2.837-3.818a.965.965,0,0,0-.1-1.457c-.81-.786-1.6-1.6-2.4-2.392-.6-.587-.859-.6-1.557-.086-1.277.939-2.563,1.867-3.821,2.832a1.342,1.342,0,0,1-1.768.053A22.982,22.982,0,0,0,37.466,9.2,1.3,1.3,0,0,1,36.3,7.951c-.193-1.5-.448-2.991-.663-4.488-.163-1.138-.33-1.3-1.46-1.3h-2.74c-1.249,0-1.391.136-1.562,1.345-.209,1.474-.466,2.941-.653,4.417A1.346,1.346,0,0,1,28,9.211a23.086,23.086,0,0,0-8.584,3.563,1.306,1.306,0,0,1-1.707-.065c-1.3-.989-2.628-1.94-3.934-2.921a.933.933,0,0,0-1.4.09c-.805.826-1.616,1.647-2.449,2.445a.992.992,0,0,0-.094,1.514c.916,1.2,1.8,2.431,2.7,3.648.72.975.729,1.165.072,2.176A23.456,23.456,0,0,0,9.23,27.867c-.206,1.021-.425,1.224-1.456,1.381-1.566.239-3.132.482-4.7.7a.922.922,0,0,0-.905,1.063c.018,1.105,0,2.211.005,3.316,0,.951.19,1.146,1.154,1.286,1.52.222,3.034.491,4.559.675A1.373,1.373,0,0,1,9.215,37.55a22.991,22.991,0,0,0,3.536,8.519,1.35,1.35,0,0,1-.066,1.77c-.976,1.279-1.909,2.592-2.878,3.876a.97.97,0,0,0,.1,1.46c.792.771,1.564,1.562,2.35,2.34.626.62.919.647,1.617.134,1.259-.923,2.528-1.835,3.762-2.791a1.46,1.46,0,0,1,1.9-.054c1.152.723,2.357,1.362,3.638,2.092l1.486-3.567M42.669,61.562a4.274,4.274,0,0,0-.6-3.1,23.517,23.517,0,0,1-4.328-14.08c0-.3,0-.609,0-.919H27.872a.674.674,0,0,0-.074.169c-.013.215-.027.432-.024.647a23.616,23.616,0,0,1-4.353,14.218,4.187,4.187,0,0,0-.576,3.068h.817c1.009,0,2.019-.013,3.028.011a.985.985,0,0,1,1.043.976,1.05,1.05,0,0,1-.941,1.16,4.127,4.127,0,0,1-.647.022c-1.49,0-2.98-.01-4.47.007a1.4,1.4,0,0,0-1.459,1.3,1.449,1.449,0,0,0,1.309,1.538,2.94,2.94,0,0,0,.431.021q10.815,0,21.629,0a2.479,2.479,0,0,0,.709-.1,1.41,1.41,0,0,0-.28-2.754c-.238-.024-.48-.012-.72-.012q-5.984,0-11.968,0c-.884,0-1.4-.426-1.386-1.113.011-.67.489-1.05,1.351-1.053,1.61-.005,3.22,0,4.831,0h6.548M22.791,24.4c0,1.975,0,3.892,0,5.809,0,1.368.444,1.813,1.807,1.814,2.666,0,5.333-.006,8,.006a1.088,1.088,0,0,1,1.22,1.118c-.019.638-.457,1.02-1.213,1.044-.312.01-.625,0-.937,0-1.754,0-3.507,0-5.261,0a1.455,1.455,0,0,0-1.5,1.016,1.281,1.281,0,0,0,.5,1.591,2.378,2.378,0,0,0,1.216.323c2.065.031,4.132.015,6.2.015,1.994,0,3.988,0,5.982,0,1.207,0,1.9-.559,1.881-1.5-.017-.912-.7-1.445-1.858-1.449-.481,0-.961,0-1.441,0-.878-.01-1.337-.365-1.356-1.044-.02-.705.471-1.119,1.359-1.124,1.249-.007,2.5.005,3.747,0a1.4,1.4,0,0,0,1.582-1.6c.009-1.826,0-3.651,0-5.477a5.343,5.343,0,0,0-.062-.566H39.907v1.245c0,2.8-.533,3.319-3.342,3.255a2.072,2.072,0,0,1-2.24-2.248c-.01-.735,0-1.47,0-2.2H31.185c0,.7,0,1.344,0,1.989,0,1.691-.764,2.448-2.466,2.458q-.324,0-.649,0c-1.69-.012-2.451-.772-2.467-2.471-.006-.66,0-1.321,0-2Zm24.946,47.24c.183-2.154.034-2.92-2.511-2.9-8.455.061-16.911.023-25.366.024a8.077,8.077,0,0,0-.864.021,1.336,1.336,0,0,0-1.241,1.2c-.049.539-.01,1.087-.01,1.659ZM37.7,39.386h-9.88V41.2H37.7Z" transform="translate(0)" fill="#fff"/>
      </g>
    </g>
  </g>
</svg>
