<svg xmlns="http://www.w3.org/2000/svg" xmlns:xlink="http://www.w3.org/1999/xlink" width="797.768" height="384.986" viewBox="0 0 797.768 384.986">
  <defs>
    <linearGradient id="linear-gradient" x1="0.5" x2="0.5" y2="1" gradientUnits="objectBoundingBox">
      <stop offset="0" stop-color="#13c7e7"/>
      <stop offset="1" stop-color="#207be9"/>
    </linearGradient>
    <clipPath id="clip-path">
      <rect id="Rectángulo_56249" data-name="Rectángulo 56249" width="75.67" height="75.68" fill="#12263f"/>
    </clipPath>
    <clipPath id="clip-path-2">
      <rect id="Rectángulo_56252" data-name="Rectángulo 56252" width="67.63" height="79.714" fill="#12263f"/>
    </clipPath>
    <clipPath id="clip-path-3">
      <rect id="Rectángulo_56251" data-name="Rectángulo 56251" width="83.539" height="82.906" fill="#12263f"/>
    </clipPath>
    <clipPath id="clip-path-4">
      <rect id="Rectángulo_56253" data-name="Rectángulo 56253" width="70.844" height="84.171" fill="#12263f"/>
    </clipPath>
  </defs>
  <g id="Grupo_179426" data-name="Grupo 179426" transform="translate(-401.858 -4689.582)">
    <g id="Grupo_166701" data-name="Grupo 166701" transform="translate(401.858 4771.103)">
      <path id="Trazado_210979" data-name="Trazado 210979" d="M822.045,290.815a87.33,87.33,0,0,0-21.986-14.671l-.253-.12c-.9-.415-1.8-.809-2.715-1.194-.345-.146-.687-.3-1.034-.439-.713-.289-1.434-.561-2.154-.833-.561-.212-1.122-.424-1.687-.625s-1.124-.383-1.689-.569c-.741-.244-1.484-.484-2.233-.709-.435-.131-.874-.253-1.314-.377-.884-.251-1.77-.49-2.663-.711-.349-.088-.7-.169-1.051-.252q-1.464-.346-2.946-.64c-.312-.064-.627-.122-.94-.18q-1.514-.284-3.044-.512c-.332-.051-.668-.1-1-.145q-1.461-.2-2.933-.351-.636-.067-1.274-.124c-.4-.036-.8-.086-1.2-.116-.417-.03-.828-.034-1.24-.058-.734-.045-1.468-.081-2.205-.105-.689-.024-1.377-.043-2.062-.051-.349,0-.694-.024-1.043-.024-.467,0-.929.024-1.394.032-.6.009-1.2.021-1.8.041-.886.032-1.766.084-2.644.143-.522.036-1.045.066-1.563.111-.989.083-1.97.191-2.95.308-.4.049-.811.088-1.212.141-1.2.161-2.4.351-3.586.561-.173.03-.349.052-.52.084a86.3,86.3,0,0,0-12.384,3.23l-.045.015q-1.954.67-3.866,1.43l-.3.126q-1.785.712-3.53,1.505l-.392.182q-1.714.785-3.385,1.642l-.355.186q-1.7.884-3.361,1.837c-.083.049-.165.1-.248.143q-1.742,1.01-3.432,2.1l-.052.034a87.457,87.457,0,0,0-10.3,7.75c-.441.387-.9.743-1.359,1.105a38.481,38.481,0,0,1-39.246,4.517h0a39.165,39.165,0,0,1-22.917-35.151q-.054-2.421-.24-4.87a86.63,86.63,0,0,0-25.057-54.345l-.041-.041q-1.219-1.227-2.487-2.4c-.107-.1-.212-.2-.319-.3-.76-.7-1.535-1.383-2.32-2.057-.2-.173-.4-.351-.6-.522-.7-.593-1.422-1.171-2.143-1.742-.3-.236-.591-.475-.891-.706-.647-.5-1.306-.983-1.969-1.464-.387-.283-.773-.571-1.165-.846-.595-.418-1.2-.822-1.807-1.225-.473-.315-.944-.634-1.422-.94-.55-.351-1.111-.689-1.668-1.028s-1.094-.668-1.648-.989c-.516-.3-1.038-.582-1.559-.869-.61-.336-1.22-.674-1.837-.995-.492-.255-.989-.5-1.484-.745-.661-.328-1.321-.655-1.993-.966-.473-.221-.952-.43-1.43-.642-.7-.31-1.406-.619-2.117-.912-.469-.193-.944-.375-1.417-.561-.728-.283-1.454-.565-2.19-.829-.482-.175-.97-.336-1.456-.5-.735-.25-1.471-.5-2.214-.728-.5-.156-1.012-.3-1.518-.447-.734-.212-1.468-.422-2.209-.616-.539-.141-1.083-.268-1.623-.4-.717-.171-1.432-.342-2.153-.5-.584-.124-1.171-.235-1.758-.345-.689-.133-1.379-.263-2.074-.379-.634-.105-1.274-.2-1.912-.285s-1.306-.186-1.963-.265c-.692-.083-1.389-.148-2.085-.214-.413-.038-.82-.094-1.233-.126-.178-.015-.353-.015-.531-.028-.276-.019-.548-.054-.826-.071-.707-.045-1.408-.051-2.113-.079-.677-.028-1.359-.064-2.032-.075-.914-.017-1.818,0-2.725.011-.706.009-1.413.008-2.117.034-.841.032-1.674.1-2.509.152-.756.051-1.514.086-2.265.154-.719.068-1.426.167-2.139.25-.854.1-1.71.188-2.556.312-.345.051-.683.122-1.026.178a85.957,85.957,0,0,0-11.733,2.719c-.143.043-.289.079-.432.124-1.169.366-2.32.771-3.468,1.184-.265.1-.535.18-.8.278-1.105.411-2.192.856-3.275,1.31-.293.122-.591.236-.882.362-1.071.462-2.124.955-3.173,1.46-.287.137-.578.268-.863.409-1.043.516-2.07,1.058-3.089,1.614-.278.152-.557.3-.833.452-1.019.57-2.021,1.165-3.014,1.773-.259.16-.52.315-.775.475q-1.5.943-2.958,1.946c-.231.16-.464.317-.694.479q-1.478,1.033-2.9,2.126c-.2.154-.4.306-.6.462q-1.455,1.132-2.862,2.321l-.49.418q-1.441,1.239-2.828,2.535c-.12.113-.24.227-.358.342q-1.433,1.357-2.806,2.777c-.069.071-.137.144-.2.216q-1.433,1.495-2.8,3.055l-.026.03a86.653,86.653,0,0,0-21.363,57.329,34.977,34.977,0,0,1-20.693,31.932l-4.624,2.07c-12.311,5.506-26.912,3.6-36.866-5.5a86.869,86.869,0,0,0-115.993-1.209,37.331,37.331,0,0,1-39.869,5.966l-.644-.287a39.21,39.21,0,0,1-23.045-35.2q-.048-2.162-.2-4.346c-3.012-42.494-37.3-77.1-79.767-80.458a87.14,87.14,0,0,0-93.817,93.864c3.376,42.368,37.849,76.6,80.238,79.709a86.72,86.72,0,0,0,63.58-21.123,38.435,38.435,0,0,1,40.906-5.857A39.165,39.165,0,0,1,260.58,357.02a89.932,89.932,0,0,0,.67,9.147,87.055,87.055,0,0,0,173.4-11.113v-.223a34.976,34.976,0,0,1,20.7-31.974l4.624-2.07c12.311-5.506,26.913-3.6,36.866,5.5a87.318,87.318,0,0,0,21.973,14.664l.259.126c.9.417,1.813.811,2.729,1.2.338.145.674.291,1.015.43.717.293,1.445.569,2.173.843.555.21,1.113.42,1.674.619s1.132.385,1.7.572c.738.244,1.475.482,2.22.706.443.133.886.257,1.332.383q1.315.374,2.646.707c.355.088.709.171,1.066.255q1.458.343,2.931.638.476.093.951.18,1.512.284,3.04.512c.332.051.664.1,1,.145q1.458.2,2.933.351.639.068,1.28.124c.4.036.792.086,1.192.115.415.03.826.036,1.239.06.738.045,1.475.081,2.216.105.687.024,1.37.041,2.053.051.351,0,.7.024,1.051.024.477,0,.946-.024,1.419-.032.578-.009,1.156-.019,1.732-.039.9-.034,1.805-.086,2.7-.146.5-.032,1-.06,1.49-.1,1.032-.088,2.057-.2,3.08-.323.355-.043.711-.075,1.066-.122a86.538,86.538,0,0,0,12.453-2.6c.066-.019.131-.041.2-.06q1.909-.552,3.778-1.188c.161-.054.321-.114.482-.171q1.734-.6,3.432-1.269c.184-.071.362-.146.544-.22q1.68-.676,3.323-1.419c.163-.073.326-.148.49-.223q1.695-.777,3.35-1.627l.328-.167q1.793-.929,3.539-1.937l.022-.011a87.5,87.5,0,0,0,13.258-9.394,38.708,38.708,0,0,1,64.158,28.973,90.424,90.424,0,0,0,.672,9.147c.094.745.261,1.467.373,2.209.131.846.272,1.689.428,2.53q.56,3.063,1.338,6.047c.053.2.1.407.159.612a87.44,87.44,0,0,0,50.4,57.728c.118.049.235.1.353.154q1.97.819,3.984,1.543,1.706.616,3.44,1.165c.944.295,1.89.572,2.847.835q2.365.653,4.78,1.177c.685.146,1.373.278,2.064.405,1.892.36,3.8.666,5.735.9.15.017.295.053.447.069.447.051.888.069,1.334.114.546.053,1.086.124,1.634.167.293.023.584.024.877.045.9.062,1.8.1,2.7.139.76.03,1.518.058,2.274.069.846.011,1.687,0,2.53-.011.794-.013,1.588-.024,2.378-.058s1.565-.086,2.346-.141c.835-.058,1.668-.116,2.5-.2.713-.069,1.421-.159,2.13-.248.88-.107,1.762-.216,2.635-.351.638-.1,1.27-.216,1.9-.328.927-.165,1.852-.328,2.77-.522.556-.118,1.105-.255,1.657-.383.982-.227,1.959-.456,2.928-.715.462-.126.918-.266,1.377-.4,1.042-.3,2.081-.6,3.106-.938.355-.116.706-.248,1.06-.37,1.115-.381,2.224-.771,3.318-1.2.227-.088.448-.188.674-.278,1.208-.48,2.409-.978,3.59-1.511.066-.03.131-.064.2-.094a87.132,87.132,0,0,0,51.13-79.551C850.422,340.992,832,299.915,822.045,290.815Z" transform="translate(-52.654 -174.998)" fill="url(#linear-gradient)"/>
      <g id="Grupo_166691" data-name="Grupo 166691" transform="translate(17.717 17.717)">
        <ellipse id="Elipse_6036" data-name="Elipse 6036" cx="64.325" cy="64.325" rx="64.325" ry="64.325" transform="translate(0 128.227) rotate(-85.348)" fill="#fff"/>
        <g id="Grupo_175604" data-name="Grupo 175604" transform="translate(30.593 31.02)">
          <g id="Grupo_175604-2" data-name="Grupo 175604" clip-path="url(#clip-path)">
            <path id="Trazado_217804" data-name="Trazado 217804" d="M37.833,75.679q-13.175,0-26.349,0A11.28,11.28,0,0,1,.238,66.59a11.17,11.17,0,0,1-.229-2.278q-.017-17.836,0-35.672,0-8.58-.005-17.16A11.264,11.264,0,0,1,9.251.231,24.853,24.853,0,0,1,13.6.014C18.105-.011,22.609,0,27.114,0Q45.67,0,64.227,0A11.362,11.362,0,0,1,75.552,9.662a10.826,10.826,0,0,1,.113,1.659q.006,17.679,0,35.358,0,8.783.006,17.566a11.265,11.265,0,0,1-8.989,11.186,12.2,12.2,0,0,1-2.545.237q-13.152.025-26.3.01m.015-2.521v0h11.44c4.444,0,8.888.012,13.331,0a17.862,17.862,0,0,0,3.361-.167,8.735,8.735,0,0,0,7.177-8.812q0-7.791,0-15.583,0-18.512,0-37.023a8.775,8.775,0,0,0-3.335-7.109,7.884,7.884,0,0,0-4.855-1.916C60.65,2.453,56.325,2.529,52,2.528q-18.715,0-37.43-.005a35.076,35.076,0,0,0-4.131.089A8.565,8.565,0,0,0,2.954,8.666a12.414,12.414,0,0,0-.437,4.314c.009,4.339,0,8.678,0,13.016q0,19.12,0,38.239a9.223,9.223,0,0,0,.114,1.523A8.931,8.931,0,0,0,11.5,73.176c8.782-.059,17.564-.018,26.346-.018" transform="translate(0 0)" fill="#12263f"/>
            <path id="Trazado_217805" data-name="Trazado 217805" d="M82.635,129.423V118.83c-.7-.21-1.409-.388-2.093-.633a15.378,15.378,0,0,1-7.13-5.136,14.906,14.906,0,0,1-3.36-9.656,15.425,15.425,0,0,1,7.767-13.38A14.3,14.3,0,0,1,82.3,88.23c.325-.071.332-.242.34-.506a3.783,3.783,0,0,1,6.395-2.753A3.542,3.542,0,0,1,90.2,87.66c0,.149,0,.3,0,.413.932.3,1.857.527,2.716.9a15.5,15.5,0,0,1,9.7,12.352,10.614,10.614,0,0,1,.067,3.17,5.034,5.034,0,0,1-9.961-1.138A5.284,5.284,0,0,0,90.221,99v10.564a15.55,15.55,0,0,1,10.548,7.609,15.158,15.158,0,0,1,2.008,8.944A15.67,15.67,0,0,1,90.2,140.247a3.807,3.807,0,0,1-4.179,4.189c-1.971-.147-3.293-1.755-3.4-4.13-.995-.339-2-.62-2.962-1.021a15.468,15.468,0,0,1-6.3-4.868,15.832,15.832,0,0,1-3.324-8.911,5.052,5.052,0,1,1,10.068-.727,5.514,5.514,0,0,0,2.069,4.315c.124.1.261.188.459.328m2.514-4.82c0,2.207-.051,4.416.023,6.62a1.363,1.363,0,0,1-1.895,1.357,8.321,8.321,0,0,1-5.683-7.709,2.524,2.524,0,1,0-5.048.06,12.453,12.453,0,0,0,1.105,5.059,13.327,13.327,0,0,0,10.437,7.958,1.2,1.2,0,0,1,1.061,1.244c0,.51-.018,1.022.007,1.531a1.263,1.263,0,0,0,2.524-.05c.01-.5-.008-.991.007-1.486a1.243,1.243,0,0,1,1.1-1.227c.252-.038.506-.068.756-.113a13.146,13.146,0,0,0-.615-25.94,1.278,1.278,0,0,1-1.239-1.423q0-6.643,0-13.287c0-1.238.751-1.778,1.922-1.378a8.231,8.231,0,0,1,5.634,7.639,2.562,2.562,0,0,0,2.247,2.516,2.476,2.476,0,0,0,2.748-2.043,6.194,6.194,0,0,0-.032-1.7A13.117,13.117,0,0,0,94.7,92.82a12.731,12.731,0,0,0-5.814-2.36,1.28,1.28,0,0,1-1.2-1.418c0-.42,0-.841,0-1.261a1.267,1.267,0,1,0-2.53-.037c-.012.42,0,.841,0,1.261a1.257,1.257,0,0,1-1.209,1.448,12.981,12.981,0,0,0-8.355,4.766,12.46,12.46,0,0,0-2.838,10.332A13.385,13.385,0,0,0,84,116.5a1.216,1.216,0,0,1,1.154,1.342q0,3.378,0,6.756" transform="translate(-63.717 -76.336)" fill="#12263f"/>
            <path id="Trazado_217806" data-name="Trazado 217806" d="M478.454,265.914c1.629,0,3.188,0,4.747,0a1.914,1.914,0,0,1,1.453,3.324c-4.052,4.4-8.115,8.8-12.139,13.229a2.05,2.05,0,0,1-3.193.005c-2.862-3.176-5.772-6.308-8.664-9.456-1.167-1.27-2.331-2.544-3.507-3.806a1.89,1.89,0,0,1-.433-2.153,1.825,1.825,0,0,1,1.826-1.142q2.139,0,4.278,0h.527v-.575q0-5.606,0-11.212a1.916,1.916,0,0,1,2.1-2.089q5.448,0,10.9,0a1.92,1.92,0,0,1,2.128,2.108q-.008,5.651-.026,11.3c0,.147,0,.294,0,.468M459.9,268.427l11.022,12.019,10.946-11.938c-.047-.051-.056-.069-.066-.069-1.246,0-2.492-.038-3.737,0a1.927,1.927,0,0,1-2.1-2.135c-.021-1.2,0-2.4,0-3.6q0-3.8,0-7.609c0-.172,0-.344,0-.512H465.867c0,.222,0,.414,0,.607,0,3.678-.032,7.357.017,11.034a2,2,0,0,1-2.2,2.215c-.792-.057-1.591-.01-2.386-.01h-1.4" transform="translate(-415.419 -229.329)" fill="#12263f"/>
            <path id="Trazado_217807" data-name="Trazado 217807" d="M539.548,122.155H534.1a1.9,1.9,0,0,1-2.107-2.115q0-2.926,0-5.852a1.919,1.919,0,0,1,2.113-2.121h10.846a1.926,1.926,0,0,1,2.173,2.147q0,2.949,0,5.9a1.88,1.88,0,0,1-2.041,2.044c-1.846,0-3.691,0-5.537,0m-5.009-2.547h10.036v-5.029H534.539Z" transform="translate(-484.065 -101.97)" fill="#12263f"/>
            <path id="Trazado_217808" data-name="Trazado 217808" d="M266.016,460.523q0-3.2,0-6.391a1.272,1.272,0,0,1,1.719-1.3,7.995,7.995,0,0,1-.093,15.438A1.235,1.235,0,0,1,266.02,467q0-3.241,0-6.481Zm2.54-4.5v9.053a5.356,5.356,0,0,0,0-9.053" transform="translate(-242.05 -411.973)" fill="#12263f"/>
            <path id="Trazado_217809" data-name="Trazado 217809" d="M161.732,221.953c0,2.146,0,4.292,0,6.438a1.238,1.238,0,0,1-1.71,1.278,8.067,8.067,0,0,1,.05-15.481,1.231,1.231,0,0,1,1.67,1.236q0,3.264,0,6.528Zm-2.513-4.453a5.172,5.172,0,0,0-2.509,4.563,5.338,5.338,0,0,0,2.509,4.421Z" transform="translate(-140.307 -194.832)" fill="#12263f"/>
          </g>
        </g>
      </g>
      <line id="Línea_1700" data-name="Línea 1700" y1="42.007" transform="translate(294.95 30.933)" fill="none" stroke="#303030" stroke-linecap="round" stroke-miterlimit="10" stroke-width="3" stroke-dasharray="3 8"/>
      <line id="Línea_1701" data-name="Línea 1701" y1="42.007" transform="translate(710.755 30.933)" fill="none" stroke="#303030" stroke-linecap="round" stroke-miterlimit="10" stroke-width="3" stroke-dasharray="3 8"/>
      <line id="Línea_1703" data-name="Línea 1703" y2="39.448" transform="translate(87.048 194.16)" fill="none" stroke="#303030" stroke-linecap="round" stroke-miterlimit="10" stroke-width="3" stroke-dasharray="3 8"/>
      <line id="Línea_1704" data-name="Línea 1704" y2="39.448" transform="translate(502.852 194.16)" fill="none" stroke="#303030" stroke-linecap="round" stroke-miterlimit="10" stroke-width="3" stroke-dasharray="3 8"/>
      <g id="Grupo_166693" data-name="Grupo 166693" transform="translate(230.624 115.73)">
        <ellipse id="Elipse_6037" data-name="Elipse 6037" cx="64.326" cy="64.326" rx="64.326" ry="64.326" fill="#fff"/>
        <g id="Grupo_175610" data-name="Grupo 175610" transform="translate(32.392 25.835)">
          <g id="Grupo_175609" data-name="Grupo 175609" clip-path="url(#clip-path-2)">
            <path id="Trazado_217818" data-name="Trazado 217818" d="M33.742,59.506c-.707,1.2-1.37,2.326-2.03,3.452-3.006,5.125-6.051,10.228-8.99,15.392-.811,1.424-2.31,1.481-3.123,0-1.682-3.063-3.476-6.064-5.2-9.105a.961.961,0,0,0-.978-.555c-3.825.019-7.651-.06-11.473.041A1.736,1.736,0,0,1,.311,65.977C4.08,59.451,7.75,52.868,11.454,46.3c.126-.224.248-.451.384-.7-.167-.112-.289-.2-.414-.277a3.227,3.227,0,0,1-1.562-3.412c.309-2.162.62-4.325.892-6.492a1.208,1.208,0,0,0-.26-.856C9.049,32.958,7.556,31.391,6.1,29.789a3.211,3.211,0,0,1,.088-4.783c1.418-1.486,2.828-2.98,4.262-4.45a1.273,1.273,0,0,0,.412-1.159c-.265-2.014-.481-4.035-.745-6.049-.311-2.37.706-3.773,3.056-4.177,2.023-.348,4.043-.719,6.068-1.055a1.136,1.136,0,0,0,.89-.651c1.036-1.9,2.1-3.781,3.147-5.672A3.064,3.064,0,0,1,27.61.4c1.963.957,3.919,1.929,5.9,2.856a1.3,1.3,0,0,0,.959.014c1.9-.841,3.774-1.728,5.656-2.6C42.195-.294,43.755.211,44.844,2.2c1.037,1.9,2.059,3.8,3.118,5.689a1.138,1.138,0,0,0,.674.5c2.158.457,4.324.872,6.488,1.3a3.166,3.166,0,0,1,2.685,3.66c-.256,2.1-.556,4.2-.879,6.3a1.589,1.589,0,0,0,.47,1.513c1.43,1.473,2.807,3,4.2,4.511a3.238,3.238,0,0,1-.05,4.695c-1.462,1.534-2.92,3.073-4.4,4.59a1.128,1.128,0,0,0-.338,1.048c.26,1.97.46,3.949.731,5.918a3.59,3.59,0,0,1-1.717,3.97c.472.834.928,1.647,1.389,2.457q5.023,8.829,10.049,17.656c.862,1.514.179,2.687-1.588,2.689-3.781,0-7.562.022-11.343-.017a1.322,1.322,0,0,0-1.357.813c-1.69,3.084-3.432,6.14-5.143,9.213a1.615,1.615,0,0,1-1.547,1.005,1.769,1.769,0,0,1-1.443-1.093q-2.147-3.717-4.3-7.431-3.2-5.53-6.4-11.059c-.107-.184-.228-.36-.4-.622M59.524,28.074c-1.681-1.82-3.286-3.577-4.913-5.314a3.1,3.1,0,0,1-.833-2.651c.134-1.04.3-2.076.443-3.114.191-1.356.38-2.713.577-4.125-1.786-.359-3.512-.719-5.244-1.052-3.4-.654-3.285-.335-5.068-3.779-.8-1.548-1.631-3.081-2.47-4.662-2.1.96-4.161,1.849-6.171,2.847a3.8,3.8,0,0,1-3.736-.034c-1.95-1.024-3.953-1.944-5.973-2.927-.13.216-.245.4-.349.584-1.041,1.87-2.088,3.737-3.117,5.614a3.4,3.4,0,0,1-2.579,1.8c-2.154.36-4.3.761-6.454,1.125-.4.068-.55.2-.492.638.288,2.187.526,4.38.817,6.567a3.243,3.243,0,0,1-.916,2.875c-1.328,1.359-2.632,2.743-3.943,4.118-.311.327-.612.664-.931,1.011.184.212.322.379.468.539,1.441,1.584,2.876,3.173,4.327,4.747a3.18,3.18,0,0,1,.842,2.776c-.2,1.339-.391,2.68-.579,4.02-.145,1.029-.279,2.06-.425,3.133,2.4.442,4.707.906,7.032,1.28a3.428,3.428,0,0,1,2.657,1.981c.951,1.844,1.931,3.673,2.9,5.507.108.2.235.4.368.622,2.216-1.042,4.372-2.046,6.519-3.07a3.147,3.147,0,0,1,2.956.009c.582.3,1.177.575,1.766.862l4.606,2.243c.122-.192.222-.332.3-.481q1.61-2.891,3.215-5.784A3.166,3.166,0,0,1,47.491,44.3c1.249-.207,2.5-.421,3.746-.632l3.239-.547c-.049-.441-.085-.787-.126-1.131q-.367-3.091-.736-6.181a2.962,2.962,0,0,1,.858-2.513c.317-.332.64-.657.959-.987l4.093-4.233m3.874,37.5a2.7,2.7,0,0,0-.122-.35q-5.2-9.14-10.39-18.283a.54.54,0,0,0-.689-.289c-1.287.244-2.581.451-3.863.718a1.07,1.07,0,0,0-.619.482c-1.07,1.878-2.114,3.772-3.159,5.664A3.229,3.229,0,0,1,40,54.964c-1.922-.94-3.849-1.871-5.77-2.815-.352-.173-.678-.317-.993.155L46.341,75.013c.169-.279.283-.457.386-.641,1.472-2.6,2.952-5.2,4.408-7.818a1.752,1.752,0,0,1,1.7-.986c2.141.021,4.282.007,6.423.007H63.4M30.3,53.508c-1.115.5-2.15,1.02-3.221,1.445a3.067,3.067,0,0,1-4.114-1.478c-1.072-1.952-2.115-3.921-3.208-5.862a1.311,1.311,0,0,0-.773-.563c-1.107-.247-2.233-.409-3.347-.626a.753.753,0,0,0-.944.429Q9.59,55.935,4.449,65c-.09.16-.155.334-.267.58H5c3.212,0,6.424.017,9.636-.011A1.924,1.924,0,0,1,16.5,66.626c1.429,2.5,2.886,4.991,4.334,7.484.115.2.242.387.412.658.634-1.1,1.212-2.1,1.787-3.1q4.276-7.442,8.54-14.89a1.032,1.032,0,0,0,.113-.812c-.4-.819-.891-1.6-1.385-2.458" transform="translate(0 0)" fill="#12263f"/>
            <path id="Trazado_217819" data-name="Trazado 217819" d="M137.452,107.405a15.737,15.737,0,1,1,15.6,15.786,15.742,15.742,0,0,1-15.6-15.786m3.113.03A12.619,12.619,0,1,0,153.3,94.848a12.7,12.7,0,0,0-12.739,12.587" transform="translate(-119.424 -79.691)" fill="#12263f"/>
            <path id="Trazado_217820" data-name="Trazado 217820" d="M204.027,174.391l6.655-6.676c.2-.2.4-.408.6-.6a1.714,1.714,0,0,1,2.419-.017,1.684,1.684,0,0,1-.015,2.413c-1.824,1.853-3.671,3.683-5.509,5.522-.9.9-1.785,1.8-2.687,2.689a1.763,1.763,0,0,1-2.839-.011q-1.561-1.543-3.1-3.105a1.717,1.717,0,1,1,2.39-2.408c.688.7,1.351,1.418,2.088,2.2" transform="translate(-172.768 -144.754)" fill="#12263f"/>
          </g>
        </g>
      </g>
      <g id="Grupo_166694" data-name="Grupo 166694" transform="translate(428.96 13.155)">
        <ellipse id="Elipse_6038" data-name="Elipse 6038" cx="64.325" cy="64.325" rx="64.325" ry="64.325" transform="translate(0 126.953) rotate(-80.682)" fill="#fff"/>
        <g id="Grupo_175608" data-name="Grupo 175608" transform="translate(29.94 26.594)">
          <g id="Grupo_175607" data-name="Grupo 175607" clip-path="url(#clip-path-3)">
            <path id="Trazado_217813" data-name="Trazado 217813" d="M388.97,377.043a16.349,16.349,0,0,1-1.249,1.137c-1.5,1.119-3.014,2.23-4.556,3.294a.872.872,0,0,0-.372,1.2c.666,1.922,1.272,3.865,1.915,5.795.223.669.286,1.3-.369,1.751a1.36,1.36,0,0,1-1.717-.217c-1.621-1.188-3.273-2.337-4.864-3.564a1,1,0,0,0-1.457.027c-1.578,1.2-3.2,2.336-4.8,3.511-.563.414-1.142.693-1.783.224s-.544-1.108-.324-1.769c.632-1.905,1.22-3.826,1.883-5.72a.907.907,0,0,0-.385-1.262c-1.653-1.143-3.259-2.353-4.893-3.524-.563-.4-1.041-.852-.81-1.612.243-.8.908-.9,1.636-.9,2.253.013,4.507,0,6.8,0,.716-2.2,1.408-4.369,2.137-6.525a2.2,2.2,0,0,1,.63-1c.683-.538,1.558-.15,1.882.82.654,1.955,1.3,3.914,1.9,5.886.185.61.432.861,1.12.841,1.982-.058,3.968,0,5.951-.032a1.852,1.852,0,0,1,1.73.817Zm-16.192,8.964c.837-.605,1.488-1.071,2.134-1.544,2.276-1.668,1.992-1.66,4.232-.023.66.482,1.323.961,2.178,1.581-.436-1.336-.789-2.414-1.139-3.494-.452-1.394-.379-1.617.788-2.467l2.788-2.03a27.306,27.306,0,0,0-3.876-.15,1.4,1.4,0,0,1-1.566-1.116c-.18-.625-.4-1.239-.606-1.856-.2-.6-.407-1.192-.681-1.992-.467,1.42-.881,2.595-1.237,3.787a1.453,1.453,0,0,1-1.6,1.178c-1.264-.033-2.529-.008-3.793-.008a29.248,29.248,0,0,0,2.933,2.344,1.426,1.426,0,0,1,.657,2.015c-.374,1.182-.756,2.362-1.208,3.774" transform="translate(-305.431 -307.543)" fill="#12263f"/>
            <path id="Trazado_217814" data-name="Trazado 217814" d="M103.857,20.627h1.107c6.008,0,12.017.01,18.025-.005a5.838,5.838,0,0,1,4.842,2.048,5.493,5.493,0,0,1-.289,7.35c-.146.153-.282.316-.416.466,2.967,3.909,2.654,6.677-1.075,9.392a5.62,5.62,0,0,1,1.22,4.7,5.691,5.691,0,0,1-2.966,3.932,5.614,5.614,0,0,1-4.6,9.221c-5.329.012-10.657,0-15.986,0q-7.667,0-15.333,0a12.776,12.776,0,0,1-6.118-1.45.921.921,0,0,0-.829.059,4.563,4.563,0,0,1-2.98,1.144c-3.371.019-6.744.1-10.111-.023a4.453,4.453,0,0,1-4.465-4.807c-.017-4.105,0-8.21,0-12.315q0-5.872,0-11.745c0-3.251,1.86-5.11,5.1-5.113,2.963,0,5.927.01,8.89-.006a5.351,5.351,0,0,1,3.17.857.775.775,0,0,0,.648.077C86.2,22.24,90.258,19.5,93.173,15.3A16.628,16.628,0,0,0,95.5,8.5c.348-1.923.606-3.864.834-5.8C96.577.622,97.861-.357,99.878.117c2.909.684,4.448,2.733,5.308,5.423a18.634,18.634,0,0,1,.545,7.348,25.018,25.018,0,0,1-1.874,7.74M98.9,2.414c-.32,2.158-.623,4.249-.941,6.338a18.581,18.581,0,0,1-4.445,10.138,31.661,31.661,0,0,1-9.4,7.059A1.849,1.849,0,0,0,82.9,28.021c.093,8.4.049,16.8.023,25.205a.872.872,0,0,0,.5.9,9.485,9.485,0,0,0,4.7,1.148q15.907.034,31.814,0a3.1,3.1,0,1,0,.008-6.2c-.842-.017-1.688.027-2.527-.035A1.215,1.215,0,0,1,116.26,47.8a1.229,1.229,0,0,1,1.228-1.169c.3-.022.6-.009.9-.013,1.25-.013,2.508.055,3.748-.06a3,3,0,0,0,2.774-3.231,3.028,3.028,0,0,0-3.04-2.9c-1.032-.033-2.066,0-3.1-.017s-1.573-.475-1.553-1.27c.019-.762.536-1.169,1.54-1.177,1.523-.011,3.046.018,4.568-.01a3.147,3.147,0,0,0,3.347-3.146,3.115,3.115,0,0,0-3.339-3.049c-1.414-.019-2.828,0-4.242,0-1.3,0-1.9-.412-1.874-1.279.025-.831.569-1.164,1.874-1.178,1.657-.017,3.32.025,4.969-.1a2.755,2.755,0,0,0,2.451-2.1,2.945,2.945,0,0,0-.8-3.142,3.514,3.514,0,0,0-2.708-.88q-10.2.012-20.394,0a6.649,6.649,0,0,1-.976-.036,1.2,1.2,0,0,1-.918-1.829c.161-.313.368-.6.529-.916A22.012,22.012,0,0,0,103.383,9.8a10.228,10.228,0,0,0-1.166-5.026A4.246,4.246,0,0,0,98.9,2.414m-19,38.114h-.018c0-4.4-.021-8.806.019-13.208a1.169,1.169,0,0,0-1.025-1.305,3.7,3.7,0,0,0-.888-.076q-4.566-.008-9.131,0A2.247,2.247,0,0,0,66.33,28.5q0,11.985,0,23.97c0,1.761.816,2.578,2.591,2.583,3.017.008,6.033.018,9.05-.014a4.4,4.4,0,0,0,1.555-.359.9.9,0,0,0,.362-.7c.021-4.484.016-8.968.016-13.452" transform="translate(-53.431 0.001)" fill="#12263f"/>
            <path id="Trazado_217815" data-name="Trazado 217815" d="M17.448,382.111c.7,2.15,1.4,4.258,2.072,6.372a2.9,2.9,0,0,1,.194,1.107,1.193,1.193,0,0,1-1.993.733c-1.579-1.106-3.128-2.255-4.689-3.388-1.112-.807-1.112-.809-2.228,0-1.494,1.086-2.991,2.168-4.479,3.261a1.346,1.346,0,0,1-1.717.2,1.319,1.319,0,0,1-.37-1.681c.666-2.008,1.3-4.027,1.978-6.03a.687.687,0,0,0-.3-.937c-1.642-1.159-3.257-2.356-4.887-3.532-.61-.439-1.258-.87-.945-1.768s1.083-.85,1.834-.847c1.956.008,3.913-.023,5.869.019a.829.829,0,0,0,.962-.711c.6-1.944,1.245-3.873,1.864-5.81.211-.66.5-1.232,1.308-1.23s1.093.565,1.305,1.23c.618,1.938,1.278,3.863,1.873,5.807a.822.822,0,0,0,.954.712c2.01-.04,4.021-.007,6.032-.02.718,0,1.407.058,1.677.844.288.838-.277,1.3-.878,1.73-1.806,1.3-3.6,2.609-5.433,3.938M5.284,378.055l-.066.167q1.474,1.073,2.947,2.146c.921.674,1.03,1,.687,2.078-.374,1.178-.754,2.353-1.2,3.739,1.186-.857,2.191-1.586,3.2-2.31.9-.644,1.226-.646,2.117-.01,1.012.724,2.019,1.455,3.209,2.314-.327-1.022-.576-1.842-.851-2.652-.9-2.638-.718-2.365,1.27-3.832.678-.5,1.362-.991,2.043-1.486a30.469,30.469,0,0,0-3.676-.155c-1.237,0-1.47-.174-1.864-1.374q-.55-1.675-1.093-3.353a24.071,24.071,0,0,0-1.321,3.516,1.5,1.5,0,0,1-1.661,1.221c-1.246-.042-2.495-.01-3.743-.01" transform="translate(0 -307.724)" fill="#12263f"/>
            <path id="Trazado_217816" data-name="Trazado 217816" d="M187.232,375.608c1.06,0,2.12-.024,3.179.011a.73.73,0,0,0,.856-.618c.607-1.969,1.27-3.922,1.9-5.885.211-.661.5-1.234,1.3-1.241s1.1.555,1.315,1.219c.6,1.887,1.242,3.761,1.809,5.657a1.008,1.008,0,0,0,1.174.877c2.009-.056,4.021-.013,6.032-.023.674,0,1.27.134,1.519.835.268.753-.167,1.224-.737,1.633-1.655,1.188-3.289,2.4-4.956,3.575a.873.873,0,0,0-.408,1.19c.682,1.945,1.286,3.916,1.94,5.871a1.286,1.286,0,0,1-2.074,1.5c-1.665-1.22-3.35-2.414-5-3.655a.825.825,0,0,0-1.192-.015c-1.623,1.23-3.289,2.4-4.931,3.609-.557.409-1.128.716-1.782.258-.694-.486-.565-1.149-.337-1.832.634-1.9,1.232-3.821,1.889-5.716a.872.872,0,0,0-.375-1.2c-1.672-1.163-3.3-2.385-4.958-3.572-.567-.407-1.02-.868-.763-1.625s.886-.868,1.585-.857c1.005.016,2.011,0,3.016,0m11.355,10.474a1.076,1.076,0,0,0,.026-.268q-.5-1.55-1-3.1c-.448-1.38-.37-1.625.787-2.468l2.787-2.031a13.563,13.563,0,0,0-2.488-.158c-2.757,0-2.518.253-3.407-2.5-.242-.749-.493-1.494-.74-2.241a26.762,26.762,0,0,0-1.335,3.59,1.453,1.453,0,0,1-1.617,1.161c-1.26-.034-2.521-.009-3.782-.009a29.142,29.142,0,0,0,2.889,2.306c.944.691,1.044,1.008.681,2.15s-.736,2.3-1.175,3.674c1.048-.758,1.9-1.374,2.754-1.993,1.5-1.087,1.517-1.087,3.044.022.832.6,1.666,1.206,2.575,1.864" transform="translate(-152.71 -307.729)" fill="#12263f"/>
            <path id="Trazado_217817" data-name="Trazado 217817" d="M107.037,279.5a3.7,3.7,0,1,1-3.687-3.678,3.715,3.715,0,0,1,3.687,3.678m-2.46.031a1.237,1.237,0,1,0-2.474.01,1.237,1.237,0,1,0,2.474-.01" transform="translate(-83.354 -230.73)" fill="#12263f"/>
          </g>
        </g>
      </g>
      <g id="Grupo_166698" data-name="Grupo 166698" transform="translate(646.429 115.73)">
        <ellipse id="Elipse_6040" data-name="Elipse 6040" cx="64.325" cy="64.326" rx="64.325" ry="64.326" fill="#fff"/>
        <g id="Grupo_175612" data-name="Grupo 175612" transform="translate(26.477 22.554)">
          <g id="Grupo_175611" data-name="Grupo 175611" clip-path="url(#clip-path-4)">
            <path id="Trazado_217821" data-name="Trazado 217821" d="M69.782,82.241c-1.382.015-1.449.87-1.549,1.548a71.643,71.643,0,0,0-.909,7.384c-.15,3.561-.035,7.133-.026,10.7,0,1.6-.419,2.044-1.988,2.045H47.959c-1.519,0-1.92-.395-1.92-1.891,0-3.544.033-7.089-.011-10.632a28.234,28.234,0,0,0-1.162-8.2,1.773,1.773,0,0,0-.75-.863c-.623-.379-1.307-.658-2.071-1.029a13.506,13.506,0,0,1,.907-1.535A1.123,1.123,0,0,0,43,78.323c-1.868-3-3.692-6.021-5.6-8.99s-3.757-5.936-4.6-9.39a22.874,22.874,0,0,1,4.052-19.594A23.136,23.136,0,0,1,52.8,30.658c9.353-1.313,17.171,1.729,23.173,9.1A23.306,23.306,0,0,1,81.1,52.816a22.063,22.063,0,0,1-3.542,13.8c-1.708,2.733-3.574,5.368-5.253,8.118-1.056,1.73-1.909,3.586-2.83,5.4a1.427,1.427,0,0,0,.306,2.108M55.252,90.075V89.067q0-6.636,0-13.271a4.682,4.682,0,0,1,.02-.764,1.47,1.47,0,0,1,1.432-1.21,1.335,1.335,0,0,1,1.275,1.341c.011.169,0,.34,0,.51q0,6.3-.009,12.59c0,.588,0,1.175,0,1.8H64.75c.019-.2.036-.344.046-.484a33.67,33.67,0,0,1,4.672-15.34c1.815-3.031,3.815-5.951,5.7-8.939a19.55,19.55,0,0,0,3.01-13.938A21.6,21.6,0,0,0,57.628,33.126c-8.482-.249-15.144,3.2-19.613,10.405a19.394,19.394,0,0,0-1.892,17.8,41.237,41.237,0,0,0,5.015,8.635,39.3,39.3,0,0,1,6.178,12.652c.606,2.423.916,4.921,1.373,7.46Zm9.3,2.826H48.829v2.877H62v2.74H48.817v2.631H64.5a4.008,4.008,0,0,0,.054-.449c0-2.575,0-5.15,0-7.8" transform="translate(-26.635 -25.194)" fill="#12263f"/>
            <path id="Trazado_217822" data-name="Trazado 217822" d="M293.385,327.131c0,.511,0,1.021,0,1.531.008,1.419-.421,1.84-1.876,1.86-.395.005-.822-.146-1.05.432a.975.975,0,0,0,.257,1.253c1.145,1.1,1.13,1.63.031,2.748-.636.647-1.286,1.279-1.927,1.922-1.314,1.318-1.681,1.334-2.981.038a.838.838,0,0,0-1.012-.245c-.669.212-.648.627-.639,1.158.025,1.456-.4,1.876-1.845,1.88-.964,0-1.928,0-2.893,0-1.664,0-2.077-.387-2.06-2.035a.914.914,0,0,0-.617-1.031c-.537-.227-.763.063-1.063.362-1.166,1.164-1.656,1.16-2.822-.005q-1.053-1.053-2.105-2.106c-1.008-1.016-1-1.616.027-2.653.3-.3.717-.518.422-1.116a.879.879,0,0,0-.929-.621c-1.76.018-2.127-.381-2.128-2.157q0-1.361,0-2.723c0-1.5.418-1.9,1.9-1.931.374-.007.8.2,1.059-.406a1.018,1.018,0,0,0-.278-1.369c-1.134-1.069-1.107-1.584-.017-2.668.764-.76,1.509-1.539,2.282-2.289.878-.853,1.512-.821,2.406.011a1.733,1.733,0,0,0,1,.573c.547-.023.906-.34.878-1.06-.062-1.582.34-1.955,1.9-1.979.964-.014,1.928,0,2.892.009,1.7.012,1.958.268,1.981,1.955.005.391-.037.736.467.958a.979.979,0,0,0,1.3-.281c1.046-1.114,1.658-1.094,2.761,0,.743.741,1.488,1.48,2.225,2.227a1.488,1.488,0,0,1,0,2.418c-.307.329-.892.508-.571,1.231a.952.952,0,0,0,1.055.69c1.668-.035,1.96.285,1.962,1.967q0,.723,0,1.446M281.36,317.3h-1.271c.037.9.107,1.742-.9,2.128q-1.337.513-2.652,1.084a1.343,1.343,0,0,1-1.564-.235c-.223-.2-.442-.411-.584-.544l-1.079.889c1.351.888,1.234,1.9.49,3.039a5.07,5.07,0,0,0-.516,1.337c-.326,1.091-.681,1.388-1.785,1.438-.185.009-.369.044-.54.065v1.237c.156.02.264.044.373.046,1.409.026,1.555.161,1.976,1.464a10.779,10.779,0,0,0,.8,1.856,1.529,1.529,0,0,1-.258,2c-.151.156-.291.323-.317.351l.745,1.068c1.332-1.238,1.422-1.236,2.985-.482a10.911,10.911,0,0,0,1.667.61,1.426,1.426,0,0,1,1.183,1.529c-.007.245.029.492.045.73h1.2a8.591,8.591,0,0,1,.323-1.55c.217-.53,3.889-1.991,4.417-1.757a7.31,7.31,0,0,1,1.2.824l.93-.862c-.209-.222-.377-.411-.556-.588a1.366,1.366,0,0,1-.258-1.7c.361-.792.7-1.6,1-2.414a1.373,1.373,0,0,1,1.429-1.074c.246.008.493,0,.758,0v-1.305c-1.763-.14-1.8-.171-2.347-1.795a9.961,9.961,0,0,0-.458-1.092c-.794-1.656-.8-1.655.376-2.966l-.879-.883a7.7,7.7,0,0,1-1.222.861c-.495.226-4.169-1.31-4.373-1.818a9.3,9.3,0,0,1-.336-1.487" transform="translate(-222.542 -260.984)" fill="#12263f"/>
            <path id="Trazado_217823" data-name="Trazado 217823" d="M136.289,478.542q3.273,0,6.546,0c1.025,0,1.6.472,1.619,1.321.019.885-.568,1.412-1.63,1.414q-6.591.01-13.182,0c-1,0-1.563-.523-1.563-1.385s.557-1.345,1.579-1.344q3.315,0,6.631,0v-.007" transform="translate(-106.285 -397.112)" fill="#12263f"/>
            <path id="Trazado_217824" data-name="Trazado 217824" d="M0,164.563c.048-.95.094-1.861.143-2.824l2.632.2v2.621Z" transform="translate(0 -134.217)" fill="#12263f"/>
            <path id="Trazado_217825" data-name="Trazado 217825" d="M29.2,72.672l-2.254-1.533,1.6-2.344,2.12,1.716L29.2,72.672" transform="translate(-22.359 -57.089)" fill="#12263f"/>
            <path id="Trazado_217826" data-name="Trazado 217826" d="M149.253,3.032,148.88.307l2.8-.307.187,2.672-2.612.36" transform="translate(-123.546)" fill="#12263f"/>
            <path id="Trazado_217827" data-name="Trazado 217827" d="M22.686,255.005l-1.422-2.443,2.354-1.359,1.345,2.254-2.276,1.547" transform="translate(-17.646 -208.459)" fill="#12263f"/>
            <path id="Trazado_217828" data-name="Trazado 217828" d="M329.594,124.248l2.563-.912.735,2.842c-.762.148-1.466.325-2.181.4a.8.8,0,0,1-.624-.432,18.287,18.287,0,0,1-.493-1.895" transform="translate(-273.509 -102.349)" fill="#12263f"/>
            <path id="Trazado_217829" data-name="Trazado 217829" d="M326.826,218.678l2.642.745-.921,2.665L326,221.155l.826-2.477" transform="translate(-270.526 -181.467)" fill="#12263f"/>
            <path id="Trazado_217830" data-name="Trazado 217830" d="M306.17,264.026l-2.123-1.724,1.464-2.155,2.247,1.537-1.588,2.343" transform="translate(-252.31 -215.879)" fill="#12263f"/>
            <path id="Trazado_217831" data-name="Trazado 217831" d="M283.125,42.952l-1.876,1.981-1.956-1.768,1.8-2.041,2.034,1.828" transform="translate(-231.768 -34.126)" fill="#12263f"/>
            <path id="Trazado_217832" data-name="Trazado 217832" d="M272.886,299.153l-1.618-2.2,2.032-1.645,1.8,2.045-2.211,1.8" transform="translate(-225.108 -245.058)" fill="#12263f"/>
            <path id="Trazado_217833" data-name="Trazado 217833" d="M240.936,16.808l1.036-2.539,2.529,1.272-1.23,2.425-2.335-1.159" transform="translate(-199.938 -11.841)" fill="#12263f"/>
            <path id="Trazado_217834" data-name="Trazado 217834" d="M199.483,4.22l-2.537-.449.309-2.7,2.8.479-.576,2.67" transform="translate(-163.433 -0.889)" fill="#12263f"/>
            <path id="Trazado_217835" data-name="Trazado 217835" d="M9.194,116.462l-2.612-.679.874-2.693,2.586.9-.848,2.473" transform="translate(-5.462 -93.845)" fill="#12263f"/>
            <path id="Trazado_217836" data-name="Trazado 217836" d="M311.32,82.057l-1.337-2.267,2.237-1.513,1.47,2.423-2.369,1.358" transform="translate(-257.236 -64.956)" fill="#12263f"/>
            <path id="Trazado_217837" data-name="Trazado 217837" d="M55.075,290.126l-1.809,2.064-1.985-1.828,1.874-1.962,1.92,1.726" transform="translate(-42.556 -239.325)" fill="#12263f"/>
            <path id="Trazado_217838" data-name="Trazado 217838" d="M58.917,35.789l2.223-1.767,1.619,2.161-2.014,1.648-1.829-2.042" transform="translate(-48.892 -28.233)" fill="#12263f"/>
            <path id="Trazado_217839" data-name="Trazado 217839" d="M6.42,208.7l.671,2.513L4.5,211.97l-.773-2.7,2.7-.566" transform="translate(-3.091 -173.19)" fill="#12263f"/>
            <path id="Trazado_217840" data-name="Trazado 217840" d="M100.509,11.431l2.609-1.082,1.048,2.515-2.408,1.005-1.249-2.439" transform="translate(-83.406 -8.588)" fill="#12263f"/>
            <path id="Trazado_217841" data-name="Trazado 217841" d="M339.113,173.7v2.758l-2.658-.237V173.7Z" transform="translate(-279.203 -144.144)" fill="#12263f"/>
            <path id="Trazado_217842" data-name="Trazado 217842" d="M102.938,82.548c.267-.309.659-.834,1.123-1.285a1.368,1.368,0,0,1,2.216.018q1.79,1.758,3.549,3.547a1.367,1.367,0,0,1,0,2.212c-.039.041-.081.08-.12.12-1.31,1.337-1.319,1.342-.475,3.051a.787.787,0,0,0,.568.333c.591.044,1.19-.015,1.782.023a1.192,1.192,0,0,1,1.225,1.256q.048,2.805,0,5.612c-.013.78-.59,1.244-1.506,1.288-.647.031-1.3.006-1.847.006-.122.084-.153.094-.165.115-.765,1.292-.874,2.392.564,3.409.82.581.712,1.388-.011,2.124q-1.789,1.818-3.611,3.6a1.354,1.354,0,0,1-2.148,0c-.458-.46-.86-.977-1.24-1.413l-2.288.93c0,.668.012,1.345,0,2.021a1.354,1.354,0,0,1-1.416,1.465q-2.636.049-5.273,0c-.937-.018-1.594-.6-1.448-1.509.277-1.736-.491-2.537-2.444-2.825-.26.317-.656.875-1.128,1.36a1.319,1.319,0,0,1-2.083,0q-1.853-1.815-3.67-3.666a1.4,1.4,0,0,1-.062-2.046.56.56,0,0,1,.114-.125c1.48-.93,1.385-2.091.366-3.433-.515,0-1.166.02-1.814,0a1.458,1.458,0,0,1-1.568-1.61q-.018-2.509,0-5.018c.007-1.025.531-1.71,1.475-1.529,1.732.33,2.45-.5,2.818-1.976.013-.051.027-.1.089-.329-.418-.374-.924-.787-1.384-1.245a1.373,1.373,0,0,1-.057-2.1Q84.9,83.033,86.8,81.2a1.334,1.334,0,0,1,2.091.029c.084.076.162.158.243.238,1.245,1.235,1.486,1.276,2.966.4a.752.752,0,0,0,.271-.534c.036-.536-.009-1.078.019-1.615a1.33,1.33,0,0,1,1.449-1.426q2.634-.033,5.268,0c.973.012,1.553.514,1.424,1.478-.23,1.71.478,2.567,2.411,2.781m4.18,20.626c-.327-.269-.673-.514-.971-.807-.788-.775-.8-1.184-.327-2.185s.861-2.015,1.228-3.046A1.419,1.419,0,0,1,108.529,96c.5.015,1,0,1.484,0V93.282c-.544,0-1.026.019-1.506,0a1.52,1.52,0,0,1-1.44-1.109c-.427-1.13-.882-2.252-1.375-3.355a1.346,1.346,0,0,1,.242-1.7c.392-.364.841-.666,1.126-.886l-2-2.2c-.374.406-.7.8-1.067,1.15a1.41,1.41,0,0,1-1.712.248c-1.1-.5-2.211-.975-3.342-1.4a1.506,1.506,0,0,1-1.111-1.516c-.006-.474,0-.948,0-1.428H95.107c0,.426,0,.79,0,1.155,0,1.248-.23,1.489-1.383,1.884a22.286,22.286,0,0,0-2.876,1.205,1.51,1.51,0,0,1-1.991-.271c-.327-.341-.619-.716-.943-1.094l-2.1,2.095a9.428,9.428,0,0,1,.88.685c.956.939.961,1.3.384,2.458a18.791,18.791,0,0,0-1.134,2.815,1.555,1.555,0,0,1-1.577,1.256c-.474.015-.95,0-1.462,0v2.735c.5,0,.947,0,1.394,0,1.063.012,1.311.266,1.666,1.3a24.683,24.683,0,0,0,1.231,2.957,1.5,1.5,0,0,1-.269,1.989c-.345.322-.711.623-.986.862l1.987,2.132c.345-.4.651-.767.977-1.12a1.461,1.461,0,0,1,1.853-.269c1.081.475,2.173.927,3.279,1.341a1.4,1.4,0,0,1,1.072,1.436c-.008.526,0,1.053,0,1.583h2.718c0-.463,0-.882,0-1.3.009-1.081.311-1.408,1.33-1.768a32.026,32.026,0,0,0,3.037-1.27,1.459,1.459,0,0,1,1.858.224,13.955,13.955,0,0,1,.965,1.263l2.1-2.2" transform="translate(-66.485 -64.953)" fill="#12263f"/>
            <path id="Trazado_217843" data-name="Trazado 217843" d="M320.621,371.063a4.481,4.481,0,0,1,0-8.962,4.481,4.481,0,1,1,0,8.962m.011-2.745a1.734,1.734,0,1,0-.023-3.466,1.733,1.733,0,1,0,.023,3.466" transform="translate(-262.352 -300.484)" fill="#12263f"/>
            <path id="Trazado_217844" data-name="Trazado 217844" d="M143.035,134.49a6.712,6.712,0,0,1,6.766,6.956,6.879,6.879,0,0,1-6.863,6.664,6.951,6.951,0,0,1-6.759-6.889,6.824,6.824,0,0,1,6.856-6.73m.018,2.72a4.082,4.082,0,0,0-4.146,4.034,4.205,4.205,0,0,0,4.1,4.131,4.12,4.12,0,0,0,4.065-4.043,3.993,3.993,0,0,0-4.016-4.122" transform="translate(-113.006 -111.605)" fill="#12263f"/>
          </g>
        </g>
      </g>
    </g>
    <g id="Grupo_166702" data-name="Grupo 166702" transform="translate(417.834 5007.583)">
      <text id="_01" data-name="01" transform="translate(0 28)" fill="#12263f" font-size="30" font-family="Roboto-Black, Roboto" font-weight="800"><tspan x="0" y="0">01</tspan></text>
    </g>
    <g id="Grupo_171324" data-name="Grupo 171324" transform="translate(846.383 5007.583)">
      <text id="_03" data-name="03" transform="translate(0 28)" fill="#12263f" font-size="30" font-family="Roboto-Black, Roboto" font-weight="800"><tspan x="0" y="0">03</tspan></text>
    </g>
    <g id="Grupo_171323" data-name="Grupo 171323" transform="translate(638.22 4692.582)">
      <text id="_02" data-name="02" transform="translate(0 28)" fill="#12263f" font-size="30" font-family="Roboto-Black, Roboto" font-weight="800"><tspan x="0" y="0">02</tspan></text>
    </g>
    <g id="Grupo_171325" data-name="Grupo 171325" transform="translate(1024.175 4692.582)">
      <text id="_04" data-name="04" transform="translate(0 28)" fill="#12263f" font-size="30" font-family="Roboto-Black, Roboto" font-weight="800"><tspan x="0" y="0">04</tspan></text>
    </g>
    <path id="Trazado_228382" data-name="Trazado 228382" d="M2.82,12.547V17H1.32V5.625h4.2a4.215,4.215,0,0,1,2.926.953A3.231,3.231,0,0,1,9.5,9.1a3.189,3.189,0,0,1-1.035,2.551,4.4,4.4,0,0,1-2.965.895Zm0-1.227h2.7a2.7,2.7,0,0,0,1.844-.567A2.075,2.075,0,0,0,8,9.113a2.143,2.143,0,0,0-.641-1.628A2.525,2.525,0,0,0,5.6,6.852H2.82ZM15.273,9.844a4.331,4.331,0,0,0-.711-.055A1.9,1.9,0,0,0,12.633,11v6H11.188V8.547h1.406l.023.977a2.251,2.251,0,0,1,2.016-1.133,1.477,1.477,0,0,1,.641.109Zm4.836,7.313a3.693,3.693,0,0,1-2.8-1.129,4.19,4.19,0,0,1-1.078-3.02v-.266a5.073,5.073,0,0,1,.48-2.246,3.748,3.748,0,0,1,1.344-1.547,3.378,3.378,0,0,1,1.871-.559,3.166,3.166,0,0,1,2.563,1.086,4.7,4.7,0,0,1,.914,3.109v.6H17.68a3,3,0,0,0,.73,2.02,2.3,2.3,0,0,0,1.777.77,2.517,2.517,0,0,0,1.3-.312,3.259,3.259,0,0,0,.93-.828l.883.688A3.55,3.55,0,0,1,20.109,17.156Zm-.18-7.578a1.928,1.928,0,0,0-1.469.637A3.1,3.1,0,0,0,17.727,12h4.234v-.109a2.753,2.753,0,0,0-.594-1.707A1.815,1.815,0,0,0,19.93,9.578Zm8.539,6.4a2.082,2.082,0,0,0,1.352-.469,1.649,1.649,0,0,0,.641-1.172h1.367a2.621,2.621,0,0,1-.5,1.383,3.293,3.293,0,0,1-1.23,1.047,3.55,3.55,0,0,1-1.629.391A3.482,3.482,0,0,1,25.723,16a4.59,4.59,0,0,1-1.02-3.152v-.242a5.089,5.089,0,0,1,.453-2.2,3.451,3.451,0,0,1,1.3-1.492,3.7,3.7,0,0,1,2-.531,3.39,3.39,0,0,1,2.363.852,3.043,3.043,0,0,1,1,2.211H30.461a1.992,1.992,0,0,0-.621-1.348,1.932,1.932,0,0,0-1.379-.527,2.023,2.023,0,0,0-1.707.793,3.724,3.724,0,0,0-.605,2.293v.273a3.65,3.65,0,0,0,.6,2.25A2.033,2.033,0,0,0,28.469,15.977ZM35.023,17H33.578V8.547h1.445ZM33.461,6.3a.863.863,0,0,1,.215-.594.807.807,0,0,1,.637-.242.819.819,0,0,1,.641.242.854.854,0,0,1,.219.594.826.826,0,0,1-.219.586.834.834,0,0,1-.641.234.821.821,0,0,1-.637-.234A.834.834,0,0,1,33.461,6.3ZM36.953,12.7a4.993,4.993,0,0,1,.488-2.234A3.643,3.643,0,0,1,38.8,8.93a3.7,3.7,0,0,1,1.988-.539,3.565,3.565,0,0,1,2.793,1.2,4.6,4.6,0,0,1,1.066,3.18v.1a5.036,5.036,0,0,1-.473,2.215,3.589,3.589,0,0,1-1.352,1.527,3.743,3.743,0,0,1-2.02.547,3.556,3.556,0,0,1-2.785-1.2A4.575,4.575,0,0,1,36.953,12.8Zm1.453.172a3.616,3.616,0,0,0,.652,2.258,2.211,2.211,0,0,0,3.5-.012A3.955,3.955,0,0,0,43.2,12.7a3.61,3.61,0,0,0-.66-2.254,2.1,2.1,0,0,0-1.754-.863,2.075,2.075,0,0,0-1.727.852A3.925,3.925,0,0,0,38.406,12.867Zm12.977,1.891a1.064,1.064,0,0,0-.441-.91,4.249,4.249,0,0,0-1.539-.559,7.277,7.277,0,0,1-1.742-.562,2.479,2.479,0,0,1-.953-.781,1.869,1.869,0,0,1-.309-1.078,2.193,2.193,0,0,1,.879-1.758,3.432,3.432,0,0,1,2.246-.719,3.532,3.532,0,0,1,2.332.742,2.357,2.357,0,0,1,.895,1.9H51.3a1.3,1.3,0,0,0-.5-1.023,1.888,1.888,0,0,0-1.27-.43,1.976,1.976,0,0,0-1.234.344,1.082,1.082,0,0,0-.445.9.877.877,0,0,0,.414.789,5.1,5.1,0,0,0,1.5.508,7.8,7.8,0,0,1,1.754.578,2.558,2.558,0,0,1,1,.809,1.988,1.988,0,0,1,.324,1.152,2.163,2.163,0,0,1-.906,1.816,3.8,3.8,0,0,1-2.352.684,4.257,4.257,0,0,1-1.8-.359,2.922,2.922,0,0,1-1.223-1,2.42,2.42,0,0,1-.441-1.395h1.445a1.5,1.5,0,0,0,.582,1.152,2.258,2.258,0,0,0,1.434.426,2.331,2.331,0,0,0,1.316-.332A1.02,1.02,0,0,0,51.383,14.758Zm8.648-6.211.039.938a3.122,3.122,0,0,1,2.508-1.094A2.417,2.417,0,0,1,64.992,9.75a3.2,3.2,0,0,1,1.1-.984,3.242,3.242,0,0,1,1.6-.375q2.781,0,2.828,2.945V17H69.07V11.422a1.941,1.941,0,0,0-.414-1.355,1.823,1.823,0,0,0-1.391-.449,1.916,1.916,0,0,0-1.336.48,1.949,1.949,0,0,0-.617,1.293V17H63.859V11.461a1.613,1.613,0,0,0-1.8-1.844,1.934,1.934,0,0,0-1.945,1.211V17H58.664V8.547ZM77.914,17a3.036,3.036,0,0,1-.2-.891A3.225,3.225,0,0,1,75.3,17.156a2.984,2.984,0,0,1-2.051-.707,2.288,2.288,0,0,1-.8-1.793,2.39,2.39,0,0,1,1-2.051,4.733,4.733,0,0,1,2.824-.73h1.406v-.664A1.623,1.623,0,0,0,77.234,10,1.821,1.821,0,0,0,75.9,9.555a2.108,2.108,0,0,0-1.3.391,1.151,1.151,0,0,0-.523.945H72.625a2,2,0,0,1,.449-1.223,3.066,3.066,0,0,1,1.219-.934,4.1,4.1,0,0,1,1.691-.344,3.342,3.342,0,0,1,2.289.73,2.635,2.635,0,0,1,.859,2.012v3.891a4.757,4.757,0,0,0,.3,1.852V17Zm-2.4-1.1a2.54,2.54,0,0,0,1.289-.352,2.127,2.127,0,0,0,.883-.914V12.9H76.555q-2.656,0-2.656,1.555a1.316,1.316,0,0,0,.453,1.063A1.742,1.742,0,0,0,75.516,15.9ZM76.852,5H78.6L76.508,7.3l-1.164,0Zm9.469,9.758a1.064,1.064,0,0,0-.441-.91,4.249,4.249,0,0,0-1.539-.559,7.277,7.277,0,0,1-1.742-.562,2.479,2.479,0,0,1-.953-.781,1.869,1.869,0,0,1-.309-1.078,2.193,2.193,0,0,1,.879-1.758,3.432,3.432,0,0,1,2.246-.719,3.532,3.532,0,0,1,2.332.742,2.357,2.357,0,0,1,.895,1.9H86.234a1.3,1.3,0,0,0-.5-1.023,1.888,1.888,0,0,0-1.27-.43,1.976,1.976,0,0,0-1.234.344,1.082,1.082,0,0,0-.445.9.877.877,0,0,0,.414.789,5.1,5.1,0,0,0,1.5.508,7.8,7.8,0,0,1,1.754.578,2.558,2.558,0,0,1,1,.809,1.988,1.988,0,0,1,.324,1.152,2.163,2.163,0,0,1-.906,1.816,3.8,3.8,0,0,1-2.352.684,4.257,4.257,0,0,1-1.8-.359,2.922,2.922,0,0,1-1.223-1,2.42,2.42,0,0,1-.441-1.395h1.445a1.5,1.5,0,0,0,.582,1.152,2.258,2.258,0,0,0,1.434.426,2.331,2.331,0,0,0,1.316-.332A1.02,1.02,0,0,0,86.32,14.758Zm14.445-1.891a5.026,5.026,0,0,1-.891,3.113,2.846,2.846,0,0,1-2.391,1.176,2.947,2.947,0,0,1-2.477-1.133l-.07.977H93.609V5h1.445V9.477a2.93,2.93,0,0,1,2.414-1.086,2.863,2.863,0,0,1,2.418,1.164,5.177,5.177,0,0,1,.879,3.188ZM99.32,12.7a3.906,3.906,0,0,0-.57-2.281,1.888,1.888,0,0,0-1.641-.8,2.122,2.122,0,0,0-2.055,1.328V14.6a2.181,2.181,0,0,0,2.07,1.328,1.878,1.878,0,0,0,1.617-.8A4.153,4.153,0,0,0,99.32,12.7ZM107.8,17a3.036,3.036,0,0,1-.2-.891,3.225,3.225,0,0,1-2.406,1.047,2.984,2.984,0,0,1-2.051-.707,2.288,2.288,0,0,1-.8-1.793,2.39,2.39,0,0,1,1-2.051,4.733,4.733,0,0,1,2.824-.73h1.406v-.664A1.623,1.623,0,0,0,107.125,10a1.821,1.821,0,0,0-1.336-.449,2.108,2.108,0,0,0-1.3.391,1.151,1.151,0,0,0-.523.945h-1.453a2,2,0,0,1,.449-1.223,3.066,3.066,0,0,1,1.219-.934,4.1,4.1,0,0,1,1.691-.344,3.342,3.342,0,0,1,2.289.73,2.635,2.635,0,0,1,.859,2.012v3.891a4.757,4.757,0,0,0,.3,1.852V17Zm-2.4-1.1a2.54,2.54,0,0,0,1.289-.352,2.127,2.127,0,0,0,.883-.914V12.9h-1.133q-2.656,0-2.656,1.555a1.316,1.316,0,0,0,.453,1.063A1.742,1.742,0,0,0,105.406,15.9Zm7.375-7.352v9.43q0,2.438-2.211,2.438a2.7,2.7,0,0,1-.883-.14V19.125a2.794,2.794,0,0,0,.656.063.982.982,0,0,0,.738-.262,1.3,1.3,0,0,0,.254-.911V8.547ZM111.188,6.3a.867.867,0,0,1,.215-.59.79.79,0,0,1,.629-.246.819.819,0,0,1,.641.242.854.854,0,0,1,.219.594.826.826,0,0,1-.219.586.834.834,0,0,1-.641.234.808.808,0,0,1-.633-.234A.843.843,0,0,1,111.188,6.3Zm3.539,6.391a4.993,4.993,0,0,1,.488-2.234,3.643,3.643,0,0,1,1.359-1.531,3.7,3.7,0,0,1,1.988-.539,3.565,3.565,0,0,1,2.793,1.2,4.6,4.6,0,0,1,1.066,3.18v.1a5.036,5.036,0,0,1-.473,2.215,3.589,3.589,0,0,1-1.352,1.527,3.743,3.743,0,0,1-2.02.547,3.556,3.556,0,0,1-2.785-1.2,4.575,4.575,0,0,1-1.066-3.164Zm1.453.172a3.616,3.616,0,0,0,.652,2.258,2.211,2.211,0,0,0,3.5-.012,3.955,3.955,0,0,0,.648-2.418,3.61,3.61,0,0,0-.66-2.254,2.1,2.1,0,0,0-1.754-.863,2.075,2.075,0,0,0-1.727.852A3.925,3.925,0,0,0,116.18,12.867Zm12.977,1.891a1.064,1.064,0,0,0-.441-.91,4.249,4.249,0,0,0-1.539-.559,7.277,7.277,0,0,1-1.742-.562,2.479,2.479,0,0,1-.953-.781,1.869,1.869,0,0,1-.309-1.078,2.193,2.193,0,0,1,.879-1.758,3.432,3.432,0,0,1,2.246-.719,3.532,3.532,0,0,1,2.332.742,2.357,2.357,0,0,1,.895,1.9H129.07a1.3,1.3,0,0,0-.5-1.023,1.888,1.888,0,0,0-1.27-.43,1.976,1.976,0,0,0-1.234.344,1.082,1.082,0,0,0-.445.9.877.877,0,0,0,.414.789,5.1,5.1,0,0,0,1.5.508,7.8,7.8,0,0,1,1.754.578,2.558,2.558,0,0,1,1,.809,1.988,1.988,0,0,1,.324,1.152,2.163,2.163,0,0,1-.906,1.816,3.8,3.8,0,0,1-2.352.684,4.257,4.257,0,0,1-1.8-.359,2.922,2.922,0,0,1-1.223-1,2.42,2.42,0,0,1-.441-1.395h1.445a1.5,1.5,0,0,0,.582,1.152,2.258,2.258,0,0,0,1.434.426,2.331,2.331,0,0,0,1.316-.332A1.02,1.02,0,0,0,129.156,14.758Z" transform="translate(418.407 5054.154)" fill="#12263f"/>
    <path id="Trazado_228383" data-name="Trazado 228383" d="M3.258,5.625l3.719,9.281L10.7,5.625h1.945V17h-1.5V12.57l.141-4.781L7.547,17H6.4L2.672,7.813,2.82,12.57V17H1.32V5.625ZM18.57,17.156a3.693,3.693,0,0,1-2.8-1.129,4.19,4.19,0,0,1-1.078-3.02v-.266a5.073,5.073,0,0,1,.48-2.246A3.748,3.748,0,0,1,16.52,8.949a3.378,3.378,0,0,1,1.871-.559,3.166,3.166,0,0,1,2.563,1.086,4.7,4.7,0,0,1,.914,3.109v.6H16.141a3,3,0,0,0,.73,2.02,2.3,2.3,0,0,0,1.777.77,2.517,2.517,0,0,0,1.3-.312,3.259,3.259,0,0,0,.93-.828l.883.688A3.55,3.55,0,0,1,18.57,17.156Zm-.18-7.578a1.928,1.928,0,0,0-1.469.637A3.1,3.1,0,0,0,16.188,12h4.234v-.109a2.753,2.753,0,0,0-.594-1.707A1.815,1.815,0,0,0,18.391,9.578Zm6.641-1.031v9.43q0,2.438-2.211,2.438a2.7,2.7,0,0,1-.883-.14V19.125a2.794,2.794,0,0,0,.656.063.982.982,0,0,0,.738-.262,1.3,1.3,0,0,0,.254-.911V8.547ZM23.438,6.3a.867.867,0,0,1,.215-.59.79.79,0,0,1,.629-.246.819.819,0,0,1,.641.242.854.854,0,0,1,.219.594.826.826,0,0,1-.219.586.834.834,0,0,1-.641.234.808.808,0,0,1-.633-.234A.843.843,0,0,1,23.438,6.3ZM26.977,12.7a4.993,4.993,0,0,1,.488-2.234A3.643,3.643,0,0,1,28.824,8.93a3.7,3.7,0,0,1,1.988-.539,3.565,3.565,0,0,1,2.793,1.2,4.6,4.6,0,0,1,1.066,3.18v.1a5.036,5.036,0,0,1-.473,2.215,3.589,3.589,0,0,1-1.352,1.527,3.743,3.743,0,0,1-2.02.547,3.556,3.556,0,0,1-2.785-1.2A4.575,4.575,0,0,1,26.977,12.8Zm1.453.172a3.616,3.616,0,0,0,.652,2.258,2.211,2.211,0,0,0,3.5-.012,3.955,3.955,0,0,0,.648-2.418,3.61,3.61,0,0,0-.66-2.254,2.1,2.1,0,0,0-1.754-.863,2.075,2.075,0,0,0-1.727.852A3.925,3.925,0,0,0,28.43,12.867ZM40.57,9.844a4.331,4.331,0,0,0-.711-.055A1.9,1.9,0,0,0,37.93,11v6H36.484V8.547h1.406l.023.977A2.251,2.251,0,0,1,39.93,8.391a1.477,1.477,0,0,1,.641.109Zm4.836,7.313a3.693,3.693,0,0,1-2.8-1.129,4.19,4.19,0,0,1-1.078-3.02v-.266a5.073,5.073,0,0,1,.48-2.246,3.748,3.748,0,0,1,1.344-1.547,3.378,3.378,0,0,1,1.871-.559,3.166,3.166,0,0,1,2.563,1.086,4.7,4.7,0,0,1,.914,3.109v.6H42.977a3,3,0,0,0,.73,2.02,2.3,2.3,0,0,0,1.777.77,2.517,2.517,0,0,0,1.3-.312,3.259,3.259,0,0,0,.93-.828l.883.688A3.55,3.55,0,0,1,45.406,17.156Zm-.18-7.578a1.928,1.928,0,0,0-1.469.637A3.1,3.1,0,0,0,43.023,12h4.234v-.109a2.753,2.753,0,0,0-.594-1.707A1.815,1.815,0,0,0,45.227,9.578Zm10.07,5.18a1.064,1.064,0,0,0-.441-.91,4.249,4.249,0,0,0-1.539-.559,7.277,7.277,0,0,1-1.742-.562,2.479,2.479,0,0,1-.953-.781,1.869,1.869,0,0,1-.309-1.078,2.193,2.193,0,0,1,.879-1.758,3.432,3.432,0,0,1,2.246-.719,3.532,3.532,0,0,1,2.332.742,2.357,2.357,0,0,1,.895,1.9H55.211a1.3,1.3,0,0,0-.5-1.023,1.888,1.888,0,0,0-1.27-.43,1.976,1.976,0,0,0-1.234.344,1.082,1.082,0,0,0-.445.9.877.877,0,0,0,.414.789,5.1,5.1,0,0,0,1.5.508,7.8,7.8,0,0,1,1.754.578,2.558,2.558,0,0,1,1,.809,1.988,1.988,0,0,1,.324,1.152,2.163,2.163,0,0,1-.906,1.816,3.8,3.8,0,0,1-2.352.684,4.257,4.257,0,0,1-1.8-.359,2.922,2.922,0,0,1-1.223-1,2.42,2.42,0,0,1-.441-1.395h1.445a1.5,1.5,0,0,0,.582,1.152,2.258,2.258,0,0,0,1.434.426,2.331,2.331,0,0,0,1.316-.332A1.02,1.02,0,0,0,55.3,14.758Zm11.7-4.922-.664-.07a2.42,2.42,0,0,0-2.141,1.227L63.148,17H61.734L63.2,8.547l1.367-.008-.211.984a2.527,2.527,0,0,1,2.117-1.148,2.594,2.594,0,0,1,.672.117Zm3.727,7.32a3.048,3.048,0,0,1-2.469-1.164,4.006,4.006,0,0,1-.75-2.9l.039-.336a5.624,5.624,0,0,1,.746-2.3,4.339,4.339,0,0,1,1.5-1.566,3.491,3.491,0,0,1,1.906-.5,2.688,2.688,0,0,1,2.047.867,3.566,3.566,0,0,1,.813,2.266,6.62,6.62,0,0,1-.031,1.016l-.086.648H68.906a2.856,2.856,0,0,0,.379,1.953,1.8,1.8,0,0,0,1.551.836,3.007,3.007,0,0,0,2.313-1.125l.813.688a3.718,3.718,0,0,1-1.371,1.2A3.886,3.886,0,0,1,70.719,17.156Zm.9-7.586a2.066,2.066,0,0,0-1.527.594A4.22,4.22,0,0,0,69.055,12l4.109.008.031-.125a2.313,2.313,0,0,0-.316-1.637A1.488,1.488,0,0,0,71.617,9.57Zm6.711,5.453,3.047-6.477h1.492L78.609,17H77.531L75.875,8.547h1.391ZM84.383,17H82.977l1.469-8.453h1.406ZM85.547,5.461a.774.774,0,0,1,.6.215.8.8,0,0,1,.238.605.834.834,0,0,1-.836.852.779.779,0,0,1-.6-.211.764.764,0,0,1-.227-.594.886.886,0,0,1,.234-.609A.826.826,0,0,1,85.547,5.461Zm4.8,11.7a3.048,3.048,0,0,1-2.469-1.164,4.006,4.006,0,0,1-.75-2.9l.039-.336a5.624,5.624,0,0,1,.746-2.3,4.339,4.339,0,0,1,1.5-1.566,3.491,3.491,0,0,1,1.906-.5,2.688,2.688,0,0,1,2.047.867,3.566,3.566,0,0,1,.813,2.266,6.62,6.62,0,0,1-.031,1.016l-.086.648H88.539a2.856,2.856,0,0,0,.379,1.953,1.8,1.8,0,0,0,1.551.836,3.007,3.007,0,0,0,2.313-1.125l.813.688a3.718,3.718,0,0,1-1.371,1.2A3.886,3.886,0,0,1,90.352,17.156Zm.9-7.586a2.066,2.066,0,0,0-1.527.594A4.22,4.22,0,0,0,88.688,12l4.109.008.031-.125a2.313,2.313,0,0,0-.316-1.637A1.488,1.488,0,0,0,91.25,9.57ZM102.578,15l2.7-6.453h1.461L102.883,17h-1.148l-.875-6.391L97.813,17H96.664L95.75,8.547H97.1l.516,6.3,3-6.3h1.141Zm9.391-.289q.117-.875-.961-1.234l-1.469-.43q-1.859-.641-1.8-2.125a2.341,2.341,0,0,1,1.02-1.832,3.631,3.631,0,0,1,2.27-.7,3.027,3.027,0,0,1,2.082.746,2.363,2.363,0,0,1,.77,1.9l-1.406-.008a1.319,1.319,0,0,0-.4-1.031,1.576,1.576,0,0,0-1.1-.414,2.059,2.059,0,0,0-1.266.359,1.316,1.316,0,0,0-.57.922q-.1.734.9,1.07l.711.2a4.577,4.577,0,0,1,2.063.977,1.865,1.865,0,0,1,.563,1.492,2.37,2.37,0,0,1-.516,1.375,2.948,2.948,0,0,1-1.25.895,4.18,4.18,0,0,1-1.664.285,3.3,3.3,0,0,1-2.219-.785,2.427,2.427,0,0,1-.844-1.98l1.414.008a1.5,1.5,0,0,0,.453,1.141,1.732,1.732,0,0,0,1.242.43,2.436,2.436,0,0,0,1.336-.324A1.247,1.247,0,0,0,111.969,14.711Z" transform="translate(846.956 5054.154)" fill="#12263f"/>
    <path id="Trazado_228380" data-name="Trazado 228380" d="M9.688,13.391a4.185,4.185,0,0,1-1.332,2.785,4.365,4.365,0,0,1-2.98.98,4.008,4.008,0,0,1-3.23-1.445A5.815,5.815,0,0,1,.93,11.844V10.75A6.481,6.481,0,0,1,1.5,7.961,4.231,4.231,0,0,1,3.1,6.113a4.47,4.47,0,0,1,2.406-.645A4.11,4.11,0,0,1,8.414,6.48a4.235,4.235,0,0,1,1.273,2.8H8.18a3.268,3.268,0,0,0-.848-1.975A2.565,2.565,0,0,0,5.508,6.7,2.684,2.684,0,0,0,3.254,7.759a4.882,4.882,0,0,0-.816,3.026v1.1a5.018,5.018,0,0,0,.773,2.948A2.5,2.5,0,0,0,5.375,15.93a2.887,2.887,0,0,0,1.918-.566,3.143,3.143,0,0,0,.887-1.973ZM16.727,17a3.036,3.036,0,0,1-.2-.891,3.225,3.225,0,0,1-2.406,1.047,2.984,2.984,0,0,1-2.051-.707,2.287,2.287,0,0,1-.8-1.793,2.39,2.39,0,0,1,1-2.051,4.733,4.733,0,0,1,2.824-.73H16.5v-.664A1.623,1.623,0,0,0,16.047,10a1.821,1.821,0,0,0-1.336-.449,2.107,2.107,0,0,0-1.3.391,1.151,1.151,0,0,0-.523.945H11.438a2,2,0,0,1,.449-1.223,3.066,3.066,0,0,1,1.219-.934A4.1,4.1,0,0,1,14.8,8.391a3.342,3.342,0,0,1,2.289.73,2.635,2.635,0,0,1,.859,2.012v3.891a4.757,4.757,0,0,0,.3,1.852V17Zm-2.4-1.1a2.54,2.54,0,0,0,1.289-.352,2.127,2.127,0,0,0,.883-.914V12.9H15.367q-2.656,0-2.656,1.555a1.316,1.316,0,0,0,.453,1.063A1.742,1.742,0,0,0,14.328,15.9ZM21.781,17H20.336V5h1.445Zm3.883,0H24.219V8.547h1.445ZM24.1,6.3a.863.863,0,0,1,.215-.594.807.807,0,0,1,.637-.242.819.819,0,0,1,.641.242.854.854,0,0,1,.219.594.826.826,0,0,1-.219.586.834.834,0,0,1-.641.234.821.821,0,0,1-.637-.234A.834.834,0,0,1,24.1,6.3Zm3.523,6.4a4.952,4.952,0,0,1,.922-3.129,3.137,3.137,0,0,1,4.766-.168V5h1.445V17H33.43l-.07-.906a2.943,2.943,0,0,1-2.414,1.063,2.887,2.887,0,0,1-2.395-1.2,5.008,5.008,0,0,1-.926-3.141Zm1.445.164a3.749,3.749,0,0,0,.594,2.25,1.92,1.92,0,0,0,1.641.813A2.108,2.108,0,0,0,33.313,14.7V10.813a2.125,2.125,0,0,0-1.992-1.2,1.929,1.929,0,0,0-1.656.82A4.128,4.128,0,0,0,29.07,12.867ZM42.219,17a3.036,3.036,0,0,1-.2-.891,3.225,3.225,0,0,1-2.406,1.047,2.984,2.984,0,0,1-2.051-.707,2.287,2.287,0,0,1-.8-1.793,2.39,2.39,0,0,1,1-2.051,4.733,4.733,0,0,1,2.824-.73h1.406v-.664A1.623,1.623,0,0,0,41.539,10,1.821,1.821,0,0,0,40.2,9.555a2.107,2.107,0,0,0-1.3.391,1.151,1.151,0,0,0-.523.945H36.93a2,2,0,0,1,.449-1.223A3.066,3.066,0,0,1,38.6,8.734a4.1,4.1,0,0,1,1.691-.344,3.342,3.342,0,0,1,2.289.73,2.635,2.635,0,0,1,.859,2.012v3.891a4.757,4.757,0,0,0,.3,1.852V17Zm-2.4-1.1a2.54,2.54,0,0,0,1.289-.352,2.127,2.127,0,0,0,.883-.914V12.9H40.859q-2.656,0-2.656,1.555a1.316,1.316,0,0,0,.453,1.063A1.742,1.742,0,0,0,39.82,15.9Zm5.531-3.2a4.952,4.952,0,0,1,.922-3.129,3.137,3.137,0,0,1,4.766-.168V5h1.445V17H51.156l-.07-.906a2.943,2.943,0,0,1-2.414,1.063,2.887,2.887,0,0,1-2.395-1.2,5.008,5.008,0,0,1-.926-3.141Zm1.445.164a3.749,3.749,0,0,0,.594,2.25,1.92,1.92,0,0,0,1.641.813A2.108,2.108,0,0,0,51.039,14.7V10.813a2.125,2.125,0,0,0-1.992-1.2,1.929,1.929,0,0,0-1.656.82A4.128,4.128,0,0,0,46.8,12.867Zm13.25-4.32.039.938a3.122,3.122,0,0,1,2.508-1.094A2.417,2.417,0,0,1,65.008,9.75a3.2,3.2,0,0,1,1.1-.984,3.242,3.242,0,0,1,1.6-.375q2.781,0,2.828,2.945V17H69.086V11.422a1.941,1.941,0,0,0-.414-1.355,1.823,1.823,0,0,0-1.391-.449,1.916,1.916,0,0,0-1.336.48,1.949,1.949,0,0,0-.617,1.293V17H63.875V11.461a1.613,1.613,0,0,0-1.8-1.844,1.934,1.934,0,0,0-1.945,1.211V17H58.68V8.547ZM77.93,17a3.036,3.036,0,0,1-.2-.891,3.225,3.225,0,0,1-2.406,1.047,2.984,2.984,0,0,1-2.051-.707,2.288,2.288,0,0,1-.8-1.793,2.39,2.39,0,0,1,1-2.051,4.733,4.733,0,0,1,2.824-.73H77.7v-.664A1.623,1.623,0,0,0,77.25,10a1.821,1.821,0,0,0-1.336-.449,2.108,2.108,0,0,0-1.3.391,1.151,1.151,0,0,0-.523.945H72.641a2,2,0,0,1,.449-1.223,3.066,3.066,0,0,1,1.219-.934A4.1,4.1,0,0,1,76,8.391a3.342,3.342,0,0,1,2.289.73,2.635,2.635,0,0,1,.859,2.012v3.891a4.757,4.757,0,0,0,.3,1.852V17Zm-2.4-1.1a2.54,2.54,0,0,0,1.289-.352,2.127,2.127,0,0,0,.883-.914V12.9H76.57q-2.656,0-2.656,1.555a1.316,1.316,0,0,0,.453,1.063A1.742,1.742,0,0,0,75.531,15.9ZM76.867,5h1.75L76.523,7.3l-1.164,0Zm9.469,9.758a1.064,1.064,0,0,0-.441-.91,4.249,4.249,0,0,0-1.539-.559,7.277,7.277,0,0,1-1.742-.562,2.479,2.479,0,0,1-.953-.781,1.869,1.869,0,0,1-.309-1.078,2.193,2.193,0,0,1,.879-1.758,3.432,3.432,0,0,1,2.246-.719,3.532,3.532,0,0,1,2.332.742,2.357,2.357,0,0,1,.895,1.9H86.25a1.3,1.3,0,0,0-.5-1.023,1.888,1.888,0,0,0-1.27-.43,1.976,1.976,0,0,0-1.234.344,1.082,1.082,0,0,0-.445.9.877.877,0,0,0,.414.789,5.1,5.1,0,0,0,1.5.508,7.8,7.8,0,0,1,1.754.578,2.558,2.558,0,0,1,1,.809,1.988,1.988,0,0,1,.324,1.152,2.163,2.163,0,0,1-.906,1.816,3.8,3.8,0,0,1-2.352.684,4.257,4.257,0,0,1-1.8-.359,2.922,2.922,0,0,1-1.223-1,2.42,2.42,0,0,1-.441-1.395h1.445a1.5,1.5,0,0,0,.582,1.152,2.258,2.258,0,0,0,1.434.426,2.331,2.331,0,0,0,1.316-.332A1.02,1.02,0,0,0,86.336,14.758Zm12.211,0a1.064,1.064,0,0,0-.441-.91,4.249,4.249,0,0,0-1.539-.559,7.277,7.277,0,0,1-1.742-.562,2.479,2.479,0,0,1-.953-.781,1.869,1.869,0,0,1-.309-1.078,2.193,2.193,0,0,1,.879-1.758,3.432,3.432,0,0,1,2.246-.719,3.532,3.532,0,0,1,2.332.742,2.357,2.357,0,0,1,.895,1.9H98.461a1.3,1.3,0,0,0-.5-1.023,1.888,1.888,0,0,0-1.27-.43,1.976,1.976,0,0,0-1.234.344,1.082,1.082,0,0,0-.445.9.877.877,0,0,0,.414.789,5.1,5.1,0,0,0,1.5.508,7.8,7.8,0,0,1,1.754.578,2.558,2.558,0,0,1,1,.809,1.988,1.988,0,0,1,.324,1.152,2.163,2.163,0,0,1-.906,1.816,3.8,3.8,0,0,1-2.352.684,4.257,4.257,0,0,1-1.8-.359,2.922,2.922,0,0,1-1.223-1,2.42,2.42,0,0,1-.441-1.395h1.445a1.5,1.5,0,0,0,.582,1.152,2.258,2.258,0,0,0,1.434.426,2.331,2.331,0,0,0,1.316-.332A1.02,1.02,0,0,0,98.547,14.758ZM107.094,17a3.036,3.036,0,0,1-.2-.891,3.225,3.225,0,0,1-2.406,1.047,2.984,2.984,0,0,1-2.051-.707,2.288,2.288,0,0,1-.8-1.793,2.39,2.39,0,0,1,1-2.051,4.733,4.733,0,0,1,2.824-.73h1.406v-.664A1.623,1.623,0,0,0,106.414,10a1.821,1.821,0,0,0-1.336-.449,2.108,2.108,0,0,0-1.3.391,1.151,1.151,0,0,0-.523.945H101.8a2,2,0,0,1,.449-1.223,3.066,3.066,0,0,1,1.219-.934,4.1,4.1,0,0,1,1.691-.344,3.342,3.342,0,0,1,2.289.73,2.635,2.635,0,0,1,.859,2.012v3.891a4.757,4.757,0,0,0,.3,1.852V17Zm-2.4-1.1a2.54,2.54,0,0,0,1.289-.352,2.127,2.127,0,0,0,.883-.914V12.9h-1.133q-2.656,0-2.656,1.555a1.316,1.316,0,0,0,.453,1.063A1.742,1.742,0,0,0,104.7,15.9Zm7.844-9.4V8.547h1.578V9.664h-1.578v5.249a1.173,1.173,0,0,0,.211.763.888.888,0,0,0,.719.254,3.5,3.5,0,0,0,.688-.094V17a4.215,4.215,0,0,1-1.109.155,1.8,1.8,0,0,1-1.461-.586,2.517,2.517,0,0,1-.492-1.664V9.664h-1.539V8.547h1.539V6.5ZM117.375,17H115.93V8.547h1.445ZM115.813,6.3a.863.863,0,0,1,.215-.594.807.807,0,0,1,.637-.242.819.819,0,0,1,.641.242.854.854,0,0,1,.219.594.826.826,0,0,1-.219.586.834.834,0,0,1-.641.234.821.821,0,0,1-.637-.234A.834.834,0,0,1,115.813,6.3Zm8.8,8.453a1.064,1.064,0,0,0-.441-.91,4.249,4.249,0,0,0-1.539-.559,7.277,7.277,0,0,1-1.742-.562,2.479,2.479,0,0,1-.953-.781,1.869,1.869,0,0,1-.309-1.078,2.193,2.193,0,0,1,.879-1.758,3.432,3.432,0,0,1,2.246-.719,3.532,3.532,0,0,1,2.332.742,2.357,2.357,0,0,1,.895,1.9h-1.453a1.3,1.3,0,0,0-.5-1.023,1.888,1.888,0,0,0-1.27-.43,1.976,1.976,0,0,0-1.234.344,1.082,1.082,0,0,0-.445.9.877.877,0,0,0,.414.789,5.1,5.1,0,0,0,1.5.508,7.8,7.8,0,0,1,1.754.578,2.558,2.558,0,0,1,1,.809,1.988,1.988,0,0,1,.324,1.152,2.163,2.163,0,0,1-.906,1.816,3.8,3.8,0,0,1-2.352.684A4.257,4.257,0,0,1,121,16.8a2.922,2.922,0,0,1-1.223-1,2.42,2.42,0,0,1-.441-1.395h1.445a1.5,1.5,0,0,0,.582,1.152,2.258,2.258,0,0,0,1.434.426,2.331,2.331,0,0,0,1.316-.332A1.02,1.02,0,0,0,124.609,14.758ZM128.648,17V9.664h-1.336V8.547h1.336V7.68a2.878,2.878,0,0,1,.727-2.1,2.745,2.745,0,0,1,2.055-.742,3.816,3.816,0,0,1,.992.132l-.078,1.165a4.151,4.151,0,0,0-.781-.07,1.41,1.41,0,0,0-1.086.411,1.669,1.669,0,0,0-.383,1.18v.893h1.8V9.664h-1.8V17Zm10.063,0a3.036,3.036,0,0,1-.2-.891,3.225,3.225,0,0,1-2.406,1.047,2.984,2.984,0,0,1-2.051-.707,2.287,2.287,0,0,1-.8-1.793,2.39,2.39,0,0,1,1-2.051,4.733,4.733,0,0,1,2.824-.73h1.406v-.664A1.623,1.623,0,0,0,138.031,10a1.821,1.821,0,0,0-1.336-.449,2.107,2.107,0,0,0-1.3.391,1.151,1.151,0,0,0-.523.945h-1.453a2,2,0,0,1,.449-1.223,3.066,3.066,0,0,1,1.219-.934,4.1,4.1,0,0,1,1.691-.344,3.342,3.342,0,0,1,2.289.73,2.635,2.635,0,0,1,.859,2.012v3.891a4.757,4.757,0,0,0,.3,1.852V17Zm-2.4-1.1a2.54,2.54,0,0,0,1.289-.352,2.127,2.127,0,0,0,.883-.914V12.9h-1.133q-2.656,0-2.656,1.555a1.316,1.316,0,0,0,.453,1.063A1.742,1.742,0,0,0,136.313,15.9Zm9.273.078a2.082,2.082,0,0,0,1.352-.469,1.649,1.649,0,0,0,.641-1.172h1.367a2.621,2.621,0,0,1-.5,1.383,3.293,3.293,0,0,1-1.23,1.047,3.55,3.55,0,0,1-1.629.391A3.482,3.482,0,0,1,142.84,16a4.59,4.59,0,0,1-1.02-3.152v-.242a5.089,5.089,0,0,1,.453-2.2,3.451,3.451,0,0,1,1.3-1.492,3.7,3.7,0,0,1,2-.531,3.39,3.39,0,0,1,2.363.852,3.043,3.043,0,0,1,1,2.211h-1.367a1.992,1.992,0,0,0-.621-1.348,1.932,1.932,0,0,0-1.379-.527,2.023,2.023,0,0,0-1.707.793,3.724,3.724,0,0,0-.605,2.293v.273a3.65,3.65,0,0,0,.6,2.25A2.033,2.033,0,0,0,145.586,15.977ZM152.531,6.5V8.547h1.578V9.664h-1.578v5.249a1.173,1.173,0,0,0,.211.763.888.888,0,0,0,.719.254,3.5,3.5,0,0,0,.688-.094V17a4.215,4.215,0,0,1-1.109.155,1.8,1.8,0,0,1-1.461-.586,2.517,2.517,0,0,1-.492-1.664V9.664h-1.539V8.547h1.539V6.5Zm2.727,6.2a4.993,4.993,0,0,1,.488-2.234,3.642,3.642,0,0,1,1.359-1.531,3.7,3.7,0,0,1,1.988-.539,3.565,3.565,0,0,1,2.793,1.2,4.6,4.6,0,0,1,1.066,3.18v.1a5.036,5.036,0,0,1-.473,2.215,3.589,3.589,0,0,1-1.352,1.527,3.743,3.743,0,0,1-2.02.547,3.556,3.556,0,0,1-2.785-1.2,4.575,4.575,0,0,1-1.066-3.164Zm1.453.172a3.616,3.616,0,0,0,.652,2.258,2.211,2.211,0,0,0,3.5-.012,3.954,3.954,0,0,0,.648-2.418,3.61,3.61,0,0,0-.66-2.254,2.1,2.1,0,0,0-1.754-.863,2.075,2.075,0,0,0-1.727.852A3.925,3.925,0,0,0,156.711,12.867Zm12.141-3.023a4.331,4.331,0,0,0-.711-.055A1.9,1.9,0,0,0,166.211,11v6h-1.445V8.547h1.406l.023.977a2.251,2.251,0,0,1,2.016-1.133,1.477,1.477,0,0,1,.641.109ZM171.75,17H170.3V8.547h1.445ZM170.188,6.3a.863.863,0,0,1,.215-.594.807.807,0,0,1,.637-.242.819.819,0,0,1,.641.242.854.854,0,0,1,.219.594.826.826,0,0,1-.219.586.834.834,0,0,1-.641.234.821.821,0,0,1-.637-.234A.834.834,0,0,1,170.188,6.3ZM179.281,17a3.036,3.036,0,0,1-.2-.891,3.225,3.225,0,0,1-2.406,1.047,2.984,2.984,0,0,1-2.051-.707,2.287,2.287,0,0,1-.8-1.793,2.39,2.39,0,0,1,1-2.051,4.733,4.733,0,0,1,2.824-.73h1.406v-.664A1.623,1.623,0,0,0,178.6,10a1.821,1.821,0,0,0-1.336-.449,2.107,2.107,0,0,0-1.3.391,1.151,1.151,0,0,0-.523.945h-1.453a2,2,0,0,1,.449-1.223,3.066,3.066,0,0,1,1.219-.934,4.1,4.1,0,0,1,1.691-.344,3.342,3.342,0,0,1,2.289.73,2.635,2.635,0,0,1,.859,2.012v3.891a4.757,4.757,0,0,0,.3,1.852V17Zm-2.4-1.1a2.54,2.54,0,0,0,1.289-.352,2.127,2.127,0,0,0,.883-.914V12.9h-1.133q-2.656,0-2.656,1.555a1.316,1.316,0,0,0,.453,1.063A1.742,1.742,0,0,0,176.883,15.9Z" transform="translate(638.794 4739.151)" fill="#12263f"/>
    <path id="Trazado_228381" data-name="Trazado 228381" d="M7.594,11.977H2.82V17H1.32V5.625H8.367V6.852H2.82v3.9H7.594ZM14.891,17a3.036,3.036,0,0,1-.2-.891,3.225,3.225,0,0,1-2.406,1.047,2.984,2.984,0,0,1-2.051-.707,2.287,2.287,0,0,1-.8-1.793,2.39,2.39,0,0,1,1-2.051,4.733,4.733,0,0,1,2.824-.73h1.406v-.664A1.623,1.623,0,0,0,14.211,10a1.821,1.821,0,0,0-1.336-.449,2.107,2.107,0,0,0-1.3.391,1.151,1.151,0,0,0-.523.945H9.6a2,2,0,0,1,.449-1.223,3.066,3.066,0,0,1,1.219-.934,4.1,4.1,0,0,1,1.691-.344,3.342,3.342,0,0,1,2.289.73,2.635,2.635,0,0,1,.859,2.012v3.891a4.757,4.757,0,0,0,.3,1.852V17Zm-2.4-1.1a2.54,2.54,0,0,0,1.289-.352,2.127,2.127,0,0,0,.883-.914V12.9H13.531q-2.656,0-2.656,1.555a1.316,1.316,0,0,0,.453,1.063A1.742,1.742,0,0,0,12.492,15.9Zm9.273.078a2.082,2.082,0,0,0,1.352-.469,1.649,1.649,0,0,0,.641-1.172h1.367a2.621,2.621,0,0,1-.5,1.383,3.293,3.293,0,0,1-1.23,1.047,3.55,3.55,0,0,1-1.629.391A3.482,3.482,0,0,1,19.02,16,4.59,4.59,0,0,1,18,12.852v-.242a5.089,5.089,0,0,1,.453-2.2,3.451,3.451,0,0,1,1.3-1.492,3.7,3.7,0,0,1,2-.531,3.39,3.39,0,0,1,2.363.852,3.043,3.043,0,0,1,1,2.211H23.758a1.992,1.992,0,0,0-.621-1.348,1.932,1.932,0,0,0-1.379-.527,2.023,2.023,0,0,0-1.707.793,3.724,3.724,0,0,0-.605,2.293v.273a3.65,3.65,0,0,0,.6,2.25A2.033,2.033,0,0,0,21.766,15.977ZM28.711,6.5V8.547h1.578V9.664H28.711v5.249a1.173,1.173,0,0,0,.211.763.888.888,0,0,0,.719.254,3.5,3.5,0,0,0,.688-.094V17a4.215,4.215,0,0,1-1.109.155,1.8,1.8,0,0,1-1.461-.586,2.517,2.517,0,0,1-.492-1.664V9.664H25.727V8.547h1.539V6.5Zm2.727,6.2a4.993,4.993,0,0,1,.488-2.234A3.643,3.643,0,0,1,33.285,8.93a3.7,3.7,0,0,1,1.988-.539,3.565,3.565,0,0,1,2.793,1.2,4.6,4.6,0,0,1,1.066,3.18v.1a5.036,5.036,0,0,1-.473,2.215,3.589,3.589,0,0,1-1.352,1.527,3.743,3.743,0,0,1-2.02.547,3.556,3.556,0,0,1-2.785-1.2A4.575,4.575,0,0,1,31.438,12.8Zm1.453.172a3.616,3.616,0,0,0,.652,2.258,2.211,2.211,0,0,0,3.5-.012,3.955,3.955,0,0,0,.648-2.418,3.61,3.61,0,0,0-.66-2.254,2.1,2.1,0,0,0-1.754-.863,2.075,2.075,0,0,0-1.727.852A3.925,3.925,0,0,0,32.891,12.867ZM45.031,9.844a4.331,4.331,0,0,0-.711-.055A1.9,1.9,0,0,0,42.391,11v6H40.945V8.547h1.406l.023.977a2.251,2.251,0,0,1,2.016-1.133,1.477,1.477,0,0,1,.641.109Zm4.836,7.313a3.693,3.693,0,0,1-2.8-1.129,4.19,4.19,0,0,1-1.078-3.02v-.266a5.073,5.073,0,0,1,.48-2.246,3.748,3.748,0,0,1,1.344-1.547,3.378,3.378,0,0,1,1.871-.559A3.166,3.166,0,0,1,52.25,9.477a4.7,4.7,0,0,1,.914,3.109v.6H47.438a3,3,0,0,0,.73,2.02,2.3,2.3,0,0,0,1.777.77,2.517,2.517,0,0,0,1.3-.312,3.259,3.259,0,0,0,.93-.828l.883.688A3.55,3.55,0,0,1,49.867,17.156Zm-.18-7.578a1.928,1.928,0,0,0-1.469.637A3.1,3.1,0,0,0,47.484,12h4.234v-.109a2.753,2.753,0,0,0-.594-1.707A1.815,1.815,0,0,0,49.688,9.578Zm10.07,5.18a1.064,1.064,0,0,0-.441-.91,4.249,4.249,0,0,0-1.539-.559,7.277,7.277,0,0,1-1.742-.562,2.479,2.479,0,0,1-.953-.781,1.869,1.869,0,0,1-.309-1.078,2.193,2.193,0,0,1,.879-1.758A3.432,3.432,0,0,1,57.9,8.391a3.532,3.532,0,0,1,2.332.742,2.357,2.357,0,0,1,.895,1.9H59.672a1.3,1.3,0,0,0-.5-1.023,1.888,1.888,0,0,0-1.27-.43,1.976,1.976,0,0,0-1.234.344,1.082,1.082,0,0,0-.445.9.877.877,0,0,0,.414.789,5.1,5.1,0,0,0,1.5.508,7.8,7.8,0,0,1,1.754.578,2.558,2.558,0,0,1,1,.809,1.988,1.988,0,0,1,.324,1.152,2.163,2.163,0,0,1-.906,1.816,3.8,3.8,0,0,1-2.352.684,4.257,4.257,0,0,1-1.8-.359,2.922,2.922,0,0,1-1.223-1,2.42,2.42,0,0,1-.441-1.395H55.93a1.5,1.5,0,0,0,.582,1.152,2.258,2.258,0,0,0,1.434.426,2.331,2.331,0,0,0,1.316-.332A1.02,1.02,0,0,0,59.758,14.758ZM66.7,12.7a4.952,4.952,0,0,1,.922-3.129,3.137,3.137,0,0,1,4.766-.168V5h1.445V17H72.5l-.07-.906a2.943,2.943,0,0,1-2.414,1.063,2.887,2.887,0,0,1-2.395-1.2,5.008,5.008,0,0,1-.926-3.141Zm1.445.164a3.749,3.749,0,0,0,.594,2.25,1.92,1.92,0,0,0,1.641.813A2.108,2.108,0,0,0,72.383,14.7V10.813a2.125,2.125,0,0,0-1.992-1.2,1.929,1.929,0,0,0-1.656.82A4.128,4.128,0,0,0,68.141,12.867Zm11.438,4.289a3.693,3.693,0,0,1-2.8-1.129,4.19,4.19,0,0,1-1.078-3.02v-.266a5.073,5.073,0,0,1,.48-2.246,3.748,3.748,0,0,1,1.344-1.547A3.378,3.378,0,0,1,79.4,8.391a3.166,3.166,0,0,1,2.563,1.086,4.7,4.7,0,0,1,.914,3.109v.6H77.148a3,3,0,0,0,.73,2.02,2.3,2.3,0,0,0,1.777.77,2.517,2.517,0,0,0,1.3-.312,3.259,3.259,0,0,0,.93-.828l.883.688A3.55,3.55,0,0,1,79.578,17.156ZM79.4,9.578a1.928,1.928,0,0,0-1.469.637A3.1,3.1,0,0,0,77.2,12H81.43v-.109a2.753,2.753,0,0,0-.594-1.707A1.815,1.815,0,0,0,79.4,9.578ZM90.078,17H88.633V8.547h1.445ZM88.516,6.3a.863.863,0,0,1,.215-.594.807.807,0,0,1,.637-.242.819.819,0,0,1,.641.242.854.854,0,0,1,.219.594.826.826,0,0,1-.219.586.834.834,0,0,1-.641.234.821.821,0,0,1-.637-.234A.834.834,0,0,1,88.516,6.3Zm5.242,2.242L93.8,9.609a3.08,3.08,0,0,1,2.531-1.219q2.68,0,2.7,3.023V17H97.594V11.406a1.946,1.946,0,0,0-.418-1.352A1.675,1.675,0,0,0,95.9,9.617a2.086,2.086,0,0,0-1.234.375,2.546,2.546,0,0,0-.828.984V17H92.391V8.547Zm8.828,0,.047,1.063a3.08,3.08,0,0,1,2.531-1.219q2.68,0,2.7,3.023V17h-1.445V11.406A1.946,1.946,0,0,0,106,10.055a1.675,1.675,0,0,0-1.277-.437,2.086,2.086,0,0,0-1.234.375,2.546,2.546,0,0,0-.828.984V17h-1.445V8.547Zm7.078,4.148a4.993,4.993,0,0,1,.488-2.234,3.643,3.643,0,0,1,1.359-1.531,3.7,3.7,0,0,1,1.988-.539,3.565,3.565,0,0,1,2.793,1.2,4.6,4.6,0,0,1,1.066,3.18v.1a5.036,5.036,0,0,1-.473,2.215,3.589,3.589,0,0,1-1.352,1.527,3.743,3.743,0,0,1-2.02.547,3.556,3.556,0,0,1-2.785-1.2,4.575,4.575,0,0,1-1.066-3.164Zm1.453.172a3.616,3.616,0,0,0,.652,2.258,2.211,2.211,0,0,0,3.5-.012,3.955,3.955,0,0,0,.648-2.418,3.61,3.61,0,0,0-.66-2.254,2.1,2.1,0,0,0-1.754-.863,2.075,2.075,0,0,0-1.727.852A3.925,3.925,0,0,0,111.117,12.867Zm10.727,2.172,2.094-6.492h1.477L122.383,17h-1.1l-3.062-8.453H119.7ZM131.906,17a3.036,3.036,0,0,1-.2-.891,3.225,3.225,0,0,1-2.406,1.047,2.984,2.984,0,0,1-2.051-.707,2.288,2.288,0,0,1-.8-1.793,2.39,2.39,0,0,1,1-2.051,4.733,4.733,0,0,1,2.824-.73h1.406v-.664A1.623,1.623,0,0,0,131.227,10a1.821,1.821,0,0,0-1.336-.449,2.107,2.107,0,0,0-1.3.391,1.151,1.151,0,0,0-.523.945h-1.453a2,2,0,0,1,.449-1.223,3.066,3.066,0,0,1,1.219-.934,4.1,4.1,0,0,1,1.691-.344,3.342,3.342,0,0,1,2.289.73,2.635,2.635,0,0,1,.859,2.012v3.891a4.757,4.757,0,0,0,.3,1.852V17Zm-2.4-1.1a2.54,2.54,0,0,0,1.289-.352,2.127,2.127,0,0,0,.883-.914V12.9h-1.133q-2.656,0-2.656,1.555a1.316,1.316,0,0,0,.453,1.063A1.742,1.742,0,0,0,129.508,15.9Zm9.273.078a2.082,2.082,0,0,0,1.352-.469,1.649,1.649,0,0,0,.641-1.172h1.367a2.621,2.621,0,0,1-.5,1.383,3.293,3.293,0,0,1-1.23,1.047,3.55,3.55,0,0,1-1.629.391A3.482,3.482,0,0,1,136.035,16a4.59,4.59,0,0,1-1.02-3.152v-.242a5.089,5.089,0,0,1,.453-2.2,3.451,3.451,0,0,1,1.3-1.492,3.7,3.7,0,0,1,2-.531,3.39,3.39,0,0,1,2.363.852,3.043,3.043,0,0,1,1,2.211h-1.367a1.992,1.992,0,0,0-.621-1.348,1.932,1.932,0,0,0-1.379-.527,2.023,2.023,0,0,0-1.707.793,3.724,3.724,0,0,0-.605,2.293v.273a3.65,3.65,0,0,0,.6,2.25A2.033,2.033,0,0,0,138.781,15.977ZM145.336,17h-1.445V8.547h1.445ZM143.773,6.3a.863.863,0,0,1,.215-.594.807.807,0,0,1,.637-.242.819.819,0,0,1,.641.242.854.854,0,0,1,.219.594.826.826,0,0,1-.219.586.834.834,0,0,1-.641.234.821.821,0,0,1-.637-.234A.834.834,0,0,1,143.773,6.3Zm3.492,6.391a4.993,4.993,0,0,1,.488-2.234,3.642,3.642,0,0,1,1.359-1.531,3.7,3.7,0,0,1,1.988-.539,3.565,3.565,0,0,1,2.793,1.2,4.6,4.6,0,0,1,1.066,3.18v.1a5.036,5.036,0,0,1-.473,2.215,3.589,3.589,0,0,1-1.352,1.527,3.743,3.743,0,0,1-2.02.547,3.556,3.556,0,0,1-2.785-1.2,4.575,4.575,0,0,1-1.066-3.164Zm1.453.172a3.616,3.616,0,0,0,.652,2.258,2.211,2.211,0,0,0,3.5-.012,3.954,3.954,0,0,0,.648-2.418,3.61,3.61,0,0,0-.66-2.254,2.1,2.1,0,0,0-1.754-.863,2.075,2.075,0,0,0-1.727.852A3.925,3.925,0,0,0,148.719,12.867ZM151.758,5h1.75l-2.094,2.3-1.164,0Zm6.383,3.547.047,1.063a3.08,3.08,0,0,1,2.531-1.219q2.68,0,2.7,3.023V17h-1.445V11.406a1.946,1.946,0,0,0-.418-1.352,1.675,1.675,0,0,0-1.277-.437,2.086,2.086,0,0,0-1.234.375,2.546,2.546,0,0,0-.828.984V17h-1.445V8.547ZM4.6,37.156a3.693,3.693,0,0,1-2.8-1.129,4.19,4.19,0,0,1-1.078-3.02v-.266a5.073,5.073,0,0,1,.48-2.246,3.748,3.748,0,0,1,1.344-1.547,3.378,3.378,0,0,1,1.871-.559,3.166,3.166,0,0,1,2.563,1.086A4.7,4.7,0,0,1,7.9,32.586v.6H2.172a3,3,0,0,0,.73,2.02,2.3,2.3,0,0,0,1.777.77,2.517,2.517,0,0,0,1.3-.312,3.259,3.259,0,0,0,.93-.828l.883.688A3.55,3.55,0,0,1,4.6,37.156Zm-.18-7.578a1.928,1.928,0,0,0-1.469.637A3.1,3.1,0,0,0,2.219,32H6.453v-.109a2.753,2.753,0,0,0-.594-1.707A1.815,1.815,0,0,0,4.422,29.578Zm6.516-1.031.047,1.063a3.08,3.08,0,0,1,2.531-1.219q2.68,0,2.7,3.023V37H14.773V31.406a1.946,1.946,0,0,0-.418-1.352,1.675,1.675,0,0,0-1.277-.437,2.086,2.086,0,0,0-1.234.375,2.546,2.546,0,0,0-.828.984V37H9.57V28.547Zm14.93,8.609a3.693,3.693,0,0,1-2.8-1.129,4.19,4.19,0,0,1-1.078-3.02v-.266a5.073,5.073,0,0,1,.48-2.246,3.748,3.748,0,0,1,1.344-1.547,3.378,3.378,0,0,1,1.871-.559,3.166,3.166,0,0,1,2.563,1.086,4.7,4.7,0,0,1,.914,3.109v.6H23.438a3,3,0,0,0,.73,2.02,2.3,2.3,0,0,0,1.777.77,2.517,2.517,0,0,0,1.3-.312,3.259,3.259,0,0,0,.93-.828l.883.688A3.55,3.55,0,0,1,25.867,37.156Zm-.18-7.578a1.928,1.928,0,0,0-1.469.637A3.1,3.1,0,0,0,23.484,32h4.234v-.109a2.753,2.753,0,0,0-.594-1.707A1.815,1.815,0,0,0,25.688,29.578ZM32.406,37H30.961V25h1.445Zm7.633-8.453.039.938a3.122,3.122,0,0,1,2.508-1.094A2.417,2.417,0,0,1,45,29.75a3.2,3.2,0,0,1,1.1-.984,3.242,3.242,0,0,1,1.6-.375q2.781,0,2.828,2.945V37H49.078V31.422a1.941,1.941,0,0,0-.414-1.355,1.823,1.823,0,0,0-1.391-.449,1.916,1.916,0,0,0-1.336.48,1.949,1.949,0,0,0-.617,1.293V37H43.867V31.461a1.613,1.613,0,0,0-1.8-1.844,1.934,1.934,0,0,0-1.945,1.211V37H38.672V28.547Zm16.172,8.609a3.693,3.693,0,0,1-2.8-1.129,4.19,4.19,0,0,1-1.078-3.02v-.266a5.073,5.073,0,0,1,.48-2.246,3.748,3.748,0,0,1,1.344-1.547,3.378,3.378,0,0,1,1.871-.559,3.166,3.166,0,0,1,2.563,1.086,4.7,4.7,0,0,1,.914,3.109v.6H53.781a3,3,0,0,0,.73,2.02,2.3,2.3,0,0,0,1.777.77,2.517,2.517,0,0,0,1.3-.312,3.258,3.258,0,0,0,.93-.828l.883.688A3.55,3.55,0,0,1,56.211,37.156Zm-.18-7.578a1.928,1.928,0,0,0-1.469.637A3.1,3.1,0,0,0,53.828,32h4.234v-.109a2.753,2.753,0,0,0-.594-1.707A1.815,1.815,0,0,0,56.031,29.578Zm9.234.266a4.331,4.331,0,0,0-.711-.055A1.9,1.9,0,0,0,62.625,31v6H61.18V28.547h1.406l.023.977a2.251,2.251,0,0,1,2.016-1.133,1.477,1.477,0,0,1,.641.109Zm4.57,6.133a2.082,2.082,0,0,0,1.352-.469,1.649,1.649,0,0,0,.641-1.172H73.2a2.621,2.621,0,0,1-.5,1.383,3.293,3.293,0,0,1-1.23,1.047,3.55,3.55,0,0,1-1.629.391A3.482,3.482,0,0,1,67.09,36a4.59,4.59,0,0,1-1.02-3.152v-.242a5.089,5.089,0,0,1,.453-2.2,3.451,3.451,0,0,1,1.3-1.492,3.7,3.7,0,0,1,2-.531,3.39,3.39,0,0,1,2.363.852,3.043,3.043,0,0,1,1,2.211H71.828a1.992,1.992,0,0,0-.621-1.348,1.932,1.932,0,0,0-1.379-.527,2.023,2.023,0,0,0-1.707.793,3.724,3.724,0,0,0-.605,2.293v.273a3.65,3.65,0,0,0,.6,2.25A2.033,2.033,0,0,0,69.836,35.977ZM80.039,37a3.036,3.036,0,0,1-.2-.891,3.225,3.225,0,0,1-2.406,1.047,2.984,2.984,0,0,1-2.051-.707,2.288,2.288,0,0,1-.8-1.793,2.39,2.39,0,0,1,1-2.051,4.733,4.733,0,0,1,2.824-.73h1.406v-.664A1.623,1.623,0,0,0,79.359,30a1.821,1.821,0,0,0-1.336-.449,2.108,2.108,0,0,0-1.3.391,1.151,1.151,0,0,0-.523.945H74.75a2,2,0,0,1,.449-1.223,3.066,3.066,0,0,1,1.219-.934,4.1,4.1,0,0,1,1.691-.344,3.342,3.342,0,0,1,2.289.73,2.635,2.635,0,0,1,.859,2.012v3.891a4.757,4.757,0,0,0,.3,1.852V37Zm-2.4-1.1a2.54,2.54,0,0,0,1.289-.352,2.127,2.127,0,0,0,.883-.914V32.9H78.68q-2.656,0-2.656,1.555a1.316,1.316,0,0,0,.453,1.063A1.742,1.742,0,0,0,77.641,35.9Zm5.531-3.2a4.952,4.952,0,0,1,.922-3.129,3.137,3.137,0,0,1,4.766-.168V25H90.3V37H88.977l-.07-.906a2.943,2.943,0,0,1-2.414,1.063,2.887,2.887,0,0,1-2.395-1.2,5.008,5.008,0,0,1-.926-3.141Zm1.445.164a3.749,3.749,0,0,0,.594,2.25,1.92,1.92,0,0,0,1.641.813A2.108,2.108,0,0,0,88.859,34.7V30.813a2.125,2.125,0,0,0-1.992-1.2,1.929,1.929,0,0,0-1.656.82A4.128,4.128,0,0,0,84.617,32.867Zm7.547-.172a4.993,4.993,0,0,1,.488-2.234,3.643,3.643,0,0,1,1.359-1.531A3.7,3.7,0,0,1,96,28.391a3.565,3.565,0,0,1,2.793,1.2,4.6,4.6,0,0,1,1.066,3.18v.1a5.036,5.036,0,0,1-.473,2.215,3.589,3.589,0,0,1-1.352,1.527,3.743,3.743,0,0,1-2.02.547,3.556,3.556,0,0,1-2.785-1.2A4.575,4.575,0,0,1,92.164,32.8Zm1.453.172a3.616,3.616,0,0,0,.652,2.258,2.211,2.211,0,0,0,3.5-.012,3.955,3.955,0,0,0,.648-2.418,3.61,3.61,0,0,0-.66-2.254A2.1,2.1,0,0,0,96,29.578a2.075,2.075,0,0,0-1.727.852A3.925,3.925,0,0,0,93.617,32.867Z" transform="translate(1024.749 4739.151)" fill="#12263f"/>
  </g>
</svg>
