<svg xmlns="http://www.w3.org/2000/svg" xmlns:xlink="http://www.w3.org/1999/xlink" width="433.742" height="233.075" viewBox="0 0 433.742 233.075">
  <defs>
    <filter id="Trazado_228304" x="0" y="0" width="433.742" height="233.075" filterUnits="userSpaceOnUse">
      <feOffset dy="3" input="SourceAlpha"/>
      <feGaussianBlur stdDeviation="5" result="blur"/>
      <feFlood flood-opacity="0.161"/>
      <feComposite operator="in" in2="blur"/>
      <feComposite in="SourceGraphic"/>
    </filter>
    <clipPath id="clip-path">
      <rect id="Rectángulo_56246" data-name="Rectángulo 56246" width="85.456" height="90.467" fill="#12263f"/>
    </clipPath>
  </defs>
  <g id="Grupo_179425" data-name="Grupo 179425" transform="translate(-166.212 -4193.489)">
    <g transform="matrix(1, 0, 0, 1, 166.21, 4193.49)" filter="url(#Trazado_228304)">
      <path id="Trazado_228304-2" data-name="Trazado 228304" d="M0,0H341.742a62,62,0,0,1,62,62V203.075H62a62,62,0,0,1-62-62Z" transform="translate(15 12)" fill="#f6f6f6"/>
    </g>
    <path id="Trazado_228305" data-name="Trazado 228305" d="M47.66,2.051q-42,0-42-58.98,0-30.6,11.361-46.635T49.957-119.6q41.016,0,41.016,59.965,0,29.859-11.2,45.773T47.66,2.051ZM48.809-99.832q-16.816,0-16.816,42.246Q31.992-17.8,48.48-17.8q16.078,0,16.078-41.016T48.809-99.832Zm116.074-20.426V0h-25.84V-91.055A30.944,30.944,0,0,1,134-87.486a52.081,52.081,0,0,1-6.193,3.035,55.3,55.3,0,0,1-6.809,2.3,49.728,49.728,0,0,1-6.973,1.354v-21.82a107.789,107.789,0,0,0,19.031-7.547,108.3,108.3,0,0,0,16.16-10.09Z" transform="translate(387.878 4390.076)" fill="#e2e5e8"/>
    <g id="Grupo_157314" data-name="Grupo 157314" transform="translate(0.878 2014.076)">
      <text id="Analizar_la_situación" data-name="Analizar la situación" transform="translate(225.257 2324.299)" fill="#12263f" font-size="16" font-family="SegoeUI, Segoe UI"><tspan x="0" y="17">Analizar la situación</tspan></text>
    </g>
    <g id="Grupo_175599" data-name="Grupo 175599" transform="translate(226.135 4228.8)">
      <g id="Grupo_175599-2" data-name="Grupo 175599" clip-path="url(#clip-path)">
        <path id="Trazado_217779" data-name="Trazado 217779" d="M72.07,39.57c1.846-1.435,1.867-1.438,3.6.288,2.658,2.652,5.334,5.286,7.954,7.976a6.11,6.11,0,0,1,1.5,6.4,6.039,6.039,0,0,1-4.749,4.332A5.931,5.931,0,0,1,74.891,57.2c-1.525-1.389-2.948-2.889-4.417-4.339-.132-.13-.271-.252-.5-.463V72.616H72.45q4.547,0,9.094.006c1.284,0,1.737.457,1.74,1.744.006,2.656.018,5.311,0,7.967a8.045,8.045,0,0,1-7.808,8.108c-.4.019-.8.023-1.207.023H15.442q-3.455,0-6.909,0A8.106,8.106,0,0,1,0,81.93Q0,45.193,0,8.457A8.04,8.04,0,0,1,5.745.355,8.409,8.409,0,0,1,8.118.014Q34.957-.013,61.795,0a8.065,8.065,0,0,1,8.1,8.061c.009,2.468-.017,4.936.019,7.4a2.417,2.417,0,0,0,.395,1.244q6.72,9.98,1.242,20.675c-.662,1.288-.689,1.274.516,2.185M69.017,87.631c-1.727-2.114-1.989-4.4-1.979-6.822.04-10.166.014-20.332.025-30.5a1.782,1.782,0,0,0-.541-1.423c-1.674-1.629-1.662-1.7-.264-3.519l-1.034-1.153A19.279,19.279,0,0,1,39.709,15.973a19.586,19.586,0,0,1,27.344-2.853c0-1.592-.005-3.107,0-4.623a5.279,5.279,0,0,0-5.672-5.672H8.593c-3.573,0-5.77,2.186-5.776,5.758Q2.8,18.561,2.792,28.539q0,12.03.02,24.061.006,14.606,0,29.212c0,3.635,2.192,5.82,5.806,5.82h9.087l50.054,0h1.254m2.137-59.588a16.392,16.392,0,1,0-16.53,16.395,16.388,16.388,0,0,0,16.53-16.395m9.289,47.441h-10.5c0,2.574-.125,5.1.036,7.6a5.168,5.168,0,0,0,4.8,4.537,5.248,5.248,0,0,0,5.424-3.78,11.211,11.211,0,0,0,.226-2.627c.031-1.9.01-3.794.01-5.733M68.874,47.113c2.606,2.628,5.218,5.351,7.935,7.965a3.551,3.551,0,0,0,4.98-5.009c-.766-.891-1.635-1.695-2.461-2.534q-2.723-2.77-5.442-5.527l-5.013,5.107m-1.188-4.706.634.875,1.712-1.633-.74-.725-1.607,1.483" transform="translate(0 0)" fill="#12263f"/>
        <path id="Trazado_217780" data-name="Trazado 217780" d="M87.415,405.369h4.164c.02-.358.056-.695.057-1.033q.005-7.6,0-15.208c0-1.35.437-1.787,1.769-1.789q2.253,0,4.506,0c1.4,0,1.838.422,1.839,1.809q.006,7.644,0,15.289v.962c.846,0,1.615,0,2.384,0,1.224,0,1.876.474,1.9,1.364.022.954-.638,1.476-1.874,1.476l-21,0H52.276a5.8,5.8,0,0,1-.643-.009,1.406,1.406,0,0,1-1.318-1.454,1.374,1.374,0,0,1,1.4-1.369c.908-.029,1.817-.007,2.819-.007.022-.329.055-.609.056-.889q.008-2.414,0-4.828c0-1.457.412-1.9,1.832-1.907q2.374-.014,4.747,0c1.076.008,1.555.494,1.564,1.582.014,1.931.013,3.862.021,5.793a.75.75,0,0,0,.077.195h4.1v-.917q0-5.995,0-11.99c0-1.474.445-1.919,1.911-1.922,1.529,0,3.058-.013,4.587,0,1.176.013,1.658.5,1.66,1.676q.011,6.075,0,12.151v1h4.189V404.5c0-2.709,0-5.418,0-8.127,0-1.339.452-1.791,1.781-1.8q2.333-.012,4.667,0c1.206.006,1.68.5,1.681,1.727q.005,4.064,0,8.127v.943m9.47-15.18H94.513v15.179h2.371Zm-27.05,15.149H72.2V393.373H69.834Zm14.735-7.9h-2.39v7.893h2.39Zm-24.73,3.208H57.493v4.711h2.346Z" transform="translate(-42.215 -324.985)" fill="#12263f"/>
        <path id="Trazado_217781" data-name="Trazado 217781" d="M80.134,321.715c.741.272,1.475.568,2.228.8a1.306,1.306,0,0,0,.9.029c1.522-.847,3.022-1.734,4.5-2.65a1,1,0,0,0,.4-.731,4.264,4.264,0,0,1,8.464-.979,1.1,1.1,0,0,0,.584.684c1.227.461,2.473.875,3.73,1.248a1,1,0,0,0,.806-.211,4.24,4.24,0,0,1,5.324-.578,1.075,1.075,0,0,0,.894,0c1.5-.831,2.965-1.725,4.456-2.572a.823.823,0,0,0,.467-.892,4.167,4.167,0,0,1,4.4-4.446,4.228,4.228,0,1,1-.87,8.394,3.044,3.044,0,0,1-1.331-.513,1.106,1.106,0,0,0-1.437,0c-1.416.865-2.862,1.681-4.265,2.566a1.129,1.129,0,0,0-.425.821,4.2,4.2,0,0,1-4,4.455,4.308,4.308,0,0,1-4.416-3.651.993.993,0,0,0-.531-.629q-1.844-.684-3.731-1.249a1.008,1.008,0,0,0-.814.189,4.284,4.284,0,0,1-5.4.58,1.083,1.083,0,0,0-.9.033c-1.45.81-2.862,1.689-4.308,2.506a.958.958,0,0,0-.567,1,4.142,4.142,0,0,1-3.959,4.4,4.192,4.192,0,0,1-4.485-3.889,4.451,4.451,0,0,1,4.281-4.722m1.35,4.385a1.406,1.406,0,1,0-1.437,1.414,1.429,1.429,0,0,0,1.437-1.414m10.947-5.865a1.39,1.39,0,0,0,1.381-1.453,1.393,1.393,0,1,0-2.784.1,1.389,1.389,0,0,0,1.4,1.349m24.654-3.15a1.421,1.421,0,0,0,.084-2.841,1.445,1.445,0,0,0-1.474,1.375,1.466,1.466,0,0,0,1.389,1.466m-12.329,7.22a1.4,1.4,0,1,0-1.4-1.455,1.455,1.455,0,0,0,1.4,1.455" transform="translate(-63.625 -261.291)" fill="#12263f"/>
        <path id="Trazado_217782" data-name="Trazado 217782" d="M66.008,57.426q-6.994,0-13.989.005a1.656,1.656,0,0,1-1.6-.7,1.425,1.425,0,0,1,1.037-2.138,5.184,5.184,0,0,1,.8-.024q13.788,0,27.575,0a4.328,4.328,0,0,1,.88.053,1.289,1.289,0,0,1,1.105,1.294,1.308,1.308,0,0,1-1.027,1.436,3.23,3.23,0,0,1-.875.074q-6.954.006-13.908,0" transform="translate(-42.131 -45.779)" fill="#12263f"/>
        <path id="Trazado_217783" data-name="Trazado 217783" d="M64.313,256.509q6.11,0,12.22,0c1.106,0,1.756.538,1.741,1.428-.014.854-.647,1.394-1.711,1.394q-12.3.01-24.6,0c-1.062,0-1.666-.556-1.648-1.442s.607-1.378,1.7-1.379q6.15,0,12.3,0" transform="translate(-42.215 -215.217)" fill="#12263f"/>
        <path id="Trazado_217784" data-name="Trazado 217784" d="M63.113,108.028q-5.591,0-11.183,0c-1.021,0-1.615-.509-1.631-1.369-.016-.9.582-1.432,1.647-1.432q11.185-.006,22.37,0c1.2,0,1.85.708,1.626,1.726-.157.712-.664,1.073-1.563,1.074q-5.633.007-11.267,0" transform="translate(-42.202 -88.285)" fill="#12263f"/>
        <path id="Trazado_217785" data-name="Trazado 217785" d="M62.267,208.705q-5.109,0-10.219,0c-1.132,0-1.767-.512-1.769-1.405s.635-1.439,1.748-1.44q10.139-.007,20.277,0a4.512,4.512,0,0,1,.641.04,1.4,1.4,0,0,1,1.3,1.468,1.387,1.387,0,0,1-1.439,1.33c-2.414.018-4.828.008-7.242.009h-3.3" transform="translate(-42.185 -172.719)" fill="#12263f"/>
        <path id="Trazado_217786" data-name="Trazado 217786" d="M61.919,158.31q-4.864,0-9.729,0a3.58,3.58,0,0,1-.8-.048,1.312,1.312,0,0,1-1.09-1.229,1.2,1.2,0,0,1,.847-1.381,3.266,3.266,0,0,1,1.016-.172q9.849-.015,19.7-.006c1.324,0,2.069.929,1.609,1.99a1.5,1.5,0,0,1-1.584.851q-4.985-.012-9.97,0" transform="translate(-42.197 -130.443)" fill="#12263f"/>
        <path id="Trazado_217787" data-name="Trazado 217787" d="M269.394,116.919a13.587,13.587,0,1,1,13.53-13.587,13.553,13.553,0,0,1-13.53,13.587m-.126-2.845a10.744,10.744,0,1,0-10.653-11.065,10.722,10.722,0,0,0,10.653,11.065" transform="translate(-214.602 -75.299)" fill="#12263f"/>
      </g>
    </g>
  </g>
</svg>
