<svg xmlns="http://www.w3.org/2000/svg" xmlns:xlink="http://www.w3.org/1999/xlink" width="572.369" height="540.798" viewBox="0 0 572.369 540.798">
  <defs>
    <linearGradient id="linear-gradient" x1="0.5" x2="0.5" y2="1" gradientUnits="objectBoundingBox">
      <stop offset="0" stop-color="#f5f5f5"/>
      <stop offset="0.25" stop-color="#f5f5f5"/>
      <stop offset="1" stop-color="#afafaf"/>
    </linearGradient>
    <clipPath id="clip-path">
      <rect id="Rectángulo_52374" data-name="Rectángulo 52374" width="543.75" height="500.532" transform="translate(0)" fill="#ffde96"/>
    </clipPath>
    <clipPath id="clip-path-2">
      <rect id="Rectángulo_52373" data-name="Rectángulo 52373" width="543.75" height="499.961" fill="url(#linear-gradient)"/>
    </clipPath>
    <linearGradient id="linear-gradient-3" x1="0.5" x2="0.5" y2="1" gradientUnits="objectBoundingBox">
      <stop offset="0" stop-color="#ff5983"/>
      <stop offset="1" stop-color="#7e137c"/>
    </linearGradient>
    <linearGradient id="linear-gradient-4" x1="0.5" x2="0.5" y2="1" gradientUnits="objectBoundingBox">
      <stop offset="0" stop-color="#067eff"/>
      <stop offset="1" stop-color="#276499"/>
    </linearGradient>
    <clipPath id="clip-path-3">
      <rect id="Rectángulo_52593" data-name="Rectángulo 52593" width="144.975" height="144.958" fill="#12263f"/>
    </clipPath>
    <clipPath id="clip-path-4">
      <rect id="Rectángulo_52595" data-name="Rectángulo 52595" width="79.044" height="80.321" fill="#12263f"/>
    </clipPath>
    <linearGradient id="linear-gradient-5" x1="0.5" x2="0.5" y2="1" gradientUnits="objectBoundingBox">
      <stop offset="0" stop-color="#f5f5f5"/>
      <stop offset="0.25" stop-color="#f5f5f5"/>
      <stop offset="1" stop-color="#a7b3cf"/>
    </linearGradient>
  </defs>
  <g id="Grupo_179425" data-name="Grupo 179425" transform="translate(-220 -5922.227)">
    <g id="Grupo_169380" data-name="Grupo 169380" transform="translate(220 5962.492)" clip-path="url(#clip-path)">
      <path id="Trazado_210920" data-name="Trazado 210920" d="M2.252,260.362c6.7-53.172,27.735-106.068,55.111-149.322C92.975,54.772,149.872,9.629,217.377,1.263c47.778-5.922,102.257,9.163,139.206,41.518a143.955,143.955,0,0,1,40.889,59.054c9.043,24.826,12.9,53.277,32.381,72.766,23.417,23.42,55.757,34.628,79.95,56.984,53.64,49.571,37.981,139.109-7.206,188.567-40.675,44.518-101.022,36.283-155.283,44.675-41.191,6.369-76.84,29.6-118.938,33.992-60.905,6.361-123.784-14.031-168.458-56.138C7.9,393.653-6.114,326.793,2.252,260.362" transform="translate(0.001 0)" fill="#ffde96"/>
      <g id="Grupo_169379" data-name="Grupo 169379" transform="translate(21.985 -8.1)" opacity="0.7">
        <g id="Grupo_169378" data-name="Grupo 169378" style="isolation: isolate">
          <g id="Grupo_169377" data-name="Grupo 169377" clip-path="url(#clip-path-2)">
            <path id="Trazado_210921" data-name="Trazado 210921" d="M2.252,260.362c6.7-53.172,27.735-106.068,55.111-149.322C92.975,54.772,149.872,9.629,217.377,1.263c47.778-5.922,102.257,9.163,139.206,41.518a143.955,143.955,0,0,1,40.889,59.054c9.043,24.826,12.9,53.277,32.381,72.766,23.417,23.42,55.757,34.628,79.95,56.984,53.64,49.571,37.981,139.109-7.206,188.567-40.675,44.518-101.022,36.283-155.283,44.675-41.191,6.369-76.84,29.6-118.938,33.992-60.905,6.361-123.784-14.031-168.458-56.138C7.9,393.653-6.114,326.793,2.252,260.362" transform="translate(0.001 0)" fill="url(#linear-gradient)"/>
          </g>
        </g>
      </g>
    </g>
    <g id="Grupo_169381" data-name="Grupo 169381" transform="translate(230.764 5922.227)">
      <g id="Grupo_155454" data-name="Grupo 155454" transform="translate(25.104 76.864)">
        <path id="Trazado_195864" data-name="Trazado 195864" d="M335.735,69.555c-.329,12.415-8.183,24.975-19.558,28.886-6.193,2.129-12.852,1.71-19.17,3.321s-12.914,6.433-13.282,13.192c-.092,1.715.228,3.454-.179,5.128-1.094,4.5-6.343,6.013-10.449,7.818-21.732,9.561-10.594,33.293,11.48,41.318,9.869,3.588,14.2,4.205,24.708,2.687,10.38-1.5,20.021-7.464,27.512-15.348s12.993-17.6,17.4-27.669c5.074-11.592,8.851-24.424,6.65-36.708S348.89,68.674,335.735,69.555Z" transform="translate(-260.465 -68.612)" fill="#12263f"/>
        <path id="Trazado_195865" data-name="Trazado 195865" d="M300.76,173.965c-5.379,0-9.546-1.132-16.09-3.512-13.45-4.89-23.458-15.943-23.8-26.288-.235-7.177,4.12-13.1,12.264-16.684.581-.256,1.185-.506,1.8-.758,3.595-1.486,7.311-3.024,8.143-6.453a11.208,11.208,0,0,0,.162-3.019c-.02-.634-.042-1.287-.005-1.946.4-7.286,7.51-12.368,13.95-14.01a62.437,62.437,0,0,1,8.649-1.365,48.311,48.311,0,0,0,10.453-1.936c10.651-3.662,18.625-15.465,18.957-28.064a.9.9,0,0,1,.832-.868c14.029-.937,23.9,11.334,26.051,23.359,1.9,10.6-.235,22.426-6.713,37.222-5.153,11.776-10.9,20.911-17.57,27.927-8.214,8.643-18.17,14.188-28.03,15.615A63.706,63.706,0,0,1,300.76,173.965ZM336.993,70.806c-.672,13-9.032,25.064-20.127,28.877a49.751,49.751,0,0,1-10.839,2.022,61.278,61.278,0,0,0-8.4,1.318c-5.828,1.486-12.262,5.993-12.608,12.377-.033.583-.013,1.17.007,1.791a12.778,12.778,0,0,1-.211,3.5c-1.047,4.314-5.377,6.1-9.2,7.685-.6.247-1.19.491-1.76.742-7.538,3.317-11.411,8.5-11.2,14.99.318,9.646,9.832,20.021,22.624,24.67,9.525,3.463,13.62,4.182,24.274,2.642,9.467-1.369,19.053-6.722,26.994-15.077,6.524-6.865,12.159-15.831,17.229-27.413,6.329-14.459,8.423-25.959,6.59-36.193C358.393,81.706,349.574,70.421,336.993,70.806Z" transform="translate(-260.863 -69.011)"/>
      </g>
      <g id="Grupo_155455" data-name="Grupo 155455" transform="translate(123.595 78.396)">
        <path id="Trazado_195866" data-name="Trazado 195866" d="M347.687,71.518c2.1-2.459,7.419-.72,7.284,2.38-.323,7.434.739,14.295,6.415,22.231,2.8,3.911,6.531,7.475,8.956,11.5,2.882,4.79,3.763,9.989,3.967,15.032.388,9.53-1.744,19.3-9.25,26.1s-21.387,9.732-32.719,4.873a26.817,26.817,0,0,1-16.334-21.754c-.728-8.387,2.618-16.243,6.275-23.729C329.158,94.075,337.841,83.066,347.687,71.518Z" transform="translate(-315.012 -69.462)" fill="#12263f"/>
        <path id="Trazado_195867" data-name="Trazado 195867" d="M344.9,157.309a31.9,31.9,0,0,1-12.515-2.454c-9.411-4.034-16.034-12.865-16.87-22.5-.76-8.755,2.726-16.754,6.361-24.2,6.554-13.419,14.629-24.04,25.529-36.825h0c1.462-1.714,3.961-1.755,5.79-1.036a4.3,4.3,0,0,1,3.064,4.036c-.276,6.332.291,13.34,6.249,21.673,1.152,1.611,2.5,3.2,3.8,4.74a54.18,54.18,0,0,1,5.191,6.822c2.537,4.214,3.839,9.126,4.1,15.456.473,11.615-2.739,20.631-9.543,26.8C360.7,154.682,352.771,157.309,344.9,157.309Zm3.864-84.814h0c-10.81,12.679-18.811,23.2-25.284,36.45-3.525,7.219-6.908,14.961-6.186,23.26.78,8.985,6.98,17.233,15.8,21.012,11.715,5.023,25.112,1.32,31.768-4.714,6.394-5.8,9.409-14.342,8.959-25.407-.245-6.016-1.466-10.658-3.842-14.606a52.793,52.793,0,0,0-5.023-6.589c-1.327-1.565-2.7-3.185-3.893-4.855-6.274-8.773-6.87-16.138-6.58-22.79.047-1.11-.968-1.914-1.936-2.295C351.345,71.489,349.651,71.455,348.764,72.495Z" transform="translate(-315.411 -69.859)"/>
      </g>
      <g id="Grupo_155456" data-name="Grupo 155456" transform="translate(108.808 113.938)">
        <path id="Trazado_195868" data-name="Trazado 195868" d="M333.62,122.341a207.5,207.5,0,0,1,2.289-27.965,39.907,39.907,0,0,0-11.337-4.068c-1.777-.345-3.786-.522-5.195.511a6.474,6.474,0,0,0-1.824,2.642q-4.683,10.07-9.369,20.138a2.791,2.791,0,0,0,.672,3.8A21.6,21.6,0,0,0,333.62,122.341Z" transform="translate(-306.823 -89.145)" fill="#fff"/>
        <path id="Trazado_195869" data-name="Trazado 195869" d="M325.125,125.611a22.3,22.3,0,0,1-16.536-7.219,3.641,3.641,0,0,1-.816-4.772l9.369-20.136a7.276,7.276,0,0,1,2.105-2.985c1.732-1.273,4.059-1.024,5.894-.668a40.624,40.624,0,0,1,11.59,4.158.9.9,0,0,1,.46.9,206.277,206.277,0,0,0-2.282,27.846.893.893,0,0,1-.507.807A21.525,21.525,0,0,1,325.125,125.611Zm-2.544-34.283a3.8,3.8,0,0,0-2.277.61,5.825,5.825,0,0,0-1.544,2.3l-9.369,20.136a3.042,3.042,0,0,0-.385,1.226,2.956,2.956,0,0,0,.912,1.6,20.855,20.855,0,0,0,23.206,4.967,207.738,207.738,0,0,1,2.217-26.9A38.749,38.749,0,0,0,324.8,91.584,11.807,11.807,0,0,0,322.581,91.328Z" transform="translate(-307.221 -89.544)"/>
      </g>
      <g id="Grupo_155457" data-name="Grupo 155457" transform="translate(25.079 135.051)">
        <path id="Trazado_195870" data-name="Trazado 195870" d="M261.018,187.6c3.989-16.38,20.907-57.043,35.056-70.9,10.673-10.456,35.487-14.443,50.972-15.465,2.613,6.471,10.1,13.643,16.839,12.894,3.508-.39,6.867-2.889,8.981-6.666,12.072,6.132,24.4,12.451,33.837,22.523,13.49,14.4,19.717,37.519,25.351,57.768-13.394-.561-25.517.809-38.909.247-7.17-.3-15.962-1.015-23.137-1.011C346.712,187.007,256.425,206.471,261.018,187.6Z" transform="translate(-260.849 -101.237)" fill="#fff"/>
      </g>
      <g id="Grupo_155458" data-name="Grupo 155458" transform="translate(96.702 46.814)">
        <path id="Trazado_195871" data-name="Trazado 195871" d="M376.243,75.053c-2.6,7.916-5.839,16.126-5.256,24.6.32,4.624-3.994,27.015-23.173,30.022a35.485,35.485,0,0,1-29.453-8.891c-5.861-5.251-11.552-19.221-7.634-31.291-5.758.491-10.474-4.214-9.615-9.149.5-2.844,4.29-5.812,7.567-5.03,2.533.607,2.835.69,4.5,2.54a76.2,76.2,0,0,0,5.478-18.007c7.506-5.684,18.135-7.313,28.389-6.935a37.544,37.544,0,0,1,10.1,1.5C366.5,57.406,378.912,66.922,376.243,75.053Z" transform="translate(-300.119 -51.97)" fill="#fff"/>
        <path id="Trazado_195872" data-name="Trazado 195872" d="M342.6,131.41a36.3,36.3,0,0,1-24.433-9.561c-5.773-5.173-11.637-18.636-8.244-31.036a10.178,10.178,0,0,1-7.109-3.234,8.238,8.238,0,0,1-2.179-6.988,7.463,7.463,0,0,1,3.335-4.608,6.922,6.922,0,0,1,5.319-1.136c2.125.507,2.862.711,4.007,1.811A74.482,74.482,0,0,0,318.178,60.1a.885.885,0,0,1,.341-.56c8.515-6.45,20.448-7.434,28.96-7.118a38.86,38.86,0,0,1,10.341,1.542c6.672,2.134,15.523,7.854,18.785,14.248a9.589,9.589,0,0,1,.883,7.519h0q-.474,1.446-.97,2.9c-2.331,6.928-4.743,14.091-4.243,21.36.394,5.7-4.593,27.933-23.926,30.966A37.235,37.235,0,0,1,342.6,131.41ZM311.125,89a.893.893,0,0,1,.849,1.168c-3.842,11.839,1.925,25.461,7.381,30.35a34.411,34.411,0,0,0,28.718,8.674c19.363-3.037,22.639-25.927,22.422-29.079-.524-7.625,1.945-14.958,4.332-22.052.327-.968.652-1.932.966-2.891h0a7.883,7.883,0,0,0-.776-6.15c-3.044-5.966-11.411-11.336-17.74-13.36a37.112,37.112,0,0,0-9.862-1.459c-8.127-.3-19.459.6-27.537,6.547a77.231,77.231,0,0,1-5.48,17.861.889.889,0,0,1-.674.524.9.9,0,0,1-.807-.283c-1.5-1.659-1.591-1.683-4.046-2.27a5.146,5.146,0,0,0-3.922.892A5.724,5.724,0,0,0,302.39,80.9a6.473,6.473,0,0,0,1.737,5.476,8.443,8.443,0,0,0,6.923,2.631C311.075,89,311.1,89,311.125,89Z" transform="translate(-300.517 -52.368)"/>
      </g>
      <g id="Grupo_155459" data-name="Grupo 155459" transform="translate(112.007)">
        <path id="Trazado_195873" data-name="Trazado 195873" d="M311.87,38.254a21.045,21.045,0,1,1,8.936,28.389A21.046,21.046,0,0,1,311.87,38.254Z" transform="translate(-308.598 -26.046)" fill="#12263f"/>
        <path id="Trazado_195874" data-name="Trazado 195874" d="M330.89,70.312a21.932,21.932,0,0,1-19.416-32.075h0A21.937,21.937,0,1,1,330.89,70.312Zm-17.834-31.25A20.153,20.153,0,1,0,340.241,30.5a20.177,20.177,0,0,0-27.185,8.559Z" transform="translate(-308.993 -26.441)"/>
      </g>
      <g id="Grupo_155460" data-name="Grupo 155460" transform="translate(100.946 29.645)">
        <path id="Trazado_195875" data-name="Trazado 195875" d="M311.7,85.878a76.518,76.518,0,0,0,20.232-22.35c14.409,17.836,32.674,22.521,50.645,28.451a18.317,18.317,0,0,0,1.844-9.517c-.453-8.136-2.015-15.615-10.926-24.376C367.253,51.947,358,45.962,349.444,44.1c-8.5-1.845-17.058-.079-24.657,3.044a36.989,36.989,0,0,0-16.252,14.131c-3.3,5.346-5.518,15.214-5.128,22.059a5.519,5.519,0,0,1,4.463-.094A12.8,12.8,0,0,1,311.7,85.878Z" transform="translate(-302.468 -42.462)" fill="#12263f"/>
        <path id="Trazado_195876" data-name="Trazado 195876" d="M382.978,93.271a.881.881,0,0,1-.28-.045q-2.294-.756-4.588-1.5c-15.958-5.164-32.445-10.5-45.664-26.261a77.676,77.676,0,0,1-19.813,21.521.89.89,0,0,1-1.138-.06,11.8,11.8,0,0,0-3.526-2.448,4.588,4.588,0,0,0-3.792.063.892.892,0,0,1-1.264-.76c-.41-7.226,1.9-17.144,5.261-22.579a37.674,37.674,0,0,1,16.673-14.486c9.043-3.718,17.516-4.756,25.185-3.091,9.49,2.062,18.872,8.7,24.488,14.217,8.634,8.488,10.684,15.844,11.191,24.964a19.231,19.231,0,0,1-1.943,9.981A.9.9,0,0,1,382.978,93.271ZM332.333,63.034a.89.89,0,0,1,.693.332c13.017,16.111,29.6,21.476,45.633,26.665q1.928.626,3.859,1.257a17.838,17.838,0,0,0,1.412-8.378c-.4-7.125-1.546-14.831-10.66-23.791-5.438-5.346-14.5-11.765-23.616-13.746-7.307-1.589-15.425-.58-24.128,3a36.345,36.345,0,0,0-15.831,13.775c-2.963,4.79-5.124,13.656-5.038,20.351a6.68,6.68,0,0,1,3.913.305,12.421,12.421,0,0,1,3.582,2.32,75.515,75.515,0,0,0,19.41-21.647.9.9,0,0,1,.7-.439C332.288,63.034,332.309,63.034,332.333,63.034Z" transform="translate(-302.867 -42.86)"/>
      </g>
      <g id="Grupo_155461" data-name="Grupo 155461" transform="translate(125.367 104.723)">
        <path id="Trazado_195877" data-name="Trazado 195877" d="M325.48,93.858a7.69,7.69,0,0,1-4.191-1.343,11.762,11.762,0,0,1-4.868-6.959.892.892,0,0,1,1.728-.446,9.981,9.981,0,0,0,4.12,5.913c.664.437,3.006,1.766,5.184.551a.892.892,0,1,1,.87,1.558A5.785,5.785,0,0,1,325.48,93.858Z" transform="translate(-316.392 -84.44)"/>
      </g>
      <g id="Grupo_155462" data-name="Grupo 155462" transform="translate(129.011 81.163)">
        <path id="Trazado_195878" data-name="Trazado 195878" d="M318.5,72.676a1.992,1.992,0,1,1,1.309,2.409A1.941,1.941,0,0,1,318.5,72.676Z" transform="translate(-318.41 -71.392)"/>
      </g>
      <g id="Grupo_155463" data-name="Grupo 155463" transform="translate(158.843 88.386)">
        <path id="Trazado_195879" data-name="Trazado 195879" d="M335.02,76.676a1.992,1.992,0,1,1,1.309,2.409A1.941,1.941,0,0,1,335.02,76.676Z" transform="translate(-334.932 -75.392)"/>
      </g>
      <g id="Grupo_155464" data-name="Grupo 155464" transform="translate(142.052 85.934)">
        <path id="Trazado_195880" data-name="Trazado 195880" d="M326.525,88.078a.893.893,0,0,1-.157-1.771L329.2,85.8c.067-.013.121-.023.166-.034-.04-.094-.089-.2-.112-.244a12.529,12.529,0,0,1-.033-10.991.893.893,0,1,1,1.6.793,10.733,10.733,0,0,0,.036,9.414,1.735,1.735,0,0,1-1.343,2.819l-2.828.507A.963.963,0,0,1,326.525,88.078Z" transform="translate(-325.633 -74.034)"/>
      </g>
      <g id="Grupo_155468" data-name="Grupo 155468" transform="translate(115.211 70.639)">
        <g id="Grupo_155465" data-name="Grupo 155465">
          <path id="Trazado_195881" data-name="Trazado 195881" d="M322.314,91.932a11.126,11.126,0,0,1-3.44-.545A11.472,11.472,0,0,1,311.93,85a13.914,13.914,0,0,1-.446-9.99c2.262-6.97,9.259-10.967,15.6-8.909a11.478,11.478,0,0,1,6.944,6.381A14.256,14.256,0,0,1,328.242,90.3,11.855,11.855,0,0,1,322.314,91.932Zm1.347-24.585c-4.509,0-8.864,3.241-10.48,8.219a12.134,12.134,0,0,0,.377,8.71,9.549,9.549,0,0,0,13.793,4.478A12.475,12.475,0,0,0,332.4,73.213,9.716,9.716,0,0,0,326.53,67.8,9.231,9.231,0,0,0,323.661,67.347Z" transform="translate(-310.767 -65.563)"/>
        </g>
        <g id="Grupo_155466" data-name="Grupo 155466" transform="translate(32.225 7.589)">
          <path id="Trazado_195882" data-name="Trazado 195882" d="M340.135,96.129a11.073,11.073,0,0,1-3.414-.54,11.487,11.487,0,0,1-6.944-6.383,13.914,13.914,0,0,1-.446-9.99c2.262-6.97,9.259-10.965,15.6-8.911a11.487,11.487,0,0,1,6.944,6.383,13.914,13.914,0,0,1,.446,9.99C350.456,92.408,345.4,96.129,340.135,96.129Zm1.372-24.58c-4.509,0-8.864,3.241-10.478,8.219a12.125,12.125,0,0,0,.376,8.71,9.711,9.711,0,0,0,5.866,5.411c5.4,1.755,11.388-1.73,13.347-7.762a12.13,12.13,0,0,0-.376-8.712A9.711,9.711,0,0,0,344.377,72,9.283,9.283,0,0,0,341.508,71.55Z" transform="translate(-328.614 -69.766)"/>
        </g>
        <g id="Grupo_155467" data-name="Grupo 155467" transform="translate(23.106 10.141)">
          <path id="Trazado_195883" data-name="Trazado 195883" d="M334.885,77.164a.89.89,0,0,1-.874-1.071c.186-.906-.836-1.9-1.939-2.414a7.926,7.926,0,0,0-7.163.282.892.892,0,1,1-.9-1.538,9.761,9.761,0,0,1,8.819-.363c1.744.811,3.328,2.483,2.936,4.391A.893.893,0,0,1,334.885,77.164Z" transform="translate(-323.564 -71.18)"/>
        </g>
      </g>
      <g id="Grupo_155469" data-name="Grupo 155469" transform="translate(110.434 72.344)">
        <path id="Trazado_195884" data-name="Trazado 195884" d="M318.111,69.758a.966.966,0,0,1-.143-.011l-9.095-1.464a.892.892,0,1,1,.283-1.762l9.095,1.463a.893.893,0,0,1-.141,1.775Z" transform="translate(-308.122 -66.508)"/>
      </g>
      <g id="Grupo_155470" data-name="Grupo 155470" transform="translate(119.224 24.151)">
        <path id="Trazado_195885" data-name="Trazado 195885" d="M313.882,45.72a.893.893,0,0,1-.567-1.582,18.432,18.432,0,0,1,8.2-3.671,43.188,43.188,0,0,1,8.784-.648A.893.893,0,0,1,330.3,41.6h0a41.616,41.616,0,0,0-8.423.612,16.7,16.7,0,0,0-7.423,3.3A.886.886,0,0,1,313.882,45.72Z" transform="translate(-312.99 -39.817)"/>
      </g>
      <g id="Grupo_155471" data-name="Grupo 155471" transform="translate(107.44 71.802)">
        <path id="Trazado_195886" data-name="Trazado 195886" d="M307.358,74.862a.924.924,0,0,1-.157-.014.894.894,0,0,1-.724-1.035,19.156,19.156,0,0,1,2.885-7.208.893.893,0,0,1,1.486.989,17.335,17.335,0,0,0-2.613,6.529A.894.894,0,0,1,307.358,74.862Z" transform="translate(-306.464 -66.208)"/>
      </g>
      <g id="Grupo_155472" data-name="Grupo 155472" transform="translate(118.134 25.68)" opacity="0.129">
        <path id="Trazado_195887" data-name="Trazado 195887" d="M343.293,42.477a4.146,4.146,0,0,0-1.82-.782,26.878,26.878,0,0,0-3.133-.61A37.715,37.715,0,0,0,319.9,43.03c-1.549.562-3.032,1.293-4.534,1.965a6.218,6.218,0,0,0-2.515,1.649,2.364,2.364,0,0,0,3.181,3.364,36.5,36.5,0,0,1,13.5-4.4,25.7,25.7,0,0,1,8.145.135c.964.107,1.925.253,2.875.453a2.816,2.816,0,0,0,2.405-.135A2.292,2.292,0,0,0,343.293,42.477Z" transform="translate(-312.386 -40.663)"/>
      </g>
      <g id="Grupo_155473" data-name="Grupo 155473" transform="translate(129.065 50.411)" opacity="0.129">
        <path id="Trazado_195888" data-name="Trazado 195888" d="M361.789,81.351a1.8,1.8,0,0,0-1.3-1.472c-.222-.085-1.417-.448-1.7-.513-1.858-.56-3.747-1.036-5.561-1.73A102.032,102.032,0,0,1,342.958,73.3,70.387,70.387,0,0,1,331.2,66.134a43.125,43.125,0,0,1-9.3-9.94c-.554-.664-.961-1.681-1.907-1.818a1.4,1.4,0,0,0-1.278,2.219c3.393,4.628,6.874,9.322,11.585,12.7a82.272,82.272,0,0,0,8.452,5.55c2.374,1.257,4.846,2.322,7.3,3.413a119.731,119.731,0,0,0,11.374,4.447c.627.209,1.266.368,1.9.534a2.024,2.024,0,0,0,1.157.031A1.741,1.741,0,0,0,361.789,81.351Z" transform="translate(-318.44 -54.361)"/>
      </g>
      <g id="Grupo_155474" data-name="Grupo 155474" transform="translate(117.901 120.31)" opacity="0.129">
        <path id="Trazado_195889" data-name="Trazado 195889" d="M330.663,109.029c.042-.717.076-1.435.11-2.152a24.571,24.571,0,0,1,.233-4.088q.119-1.936.235-3.873a.506.506,0,0,1,.153-.347c0-.1,0-.2-.007-.3a.5.5,0,0,1,.386-.536c-.623-.87-1.968-.432-2.987-.327a13.5,13.5,0,0,1-3.039.007c-1.215-.078-7.912-1.853-8.432-2.329q-.512-.463-1.015-.935c-.955-.316-1.887-.677-2.806-1.078-.034.117-.074.233-.112.341a2.264,2.264,0,0,1-.17.424,3.114,3.114,0,0,1-.191.276c-.251.343-.52.673-.766,1.02a1.729,1.729,0,0,0,.2.283c2.925,2.992,6.011,5.834,8.835,8.925,1.4,1.551,2.829,3.079,4.263,4.6a11.948,11.948,0,0,0,2.006,1.782l-.023-.013.043.025.089.049c.06.032.119.067.181.1a1.817,1.817,0,0,0,.269.125l.038.018-.013-.007a1.852,1.852,0,0,0,.5.112,1.709,1.709,0,0,0,1.565-.769,1.432,1.432,0,0,0,.374-.318C330.615,109.706,330.642,109.367,330.663,109.029Z" transform="translate(-312.257 -93.073)"/>
      </g>
      <g id="Grupo_155475" data-name="Grupo 155475" transform="translate(133.246 205.466)">
        <path id="Trazado_195890" data-name="Trazado 195890" d="M332.236,164.021c2.336-3.79-.309-8.791-.935-10.716-1.654-5.077-6.161-12.748-8.793-12.572-1.24,1.874-1.4,4.556-1.166,6.791a27.684,27.684,0,0,0,3.431,10.691C326.4,161.09,328.688,163.691,332.236,164.021Z" transform="translate(-320.358 -139.837)" fill="#fff"/>
        <path id="Trazado_195891" data-name="Trazado 195891" d="M332.634,165.313c-.027,0-.054,0-.083,0-3.277-.307-5.946-2.353-8.158-6.258a28.688,28.688,0,0,1-3.542-11.036c-.182-1.739-.258-5.007,1.309-7.378a.9.9,0,0,1,.686-.4q.068-.005.135-.005c3.461,0,8.048,8.528,9.566,13.192.09.282.229.634.388,1.04.934,2.387,2.67,6.834.459,10.422A.893.893,0,0,1,332.634,165.313Zm-9.261-23.218a10.8,10.8,0,0,0-.748,5.731,26.91,26.91,0,0,0,3.321,10.346c1.791,3.16,3.774,4.855,6.2,5.283,1.307-2.761-.045-6.222-.872-8.34-.173-.444-.323-.827-.422-1.136C329.19,148.886,325.319,142.831,323.373,142.095Z" transform="translate(-320.756 -140.235)"/>
      </g>
      <g id="Grupo_155476" data-name="Grupo 155476" transform="translate(0 215.18)">
        <path id="Trazado_195892" data-name="Trazado 195892" d="M782.338,435.858c0-103.891,2.138-192.215.657-289.748-177.3,0-356.157,2.091-534.782.547-1.712,99.4,0,192.9,0,289.546Q516.012,436.2,782.338,435.858Z" transform="translate(-246.563 -145.216)" fill="#fff"/>
        <path id="Trazado_195893" data-name="Trazado 195893" d="M248.61,437.5a.893.893,0,0,1-.892-.894c0-32.226-.193-64.632-.381-95.971-.374-62.6-.76-127.329.381-193.589a.892.892,0,0,1,.892-.878h.007c113.5.98,228.815.486,340.333.009,63.817-.274,129.8-.558,194.442-.558a.892.892,0,0,1,.892.879c.919,60.466.45,116.909-.045,176.669-.3,36.184-.61,73.6-.61,113.094a.894.894,0,0,1-.894.892c-88.706,0-179.035.087-266.39.172C428.66,437.407,337.99,437.5,248.61,437.5Zm.878-289.539c-1.121,65.931-.737,130.354-.367,192.665.186,31.051.377,63.149.381,95.088,89.087,0,179.45-.088,266.841-.173,87.061-.085,177.079-.172,265.5-.173.005-39.172.312-76.3.61-112.216.493-59.46.96-115.632.059-175.746-64.352,0-130.029.283-193.555.556C477.727,148.434,362.712,148.926,249.488,147.957Z" transform="translate(-246.96 -145.615)"/>
      </g>
      <g id="Grupo_155477" data-name="Grupo 155477" transform="translate(0.457 232.912)" opacity="0.129">
        <path id="Trazado_195894" data-name="Trazado 195894" d="M783.826,161.045a38.477,38.477,0,0,1-.535-4.8c-72.284.023-160.717.128-163.223.3-5.691.025-11.382-.07-17.076-.083-6.181-.188-12.354-.684-18.54-.693-7.589-.285-15.176-.1-22.76.24-6.437.022-12.872.085-19.309.108-5.812-.087-11.63.141-17.435-.209-6.921-.462-13.858-.217-20.786-.1-18.982.59-37.988.554-56.976.273-8.672.014-17.316-.914-25.992-.565-10.406.069-20.811-.031-31.217.079q-19.547.471-39.1.222c-15.019-.365-30.018.894-45.039.789-5.195.13-10.366.7-15.564.742-6.711.292-13.425.069-20.138-.009-10.754.2-14.656-.823-22.875-.953.005.56-.014,1.116-.051,1.672a48.659,48.659,0,0,1,.74,5.827c3.6.166,7.175.659,10.778.8.484.02.97.027,1.455.043.061.533.164,1.065.229,1.571a46.12,46.12,0,0,0,2.56,8.936,27.166,27.166,0,0,0,3.882,6.722A33.359,33.359,0,0,0,279.3,190.1a53.9,53.9,0,0,0,6.426,2.656,29.538,29.538,0,0,0,9.429,1.148c10.512-.4,20.806-3.209,30.9-6.179,18.791-5.5,36.6-14.071,53.894-23.583q6.641-.032,13.282-.177c12.46-.132,24.925-.1,37.387-.168,13.952.812,27.927.565,41.9.6,13.829.273,27.647-.282,41.471-.554,4.962-.153,9.913.206,14.869.374,7.631.061,15.265.06,22.9-.1,6.959.04,13.91-.22,20.865-.367,9-.022,18,.321,26.987.93,4.655.238,107.773.305,184.152.26C783.753,163.652,783.8,162.352,783.826,161.045Zm-445.67,16.525a260.724,260.724,0,0,1-27.989,8.053c-7.538,1.41-11.8,2.5-19.979,1.863-5.278-.93-15.819-4.879-19.847-10.079-.713-.952-.937-5.634-1.356-8.4-.41-2.268.423-3.8.284-4.763,4.243.065,5.346.711,9.588.868,8.421.233,16.835-.284,25.244-.67,11.229.056,22.449-.258,33.673-.54,10.212.043,20.423.186,30.636.237A267.832,267.832,0,0,1,338.156,177.569Z" transform="translate(-247.213 -155.436)"/>
      </g>
      <g id="Grupo_155478" data-name="Grupo 155478" transform="translate(0.464 214.092)">
        <rect id="Rectángulo_46448" data-name="Rectángulo 46448" width="535.174" height="19.421" transform="translate(0.893 0.894)" fill="#fff"/>
        <path id="Trazado_195895" data-name="Trazado 195895" d="M783.284,166.219H248.111a.893.893,0,0,1-.894-.892V145.906a.9.9,0,0,1,.894-.894H783.284a.893.893,0,0,1,.892.894v19.421A.892.892,0,0,1,783.284,166.219ZM249,164.435h533.39V146.8H249Z" transform="translate(-247.217 -145.012)"/>
      </g>
      <g id="Grupo_155479" data-name="Grupo 155479" transform="translate(22.223 150.114)">
        <path id="Trazado_195896" data-name="Trazado 195896" d="M312.183,148.965c-4.245,14.071-15.151,35.973-17.186,40.348,29.816-9.274,57.81-17.381,77.442-23.485-5.509,10.276,1.9,19.426,9.441,23.485-15.2,9.3-104.378,56.235-120.685,27.017-5.3-9.5,1.688-32.927,4.671-43.39,4.212-14.773,20.147-51.8,33.694-63.36,7.636,2.9,14.844,8.436,17.139,16.276C318.952,133.548,314.568,141.063,312.183,148.965Z" transform="translate(-259.268 -109.579)" fill="#fff"/>
      </g>
      <g id="Grupo_155480" data-name="Grupo 155480" transform="translate(21.315 134.16)">
        <path id="Trazado_195897" data-name="Trazado 195897" d="M282.991,233.814a39.56,39.56,0,0,1-10-1.15c-5.644-1.479-9.738-4.435-12.164-8.781-5.3-9.5.926-31.253,4.27-42.943l.323-1.127c4.382-15.375,20.369-52.18,34.032-64.792,12.06-11.132,41.067-13.742,49.67-14.277a.9.9,0,0,1,.876.538c2.477,5.783,9.38,11.8,15.313,11.171a10.992,10.992,0,0,0,7.979-5.619.893.893,0,0,1,1.154-.35c11.577,5.541,23.551,11.271,32.853,20.627,12.961,13.033,19.576,35.637,24.892,53.8l.238.82a.892.892,0,1,1-1.712.5l-.24-.82c-4.982-17.021-11.8-40.332-24.442-53.043-8.9-8.947-20.427-14.562-31.643-19.932a12.587,12.587,0,0,1-8.893,5.792c-6.6.684-13.91-5.377-16.879-11.666-9.142.608-36.6,3.284-47.955,13.77-13.425,12.392-29.191,48.758-33.528,63.969l-.321,1.129c-3.041,10.624-9.366,32.734-4.427,41.581,2.179,3.907,5.9,6.572,11.057,7.925,28.409,7.445,92.2-25.732,107.085-34.492-7.441-4.572-12.979-12.95-9.34-22.05-8.414,2.6-18.388,5.588-28.9,8.737-14.134,4.234-30.154,9.032-46.612,14.15a.893.893,0,0,1-1.074-1.23c.282-.6.729-1.54,1.307-2.745,3.649-7.605,12.191-25.416,15.833-37.484a.893.893,0,0,1,1.71.516c-3.682,12.2-12.267,30.1-15.933,37.741q-.23.474-.43.892c15.783-4.895,31.105-9.483,44.685-13.551,11.327-3.393,22.025-6.6,30.813-9.33a.892.892,0,0,1,1.051,1.275c-4.971,9.274,1.221,18.049,9.078,22.276a.893.893,0,0,1,.043,1.547,378.98,378.98,0,0,1-48.441,23.628C312.794,229.464,295.6,233.814,282.991,233.814Z" transform="translate(-258.765 -100.743)"/>
      </g>
      <g id="Grupo_155495" data-name="Grupo 155495" transform="translate(148.896 104.124)">
        <g id="Grupo_155481" data-name="Grupo 155481" transform="translate(0 72.61)">
          <path id="Trazado_195898" data-name="Trazado 195898" d="M361.739,129.559c-7.809,10.873-11.8,24.034-18.007,35.924-1.439,2.759-3.3,5.689-6.287,6.477a6.16,6.16,0,0,1-6.879-3.214,8.259,8.259,0,0,1,.023-6.468A25.235,25.235,0,0,1,334,156.636a349.528,349.528,0,0,0,20.593-31.82C357.016,126.329,359.437,127.84,361.739,129.559Z" transform="translate(-329.027 -123.924)" fill="#fff"/>
          <path id="Trazado_195899" data-name="Trazado 195899" d="M336.463,173.427a7.118,7.118,0,0,1-6.305-3.895,9.141,9.141,0,0,1-.007-7.175,25.306,25.306,0,0,1,3.416-5.7l.108-.148a350.153,350.153,0,0,0,20.54-31.739.891.891,0,0,1,1.246-.314c2.405,1.5,4.879,3.046,7.208,4.785a.894.894,0,0,1,.191,1.237c-4.9,6.825-8.362,14.743-11.708,22.4-1.943,4.447-3.952,9.048-6.235,13.417-1.533,2.936-3.546,6.058-6.85,6.926A6.294,6.294,0,0,1,336.463,173.427Zm18.84-46.965a351.749,351.749,0,0,1-20.183,31.1l-.108.148A23.917,23.917,0,0,0,331.817,163a7.373,7.373,0,0,0-.052,5.76,5.3,5.3,0,0,0,5.848,2.741c2.633-.693,4.371-3.438,5.724-6.029,2.253-4.314,4.25-8.885,6.181-13.3,3.266-7.477,6.641-15.2,11.383-22C359.086,128.849,357.177,127.635,355.3,126.462Z" transform="translate(-329.423 -124.322)"/>
        </g>
        <g id="Grupo_155482" data-name="Grupo 155482" transform="translate(19.397 65.72)">
          <path id="Trazado_195900" data-name="Trazado 195900" d="M358.165,130.158A6.687,6.687,0,0,1,356.8,135.2a2.888,2.888,0,0,1-1.441,1.076,3.326,3.326,0,0,1-1.766-.148c-3.687-1.073-6.874-3.369-9.978-5.626a7.962,7.962,0,0,1-2.356-2.275,4.818,4.818,0,0,1-.6-2.43c.009-2.34,1.795-4.769,4.135-4.79a6.89,6.89,0,0,1,3.434,1.231,77.2,77.2,0,0,1,8.322,5.668C357.519,128.658,358.539,129.559,358.165,130.158Z" transform="translate(-339.768 -120.107)" fill="#acd4f7"/>
          <path id="Trazado_195901" data-name="Trazado 195901" d="M355.212,137.632a5.238,5.238,0,0,1-1.472-.253c-3.877-1.127-7.264-3.588-10.254-5.762a8.688,8.688,0,0,1-2.6-2.549,5.691,5.691,0,0,1-.717-2.88c.009-2.665,2.073-5.653,5.02-5.68a7.546,7.546,0,0,1,3.893,1.356,77.87,77.87,0,0,1,8.42,5.735c.854.666,2.382,1.86,1.981,3.095a7.649,7.649,0,0,1-1.584,5.458,3.687,3.687,0,0,1-1.91,1.381A2.948,2.948,0,0,1,355.212,137.632Zm-9.987-15.339H345.2c-1.853.016-3.245,2.075-3.252,3.9a3.939,3.939,0,0,0,.478,1.981,7.249,7.249,0,0,0,2.109,2c3.01,2.188,6.125,4.453,9.7,5.491a2.588,2.588,0,0,0,1.286.143,2.012,2.012,0,0,0,.973-.767,5.815,5.815,0,0,0,1.183-4.357.874.874,0,0,1,.042-.426A5.528,5.528,0,0,0,356.4,129a76.541,76.541,0,0,0-8.225-5.6A6.156,6.156,0,0,0,345.225,122.293Z" transform="translate(-340.166 -120.507)"/>
        </g>
        <g id="Grupo_155484" data-name="Grupo 155484" transform="translate(7.963)">
          <g id="Grupo_155483" data-name="Grupo 155483">
            <path id="Trazado_195902" data-name="Trazado 195902" d="M336.169,133.6a44.892,44.892,0,0,0,15.167,20.88c8.719,6.823,20.133,10.823,31.008,8.737,15.566-2.986,25.067-12.787,28.362-21.85A42.913,42.913,0,0,0,403.4,99.947c-9.44-11.245-25.286-17.957-39.525-14.378C328.885,94.359,333.426,125.31,336.169,133.6Zm5.792-8.354a29.466,29.466,0,0,1,4.743-19.515c3.8-5.68,12.679-13.6,27.9-13.425,12.558.143,21.581,10.324,25.3,15.611,2.237,3.183,6.025,13.188,4.628,25.172-1.849,15.866-19.912,28.649-39.118,22.184C353.046,151.107,343.432,138.206,341.961,125.242Z" transform="translate(-333.434 -83.71)" fill="#fff"/>
            <path id="Trazado_195903" data-name="Trazado 195903" d="M376.79,165.062c-8.656,0-17.711-3.308-25.605-9.485a45.426,45.426,0,0,1-15.465-21.3h0c-2.04-6.166-3.808-19.667,2.506-31.157,4.877-8.875,13.567-14.934,25.827-18.016,13.889-3.487,30.132,2.407,40.426,14.67a43.643,43.643,0,0,1,7.466,42.3c-3.187,8.759-12.486,19.248-29.032,22.42A32.469,32.469,0,0,1,376.79,165.062Zm-39.375-31.347a44.249,44.249,0,0,0,14.869,20.457c9.376,7.336,20.418,10.46,30.291,8.562,15.814-3.032,24.674-12.979,27.693-21.275a41.833,41.833,0,0,0-7.156-40.539c-9.864-11.753-25.385-17.413-38.624-14.087-11.76,2.956-20.071,8.723-24.7,17.144-6.018,10.953-4.324,23.847-2.374,29.738Zm38.653,24.544a33.047,33.047,0,0,1-10.543-1.744c-12.385-4.169-22.5-17.112-24.051-30.773h0a30.52,30.52,0,0,1,4.89-20.113c2.183-3.263,10.626-13.824,28.151-13.824.166,0,.33,0,.5,0,13.444.152,22.673,11.234,26.017,15.99,2.585,3.676,6.168,13.927,4.785,25.788-.914,7.836-5.791,15.261-13.047,19.86A31.1,31.1,0,0,1,376.068,158.258Zm-32.821-32.717c1.477,13.008,11.085,25.322,22.848,29.281a29.952,29.952,0,0,0,25.715-2.882c6.807-4.315,11.381-11.254,12.233-18.56,1.374-11.792-2.42-21.635-4.472-24.554-3.187-4.532-11.959-15.089-24.578-15.234-.161,0-.32,0-.477,0-16.646,0-24.612,9.954-26.671,13.029A28.715,28.715,0,0,0,343.247,125.541Z" transform="translate(-333.833 -84.108)"/>
          </g>
        </g>
        <g id="Grupo_155485" data-name="Grupo 155485" transform="translate(23.808 80.107)">
          <path id="Trazado_195904" data-name="Trazado 195904" d="M345.051,133.326a.3.3,0,0,1-.265-.164l-2.145-4.256a.3.3,0,0,1,.531-.267l2.145,4.256a.3.3,0,0,1-.265.432Z" transform="translate(-342.608 -128.474)"/>
        </g>
        <g id="Grupo_155486" data-name="Grupo 155486" transform="translate(21.655 83.149)">
          <path id="Trazado_195905" data-name="Trazado 195905" d="M344.115,136.9a.3.3,0,0,1-.28-.195c-.747-2.058-1.553-4.122-2.4-6.132a.3.3,0,1,1,.549-.229c.847,2.019,1.656,4.09,2.407,6.157a.3.3,0,0,1-.179.381A.292.292,0,0,1,344.115,136.9Z" transform="translate(-341.416 -130.159)"/>
        </g>
        <g id="Grupo_155487" data-name="Grupo 155487" transform="translate(19.235 87.383)">
          <path id="Trazado_195906" data-name="Trazado 195906" d="M343,140.225a.3.3,0,0,1-.287-.218,44.408,44.408,0,0,0-2.613-7.078.3.3,0,0,1,.54-.253,45.208,45.208,0,0,1,2.647,7.174.3.3,0,0,1-.208.367A.409.409,0,0,1,343,140.225Z" transform="translate(-340.076 -132.504)"/>
        </g>
        <g id="Grupo_155488" data-name="Grupo 155488" transform="translate(16.63 91.562)">
          <path id="Trazado_195907" data-name="Trazado 195907" d="M341.648,143.087a.3.3,0,0,1-.284-.209c-.791-2.58-1.7-5.153-2.71-7.65a.3.3,0,1,1,.551-.222c1.015,2.512,1.932,5.1,2.728,7.7a.3.3,0,0,1-.285.385Z" transform="translate(-338.633 -134.818)"/>
        </g>
        <g id="Grupo_155489" data-name="Grupo 155489" transform="translate(13.948 95.627)">
          <path id="Trazado_195908" data-name="Trazado 195908" d="M340.42,147.579a.3.3,0,0,1-.285-.211l-2.974-9.915a.3.3,0,1,1,.569-.172L340.7,147.2a.3.3,0,0,1-.2.37A.284.284,0,0,1,340.42,147.579Z" transform="translate(-337.148 -137.07)"/>
        </g>
        <g id="Grupo_155490" data-name="Grupo 155490" transform="translate(10.947 101.341)">
          <path id="Trazado_195909" data-name="Trazado 195909" d="M338.445,150.152a.3.3,0,0,1-.287-.215l-2.661-9.322a.3.3,0,0,1,.206-.368.3.3,0,0,1,.367.2l2.661,9.322a.3.3,0,0,1-.2.367A.254.254,0,0,1,338.445,150.152Z" transform="translate(-335.486 -140.235)"/>
        </g>
        <g id="Grupo_155491" data-name="Grupo 155491" transform="translate(7.517 106.229)">
          <path id="Trazado_195910" data-name="Trazado 195910" d="M336.477,153.837a.3.3,0,0,1-.289-.224l-2.593-10.3a.3.3,0,0,1,.578-.144l2.593,10.3a.3.3,0,0,1-.217.361A.247.247,0,0,1,336.477,153.837Z" transform="translate(-333.586 -142.941)"/>
        </g>
        <g id="Grupo_155492" data-name="Grupo 155492" transform="translate(4.349 111.496)">
          <path id="Trazado_195911" data-name="Trazado 195911" d="M333.582,151.608a.3.3,0,0,1-.285-.217l-1.454-5.155a.3.3,0,1,1,.572-.161l1.453,5.153a.3.3,0,0,1-.206.368A.315.315,0,0,1,333.582,151.608Z" transform="translate(-331.832 -145.859)"/>
        </g>
        <g id="Grupo_155493" data-name="Grupo 155493" transform="translate(49.139 20.146)" opacity="0.129">
          <path id="Trazado_195912" data-name="Trazado 195912" d="M357.828,144.972l.087-.038.014-.009c.345-1.045,1.39-1.314,2.412-1.354.4-.088.455-.06.885-.148.971-.471,2.456-1.172,3.557-1.65a27.875,27.875,0,0,0,5.883-3.4l.242-.195.011-.011a29.341,29.341,0,0,0,2.9-3.057c1.2-1.4,3.846-5.715,4.214-7.484a34.485,34.485,0,0,0,1.342-7.757,34.7,34.7,0,0,0,.13-8.423c-.025-.173-.058-.39-.078-.527-.928-5.1-1.217-6.84-2.159-11.227-.206-.787-.4-1.578-.6-2.367a1.6,1.6,0,0,1,3.057-.962,1.065,1.065,0,0,1,.276.469q.317.737.637,1.473a1.974,1.974,0,0,1,1.806,1.2,34.818,34.818,0,0,1,1.618,3.3,5.366,5.366,0,0,1,.556,2.519,1.606,1.606,0,0,1,.052.359,48.221,48.221,0,0,1,.5,5.42c.215.867.412,1.737.574,2.613a30.257,30.257,0,0,1,.7,7.049,35.146,35.146,0,0,1-.818,6.968,23.781,23.781,0,0,1-2.295,5.485,1.452,1.452,0,0,1-.41.91c-.217.206-.426.417-.632.632a14.176,14.176,0,0,1-1.058,1.269c-.088.092-.181.181-.271.271-2.17,2.716-3.956,5.8-6.93,7.708-2.578,1.583-5.561,2.244-8.452,3.014-.329.061-.634.139-.923.217-.079.042-.144.074-.188.1l.172-.078a12.73,12.73,0,0,1-4.714,1.329,6.479,6.479,0,0,1-1.869-.1A1.832,1.832,0,0,1,357.828,144.972Z" transform="translate(-356.638 -95.266)"/>
        </g>
        <g id="Grupo_155494" data-name="Grupo 155494" transform="translate(21.903 77.509)" opacity="0.129">
          <path id="Trazado_195913" data-name="Trazado 195913" d="M343.3,127.036c.964-.031,1.625.818,2.488,1.13.589.276,1.168.572,1.753.856.551.32,1.257.473,1.645,1.006a1.9,1.9,0,0,1-2.329,2.893,26.166,26.166,0,0,1-4.379-2.479l-.06-.043A1.819,1.819,0,0,1,343.3,127.036Z" transform="translate(-341.554 -127.036)"/>
        </g>
      </g>
      <g id="Grupo_155496" data-name="Grupo 155496" transform="translate(132.814 188.826)">
        <path id="Trazado_195914" data-name="Trazado 195914" d="M333.837,140.048c2.911-2.954,5.978-5.906,9.783-7.556s10.725-.71,10.725-.71l-3.322,5.184a12,12,0,0,0-6.589,4.075c3.5-.229,7.118-.489,10.223-2.116,1.464-.767,2.851-1.847,4.5-1.993s3.555,1.3,3.051,2.873-2.875,1.883-3.461,3.436a3.524,3.524,0,0,1-.074,7.029,2.461,2.461,0,0,1,1.313,3.068c-.376,1.177-1.744,2.067-2.651,2.905a33.936,33.936,0,0,1-9.2,6.5c-7.076,3.107-18.482,5.6-20.322,5.944-.527.1-5.576-4.886-6.56-9.777-.572-2.844-.182-6.246,1.862-8.306C323.931,149.774,330.924,143,333.837,140.048Z" transform="translate(-320.12 -130.62)" fill="#fff"/>
        <path id="Trazado_195915" data-name="Trazado 195915" d="M328.258,169.971c-1.654,0-6.592-6.031-7.49-10.487-.565-2.81-.309-6.679,2.1-9.111.269-.271,1.2-1.179,2.43-2.382,2.524-2.463,6.339-6.188,8.295-8.172h0c3.07-3.115,6.15-6.051,10.063-7.75,3.989-1.73,10.909-.812,11.2-.773a.892.892,0,0,1,.632,1.365l-3.324,5.184a.892.892,0,0,1-.585.4,11.677,11.677,0,0,0-4.447,2.132,19.951,19.951,0,0,0,7.5-1.842c.35-.184.7-.386,1.044-.589a9.1,9.1,0,0,1,3.79-1.5,4.119,4.119,0,0,1,3.451,1.479,2.687,2.687,0,0,1,.527,2.555,4.375,4.375,0,0,1-2.1,2.23c-.235.15-.464.3-.668.45a4.373,4.373,0,0,1,.184,7.894,3.7,3.7,0,0,1,.367,2.959,6.448,6.448,0,0,1-2.244,2.726c-.229.191-.453.377-.652.562a35.023,35.023,0,0,1-9.449,6.663c-7.078,3.107-18.551,5.633-20.517,6A.718.718,0,0,1,328.258,169.971Zm.188-1.73Zm6.423-27.169h0c-1.968,2-5.791,5.727-8.32,8.2-1.221,1.192-2.141,2.091-2.409,2.36-1.919,1.934-2.094,5.142-1.621,7.5.832,4.137,4.774,8.3,5.789,9.023,2.537-.506,13.208-2.909,19.86-5.83a33.336,33.336,0,0,0,8.956-6.339c.218-.2.464-.408.715-.619a5.245,5.245,0,0,0,1.692-1.9,1.61,1.61,0,0,0-.738-1.946.893.893,0,0,1,.22-1.741,2.631,2.631,0,0,0,.056-5.249.892.892,0,0,1-.76-1.2,4.582,4.582,0,0,1,2.076-2.12c.648-.415,1.21-.775,1.369-1.273a.937.937,0,0,0-.222-.9,2.335,2.335,0,0,0-1.9-.816,7.705,7.705,0,0,0-3.046,1.266c-.37.217-.74.433-1.116.628-3.326,1.742-7.181,2-10.581,2.217a.893.893,0,0,1-.766-1.435,12.8,12.8,0,0,1,6.74-4.317l2.344-3.653c-2.163-.173-6.3-.316-8.835.784C340.751,135.278,337.81,138.088,334.869,141.073Z" transform="translate(-320.516 -131.019)"/>
      </g>
      <g id="Grupo_155503" data-name="Grupo 155503" transform="translate(185.797 132.578)">
        <g id="Grupo_155497" data-name="Grupo 155497">
          <path id="Trazado_195916" data-name="Trazado 195916" d="M399.781,100.587l-49.426,96.151,63.881-.112,47.412-96.265Z" transform="translate(-349.462 -99.469)" fill="#fff"/>
          <path id="Trazado_195917" data-name="Trazado 195917" d="M350.754,198.028a.893.893,0,0,1-.794-1.3l49.427-96.152a.893.893,0,0,1,.791-.484l61.867-.226a.917.917,0,0,1,.76.419.888.888,0,0,1,.043.867l-47.412,96.266a.891.891,0,0,1-.8.5l-63.882.112Zm49.972-96.152-48.509,94.364,61.862-.108,46.532-94.476Z" transform="translate(-349.86 -99.867)"/>
        </g>
        <g id="Grupo_155498" data-name="Grupo 155498" transform="translate(73.582 36.055)">
          <path id="Trazado_195918" data-name="Trazado 195918" d="M410.408,122.3q-6.516-.888-13.031-1.775a11.343,11.343,0,0,0-3.182-.134,3.839,3.839,0,0,0-2.69,1.538,1.828,1.828,0,0,0,.7,2.261c3.561,2.042,7.23,2.864,11.189,3.942-.2.823-1.194,1.132-2.035,1.24a31.05,31.05,0,0,1-5.639.491c-4.673-.238-5.417,2.082-3.9,3.326.789.648,6.775,2,9.586,1.927a8.107,8.107,0,0,1-3.526.98,7.141,7.141,0,0,0-3.483,1.092,2.554,2.554,0,0,0-.858,3.243,3.609,3.609,0,0,0,2.494,1.249,38.17,38.17,0,0,0,3.916.518,5.378,5.378,0,0,0-1.589,1.185,1.831,1.831,0,0,0-.356,1.858,2.343,2.343,0,0,0,1.788,1.1,8.029,8.029,0,0,0,5.3-.827,12.966,12.966,0,0,0,4.184-4.113,34.065,34.065,0,0,0,5.507-12.876,7.264,7.264,0,0,0,.175-2.421C414.666,124.032,412.51,122.592,410.408,122.3Z" transform="translate(-390.213 -119.438)" fill="#fff"/>
          <path id="Trazado_195919" data-name="Trazado 195919" d="M401.686,147.776a8.748,8.748,0,0,1-1.663-.159,3.087,3.087,0,0,1-2.43-1.6,2.7,2.7,0,0,1,.453-2.768c-.594-.083-1.188-.179-1.777-.287a4.385,4.385,0,0,1-3.079-1.64,3.434,3.434,0,0,1,1.067-4.444,6.034,6.034,0,0,1,2.476-1.038,16.5,16.5,0,0,1-5.081-1.556,2.46,2.46,0,0,1-.888-2.813c.271-.7,1.336-2.3,5.4-2.1a22.518,22.518,0,0,0,4.332-.329c.379-.052.76-.107,1.148-.155l.02,0a37.878,37.878,0,0,1-9.5-3.521,2.58,2.58,0,0,1-1.215-1.668,2.508,2.508,0,0,1,.219-1.856,4.715,4.715,0,0,1,3.308-1.93,12.221,12.221,0,0,1,3.431.132l13.031,1.777c2.364.321,4.949,1.992,5.314,4.561a8.047,8.047,0,0,1-.182,2.721,35.13,35.13,0,0,1-5.652,13.212,13.9,13.9,0,0,1-4.489,4.386A8.891,8.891,0,0,1,401.686,147.776Zm.119-13.15a.892.892,0,0,1,.491,1.638,8.8,8.8,0,0,1-3.848,1.114,6.516,6.516,0,0,0-3.115.924,1.708,1.708,0,0,0-.646,2.046,2.938,2.938,0,0,0,1.907.858,37.481,37.481,0,0,0,3.826.506.892.892,0,0,1,.37,1.665,4.758,4.758,0,0,0-1.34.973.982.982,0,0,0-.236.921c.121.262.538.479,1.145.594a7.172,7.172,0,0,0,4.707-.733,12.269,12.269,0,0,0,3.882-3.842,33.355,33.355,0,0,0,5.361-12.536,6.537,6.537,0,0,0,.168-2.122c-.238-1.674-2.131-2.819-3.79-3.044h0l-13.031-1.777a10.726,10.726,0,0,0-2.93-.134,2.939,2.939,0,0,0-2.075,1.147,1.031,1.031,0,0,0,.394.995,38.106,38.106,0,0,0,9.508,3.46c.486.13.977.26,1.472.4a.892.892,0,0,1,.634,1.067c-.175.737-.8,1.665-2.79,1.919-.381.049-.757.1-1.129.153a23.942,23.942,0,0,1-4.669.343c-2.53-.13-3.481.54-3.642.957-.135.35.238.693.356.789.724.5,6.289,1.779,9,1.724Z" transform="translate(-390.612 -119.835)"/>
        </g>
        <g id="Grupo_155499" data-name="Grupo 155499" transform="translate(58.284 15.916)">
          <path id="Trazado_195920" data-name="Trazado 195920" d="M416.248,110.468H383.034a.893.893,0,1,1,0-1.786h33.214a.893.893,0,0,1,0,1.786Z" transform="translate(-382.14 -108.682)"/>
        </g>
        <g id="Grupo_155500" data-name="Grupo 155500" transform="translate(52.167 28.687)">
          <path id="Trazado_195921" data-name="Trazado 195921" d="M412.86,117.539H379.646a.892.892,0,1,1,0-1.784H412.86a.892.892,0,1,1,0,1.784Z" transform="translate(-378.752 -115.755)"/>
        </g>
        <g id="Grupo_155501" data-name="Grupo 155501" transform="translate(34.99 63.566)">
          <path id="Trazado_195922" data-name="Trazado 195922" d="M403.345,136.856H370.131a.892.892,0,1,1,0-1.784h33.214a.892.892,0,1,1,0,1.784Z" transform="translate(-369.239 -135.072)"/>
        </g>
        <g id="Grupo_155502" data-name="Grupo 155502" transform="translate(27.8 76.148)">
          <path id="Trazado_195923" data-name="Trazado 195923" d="M399.365,143.824H366.151a.892.892,0,1,1,0-1.784h33.214a.892.892,0,1,1,0,1.784Z" transform="translate(-365.257 -142.04)"/>
        </g>
      </g>
      <g id="Grupo_155504" data-name="Grupo 155504" transform="translate(106.433 139.001)">
        <path id="Trazado_195924" data-name="Trazado 195924" d="M315.063,117.809a.872.872,0,0,1-.468-.135,18.918,18.918,0,0,1-8.68-13.228.892.892,0,0,1,1.766-.256,17.12,17.12,0,0,0,7.853,11.968.893.893,0,0,1-.471,1.652Z" transform="translate(-305.906 -103.424)"/>
      </g>
      <g id="Grupo_155505" data-name="Grupo 155505" transform="translate(100.714 140.289)">
        <path id="Trazado_195925" data-name="Trazado 195925" d="M306.165,112.762a.9.9,0,0,1-.838-.583l-2.533-6.838a.892.892,0,0,1,1.674-.619L307,111.559a.892.892,0,0,1-.527,1.147A.879.879,0,0,1,306.165,112.762Z" transform="translate(-302.738 -104.138)"/>
      </g>
      <g id="Grupo_155506" data-name="Grupo 155506" transform="translate(64.986 189.719)" opacity="0.129">
        <path id="Trazado_195926" data-name="Trazado 195926" d="M285.1,150.256c.964-1.952,1.807-3.954,2.8-5.9a2.128,2.128,0,0,1,1.948-1.491c.282-1.078.549-2.16.791-3.247.424-1.746.659-3.526,1-5.289.215-.735.119-1.618.614-2.246.964-1.282,3.207-.228,2.73,1.282-1.159,6.755-2.555,17-4.51,21.7a2.108,2.108,0,0,1-2.235,1.248,3.575,3.575,0,0,1-2.477.477l.135.016c-1.4.1-2.9-.2-2.938-1.8C283.262,153.308,284.361,151.818,285.1,150.256Z" transform="translate(-282.951 -131.514)"/>
      </g>
    </g>
    <g id="Grupo_169382" data-name="Grupo 169382" transform="translate(259.976 6231.346)">
      <g id="Grupo_152733" data-name="Grupo 152733" transform="translate(0 0)">
        <g id="Grupo_152693" data-name="Grupo 152693">
          <text id="INTERNOS" transform="translate(184 90.194)" fill="#12263f" font-size="72" font-family="OpenSans-Bold, Open Sans" font-weight="700"><tspan x="-183.709" y="0">INTERNOS</tspan></text>
          <text id="ANÁLISIS_DE_FACTORES" data-name="ANÁLISIS DE FACTORES" transform="translate(177.024 30.036)" fill="#12263f" font-size="28" font-family="OpenSans-Semibold, Open Sans" font-weight="600"><tspan x="-155.347" y="0">ANÁLISIS DE FACTORES</tspan></text>
        </g>
        <g id="Grupo_152694" data-name="Grupo 152694" transform="translate(106.887 105.602)">
          <path id="Trazado_194078" data-name="Trazado 194078" d="M242.641,271.316a8.837,8.837,0,1,1-8.837-8.836A8.838,8.838,0,0,1,242.641,271.316Z" transform="translate(-224.968 -262.479)" fill="#12263f"/>
          <path id="Trazado_194079" data-name="Trazado 194079" d="M253.8,271.316a8.837,8.837,0,1,1-8.837-8.836A8.838,8.838,0,0,1,253.8,271.316Z" transform="translate(-203.247 -262.479)" fill="url(#linear-gradient-3)"/>
          <path id="Trazado_194080" data-name="Trazado 194080" d="M264.959,271.316a8.837,8.837,0,1,1-8.837-8.836A8.838,8.838,0,0,1,264.959,271.316Z" transform="translate(-181.526 -262.479)" fill="url(#linear-gradient-4)"/>
          <path id="Trazado_194081" data-name="Trazado 194081" d="M276.118,271.316a8.837,8.837,0,1,1-8.837-8.836A8.838,8.838,0,0,1,276.118,271.316Z" transform="translate(-159.804 -262.479)" fill="#afafaf"/>
          <path id="Trazado_194082" data-name="Trazado 194082" d="M287.277,271.316a8.837,8.837,0,1,1-8.837-8.836A8.838,8.838,0,0,1,287.277,271.316Z" transform="translate(-138.083 -262.479)" fill="#b0c0d2"/>
          <path id="Trazado_194083" data-name="Trazado 194083" d="M298.436,271.316a8.837,8.837,0,1,1-8.837-8.836A8.838,8.838,0,0,1,298.436,271.316Z" transform="translate(-116.362 -262.479)" fill="#c9e8fd"/>
        </g>
      </g>
    </g>
    <g id="Grupo_169383" data-name="Grupo 169383" transform="translate(581.499 5989.689)">
      <g id="Grupo_155649" data-name="Grupo 155649" transform="translate(6.421 0)">
        <g id="Grupo_155635" data-name="Grupo 155635" transform="translate(64.956 60.561)">
          <path id="Trazado_196062" data-name="Trazado 196062" d="M194.269,219.163l19.221,18.91a126.7,126.7,0,0,0,10.463,9.553c1.988,1.556,4.2,3.03,6.619,3.03a5.009,5.009,0,0,0,4.973-4.772c-.014-2.134-1.488-3.848-2.867-5.3q-15.3-16.139-31.936-30.556C198.713,213,196.683,215.973,194.269,219.163Z" transform="translate(-193.376 -209.132)" fill="#fff"/>
          <path id="Trazado_196063" data-name="Trazado 196063" d="M230.974,251.947h0c-2.689,0-5.036-1.547-7.17-3.219a127.821,127.821,0,0,1-10.539-9.62L194.041,220.2a.893.893,0,0,1-.085-1.175c2.405-3.18,4.46-6.19,6.448-9.1a.891.891,0,0,1,1.322-.172c11.054,9.579,21.819,19.88,32,30.616,1.5,1.578,3.095,3.467,3.111,5.91a5.4,5.4,0,0,1-1.627,3.853A6.122,6.122,0,0,1,230.974,251.947ZM195.85,219.475l18.663,18.359a126.725,126.725,0,0,0,10.388,9.488c1.883,1.473,3.924,2.838,6.072,2.84h0a4.307,4.307,0,0,0,2.968-1.293,3.637,3.637,0,0,0,1.109-2.582c-.013-1.793-1.3-3.3-2.622-4.695-9.907-10.449-20.373-20.485-31.116-29.838C199.618,214.235,197.856,216.792,195.85,219.475Z" transform="translate(-193.775 -209.531)"/>
        </g>
        <g id="Grupo_155637" data-name="Grupo 155637">
          <g id="Grupo_155636" data-name="Grupo 155636">
            <path id="Trazado_196064" data-name="Trazado 196064" d="M198.248,176.484A39.955,39.955,0,1,0,238.2,216.44,39.955,39.955,0,0,0,198.248,176.484Zm0,70.3A30.346,30.346,0,1,1,228.6,216.44,30.344,30.344,0,0,1,198.248,246.785Zm0,0A30.346,30.346,0,1,1,228.6,216.44,30.344,30.344,0,0,1,198.248,246.785Z" transform="translate(-157.402 -175.592)" fill="#fff"/>
            <path id="Trazado_196065" data-name="Trazado 196065" d="M198.646,257.684a40.847,40.847,0,1,1,40.848-40.846A40.892,40.892,0,0,1,198.646,257.684Zm0-79.909a39.062,39.062,0,1,0,39.062,39.062A39.107,39.107,0,0,0,198.646,177.776Zm0,70.3a31.239,31.239,0,1,1,31.239-31.239A31.275,31.275,0,0,1,198.646,248.077Zm-29.453-31.239a29.454,29.454,0,1,0,29.453-29.455A29.486,29.486,0,0,0,169.193,216.838Z" transform="translate(-157.8 -175.99)"/>
          </g>
        </g>
        <g id="Grupo_155638" data-name="Grupo 155638" transform="translate(70.703 68.675)">
          <path id="Trazado_196066" data-name="Trazado 196066" d="M197.254,217.079a.316.316,0,0,1-.081-.011.3.3,0,0,1-.2-.368l.7-2.459a.3.3,0,0,1,.572.164l-.7,2.459A.3.3,0,0,1,197.254,217.079Z" transform="translate(-196.958 -214.024)"/>
        </g>
        <g id="Grupo_155639" data-name="Grupo 155639" transform="translate(74.065 66.826)">
          <path id="Trazado_196067" data-name="Trazado 196067" d="M199.117,222.212l-.038,0a.3.3,0,0,1-.256-.334c.374-2.873.827-5.776,1.347-8.631a.3.3,0,1,1,.585.107c-.516,2.846-.97,5.738-1.343,8.6A.3.3,0,0,1,199.117,222.212Z" transform="translate(-198.82 -213.001)"/>
        </g>
        <g id="Grupo_155640" data-name="Grupo 155640" transform="translate(78.43 70.531)">
          <path id="Trazado_196068" data-name="Trazado 196068" d="M201.533,224.741a.3.3,0,0,1-.3-.3c0-1.439.22-3.851.415-5.982.119-1.3.222-2.418.258-3.124a.285.285,0,0,1,.311-.282.3.3,0,0,1,.283.312c-.036.717-.139,1.843-.26,3.147-.193,2.118-.413,4.516-.413,5.928A.3.3,0,0,1,201.533,224.741Z" transform="translate(-201.237 -215.052)"/>
        </g>
        <g id="Grupo_155641" data-name="Grupo 155641" transform="translate(82.668 73.538)">
          <path id="Trazado_196069" data-name="Trazado 196069" d="M204.111,227.517a.3.3,0,0,1-.3-.291l-.229-10.2a.3.3,0,0,1,.291-.305.282.282,0,0,1,.3.291l.231,10.205a.3.3,0,0,1-.291.3Z" transform="translate(-203.584 -216.718)"/>
        </g>
        <g id="Grupo_155642" data-name="Grupo 155642" transform="translate(86.75 77.57)">
          <path id="Trazado_196070" data-name="Trazado 196070" d="M206.542,230.232a.3.3,0,0,1-.3-.285l-.4-10.687a.3.3,0,0,1,.287-.309.3.3,0,0,1,.307.287l.4,10.686a.3.3,0,0,1-.285.309Z" transform="translate(-205.845 -218.951)"/>
        </g>
        <g id="Grupo_155643" data-name="Grupo 155643" transform="translate(90.937 82.078)">
          <path id="Trazado_196071" data-name="Trazado 196071" d="M209,232.026a.3.3,0,0,1-.3-.28l-.542-9.983a.3.3,0,1,1,.594-.032l.542,9.983a.3.3,0,0,1-.282.312Z" transform="translate(-208.164 -221.447)"/>
        </g>
        <g id="Grupo_155644" data-name="Grupo 155644" transform="translate(95.014 85.859)">
          <path id="Trazado_196072" data-name="Trazado 196072" d="M211.468,233.856a.3.3,0,0,1-.3-.274l-.749-9.72a.3.3,0,0,1,.274-.318.29.29,0,0,1,.32.273l.749,9.72a.3.3,0,0,1-.274.318Z" transform="translate(-210.422 -223.542)"/>
        </g>
        <g id="Grupo_155645" data-name="Grupo 155645" transform="translate(98.943 90.215)">
          <path id="Trazado_196073" data-name="Trazado 196073" d="M213.772,235.072a.3.3,0,0,1-.3-.267l-.876-8.524a.3.3,0,0,1,.592-.06l.876,8.522a.3.3,0,0,1-.265.327Z" transform="translate(-212.598 -225.954)"/>
        </g>
        <g id="Grupo_155646" data-name="Grupo 155646" transform="translate(103.176 94.475)">
          <path id="Trazado_196074" data-name="Trazado 196074" d="M215.856,232.718a.3.3,0,0,1-.294-.251l-.616-3.808a.3.3,0,0,1,.589-.1l.614,3.81a.3.3,0,0,1-.246.341A.447.447,0,0,1,215.856,232.718Z" transform="translate(-214.942 -228.314)"/>
        </g>
        <g id="Grupo_155647" data-name="Grupo 155647" transform="translate(10.379 36.492)" opacity="0.129">
          <path id="Trazado_196075" data-name="Trazado 196075" d="M222.282,210.222c-1,.847-1.468,2.214-2.318,3.218a41.476,41.476,0,0,1-3.367,3.7c-1,.894-1.963,1.683-2.943,2.429a1.54,1.54,0,0,0-.513.2c-4.994,3.613-8.748,4.933-15.066,6.1a24.317,24.317,0,0,1-11.175-.139c-3.308-.769-4.906-1.676-8.36-4a44.019,44.019,0,0,1-6.959-6.6l0,0a26.57,26.57,0,0,1-3.7-7.43c-.5-1.336-.87-2.71-1.262-4.079a11.383,11.383,0,0,1-.755-4.142c-.365-1.018-.7-2.051-1-3.091a1.957,1.957,0,0,0-.944-.177,48.484,48.484,0,0,0,.065,12.381c.9,3.555,2,7.41,5.41,11.236a35.627,35.627,0,0,0,5.81,5.043,32.829,32.829,0,0,0,8.927,4.855,33.2,33.2,0,0,0,5.446.946l.031.005a20.673,20.673,0,0,0,6.025.146,26.178,26.178,0,0,0,4.6-1,39.833,39.833,0,0,0,9.171-3.259,23.731,23.731,0,0,0,2.122-1.412,45.241,45.241,0,0,0,9.05-7.4c.486-1,.955-2.015,1.4-3.037.553-1.528,1.105-3.053,1.647-4.584A1.514,1.514,0,0,0,222.282,210.222Z" transform="translate(-163.548 -196.2)"/>
        </g>
        <g id="Grupo_155648" data-name="Grupo 155648" transform="translate(66.504 63.451)" opacity="0.129">
          <path id="Trazado_196076" data-name="Trazado 196076" d="M203.758,211.232c-1.522-.437-2.539.621-3.288,1.78l-.1.121c-1.327,1.549-1.7,1.419-3.891,3.4l-.029.022a3.535,3.535,0,0,0-1.221.989A2.685,2.685,0,0,0,198.7,221.5a14.188,14.188,0,0,0,4.436-3.9,17.652,17.652,0,0,0,2.113-2.7A2.513,2.513,0,0,0,203.758,211.232Z" transform="translate(-194.632 -211.131)"/>
        </g>
      </g>
      <g id="Grupo_155650" data-name="Grupo 155650" transform="translate(47.215 29.043)">
        <ellipse id="Elipse_6003" data-name="Elipse 6003" cx="8.594" cy="8.594" rx="8.594" ry="8.594" transform="translate(0.892 0.892)" fill="#7f4fc7"/>
        <path id="Trazado_196077" data-name="Trazado 196077" d="M189.88,211.048a9.487,9.487,0,1,1,9.487-9.487A9.5,9.5,0,0,1,189.88,211.048Zm0-17.189a7.7,7.7,0,1,0,7.7,7.7A7.711,7.711,0,0,0,189.88,193.859Z" transform="translate(-180.393 -192.075)"/>
      </g>
      <g id="Grupo_155651" data-name="Grupo 155651" transform="translate(7.416 70.914)">
        <path id="Trazado_196078" data-name="Trazado 196078" d="M159.244,232.577a.893.893,0,0,1-.668-1.484c4.458-5.023,8.837-10.234,13.017-15.492a.892.892,0,0,1,1.4,1.11c-4.2,5.283-8.6,10.519-13.08,15.566A.886.886,0,0,1,159.244,232.577Z" transform="translate(-158.351 -215.265)"/>
      </g>
      <g id="Grupo_155652" data-name="Grupo 155652" transform="translate(86.095 29.044)">
        <path id="Trazado_196079" data-name="Trazado 196079" d="M222.723,224.621a.908.908,0,0,1-.45-.121l-19.9-11.6a.892.892,0,1,1,.9-1.542l19.1,11.124,15.624-29.933a.892.892,0,0,1,1.582.827l-16.057,30.762a.888.888,0,0,1-.791.478Z" transform="translate(-201.926 -192.075)"/>
      </g>
      <g id="Grupo_155653" data-name="Grupo 155653" transform="translate(0 83.612)">
        <path id="Trazado_196080" data-name="Trazado 196080" d="M154.738,228.295a5.5,5.5,0,1,1,5.5,5.5A5.5,5.5,0,0,1,154.738,228.295Z" transform="translate(-153.846 -221.899)" fill="#fff"/>
        <path id="Trazado_196081" data-name="Trazado 196081" d="M160.639,235.088a6.4,6.4,0,1,1,6.4-6.4A6.4,6.4,0,0,1,160.639,235.088Zm0-11.007a4.611,4.611,0,1,0,4.61,4.612A4.617,4.617,0,0,0,160.639,224.081Z" transform="translate(-154.244 -222.297)"/>
      </g>
      <g id="Grupo_155654" data-name="Grupo 155654" transform="translate(118.998 18.036)">
        <path id="Trazado_196082" data-name="Trazado 196082" d="M220.643,191.976a5.5,5.5,0,1,1,5.5,5.5A5.5,5.5,0,0,1,220.643,191.976Z" transform="translate(-219.751 -185.581)" fill="#fff"/>
        <path id="Trazado_196083" data-name="Trazado 196083" d="M226.544,198.77a6.4,6.4,0,1,1,6.4-6.4A6.4,6.4,0,0,1,226.544,198.77Zm0-11.005a4.611,4.611,0,1,0,4.61,4.61A4.616,4.616,0,0,0,226.544,187.765Z" transform="translate(-220.149 -185.979)"/>
      </g>
      <g id="Grupo_155655" data-name="Grupo 155655" transform="translate(100.496 54.302)">
        <path id="Trazado_196084" data-name="Trazado 196084" d="M210.4,212.061a5.5,5.5,0,1,1,5.5,5.5A5.5,5.5,0,0,1,210.4,212.061Z" transform="translate(-209.504 -205.666)" fill="#fff"/>
        <path id="Trazado_196085" data-name="Trazado 196085" d="M216.3,218.855a6.4,6.4,0,1,1,6.4-6.4A6.4,6.4,0,0,1,216.3,218.855Zm0-11.007a4.611,4.611,0,1,0,4.612,4.612A4.616,4.616,0,0,0,216.3,207.848Z" transform="translate(-209.902 -206.064)"/>
      </g>
      <g id="Grupo_155656" data-name="Grupo 155656" transform="translate(32.708 44.302)">
        <path id="Trazado_196086" data-name="Trazado 196086" d="M173.251,223.775a.892.892,0,0,1-.7-1.444l16.913-21.465a.893.893,0,0,1,1.4,1.105l-16.915,21.465A.886.886,0,0,1,173.251,223.775Z" transform="translate(-172.359 -200.526)"/>
      </g>
      <g id="Grupo_155657" data-name="Grupo 155657" transform="translate(63.11 42.317)">
        <path id="Trazado_196087" data-name="Trazado 196087" d="M201.68,208.336a.893.893,0,0,1-.466-.132l-11.592-7.125a.892.892,0,0,1,.933-1.52l11.592,7.123a.893.893,0,0,1-.468,1.654Z" transform="translate(-189.197 -199.427)"/>
      </g>
    </g>
    <g id="Grupo_171283" data-name="Grupo 171283" transform="translate(647.394 6159.87)">
      <g id="Grupo_171282" data-name="Grupo 171282" clip-path="url(#clip-path-3)">
        <path id="Trazado_212340" data-name="Trazado 212340" d="M144.975,143.527a3.055,3.055,0,0,1-2.987,1.431q-69.512-.037-139.024-.022c-2.317,0-2.952-.628-2.957-2.913,0-1.934-.016-3.869,0-5.8.016-1.527.864-2.48,2.135-2.464s2.073.965,2.092,2.51c.017,1.41,0,2.821,0,4.333h136.4V62.841c-1.348,0-2.656,0-3.964,0-1.912,0-2.932-.725-2.959-2.084s1.014-2.144,2.891-2.15c1.314,0,2.627,0,4.029,0V40.269H4.354V58.605h121.1c.519,0,1.042-.029,1.556.021a2.033,2.033,0,0,1,1.951,2.05,2.062,2.062,0,0,1-2,2.145c-.515.046-1.037.018-1.556.018H4.243v1.772q0,30.432,0,60.863a10.722,10.722,0,0,1-.024,1.414,1.98,1.98,0,0,1-2.051,1.921,2.041,2.041,0,0,1-2.146-1.975c-.035-.374-.015-.754-.015-1.132q0-43.312,0-86.623c0-2.574.558-3.122,3.173-3.123H30.325V34.164c0-10.333.016-20.665-.019-31A3.381,3.381,0,0,1,31.714,0H46.438c.07.112.115.258.215.329a2.068,2.068,0,0,1,.794,2.619,2.143,2.143,0,0,1-2.292,1.3c-1.273-.04-2.548-.009-3.822-.009H34.7v18.3H140.652V4.241H138.9q-41.906,0-83.813.009c-1.2,0-2.289-.105-2.8-1.4-.521-1.338.316-2.11,1.22-2.846h91.458Zm-4.3-116.553H34.729v8.9H140.677Z" transform="translate(0)" fill="#12263f"/>
        <path id="Trazado_212341" data-name="Trazado 212341" d="M141.145,0c-.9.736-1.742,1.508-1.22,2.846.507,1.3,1.593,1.405,2.8,1.4q41.907-.018,83.813-.009h1.748v18.3H122.325V4.241h6.636c1.274,0,2.549-.031,3.822.009a2.143,2.143,0,0,0,2.292-1.3,2.068,2.068,0,0,0-.794-2.619c-.1-.071-.145-.218-.215-.329Zm-1.653,13.273a6.384,6.384,0,0,0-6.377-6.368,6.514,6.514,0,0,0-6.372,6.432,6.511,6.511,0,0,0,6.436,6.365,6.381,6.381,0,0,0,6.313-6.43m16.989.014a6.383,6.383,0,0,0-6.363-6.382,6.513,6.513,0,0,0-6.387,6.418,6.51,6.51,0,0,0,6.423,6.38,6.381,6.381,0,0,0,6.327-6.416m16.989-.016a6.384,6.384,0,0,0-6.379-6.366,6.514,6.514,0,0,0-6.37,6.435A6.511,6.511,0,0,0,167.16,19.7a6.381,6.381,0,0,0,6.31-6.432" transform="translate(-87.628)" fill="#fdbe41"/>
        <path id="Trazado_212342" data-name="Trazado 212342" d="M75.107,313.636q-12.034,0-24.067,0c-2.157,0-2.926-.726-2.928-2.852q-.016-20.24,0-40.481c0-2.049.793-2.8,2.841-2.8q24.28-.006,48.559,0c1.977,0,2.769.724,2.772,2.717q.031,20.382,0,40.764c0,1.959-.81,2.652-2.826,2.653q-12.175.009-24.35,0m9.875-12.758c4.208-3.651,8.318-7.188,12.374-10.786a2.366,2.366,0,0,0,.56-1.6c.041-5.14.027-10.281.021-15.422,0-.407-.055-.814-.085-1.225H52.606v25.932c3.455-3.025,6.72-5.871,9.97-8.733,2.764-2.434,3.7-2.473,6.607-.249,5.238,4.013,10.482,8.019,15.8,12.086m-32.514,8.432H88.925L65.992,291.764c-4.383,3.842-8.742,7.653-13.078,11.49a1.488,1.488,0,0,0-.426.977c-.043,1.646-.02,3.293-.02,5.08m36.005-5.76c2.358,1.8,4.559,3.569,6.858,5.2a9.17,9.17,0,0,0,2.485.828V295.428l-9.343,8.123" transform="translate(-34.459 -191.622)" fill="#12263f"/>
        <path id="Trazado_212343" data-name="Trazado 212343" d="M111.3,459.664q-26.54,0-53.079-.007a3.83,3.83,0,0,1-1.933-.2c-.666-.439-1.488-1.222-1.514-1.887s.745-1.48,1.356-2.012c.351-.306,1.078-.24,1.635-.241q53.645-.014,107.291,0a5.771,5.771,0,0,1,1.532.182,1.9,1.9,0,0,1,1.485,2.115,1.856,1.856,0,0,1-1.588,1.885,9.967,9.967,0,0,1-1.964.16q-26.61.012-53.221.007" transform="translate(-39.237 -326.164)" fill="#12263f"/>
        <path id="Trazado_212344" data-name="Trazado 212344" d="M301.389,328.627h21.655c.425,0,.852-.025,1.273.016,1.493.146,2.293.922,2.286,2.181s-.815,2.016-2.313,2.157c-.374.035-.754.013-1.132.013q-21.867,0-43.735-.008a3.621,3.621,0,0,1-1.922-.238c-.649-.464-1.439-1.287-1.435-1.951s.814-1.454,1.46-1.936a3.284,3.284,0,0,1,1.783-.227q11.04-.019,22.08-.008" transform="translate(-197.762 -235.409)" fill="#12263f"/>
        <path id="Trazado_212345" data-name="Trazado 212345" d="M301.253,364.557h21.8c.425,0,.852-.025,1.273.017,1.491.147,2.29.925,2.281,2.185s-.819,2.014-2.318,2.152c-.374.035-.754.013-1.132.013q-21.867,0-43.735-.008a3.609,3.609,0,0,1-1.922-.239c-.648-.465-1.436-1.29-1.43-1.955s.818-1.452,1.465-1.932a3.289,3.289,0,0,1,1.783-.226q10.969-.019,21.938-.008" transform="translate(-197.762 -261.148)" fill="#12263f"/>
        <path id="Trazado_212346" data-name="Trazado 212346" d="M300.981,400.494q10.969,0,21.938,0a9.8,9.8,0,0,1,1.272.032c1.4.185,2.144.964,2.129,2.181s-.773,1.957-2.188,2.128a9.456,9.456,0,0,1-1.131.025H278.983c-.142,0-.283,0-.425,0-1.831-.041-2.909-.867-2.887-2.213s1.091-2.147,2.946-2.149q11.181-.017,22.363,0" transform="translate(-197.479 -286.894)" fill="#12263f"/>
        <path id="Trazado_212347" data-name="Trazado 212347" d="M43.706,157.571a6.362,6.362,0,1,1-6.291-6.47,6.416,6.416,0,0,1,6.291,6.47m-4.272-.09a2.091,2.091,0,1,0-2.071,2.052,2.1,2.1,0,0,0,2.071-2.052" transform="translate(-22.194 -108.241)" fill="#12263f"/>
        <path id="Trazado_212348" data-name="Trazado 212348" d="M90.878,157.439a6.362,6.362,0,1,1,6.3,6.457,6.416,6.416,0,0,1-6.3-6.457m6.339,2.09a2.034,2.034,0,1,0-2.067-2.056,2.1,2.1,0,0,0,2.067,2.056" transform="translate(-65.101 -108.239)" fill="#12263f"/>
        <path id="Trazado_212349" data-name="Trazado 212349" d="M150.774,157.5a6.362,6.362,0,1,1,6.371,6.394,6.425,6.425,0,0,1-6.371-6.394m6.374-2.043a2.035,2.035,0,1,0,2.078,2.046,2.1,2.1,0,0,0-2.078-2.046" transform="translate(-108.008 -108.23)" fill="#12263f"/>
        <path id="Trazado_212350" data-name="Trazado 212350" d="M289.429,286.4c3.679,0,7.359-.007,11.039,0,1.713.005,2.611.726,2.636,2.067.026,1.407-.9,2.172-2.681,2.174q-11.039.01-22.077,0c-1.649,0-2.649-.794-2.684-2.075-.036-1.323,1-2.161,2.729-2.165,3.679-.01,7.359,0,11.039,0" transform="translate(-197.472 -205.164)" fill="#12263f"/>
        <path id="Trazado_212351" data-name="Trazado 212351" d="M150.651,30.713a6.382,6.382,0,0,1-6.313,6.43,6.4,6.4,0,1,1-.064-12.8,6.384,6.384,0,0,1,6.377,6.368m-4.283.067a2.016,2.016,0,0,0-2.023-2.063,2.03,2.03,0,1,0-.069,4.059,2.021,2.021,0,0,0,2.093-2" transform="translate(-98.787 -17.439)" fill="#12263f"/>
        <path id="Trazado_212352" data-name="Trazado 212352" d="M210.547,30.728a6.381,6.381,0,0,1-6.327,6.416,6.4,6.4,0,1,1-.036-12.8,6.383,6.383,0,0,1,6.363,6.382m-4.283.052a2.016,2.016,0,0,0-2.024-2.062,2.03,2.03,0,1,0-.068,4.06,2.022,2.022,0,0,0,2.092-2" transform="translate(-141.694 -17.44)" fill="#12263f"/>
        <path id="Trazado_212353" data-name="Trazado 212353" d="M270.443,30.708a6.381,6.381,0,0,1-6.31,6.432,6.4,6.4,0,1,1-.069-12.8,6.385,6.385,0,0,1,6.379,6.366m-6.175-1.989a2.03,2.03,0,1,0-.332,4.047,2.03,2.03,0,1,0,.332-4.047" transform="translate(-184.601 -17.438)" fill="#12263f"/>
        <path id="Trazado_212354" data-name="Trazado 212354" d="M96.355,311.857c-5.317-4.067-10.56-8.073-15.8-12.086-2.9-2.224-3.843-2.185-6.607.249-3.25,2.862-6.514,5.708-9.97,8.733V282.821h45.246c.029.41.084.817.085,1.224.006,5.14.02,10.281-.021,15.422a2.368,2.368,0,0,1-.56,1.6c-4.056,3.6-8.166,7.135-12.374,10.786m1.679-12.4a7.527,7.527,0,0,0,7.479-7.462,7.681,7.681,0,0,0-7.492-7.512,7.517,7.517,0,0,0-7.483,7.6,7.408,7.408,0,0,0,7.5,7.378" transform="translate(-45.832 -202.601)" fill="#ece5f7"/>
        <path id="Trazado_212355" data-name="Trazado 212355" d="M63.476,370.6c0-1.787-.024-3.434.02-5.08a1.486,1.486,0,0,1,.426-.977c4.336-3.837,8.7-7.648,13.078-11.49L99.933,370.6Z" transform="translate(-45.467 -252.914)" fill="#ece5f7"/>
        <path id="Trazado_212356" data-name="Trazado 212356" d="M190.43,374.1l9.343-8.123v14.148a9.171,9.171,0,0,1-2.485-.828c-2.3-1.628-4.5-3.393-6.858-5.2" transform="translate(-136.416 -262.167)" fill="#ece5f7"/>
        <path id="Trazado_212363" data-name="Trazado 212363" d="M165.107,303.64a7.407,7.407,0,0,1-7.5-7.378,7.517,7.517,0,0,1,7.483-7.6,7.681,7.681,0,0,1,7.492,7.512,7.527,7.527,0,0,1-7.479,7.462m3.095-7.467a3.077,3.077,0,0,0-3.113-3.124,3.176,3.176,0,0,0-3.205,3.081,3.278,3.278,0,0,0,3.225,3.237,3.176,3.176,0,0,0,3.093-3.194" transform="translate(-112.905 -206.787)" fill="#12263f"/>
        <path id="Trazado_212364" data-name="Trazado 212364" d="M178.99,307.245a3.176,3.176,0,0,1-3.093,3.194,3.278,3.278,0,0,1-3.225-3.237,3.176,3.176,0,0,1,3.205-3.081,3.077,3.077,0,0,1,3.113,3.124" transform="translate(-123.694 -217.859)" fill="#eeac3a"/>
      </g>
    </g>
    <g id="Grupo_171285" data-name="Grupo 171285" transform="translate(475.094 5951.595)">
      <g id="Grupo_171284" data-name="Grupo 171284" transform="translate(0 0)" clip-path="url(#clip-path-4)">
        <path id="Trazado_212365" data-name="Trazado 212365" d="M70.259,80.32,64.24,71.249c-.5.636-.737,1.178-1.154,1.429-.911.548-2.253,1.567-2.8,1.267a4.748,4.748,0,0,1-1.789-2.9,59.067,59.067,0,0,1-.831-6.23c-4.078,0-8.018,0-11.957,0a10.209,10.209,0,0,1-2.8-.085,7.8,7.8,0,0,1-2.055-1.439c.717-.573,1.417-1.617,2.152-1.642,4.579-.152,9.166-.077,14.192-.077-.281-2.9-.621-5.538-.768-8.185-.167-3,1.138-3.776,3.83-2.34,1.535.819,3.016,1.741,4.847,2.806V14.41H3.336c-.06,1-.162,1.909-.163,2.823q-.016,19.915,0,39.83c0,3.916.6,4.485,4.571,4.492,6.48.011,12.963-.063,19.441.075.978.021,1.935.991,2.9,1.522-.942.552-1.874,1.564-2.826,1.582-6.9.135-13.8.137-20.695.044-4.442-.059-6.538-2.22-6.545-6.6q-.04-25.717,0-51.435C.023,2.143,2.149.017,6.717.012Q34.156-.015,61.6.009C66.42.012,68.44,2,68.45,6.871c.033,15.263.078,30.526-.052,45.789-.021,2.446.663,3.891,2.867,4.863a22.189,22.189,0,0,1,4.3,2.554c.844.632,2.116,1.861,1.938,2.429-.293.937-1.577,1.591-2.5,2.295a9.466,9.466,0,0,1-1.686.775l5.723,7.841v2.51L72.769,80.32Zm-4.983-69.7c0-1.526-.046-2.675.009-3.82.12-2.489-1.03-3.685-3.522-3.684Q34.182,3.13,6.6,3.123c-2.147,0-3.325,1.058-3.415,3.208-.059,1.412-.011,2.828-.011,4.29ZM75.317,74.336c-1.554-2.393-2.885-4.632-4.406-6.732-1.689-2.331-2.34-4.325,1.462-5.69L59.8,54.53l1.713,14.237c3.274-2.173,3.6-2.105,5.712,1.057,1.5,2.241,2.985,4.487,4.544,6.831l3.553-2.319" transform="translate(0 0)" fill="#12263f"/>
        <path id="Trazado_212366" data-name="Trazado 212366" d="M26.469,32.442c7.29.073,6.7-.889,6.705,6.69,0,7.846.691,7.089-6.994,7.085-7.509,0-6.857.752-6.846-6.894.01-7.878-.724-6.791,7.135-6.881m3.078,3.466h-6.69v6.744h6.69Z" transform="translate(-7.099 -11.921)" fill="#12263f"/>
        <path id="Trazado_212367" data-name="Trazado 212367" d="M41.5,66.938c-6.263,0-12.528.079-18.787-.077-1.034-.026-2.043-1.076-3.063-1.654.984-.525,1.965-1.5,2.954-1.508q18.944-.155,37.89,0c1,.009,1.982,1.017,2.973,1.561-.955.558-1.9,1.579-2.866,1.6-6.364.145-12.733.075-19.1.076" transform="translate(-7.221 -23.383)" fill="#12263f"/>
        <path id="Trazado_212368" data-name="Trazado 212368" d="M38.278,82.584c-5.32,0-10.642.066-15.959-.065-.9-.023-1.778-.9-2.666-1.381.913-.575,1.82-1.639,2.739-1.65q15.646-.177,31.293,0c.964.011,1.916,1.031,2.873,1.582-.982.506-1.952,1.42-2.949,1.448-5.107.149-10.221.069-15.332.068" transform="translate(-7.223 -29.182)" fill="#12263f"/>
        <path id="Trazado_212369" data-name="Trazado 212369" d="M63.206,51.328c-3.026,0-6.06.124-9.072-.08-.865-.058-1.665-1.066-2.5-1.638.854-.558,1.7-1.579,2.563-1.6q9.23-.209,18.465,0c.862.02,1.7,1.082,2.549,1.661-.873.551-1.72,1.519-2.623,1.576-3.117.2-6.256.076-9.386.075" transform="translate(-18.979 -17.608)" fill="#12263f"/>
        <path id="Trazado_212370" data-name="Trazado 212370" d="M63.511,35.686c-3.023,0-6.055.133-9.063-.077-.969-.068-1.875-1.039-2.81-1.6.863-.524,1.716-1.484,2.589-1.5q9.22-.2,18.445.005c.864.02,1.705,1.022,2.557,1.57-.884.533-1.741,1.467-2.655,1.527-3.01.2-6.041.073-9.063.074" transform="translate(-18.979 -11.913)" fill="#12263f"/>
        <path id="Trazado_212371" data-name="Trazado 212371" d="M67.111,12.433H5.011c0-1.462-.048-2.878.011-4.29.089-2.15,1.268-3.208,3.415-3.208q27.58,0,55.162-.006c2.492,0,3.641,1.2,3.522,3.685-.055,1.144-.009,2.293-.009,3.819" transform="translate(-1.835 -1.812)" fill="#ee296d"/>
        <path id="Trazado_212372" data-name="Trazado 212372" d="M110.067,106.025l-3.553,2.319c-1.559-2.345-3.048-4.59-4.544-6.831-2.111-3.162-2.438-3.23-5.712-1.057L94.546,86.219,107.122,93.6c-3.8,1.364-3.15,3.359-1.462,5.69,1.522,2.1,2.852,4.339,4.406,6.732" transform="translate(-34.749 -31.689)" fill="#b1daf6"/>
        <rect id="Rectángulo_52594" data-name="Rectángulo 52594" width="6.69" height="6.744" transform="translate(15.757 23.987)" fill="url(#linear-gradient-5)"/>
      </g>
    </g>
  </g>
</svg>
