<svg xmlns="http://www.w3.org/2000/svg" xmlns:xlink="http://www.w3.org/1999/xlink" width="433.742" height="233.075" viewBox="0 0 433.742 233.075">
  <defs>
    <filter id="Trazado_228310" x="0" y="0" width="433.742" height="233.075" filterUnits="userSpaceOnUse">
      <feOffset dy="3" input="SourceAlpha"/>
      <feGaussianBlur stdDeviation="5" result="blur"/>
      <feFlood flood-opacity="0.161"/>
      <feComposite operator="in" in2="blur"/>
      <feComposite in="SourceGraphic"/>
    </filter>
    <clipPath id="clip-path">
      <rect id="Rectángulo_56248" data-name="Rectángulo 56248" width="77.021" height="104.987" fill="#12263f"/>
    </clipPath>
  </defs>
  <g id="Grupo_179427" data-name="Grupo 179427" transform="translate(-1009.028 -4193.489)">
    <path id="Trazado_228309" data-name="Trazado 228309" d="M47.66,2.051q-42,0-42-58.98,0-30.6,11.361-46.635T49.957-119.6q41.016,0,41.016,59.965,0,29.859-11.2,45.773T47.66,2.051ZM48.809-99.832q-16.816,0-16.816,42.246Q31.992-17.8,48.48-17.8q16.078,0,16.078-41.016T48.809-99.832ZM106.23-3.855V-26.414Q118.043-17.8,133.793-17.8q9.926,0,15.463-4.266t5.537-11.895a13.52,13.52,0,0,0-6.85-12.141q-6.85-4.266-18.826-4.266h-10.91V-70.219H128.3q22.969,0,22.969-15.258,0-14.355-17.637-14.355-11.812,0-22.969,7.629v-21.164q12.387-6.234,28.875-6.234,18.047,0,28.1,8.121A25.845,25.845,0,0,1,177.68-90.4q0,23.051-23.379,28.875v.41q12.469,1.559,19.688,9.064a25.558,25.558,0,0,1,7.219,18.416q0,16.488-12.059,26.086t-33.3,9.6Q117.633,2.051,106.23-3.855Z" transform="translate(1209.878 4371.076)" fill="#e2e5e8"/>
    <g transform="matrix(1, 0, 0, 1, 1009.03, 4193.49)" filter="url(#Trazado_228310)">
      <path id="Trazado_228310-2" data-name="Trazado 228310" d="M0,0H341.742a62,62,0,0,1,62,62V203.075H62a62,62,0,0,1-62-62Z" transform="translate(15 12)" fill="#f6f6f6"/>
    </g>
    <path id="Trazado_228308" data-name="Trazado 228308" d="M47.66,2.051q-42,0-42-58.98,0-30.6,11.361-46.635T49.957-119.6q41.016,0,41.016,59.965,0,29.859-11.2,45.773T47.66,2.051ZM48.809-99.832q-16.816,0-16.816,42.246Q31.992-17.8,48.48-17.8q16.078,0,16.078-41.016T48.809-99.832ZM106.23-3.855V-26.414Q118.043-17.8,133.793-17.8q9.926,0,15.463-4.266t5.537-11.895a13.52,13.52,0,0,0-6.85-12.141q-6.85-4.266-18.826-4.266h-10.91V-70.219H128.3q22.969,0,22.969-15.258,0-14.355-17.637-14.355-11.812,0-22.969,7.629v-21.164q12.387-6.234,28.875-6.234,18.047,0,28.1,8.121A25.845,25.845,0,0,1,177.68-90.4q0,23.051-23.379,28.875v.41q12.469,1.559,19.688,9.064a25.558,25.558,0,0,1,7.219,18.416q0,16.488-12.059,26.086t-33.3,9.6Q117.633,2.051,106.23-3.855Z" transform="translate(1217.366 4390.076)" fill="#e2e5e8"/>
    <g id="Grupo_157316" data-name="Grupo 157316" transform="translate(843.694 2014.076)">
      <text id="Fijar_las_alternativas_estratégicas" data-name="Fijar las alternativas estratégicas" transform="translate(225.257 2324.299)" fill="#12263f" font-size="16" font-family="SegoeUI, Segoe UI"><tspan x="0" y="17">Fijar las alternativas estratégicas</tspan></text>
    </g>
    <g id="Grupo_175603" data-name="Grupo 175603" transform="translate(1068.952 4225.589)">
      <g id="Grupo_175602" data-name="Grupo 175602" clip-path="url(#clip-path)">
        <path id="Trazado_217797" data-name="Trazado 217797" d="M64.186,138.843a2.573,2.573,0,0,1-1.12-2.443c.06-1.877-.053-3.762.051-5.635a4.621,4.621,0,0,1,.738-2.245c1.23-1.8,2.622-3.5,3.888-5.277a2.626,2.626,0,0,0,.533-1.564,21.562,21.562,0,0,1,2.12-10.751,57.092,57.092,0,0,0,4.7-22.09c.009-.376.011-.752.025-1.127.057-1.6.481-2.067,2.146-2.271,0-1.511.016-3.04-.018-4.567a.927.927,0,0,0-.4-.615c-2.024-1.347-2.029-1.339-4.189-.093-.975.562-1.942,1.141-2.931,1.678a1.727,1.727,0,0,1-2.618-.685Q64.52,76.739,62,72.286a1.709,1.709,0,0,1,.7-2.535c1.4-.846,2.816-1.674,4.254-2.456a1.424,1.424,0,0,0,.746-1.273,2.722,2.722,0,0,0-1.914-3.28,23.388,23.388,0,0,1-3.1-1.781A1.711,1.711,0,0,1,62,58.421q2.525-4.452,5.114-8.869a1.741,1.741,0,0,1,2.63-.656c1.46.815,2.883,1.7,4.359,2.478a1.7,1.7,0,0,0,1.167-.013c1.717-.54,2.27-1.729,2.024-3.491a21.275,21.275,0,0,1-.022-3.378A1.667,1.667,0,0,1,79.1,42.629q5.122-.037,10.245,0a1.71,1.71,0,0,1,1.888,1.921c.021,1.606.034,3.212-.008,4.817a1.4,1.4,0,0,0,.713,1.287,2.779,2.779,0,0,0,3.876-.056,21.779,21.779,0,0,1,2.908-1.711,1.77,1.77,0,0,1,2.7.707q2.531,4.331,5.007,8.694a1.771,1.771,0,0,1-.754,2.754c-1.377.822-2.761,1.634-4.168,2.4-.519.284-.6.642-.686,1.2A2.763,2.763,0,0,0,102.788,68a26.732,26.732,0,0,1,2.759,1.559,1.951,1.951,0,0,1,1.094,2.531c1.329.387,2.627.761,3.923,1.144,1.714.507,2.088,1.177,1.61,2.877-.286,1.018-.583,2.033-.866,3.051a2.29,2.29,0,0,0,1.85,2.461c1.161-.022,2.32-.093,3.481-.122,1.388-.035,2.044.563,2.1,1.924q.166,4.2.3,8.4a1.808,1.808,0,0,1-1.978,2.162c-.92.051-1.845.146-2.762.108a2.035,2.035,0,0,0-2.143,1.119,1.814,1.814,0,0,0-.2,1.781c.418,1.007.783,2.038,1.124,3.074a1.689,1.689,0,0,1-1,2.355c-3.028,1.138-6.077,2.217-9.271,3.375.525,1.49,1.071,3.049,1.624,4.605a4.857,4.857,0,0,0,.355.849,16.029,16.029,0,0,1,2.012,10.033,2.948,2.948,0,0,0,.735,2.24c1.313,1.659,2.6,3.345,3.8,5.09a4.165,4.165,0,0,1,.682,2.058c.092,1.909,0,3.826.045,5.738a2.55,2.55,0,0,1-1.142,2.435Zm16.58-92.681c0,1.722-.013,3.325,0,4.928a2.081,2.081,0,0,1-1.331,2.084,25.041,25.041,0,0,0-3.272,1.876,2.107,2.107,0,0,1-2.551.121c-1.388-.844-2.812-1.629-4.281-2.474l-3.489,6.054c1.432.825,2.791,1.6,4.146,2.391,1.256.73,1.412,1.178,1.274,2.592a16.36,16.36,0,0,0-.01,3.164c.146,1.5.009,1.906-1.3,2.669-1.346.782-2.694,1.559-4.106,2.376L69.339,78c1.509-.871,2.937-1.669,4.337-2.513a2.016,2.016,0,0,1,2.46.139,10.773,10.773,0,0,0,2.615,1.58,2.719,2.719,0,0,1,2.035,3.185c-.1,1.375-.022,2.765-.022,4.13h6.987c0-1.7.022-3.336-.008-4.968A2.04,2.04,0,0,1,89.105,77.5a21.56,21.56,0,0,0,3.183-1.826,2.146,2.146,0,0,1,2.638-.133c1.367.833,2.769,1.609,4.238,2.456l3.489-6.052c-1.486-.863-2.822-1.686-4.2-2.425a2.212,2.212,0,0,1-1.258-2.43,19.111,19.111,0,0,0,0-3.461,2.22,2.22,0,0,1,1.233-2.445c1.405-.756,2.77-1.589,4.226-2.432L99.166,52.7c-1.5.865-2.957,1.683-4.392,2.531A2,2,0,0,1,92.4,55.1a21.14,21.14,0,0,0-3.174-1.844A2.173,2.173,0,0,1,87.74,50.97c.05-1.592.013-3.188.013-4.808Zm21.179,68.12L97.43,99.84c-.931.719-1.99,1.557-3.071,2.365a1.733,1.733,0,0,1-2.751-.342q-2.633-3.334-5.219-6.707a1.776,1.776,0,0,1,.369-2.832c.918-.744,1.856-1.465,2.966-2.338-.739-.682-1.357-1.753-2.041-1.8-2.983-.19-5.984-.082-8.736-.082-.632,4.515-.989,8.986-1.941,13.325-.955,4.355-2.5,8.581-3.787,12.849Zm-35.3,17.574v3.437h41.9c0-1.311.048-2.569-.023-3.82a2.994,2.994,0,0,0-.5-1.482c-1.06-1.508-2.21-2.95-3.289-4.445a1.477,1.477,0,0,0-1.344-.7q-15.826.03-31.652.018c-.268,0-.662-.05-.785.1-.866,1.053-1.676,2.151-2.627,3.4h.913c3.141,0,6.283-.009,9.424.007a1.747,1.747,0,0,1,1.91,1.7,1.8,1.8,0,0,1-1.861,1.78c-.408.022-.819.006-1.229.006H66.641m41.841-55.574c-1.037-.3-2.024-.54-2.977-.877a.734.734,0,0,0-1.053.42c-.932,1.667-1.9,3.315-2.858,4.966-.857,1.473-1.648,1.69-3.107.858-1.362-.777-2.711-1.578-4.086-2.333a1.189,1.189,0,0,0-.9-.14c-2.269,1.016-2.262,1.03-2.262,3.526a6.084,6.084,0,0,1,0,.717,5.638,5.638,0,0,0,1.64,5.205,2.236,2.236,0,0,1,.386.6c.709,1.3.569,2-.589,2.916-.851.673-1.707,1.339-2.612,2.047l3.36,4.322c.926-.721,1.819-1.4,2.69-2.1a2.074,2.074,0,0,1,2.278-.333,15.319,15.319,0,0,0,2.734.793,2.152,2.152,0,0,1,1.827,1.551c.342,1.054.758,2.083,1.163,3.181l5.125-1.865c-.425-1.193-.793-2.287-1.206-3.363a1.967,1.967,0,0,1,.4-2.083,15.837,15.837,0,0,0,1.615-2.348,2.124,2.124,0,0,1,2.112-1.295c1.077.028,2.156.006,3.136.006v-5.5c-1.278,0-2.4-.028-3.523.009a2.03,2.03,0,0,1-1.933-1.07,14.758,14.758,0,0,0-1.748-2.251,2.109,2.109,0,0,1-.571-2.238c.316-1.071.623-2.146.962-3.32m-5.225,41.637H71.882v3.4h31.374Z" transform="translate(-49.018 -33.856)" fill="#12263f"/>
        <path id="Trazado_217798" data-name="Trazado 217798" d="M0,36.5c.32-2.087.525-4.2.98-6.255a38.453,38.453,0,0,1,75.5,1.968,37.206,37.206,0,0,1,.21,11.224c-.195,1.434-.945,2.207-2.022,2.043-1.1-.168-1.64-1.083-1.447-2.513A34.077,34.077,0,0,0,72.4,29.755a34.892,34.892,0,0,0-29.241-25.9C24.655,1.413,7.293,13.865,4.206,32.244,1.841,46.328,6.588,57.9,17.886,66.711c1.387,1.081,1.763,1.992,1.079,2.954s-1.742.94-3.124-.1A38.113,38.113,0,0,1,.177,41.378C.147,41.047.06,40.72,0,40.391V36.5" transform="translate(0 0)" fill="#12263f"/>
        <path id="Trazado_217799" data-name="Trazado 217799" d="M40.514,204.53a1.533,1.533,0,0,1,1.4,1.2,32.026,32.026,0,0,0,3.557,8.456,1.727,1.727,0,0,1-2.968,1.766,28.975,28.975,0,0,1-3.876-9.192,1.73,1.73,0,0,1,1.889-2.226" transform="translate(-30.642 -162.509)" fill="#12263f"/>
        <path id="Trazado_217800" data-name="Trazado 217800" d="M81.86,275.706a1.729,1.729,0,0,1-2.668,1.579,14.041,14.041,0,0,1-2.331-2.142,1.558,1.558,0,0,1,.049-2.158,1.494,1.494,0,0,1,2.106-.4,21.741,21.741,0,0,1,2.557,2.343,1.778,1.778,0,0,1,.287.774" transform="translate(-60.743 -216.36)" fill="#12263f"/>
        <path id="Trazado_217801" data-name="Trazado 217801" d="M137.533,126.239a6.983,6.983,0,1,1,13.965.045,6.983,6.983,0,1,1-13.965-.045m3.5.013a3.5,3.5,0,0,0,3.52,3.491,3.539,3.539,0,0,0,3.458-3.47,3.481,3.481,0,0,0-3.488-3.517,3.441,3.441,0,0,0-3.49,3.5" transform="translate(-109.277 -94.745)" fill="#12263f"/>
        <path id="Trazado_217802" data-name="Trazado 217802" d="M174.952,463.441c-.82,0-1.64.023-2.459-.006a1.77,1.77,0,0,1-1.875-1.755,1.716,1.716,0,0,1,1.877-1.726q2.509-.033,5.02,0a1.727,1.727,0,0,1,1.829,1.676,1.786,1.786,0,0,1-1.831,1.806c-.068,0-.137,0-.2,0h-2.357" transform="translate(-135.565 -365.444)" fill="#12263f"/>
        <path id="Trazado_217803" data-name="Trazado 217803" d="M235.691,249.145a5.216,5.216,0,0,1-.016-10.433,5.275,5.275,0,0,1,5.228,5.221,5.22,5.22,0,0,1-5.212,5.212m-.048-6.922a1.76,1.76,0,0,0-1.672,1.735,1.715,1.715,0,1,0,3.43-.086,1.762,1.762,0,0,0-1.758-1.648" transform="translate(-183.12 -189.669)" fill="#12263f"/>
      </g>
    </g>
  </g>
</svg>
