<svg xmlns="http://www.w3.org/2000/svg" xmlns:xlink="http://www.w3.org/1999/xlink" width="87.339" height="87.339" viewBox="0 0 87.339 87.339">
  <defs>
    <radialGradient id="radial-gradient" cx="0.076" cy="0.019" r="1.465" gradientTransform="translate(0.001)" gradientUnits="objectBoundingBox">
      <stop offset="0" stop-color="#f6f6f7"/>
      <stop offset="0.477" stop-color="#f9f9fa"/>
      <stop offset="0.715" stop-color="#fff"/>
    </radialGradient>
    <clipPath id="clip-path">
      <rect id="Rectángulo_56326" data-name="Rectángulo 56326" width="38.892" height="38.869" fill="#12263f"/>
    </clipPath>
  </defs>
  <g id="Grupo_179427" data-name="Grupo 179427" transform="translate(-191 -8398.725)">
    <g id="Grupo_154995" data-name="Grupo 154995" transform="translate(191 8398.725)">
      <g id="Grupo_18423" data-name="Grupo 18423" transform="translate(0 0)">
        <g id="Grupo_18421" data-name="Grupo 18421">
          <g id="Grupo_18420" data-name="Grupo 18420">
            <g id="Grupo_18419" data-name="Grupo 18419">
              <path id="Trazado_40936" data-name="Trazado 40936" d="M281.962,2189.389a43.669,43.669,0,1,1-43.669-43.668A43.669,43.669,0,0,1,281.962,2189.389Z" transform="translate(-194.623 -2145.721)" fill="#fff"/>
            </g>
          </g>
        </g>
        <path id="Trazado_40937" data-name="Trazado 40937" d="M281.7,2189.1a43.669,43.669,0,1,0-43.669,43.67A43.5,43.5,0,0,0,281.7,2189.1Z" transform="translate(-194.361 -2145.436)" fill="url(#radial-gradient)"/>
        <path id="Trazado_40938" data-name="Trazado 40938" d="M269.1,2186.859a33.332,33.332,0,1,0-33.333,33.333A33.209,33.209,0,0,0,269.1,2186.859Z" transform="translate(-191.968 -2143.046)" fill="none" stroke="#7f4fc7" stroke-miterlimit="10" stroke-width="4"/>
        <g id="Grupo_18422" data-name="Grupo 18422" transform="translate(7.736 24.517)">
          <path id="Trazado_40939" data-name="Trazado 40939" d="M275.732,2164.488a43.675,43.675,0,0,1-75.187,43.488,43.536,43.536,0,0,0,75.187-43.488Z" transform="translate(-200.545 -2164.488)" fill="#eceef0"/>
        </g>
      </g>
      <g id="Grupo_175651" data-name="Grupo 175651" transform="translate(25 24.091)">
        <g id="Grupo_175650" data-name="Grupo 175650" clip-path="url(#clip-path)">
          <path id="Trazado_217943" data-name="Trazado 217943" d="M0,30.232V7.369A1.448,1.448,0,0,0,.072,7.2,2.518,2.518,0,0,1,2.418,5.213c.472-.044.952-.007,1.465-.007,0-.863,0-1.657,0-2.451A2.53,2.53,0,0,1,4.9.571,7.509,7.509,0,0,1,6.076,0H32.813a1.479,1.479,0,0,0,.17.071,2.494,2.494,0,0,1,1.985,2.3c.069.741.03,1.491.039,2.237,0,.184,0,.367,0,.528a14.779,14.779,0,0,1,1.875.13,2.557,2.557,0,0,1,2.006,2.643q.008,4.252,0,8.5,0,6.587,0,13.174a2.816,2.816,0,0,1-.534,1.781,2.723,2.723,0,0,1-2.327,1.043q-6,0-12,0h-.476c.516,1.715,1.006,3.36,1.514,5,.026.084.2.168.307.174.387.021.777.008,1.175.008V38.87H12.336V37.6c.4,0,.782-.014,1.159.005.219.011.308-.07.367-.276.258-.9.533-1.792.8-2.687l.666-2.224h-.494q-5.979,0-11.959,0a2.546,2.546,0,0,1-2.069-.758A8.315,8.315,0,0,1,0,30.232M33.71,25.9v-.538q0-11.26,0-22.52A1.35,1.35,0,0,0,32.183,1.3q-12.741,0-25.483,0a2.37,2.37,0,0,0-.454.027A1.353,1.353,0,0,0,5.18,2.85q0,11.279,0,22.558v.481H3.868V6.477c-.366,0-.693,0-1.02,0a1.359,1.359,0,0,0-1.554,1.56q0,9.38,0,18.761v.394H37.6v-.4q0-9.38,0-18.761a3.074,3.074,0,0,0-.008-.341,1.162,1.162,0,0,0-.879-1.117,11.774,11.774,0,0,0-1.715-.127V25.9ZM1.294,28.543c0,.334,0,.647,0,.961,0,1.142.469,1.613,1.613,1.613q16.534,0,33.068,0a3.533,3.533,0,0,0,.492-.028,1.236,1.236,0,0,0,1.109-1.123c.039-.463.008-.932.008-1.422Zm22.428,9.041a1.262,1.262,0,0,0-.023-.177c-.475-1.585-.957-3.168-1.42-4.756-.07-.242-.213-.236-.4-.236-1.62,0-3.239.008-4.859-.006a.384.384,0,0,0-.446.331C16.2,34.061,15.8,35.379,15.4,36.7c-.086.287-.17.574-.262.885Z" transform="translate(0 -0.001)" fill="#12263f"/>
          <path id="Trazado_217945" data-name="Trazado 217945" d="M93.116,50.443l.814,3.644c.08.358.168.714.239,1.073a.644.644,0,0,1-.491.815q-1.325.325-2.663.6c-.4.084-.687-.124-.793-.573-.255-1.082-.491-2.169-.735-3.254-.1-.431-.221-.859-.283-1.3-.039-.275-.185-.345-.414-.392a4.012,4.012,0,0,1-3.256-3.537,4.077,4.077,0,0,1,3.276-4.448c.406-.094.81-.214,1.221-.269A8.643,8.643,0,0,0,93.7,41.289c1.99-1.322,4.031-2.569,6.061-3.83a.479.479,0,0,0,.254-.638,2.238,2.238,0,0,1,.252-2.132,1.923,1.923,0,0,1,1.939-.776,1.82,1.82,0,0,1,1.568,1.368c.357,1.395.66,2.8.975,4.209q1.318,5.882,2.627,11.766a2.05,2.05,0,0,1-1.284,2.606,2.014,2.014,0,0,1-2.529-1.221.357.357,0,0,1-.028-.11c-.012-.874-.519-1.07-1.314-1.154-2.741-.287-5.473-.667-8.21-1a4.828,4.828,0,0,0-.89.061m9.87-.259L100.4,38.6c-.087.043-.157.069-.219.108-2.343,1.476-4.682,2.959-7.032,4.424-.243.152-.2.314-.152.51.377,1.69.764,3.377,1.124,5.07.069.325.219.411.528.444,1.332.146,2.661.324,3.991.488l4.344.535M91.7,43.759c-.9.2-1.743.387-2.59.581a4.481,4.481,0,0,0-.506.154,2.773,2.773,0,0,0-1.764,2.985,2.625,2.625,0,0,0,2.533,2.334,31,31,0,0,0,3.555-.553l-1.227-5.5M101.166,36c.011.061.03.2.06.334q1.226,5.495,2.455,10.989c.353,1.579.7,3.159,1.064,4.734a.707.707,0,0,0,.866.6.722.722,0,0,0,.529-.906c-.014-.087-.03-.175-.05-.261q-1.469-6.586-2.94-13.172c-.19-.851-.371-1.7-.581-2.55a.708.708,0,0,0-.818-.571.746.746,0,0,0-.587.809M92.773,54.854l-.925-4.1-1.405.323.912,4.087,1.419-.315" transform="translate(-79.002 -31.302)" fill="#12263f"/>
          <path id="Trazado_217946" data-name="Trazado 217946" d="M369.614,138.139l.283,1.259-3.344.75-.287-1.263,3.348-.746" transform="translate(-338.392 -127.626)" fill="#12263f"/>
          <path id="Trazado_217947" data-name="Trazado 217947" d="M379.457,223.527l.58-1.156,2.585,1.292-.572,1.159-2.593-1.3" transform="translate(-350.579 -205.448)" fill="#12263f"/>
          <path id="Trazado_217948" data-name="Trazado 217948" d="M345.984,45.655l.831.821-1.928,1.912-.793-.848,1.89-1.885" transform="translate(-317.907 -42.18)" fill="#12263f"/>
          <rect id="Rectángulo_56323" data-name="Rectángulo 56323" width="1.251" height="1.262" transform="translate(9.096 2.604)" fill="#12263f"/>
          <rect id="Rectángulo_56324" data-name="Rectángulo 56324" width="1.246" height="1.252" transform="translate(6.498 2.609)" fill="#12263f"/>
          <rect id="Rectángulo_56325" data-name="Rectángulo 56325" width="1.247" height="1.245" transform="translate(11.689 2.612)" fill="#12263f"/>
        </g>
      </g>
    </g>
  </g>
</svg>
