<svg xmlns="http://www.w3.org/2000/svg" xmlns:xlink="http://www.w3.org/1999/xlink" width="658.807" height="401.638" viewBox="0 0 658.807 401.638">
  <defs>
    <filter id="Trazado_187220" x="342.515" y="17.819" width="316.291" height="190.853" filterUnits="userSpaceOnUse">
      <feOffset dy="3" input="SourceAlpha"/>
      <feGaussianBlur stdDeviation="3" result="blur"/>
      <feFlood flood-opacity="0.161"/>
      <feComposite operator="in" in2="blur"/>
      <feComposite in="SourceGraphic"/>
    </filter>
    <filter id="Trazado_187335" x="19.392" y="17.819" width="316.291" height="190.853" filterUnits="userSpaceOnUse">
      <feOffset dy="3" input="SourceAlpha"/>
      <feGaussianBlur stdDeviation="3" result="blur-2"/>
      <feFlood flood-opacity="0.161"/>
      <feComposite operator="in" in2="blur-2"/>
      <feComposite in="SourceGraphic"/>
    </filter>
    <filter id="Trazado_187333" x="342.515" y="205.876" width="316.291" height="195.762" filterUnits="userSpaceOnUse">
      <feOffset dy="3" input="SourceAlpha"/>
      <feGaussianBlur stdDeviation="3" result="blur-3"/>
      <feFlood flood-opacity="0.161"/>
      <feComposite operator="in" in2="blur-3"/>
      <feComposite in="SourceGraphic"/>
    </filter>
    <filter id="Trazado_187334" x="19.392" y="205.876" width="316.291" height="195.762" filterUnits="userSpaceOnUse">
      <feOffset dy="3" input="SourceAlpha"/>
      <feGaussianBlur stdDeviation="3" result="blur-4"/>
      <feFlood flood-opacity="0.161"/>
      <feComposite operator="in" in2="blur-4"/>
      <feComposite in="SourceGraphic"/>
    </filter>
    <clipPath id="clip-path">
      <path id="Trazado_187228" data-name="Trazado 187228" d="M196.731,156.729a82.819,82.819,0,1,0,58.5-24.192,82.82,82.82,0,0,0-58.5,24.192" transform="translate(-172.537 -132.537)" fill="none"/>
    </clipPath>
    <linearGradient id="linear-gradient" x1="-1.095" y1="1.856" x2="-1.088" y2="1.856" gradientUnits="objectBoundingBox">
      <stop offset="0" stop-color="#e6e6e6"/>
      <stop offset="1" stop-color="#fff"/>
    </linearGradient>
    <clipPath id="clip-path-2">
      <path id="Trazado_187332" data-name="Trazado 187332" d="M278.136,214.551V96.253a130.584,130.584,0,0,1,118.3,118.3ZM254.55,96.253a130.584,130.584,0,0,0-118.3,118.3h118.3Zm-118.3,141.884a130.584,130.584,0,0,0,118.3,118.3v-118.3Zm260.182,0h-118.3v118.3a130.584,130.584,0,0,0,118.3-118.3" transform="translate(-136.252 -96.253)" fill="none"/>
    </clipPath>
    <clipPath id="clip-path-3">
      <rect id="Rectángulo_44148" data-name="Rectángulo 44148" width="51.815" height="52.262" transform="translate(0 0)" fill="none"/>
    </clipPath>
    <clipPath id="clip-path-4">
      <rect id="Rectángulo_44149" data-name="Rectángulo 44149" width="49.081" height="49.57" fill="none"/>
    </clipPath>
    <linearGradient id="linear-gradient-2" x1="0.5" x2="0.5" y2="1" gradientUnits="objectBoundingBox">
      <stop offset="0" stop-color="#116eb9"/>
      <stop offset="1" stop-color="#1894f6"/>
    </linearGradient>
    <clipPath id="clip-path-5">
      <rect id="Rectángulo_44152" data-name="Rectángulo 44152" width="43.079" height="53.527" fill="none"/>
    </clipPath>
    <linearGradient id="linear-gradient-5" x1="0.5" x2="0.5" y2="1" gradientUnits="objectBoundingBox">
      <stop offset="0" stop-color="#7e53c5"/>
      <stop offset="1" stop-color="#080383"/>
    </linearGradient>
    <clipPath id="clip-path-6">
      <rect id="Rectángulo_44158" data-name="Rectángulo 44158" width="65.418" height="61.805" fill="none"/>
    </clipPath>
  </defs>
  <g id="Grupo_179425" data-name="Grupo 179425" transform="translate(-425.156 -7360.562)">
    <g id="Grupo_175633" data-name="Grupo 175633" transform="translate(454.548 7385.381)">
      <g transform="matrix(1, 0, 0, 1, -29.39, -24.82)" filter="url(#Trazado_187220)">
        <path id="Trazado_187220-2" data-name="Trazado 187220" d="M284.772,0c-22.041,0-39.908,12.509-39.908,27.941v60.09c29.4,1.856,58.074,10.65,80.58,26.406s35.068,35.833,37.717,56.416H501.246c22.042,0,39.909-12.51,39.909-27.941V33.6c0-18.555-21.486-33.6-47.989-33.6Z" transform="translate(107.65 24.82)" fill="#fff" stroke="#fff" stroke-width="2"/>
      </g>
      <g transform="matrix(1, 0, 0, 1, -29.39, -24.82)" filter="url(#Trazado_187335)">
        <path id="Trazado_187335-2" data-name="Trazado 187335" d="M501.247,0c22.041,0,39.908,12.509,39.908,27.941v60.09c-29.4,1.856-58.074,10.65-80.58,26.406s-35.068,35.833-37.717,56.416H284.773c-22.042,0-39.909-12.51-39.909-27.941V33.6c0-18.555,21.486-33.6,47.989-33.6Z" transform="translate(-215.47 24.82)" fill="#fff" stroke="#fff" stroke-width="2"/>
      </g>
      <g transform="matrix(1, 0, 0, 1, -29.39, -24.82)" filter="url(#Trazado_187333)">
        <path id="Trazado_187333-2" data-name="Trazado 187333" d="M284.772,175.762c-22.041,0-39.908-12.868-39.908-28.743V85.2c29.4-1.909,58.074-10.956,80.58-27.165S360.511,21.175,363.161,0H501.246c22.042,0,39.909,12.869,39.909,28.743V141.2c0,19.088-21.486,34.563-47.989,34.563Z" transform="translate(107.65 212.88)" fill="#fff" stroke="#fff" stroke-width="2"/>
      </g>
      <g transform="matrix(1, 0, 0, 1, -29.39, -24.82)" filter="url(#Trazado_187334)">
        <path id="Trazado_187334-2" data-name="Trazado 187334" d="M501.247,175.762c22.041,0,39.908-12.868,39.908-28.743V85.2c-29.4-1.909-58.074-10.956-80.58-27.165S425.508,21.175,422.858,0H284.773c-22.042,0-39.909,12.869-39.909,28.743V141.2c0,19.088,21.485,34.563,47.989,34.563Z" transform="translate(-215.47 212.88)" fill="#fff" stroke="#fff" stroke-width="2"/>
      </g>
      <path id="Trazado_187224" data-name="Trazado 187224" d="M363.161,214.551a130.584,130.584,0,0,0-118.3-118.3v118.3Z" transform="translate(78.259 -43.698)" fill="#12263f"/>
      <path id="Trazado_187225" data-name="Trazado 187225" d="M254.55,96.253a130.584,130.584,0,0,0-118.3,118.3h118.3Z" transform="translate(44.986 -43.698)" fill="#7f4fc7"/>
      <path id="Trazado_187226" data-name="Trazado 187226" d="M136.252,204.863a130.584,130.584,0,0,0,118.3,118.3v-118.3Z" transform="translate(44.986 -10.425)" fill="#2194e5"/>
      <path id="Trazado_187227" data-name="Trazado 187227" d="M363.161,204.863h-118.3v118.3a130.584,130.584,0,0,0,118.3-118.3" transform="translate(78.259 -10.425)" fill="#636363"/>
      <g id="Grupo_148774" data-name="Grupo 148774" transform="translate(228.639 99.955)">
        <g id="Grupo_148773" data-name="Grupo 148773" clip-path="url(#clip-path)">
          <rect id="Rectángulo_44035" data-name="Rectángulo 44035" width="193.188" height="185.708" transform="translate(-20.157 0.847) rotate(-4.008)" fill="url(#linear-gradient)"/>
        </g>
      </g>
      <text id="F" transform="translate(221.387 122.328)" fill="#fff" font-size="27" font-family="SegoeUI, Segoe UI"><tspan x="0" y="0">F</tspan></text>
      <text id="A" transform="translate(378.087 120.328)" fill="#fff" font-size="25" font-family="SegoeUI, Segoe UI"><tspan x="0" y="0">A</tspan></text>
      <text id="O" transform="translate(219.13 258.46)" fill="#fff" font-size="28" font-family="SegoeUI, Segoe UI"><tspan x="0" y="0">O</tspan></text>
      <text id="D" transform="translate(378.62 258.46)" fill="#fff" font-size="28" font-family="SegoeUI, Segoe UI"><tspan x="0" y="0">D</tspan></text>
      <text id="Fortalezas" transform="translate(33.681 97.987)" fill="#12263f" font-size="20" font-family="SegoeUI-Bold, Segoe UI" font-weight="700"><tspan x="0" y="22">Fortalezas</tspan></text>
      <text id="Oportunidades" transform="translate(33.681 279.766)" fill="#12263f" font-size="20" font-family="SegoeUI-Bold, Segoe UI" font-weight="700"><tspan x="0" y="22">Oportunidades</tspan></text>
      <text id="Amenazas" transform="translate(296.291 97.598)" fill="#12263f" font-size="20" font-family="SegoeUI-Bold, Segoe UI" font-weight="700"><tspan x="199.907" y="22">Amenazas</tspan></text>
      <text id="Debilidades" transform="translate(296.291 283.847)" fill="#12263f" font-size="20" font-family="SegoeUI-Bold, Segoe UI" font-weight="700"><tspan x="184.946" y="22">Debilidades</tspan></text>
      <g id="Grupo_149097" data-name="Grupo 149097" transform="translate(533.556 38.833)">
        <g id="Grupo_149096" data-name="Grupo 149096" transform="translate(0 0)" clip-path="url(#clip-path-3)">
          <path id="Trazado_187358" data-name="Trazado 187358" d="M25.355,48.355a13.851,13.851,0,0,1-9.2-3.463l9.665-9.668H39.282A13.949,13.949,0,0,1,25.355,48.355" transform="translate(-7.573 -16.513)" fill="#ffc400"/>
          <path id="Trazado_187359" data-name="Trazado 187359" d="M35.187,20.092V7.468A13.857,13.857,0,0,1,48.166,20.092Z" transform="translate(-16.496 -3.501)" fill="#fff"/>
          <path id="Trazado_187360" data-name="Trazado 187360" d="M25.355,48.355a13.851,13.851,0,0,1-9.2-3.463l9.665-9.668H39.282A13.949,13.949,0,0,1,25.355,48.355" transform="translate(-7.573 -16.513)" fill="#f7fcc5"/>
          <path id="Trazado_187361" data-name="Trazado 187361" d="M35.187,20.092V7.468A13.857,13.857,0,0,1,48.166,20.092Z" transform="translate(-16.496 -3.501)" fill="#aeb5b6"/>
          <path id="Trazado_187362" data-name="Trazado 187362" d="M22.873,35.819A17.891,17.891,0,0,1,10.979,31.3l1.411-1.588A15.8,15.8,0,1,0,23.636,2.122L23.737,0a17.92,17.92,0,0,1-.863,35.819" transform="translate(-5.147 0)" fill="#282d33"/>
          <path id="Trazado_187363" data-name="Trazado 187363" d="M14.356,2.865V16.7l-9.7,9.9a15.594,15.594,0,0,1,9.7-23.742M16.481.418A17.718,17.718,0,0,0,4.458,29.844L16.481,17.571Z" transform="translate(0 -0.196)" fill="#282d33"/>
          <rect id="Rectángulo_44143" data-name="Rectángulo 44143" width="9.165" height="19.984" transform="translate(29.68 36.607) rotate(-45)" fill="#aeb5b6"/>
          <line id="Línea_1710" data-name="Línea 1710" x1="7.828" y1="7.829" transform="translate(38.344 36.488)" fill="#fff"/>
          <rect id="Rectángulo_44144" data-name="Rectángulo 44144" width="2.124" height="11.071" transform="translate(37.593 37.239) rotate(-44.998)" fill="#fff"/>
          <rect id="Rectángulo_44145" data-name="Rectángulo 44145" width="7.073" height="3.464" transform="matrix(0.707, -0.707, 0.707, 0.707, 30.419, 35.868)" fill="#fff"/>
          <path id="Trazado_187364" data-name="Trazado 187364" d="M58.39,65.737l-3.951-3.954,6.5-6.5,3.952,3.951Zm-.947-3.953.947.948,3.5-3.5-.947-.947Z" transform="translate(-25.522 -25.916)" fill="#282d33"/>
          <path id="Trazado_187365" data-name="Trazado 187365" d="M90.071,85.912a5,5,0,0,1-5,5l-1.2-1.2q2.5-2.5,5-5l1.2,1.2" transform="translate(-39.319 -39.713)" fill="#fff"/>
          <path id="Trazado_187366" data-name="Trazado 187366" d="M83.3,90.65l-2.262-2.264,6.5-6.5,2.264,2.264v.439a6.073,6.073,0,0,1-6.064,6.064Zm.743-2.263.115.116a3.95,3.95,0,0,0,3.5-3.5l-.117-.116Z" transform="translate(-37.993 -38.388)" fill="#282d33"/>
          <rect id="Rectángulo_44146" data-name="Rectángulo 44146" width="2.124" height="2.964" transform="translate(28.892 33.43) rotate(-45)" fill="#282d33"/>
          <rect id="Rectángulo_44147" data-name="Rectángulo 44147" width="2.125" height="3.835" transform="translate(30.125 29.485) rotate(-44.994)" fill="#282d33"/>
        </g>
      </g>
      <g id="Grupo_149099" data-name="Grupo 149099" transform="translate(33.681 216.456)">
        <g id="Grupo_149098" data-name="Grupo 149098" transform="translate(0 0)" clip-path="url(#clip-path-4)">
          <path id="Trazado_187367" data-name="Trazado 187367" d="M36.064,23.776a19.76,19.76,0,1,0,0,27.94,19.78,19.78,0,0,0,0-27.94" transform="translate(-1.179 -9.094)" fill="#fff"/>
          <path id="Trazado_187368" data-name="Trazado 187368" d="M37.567,32.041a14.977,14.977,0,1,0,0,21.178,14.99,14.99,0,0,0,0-21.178" transform="translate(-6.064 -13.976)" fill="#aeb5b6"/>
          <path id="Trazado_187369" data-name="Trazado 187369" d="M39.045,40.164a10.278,10.278,0,1,0,0,14.533,10.288,10.288,0,0,0,0-14.533" transform="translate(-10.865 -18.776)" fill="#fff"/>
          <path id="Trazado_187370" data-name="Trazado 187370" d="M40.806,49.853a4.671,4.671,0,1,0,0,6.6,4.675,4.675,0,0,0,0-6.6" transform="translate(-16.591 -24.5)" fill="url(#linear-gradient-2)"/>
          <path id="Trazado_187371" data-name="Trazado 187371" d="M20.918,57.477h0A20.92,20.92,0,1,1,35.7,51.351a20.826,20.826,0,0,1-14.786,6.125m0-39.85A18.933,18.933,0,1,0,34.3,23.168a18.845,18.845,0,0,0-13.39-5.541" transform="translate(0 -7.907)" fill="#282d33"/>
          <path id="Trazado_187372" data-name="Trazado 187372" d="M72.412,14.5l-1.247-3.738L78.225,3.7l1.246,3.739Z" transform="translate(-35.96 -1.872)" fill="url(#linear-gradient-2)"/>
          <path id="Trazado_187373" data-name="Trazado 187373" d="M73.685,18.323l3.738,1.246,7.059-7.06-3.738-1.246Z" transform="translate(-37.234 -5.691)" fill="url(#linear-gradient-2)"/>
          <path id="Trazado_187374" data-name="Trazado 187374" d="M70.823,14.463,68.877,8.626,77.5,0l1.946,5.839Zm.318-5.3.547,1.639,5.5-5.5-.547-1.64Z" transform="translate(-34.804)" fill="#282d33"/>
          <path id="Trazado_187375" data-name="Trazado 187375" d="M75.82,19.546,69.983,17.6l8.624-8.623,5.837,1.945Zm-2.174-2.811,1.639.547,5.5-5.5-1.64-.546Z" transform="translate(-35.363 -4.536)" fill="#282d33"/>
          <path id="Trazado_187376" data-name="Trazado 187376" d="M40.774,33.069a.989.989,0,0,1-.7-1.689L63.984,7.47a.989.989,0,0,1,1.4,1.4l-23.91,23.91a.987.987,0,0,1-.7.289" transform="translate(-20.104 -3.628)" fill="#282d33"/>
        </g>
      </g>
      <g id="Grupo_149101" data-name="Grupo 149101" transform="translate(39.684 30.72)">
        <g id="Grupo_149100" data-name="Grupo 149100" clip-path="url(#clip-path-5)">
          <path id="Trazado_187377" data-name="Trazado 187377" d="M43.079,24.712A21.539,21.539,0,1,1,21.539,3.172a21.539,21.539,0,0,1,21.539,21.54" transform="translate(0 -1.522)" fill="url(#linear-gradient-5)"/>
          <path id="Trazado_187378" data-name="Trazado 187378" d="M37.928,71.3H20.3a13.289,13.289,0,0,0-6.893,11.884c0,.383.021.762.051,1.138H44.769c.03-.377.05-.755.05-1.138A13.288,13.288,0,0,0,37.928,71.3" transform="translate(-6.434 -34.218)" fill="#fff"/>
          <path id="Trazado_187379" data-name="Trazado 187379" d="M44.77,84.4H11.538l-.077-.956c-.037-.465-.055-.854-.055-1.223a14.417,14.417,0,0,1,7.454-12.807l.225-.117H37.221l.225.117A14.416,14.416,0,0,1,44.9,82.223c0,.37-.017.758-.053,1.22Zm-31.284-2.08H42.817c0-.033,0-.066,0-.1a12.354,12.354,0,0,0-6.111-10.844H19.6a12.354,12.354,0,0,0-6.113,10.844c0,.032,0,.065,0,.1" transform="translate(-5.474 -33.258)" fill="#282d33"/>
          <path id="Trazado_187380" data-name="Trazado 187380" d="M19.037,35.633c.022,0,.044-.007.067-.007H37.123A24.486,24.486,0,0,0,40.637,23.27C40.852,11.7,33.541,2.174,24.306,2a13.373,13.373,0,0,0-2.962.305c.221.992.46,3.033.713,4.042l-10,10.3.154,3.394,3.856,3.395a12.98,12.98,0,0,1,8.971-4.956c-3.755,7.161-5.519,12.5-6.006,17.153" transform="translate(-5.789 -0.96)" fill="#fff"/>
          <path id="Trazado_187381" data-name="Trazado 187381" d="M16.9,35.795l.129-1.23c.474-4.525,2.116-9.522,5.134-15.6a11.554,11.554,0,0,0-6.2,4.083l-.658,1L10.219,19.57l-.2-4.284L19.943,5.065c-.1-.522-.2-1.142-.292-1.747-.107-.682-.207-1.326-.3-1.745l-.23-1.03L20.154.329A14.536,14.536,0,0,1,23.137,0l.209,0C33.14.185,40.924,10.2,40.7,22.33a25.489,25.489,0,0,1-3.668,12.882l-.3.5H18.177l-.047,0Zm2.345-2.169H35.554A23.508,23.508,0,0,0,38.618,22.29c.2-10.981-6.664-20.047-15.311-20.209h-.171a11.42,11.42,0,0,0-1.558.111c.042.257.084.528.128.806.125.8.255,1.635.382,2.139l.14.562L12.143,16.089l.113,2.5,2.711,2.387a14.469,14.469,0,0,1,8.966-4.492l1.979-.252L24.986,18C21.745,24.183,19.9,29.188,19.24,33.626" transform="translate(-4.811)" fill="#282d33"/>
          <path id="Trazado_187382" data-name="Trazado 187382" d="M46.931,26.413a25.134,25.134,0,0,1-1.907,9.213h.669A24.5,24.5,0,0,0,49.2,23.27C49.417,11.7,42.106,2.175,32.871,2a13.346,13.346,0,0,0-2.962.3l.714,4.043c9.916.544,16.511,9.148,16.308,20.064" transform="translate(-14.354 -0.96)" fill="#fff"/>
          <path id="Trazado_187383" data-name="Trazado 187383" d="M45.167,35.706H42.355l.6-1.441a23.971,23.971,0,0,0,1.826-8.832c.2-10.515-6.249-18.508-15.325-19.006l-.824-.046L27.6.534,28.59.329A14.537,14.537,0,0,1,31.573,0l.209,0C41.576.185,49.36,10.2,49.134,22.33a25.488,25.488,0,0,1-3.662,12.882ZM30.4,4.414c9.64.966,16.451,9.417,16.469,20.507a25,25,0,0,0,.186-2.631c.2-10.981-6.663-20.047-15.31-20.209h-.171a11.375,11.375,0,0,0-1.566.112Z" transform="translate(-13.247)" fill="#282d33"/>
          <path id="Trazado_187384" data-name="Trazado 187384" d="M37.188,29.63q.972-1.917,2.128-4" transform="translate(-17.847 -12.301)" fill="#fff"/>
          <path id="Trazado_187385" data-name="Trazado 187385" d="M37.26,29.635,35.4,28.694c.651-1.281,1.372-2.638,2.146-4.032l1.819,1.009c-.761,1.372-1.471,2.706-2.11,3.964" transform="translate(-16.992 -11.836)" fill="#282d33"/>
          <rect id="Rectángulo_44150" data-name="Rectángulo 44150" width="22.19" height="3.641" rx="1.82" transform="translate(11.789 33.937)" fill="#fff"/>
          <path id="Trazado_187386" data-name="Trazado 187386" d="M42.857,68.975H22.747a2.083,2.083,0,0,1-2.08-2.08v-1.56a2.083,2.083,0,0,1,2.08-2.08H42.857a2.083,2.083,0,0,1,2.08,2.08v1.56a2.082,2.082,0,0,1-2.08,2.08M22.747,65.334v1.56h20.11v-1.56Z" transform="translate(-9.919 -30.357)" fill="#282d33"/>
          <rect id="Rectángulo_44151" data-name="Rectángulo 44151" width="33.631" height="3.641" rx="1.82" transform="translate(6.068 48.847)" fill="#fff"/>
          <path id="Trazado_187387" data-name="Trazado 187387" d="M43.3,97.643H11.747a2.083,2.083,0,0,1-2.08-2.08V94a2.083,2.083,0,0,1,2.08-2.08H43.3A2.082,2.082,0,0,1,45.379,94v1.56a2.082,2.082,0,0,1-2.08,2.08M11.747,94v1.56H43.3V94Z" transform="translate(-4.639 -44.115)" fill="#282d33"/>
        </g>
      </g>
      <g id="Grupo_149104" data-name="Grupo 149104" transform="translate(519.952 212.179)">
        <path id="Trazado_187388" data-name="Trazado 187388" d="M53,67.8V64.036L38.956,67.8Z" transform="translate(-13.267 -21.808)" fill="#aeb5b6"/>
        <path id="Trazado_187389" data-name="Trazado 187389" d="M52.631,36.076,40.1,39.875V34.5l12.529-3.8Z" transform="translate(-13.657 -10.456)" fill="#aeb5b6"/>
        <path id="Trazado_187390" data-name="Trazado 187390" d="M53.03,52.076l-14.178,3.8V50.5L53.03,46.7Z" transform="translate(-13.231 -15.905)" fill="#aeb5b6"/>
        <path id="Trazado_187391" data-name="Trazado 187391" d="M70.385,6.1,56.209,10.439,70.385,14.78l14.175,4.342V1.757Z" transform="translate(-19.142 -0.599)" fill="#727997"/>
        <path id="Trazado_187392" data-name="Trazado 187392" d="M0,10.438V19.12l14.356-4.341,14.357-4.341L14.356,6.1,0,1.756Z" transform="translate(0 -0.598)" fill="#727997"/>
        <g id="Grupo_149103" data-name="Grupo 149103" transform="translate(0 0)">
          <g id="Grupo_149102" data-name="Grupo 149102" clip-path="url(#clip-path-6)">
            <path id="Trazado_187393" data-name="Trazado 187393" d="M23.844,79.107a5.165,5.165,0,0,1-5.159-5.159h2.638a2.521,2.521,0,0,0,5.042,0H29a5.165,5.165,0,0,1-5.159,5.159" transform="translate(-6.363 -25.183)" fill="#282d33"/>
            <path id="Trazado_187394" data-name="Trazado 187394" d="M35.391,79.107a5.165,5.165,0,0,1-5.159-5.159H32.87a2.521,2.521,0,1,0,5.041,0h2.638a5.165,5.165,0,0,1-5.158,5.159" transform="translate(-10.296 -25.183)" fill="#282d33"/>
            <path id="Trazado_187395" data-name="Trazado 187395" d="M46.938,79.107a5.165,5.165,0,0,1-5.159-5.159h2.638a2.521,2.521,0,1,0,5.042,0H52.1a5.165,5.165,0,0,1-5.159,5.159" transform="translate(-14.228 -25.183)" fill="#282d33"/>
            <path id="Trazado_187396" data-name="Trazado 187396" d="M58.484,79.107a5.165,5.165,0,0,1-5.159-5.159h2.638a2.521,2.521,0,1,0,5.042,0h2.638a5.165,5.165,0,0,1-5.159,5.159" transform="translate(-18.16 -25.183)" fill="#282d33"/>
            <path id="Trazado_187397" data-name="Trazado 187397" d="M70.031,79.107a5.165,5.165,0,0,1-5.158-5.159h2.638a2.521,2.521,0,1,0,5.041,0H75.19a5.165,5.165,0,0,1-5.159,5.159" transform="translate(-22.093 -25.183)" fill="#282d33"/>
            <path id="Trazado_187398" data-name="Trazado 187398" d="M35.39,91.058A5.164,5.164,0,0,1,30.232,85.9H32.87a2.52,2.52,0,1,0,5.041,0h2.638a5.164,5.164,0,0,1-5.158,5.158" transform="translate(-10.296 -29.254)" fill="#282d33"/>
            <path id="Trazado_187399" data-name="Trazado 187399" d="M46.937,91.058A5.164,5.164,0,0,1,41.779,85.9h2.638a2.521,2.521,0,0,0,5.041,0H52.1a5.164,5.164,0,0,1-5.159,5.158" transform="translate(-14.228 -29.254)" fill="#282d33"/>
            <path id="Trazado_187400" data-name="Trazado 187400" d="M58.484,91.058A5.164,5.164,0,0,1,53.325,85.9h2.638A2.521,2.521,0,0,0,61,85.9h2.638a5.164,5.164,0,0,1-5.158,5.158" transform="translate(-18.16 -29.254)" fill="#282d33"/>
            <rect id="Rectángulo_44153" data-name="Rectángulo 44153" width="2.638" height="26.614" transform="matrix(0.998, -0.07, 0.07, 0.998, 37.785, 19.426)" fill="#282d33"/>
            <rect id="Rectángulo_44154" data-name="Rectángulo 44154" width="26.614" height="2.638" transform="translate(23.151 45.793) rotate(-86.014)" fill="#282d33"/>
            <path id="Trazado_187401" data-name="Trazado 187401" d="M54.226,26.819H35.1V18.906H54.226ZM37.74,24.182H51.588V21.544H37.74Z" transform="translate(-11.954 -6.439)" fill="#282d33"/>
            <rect id="Rectángulo_44155" data-name="Rectángulo 44155" width="11.211" height="5.935" transform="translate(27.105 7.851)" fill="#fff"/>
            <path id="Trazado_187402" data-name="Trazado 187402" d="M52.95,18.479H39.1V9.906H52.95ZM41.74,15.841h8.573v-3.3H41.74Z" transform="translate(-13.316 -3.374)" fill="#282d33"/>
            <path id="Trazado_187403" data-name="Trazado 187403" d="M52.24,7.875l-7.023-4.7-7.024,4.7L36.726,5.683,45.217,0l8.49,5.682Z" transform="translate(-12.507 0)" fill="#282d33"/>
            <rect id="Rectángulo_44156" data-name="Rectángulo 44156" width="22.861" height="2.638" transform="translate(21.279 44.67)" fill="#282d33"/>
            <rect id="Rectángulo_44157" data-name="Rectángulo 44157" width="2.638" height="3.517" transform="translate(31.391 10.379)" fill="#282d33"/>
          </g>
        </g>
      </g>
    </g>
    <path id="Trazado_228304" data-name="Trazado 228304" d="M10.141,17H8.688L7.5,13.859H2.75L1.633,17H.172l4.3-11.2H5.828ZM7.07,12.68,5.313,7.906a4.571,4.571,0,0,1-.172-.75H5.109a4.185,4.185,0,0,1-.18.75L3.188,12.68Zm4.063,4.031V15.336a3.792,3.792,0,0,0,2.3.773q1.688,0,1.688-1.125a.976.976,0,0,0-.145-.543,1.44,1.44,0,0,0-.391-.395,3.007,3.007,0,0,0-.578-.309q-.332-.137-.715-.285a9.207,9.207,0,0,1-.934-.426,2.82,2.82,0,0,1-.672-.484,1.8,1.8,0,0,1-.406-.613,2.17,2.17,0,0,1-.137-.8,1.912,1.912,0,0,1,.258-1,2.286,2.286,0,0,1,.688-.727,3.206,3.206,0,0,1,.98-.441,4.349,4.349,0,0,1,1.137-.148,4.59,4.59,0,0,1,1.859.359v1.3a3.624,3.624,0,0,0-2.031-.578,2.374,2.374,0,0,0-.648.082,1.587,1.587,0,0,0-.5.23,1.065,1.065,0,0,0-.32.355.936.936,0,0,0-.113.457,1.1,1.1,0,0,0,.113.523,1.152,1.152,0,0,0,.332.375,2.538,2.538,0,0,0,.531.3q.312.133.711.289a9.894,9.894,0,0,1,.953.418,3.269,3.269,0,0,1,.719.484,1.893,1.893,0,0,1,.457.621,2,2,0,0,1,.16.836,1.971,1.971,0,0,1-.262,1.031,2.243,2.243,0,0,1-.7.727,3.2,3.2,0,0,1-1.008.43,4.976,4.976,0,0,1-1.2.141A4.539,4.539,0,0,1,11.133,16.711Zm8.586-.867h-.031V20.68H18.406V9h1.281v1.406h.031a3.03,3.03,0,0,1,2.766-1.594A2.93,2.93,0,0,1,24.9,9.887a4.449,4.449,0,0,1,.867,2.879,4.959,4.959,0,0,1-.977,3.215,3.251,3.251,0,0,1-2.672,1.207A2.676,2.676,0,0,1,19.719,15.844Zm-.031-3.227v1.117a2.379,2.379,0,0,0,.645,1.684,2.3,2.3,0,0,0,3.461-.2,4.086,4.086,0,0,0,.66-2.477,3.225,3.225,0,0,0-.617-2.094,2.043,2.043,0,0,0-1.672-.758,2.27,2.27,0,0,0-1.8.777A2.854,2.854,0,0,0,19.688,12.617Zm14.555.7H28.594a2.992,2.992,0,0,0,.719,2.063,2.478,2.478,0,0,0,1.891.727,3.931,3.931,0,0,0,2.484-.891v1.2a4.643,4.643,0,0,1-2.789.766,3.381,3.381,0,0,1-2.664-1.09,4.461,4.461,0,0,1-.969-3.066,4.375,4.375,0,0,1,1.059-3.043,3.394,3.394,0,0,1,2.629-1.176,3.008,3.008,0,0,1,2.43,1.016,4.234,4.234,0,0,1,.859,2.82ZM32.93,12.234a2.607,2.607,0,0,0-.535-1.727,1.823,1.823,0,0,0-1.465-.617,2.07,2.07,0,0,0-1.539.648,2.943,2.943,0,0,0-.781,1.7Zm8.7,4.4a4.163,4.163,0,0,1-2.187.555,3.622,3.622,0,0,1-2.762-1.113,4.035,4.035,0,0,1-1.051-2.887,4.435,4.435,0,0,1,1.133-3.176,3.963,3.963,0,0,1,3.023-1.2,4.209,4.209,0,0,1,1.859.391v1.313a3.258,3.258,0,0,0-1.906-.625,2.576,2.576,0,0,0-2.012.879,3.335,3.335,0,0,0-.785,2.309,3.176,3.176,0,0,0,.738,2.219,2.545,2.545,0,0,0,1.98.813,3.211,3.211,0,0,0,1.969-.7Zm5.648.289a2.47,2.47,0,0,1-1.2.25q-2.1,0-2.1-2.344V10.094H42.609V9h1.375V7.047l1.281-.414V9h2.016v1.094H45.266V14.6a1.869,1.869,0,0,0,.273,1.148,1.091,1.091,0,0,0,.906.344,1.347,1.347,0,0,0,.836-.266Zm5.055.266A3.711,3.711,0,0,1,49.5,16.066a4.153,4.153,0,0,1-1.059-2.973,4.326,4.326,0,0,1,1.1-3.148,3.96,3.96,0,0,1,2.977-1.133,3.588,3.588,0,0,1,2.793,1.1,4.368,4.368,0,0,1,1,3.055,4.3,4.3,0,0,1-1.082,3.066A3.791,3.791,0,0,1,52.336,17.188Zm.094-7.3a2.437,2.437,0,0,0-1.953.84,3.449,3.449,0,0,0-.719,2.316,3.262,3.262,0,0,0,.727,2.242,2.469,2.469,0,0,0,1.945.82,2.342,2.342,0,0,0,1.91-.8,3.492,3.492,0,0,0,.668-2.289A3.552,3.552,0,0,0,54.34,10.7,2.332,2.332,0,0,0,52.43,9.891Zm5.453,6.82V15.336a3.792,3.792,0,0,0,2.3.773q1.688,0,1.688-1.125a.976.976,0,0,0-.145-.543,1.44,1.44,0,0,0-.391-.395,3.007,3.007,0,0,0-.578-.309q-.332-.137-.715-.285a9.207,9.207,0,0,1-.934-.426,2.82,2.82,0,0,1-.672-.484,1.8,1.8,0,0,1-.406-.613,2.17,2.17,0,0,1-.137-.8,1.912,1.912,0,0,1,.258-1,2.286,2.286,0,0,1,.688-.727,3.206,3.206,0,0,1,.98-.441,4.349,4.349,0,0,1,1.137-.148,4.59,4.59,0,0,1,1.859.359v1.3a3.624,3.624,0,0,0-2.031-.578,2.374,2.374,0,0,0-.648.082,1.587,1.587,0,0,0-.5.23,1.065,1.065,0,0,0-.32.355.936.936,0,0,0-.113.457,1.1,1.1,0,0,0,.113.523,1.152,1.152,0,0,0,.332.375,2.538,2.538,0,0,0,.531.3q.312.133.711.289a9.894,9.894,0,0,1,.953.418,3.269,3.269,0,0,1,.719.484,1.893,1.893,0,0,1,.457.621,2,2,0,0,1,.16.836,1.971,1.971,0,0,1-.262,1.031,2.243,2.243,0,0,1-.7.727,3.2,3.2,0,0,1-1.008.43,4.976,4.976,0,0,1-1.2.141A4.539,4.539,0,0,1,57.883,16.711Zm13.9-.641H71.75V20.68H69.281V9H71.75v1.2h.031a3.142,3.142,0,0,1,4.973-.332,4.54,4.54,0,0,1,.848,2.9,4.922,4.922,0,0,1-.988,3.211A3.222,3.222,0,0,1,73.984,17.2,2.491,2.491,0,0,1,71.781,16.07Zm-.07-3.281v.641a2.037,2.037,0,0,0,.438,1.352A1.424,1.424,0,0,0,73.3,15.3a1.514,1.514,0,0,0,1.309-.652A3.15,3.15,0,0,0,75.07,12.8q0-2.109-1.641-2.109a1.541,1.541,0,0,0-1.238.574A2.29,2.29,0,0,0,71.711,12.789Zm11.3,4.406a4.3,4.3,0,0,1-3.145-1.121,4.064,4.064,0,0,1-1.145-3.043,4.065,4.065,0,0,1,1.188-3.105A4.487,4.487,0,0,1,83.125,8.8,4.249,4.249,0,0,1,86.25,9.926a3.985,3.985,0,0,1,1.133,2.965,4.23,4.23,0,0,1-1.168,3.148A4.348,4.348,0,0,1,83.016,17.2Zm.063-6.5a1.647,1.647,0,0,0-1.359.6,2.653,2.653,0,0,0-.484,1.7q0,2.3,1.859,2.3,1.773,0,1.773-2.367Q84.867,10.7,83.078,10.7Zm5.383,6.094v-2a5.256,5.256,0,0,0,1.215.547,4.028,4.028,0,0,0,1.145.18,2.455,2.455,0,0,0,1.035-.18.581.581,0,0,0,.379-.547.506.506,0,0,0-.172-.391,1.6,1.6,0,0,0-.441-.273,5.009,5.009,0,0,0-.59-.211q-.32-.094-.617-.211a5.913,5.913,0,0,1-.84-.387,2.427,2.427,0,0,1-.609-.48,1.889,1.889,0,0,1-.375-.633,2.525,2.525,0,0,1-.129-.852,2.192,2.192,0,0,1,.293-1.156,2.393,2.393,0,0,1,.781-.793,3.57,3.57,0,0,1,1.117-.453A5.825,5.825,0,0,1,91.961,8.8a7.261,7.261,0,0,1,1.078.082,8.047,8.047,0,0,1,1.078.238v1.906a3.9,3.9,0,0,0-1-.41,4.235,4.235,0,0,0-1.051-.137,2.328,2.328,0,0,0-.457.043,1.505,1.505,0,0,0-.379.125.7.7,0,0,0-.258.211.486.486,0,0,0-.094.293.541.541,0,0,0,.141.375,1.221,1.221,0,0,0,.367.27,3.625,3.625,0,0,0,.5.2q.277.09.551.184a7.161,7.161,0,0,1,.891.375,2.848,2.848,0,0,1,.684.477,1.872,1.872,0,0,1,.438.641,2.563,2.563,0,0,1-.156,2.09,2.471,2.471,0,0,1-.82.82,3.72,3.72,0,0,1-1.18.461,6.54,6.54,0,0,1-1.387.145A7.149,7.149,0,0,1,88.461,16.789Zm8.813-9.055a1.442,1.442,0,0,1-1.023-.371,1.2,1.2,0,0,1-.4-.91,1.153,1.153,0,0,1,.4-.906,1.671,1.671,0,0,1,2.051,0,1.158,1.158,0,0,1,.395.906,1.191,1.191,0,0,1-.395.922A1.466,1.466,0,0,1,97.273,7.734ZM98.492,17H96.023V9h2.469Zm6.914-.094a3.649,3.649,0,0,1-1.648.289q-2.609,0-2.609-2.711V10.82h-1.3V9h1.3V7.273l2.461-.7V9h1.8v1.82h-1.8v3.234q0,1.25.992,1.25a1.673,1.673,0,0,0,.8-.227Zm2.641-9.172a1.442,1.442,0,0,1-1.023-.371,1.2,1.2,0,0,1-.4-.91,1.153,1.153,0,0,1,.4-.906,1.671,1.671,0,0,1,2.051,0,1.158,1.158,0,0,1,.395.906,1.191,1.191,0,0,1-.395.922A1.466,1.466,0,0,1,108.047,7.734ZM109.266,17H106.8V9h2.469Zm9.7-8-2.977,8h-2.812l-2.836-8h2.641l1.391,4.93a7.2,7.2,0,0,1,.273,1.422h.031a8.069,8.069,0,0,1,.289-1.375L116.383,9Zm4.711,8.2a4.3,4.3,0,0,1-3.145-1.121,4.064,4.064,0,0,1-1.145-3.043,4.065,4.065,0,0,1,1.188-3.105A4.487,4.487,0,0,1,123.781,8.8a4.249,4.249,0,0,1,3.125,1.121,3.985,3.985,0,0,1,1.133,2.965,4.23,4.23,0,0,1-1.168,3.148A4.348,4.348,0,0,1,123.672,17.2Zm.063-6.5a1.647,1.647,0,0,0-1.359.6,2.653,2.653,0,0,0-.484,1.7q0,2.3,1.859,2.3,1.773,0,1.773-2.367Q125.523,10.7,123.734,10.7Zm5.383,6.094v-2a5.256,5.256,0,0,0,1.215.547,4.028,4.028,0,0,0,1.145.18,2.455,2.455,0,0,0,1.035-.18.581.581,0,0,0,.379-.547.506.506,0,0,0-.172-.391,1.6,1.6,0,0,0-.441-.273,5.009,5.009,0,0,0-.59-.211q-.32-.094-.617-.211a5.914,5.914,0,0,1-.84-.387,2.427,2.427,0,0,1-.609-.48,1.889,1.889,0,0,1-.375-.633,2.525,2.525,0,0,1-.129-.852,2.192,2.192,0,0,1,.293-1.156,2.393,2.393,0,0,1,.781-.793,3.57,3.57,0,0,1,1.117-.453,5.825,5.825,0,0,1,1.309-.145,7.261,7.261,0,0,1,1.078.082,8.047,8.047,0,0,1,1.078.238v1.906a3.9,3.9,0,0,0-1-.41,4.235,4.235,0,0,0-1.051-.137,2.328,2.328,0,0,0-.457.043,1.505,1.505,0,0,0-.379.125.7.7,0,0,0-.258.211.486.486,0,0,0-.094.293.541.541,0,0,0,.141.375,1.221,1.221,0,0,0,.367.27,3.625,3.625,0,0,0,.5.2q.277.09.551.184a7.161,7.161,0,0,1,.891.375,2.848,2.848,0,0,1,.684.477,1.871,1.871,0,0,1,.438.641,2.563,2.563,0,0,1-.156,2.09,2.471,2.471,0,0,1-.82.82,3.72,3.72,0,0,1-1.18.461,6.54,6.54,0,0,1-1.387.145A7.149,7.149,0,0,1,129.117,16.789Z" transform="translate(496.672 7355.366)" fill="#12263f"/>
    <path id="Trazado_228305" data-name="Trazado 228305" d="M9.8,5.8,5.648,17H4.2L.141,5.8H1.6L4.7,14.68a5.274,5.274,0,0,1,.227.992h.031a4.866,4.866,0,0,1,.258-1.008L8.383,5.8ZM15.789,17H14.508V15.75h-.031a2.682,2.682,0,0,1-2.461,1.438,2.63,2.63,0,0,1-1.871-.633,2.192,2.192,0,0,1-.676-1.68q0-2.242,2.641-2.609l2.4-.336q0-2.039-1.648-2.039a3.938,3.938,0,0,0-2.609.984V9.563a4.958,4.958,0,0,1,2.719-.75q2.82,0,2.82,2.984Zm-1.281-4.047-1.93.266a3.133,3.133,0,0,0-1.344.441,1.273,1.273,0,0,0-.453,1.121,1.221,1.221,0,0,0,.418.957,1.615,1.615,0,0,0,1.113.371,2.056,2.056,0,0,0,1.574-.668,2.387,2.387,0,0,0,.621-1.691ZM22.375,10.3a1.567,1.567,0,0,0-.969-.258,1.635,1.635,0,0,0-1.371.773,3.576,3.576,0,0,0-.551,2.109V17H18.2V9h1.281v1.648h.031a2.793,2.793,0,0,1,.836-1.316,1.906,1.906,0,0,1,1.258-.473,2.092,2.092,0,0,1,.766.109Zm2.047-3.328a.812.812,0,0,1-.586-.234.791.791,0,0,1-.242-.594.821.821,0,0,1,.828-.836.827.827,0,0,1,.6.238.835.835,0,0,1,0,1.184A.82.82,0,0,1,24.422,6.969ZM25.047,17H23.766V9h1.281Zm8.32,0H32.086V15.75h-.031a2.682,2.682,0,0,1-2.461,1.438,2.63,2.63,0,0,1-1.871-.633,2.192,2.192,0,0,1-.676-1.68q0-2.242,2.641-2.609l2.4-.336q0-2.039-1.648-2.039a3.938,3.938,0,0,0-2.609.984V9.563a4.958,4.958,0,0,1,2.719-.75q2.82,0,2.82,2.984Zm-1.281-4.047-1.93.266a3.133,3.133,0,0,0-1.344.441,1.273,1.273,0,0,0-.453,1.121,1.221,1.221,0,0,0,.418.957,1.615,1.615,0,0,0,1.113.371,2.056,2.056,0,0,0,1.574-.668,2.387,2.387,0,0,0,.621-1.691Zm5.008,2.891h-.031V17H35.781V5.156h1.281v5.25h.031a3.03,3.03,0,0,1,2.766-1.594,2.932,2.932,0,0,1,2.41,1.074,4.436,4.436,0,0,1,.871,2.879,4.959,4.959,0,0,1-.977,3.215,3.251,3.251,0,0,1-2.672,1.207A2.631,2.631,0,0,1,37.094,15.844Zm-.031-3.227v1.117a2.379,2.379,0,0,0,.645,1.684,2.3,2.3,0,0,0,3.461-.2,4.086,4.086,0,0,0,.66-2.477,3.225,3.225,0,0,0-.617-2.094,2.043,2.043,0,0,0-1.672-.758,2.27,2.27,0,0,0-1.8.777A2.854,2.854,0,0,0,37.063,12.617ZM46.469,17H45.188V5.156h1.281Zm9.023-3.68H49.844a2.992,2.992,0,0,0,.719,2.063,2.478,2.478,0,0,0,1.891.727,3.931,3.931,0,0,0,2.484-.891v1.2a4.643,4.643,0,0,1-2.789.766,3.381,3.381,0,0,1-2.664-1.09,4.461,4.461,0,0,1-.969-3.066,4.375,4.375,0,0,1,1.059-3.043A3.394,3.394,0,0,1,52.2,8.813a3.008,3.008,0,0,1,2.43,1.016,4.234,4.234,0,0,1,.859,2.82ZM54.18,12.234a2.607,2.607,0,0,0-.535-1.727,1.823,1.823,0,0,0-1.465-.617,2.07,2.07,0,0,0-1.539.648,2.943,2.943,0,0,0-.781,1.7Zm2.766,4.477V15.336a3.792,3.792,0,0,0,2.3.773q1.688,0,1.688-1.125a.976.976,0,0,0-.145-.543,1.44,1.44,0,0,0-.391-.395,3.007,3.007,0,0,0-.578-.309q-.332-.137-.715-.285a9.207,9.207,0,0,1-.934-.426,2.82,2.82,0,0,1-.672-.484,1.8,1.8,0,0,1-.406-.613,2.17,2.17,0,0,1-.137-.8,1.912,1.912,0,0,1,.258-1,2.286,2.286,0,0,1,.688-.727,3.206,3.206,0,0,1,.98-.441,4.349,4.349,0,0,1,1.137-.148,4.59,4.59,0,0,1,1.859.359v1.3a3.624,3.624,0,0,0-2.031-.578,2.374,2.374,0,0,0-.648.082,1.587,1.587,0,0,0-.5.23,1.065,1.065,0,0,0-.32.355.936.936,0,0,0-.113.457,1.1,1.1,0,0,0,.113.523,1.152,1.152,0,0,0,.332.375,2.538,2.538,0,0,0,.531.3q.312.133.711.289a9.894,9.894,0,0,1,.953.418,3.269,3.269,0,0,1,.719.484,1.893,1.893,0,0,1,.457.621,2,2,0,0,1,.16.836,1.971,1.971,0,0,1-.262,1.031,2.243,2.243,0,0,1-.7.727,3.2,3.2,0,0,1-1.008.43,4.976,4.976,0,0,1-1.2.141A4.539,4.539,0,0,1,56.945,16.711ZM75.531,13.7H70.313q.125,1.742,2.2,1.742a4.286,4.286,0,0,0,2.32-.625V16.6a6.1,6.1,0,0,1-2.883.594,4.058,4.058,0,0,1-3.008-1.074,4.058,4.058,0,0,1-1.07-3,4.281,4.281,0,0,1,1.156-3.156A3.852,3.852,0,0,1,71.867,8.8a3.5,3.5,0,0,1,2.707,1.039,4,4,0,0,1,.957,2.82Zm-2.289-1.516q0-1.719-1.391-1.719a1.328,1.328,0,0,0-1.027.492,2.234,2.234,0,0,0-.527,1.227ZM84.727,9l-2.641,3.875L84.711,17H81.867l-1.156-2.156q-.141-.258-.336-.727h-.031a5.073,5.073,0,0,1-.32.7L78.859,17H76.023l2.7-3.984L76.188,9h2.859l1.141,2.242a4.918,4.918,0,0,1,.32.75h.031a5.286,5.286,0,0,1,.336-.766L82.039,9Zm5.945,7.906a3.649,3.649,0,0,1-1.648.289q-2.609,0-2.609-2.711V10.82h-1.3V9h1.3V7.273l2.461-.7V9h1.8v1.82h-1.8v3.234q0,1.25.992,1.25a1.673,1.673,0,0,0,.8-.227Zm8.516-3.2H93.969q.125,1.742,2.2,1.742a4.286,4.286,0,0,0,2.32-.625V16.6A6.1,6.1,0,0,1,95.6,17.2a4.058,4.058,0,0,1-3.008-1.074,4.058,4.058,0,0,1-1.07-3A4.281,4.281,0,0,1,92.68,9.969,3.852,3.852,0,0,1,95.523,8.8,3.5,3.5,0,0,1,98.23,9.844a4,4,0,0,1,.957,2.82ZM96.9,12.188q0-1.719-1.391-1.719a1.328,1.328,0,0,0-1.027.492,2.234,2.234,0,0,0-.527,1.227Zm8.977-.961a2.141,2.141,0,0,0-1.039-.242,1.5,1.5,0,0,0-1.258.59,2.573,2.573,0,0,0-.453,1.605V17h-2.469V9h2.469v1.484h.031a2.136,2.136,0,0,1,2.109-1.625,1.59,1.59,0,0,1,.609.094ZM114.8,17h-2.461V12.555q0-1.859-1.328-1.859a1.318,1.318,0,0,0-1.055.492,1.875,1.875,0,0,0-.414,1.25V17H107.07V9h2.469v1.266h.031a2.829,2.829,0,0,1,2.57-1.461q2.656,0,2.656,3.3Zm8.609,0H121.07V15.852h-.031a2.607,2.607,0,0,1-2.383,1.344,2.492,2.492,0,0,1-1.832-.66,2.366,2.366,0,0,1-.668-1.762q0-2.328,2.758-2.687l2.172-.289q0-1.312-1.422-1.312a4.853,4.853,0,0,0-2.719.852V9.477a6.116,6.116,0,0,1,1.41-.469,7.413,7.413,0,0,1,1.629-.2q3.422,0,3.422,3.414Zm-2.32-3.25v-.539l-1.453.188q-1.2.156-1.2,1.086a.9.9,0,0,0,.293.691,1.126,1.126,0,0,0,.793.27,1.462,1.462,0,0,0,1.133-.48A1.735,1.735,0,0,0,121.086,13.75Zm3.75,3.039v-2a5.256,5.256,0,0,0,1.215.547,4.028,4.028,0,0,0,1.145.18,2.455,2.455,0,0,0,1.035-.18.581.581,0,0,0,.379-.547.506.506,0,0,0-.172-.391,1.6,1.6,0,0,0-.441-.273,5.009,5.009,0,0,0-.59-.211q-.32-.094-.617-.211a5.913,5.913,0,0,1-.84-.387,2.427,2.427,0,0,1-.609-.48,1.889,1.889,0,0,1-.375-.633,2.525,2.525,0,0,1-.129-.852,2.192,2.192,0,0,1,.293-1.156,2.393,2.393,0,0,1,.781-.793,3.57,3.57,0,0,1,1.117-.453,5.825,5.825,0,0,1,1.309-.145,7.261,7.261,0,0,1,1.078.082,8.047,8.047,0,0,1,1.078.238v1.906a3.9,3.9,0,0,0-1-.41,4.235,4.235,0,0,0-1.051-.137,2.328,2.328,0,0,0-.457.043,1.505,1.505,0,0,0-.379.125.7.7,0,0,0-.258.211.486.486,0,0,0-.094.293.541.541,0,0,0,.141.375,1.221,1.221,0,0,0,.367.27,3.625,3.625,0,0,0,.5.2q.277.09.551.184a7.161,7.161,0,0,1,.891.375,2.848,2.848,0,0,1,.684.477,1.871,1.871,0,0,1,.438.641,2.563,2.563,0,0,1-.156,2.09,2.471,2.471,0,0,1-.82.82,3.72,3.72,0,0,1-1.18.461,6.54,6.54,0,0,1-1.387.145A7.149,7.149,0,0,1,124.836,16.789Z" transform="translate(420 7743.061) rotate(-90)" fill="#12263f"/>
    <path id="Trazado_228306" data-name="Trazado 228306" d="M10.141,17H8.688L7.5,13.859H2.75L1.633,17H.172l4.3-11.2H5.828ZM7.07,12.68,5.313,7.906a4.571,4.571,0,0,1-.172-.75H5.109a4.185,4.185,0,0,1-.18.75L3.188,12.68Zm4.063,4.031V15.336a3.792,3.792,0,0,0,2.3.773q1.688,0,1.688-1.125a.976.976,0,0,0-.145-.543,1.44,1.44,0,0,0-.391-.395,3.007,3.007,0,0,0-.578-.309q-.332-.137-.715-.285a9.207,9.207,0,0,1-.934-.426,2.82,2.82,0,0,1-.672-.484,1.8,1.8,0,0,1-.406-.613,2.17,2.17,0,0,1-.137-.8,1.912,1.912,0,0,1,.258-1,2.286,2.286,0,0,1,.688-.727,3.206,3.206,0,0,1,.98-.441,4.349,4.349,0,0,1,1.137-.148,4.59,4.59,0,0,1,1.859.359v1.3a3.624,3.624,0,0,0-2.031-.578,2.374,2.374,0,0,0-.648.082,1.587,1.587,0,0,0-.5.23,1.065,1.065,0,0,0-.32.355.936.936,0,0,0-.113.457,1.1,1.1,0,0,0,.113.523,1.152,1.152,0,0,0,.332.375,2.538,2.538,0,0,0,.531.3q.312.133.711.289a9.894,9.894,0,0,1,.953.418,3.269,3.269,0,0,1,.719.484,1.893,1.893,0,0,1,.457.621,2,2,0,0,1,.16.836,1.971,1.971,0,0,1-.262,1.031,2.243,2.243,0,0,1-.7.727,3.2,3.2,0,0,1-1.008.43,4.976,4.976,0,0,1-1.2.141A4.539,4.539,0,0,1,11.133,16.711Zm8.586-.867h-.031V20.68H18.406V9h1.281v1.406h.031a3.03,3.03,0,0,1,2.766-1.594A2.93,2.93,0,0,1,24.9,9.887a4.449,4.449,0,0,1,.867,2.879,4.959,4.959,0,0,1-.977,3.215,3.251,3.251,0,0,1-2.672,1.207A2.676,2.676,0,0,1,19.719,15.844Zm-.031-3.227v1.117a2.379,2.379,0,0,0,.645,1.684,2.3,2.3,0,0,0,3.461-.2,4.086,4.086,0,0,0,.66-2.477,3.225,3.225,0,0,0-.617-2.094,2.043,2.043,0,0,0-1.672-.758,2.27,2.27,0,0,0-1.8.777A2.854,2.854,0,0,0,19.688,12.617Zm14.555.7H28.594a2.992,2.992,0,0,0,.719,2.063,2.478,2.478,0,0,0,1.891.727,3.931,3.931,0,0,0,2.484-.891v1.2a4.643,4.643,0,0,1-2.789.766,3.381,3.381,0,0,1-2.664-1.09,4.461,4.461,0,0,1-.969-3.066,4.375,4.375,0,0,1,1.059-3.043,3.394,3.394,0,0,1,2.629-1.176,3.008,3.008,0,0,1,2.43,1.016,4.234,4.234,0,0,1,.859,2.82ZM32.93,12.234a2.607,2.607,0,0,0-.535-1.727,1.823,1.823,0,0,0-1.465-.617,2.07,2.07,0,0,0-1.539.648,2.943,2.943,0,0,0-.781,1.7Zm8.7,4.4a4.163,4.163,0,0,1-2.187.555,3.622,3.622,0,0,1-2.762-1.113,4.035,4.035,0,0,1-1.051-2.887,4.435,4.435,0,0,1,1.133-3.176,3.963,3.963,0,0,1,3.023-1.2,4.209,4.209,0,0,1,1.859.391v1.313a3.258,3.258,0,0,0-1.906-.625,2.576,2.576,0,0,0-2.012.879,3.335,3.335,0,0,0-.785,2.309,3.176,3.176,0,0,0,.738,2.219,2.545,2.545,0,0,0,1.98.813,3.211,3.211,0,0,0,1.969-.7Zm5.648.289a2.47,2.47,0,0,1-1.2.25q-2.1,0-2.1-2.344V10.094H42.609V9h1.375V7.047l1.281-.414V9h2.016v1.094H45.266V14.6a1.869,1.869,0,0,0,.273,1.148,1.091,1.091,0,0,0,.906.344,1.347,1.347,0,0,0,.836-.266Zm5.055.266A3.711,3.711,0,0,1,49.5,16.066a4.153,4.153,0,0,1-1.059-2.973,4.326,4.326,0,0,1,1.1-3.148,3.96,3.96,0,0,1,2.977-1.133,3.588,3.588,0,0,1,2.793,1.1,4.368,4.368,0,0,1,1,3.055,4.3,4.3,0,0,1-1.082,3.066A3.791,3.791,0,0,1,52.336,17.188Zm.094-7.3a2.437,2.437,0,0,0-1.953.84,3.449,3.449,0,0,0-.719,2.316,3.262,3.262,0,0,0,.727,2.242,2.469,2.469,0,0,0,1.945.82,2.342,2.342,0,0,0,1.91-.8,3.492,3.492,0,0,0,.668-2.289A3.552,3.552,0,0,0,54.34,10.7,2.332,2.332,0,0,0,52.43,9.891Zm5.453,6.82V15.336a3.792,3.792,0,0,0,2.3.773q1.688,0,1.688-1.125a.976.976,0,0,0-.145-.543,1.44,1.44,0,0,0-.391-.395,3.007,3.007,0,0,0-.578-.309q-.332-.137-.715-.285a9.207,9.207,0,0,1-.934-.426,2.82,2.82,0,0,1-.672-.484,1.8,1.8,0,0,1-.406-.613,2.17,2.17,0,0,1-.137-.8,1.912,1.912,0,0,1,.258-1,2.286,2.286,0,0,1,.688-.727,3.206,3.206,0,0,1,.98-.441,4.349,4.349,0,0,1,1.137-.148,4.59,4.59,0,0,1,1.859.359v1.3a3.624,3.624,0,0,0-2.031-.578,2.374,2.374,0,0,0-.648.082,1.587,1.587,0,0,0-.5.23,1.065,1.065,0,0,0-.32.355.936.936,0,0,0-.113.457,1.1,1.1,0,0,0,.113.523,1.152,1.152,0,0,0,.332.375,2.538,2.538,0,0,0,.531.3q.312.133.711.289a9.894,9.894,0,0,1,.953.418,3.269,3.269,0,0,1,.719.484,1.893,1.893,0,0,1,.457.621,2,2,0,0,1,.16.836,1.971,1.971,0,0,1-.262,1.031,2.243,2.243,0,0,1-.7.727,3.2,3.2,0,0,1-1.008.43,4.976,4.976,0,0,1-1.2.141A4.539,4.539,0,0,1,57.883,16.711ZM77.008,17H74.547V12.555q0-1.859-1.328-1.859a1.318,1.318,0,0,0-1.055.492,1.875,1.875,0,0,0-.414,1.25V17H69.281V9H71.75v1.266h.031A2.829,2.829,0,0,1,74.352,8.8q2.656,0,2.656,3.3Zm9.141-3.3H80.93q.125,1.742,2.2,1.742a4.286,4.286,0,0,0,2.32-.625V16.6a6.1,6.1,0,0,1-2.883.594,4.058,4.058,0,0,1-3.008-1.074,4.058,4.058,0,0,1-1.07-3,4.281,4.281,0,0,1,1.156-3.156A3.852,3.852,0,0,1,82.484,8.8a3.5,3.5,0,0,1,2.707,1.039,4,4,0,0,1,.957,2.82Zm-2.289-1.516q0-1.719-1.391-1.719a1.328,1.328,0,0,0-1.027.492,2.234,2.234,0,0,0-.527,1.227Zm11.6,3.9a4.526,4.526,0,0,1-1.289,3.449,5.224,5.224,0,0,1-3.734,1.223,5.919,5.919,0,0,1-2.562-.461V18.219a4.907,4.907,0,0,0,2.492.719,2.684,2.684,0,0,0,1.938-.66,2.369,2.369,0,0,0,.688-1.793v-.633h-.031A2.757,2.757,0,0,1,90.469,17.2a3,3,0,0,1-2.43-1.078,4.372,4.372,0,0,1-.9-2.891,4.87,4.87,0,0,1,1-3.227,3.265,3.265,0,0,1,2.633-1.2A2.429,2.429,0,0,1,92.961,9.93h.031V9h2.469Zm-2.437-2.93v-.633a1.945,1.945,0,0,0-.449-1.293,1.453,1.453,0,0,0-1.168-.535,1.51,1.51,0,0,0-1.289.641,3.012,3.012,0,0,0-.469,1.8,2.543,2.543,0,0,0,.445,1.582,1.451,1.451,0,0,0,1.219.582,1.511,1.511,0,0,0,1.238-.59A2.418,2.418,0,0,0,93.023,13.156ZM104.18,17h-2.336V15.852h-.031A2.607,2.607,0,0,1,99.43,17.2a2.492,2.492,0,0,1-1.832-.66,2.366,2.366,0,0,1-.668-1.762q0-2.328,2.758-2.687l2.172-.289q0-1.312-1.422-1.312a4.853,4.853,0,0,0-2.719.852V9.477a6.116,6.116,0,0,1,1.41-.469,7.413,7.413,0,0,1,1.629-.2q3.422,0,3.422,3.414Zm-2.32-3.25v-.539l-1.453.188q-1.2.156-1.2,1.086a.9.9,0,0,0,.293.691,1.126,1.126,0,0,0,.793.27,1.462,1.462,0,0,0,1.133-.48A1.735,1.735,0,0,0,101.859,13.75Zm9.109,3.156a3.649,3.649,0,0,1-1.648.289q-2.609,0-2.609-2.711V10.82h-1.3V9h1.3V7.273l2.461-.7V9h1.8v1.82h-1.8v3.234q0,1.25.992,1.25a1.673,1.673,0,0,0,.8-.227Zm2.641-9.172a1.442,1.442,0,0,1-1.023-.371,1.2,1.2,0,0,1-.4-.91,1.153,1.153,0,0,1,.4-.906,1.671,1.671,0,0,1,2.051,0,1.158,1.158,0,0,1,.395.906,1.191,1.191,0,0,1-.395.922A1.466,1.466,0,0,1,113.609,7.734ZM114.828,17h-2.469V9h2.469Zm9.7-8-2.977,8h-2.812L115.9,9h2.641l1.391,4.93a7.2,7.2,0,0,1,.273,1.422h.031a8.069,8.069,0,0,1,.289-1.375L121.945,9Zm4.711,8.2a4.3,4.3,0,0,1-3.145-1.121,4.064,4.064,0,0,1-1.145-3.043,4.065,4.065,0,0,1,1.188-3.105A4.487,4.487,0,0,1,129.344,8.8a4.249,4.249,0,0,1,3.125,1.121,3.985,3.985,0,0,1,1.133,2.965,4.23,4.23,0,0,1-1.168,3.148A4.348,4.348,0,0,1,129.234,17.2Zm.063-6.5a1.647,1.647,0,0,0-1.359.6,2.653,2.653,0,0,0-.484,1.7q0,2.3,1.859,2.3,1.773,0,1.773-2.367Q131.086,10.7,129.3,10.7Zm5.383,6.094v-2a5.256,5.256,0,0,0,1.215.547,4.028,4.028,0,0,0,1.145.18,2.455,2.455,0,0,0,1.035-.18.581.581,0,0,0,.379-.547.506.506,0,0,0-.172-.391,1.6,1.6,0,0,0-.441-.273,5.009,5.009,0,0,0-.59-.211q-.32-.094-.617-.211a5.914,5.914,0,0,1-.84-.387,2.427,2.427,0,0,1-.609-.48,1.889,1.889,0,0,1-.375-.633,2.525,2.525,0,0,1-.129-.852,2.192,2.192,0,0,1,.293-1.156,2.393,2.393,0,0,1,.781-.793,3.57,3.57,0,0,1,1.117-.453A5.825,5.825,0,0,1,138.18,8.8a7.261,7.261,0,0,1,1.078.082,8.047,8.047,0,0,1,1.078.238v1.906a3.9,3.9,0,0,0-1-.41,4.235,4.235,0,0,0-1.051-.137,2.328,2.328,0,0,0-.457.043,1.505,1.505,0,0,0-.379.125.7.7,0,0,0-.258.211.486.486,0,0,0-.094.293.541.541,0,0,0,.141.375,1.221,1.221,0,0,0,.367.27,3.625,3.625,0,0,0,.5.2q.277.09.551.184a7.161,7.161,0,0,1,.891.375,2.848,2.848,0,0,1,.684.477,1.871,1.871,0,0,1,.438.641,2.563,2.563,0,0,1-.156,2.09,2.471,2.471,0,0,1-.82.82,3.72,3.72,0,0,1-1.18.461,6.54,6.54,0,0,1-1.387.145A7.149,7.149,0,0,1,134.68,16.789Z" transform="translate(812.276 7355.366)" fill="#12263f"/>
    <path id="Trazado_228307" data-name="Trazado 228307" d="M9.8,5.8,5.648,17H4.2L.141,5.8H1.6L4.7,14.68a5.274,5.274,0,0,1,.227.992h.031a4.866,4.866,0,0,1,.258-1.008L8.383,5.8ZM15.789,17H14.508V15.75h-.031a2.682,2.682,0,0,1-2.461,1.438,2.63,2.63,0,0,1-1.871-.633,2.192,2.192,0,0,1-.676-1.68q0-2.242,2.641-2.609l2.4-.336q0-2.039-1.648-2.039a3.938,3.938,0,0,0-2.609.984V9.563a4.958,4.958,0,0,1,2.719-.75q2.82,0,2.82,2.984Zm-1.281-4.047-1.93.266a3.133,3.133,0,0,0-1.344.441,1.273,1.273,0,0,0-.453,1.121,1.221,1.221,0,0,0,.418.957,1.615,1.615,0,0,0,1.113.371,2.056,2.056,0,0,0,1.574-.668,2.387,2.387,0,0,0,.621-1.691ZM22.375,10.3a1.567,1.567,0,0,0-.969-.258,1.635,1.635,0,0,0-1.371.773,3.576,3.576,0,0,0-.551,2.109V17H18.2V9h1.281v1.648h.031a2.793,2.793,0,0,1,.836-1.316,1.906,1.906,0,0,1,1.258-.473,2.092,2.092,0,0,1,.766.109Zm2.047-3.328a.812.812,0,0,1-.586-.234.791.791,0,0,1-.242-.594.821.821,0,0,1,.828-.836.827.827,0,0,1,.6.238.835.835,0,0,1,0,1.184A.82.82,0,0,1,24.422,6.969ZM25.047,17H23.766V9h1.281Zm8.32,0H32.086V15.75h-.031a2.682,2.682,0,0,1-2.461,1.438,2.63,2.63,0,0,1-1.871-.633,2.192,2.192,0,0,1-.676-1.68q0-2.242,2.641-2.609l2.4-.336q0-2.039-1.648-2.039a3.938,3.938,0,0,0-2.609.984V9.563a4.958,4.958,0,0,1,2.719-.75q2.82,0,2.82,2.984Zm-1.281-4.047-1.93.266a3.133,3.133,0,0,0-1.344.441,1.273,1.273,0,0,0-.453,1.121,1.221,1.221,0,0,0,.418.957,1.615,1.615,0,0,0,1.113.371,2.056,2.056,0,0,0,1.574-.668,2.387,2.387,0,0,0,.621-1.691Zm5.008,2.891h-.031V17H35.781V5.156h1.281v5.25h.031a3.03,3.03,0,0,1,2.766-1.594,2.932,2.932,0,0,1,2.41,1.074,4.436,4.436,0,0,1,.871,2.879,4.959,4.959,0,0,1-.977,3.215,3.251,3.251,0,0,1-2.672,1.207A2.631,2.631,0,0,1,37.094,15.844Zm-.031-3.227v1.117a2.379,2.379,0,0,0,.645,1.684,2.3,2.3,0,0,0,3.461-.2,4.086,4.086,0,0,0,.66-2.477,3.225,3.225,0,0,0-.617-2.094,2.043,2.043,0,0,0-1.672-.758,2.27,2.27,0,0,0-1.8.777A2.854,2.854,0,0,0,37.063,12.617ZM46.469,17H45.188V5.156h1.281Zm9.023-3.68H49.844a2.992,2.992,0,0,0,.719,2.063,2.478,2.478,0,0,0,1.891.727,3.931,3.931,0,0,0,2.484-.891v1.2a4.643,4.643,0,0,1-2.789.766,3.381,3.381,0,0,1-2.664-1.09,4.461,4.461,0,0,1-.969-3.066,4.375,4.375,0,0,1,1.059-3.043A3.394,3.394,0,0,1,52.2,8.813a3.008,3.008,0,0,1,2.43,1.016,4.234,4.234,0,0,1,.859,2.82ZM54.18,12.234a2.607,2.607,0,0,0-.535-1.727,1.823,1.823,0,0,0-1.465-.617,2.07,2.07,0,0,0-1.539.648,2.943,2.943,0,0,0-.781,1.7Zm2.766,4.477V15.336a3.792,3.792,0,0,0,2.3.773q1.688,0,1.688-1.125a.976.976,0,0,0-.145-.543,1.44,1.44,0,0,0-.391-.395,3.007,3.007,0,0,0-.578-.309q-.332-.137-.715-.285a9.207,9.207,0,0,1-.934-.426,2.82,2.82,0,0,1-.672-.484,1.8,1.8,0,0,1-.406-.613,2.17,2.17,0,0,1-.137-.8,1.912,1.912,0,0,1,.258-1,2.286,2.286,0,0,1,.688-.727,3.206,3.206,0,0,1,.98-.441,4.349,4.349,0,0,1,1.137-.148,4.59,4.59,0,0,1,1.859.359v1.3a3.624,3.624,0,0,0-2.031-.578,2.374,2.374,0,0,0-.648.082,1.587,1.587,0,0,0-.5.23,1.065,1.065,0,0,0-.32.355.936.936,0,0,0-.113.457,1.1,1.1,0,0,0,.113.523,1.152,1.152,0,0,0,.332.375,2.538,2.538,0,0,0,.531.3q.312.133.711.289a9.894,9.894,0,0,1,.953.418,3.269,3.269,0,0,1,.719.484,1.893,1.893,0,0,1,.457.621,2,2,0,0,1,.16.836,1.971,1.971,0,0,1-.262,1.031,2.243,2.243,0,0,1-.7.727,3.2,3.2,0,0,1-1.008.43,4.976,4.976,0,0,1-1.2.141A4.539,4.539,0,0,1,56.945,16.711ZM69.594,7.734a1.442,1.442,0,0,1-1.023-.371,1.2,1.2,0,0,1-.4-.91,1.153,1.153,0,0,1,.4-.906,1.671,1.671,0,0,1,2.051,0,1.158,1.158,0,0,1,.395.906,1.191,1.191,0,0,1-.395.922A1.466,1.466,0,0,1,69.594,7.734ZM70.813,17H68.344V9h2.469Zm9.8,0H78.156V12.555q0-1.859-1.328-1.859a1.318,1.318,0,0,0-1.055.492,1.875,1.875,0,0,0-.414,1.25V17H72.891V9h2.469v1.266h.031A2.829,2.829,0,0,1,77.961,8.8q2.656,0,2.656,3.3Zm6.789-.094a3.649,3.649,0,0,1-1.648.289q-2.609,0-2.609-2.711V10.82h-1.3V9h1.3V7.273l2.461-.7V9h1.8v1.82h-1.8v3.234q0,1.25.992,1.25a1.673,1.673,0,0,0,.8-.227Zm8.516-3.2H90.7q.125,1.742,2.2,1.742a4.286,4.286,0,0,0,2.32-.625V16.6a6.1,6.1,0,0,1-2.883.594,4.058,4.058,0,0,1-3.008-1.074,4.058,4.058,0,0,1-1.07-3,4.281,4.281,0,0,1,1.156-3.156A3.852,3.852,0,0,1,92.258,8.8a3.5,3.5,0,0,1,2.707,1.039,4,4,0,0,1,.957,2.82Zm-2.289-1.516q0-1.719-1.391-1.719a1.328,1.328,0,0,0-1.027.492,2.234,2.234,0,0,0-.527,1.227Zm8.977-.961a2.141,2.141,0,0,0-1.039-.242,1.5,1.5,0,0,0-1.258.59,2.573,2.573,0,0,0-.453,1.605V17H97.391V9h2.469v1.484h.031A2.136,2.136,0,0,1,102,8.859a1.59,1.59,0,0,1,.609.094ZM111.531,17H109.07V12.555q0-1.859-1.328-1.859a1.318,1.318,0,0,0-1.055.492,1.875,1.875,0,0,0-.414,1.25V17H103.8V9h2.469v1.266h.031a2.829,2.829,0,0,1,2.57-1.461q2.656,0,2.656,3.3Zm8.609,0H117.8V15.852h-.031a2.607,2.607,0,0,1-2.383,1.344,2.492,2.492,0,0,1-1.832-.66,2.366,2.366,0,0,1-.668-1.762q0-2.328,2.758-2.687l2.172-.289q0-1.312-1.422-1.312a4.853,4.853,0,0,0-2.719.852V9.477a6.116,6.116,0,0,1,1.41-.469,7.413,7.413,0,0,1,1.629-.2q3.422,0,3.422,3.414Zm-2.32-3.25v-.539l-1.453.188q-1.2.156-1.2,1.086a.9.9,0,0,0,.293.691,1.126,1.126,0,0,0,.793.27,1.462,1.462,0,0,0,1.133-.48A1.735,1.735,0,0,0,117.82,13.75Zm3.75,3.039v-2a5.256,5.256,0,0,0,1.215.547,4.028,4.028,0,0,0,1.145.18,2.455,2.455,0,0,0,1.035-.18.581.581,0,0,0,.379-.547.506.506,0,0,0-.172-.391,1.6,1.6,0,0,0-.441-.273,5.009,5.009,0,0,0-.59-.211q-.32-.094-.617-.211a5.913,5.913,0,0,1-.84-.387,2.427,2.427,0,0,1-.609-.48,1.889,1.889,0,0,1-.375-.633,2.525,2.525,0,0,1-.129-.852,2.192,2.192,0,0,1,.293-1.156,2.393,2.393,0,0,1,.781-.793,3.57,3.57,0,0,1,1.117-.453A5.825,5.825,0,0,1,125.07,8.8a7.261,7.261,0,0,1,1.078.082,8.047,8.047,0,0,1,1.078.238v1.906a3.9,3.9,0,0,0-1-.41,4.235,4.235,0,0,0-1.051-.137,2.328,2.328,0,0,0-.457.043,1.505,1.505,0,0,0-.379.125.7.7,0,0,0-.258.211.486.486,0,0,0-.094.293.541.541,0,0,0,.141.375,1.221,1.221,0,0,0,.367.27,3.625,3.625,0,0,0,.5.2q.277.09.551.184a7.161,7.161,0,0,1,.891.375,2.848,2.848,0,0,1,.684.477,1.872,1.872,0,0,1,.438.641,2.563,2.563,0,0,1-.156,2.09,2.471,2.471,0,0,1-.82.82,3.72,3.72,0,0,1-1.18.461,6.54,6.54,0,0,1-1.387.145A7.149,7.149,0,0,1,121.57,16.789Z" transform="translate(420 7544.57) rotate(-90)" fill="#12263f"/>
    <path id="Trazado_217920" data-name="Trazado 217920" d="M-7028.133-4423.412v368.59" transform="translate(7792.388 11814.182)" fill="none" stroke="#12263f" stroke-width="4"/>
    <path id="Trazado_217921" data-name="Trazado 217921" d="M0,0V582.071" transform="translate(473.22 7565.641) rotate(-90)" fill="none" stroke="#12263f" stroke-width="4"/>
  </g>
</svg>
