<svg xmlns="http://www.w3.org/2000/svg" xmlns:xlink="http://www.w3.org/1999/xlink" width="126" height="126" viewBox="0 0 126 126">
  <defs>
    <filter id="Elipse_6216" x="0" y="0" width="126" height="126" filterUnits="userSpaceOnUse">
      <feOffset dy="3" input="SourceAlpha"/>
      <feGaussianBlur stdDeviation="3" result="blur"/>
      <feFlood flood-opacity="0.161"/>
      <feComposite operator="in" in2="blur"/>
      <feComposite in="SourceGraphic"/>
    </filter>
    <clipPath id="clip-path">
      <rect id="Rectángulo_56316" data-name="Rectángulo 56316" width="63.157" height="59.874" fill="#1a76b7"/>
    </clipPath>
  </defs>
  <g id="Grupo_179426" data-name="Grupo 179426" transform="translate(-167 -6781)">
    <g transform="matrix(1, 0, 0, 1, 167, 6781)" filter="url(#Elipse_6216)">
      <circle id="Elipse_6216-2" data-name="Elipse 6216" cx="54" cy="54" r="54" transform="translate(9 6)" fill="#fff"/>
    </g>
    <g id="Grupo_177178" data-name="Grupo 177178" transform="translate(197.989 6811.5)">
      <g id="Grupo_175646" data-name="Grupo 175646" clip-path="url(#clip-path)">
        <path id="Trazado_217922" data-name="Trazado 217922" d="M42.988,44.291v1.858c-.521.025-.981.066-1.44.066q-17.919.005-35.838,0c-3.605,0-5.678-2.087-5.68-5.732C.024,28.868.069,17.253,0,5.638A5.441,5.441,0,0,1,5.52,0C22.943.067,40.366.023,57.789.04A5.039,5.039,0,0,1,63.15,5.465q.014,17.636,0,35.271c0,3.374-2.094,5.456-5.473,5.477-2.634.017-5.268,0-7.98,0V44.291c2.513,0,5,0,7.49,0,2.871,0,4.055-1.171,4.055-4.007q0-17.211,0-34.421c0-2.8-1.125-3.941-3.96-3.943q-25.71-.013-51.419,0c-2.748,0-3.92,1.222-3.92,4.011q-.005,17.14,0,34.28c0,2.9,1.205,4.079,4.154,4.079q17.565,0,35.13,0Z" transform="translate(0 0)" fill="#1a76b7"/>
        <path id="Trazado_217923" data-name="Trazado 217923" d="M34.272,42.273c0-1.031.044-1.871-.011-2.7-.073-1.1.4-1.539,1.488-1.521,2.215.036,4.431.011,6.614.011.7-1.983.46-2.34-1.446-2.363-4.033-.048-3.48.587-3.514-3.532-.021-2.548,0-2.549,2.578-2.55,2.691,0,5.383.027,8.074-.011,1.3-.018,1.945.418,1.778,1.827a11.552,11.552,0,0,0,0,2.546c.147,1.411-.472,1.85-1.8,1.74-1.072-.088-2.157-.018-3.387-.018-.035.8-.065,1.475-.1,2.359,1.931,0,3.707,0,5.482,0,1.724,0,1.913.2,1.944,1.963.012.7,0,1.393,0,2.251.988,0,1.826.025,2.662-.007.882-.033,1.512.205,1.486,1.227-.022.877.523.971,1.208.968,2.55-.011,5.1.058,7.649-.025,1.385-.045,1.9.489,1.784,1.822-.06.7-.01,1.405-.01,2.395.912,0,1.736.038,2.556-.009,1.13-.065,1.636.374,1.615,1.552-.1,5.563.69,4.36-4.279,4.49-1.6.042-3.211-.019-4.816.014-.847.017-1.21-.337-1.2-1.173.019-1.18.046-2.363-.01-3.54-.047-1.017.461-1.345,1.367-1.332.519.007,1.039-.02,1.558,0,.783.026,1.343-.054,1.355-1.109.012-1.087-.5-1.232-1.388-1.214-2.077.041-4.155.032-6.232,0-.727-.01-1.181.153-1.169,1s-.516,1.126-1.3,1.1c-.887-.024-1.775-.005-2.748-.005v3.428c.957,0,1.881.027,2.8-.008s1.281.373,1.259,1.266c-.029,1.18-.025,2.361,0,3.541.018.961-.446,1.369-1.378,1.365-2.5-.01-5.005-.005-7.508,0-.922,0-1.394-.4-1.366-1.374.034-1.179.037-2.362,0-3.541-.029-.927.394-1.289,1.281-1.234.376.024.763-.048,1.132.01,1.411.221,1.952-.3,1.841-1.768-.126-1.658-.031-1.665-2.06-1.667-2.184,0-2.184,0-2.187-2.165,0-.756.06-1.517-.012-2.265-.135-1.4.49-1.888,1.824-1.754.7.069,1.409.012,2.287.012.037-.746.071-1.414.111-2.209H36.241c-.031.65-.062,1.323-.1,2.21.994,0,1.875.035,2.752-.01.945-.048,1.439.352,1.451,1.294.016,1.227.02,2.455,0,3.682-.015.864-.45,1.232-1.352,1.218-2.549-.041-5.1-.03-7.649-.006-.87.008-1.333-.29-1.31-1.226.03-1.227.02-2.455,0-3.683-.012-.892.4-1.294,1.292-1.274s1.788,0,2.95,0M47.856,33.75V31.5c-2.275,0-4.476,0-6.678,0-2.044,0-2.167.171-1.614,2.248ZM62.651,50.477v2.278H69.32c-.559-.867.444-2.153-1.106-2.251-1.823-.115-3.658-.027-5.562-.027M47.839,55.969c2.008,0,3.845.044,5.676-.045.294-.014.784-.623.783-.956,0-.425-.391-1.2-.646-1.217-1.912-.1-3.833-.056-5.813-.056ZM32.01,46.51c1.975,0,3.84.043,5.7-.047.275-.013.73-.654.724-1-.008-.428-.388-1.2-.641-1.217-1.9-.1-3.808-.056-5.782-.056ZM54.2,44.274H47.876V46.43h6.43L54.2,44.274" transform="translate(-21.517 -21.213)" fill="#1a76b7"/>
        <path id="Trazado_217924" data-name="Trazado 217924" d="M17.065,50.786h36.7v1.9H52.187q-17.567,0-35.135,0c-1.979,0-2-.016-2-1.973q0-16.86,0-33.719c0-1.968.042-2.022,1.94-2.022q23.235-.006,46.47,0c1.957,0,1.977.029,1.978,1.967q0,16.93,0,33.86c0,1.859-.029,1.883-1.925,1.887-.983,0-1.965,0-3.029,0V50.825h2.928V17.016H17.065Z" transform="translate(-10.789 -10.728)" fill="#1a76b7"/>
        <path id="Trazado_217925" data-name="Trazado 217925" d="M52.126,195.728c-7.793,0-15.586-.021-23.378.013-2.281.01-3.949-1.4-5.8-2.354-.713-.365-.538-1.213.185-1.58,2.16-1.1,4.212-2.227,6.862-2.208,15.348.111,30.7.037,46.047.027a3.055,3.055,0,0,1,3.218,3.04,2.973,2.973,0,0,1-3.185,3.044c-7.982.024-15.963.01-23.945.01Zm17.789-4.1c-.506-.041-.963-.111-1.421-.112-13.159-.006-26.318-.025-39.477.035a12.085,12.085,0,0,0-3.114.877l.017.626a14.2,14.2,0,0,0,3.175.751c13.111.052,26.223.035,39.335.03.495,0,.989-.058,1.484-.088ZM72,191.578v2.248a41.249,41.249,0,0,0,4.18-.051,1.688,1.688,0,0,0,1.12-1.083c.07-.271-.587-1.028-.964-1.062-1.431-.129-2.88-.052-4.336-.052" transform="translate(-16.116 -135.867)" fill="#1a76b7"/>
        <rect id="Rectángulo_56307" data-name="Rectángulo 56307" width="1.732" height="10.218" transform="translate(57.079 18.021)" fill="#1a76b7"/>
        <rect id="Rectángulo_56308" data-name="Rectángulo 56308" width="1.705" height="1.742" transform="translate(45.491 38.985)" fill="#1a76b7"/>
        <rect id="Rectángulo_56309" data-name="Rectángulo 56309" width="1.69" height="1.73" transform="translate(7.449 48.626)" fill="#1a76b7"/>
        <rect id="Rectángulo_56310" data-name="Rectángulo 56310" width="1.666" height="1.746" transform="translate(11.517 48.593)" fill="#1a76b7"/>
        <rect id="Rectángulo_56311" data-name="Rectángulo 56311" width="1.703" height="1.787" transform="translate(15.693 48.583)" fill="#1a76b7"/>
        <rect id="Rectángulo_56312" data-name="Rectángulo 56312" width="1.695" height="1.786" transform="translate(23.915 48.584)" fill="#1a76b7"/>
        <path id="Trazado_217926" data-name="Trazado 217926" d="M115.2,173.295c-.255.027-.434.058-.613.063-.323.009-.647,0-1.08,0v-1.834H115.2Z" transform="translate(-81.337 -122.917)" fill="#1a76b7"/>
        <path id="Trazado_217927" data-name="Trazado 217927" d="M144.243,173.068l-1.792.132v-1.736c1.739-.36,1.792-.315,1.792,1.6" transform="translate(-102.081 -122.747)" fill="#1a76b7"/>
        <path id="Trazado_217928" data-name="Trazado 217928" d="M1.421,181.291l1.567.985-.439,1.393-1.894-.312.766-2.067" transform="translate(-0.469 -129.914)" fill="#1a76b7"/>
        <path id="Trazado_217929" data-name="Trazado 217929" d="M162.111,152.6v1.838l-1.787-.3V152.6Z" transform="translate(-114.889 -109.352)" fill="#1a76b7"/>
        <path id="Trazado_217930" data-name="Trazado 217930" d="M154.232,165.511l1.015-1.125,1.588.993-1.451,1.655-1.152-1.523" transform="translate(-110.524 -117.8)" fill="#1a76b7"/>
        <path id="Trazado_217931" data-name="Trazado 217931" d="M9.766,172.614l2.072-.724.426,1.689-1.308.67-1.189-1.635" transform="translate(-6.998 -123.177)" fill="#1a76b7"/>
        <path id="Trazado_217932" data-name="Trazado 217932" d="M.3,197.465H2.039v1.718c-1.582.187-1.765.02-1.736-1.718" transform="translate(-0.216 -141.505)" fill="#1a76b7"/>
        <rect id="Rectángulo_56313" data-name="Rectángulo 56313" width="1.774" height="1.67" transform="translate(45.441 34.859)" fill="#1a76b7"/>
        <rect id="Rectángulo_56314" data-name="Rectángulo 56314" width="1.633" height="1.774" transform="translate(19.787 48.567)" fill="#1a76b7"/>
        <rect id="Rectángulo_56315" data-name="Rectángulo 56315" width="1.584" height="1.744" transform="translate(28.092 48.619)" fill="#1a76b7"/>
        <path id="Trazado_217933" data-name="Trazado 217933" d="M129.879,173.111h-1.508v-1.819l1.508-.073Z" transform="translate(-91.991 -122.697)" fill="#1a76b7"/>
      </g>
    </g>
  </g>
</svg>
