<svg xmlns="http://www.w3.org/2000/svg" xmlns:xlink="http://www.w3.org/1999/xlink" width="126" height="126" viewBox="0 0 126 126">
  <defs>
    <filter id="Elipse_6215" x="0" y="0" width="126" height="126" filterUnits="userSpaceOnUse">
      <feOffset dy="3" input="SourceAlpha"/>
      <feGaussianBlur stdDeviation="3" result="blur"/>
      <feFlood flood-opacity="0.161"/>
      <feComposite operator="in" in2="blur"/>
      <feComposite in="SourceGraphic"/>
    </filter>
    <clipPath id="clip-path">
      <rect id="Rectángulo_53000" data-name="Rectángulo 53000" width="67.085" height="67" fill="#1a76b7"/>
    </clipPath>
  </defs>
  <g id="Grupo_179427" data-name="Grupo 179427" transform="translate(-769 -6781)">
    <g transform="matrix(1, 0, 0, 1, 769, 6781)" filter="url(#Elipse_6215)">
      <circle id="Elipse_6215-2" data-name="Elipse 6215" cx="54" cy="54" r="54" transform="translate(9 6)" fill="#fff"/>
    </g>
    <g id="Grupo_177176" data-name="Grupo 177176" transform="translate(798 6808)">
      <g id="Grupo_172377" data-name="Grupo 172377" clip-path="url(#clip-path)">
        <path id="Trazado_212878" data-name="Trazado 212878" d="M16.847,39.1c-2.566,0-4.895-.057-7.217.049-.452.021-1,.592-1.289,1.047a4.376,4.376,0,0,1-4.734,2.124,4.477,4.477,0,0,1-3.57-3.78,4.646,4.646,0,0,1,2.276-4.4,4.356,4.356,0,0,1,6.009,1.759A1.584,1.584,0,0,0,10,36.9c2.064-.063,4.131-.023,6.2-.031a3.449,3.449,0,0,0,.547-.1V27.715c-2.423-.54-4.915-1.141-7.432-1.6-.326-.059-.87.565-1.171.977a4.422,4.422,0,0,1-6.175,1.142A4.417,4.417,0,0,1,6.888,20.9a3.336,3.336,0,0,1,1.369,1.472c.422,1.284,1.36,1.565,2.482,1.784,1.962.383,3.91.834,5.988,1.284.2-2.632.492-4.965-1.935-7.011-3.148-2.653-5.883-5.794-8.836-8.683a3.007,3.007,0,0,0-1.594-.81A4.663,4.663,0,0,1,.037,5,4.593,4.593,0,0,1,2.752.4a4.453,4.453,0,0,1,5.358,1.51,4.408,4.408,0,0,1-.373,5.547c-.126.158-.245.32-.28.367L17.336,17.7c1.488-2.925,4.194-3.4,7.255-3.044l.224-.458a66.159,66.159,0,0,0-6.978-5.376C15.761,7.6,14.483,6.357,14.622,4.1A4.532,4.532,0,0,1,18.3.067a4.531,4.531,0,0,1,4.631,2.366c1.005,1.908.641,3.754-1.077,5.45-.147.145-.3.285-.534.51a79.22,79.22,0,0,0,6.762,5.768c1.016.7,2.7.432,4.337.636,0-2.033.036-3.811-.039-5.586-.011-.266-.508-.566-.835-.757A4.476,4.476,0,0,1,29.3,3.193a4.424,4.424,0,0,1,8.514.08,4.584,4.584,0,0,1-2.194,5.161,2.281,2.281,0,0,0-.922,1.5,38.32,38.32,0,0,0-.035,3.969,5.557,5.557,0,0,0,.07.57c2.091.271,4.048.456,5.761-1.373,1.584-1.692,3.46-3.11,5.263-4.7-1.7-1.478-2.673-3.187-1.841-5.468A4.581,4.581,0,0,1,48.388.016a4.686,4.686,0,0,1,4.035,3.521,4.175,4.175,0,0,1-2.281,4.786c-3.193,1.243-5.095,4.029-7.79,6.144,3.058-.075,5.92.165,7.313,3.153l9.873-9.873c-.019-.026-.227-.311-.438-.6a4.311,4.311,0,0,1,.033-5.418A4.333,4.333,0,0,1,64.4.424a4.583,4.583,0,0,1,2.654,4.489,4.775,4.775,0,0,1-3.93,4.02,4.605,4.605,0,0,0-2.266,1.1c-3.089,2.977-6.052,6.085-9.151,9.052a3.935,3.935,0,0,0-1.492,3.583,22.917,22.917,0,0,1,.02,2.812c2.584-.573,5.005-1.078,7.4-1.678.351-.088.669-.587.865-.968a4.395,4.395,0,0,1,4.951-2.553,4.443,4.443,0,0,1,3.61,4.083,4.616,4.616,0,0,1-3,4.424A4.5,4.5,0,0,1,58.8,26.9c-.275-.381-.9-.838-1.271-.768-2.421.456-4.816,1.047-7.22,1.594v9.153c2.489,0,4.911.048,7.327-.048.392-.016.858-.6,1.122-1.033a4.433,4.433,0,0,1,6.207-1.528,4.384,4.384,0,0,1,1.282,6.238,4.479,4.479,0,0,1-6.179,1.134c-.344-.236-.808-.518-.9-.863-.53-2-2.08-1.707-3.538-1.687-1.641.022-3.283.017-4.925.03a1.379,1.379,0,0,0-.343.108A2.053,2.053,0,0,0,51.2,41.8c3.969,2.781,5.279,6.513,4.779,11.331-.418,4.035-.086,8.149-.086,12.228v1.626H53.719V63.676c0-4.556-.094-9.114.046-13.666a4.838,4.838,0,0,0-1.855-4.386,8.309,8.309,0,0,1-1.2-1.472l-.473.207c0,1.761.051,3.525-.03,5.282-.026.551-.284,1.388-.663,1.545a1.957,1.957,0,0,1-1.583-.583c-2.775-2.693-5.485-5.452-8.226-8.179-1.285-1.279-2.322-1.427-3.294-.513-1.028.967-.895,2.076.41,3.414a2.655,2.655,0,0,0,.334.339,9.542,9.542,0,0,1,4.232,9.8c-.108.814.992,1.792,1.544,2.689.526.853,1.064,1.7,1.6,2.547a14.091,14.091,0,0,1-2.867.656c-3.752.077-7.506.031-11.459.031V67H28.048V61.389c-1.909,0-3.687.008-5.465,0a5.386,5.386,0,0,1-5.734-5.759q-.014-7.31,0-14.62V39.1M39,52.549a4.359,4.359,0,0,0-4.352-4.593,14.422,14.422,0,0,1-3.927-.308,11.121,11.121,0,1,1,12.92-6.037c-.183.409-.325,1.133-.109,1.375,1.35,1.513,2.808,2.93,4.443,4.6V23.624H19.132V52.479c.526.027.941.067,1.357.068,6.135,0,12.269,0,18.507,0m2.5-11.681a8.919,8.919,0,1,0-16.127-.375c1.638,3.61,5.33,5.789,8.695,5.131-.831-2.764-.431-4.49,1.316-5.683,1.92-1.311,3.5-1.09,6.116.927M19.138,21.21h28.81c.3-3-.906-4.423-3.759-4.431q-10.645-.03-21.291,0c-2.853.008-4.06,1.432-3.761,4.431M38.679,54.824H19.117c-.236,3.077,1,4.455,3.984,4.47,5.5.028,10.991.011,16.486,0a2.681,2.681,0,0,0,.661-.1l-1.569-4.375M2.236,38.06A2.39,2.39,0,0,0,4.457,40.3a2.351,2.351,0,0,0,2.249-2.344,2.291,2.291,0,0,0-2.2-2.226A2.335,2.335,0,0,0,2.236,38.06m60.415-2.327a2.284,2.284,0,0,0-2.268,2.191,2.238,2.238,0,1,0,4.47.093,2.339,2.339,0,0,0-2.2-2.284M33.6,2.23A2.371,2.371,0,0,0,31.248,4.5a2.349,2.349,0,0,0,2.235,2.2,2.319,2.319,0,0,0,2.346-2.241A2.355,2.355,0,0,0,33.6,2.23M2.24,24.389a2.26,2.26,0,0,0,2,2.435A2.219,2.219,0,0,0,6.7,24.886a2.368,2.368,0,0,0-2.046-2.573A2.4,2.4,0,0,0,2.24,24.389m60.406,2.469a2.3,2.3,0,0,0,2.207-2.263,2.391,2.391,0,0,0-2.371-2.29,2.356,2.356,0,0,0-2.1,2.374,2.243,2.243,0,0,0,2.263,2.179M62.577,6.7a2.25,2.25,0,0,0,2.276-2.158A2.331,2.331,0,0,0,62.7,2.229,2.224,2.224,0,0,0,60.384,4.5a2.138,2.138,0,0,0,2.193,2.2M6.7,4.467A2.245,2.245,0,0,0,4.509,2.229,2.328,2.328,0,0,0,2.234,4.416,2.243,2.243,0,0,0,4.542,6.7,2.139,2.139,0,0,0,6.7,4.467m14.59.068a2.372,2.372,0,0,0-2.18-2.305A2.232,2.232,0,0,0,16.8,4.349,2.155,2.155,0,0,0,19,6.7a2.308,2.308,0,0,0,2.288-2.164M48.06,2.23a2.358,2.358,0,0,0-2.265,2.218A2.3,2.3,0,0,0,48.153,6.7a2.149,2.149,0,0,0,2.137-2.266,2.235,2.235,0,0,0-2.231-2.2" transform="translate(0 0)" fill="#1a76b7"/>
        <rect id="Rectángulo_52997" data-name="Rectángulo 52997" width="1.96" height="2.072" transform="translate(21.415 43.669)" fill="#1a76b7"/>
        <rect id="Rectángulo_52998" data-name="Rectángulo 52998" width="1.932" height="2.038" transform="translate(21.43 48.161)" fill="#1a76b7"/>
        <rect id="Rectángulo_52999" data-name="Rectángulo 52999" width="2.05" height="1.975" transform="translate(25.867 48.137)" fill="#1a76b7"/>
        <path id="Trazado_212879" data-name="Trazado 212879" d="M95.678,99.329l1.978,1.611c-2.558,2.509-4.889,4.875-7.338,7.109a2.029,2.029,0,0,1-1.885-.125,34.815,34.815,0,0,1-3.192-2.866l1.681-1.76,2.173,2.78,6.584-6.748" transform="translate(-58.147 -67.757)" fill="#1a76b7"/>
      </g>
    </g>
  </g>
</svg>
