<svg xmlns="http://www.w3.org/2000/svg" xmlns:xlink="http://www.w3.org/1999/xlink" width="122" height="116.609" viewBox="0 0 122 116.609">
  <defs>
    <filter id="Rect치ngulo_52475" x="0" y="0" width="122" height="116.609" filterUnits="userSpaceOnUse">
      <feOffset dy="3" input="SourceAlpha"/>
      <feGaussianBlur stdDeviation="3" result="blur"/>
      <feFlood flood-opacity="0.161"/>
      <feComposite operator="in" in2="blur"/>
      <feComposite in="SourceGraphic"/>
    </filter>
  </defs>
  <g id="Grupo_179429" data-name="Grupo 179429" transform="translate(-236 -8898.136)">
    <g transform="matrix(1, 0, 0, 1, 236, 8898.14)" filter="url(#Rect치ngulo_52475)">
      <rect id="Rect치ngulo_52475-2" data-name="Rect치ngulo 52475" width="104" height="98.609" rx="10" transform="translate(9 6)" fill="#e8e8e8"/>
    </g>
    <path id="Trazado_228308" data-name="Trazado 228308" d="M83.4,0h-14.8V-39.8q0-6.448.557-14.241h-.371A70.076,70.076,0,0,1,66.7-45.227L51.118,0H38.872L23.008-44.763a87.1,87.1,0,0,1-2.087-9.277H20.5q.6,9.834.6,17.256V0H7.607V-66.519H29.548L43.14-27.09a55.515,55.515,0,0,1,2.366,9.509h.278a95.751,95.751,0,0,1,2.644-9.6L62.019-66.519H83.4Z" transform="translate(256 8986.137)" fill="#12263f" opacity="0.23"/>
  </g>
</svg>
