<svg xmlns="http://www.w3.org/2000/svg" width="367.996" height="190.749" viewBox="0 0 367.996 190.749">
  <g id="Grupo_179441" data-name="Grupo 179441" transform="translate(-303.254 -12510.64)">
    <path id="Trazado_228344" data-name="Trazado 228344" d="M50.781,2.185q-44.75,0-44.75-62.842,0-32.6,12.105-49.688t35.092-17.087q43.7,0,43.7,63.891,0,31.814-11.93,48.771T50.781,2.185ZM52-106.369q-17.917,0-17.917,45.012,0,42.39,17.568,42.39,17.131,0,17.131-43.7T52-106.369Zm123.674-21.763V0H148.147V-97.017a32.97,32.97,0,0,1-5.375,3.8,55.491,55.491,0,0,1-6.6,3.234,58.922,58.922,0,0,1-7.254,2.447,52.985,52.985,0,0,1-7.429,1.442V-109.34a114.847,114.847,0,0,0,20.277-8.041,115.4,115.4,0,0,0,17.218-10.75Z" transform="translate(297.224 12638.771)" fill="#12263f" opacity="0.089"/>
    <path id="Trazado_228345" data-name="Trazado 228345" d="M0,0H245.625V38.848H0Z" transform="translate(425.625 12662.541)" fill="#ece5f7"/>
  </g>
</svg>
