<svg xmlns="http://www.w3.org/2000/svg" xmlns:xlink="http://www.w3.org/1999/xlink" width="356.331" height="261.323" viewBox="0 0 356.331 261.323">
  <defs>
    <linearGradient id="linear-gradient" x1="0.5" x2="0.5" y2="1" gradientUnits="objectBoundingBox">
      <stop offset="0" stop-color="#fff"/>
      <stop offset="1" stop-color="#d2e6ee"/>
    </linearGradient>
  </defs>
  <g id="Grupo_179437" data-name="Grupo 179437" transform="translate(-912.844 -12474.609)">
    <g id="Grupo_53057" data-name="Grupo 53057" transform="translate(424.991 12139.037)">
      <path id="Trazado_97074" data-name="Trazado 97074" d="M837.591,383.187q-.213-.505-.439-1.005A49.924,49.924,0,0,0,791.8,352.667l-.262,0-.261,0A49.986,49.986,0,0,0,746.339,381.3q-.441.932-.844,1.885a50.139,50.139,0,0,0,0,38.909q.48,1.135,1.014,2.24a49.272,49.272,0,0,0,3.057,5.443,49.9,49.9,0,0,0,41.715,22.836l.261,0,.262,0a49.974,49.974,0,0,0,45.182-29.148q.313-.679.6-1.372a50.139,50.139,0,0,0,0-38.909Zm-6.372,37.9a92.394,92.394,0,0,0-14.6-3.82,97.53,97.53,0,0,0,.065-28.809,92.044,92.044,0,0,0,14.714-3.871q.235.514.454,1.034a43.9,43.9,0,0,1,0,34.05Q831.547,420.381,831.219,421.083ZM771.6,402.641a89.7,89.7,0,0,1,1-13.52,138.8,138.8,0,0,0,20.009,1.41,140.469,140.469,0,0,0,17.91-1.12,91.73,91.73,0,0,1-.067,26.9,140.51,140.51,0,0,0-17.843-1.111,138.724,138.724,0,0,0-19.941,1.4A89.4,89.4,0,0,1,771.6,402.641Zm36.964-40.305a43.99,43.99,0,0,1,19.812,16.7,87.27,87.27,0,0,1-12.847,3.295,64.809,64.809,0,0,0-4.888-14.2A41.666,41.666,0,0,0,806.7,361.6Q807.64,361.943,808.568,362.336Zm-10.082-.507a28.7,28.7,0,0,1,6.564,9.055,58.126,58.126,0,0,1,4.308,12.394,134.7,134.7,0,0,1-16.742,1.019,132.986,132.986,0,0,1-18.821-1.3,57.817,57.817,0,0,1,4.243-12.115,28.679,28.679,0,0,1,6.563-9.055,9.694,9.694,0,0,1,13.885,0Zm-37.873,9.883a43.6,43.6,0,0,1,13.905-9.376q.929-.392,1.869-.739a41.656,41.656,0,0,0-3.945,6.533,64.439,64.439,0,0,0-4.8,13.807,81.6,81.6,0,0,1-12.528-3.527A43.828,43.828,0,0,1,760.613,371.711Zm-9.376,47.955a43.9,43.9,0,0,1,0-34.05q.369-.871.773-1.722l.222.087a86.943,86.943,0,0,0,14.233,4.072,97.459,97.459,0,0,0,.068,29.607,86.953,86.953,0,0,0-14.3,4.086l-.043.016Q751.687,420.729,751.238,419.666Zm23.281,23.281a44.008,44.008,0,0,1-19.162-15.718,81.991,81.991,0,0,1,12.389-3.457,64.073,64.073,0,0,0,4.7,13.38,41.649,41.649,0,0,0,3.945,6.534Q775.446,443.34,774.518,442.947Zm10.082.508a28.68,28.68,0,0,1-6.563-9.055,57.4,57.4,0,0,1-4.139-11.683,133.112,133.112,0,0,1,18.717-1.283,134.642,134.642,0,0,1,16.641,1.006,57.717,57.717,0,0,1-4.206,11.96,28.7,28.7,0,0,1-6.564,9.055,9.695,9.695,0,0,1-13.885,0Zm37.873-9.883a43.6,43.6,0,0,1-13.905,9.375q-.929.392-1.869.74a41.658,41.658,0,0,0,3.945-6.534,64.46,64.46,0,0,0,4.79-13.773,87.7,87.7,0,0,1,12.71,3.231A43.892,43.892,0,0,1,822.473,433.571Z" transform="translate(-205.566 -13.849)" fill="#e8e8e8"/>
      <g id="Grupo_46671" data-name="Grupo 46671" transform="translate(549.001 397.722)">
        <rect id="Rectángulo_28394" data-name="Rectángulo 28394" width="246.495" height="183.302" rx="10" transform="translate(24.344 0)" fill="#00223d"/>
        <rect id="Rectángulo_28395" data-name="Rectángulo 28395" width="235.376" height="175.033" transform="translate(29.903 6.404)" fill="#fff"/>
        <rect id="Rectángulo_28396" data-name="Rectángulo 28396" width="295.183" height="11.734" transform="translate(0 176.178)" fill="#00223d"/>
        <rect id="Rectángulo_28397" data-name="Rectángulo 28397" width="226.102" height="160.814" transform="translate(34.541 10.124)" fill="#e7eefd"/>
      </g>
      <g id="Grupo_46677" data-name="Grupo 46677" transform="translate(487.853 464.706)">
        <g id="Grupo_46676" data-name="Grupo 46676" transform="translate(0)">
          <path id="Trazado_97075" data-name="Trazado 97075" d="M518,1022.068c-.112,1.683.54,3.411.071,5.031-.62,2.146-2.963,3.337-3.958,5.337-1.042,2.094-.494,4.846-1.968,6.662-.524.646-1.253,1.1-1.811,1.713a4.441,4.441,0,0,0-.352,5.327c1.211,1.761,3.547,2.378,5.685,2.365s4.258-.516,6.393-.415c2.172.1,4.3.83,6.468.759a11,11,0,0,0,7.777-4.051,19.9,19.9,0,0,0,3.869-8.069,17.614,17.614,0,0,0,.576-3.387c.245-4.459-2.014-8.67-4.626-12.292a12.108,12.108,0,0,0-4.388-4.163C527.541,1014.926,518.385,1016.248,518,1022.068Z" transform="translate(-505.196 -1016.039)" fill="#00223d"/>
          <g id="Grupo_46672" data-name="Grupo 46672" transform="translate(28.429 117.595)">
            <path id="Trazado_97076" data-name="Trazado 97076" d="M642.907,1635.7s-.764,7.542.776,8.4c2.789,1.549,7.932,3.027,7.5,4.358s-12.759,1.382-13.1.169,1.039-4.926-.425-12.153Z" transform="translate(-637.658 -1635.702)" fill="#fb9391"/>
            <path id="Trazado_97077" data-name="Trazado 97077" d="M639.8,1686.682a10.891,10.891,0,0,0-.123,2.709c.342,1.213,12.67,1.161,13.1-.169.319-.987-2.4-2.1-4.987-3.207C647.179,1687.041,645.876,1688.64,639.8,1686.682Z" transform="translate(-639.25 -1676.467)" fill="#8ec8c8"/>
          </g>
          <g id="Grupo_46673" data-name="Grupo 46673" transform="translate(3.595 117.245)">
            <path id="Trazado_97078" data-name="Trazado 97078" d="M513.755,1633.991s-2.037,7.3-.665,8.407c2.484,2,7.3,4.333,6.649,5.571s-12.807-.81-12.938-2.064,1.863-4.677,1.651-12.048Z" transform="translate(-506.795 -1633.858)" fill="#fb9391"/>
            <path id="Trazado_97079" data-name="Trazado 97079" d="M507.387,1683.388a10.887,10.887,0,0,0-.583,2.648c.131,1.254,12.287,3.3,12.938,2.064.483-.918-2.01-2.478-4.367-4.009C514.6,1685,513.043,1686.352,507.387,1683.388Z" transform="translate(-506.799 -1673.988)" fill="#8ec8c8"/>
          </g>
          <path id="Trazado_97080" data-name="Trazado 97080" d="M666.649,1155.764s2.59,3.468,4.748,3.468,9.5-9.172,9.5-9.172l1.727,2.778s-6.151,13.407-11.761,13.515-9.819-6.15-9.711-6.474,3.669-4.116,3.669-4.116Z" transform="translate(-628.258 -1124.626)" fill="#fb9391"/>
          <path id="Trazado_97081" data-name="Trazado 97081" d="M539.345,1283.4a30.33,30.33,0,0,1,4.859,8.8c1.511,4.748-2.5,61-2.5,61h-6.691s-3.549-50.1-3.549-50.54c0-1.75-13.174,50.54-13.174,50.54h-6.68s3.615-61.226,12-69.8l7.85.485Z" transform="translate(-507.105 -1232.66)" fill="#00223d"/>
          <path id="Trazado_97082" data-name="Trazado 97082" d="M590.481,1269.544v2.1s-3.992,3.885-15.727,0l-.027-2.1,10.305-.647Z" transform="translate(-558.241 -1220.911)" fill="#060633"/>
          <path id="Trazado_97083" data-name="Trazado 97083" d="M535.356,1132.689s4.158-.154,6.269,1.3c1.51,1.042,4.842,6.92,4.842,6.92l-3.826,3.252a4.732,4.732,0,0,1-2.65,5.326l-.645,8.579s-6.69,3.884-15.754,0c0,0-1.726-16.078-3.345-14.675a21.3,21.3,0,0,0-2.59,2.644l-6.043-5.989s6.587-6.6,8.767-7.634a10.542,10.542,0,0,1,9.25-.092Z" transform="translate(-507.105 -1109.434)" fill="#fff"/>
          <path id="Trazado_97084" data-name="Trazado 97084" d="M497.839,1185.02s-3.508,4.094-3.1,5.227,6.6,10.463,7.426,12.232a4.765,4.765,0,0,1,.586,2.821l-3.156,1.538s-.164-2.5-.851-3.231-11.126-11.5-10.884-14.9,5.034-8.594,5.034-8.594Z" transform="translate(-487.853 -1148.978)" fill="#fb9391"/>
          <g id="Grupo_46674" data-name="Grupo 46674" transform="translate(15.114 0.312)">
            <path id="Trazado_97085" data-name="Trazado 97085" d="M646.339,1066.38s.458-.9.933-.608c1.212.739.139,2.025-.575,2.357Z" transform="translate(-631.376 -1056.599)" fill="#fb9391"/>
            <path id="Trazado_97086" data-name="Trazado 97086" d="M579.312,1019.6a6.848,6.848,0,0,0-4.665,10.218,29.587,29.587,0,0,0,3.326,5.361,6.815,6.815,0,0,1,1.733,4.68l-.049,1.742c4.185,1.527,5.819.477,5.819.477l-.581-5.085h0c4.223-1,2.75-8.835,2.483-11.171l-.007,0c-.007-.088-.013-.176-.024-.264A6.848,6.848,0,0,0,579.312,1019.6Z" transform="translate(-572.519 -1019.142)" fill="#fb9391"/>
            <path id="Trazado_97087" data-name="Trazado 97087" d="M574.537,1025.079a28.478,28.478,0,0,0-2.857,4.8c-.079.189-.626,1.606-.406,1.737a8.828,8.828,0,0,1-2.788-3.068,7.135,7.135,0,0,1,5.037-10.7,7.538,7.538,0,0,1,6.987,1.928c1.64,1.774,1.984,4.216,2.409,6.494-.477-2.558-4.164-4.085-6.345-4.758.063.02-1.291,2.4-1.364,2.522C574.994,1024.388,574.767,1024.734,574.537,1025.079Z" transform="translate(-567.494 -1017.683)" fill="#00223d"/>
            <path id="Trazado_97088" data-name="Trazado 97088" d="M579.712,1080.472a1.015,1.015,0,0,0-.584-.42,1.716,1.716,0,0,0-1.848.387c-.74.931,1.194,2.954,2.73,1.663C580.01,1082.1,580.43,1081.573,579.712,1080.472Z" transform="translate(-575.291 -1068.131)" fill="#fb9391"/>
            <path id="Trazado_97089" data-name="Trazado 97089" d="M635.342,1067.731a.6.6,0,1,0-.587.608A.6.6,0,0,0,635.342,1067.731Z" transform="translate(-621.498 -1057.757)" fill="#060633"/>
            <path id="Trazado_97090" data-name="Trazado 97090" d="M606.186,1074.418a.6.6,0,1,0-.587.608A.6.6,0,0,0,606.186,1074.418Z" transform="translate(-597.875 -1063.175)" fill="#060633"/>
            <path id="Trazado_97091" data-name="Trazado 97091" d="M623.406,1090.248s-.787-.568-1.089-.473a.892.892,0,0,0-.458.469.69.69,0,0,0-.566-.355c-.372.007-1.141,1.032-1.141,1.032s1.11,1.6,2.228,1.359c1.138-.246,1.014-1.948,1.014-1.948Z" transform="translate(-610.16 -1076.085)" fill="#fa7267"/>
            <path id="Trazado_97092" data-name="Trazado 97092" d="M600.247,1068a.248.248,0,0,1-.213-.416,2.982,2.982,0,0,1,1.813-.829.248.248,0,0,1,.268.227.254.254,0,0,1-.227.268,2.486,2.486,0,0,0-1.491.673A.247.247,0,0,1,600.247,1068Z" transform="translate(-593.805 -1057.442)" fill="#060633"/>
            <path id="Trazado_97093" data-name="Trazado 97093" d="M630.547,1060.352a.249.249,0,0,1-.109-.455,2.953,2.953,0,0,1,1.957-.377.249.249,0,1,1-.077.491,2.474,2.474,0,0,0-1.607.3A.248.248,0,0,1,630.547,1060.352Z" transform="translate(-618.402 -1051.552)" fill="#060633"/>
            <path id="Trazado_97094" data-name="Trazado 97094" d="M624.219,1073.455a1.064,1.064,0,0,0,.849-1.047.208.208,0,0,0-.063-.141,3.091,3.091,0,0,1-.782-1.84.209.209,0,0,0-.418.02,3.513,3.513,0,0,0,.84,2.052c-.022.169-.149.555-.82.6a.209.209,0,1,0,.027.417A1.86,1.86,0,0,0,624.219,1073.455Z" transform="translate(-612.977 -1060.255)" fill="#ea6868"/>
            <path id="Trazado_97095" data-name="Trazado 97095" d="M623.406,1092.314l-3.253.673a3.9,3.9,0,0,0,2.1.667C623.136,1093.521,623.406,1092.314,623.406,1092.314Z" transform="translate(-610.16 -1078.151)" fill="#fafafc"/>
          </g>
          <g id="Grupo_46675" data-name="Grupo 46675" transform="translate(10.022 51.662)">
            <path id="Trazado_97096" data-name="Trazado 97096" d="M543.8,1288.271s2.74,3.845,2.462,4.738-1.453,3.408-1.544,3.851a21.742,21.742,0,0,1-.278,3.193c-.242.37-.826-2.554-.826-2.554s.148,2.564-.3,2.725-.843-2.575-.843-2.575.232,2.593-.205,2.609-.7-2.5-.7-2.5.152,2.017-.2,2.021-1.119-3.295-.44-4.454c1.606-2.74,1.134-4.205,1.134-4.205Z" transform="translate(-540.665 -1288.271)" fill="#fb9391"/>
            <path id="Trazado_97097" data-name="Trazado 97097" d="M565.84,1302.87a11.576,11.576,0,0,1,1.378,3.156c.017.871.267,2.638-.106,2.633s-.882-2.452-1.151-2.555-.274-1.21-.274-1.21Z" transform="translate(-560.939 -1300.099)" fill="#fb9391"/>
          </g>
          <path id="Trazado_97098" data-name="Trazado 97098" d="M584.995,1207.131c-3.035,0-4.3-3.034-4.312-3.064a.112.112,0,1,1,.208-.084c.012.029,1.223,2.924,4.1,2.924a4.513,4.513,0,0,0,4.017-2.124.112.112,0,0,1,.2.1A4.75,4.75,0,0,1,584.995,1207.131Z" transform="translate(-563.059 -1168.259)" fill="#7c9af2"/>
          <path id="Trazado_97099" data-name="Trazado 97099" d="M666.663,1183.34a.113.113,0,0,1-.112-.1,6.438,6.438,0,0,0-1.831-3.522.112.112,0,1,1,.154-.164,6.545,6.545,0,0,1,1.9,3.66.113.113,0,0,1-.1.125Z" transform="translate(-631.127 -1148.499)" fill="#7c9af2"/>
          <path id="Trazado_97100" data-name="Trazado 97100" d="M620.109,1280.182a1.979,1.979,0,1,1,1.979-1.98A1.982,1.982,0,0,1,620.109,1280.182Zm0-3.06a1.08,1.08,0,1,0,1.08,1.08A1.082,1.082,0,0,0,620.109,1277.122Z" transform="translate(-593.407 -1226.847)" fill="#bdd1f9"/>
        </g>
        <path id="Trazado_97101" data-name="Trazado 97101" d="M771.781,1126.279c.14-.2,2.3-3.279,2.3-3.279l2.7,3.8-3.647,3.275Z" transform="translate(-717.899 -1102.702)" fill="#fb9391"/>
        <path id="Trazado_97102" data-name="Trazado 97102" d="M764.181,1124.437a5.862,5.862,0,0,1,.435-3.089c.673-1.009,2.018-3.587,2.41-2.746s-.726,3.212-.673,3.839,2.471,2.571-.446,4.775S764.181,1124.437,764.181,1124.437Z" transform="translate(-711.547 -1099.003)" fill="#fb9391"/>
      </g>
      <g id="Grupo_46680" data-name="Grupo 46680" transform="translate(743.073 335.572)">
        <path id="Trazado_97103" data-name="Trazado 97103" d="M2031.666,806.8s-.724,5.068,1.086,7.6,5.551,6.154,4.586,7.12-11.705-4.465-11.464-5.671,1.931-6.155,1.569-9.05Z" transform="translate(-1989.215 -717.378)" fill="#fb9391"/>
        <path id="Trazado_97104" data-name="Trazado 97104" d="M2026.524,841.575c-.3,1.117-.565,2.022-.651,2.452-.242,1.207,10.5,6.637,11.464,5.672.716-.716-1.156-2.892-2.911-5C2033.44,845.317,2030.939,845.977,2026.524,841.575Z" transform="translate(-1989.215 -745.549)" fill="#060633"/>
        <path id="Trazado_97105" data-name="Trazado 97105" d="M1975.8,811.124s-.724,5.068,1.086,7.6,5.551,6.154,4.586,7.12-11.706-4.465-11.464-5.672,1.931-6.154,1.569-9.05Z" transform="translate(-1943.955 -720.877)" fill="#fb9391"/>
        <path id="Trazado_97106" data-name="Trazado 97106" d="M1870.059,337.539a8.794,8.794,0,0,1,3,8.37c-.5,2.488-2.1,4.842-1.7,7.348a21.722,21.722,0,0,0,.849,2.721,8.566,8.566,0,0,1,.013,4.838,4.94,4.94,0,0,1-1.816,2.766,6.371,6.371,0,0,1-2.146.812,14.831,14.831,0,0,1-4.949.494,6.512,6.512,0,0,1-4.371-2.154c-.711-.866-1.206-2.03-2.256-2.425a3.925,3.925,0,0,0-1.131-.187,16.062,16.062,0,0,0-4.447.118c-1.55.334-3.008,1.128-4.592,1.185a5.029,5.029,0,0,1-2.471-9.5c1.6-.817,3.721-.854,4.77-2.31.88-1.222.6-2.952,1.276-4.3,1.172-2.341,4.482-2.491,6.491-4.169,1.946-1.625,2.838-4.049,5.318-5.089C1864.492,334.969,1867.953,335.824,1870.059,337.539Z" transform="translate(-1839.687 -335.572)" fill="#00223d"/>
        <path id="Trazado_97107" data-name="Trazado 97107" d="M1863.141,592.335s-2.541,12.345,1.506,14.084,17.649,4.8,18.462,7.29,0,22.8,0,22.8l6.472.192s2.023-22.936,1.834-25.161c-.435-5.118-1.85-6.4-1.85-6.4a9.739,9.739,0,0,1,3.819,6.316c.361,1.963.367,23.169.367,23.169l6.469.19s4.432-28.316-.515-32.208-18.5-9.533-18.5-9.533Z" transform="translate(-1856.73 -543.608)" fill="#167377"/>
        <path id="Trazado_97108" data-name="Trazado 97108" d="M1974.614,503.763l2.977,12.008-4.666,1.126a41.345,41.345,0,0,1-4.1-10.156C1967.775,501.854,1974.614,503.763,1974.614,503.763Z" transform="translate(-1942.905 -471.547)" fill="#fb9391"/>
        <path id="Trazado_97109" data-name="Trazado 97109" d="M1856.445,435.028s5.189,1.207,7.482,4.223,3.741,9.533,3.741,9.533l-4.948,1.569s-.241,3.62-2.534,4.586c0,0-1.448,5.672,0,10.5,0,0-12.188,3.62-19.67,0l-.6-16.411-4.585-1.931s2.414-10.5,8.085-12.067S1853.322,433.942,1856.445,435.028Z" transform="translate(-1834.833 -415.341)" fill="#fff"/>
        <path id="Trazado_97110" data-name="Trazado 97110" d="M1834.311,505.331l6.326,2.5s-1.505,5.162-1.021,7.783c.77,4.175,6.547,8.4,9.383,8.221l-.129,2.5s-14.086-.891-15.654-8.8S1834.311,505.331,1834.311,505.331Z" transform="translate(-1832.721 -473.115)" fill="#fb9391"/>
        <path id="Trazado_97111" data-name="Trazado 97111" d="M1972.874,502.536h0a.083.083,0,0,1-.082-.086,8.79,8.79,0,0,0-1.494-3.993.084.084,0,0,1,.138-.094,8.772,8.772,0,0,1,1.523,4.092A.084.084,0,0,1,1972.874,502.536Z" transform="translate(-1944.987 -467.44)" fill="#485f73"/>
        <path id="Trazado_97112" data-name="Trazado 97112" d="M1895.409,522.594a6.9,6.9,0,0,1-4.536-1.86.084.084,0,1,1,.109-.127c4.064,3.477,7.523.908,7.558.881a.084.084,0,0,1,.1.133A5.785,5.785,0,0,1,1895.409,522.594Z" transform="translate(-1879.813 -485.477)" fill="#485f73"/>
        <path id="Trazado_97113" data-name="Trazado 97113" d="M1874.914,493.777a.086.086,0,0,1-.028,0l-.839-.3a.084.084,0,1,1,.056-.157l.757.272,1.85-6.01a.083.083,0,0,1,.1-.055.084.084,0,0,1,.055.1l-1.876,6.094a.083.083,0,0,1-.08.059Z" transform="translate(-1866.16 -458.681)" fill="#485f73"/>
        <path id="Trazado_97114" data-name="Trazado 97114" d="M1988.624,401.65s.779-.562,1.057-.109c.707,1.155-.765,1.779-1.516,1.75Z" transform="translate(-1958.666 -388.879)" fill="#ea6868"/>
        <path id="Trazado_97115" data-name="Trazado 97115" d="M1937.153,341.213a6.532,6.532,0,0,0-8.411,6.639,28.223,28.223,0,0,0,.486,6,6.5,6.5,0,0,1-.568,4.727l-.317.577a1.323,1.323,0,0,0,.3,1.638,4.737,4.737,0,0,0,3.468,1.383,1.283,1.283,0,0,0,1.1-.828l1.109-2.942h0c4.02.991,6.183-6.3,6.974-8.4h-.006c.033-.078.065-.155.095-.235A6.533,6.533,0,0,0,1937.153,341.213Z" transform="translate(-1910.065 -339.917)" fill="#fb9391"/>
        <path id="Trazado_97116" data-name="Trazado 97116" d="M1932.1,344.872a27.856,27.856,0,0,0-2.977,1.688,7.058,7.058,0,0,0-2.67,2.385,8.421,8.421,0,0,1-1.03-3.819,6.146,6.146,0,0,1,.05-1.844,6.828,6.828,0,0,1,1.194-2.316,7.131,7.131,0,0,1,2.317-2.421,5.431,5.431,0,0,1,2.159-.539,9.19,9.19,0,0,1,5.063.993,6.618,6.618,0,0,1,3.244,3.924c.6,2.163-.1,4.451-.8,6.585a6.608,6.608,0,0,0-.48-2.809,5.6,5.6,0,0,0-.77-1.694,27.466,27.466,0,0,1-2.021-2.377A7.734,7.734,0,0,1,1932.1,344.872Z" transform="translate(-1907.791 -337.521)" fill="#00223d"/>
        <path id="Trazado_97117" data-name="Trazado 97117" d="M1926.824,385.019a.971.971,0,0,0-.313-.611,1.637,1.637,0,0,0-1.737-.477c-1.034.468-.274,3.028,1.592,2.6C1926.366,386.533,1926.953,386.267,1926.824,385.019Z" transform="translate(-1906.928 -374.668)" fill="#fb9391"/>
        <path id="Trazado_97118" data-name="Trazado 97118" d="M1981.93,400.654a.57.57,0,1,0-.763.26A.57.57,0,0,0,1981.93,400.654Z" transform="translate(-1952.737 -387.637)" fill="#050521"/>
        <path id="Trazado_97119" data-name="Trazado 97119" d="M1954.527,391.907a.57.57,0,1,0-.763.26A.57.57,0,0,0,1954.527,391.907Z" transform="translate(-1930.534 -380.551)" fill="#050521"/>
        <path id="Trazado_97120" data-name="Trazado 97120" d="M1958.623,415.473s-.354-.484-.656-.5a.848.848,0,0,0-.56.277.66.66,0,0,0-.4-.5,8.212,8.212,0,0,0-1.366-.151s.423,1.715,1.511,1.781a1.43,1.43,0,0,0,1.438-.869Z" transform="translate(-1932.317 -399.607)" fill="#dd4e4e"/>
        <path id="Trazado_97121" data-name="Trazado 97121" d="M1956.334,414.422a3.374,3.374,0,0,1-2.1-1.345.08.08,0,1,1,.132-.091c.056.081,1.393,1.964,3.131,1.03a.08.08,0,0,1,.076.141A2.132,2.132,0,0,1,1956.334,414.422Z" transform="translate(-1931.159 -398.267)" fill="#050521"/>
        <path id="Trazado_97122" data-name="Trazado 97122" d="M1950.811,386.842a.237.237,0,0,1,.029-.445,2.846,2.846,0,0,1,1.89.211.238.238,0,0,1,.109.317.243.243,0,0,1-.317.108,2.369,2.369,0,0,0-1.55-.181A.238.238,0,0,1,1950.811,386.842Z" transform="translate(-1928.286 -376.692)" fill="#0b0755"/>
        <path id="Trazado_97123" data-name="Trazado 97123" d="M1980.588,394.784a.237.237,0,0,1,.109-.432,2.815,2.815,0,0,1,1.821.547.237.237,0,1,1-.282.381,2.359,2.359,0,0,0-1.492-.456A.235.235,0,0,1,1980.588,394.784Z" transform="translate(-1952.442 -383.192)" fill="#0b0755"/>
        <path id="Trazado_97124" data-name="Trazado 97124" d="M1964.911,397.856a1.406,1.406,0,0,1-.56-.13.084.084,0,0,1,.067-.154c.744.323,1.059-.12,1.129-.24a3.2,3.2,0,0,1,.16-2.076.084.084,0,0,1,.153.07,3.063,3.063,0,0,0-.142,1.987.083.083,0,0,1,0,.062A.9.9,0,0,1,1964.911,397.856Z" transform="translate(-1939.33 -383.891)" fill="#ea6868"/>
        <path id="Trazado_97125" data-name="Trazado 97125" d="M1917.818,602.872a3.075,3.075,0,0,0,1.38.424c.774.034,3.061-.175,3.431-.121a18.015,18.015,0,0,0,2.563.68c.355-.085-1.756-1.359-1.756-1.359s1.954.834,2.2.532-1.768-1.379-1.768-1.379,1.985.605,2.119.269-1.783-.942-1.783-.942,1.816.269,1.917,0-2.523-1.245-3.633-1.177-4.547.57-4.547.57Z" transform="translate(-1901.669 -549.652)" fill="#fb9391"/>
        <path id="Trazado_97126" data-name="Trazado 97126" d="M1970.662,845.895c-.295,1.117-.565,2.022-.65,2.452-.241,1.207,10.5,6.637,11.464,5.672.716-.716-1.157-2.892-2.911-5C1977.578,849.636,1975.077,850.3,1970.662,845.895Z" transform="translate(-1943.955 -749.05)" fill="#060633"/>
        <g id="Grupo_46678" data-name="Grupo 46678" transform="translate(11.114 40.809)">
          <path id="Trazado_97127" data-name="Trazado 97127" d="M1973.654,552.488l-21.277-1.875-8.043,14.979,21.276,1.875Z" transform="translate(-1934.267 -550.612)" fill="#060633"/>
          <rect id="Rectángulo_28398" data-name="Rectángulo 28398" width="14.3" height="0.945" transform="translate(0.083 13.15) rotate(5.037)" fill="#060633"/>
        </g>
        <g id="Grupo_46679" data-name="Grupo 46679" transform="translate(19.338 9.04)">
          <path id="Trazado_97128" data-name="Trazado 97128" d="M1946.408,386.844a1.921,1.921,0,1,1,2.726-1.247h0a1.924,1.924,0,0,1-2.726,1.247Zm1.67-3.33a1.8,1.8,0,1,0,.941,2.054h0A1.806,1.806,0,0,0,1948.078,383.515Z" transform="translate(-1943.313 -383.206)" fill="#060633"/>
          <path id="Trazado_97129" data-name="Trazado 97129" d="M1974.783,395.334a1.922,1.922,0,1,1,2.726-1.247h0a1.921,1.921,0,0,1-2.333,1.393A1.941,1.941,0,0,1,1974.783,395.334Zm1.674-3.329a1.836,1.836,0,0,0-.369-.137,1.8,1.8,0,1,0,1.307,2.19h0a1.806,1.806,0,0,0-.938-2.053Z" transform="translate(-1966.304 -390.084)" fill="#060633"/>
          <path id="Trazado_97130" data-name="Trazado 97130" d="M1934.621,385.393l.042-.11,2.181.821-.041.11Z" transform="translate(-1934.621 -384.889)" fill="#060633"/>
          <path id="Trazado_97131" data-name="Trazado 97131" d="M1964.544,396.424l-.03-.113a1.692,1.692,0,0,1,1.9.545l-.1.064A1.551,1.551,0,0,0,1964.544,396.424Z" transform="translate(-1958.841 -393.757)" fill="#060633"/>
        </g>
        <path id="Trazado_97132" data-name="Trazado 97132" d="M2023.711,591.531a.694.694,0,1,1,.468.93A.739.739,0,0,1,2023.711,591.531Z" transform="translate(-1987.443 -542.47)" fill="#fff"/>
      </g>
      <g id="Grupo_46681" data-name="Grupo 46681" transform="translate(541.949 454.204)">
        <rect id="Rectángulo_28399" data-name="Rectángulo 28399" width="21.389" height="110.489" transform="translate(0 21.005)" fill="#7d6eb2"/>
        <rect id="Rectángulo_28400" data-name="Rectángulo 28400" width="7.77" height="110.671" transform="translate(7.072 21.005)" fill="#6756a3"/>
        <path id="Trazado_97133" data-name="Trazado 97133" d="M783.866,960.7,772.909,981.7H794.3Z" transform="translate(-772.909 -960.696)" fill="#fff"/>
        <path id="Trazado_97134" data-name="Trazado 97134" d="M807.256,960.7l-5.478,10.5h10.694Z" transform="translate(-796.299 -960.696)" fill="#00223d"/>
        <rect id="Rectángulo_28401" data-name="Rectángulo 28401" width="21.389" height="12.081" transform="translate(0 130.61)" fill="#00223d"/>
        <rect id="Rectángulo_28402" data-name="Rectángulo 28402" width="21.389" height="5.142" transform="translate(0 126.351)" fill="#fff"/>
      </g>
      <g id="Grupo_46688" data-name="Grupo 46688" transform="translate(591.341 381.602)">
        <rect id="Rectángulo_28403" data-name="Rectángulo 28403" width="137.687" height="177.506" transform="translate(0)" fill="#fff"/>
        <rect id="Rectángulo_28404" data-name="Rectángulo 28404" width="137.687" height="13.024" transform="translate(0)" fill="#12263f"/>
        <g id="Grupo_46682" data-name="Grupo 46682" transform="translate(5.568 4.877)">
          <path id="Trazado_97135" data-name="Trazado 97135" d="M1062.52,605.377a1.557,1.557,0,1,1,1.557,1.557A1.557,1.557,0,0,1,1062.52,605.377Z" transform="translate(-1062.52 -603.82)" fill="#dde7fe"/>
          <path id="Trazado_97136" data-name="Trazado 97136" d="M1096.958,605.377a1.557,1.557,0,1,1,1.557,1.557A1.557,1.557,0,0,1,1096.958,605.377Z" transform="translate(-1090.422 -603.82)" fill="#dde7fe"/>
          <path id="Trazado_97137" data-name="Trazado 97137" d="M1131.4,605.377a1.557,1.557,0,1,1,1.557,1.557A1.557,1.557,0,0,1,1131.4,605.377Z" transform="translate(-1118.325 -603.82)" fill="#dde7fe"/>
        </g>
        <g id="Grupo_46684" data-name="Grupo 46684" transform="translate(10.912 23.358)">
          <rect id="Rectángulo_28405" data-name="Rectángulo 28405" width="39.03" height="39.03" fill="url(#linear-gradient)"/>
          <g id="Grupo_46683" data-name="Grupo 46683" transform="translate(2.931 7.82)">
            <path id="Trazado_97138" data-name="Trazado 97138" d="M1106.125,794.64l11.529-20.784,8.476,11.562,4.233-4.627,8.97,13.849Z" transform="translate(-1106.125 -767.889)" fill="#fff"/>
            <path id="Trazado_97139" data-name="Trazado 97139" d="M1195.821,745.4a2.983,2.983,0,1,1,2.983,2.983A2.984,2.984,0,0,1,1195.821,745.4Z" transform="translate(-1178.799 -742.414)" fill="#fff"/>
          </g>
        </g>
        <rect id="Rectángulo_28406" data-name="Rectángulo 28406" width="27.719" height="4.182" transform="translate(98.024 23.317)" fill="#7d6eb2"/>
        <rect id="Rectángulo_28407" data-name="Rectángulo 28407" width="33.995" height="4.182" transform="translate(59.079 23.317)" fill="#7d6eb2"/>
        <g id="Grupo_46685" data-name="Grupo 46685" transform="translate(59.079 35.71)">
          <rect id="Rectángulo_28408" data-name="Rectángulo 28408" width="39.621" height="1.912" fill="#f1f1f1"/>
          <rect id="Rectángulo_28409" data-name="Rectángulo 28409" width="11.866" height="1.912" transform="translate(42.09)" fill="#f1f1f1"/>
          <rect id="Rectángulo_28410" data-name="Rectángulo 28410" width="16.14" height="1.912" transform="translate(0 5.929)" fill="#f1f1f1"/>
          <rect id="Rectángulo_28411" data-name="Rectángulo 28411" width="21.408" height="1.912" transform="translate(17.777 5.929)" fill="#f1f1f1"/>
          <rect id="Rectángulo_28412" data-name="Rectángulo 28412" width="11.866" height="1.912" transform="translate(42.09 5.929)" fill="#f1f1f1"/>
          <rect id="Rectángulo_28413" data-name="Rectángulo 28413" width="21.218" height="1.912" transform="translate(0 11.056)" fill="#f1f1f1"/>
          <rect id="Rectángulo_28414" data-name="Rectángulo 28414" width="33.487" height="1.912" transform="translate(24.597 11.056)" fill="#f1f1f1"/>
        </g>
        <g id="Grupo_46686" data-name="Grupo 46686" transform="translate(59.079 54.547)">
          <rect id="Rectángulo_28415" data-name="Rectángulo 28415" width="39.621" height="1.912" fill="#f1f1f1"/>
          <rect id="Rectángulo_28416" data-name="Rectángulo 28416" width="11.866" height="1.912" transform="translate(42.09)" fill="#f1f1f1"/>
          <rect id="Rectángulo_28417" data-name="Rectángulo 28417" width="16.14" height="1.912" transform="translate(0 5.929)" fill="#f1f1f1"/>
          <rect id="Rectángulo_28418" data-name="Rectángulo 28418" width="21.408" height="1.912" transform="translate(17.777 5.929)" fill="#f1f1f1"/>
        </g>
        <g id="Grupo_46687" data-name="Grupo 46687" transform="translate(10.595 84.109)">
          <rect id="Rectángulo_28419" data-name="Rectángulo 28419" width="66.144" height="2.522" fill="#f1f1f1"/>
          <rect id="Rectángulo_28420" data-name="Rectángulo 28420" width="19.81" height="2.522" transform="translate(70.266)" fill="#f1f1f1"/>
          <rect id="Rectángulo_28421" data-name="Rectángulo 28421" width="26.944" height="2.522" transform="translate(0 7.82)" fill="#f1f1f1"/>
          <rect id="Rectángulo_28422" data-name="Rectángulo 28422" width="35.739" height="2.522" transform="translate(29.677 7.82)" fill="#f1f1f1"/>
          <rect id="Rectángulo_28423" data-name="Rectángulo 28423" width="19.81" height="2.522" transform="translate(70.266 7.82)" fill="#f1f1f1"/>
          <rect id="Rectángulo_28424" data-name="Rectángulo 28424" width="35.422" height="2.522" transform="translate(0 14.581)" fill="#f1f1f1"/>
          <rect id="Rectángulo_28425" data-name="Rectángulo 28425" width="55.904" height="2.522" transform="translate(41.063 14.581)" fill="#f1f1f1"/>
        </g>
        <rect id="Rectángulo_28426" data-name="Rectángulo 28426" width="100.833" height="58.446" transform="translate(12.202 108.221)" fill="url(#linear-gradient)"/>
        <path id="Trazado_97140" data-name="Trazado 97140" d="M1303.186,1223.484v29.945l22.757-14.972Z" transform="translate(-1251.946 -1101.012)" fill="#12263f"/>
        <rect id="Rectángulo_28427" data-name="Rectángulo 28427" width="40.757" height="3.483" transform="translate(10.901 73.483)" fill="#00223d"/>
        <rect id="Rectángulo_28428" data-name="Rectángulo 28428" width="32.047" height="3.483" transform="translate(56.477 73.483)" fill="#00223d"/>
      </g>
      <g id="Grupo_46689" data-name="Grupo 46689" transform="translate(761.38 449.155)">
        <rect id="Rectángulo_28429" data-name="Rectángulo 28429" width="38.085" height="1.703" fill="#bdd1f9"/>
        <rect id="Rectángulo_28430" data-name="Rectángulo 28430" width="16.578" height="1.703" transform="translate(0 5.653)" fill="#bdd1f9"/>
        <rect id="Rectángulo_28431" data-name="Rectángulo 28431" width="19.043" height="1.703" transform="translate(19.043 5.653)" fill="#bdd1f9"/>
        <rect id="Rectángulo_28432" data-name="Rectángulo 28432" width="22.965" height="1.703" transform="translate(0 10.751)" fill="#bdd1f9"/>
        <rect id="Rectángulo_28433" data-name="Rectángulo 28433" width="12.432" height="1.703" transform="translate(25.653 10.751)" fill="#bdd1f9"/>
        <rect id="Rectángulo_28434" data-name="Rectángulo 28434" width="17.442" height="1.703" transform="translate(0 16.374)" fill="#bdd1f9"/>
        <rect id="Rectángulo_28435" data-name="Rectángulo 28435" width="16.19" height="1.703" transform="translate(21.895 16.374)" fill="#bdd1f9"/>
      </g>
      <g id="Grupo_46690" data-name="Grupo 46690" transform="translate(748.696 480.785)">
        <rect id="Rectángulo_28436" data-name="Rectángulo 28436" width="50.769" height="1.703" fill="#bdd1f9"/>
        <rect id="Rectángulo_28437" data-name="Rectángulo 28437" width="22.1" height="1.703" transform="translate(0 5.653)" fill="#bdd1f9"/>
        <rect id="Rectángulo_28438" data-name="Rectángulo 28438" width="25.384" height="1.703" transform="translate(25.384 5.653)" fill="#bdd1f9"/>
        <rect id="Rectángulo_28439" data-name="Rectángulo 28439" width="30.614" height="1.703" transform="translate(0 10.751)" fill="#bdd1f9"/>
        <rect id="Rectángulo_28440" data-name="Rectángulo 28440" width="16.572" height="1.703" transform="translate(34.196 10.751)" fill="#bdd1f9"/>
        <rect id="Rectángulo_28441" data-name="Rectángulo 28441" width="23.251" height="1.703" transform="translate(0 16.374)" fill="#bdd1f9"/>
        <rect id="Rectángulo_28442" data-name="Rectángulo 28442" width="21.582" height="1.703" transform="translate(29.187 16.374)" fill="#bdd1f9"/>
      </g>
      <g id="Grupo_46691" data-name="Grupo 46691" transform="translate(703.919 437.669)">
        <path id="Trazado_97141" data-name="Trazado 97141" d="M1676.623,896.751c0-12.805-11.241-23.186-25.108-23.186s-25.109,10.381-25.109,23.186a22.208,22.208,0,0,0,6.951,16.013,19.989,19.989,0,0,1,6.144,14.362h0a7.948,7.948,0,0,0,7.948,7.948h8.131a7.948,7.948,0,0,0,7.948-7.948h0a19.989,19.989,0,0,1,6.144-14.362A22.208,22.208,0,0,0,1676.623,896.751Z" transform="translate(-1626.406 -873.565)" fill="#f6c343"/>
        <path id="Trazado_97142" data-name="Trazado 97142" d="M1780.645,1019.792a.3.3,0,0,1-.3-.28c-.138-2.584,3.78-42.966,3.947-44.684a.3.3,0,0,1,.589.057c-.041.42-4.081,42.055-3.944,44.595a.3.3,0,0,1-.279.311Z" transform="translate(-1751.132 -955.395)" fill="#060633"/>
        <path id="Trazado_97143" data-name="Trazado 97143" d="M1716.218,1019.793h-.016a.3.3,0,0,1-.279-.311c.137-2.54-3.9-44.175-3.944-44.595a.3.3,0,0,1,.589-.057c.167,1.718,4.085,42.1,3.946,44.684A.3.3,0,0,1,1716.218,1019.793Z" transform="translate(-1695.738 -955.396)" fill="#060633"/>
        <path id="Trazado_97144" data-name="Trazado 97144" d="M1722.591,990.979a3.661,3.661,0,0,1-2.216-.782,2.469,2.469,0,0,1-1.665.5,2.919,2.919,0,0,1-2.164-1.538,23.618,23.618,0,0,1-1.338-4.264.148.148,0,1,1,.289-.061,23.563,23.563,0,0,0,1.3,4.176,2.626,2.626,0,0,0,1.935,1.393,2.161,2.161,0,0,0,1.405-.4l0,0a5.672,5.672,0,0,1-1.631-3.368,4.45,4.45,0,0,1,.468-3.068,1.793,1.793,0,0,1,.81-.745,1.73,1.73,0,0,1,2.06.962,4.36,4.36,0,0,1,.254,2.319,7.28,7.28,0,0,1-.752,3.023,3.462,3.462,0,0,1-.732.887,3.106,3.106,0,0,0,3.005.473,2.81,2.81,0,0,0,1.037-.78,2.194,2.194,0,0,1-.858-.921,3.6,3.6,0,0,1-.284-1.376,12.588,12.588,0,0,1,.443-4.05.149.149,0,0,1,.1-.1,1.107,1.107,0,0,1,1.173.451,2.71,2.71,0,0,1,.42,1.139,8.136,8.136,0,0,1,.087,3.305,4.223,4.223,0,0,1-.63,1.453,2.449,2.449,0,0,0,1.664.09,2.861,2.861,0,0,0,.852-.435,4.393,4.393,0,0,1-.439-.9,8.986,8.986,0,0,1,.178-6.493.148.148,0,0,1,.087-.082,1.463,1.463,0,0,1,1.63.676,3.565,3.565,0,0,1,.452,1.7,8.181,8.181,0,0,1-.323,3.387,4.263,4.263,0,0,1-1.178,1.762,1.5,1.5,0,0,0,1.026.616,1.541,1.541,0,0,0,.881-.227,2.15,2.15,0,0,0,1-2.127.148.148,0,1,1,.292-.047,2.423,2.423,0,0,1-1.145,2.429,1.8,1.8,0,0,1-1.055.266,1.777,1.777,0,0,1-1.235-.723,3.157,3.157,0,0,1-.938.479,2.749,2.749,0,0,1-1.931-.133,3.127,3.127,0,0,1-1.188.911A2.925,2.925,0,0,1,1722.591,990.979Zm-2.316-7.963a.983.983,0,0,0-.378.074,1.509,1.509,0,0,0-.672.629,4.223,4.223,0,0,0-.426,2.868,5.382,5.382,0,0,0,1.539,3.193l.045.04a3.186,3.186,0,0,0,.708-.845,7.027,7.027,0,0,0,.714-2.9,4.122,4.122,0,0,0-.224-2.164A1.575,1.575,0,0,0,1720.275,983.016Zm3.944.5a12.3,12.3,0,0,0-.41,3.872,3.338,3.338,0,0,0,.256,1.264,1.916,1.916,0,0,0,.772.815,3.911,3.911,0,0,0,.608-1.386,7.866,7.866,0,0,0-.089-3.183,2.472,2.472,0,0,0-.366-1.019A.861.861,0,0,0,1724.219,983.517Zm3.385-1.473a8.691,8.691,0,0,0-.145,6.214,4.07,4.07,0,0,0,.395.81,3.976,3.976,0,0,0,1.073-1.622,7.9,7.9,0,0,0,.306-3.264,3.314,3.314,0,0,0-.4-1.563A1.206,1.206,0,0,0,1727.6,982.044Z" transform="translate(-1698.353 -961.195)" fill="#060633"/>
        <path id="Rectángulo_28443" data-name="Rectángulo 28443" d="M0,0H20.183a0,0,0,0,1,0,0V0a5.767,5.767,0,0,1-5.767,5.767H5.766A5.766,5.766,0,0,1,0,0V0A0,0,0,0,1,0,0Z" transform="translate(15.017 68.478)" fill="url(#linear-gradient)"/>
        <path id="Trazado_97145" data-name="Trazado 97145" d="M1710.2,1225.4a41.365,41.365,0,0,1-11.569-1.8,1.922,1.922,0,1,1,1.193-3.654c.177.057,11.147,3.537,18.006.108a1.922,1.922,0,1,1,1.719,3.438A21.033,21.033,0,0,1,1710.2,1225.4Z" transform="translate(-1683.851 -1154.129)" fill="#00223d"/>
        <path id="Trazado_97146" data-name="Trazado 97146" d="M1710.2,1208.936a41.376,41.376,0,0,1-11.569-1.8,1.922,1.922,0,0,1,1.193-3.654c.177.057,11.147,3.537,18.006.108a1.922,1.922,0,1,1,1.719,3.439A21.038,21.038,0,0,1,1710.2,1208.936Z" transform="translate(-1683.851 -1140.792)" fill="url(#linear-gradient)"/>
        <path id="Trazado_97147" data-name="Trazado 97147" d="M1710.2,1192.478a41.356,41.356,0,0,1-11.569-1.8,1.922,1.922,0,0,1,1.193-3.654c.177.057,11.147,3.537,18.006.108a1.922,1.922,0,1,1,1.719,3.438A21.033,21.033,0,0,1,1710.2,1192.478Z" transform="translate(-1683.851 -1127.457)" fill="#00223d"/>
      </g>
      <g id="Grupo_46692" data-name="Grupo 46692" transform="translate(743.313 495.812)">
        <path id="Trazado_97148" data-name="Trazado 97148" d="M2044.582,1586.66s8.286,3.67,10.18,4.143,8.05-.355,4.972-4.143-5.682-1.776-11.246-4.617S2044.582,1586.66,2044.582,1586.66Z" transform="translate(-2004.429 -1505.213)" fill="#fff"/>
        <path id="Trazado_97149" data-name="Trazado 97149" d="M1853.221,1495.734s-15.715-3.462-18.822,5.416,12.219,13.034,15.063,13.673,9.381,1.184,10.861,1.657,6.984.947,7.754,1.3,8.7,2.19,8.7,2.19l5.919-8.109-6.155-5.243-2.626-9.654Z" transform="translate(-1833.985 -1435.268)" fill="#aee6e6"/>
        <path id="Trazado_97150" data-name="Trazado 97150" d="M1879.469,1303.431s12.785-.71,19,8.346,11.009,17.224,2.486,25.036-20.42,3.906-20.42,3.906l-15.8.976s-16.336-1.154-12.429-16.425S1865.737,1303.786,1879.469,1303.431Z" transform="translate(-1848.337 -1279.987)" fill="#fff"/>
        <path id="Rectángulo_28444" data-name="Rectángulo 28444" d="M4.058,0H26.4a4.057,4.057,0,0,1,4.057,4.057V17.606A4.057,4.057,0,0,1,26.4,21.663H4.058A4.058,4.058,0,0,1,0,17.605V4.058A4.058,4.058,0,0,1,4.058,0Z" transform="translate(15.477 41.201)" fill="#060633"/>
        <path id="Trazado_97151" data-name="Trazado 97151" d="M1886.686,1596.652s-8.286,3.669-10.18,4.143-8.05-.355-4.972-4.143,5.682-1.776,11.246-4.617S1886.686,1596.652,1886.686,1596.652Z" transform="translate(-1863.722 -1513.309)" fill="#fff"/>
        <path id="Trazado_97152" data-name="Trazado 97152" d="M2043.912,1420.5a.1.1,0,0,1-.077-.035.1.1,0,0,1,.009-.145c6.8-6,11.01-5.3,11.185-5.262a.1.1,0,0,1-.038.2c-.041-.007-4.3-.713-11.011,5.214A.1.1,0,0,1,2043.912,1420.5Z" transform="translate(-2003.99 -1370.405)" fill="#060633"/>
        <path id="Trazado_97153" data-name="Trazado 97153" d="M1898.576,1418.394a.1.1,0,0,1-.073-.03c-4.278-4.278-10.8-5.729-10.869-5.743a.1.1,0,0,1-.079-.122.1.1,0,0,1,.123-.079c.066.014,6.649,1.477,10.971,5.8a.1.1,0,0,1,0,.146A.1.1,0,0,1,1898.576,1418.394Z" transform="translate(-1877.387 -1368.301)" fill="#060633"/>
        <path id="Trazado_97154" data-name="Trazado 97154" d="M2051.058,1382.165a.1.1,0,0,1-.1-.082l-1.066-5.1a.1.1,0,0,1,.081-.122.1.1,0,0,1,.122.079l1.066,5.1a.1.1,0,0,1-.081.122Z" transform="translate(-2008.916 -1339.491)" fill="#060633"/>
        <path id="Trazado_97155" data-name="Trazado 97155" d="M1929.292,1385.849h-.008a.1.1,0,0,1-.094-.111l.444-5.5a.106.106,0,0,1,.111-.094.1.1,0,0,1,.094.111l-.444,5.5A.1.1,0,0,1,1929.292,1385.849Z" transform="translate(-1911.122 -1342.148)" fill="#060633"/>
        <path id="Trazado_97156" data-name="Trazado 97156" d="M1918.184,1261.954s-.967-.567-1.239-.011c-.694,1.419.974,1.991,1.843,1.875Z" transform="translate(-1901.068 -1246.185)" fill="#ea6868"/>
        <path id="Trazado_97157" data-name="Trazado 97157" d="M1929.338,1520.207l-.02,0c-.761-.153-2.644-.772-4.306-1.319-.927-.3-1.727-.568-2.169-.7-1.2-.348-6.278-.82-6.329-.825-.105-.021-9.582-1.9-10.637-2.133a.1.1,0,0,1,.045-.2c1.052.234,10.527,2.112,10.622,2.131.2.018,5.133.477,6.356.831.446.129,1.248.393,2.176.7,1.574.518,3.532,1.162,4.281,1.313a.1.1,0,0,1-.02.2Z" transform="translate(-1892.169 -1451.44)" fill="#060633"/>
        <path id="Trazado_97158" data-name="Trazado 97158" d="M1928.042,1210.056a24.012,24.012,0,0,1-2.465-10.377c-.015-1.22-.111-2.587-.231-4.128a7.619,7.619,0,1,0-14.458,3.618c.044.089.09.175.136.262l-.007,0c1.105,2.26,3.453,10.532,8.422,9.187l.681,3.354a9.477,9.477,0,0,0,7.921-1.918Z" transform="translate(-1895.665 -1186.638)" fill="#fb9391"/>
        <path id="Trazado_97159" data-name="Trazado 97159" d="M1928.234,1253.473a.554.554,0,1,1,.741.254A.554.554,0,0,1,1928.234,1253.473Z" transform="translate(-1910.302 -1238.873)" fill="#060633"/>
        <path id="Trazado_97160" data-name="Trazado 97160" d="M1962.914,1244.633a.554.554,0,1,1,.741.254A.554.554,0,0,1,1962.914,1244.633Z" transform="translate(-1938.401 -1231.712)" fill="#060633"/>
        <path id="Trazado_97161" data-name="Trazado 97161" d="M1945.9,1272.671a2.525,2.525,0,0,1-1.215-.323.123.123,0,1,1,.117-.217c1.975,1.067,3.5-1.077,3.568-1.169a.123.123,0,0,1,.2.142A3.782,3.782,0,0,1,1945.9,1272.671Z" transform="translate(-1923.622 -1253.647)" fill="#060633"/>
        <path id="Trazado_97162" data-name="Trazado 97162" d="M1971.032,1212.251l.4,5.416-1.366.36-3.668-5.608Z" transform="translate(-1941.268 -1206.121)" fill="#00223d"/>
        <path id="Trazado_97163" data-name="Trazado 97163" d="M1984.331,1235.726a1.13,1.13,0,0,1,.3-.744,1.909,1.909,0,0,1,1.964-.745c1.252.429.651,3.485-1.562,3.2C1985.03,1237.433,1984.319,1237.189,1984.331,1235.726Z" transform="translate(-1955.8 -1223.873)" fill="#fb9391"/>
        <path id="Trazado_97164" data-name="Trazado 97164" d="M1946.106,1254.141a1.635,1.635,0,0,1-.458-.069.618.618,0,0,1-.407-.261c-.09-.165-.031-.358.042-.6a3.363,3.363,0,0,0-.058-2.319.123.123,0,0,1,.234-.079,3.628,3.628,0,0,1,.06,2.469c-.059.2-.1.34-.062.414a.434.434,0,0,0,.259.142,1.156,1.156,0,0,0,1.326-.429.123.123,0,0,1,.209.131A1.419,1.419,0,0,1,1946.106,1254.141Z" transform="translate(-1924.091 -1237.294)" fill="#ea6868"/>
        <path id="Trazado_97165" data-name="Trazado 97165" d="M1955.982,1238.032a.37.37,0,0,1-.185-.691,3.236,3.236,0,0,1,2.723-.243.37.37,0,0,1-.285.683,2.486,2.486,0,0,0-2.068.2A.369.369,0,0,1,1955.982,1238.032Z" transform="translate(-1932.53 -1226.097)" fill="#060633"/>
        <path id="Trazado_97166" data-name="Trazado 97166" d="M1920.684,1247.884a.37.37,0,0,1-.3-.589,3.455,3.455,0,0,1,2.007-1.349.37.37,0,0,1,.131.729,2.756,2.756,0,0,0-1.541,1.058A.369.369,0,0,1,1920.684,1247.884Z" transform="translate(-1903.931 -1233.417)" fill="#060633"/>
        <path id="Trazado_97167" data-name="Trazado 97167" d="M1917.8,1184.586a1.336,1.336,0,0,0-.632-1.959,1.1,1.1,0,0,1-.3-.12.767.767,0,0,1-.235-.383l-.337-.922a.4.4,0,0,0-.422-.336,2.242,2.242,0,0,0-1.548.219,3.323,3.323,0,0,0-1.873-.67c-.214.015-.425.071-.64.074-.83.013-1.612-.754-2.4-.485a3.568,3.568,0,0,0-.568.311,8.8,8.8,0,0,1-1.8.544,1.756,1.756,0,0,0-1.332,1.2,1.02,1.02,0,0,1-.1.387.651.651,0,0,1-.309.217,6.586,6.586,0,0,0-1.875.911,1.3,1.3,0,0,0-.227,1.842,2.064,2.064,0,0,0-1.018.861,1.324,1.324,0,0,0-.018,1.3.545.545,0,0,1,.108.243c.007.165-.16.274-.293.372a1.576,1.576,0,0,0-.35,2.085,1.618,1.618,0,0,1,.264.426,2.421,2.421,0,0,1,.039.441.959.959,0,0,0,.781.822,1.9,1.9,0,0,0,1.351-.54c.01.189.245.269.434.279a2.593,2.593,0,0,0,2.583-1.961c.675.06,1.511.038,1.825-.563a1.711,1.711,0,0,0,.134-.418q.167-.729.334-1.458c.209-.038.386.167.448.37a3.259,3.259,0,0,0,.16.615c.243.455.892.434,1.4.349a2.521,2.521,0,0,0,.831-.239.855.855,0,0,0,.468-.686,1.422,1.422,0,0,0,1.41.434,8.748,8.748,0,0,0,3.529-1.267c.408-.239.687-.342.759-.856A1.557,1.557,0,0,0,1917.8,1184.586Z" transform="translate(-1888.596 -1179.948)" fill="#00223d"/>
        <path id="Trazado_97168" data-name="Trazado 97168" d="M1949.881,1482.949s10.772-6.392,16.573.592-4.5,12.429-6.984,14.678a15.286,15.286,0,0,1-8.405,4.143,29.518,29.518,0,0,0-7.576,1.894c-3.551,1.184-6.51,2.249-6.865,2.486s-6.156,2.249-6.156,2.249-5.919-5.919-6.037-7.695c0,0,5.8-5.159,7.458-6.664s9.588-3.4,11.009-5.292S1949.881,1482.949,1949.881,1482.949Z" transform="translate(-1907.266 -1423.282)" fill="#aee6e6"/>
        <circle id="Elipse_3892" data-name="Elipse 3892" cx="1.037" cy="1.037" r="1.037" transform="translate(29.666 50.995)" fill="#fff"/>
      </g>
    </g>
  </g>
</svg>
