<svg xmlns="http://www.w3.org/2000/svg" width="440.843" height="212.318" viewBox="0 0 440.843 212.318">
  <g id="Grupo_179443" data-name="Grupo 179443" transform="translate(9310.746 -1290.971)">
    <path id="Trazado_228348" data-name="Trazado 228348" d="M50.781,2.185q-44.75,0-44.75-62.842,0-32.6,12.105-49.688t35.092-17.087q43.7,0,43.7,63.891,0,31.814-11.93,48.771T50.781,2.185ZM52-106.369q-17.917,0-17.917,45.012,0,42.39,17.568,42.39,17.131,0,17.131-43.7T52-106.369ZM113.186-4.108V-28.144q12.586,9.177,29.367,9.177,10.576,0,16.475-4.545t5.9-12.673a14.406,14.406,0,0,0-7.3-12.936q-7.3-4.545-20.059-4.545H125.947V-74.816H136.7q24.473,0,24.473-16.257,0-15.3-18.792-15.3-12.586,0-24.473,8.128v-22.55q13.2-6.643,30.766-6.643,19.229,0,29.935,8.653a27.537,27.537,0,0,1,10.707,22.462q0,24.56-24.91,30.766v.437q13.285,1.661,20.977,9.658a27.231,27.231,0,0,1,7.691,19.622q0,17.568-12.848,27.794T144.738,2.185Q125.335,2.185,113.186-4.108Z" transform="translate(-9316.776 1418.404)" fill="#12263f" opacity="0.089"/>
    <path id="Trazado_228349" data-name="Trazado 228349" d="M0,0H318.472V38.848H0Z" transform="translate(-9188.375 1464.441)" fill="#ece5f7"/>
  </g>
</svg>
