<svg xmlns="http://www.w3.org/2000/svg" width="531.456" height="260.984" viewBox="0 0 531.456 260.984">
  <g id="Grupo_179446" data-name="Grupo 179446" transform="translate(8933.084 -2476.43)">
    <path id="Trazado_228354" data-name="Trazado 228354" d="M50.781,2.185q-44.75,0-44.75-62.842,0-32.6,12.105-49.688t35.092-17.087q43.7,0,43.7,63.891,0,31.814-11.93,48.771T50.781,2.185ZM52-106.369q-17.917,0-17.917,45.012,0,42.39,17.568,42.39,17.131,0,17.131-43.7T52-106.369ZM199.977-41.691a45.943,45.943,0,0,1-3.234,17.306,42.245,42.245,0,0,1-9,13.941A41.653,41.653,0,0,1,174.018-1.18a44.185,44.185,0,0,1-17.393,3.365A43.874,43.874,0,0,1,137.7-1.748a38.2,38.2,0,0,1-14.115-11.406,53.329,53.329,0,0,1-8.828-18.311,90.489,90.489,0,0,1-3.059-24.56,101.118,101.118,0,0,1,3.977-29.323,67.324,67.324,0,0,1,11.362-22.506,51.036,51.036,0,0,1,17.874-14.465,53.15,53.15,0,0,1,23.6-5.113q14.509,0,22.55,3.409v23.074a41.351,41.351,0,0,0-20.8-5.419,29.067,29.067,0,0,0-12.673,2.709,28.013,28.013,0,0,0-9.745,7.691,37.188,37.188,0,0,0-6.38,12.018,53.485,53.485,0,0,0-2.491,15.689h.524q8.915-12.324,26.308-12.324a34.28,34.28,0,0,1,14.072,2.8,30.528,30.528,0,0,1,10.75,7.91,36.286,36.286,0,0,1,6.9,12.28A48.993,48.993,0,0,1,199.977-41.691Zm-27.007,1.748q0-20.19-16.519-20.19a16.208,16.208,0,0,0-6.817,1.4,15.168,15.168,0,0,0-5.244,3.933,17.945,17.945,0,0,0-3.365,5.987,23.532,23.532,0,0,0-1.18,7.648,29.579,29.579,0,0,0,1.224,8.653,22.98,22.98,0,0,0,3.452,7.036,17.1,17.1,0,0,0,5.288,4.763,13.5,13.5,0,0,0,6.817,1.748A14.759,14.759,0,0,0,163.4-20.5a15.167,15.167,0,0,0,5.157-4.283,19.684,19.684,0,0,0,3.278-6.643A30.3,30.3,0,0,0,172.969-39.943Z" transform="translate(-8939.114 2603.862)" fill="#12263f" opacity="0.089"/>
    <path id="Trazado_228355" data-name="Trazado 228355" d="M0,0H405.962V35.234H0Z" transform="translate(-8807.59 2702.179)" fill="#ece5f7"/>
  </g>
</svg>
