<svg xmlns="http://www.w3.org/2000/svg" width="371.632" height="236.318" viewBox="0 0 371.632 236.318">
  <g id="Grupo_179445" data-name="Grupo 179445" transform="translate(9310.746 -2106.846)">
    <path id="Trazado_228352" data-name="Trazado 228352" d="M50.781,2.185q-44.75,0-44.75-62.842,0-32.6,12.105-49.688t35.092-17.087q43.7,0,43.7,63.891,0,31.814-11.93,48.771T50.781,2.185ZM52-106.369q-17.917,0-17.917,45.012,0,42.39,17.568,42.39,17.131,0,17.131-43.7T52-106.369ZM115.371-3.234v-23.6a51.521,51.521,0,0,0,27.357,7.866q10.925,0,17.087-5.2t6.162-14.115q0-18.617-26.308-18.617a194.809,194.809,0,0,0-22.375,1.486l4.72-69.922h66.338v22.55H143.078L141.33-77.7q6.73-.524,11.625-.524,19.316,0,30.241,10.139t10.925,27.27q0,18.966-13.023,30.984T145.787,2.185Q127.695,2.185,115.371-3.234Z" transform="translate(-9316.776 2234.278)" fill="#12263f" opacity="0.089"/>
    <path id="Trazado_228353" data-name="Trazado 228353" d="M0,0H263.261V38.848H0Z" transform="translate(-9202.375 2304.316)" fill="#ece5f7"/>
  </g>
</svg>
