<svg xmlns="http://www.w3.org/2000/svg" width="207.822" height="220.61" viewBox="0 0 207.822 220.61">
  <g id="Grupo_179450" data-name="Grupo 179450" transform="translate(8920.585 -4127.479)">
    <path id="Trazado_228362" data-name="Trazado 228362" d="M72.719-128.132V0H45.187V-97.017a32.97,32.97,0,0,1-5.375,3.8,55.492,55.492,0,0,1-6.6,3.234,58.922,58.922,0,0,1-7.254,2.447,52.985,52.985,0,0,1-7.429,1.442V-109.34a114.847,114.847,0,0,0,20.277-8.041,115.4,115.4,0,0,0,17.218-10.75ZM153.741,2.185q-44.75,0-44.75-62.842,0-32.6,12.105-49.688t35.092-17.087q43.7,0,43.7,63.891,0,31.814-11.93,48.771T153.741,2.185Zm1.224-108.554q-17.917,0-17.917,45.012,0,42.39,17.568,42.39,17.131,0,17.131-43.7T154.964-106.369Z" transform="translate(-8939.114 4255.611)" fill="#12263f" opacity="0.089"/>
    <path id="Trazado_228363" data-name="Trazado 228363" d="M0,0H149.827V35.234H0Z" transform="translate(-8862.59 4312.855)" fill="#ece5f7"/>
  </g>
</svg>
