<svg xmlns="http://www.w3.org/2000/svg" width="238.344" height="239.017" viewBox="0 0 238.344 239.017">
  <g id="Grupo_179453" data-name="Grupo 179453" transform="translate(9298.247 -5369.645)">
    <path id="Trazado_228368" data-name="Trazado 228368" d="M72.719-128.132V0H45.187V-97.017a32.97,32.97,0,0,1-5.375,3.8,55.492,55.492,0,0,1-6.6,3.234,58.922,58.922,0,0,1-7.254,2.447,52.985,52.985,0,0,1-7.429,1.442V-109.34a114.847,114.847,0,0,0,20.277-8.041,115.4,115.4,0,0,0,17.218-10.75ZM113.186-4.108V-28.144q12.586,9.177,29.367,9.177,10.576,0,16.475-4.545t5.9-12.673a14.406,14.406,0,0,0-7.3-12.936q-7.3-4.545-20.059-4.545H125.947V-74.816H136.7q24.473,0,24.473-16.257,0-15.3-18.792-15.3-12.586,0-24.473,8.128v-22.55q13.2-6.643,30.766-6.643,19.229,0,29.935,8.653a27.537,27.537,0,0,1,10.707,22.462q0,24.56-24.91,30.766v.437q13.285,1.661,20.977,9.658a27.231,27.231,0,0,1,7.691,19.622q0,17.568-12.848,27.794T144.738,2.185Q125.335,2.185,113.186-4.108Z" transform="translate(-9316.776 5497.776)" fill="#12263f" opacity="0.089"/>
    <path id="Trazado_228369" data-name="Trazado 228369" d="M0,0H138.472V38.848H0Z" transform="translate(-9198.375 5569.813)" fill="#ece5f7"/>
  </g>
</svg>
