<svg xmlns="http://www.w3.org/2000/svg" xmlns:xlink="http://www.w3.org/1999/xlink" width="715" height="206.238" viewBox="0 0 715 206.238">
  <defs>
    <clipPath id="clip-path">
      <rect id="Rectángulo_56356" data-name="Rectángulo 56356" width="59.295" height="50.803" fill="#12263f"/>
    </clipPath>
    <clipPath id="clip-path-2">
      <rect id="Rectángulo_56357" data-name="Rectángulo 56357" width="69.687" height="44.474" fill="#12263f"/>
    </clipPath>
    <clipPath id="clip-path-3">
      <rect id="Rectángulo_52809" data-name="Rectángulo 52809" width="54.48" height="54.494" fill="#12263f"/>
    </clipPath>
    <clipPath id="clip-path-4">
      <rect id="Rectángulo_56358" data-name="Rectángulo 56358" width="59.157" height="59.165" fill="#12263f"/>
    </clipPath>
    <linearGradient id="linear-gradient" x1="0.5" x2="0.5" y2="1" gradientUnits="objectBoundingBox">
      <stop offset="0" stop-color="#7e53c5"/>
      <stop offset="1" stop-color="#080383"/>
    </linearGradient>
    <linearGradient id="linear-gradient-2" x1="0.5" x2="0.5" y2="1" gradientUnits="objectBoundingBox">
      <stop offset="0" stop-color="#f5f5f5"/>
      <stop offset="0.25" stop-color="#f5f5f5"/>
      <stop offset="1" stop-color="#a7b3cf"/>
    </linearGradient>
  </defs>
  <g id="Grupo_179435" data-name="Grupo 179435" transform="translate(-215.86 -749.417)">
    <g id="Grupo_175675" data-name="Grupo 175675" transform="translate(211.839 1066.193)">
      <g id="Grupo_155300" data-name="Grupo 155300" transform="translate(4.021 -316.777)">
        <line id="Línea_1806" data-name="Línea 1806" x2="508.778" transform="translate(152.628 95.964)" fill="none" stroke="#000" stroke-linecap="round" stroke-linejoin="round" stroke-width="1" stroke-dasharray="0 4"/>
        <rect id="Rectángulo_46415" data-name="Rectángulo 46415" width="29.913" height="1.94" transform="translate(273.313 180.569) rotate(-90)" fill="#d2d2d2"/>
        <rect id="Rectángulo_46416" data-name="Rectángulo 46416" width="29.913" height="1.94" transform="translate(623.402 180.569) rotate(-90)" fill="#d2d2d2"/>
        <g id="Grupo_155272" data-name="Grupo 155272" transform="translate(31.93 65.161)">
          <path id="Trazado_195627" data-name="Trazado 195627" d="M170.633-249.311a66.033,66.033,0,0,1-65.992,63.938,66.032,66.032,0,0,1-65.991-63.937H36.76a67.921,67.921,0,0,0,67.88,65.827,67.922,67.922,0,0,0,67.882-65.827Z" transform="translate(-36.76 270.738)" fill="#d2d2d2"/>
          <path id="Trazado_195628" data-name="Trazado 195628" d="M306.869-249.311a66.032,66.032,0,0,1-65.991,63.938,66.032,66.032,0,0,1-65.991-63.937H173a67.92,67.92,0,0,0,67.88,65.827,67.921,67.921,0,0,0,67.88-65.827Z" transform="translate(1.856 270.738)" fill="#d2d2d2"/>
          <path id="Trazado_195629" data-name="Trazado 195629" d="M443.108-249.311a66.032,66.032,0,0,1-65.991,63.938,66.033,66.033,0,0,1-65.992-63.937h-1.889a67.921,67.921,0,0,0,67.882,65.827A67.921,67.921,0,0,0,445-249.311Z" transform="translate(40.472 270.738)" fill="#d2d2d2"/>
          <path id="Trazado_195630" data-name="Trazado 195630" d="M579.346-249.311a66.034,66.034,0,0,1-65.992,63.938,66.032,66.032,0,0,1-65.991-63.937h-1.889a67.921,67.921,0,0,0,67.88,65.827,67.92,67.92,0,0,0,67.88-65.827Z" transform="translate(79.089 270.738)" fill="#d2d2d2"/>
          <path id="Trazado_195632" data-name="Trazado 195632" d="M142.955-244.579A19.545,19.545,0,0,1,162.5-264.124a19.546,19.546,0,0,1,19.547,19.546h1.882A21.427,21.427,0,0,0,162.5-266.006a21.427,21.427,0,0,0-21.428,21.427Z" transform="translate(-7.193 266.006)" fill="#d2d2d2"/>
          <path id="Trazado_195633" data-name="Trazado 195633" d="M279.192-244.579a19.546,19.546,0,0,1,19.547-19.546,19.545,19.545,0,0,1,19.546,19.546h1.883a21.427,21.427,0,0,0-21.428-21.427,21.427,21.427,0,0,0-21.428,21.427Z" transform="translate(31.423 266.006)" fill="#d2d2d2"/>
          <path id="Trazado_195634" data-name="Trazado 195634" d="M415.43-244.579a19.545,19.545,0,0,1,19.546-19.546,19.546,19.546,0,0,1,19.547,19.546H456.4a21.427,21.427,0,0,0-21.428-21.427,21.427,21.427,0,0,0-21.428,21.427Z" transform="translate(70.039 266.006)" fill="#d2d2d2"/>
        </g>
        <rect id="Rectángulo_46417" data-name="Rectángulo 46417" width="29.913" height="1.94" transform="translate(98.82 180.569) rotate(-90)" fill="#d2d2d2"/>
        <rect id="Rectángulo_46418" data-name="Rectángulo 46418" width="29.913" height="1.94" transform="translate(448.548 180.569) rotate(-90)" fill="#d2d2d2"/>
        <circle id="Elipse_5982" data-name="Elipse 5982" cx="2.255" cy="2.255" r="2.255" transform="translate(30.604 84.334)" fill="#d2d2d2"/>
        <circle id="Elipse_6203" data-name="Elipse 6203" cx="2.255" cy="2.255" r="2.255" transform="translate(688.688 84.334)" fill="#d2d2d2"/>
        <g id="Grupo_155276" data-name="Grupo 155276" transform="translate(29.372 14.043)">
          <circle id="Elipse_5984" data-name="Elipse 5984" cx="59.737" cy="59.737" r="59.737" transform="matrix(0.162, -0.987, 0.987, 0.162, 1.815, 119.711)" fill="#f6f6f4"/>
          <circle id="Elipse_5985" data-name="Elipse 5985" cx="49.807" cy="49.807" r="49.807" transform="translate(0 70.438) rotate(-45)" fill="#e5e5e5"/>
          <text id="_01." data-name="01." transform="translate(21.15 29.523)" fill="#00334e" font-size="19" font-family="SegoeUI-Bold, Segoe UI" font-weight="700"><tspan x="0" y="0">01.</tspan></text>
          <g id="Grupo_175687" data-name="Grupo 175687" transform="translate(37.767 41.862)">
            <g id="Grupo_175686" data-name="Grupo 175686" clip-path="url(#clip-path)">
              <path id="Trazado_217979" data-name="Trazado 217979" d="M40.653,17.175A1.828,1.828,0,0,0,40.2,15.3c-.752-.832-1.3-1.845-1.972-2.754a1.108,1.108,0,0,0-.707-.471c-5.24.006-10.48.046-15.721.082a1.373,1.373,0,0,0-.284.09,9.259,9.259,0,0,1,3.679,8.261,9.081,9.081,0,0,1-2.806,5.886,9.39,9.39,0,0,1-13.752-1,2.165,2.165,0,0,0-.07.366q0,10.01,0,20.02a3.3,3.3,0,0,0,3.446,3.393c2.175.023,4.351,0,6.526.007.246,0,.552-.05.722.073.247.178.548.5.544.748a1.073,1.073,0,0,1-.571.721,2.253,2.253,0,0,1-.948.067c-2.052,0-4.1.011-6.155,0A4.927,4.927,0,0,1,6.962,45.6Q6.95,34.329,6.953,23.057c0-.776-.062-1.554-.123-2.329A8.827,8.827,0,0,1,7.458,16.3a.94.94,0,0,0-.284-1.255Q4.006,11.923.887,8.75A2.919,2.919,0,0,1,.316,5.33,2.8,2.8,0,0,1,3.321,3.764a3.947,3.947,0,0,1,1.852.959C7.3,6.754,9.361,8.854,11.426,10.948a.8.8,0,0,0,1.072.238,9.463,9.463,0,0,1,3.981-.7c6.92.006,13.841-.022,20.761-.04a.7.7,0,0,0,.181-.069c-.058-.81-.1-1.636-.187-2.458a.79.79,0,0,0-.277-.4,5.063,5.063,0,0,1-.8-6.127c.934-1.5,2.6-1.835,4.425-.777a10.568,10.568,0,0,0,4.426,1.334,9.487,9.487,0,0,1,1.9.289,15.149,15.149,0,0,1,2.891,1.1c2.042,1.123,2.551,2.528,1.968,4.791-.188.729-.262,1.487-.4,2.31.99,0,1.873-.005,2.756,0a4.958,4.958,0,0,1,5.164,5.2q.006,14.943,0,29.886a4.925,4.925,0,0,1-5.232,5.26q-9.9.02-19.8.01c-.2,0-.444.05-.581-.046-.275-.193-.7-.492-.68-.71.028-.3.384-.6.665-.818.144-.111.43-.046.651-.046H53.892c2.473,0,3.8-1.329,3.8-3.789q0-14.721,0-29.441c0-2.587-1.3-3.89-3.861-3.891-.89,0-1.914-.27-2.631.084-.677.334-1.009,1.341-1.531,2.022-.389.508-.847.963-1.261,1.452a1.338,1.338,0,0,0-.332.542c-.169.878-.035,1.052.877,1.014a5.631,5.631,0,0,1,5.6,3.008c.86,1.558.69,3.263.543,4.931-.064.731-.759,1.1-1.7,1.1q-8.343.008-16.686.007c-.544,0-1.09.02-1.63-.028a1.407,1.407,0,0,1-1.38-1.308,15.845,15.845,0,0,1,.072-3.031,5.462,5.462,0,0,1,5.411-4.666c.487-.012.975,0,1.467,0m1.753-.132c-.187,1.736-.187,1.736-1.987,1.736a5.643,5.643,0,0,0-1.183.014,7.476,7.476,0,0,0-2.09.629c-1.591.9-2.2,2.782-1.771,5.185H51.713c1.9,0,1.9,0,1.857-1.915a3.926,3.926,0,0,0-3.922-3.909c-.494-.011-.988,0-1.482,0-1.6,0-1.64-.035-1.716-1.643,0-.041-.05-.08-.064-.1a13.951,13.951,0,0,1-1.974.275,14.336,14.336,0,0,1-2.006-.265m-18.75,2.709c-.052-.491-.066-.989-.161-1.471a7.593,7.593,0,0,0-11.024-5.307,1.093,1.093,0,0,1-1.51-.216c-.5-.55-1.042-1.055-1.567-1.579-1.8-1.8-3.583-3.62-5.43-5.371a1.724,1.724,0,0,0-1.379-.382,1.44,1.44,0,0,0-.9,1.007A2.067,2.067,0,0,0,2.273,7.84Q5.55,11.22,8.927,14.5a1.3,1.3,0,0,1,.28,1.808,7.509,7.509,0,0,0,1.2,8.545,7.63,7.63,0,0,0,13.25-5.1M38.869,8.2a8.437,8.437,0,0,0,2.939,6.447,3.7,3.7,0,0,0,5.173.063,8.463,8.463,0,0,0,2.952-5.324.761.761,0,0,0-.443-.891,7.492,7.492,0,0,0-4.747-1.129c-1.924.217-3.836.539-5.874.833m11.4-1.109a1.6,1.6,0,0,0-.726-2A6.969,6.969,0,0,0,46,3.694a14.258,14.258,0,0,1-6.494-1.825,1.9,1.9,0,0,0-.484-.177,1.184,1.184,0,0,0-1.544.661,3.354,3.354,0,0,0,.174,3.518,1.533,1.533,0,0,0,.955.543,7.874,7.874,0,0,0,2.978-.276c2.946-.658,5.885-.732,8.681.951" transform="translate(0 0)" fill="#12263f"/>
              <path id="Trazado_217980" data-name="Trazado 217980" d="M141.246,192.876c-.485,1.851-.979,3.732-1.47,5.615-.12.46-.206.948-.8,1.018s-.794-.387-1.018-.8c-.395-.736-.8-1.469-1.274-2.352-.161.336-.271.535-.355.745q-1.08,2.719-2.15,5.442c-.167.424-.333.841-.9.848s-.728-.421-.881-.847q-1.356-3.763-2.713-7.525c-.116-.32-.113-.8-.668-.7s-1.182-.191-1.48.69c-.663,1.963-1.459,3.881-2.211,5.813-.1.248-.194.586-.39.685-.265.133-.766.215-.914.067a1.178,1.178,0,0,1-.286-1c.477-1.4,1.046-2.771,1.582-4.152.152-.391.294-.787.46-1.172a2.781,2.781,0,0,0,.128-2.8A2.6,2.6,0,0,1,127,189.09a2.9,2.9,0,0,1,3.445.251,2.838,2.838,0,0,1,.637,3.5,1.316,1.316,0,0,0-.148.885c.748,2.14,1.543,4.264,2.389,6.571.576-1.453,1.058-2.767,1.625-4.044a2.739,2.739,0,0,1,.933-1.174,1.657,1.657,0,0,1,2.263.593c.145.217.281.44.5.785.387-1.473.759-2.794,1.063-4.131.05-.219-.167-.53-.319-.759a2.868,2.868,0,1,1,4.732-.047,1.147,1.147,0,0,0-.162,1.146c.747,2.275,1.471,4.558,2.2,6.837.059.182.136.358.283.74.383-.888.718-1.6.99-2.343.059-.16-.082-.415-.174-.606a2.87,2.87,0,0,1,.872-3.7,2.927,2.927,0,0,1,3.57.191,2.827,2.827,0,0,1,.449,3.763.763.763,0,0,0-.011.983c.351.567.654,1.162.99,1.738.278.476.276.936-.215,1.221a.792.792,0,0,1-1.172-.4c-.361-.647-.751-1.279-1.092-1.936-.37-.713-1.03-.215-1.532-.379-.1-.033-.391.293-.486.5-.511,1.123-.953,2.28-1.5,3.384a1.3,1.3,0,0,1-.9.66c-.245.009-.64-.424-.744-.735-.993-2.971-1.963-5.951-2.881-8.947-.228-.744-.57-1.018-1.36-.763m-12.734-.136a1.229,1.229,0,0,0,1.3-1.215,1.255,1.255,0,0,0-1.185-1.276,1.286,1.286,0,0,0-1.349,1.2,1.2,1.2,0,0,0,1.23,1.292m22.533,3.186a1.29,1.29,0,0,0-1.207-1.263,1.329,1.329,0,0,0-1.313,1.247,1.265,1.265,0,0,0,1.262,1.28,1.23,1.23,0,0,0,1.258-1.264m-8.036-5.964a1.268,1.268,0,1,0-2.536-.041,1.268,1.268,0,1,0,2.536.041" transform="translate(-105.357 -159.318)" fill="#12263f"/>
              <path id="Trazado_217981" data-name="Trazado 217981" d="M178.036,331.2c.178.293.534.619.486.869a1.053,1.053,0,0,1-.746.658c-.19.024-.612-.432-.624-.688-.013-.274.333-.565.522-.849l.362.01" transform="translate(-150.873 -282.065)" fill="#12263f"/>
              <path id="Trazado_217982" data-name="Trazado 217982" d="M69.621,87.917a6.67,6.67,0,1,1-6.673,6.628,6.635,6.635,0,0,1,6.673-6.628m5.06,6.757a5.063,5.063,0,1,0-5.187,4.978,5.048,5.048,0,0,0,5.187-4.978" transform="translate(-53.611 -74.875)" fill="#12263f"/>
            </g>
          </g>
        </g>
        <g id="Grupo_155280" data-name="Grupo 155280" transform="translate(206.012 15.829)">
          <g id="Grupo_155277" data-name="Grupo 155277" transform="translate(0 0)">
            <circle id="Elipse_5986" data-name="Elipse 5986" cx="59.737" cy="59.737" r="59.737" transform="matrix(0.163, -0.987, 0.987, 0.163, 0, 117.886)" fill="#f6f6f4"/>
            <circle id="Elipse_5987" data-name="Elipse 5987" cx="49.807" cy="49.807" r="49.807" transform="translate(8.587 105.445) rotate(-76.489)" fill="#e5e5e5"/>
          </g>
          <text id="_02." data-name="02." transform="translate(14.508 27.737)" fill="#00334e" font-size="19" font-family="SegoeUI-Bold, Segoe UI" font-weight="700"><tspan x="0" y="0">02.</tspan></text>
          <g id="Grupo_175689" data-name="Grupo 175689" transform="translate(34.414 49.34)">
            <g id="Grupo_175688" data-name="Grupo 175688" clip-path="url(#clip-path-2)">
              <path id="Trazado_217983" data-name="Trazado 217983" d="M54.829,0a1.08,1.08,0,0,1,.659,1.334c-.2.628-.731.714-1.319.713q-15.742-.01-31.485,0A5.988,5.988,0,0,0,16.62,6.63a7.56,7.56,0,0,0-.2,1.75Q16.4,13.588,16.418,18.8A6.028,6.028,0,0,0,22.77,25.11c3.362.008,6.724.035,10.086-.008a8.138,8.138,0,0,1,6.836,3.154,13.4,13.4,0,0,0,5.978,4.121,1.124,1.124,0,0,0,.977-.1,1.348,1.348,0,0,0,.231-1.029c-.112-.688-.391-1.349-.527-2.035a3.37,3.37,0,0,1,3.031-4.046c1.2-.1,2.406-.052,3.609-.055,2.771-.006,5.543,0,8.314,0a6.016,6.016,0,0,0,6.336-6.32q.006-5.208,0-10.415a6.031,6.031,0,0,0-6.33-6.332c-.727,0-1.454-.011-2.181,0-.576.012-1.1-.05-1.343-.68S57.937.352,58.373,0H62.6a1.685,1.685,0,0,0,.31.118A7.664,7.664,0,0,1,68.573,4.05a19.821,19.821,0,0,1,1.114,3.03V20.151A19.83,19.83,0,0,1,68.2,23.673a7.644,7.644,0,0,1-6.716,3.48c-3.7.007-7.4,0-11.107,0a5.172,5.172,0,0,0-.882.053,1.367,1.367,0,0,0-1.141,1.645c.131.619.325,1.226.5,1.834a2.914,2.914,0,0,1-2.686,3.9.866.866,0,0,0-.568.347,6.922,6.922,0,0,1-6.167,3.349c-2.817,0-5.634.03-8.45-.012A5.179,5.179,0,0,0,26.6,40.3a12.642,12.642,0,0,1-5.616,3.935,2.679,2.679,0,0,1-2.979-.489,2.523,2.523,0,0,1-.594-2.881,9.441,9.441,0,0,0,.322-1.109c.207-.933-.2-1.455-1.159-1.469-1.135-.017-2.271,0-3.407,0-2.2,0-4.407.028-6.61-.021A6.817,6.817,0,0,1,.138,33.1a3.6,3.6,0,0,1-.1-.871c-.007-3.449.1-6.9-.036-10.345a6.712,6.712,0,0,1,4.354-6.209,9.97,9.97,0,0,1,2.527-.453c1.29-.074,2.588-.026,3.883-.018.8.005,1.263.394,1.256,1.019s-.47,1.009-1.274,1.017c-1.226.012-2.453,0-3.68.006A4.865,4.865,0,0,0,1.944,22.38q-.008,4.39,0,8.781a4.851,4.851,0,0,0,5.041,5.077c3.134.02,6.269,0,9.4.006,2.539,0,3.885,1.717,3.279,4.179-.1.4-.259.777-.328,1.176a.868.868,0,0,0,.111.668.767.767,0,0,0,.664.084,10.529,10.529,0,0,0,4.8-3.23A7.334,7.334,0,0,1,31.2,36.227c2.86.066,5.724.034,8.585,0A4.761,4.761,0,0,0,43.83,33.9,16.333,16.333,0,0,1,41.7,32.67a28,28,0,0,1-3.557-3.131,6.562,6.562,0,0,0-5.247-2.4c-3.384.038-6.769.013-10.153.009a8.08,8.08,0,0,1-8.369-8.374q-.007-5.139,0-10.278A8.071,8.071,0,0,1,21.264.1a.633.633,0,0,0,.171-.1Z" transform="translate(0)" fill="#12263f"/>
              <path id="Trazado_217984" data-name="Trazado 217984" d="M166.96,62.2a5.4,5.4,0,0,1-1.285,3.363,13.762,13.762,0,0,1-3.792,3.27,2.31,2.31,0,0,1-2.468.078,12.027,12.027,0,0,1-4.568-4.273,4.325,4.325,0,0,1,.718-5.589,3.835,3.835,0,0,1,4.273-.875,1.907,1.907,0,0,0,1.468,0A4.216,4.216,0,0,1,166.96,62.2m-1.92.047a2.306,2.306,0,0,0-3.27-2.054,2.448,2.448,0,0,1-2.391.007,2.019,2.019,0,0,0-2.707.645,2.38,2.38,0,0,0,.235,3.178,30.746,30.746,0,0,0,3.248,2.949.859.859,0,0,0,.794.02,10.363,10.363,0,0,0,3.34-3.039,11.107,11.107,0,0,0,.75-1.706" transform="translate(-133.093 -49.97)" fill="#12263f"/>
              <path id="Trazado_217985" data-name="Trazado 217985" d="M367.508,62.322a4.27,4.27,0,0,1,5.932-3.951,1.257,1.257,0,0,0,.87.013,4.19,4.19,0,0,1,4.769.949,4,4,0,0,1,.988,4.443,7.308,7.308,0,0,1-2.283,3.241,26.586,26.586,0,0,1-2.364,1.829,2.428,2.428,0,0,1-2.764.14,13.163,13.163,0,0,1-4.054-3.576,5.315,5.315,0,0,1-1.093-3.087m2.048.341a8.508,8.508,0,0,0,.67,1.467,10.327,10.327,0,0,0,3.309,2.986.944.944,0,0,0,.854-.057,17.827,17.827,0,0,0,2.5-2.079,6.7,6.7,0,0,0,1.3-2.182,1.986,1.986,0,0,0-.789-2.231,1.819,1.819,0,0,0-2.152-.31,2.718,2.718,0,0,1-2.649.026c-1.428-.668-3.059.457-3.05,2.379" transform="translate(-317.317 -50.093)" fill="#12263f"/>
              <path id="Trazado_217986" data-name="Trazado 217986" d="M273.62,62.242a4.96,4.96,0,0,1-1.459,3.56,33.491,33.491,0,0,1-3.6,3.073,2.236,2.236,0,0,1-2.578.071,12.914,12.914,0,0,1-4.175-3.732c-1.465-2.16-1.319-4.384.373-6.06a3.958,3.958,0,0,1,4.453-.851,1.37,1.37,0,0,0,1.15.011,4.26,4.26,0,0,1,5.839,3.927m-1.909.1a2.328,2.328,0,0,0-3.287-2.078,2.466,2.466,0,0,1-2.4.009,2.026,2.026,0,0,0-2.544.461,2.417,2.417,0,0,0-.042,3.242,10.825,10.825,0,0,0,3.4,3.092.859.859,0,0,0,.8-.027,39.414,39.414,0,0,0,3.208-2.907,6.55,6.55,0,0,0,.868-1.79" transform="translate(-225.182 -50.041)" fill="#12263f"/>
            </g>
          </g>
        </g>
        <g id="Grupo_155283" data-name="Grupo 155283" transform="translate(377.905 12.868)">
          <g id="Grupo_155281" data-name="Grupo 155281" transform="translate(0 0)">
            <circle id="Elipse_5988" data-name="Elipse 5988" cx="59.737" cy="59.737" r="59.737" transform="translate(0 116.431) rotate(-77.04)" fill="#f6f6f4"/>
            <circle id="Elipse_5989" data-name="Elipse 5989" cx="49.807" cy="49.807" r="49.807" transform="translate(11.548 108.406) rotate(-76.489)" fill="#e5e5e5"/>
          </g>
          <text id="_03." data-name="03." transform="translate(18.177 31.697)" fill="#00334e" font-size="21" font-family="SegoeUI-Bold, Segoe UI" font-weight="700"><tspan x="0" y="0">03.</tspan></text>
          <g id="Grupo_173663" data-name="Grupo 173663" transform="translate(44.373 45.738)">
            <g id="Grupo_173662" data-name="Grupo 173662" clip-path="url(#clip-path-3)">
              <path id="Trazado_214755" data-name="Trazado 214755" d="M25.331,0h3.831c.857.117,1.718.207,2.569.355A26.516,26.516,0,0,1,46.107,7.621,26.681,26.681,0,0,1,54.233,31,26.15,26.15,0,0,1,49.122,43.5,15.843,15.843,0,0,0,46.69,46.95a2.61,2.61,0,0,1-.442.6c-.508.638-1.007,1.284-1.533,1.907a3.122,3.122,0,0,0-.769,2.2c.028.933.006,1.867.006,2.841h-.479c-5.64,0-11.279.01-16.919-.013a22.022,22.022,0,0,1-3.071-.237,26.834,26.834,0,0,1-15.421-7.67A26.7,26.7,0,0,1,.425,32.045C.254,31.09.14,30.124,0,29.163V25.331a1.854,1.854,0,0,0,.1-.349,27.115,27.115,0,0,1,3.222-10.8,1.673,1.673,0,0,0,.187-.749c.016-1.825,0-3.651.01-5.476A4.371,4.371,0,0,1,7.959,3.516c1.772-.008,3.545.012,5.317-.014a2.4,2.4,0,0,0,1.047-.261A27.267,27.267,0,0,1,23.191.307L25.331,0M31.5,40.813c.078-.1.113-.128.113-.152q.006-7.474-.006-14.949a.535.535,0,0,0-.311-.379,4.484,4.484,0,0,1-3.088-3.36.683.683,0,0,0-.335-.393,5.248,5.248,0,0,1-1.241-9.022,1.721,1.721,0,0,0,.166-.2H5.3v.723c0,8.459.024,16.917-.026,25.376A4.821,4.821,0,0,0,6.3,41.743a.943.943,0,0,0,.82.433q9.044-.019,18.088-.009h.545c-.234-1.409-.473-2.75-.674-4.1a35.935,35.935,0,0,1-.461-3.678,2.6,2.6,0,0,1,2.207-2.67,22.931,22.931,0,0,1,2.489-.107c.327-.017.448.081.508.425.471,2.683.968,5.362,1.464,8.04.043.23.131.451.215.731M42.166,38.65c0-.388,0-.7,0-1.021,0-2.252,0-4.5,0-6.756,0-.618-.346-.984-.876-.971s-.845.386-.846,1.012q-.006,3.564,0,7.129v.6H38.652v-.6q0-2.979,0-5.958c0-1.028.009-2.057-.007-3.086a.834.834,0,0,0-.834-.856.87.87,0,0,0-.88.819c-.013.141,0,.284,0,.425q0,4.336,0,8.672v.581H35.137v-.666q0-7.767,0-15.535c0-.177.008-.356-.007-.532a.856.856,0,0,0-.839-.8.873.873,0,0,0-.87.775,4.549,4.549,0,0,0-.009.531q0,10,0,20v.61a3.113,3.113,0,0,1-3.858-2.555c-.22-1.074-.4-2.156-.6-3.235-.231-1.265-.461-2.529-.7-3.822-.293,0-.539-.006-.785,0a1.012,1.012,0,0,0-1.088,1.1,4.769,4.769,0,0,0,.032.849c.452,2.759.948,5.511,1.358,8.276a5.487,5.487,0,0,0,1.4,3.077c.494.53.91,1.133,1.372,1.694a4.576,4.576,0,0,1,1.095,3.084c-.007.386,0,.772,0,1.172H42.166c0-.294.01-.542,0-.789a4.987,4.987,0,0,1,1.271-3.666c.513-.586.961-1.23,1.469-1.82a3.21,3.21,0,0,0,.787-2.243c-.028-2.376-.009-4.752-.009-7.129,0-1.472,0-2.944,0-4.416a.822.822,0,0,0-.649-.907c-.606-.151-1.075.26-1.078.96-.007,1.809,0,3.618,0,5.426v.569ZM43.9,30.02a2.743,2.743,0,0,1,3.59,2.816c-.091,3.066-.026,6.136-.026,9.2v.644A25.394,25.394,0,0,0,18.236,3.514h.651c3.086,0,6.172-.007,9.258,0a4.333,4.333,0,0,1,4.218,3.255c.1.354.144.72.219,1.107a4.709,4.709,0,0,1,3.486,1.792,1.936,1.936,0,0,1,.15-.233,4.237,4.237,0,0,1,4.368-1.4,4.3,4.3,0,0,1,3.278,3.348.928.928,0,0,0,.471.481,5.136,5.136,0,0,1,3.112,4.861,5.052,5.052,0,0,1-3.134,4.779.78.78,0,0,0-.505.589,4.359,4.359,0,0,1-6.494,2.775c-.11-.064-.228-.115-.351-.176v1.789a2.414,2.414,0,0,1,2.085.227,14.417,14.417,0,0,1,1.5,1.526c1.513-.367,2.342.045,3.352,1.785M5.311,10.509c.119.014.187.029.255.029q11.3,0,22.6-.01a.66.66,0,0,0,.47-.291,4.086,4.086,0,0,1,1.7-1.713c.452-.217.46-.518.407-.9A2.634,2.634,0,0,0,27.927,5.3q-9.892-.006-19.784,0c-.177,0-.355,0-.531.016A2.55,2.55,0,0,0,5.321,7.593c-.046.954-.009,1.912-.009,2.916m38.471,9.26a3.417,3.417,0,0,0,1.879-3.546A3.529,3.529,0,0,0,43.011,13.3c-.85-.205-.85-.205-.845-.953A2.618,2.618,0,1,0,36.93,12.3q-.018,4.414,0,8.828a2.617,2.617,0,0,0,5.228.169,2.577,2.577,0,0,0-2.432-2.8c-.348-.024-.7-.034-1.044-.05V16.763c2.26-.35,3.72.516,5.1,3.006M26.113,44H8.149l-.1.166c1.331,1.164,2.614,2.387,4,3.477,2.033,1.595,2.066,1.553,4.631,1.553H27a2.282,2.282,0,0,0,1.569-.42c-1.143-1.445-2.513-2.746-2.457-4.776M35.09,19.44a.866.866,0,0,0,.042-.175c0-2.394.023-4.789-.011-7.182a2.58,2.58,0,0,0-2.473-2.4,2.614,2.614,0,0,0-2.739,2.781c.007.426,0,.692-.557.782a3.444,3.444,0,0,0-1.03,6.5,4.456,4.456,0,0,1,3.109-2.912l.418,1.687a2.716,2.716,0,0,0-1.946,2.8,2.446,2.446,0,0,0,1.711,2.151c.055-1.066-.186-2.188.572-3.118a2.688,2.688,0,0,1,2.9-.916M3.5,18.2c-2.23,4.38-2.2,14.931,0,18Zm26.256,31.99a5.8,5.8,0,0,1-3.64.8c-2.445-.016-4.891-.005-7.337,0-.16,0-.319.017-.478.027a26.061,26.061,0,0,0,11.622,1.655l-.167-2.476" fill="#12263f"/>
              <path id="Trazado_214756" data-name="Trazado 214756" d="M66.056,134V132.21H81.883c0,.506.013,1.014-.012,1.52,0,.091-.149.207-.254.251a1.015,1.015,0,0,1-.368.015H66.056Z" transform="translate(-59.012 -118.111)" fill="#12263f"/>
              <path id="Trazado_214757" data-name="Trazado 214757" d="M82.02,164.764c0,.527.019,1.021-.015,1.511-.008.111-.184.233-.309.306-.08.046-.208.011-.314.011H66.207v-1.827Z" transform="translate(-59.147 -147.193)" fill="#12263f"/>
              <path id="Trazado_214758" data-name="Trazado 214758" d="M78.553,199.048H66.216v-1.777c.19-.011.362-.028.533-.029,3.74,0,7.48.007,11.22-.012.474,0,.635.132.59.6-.037.384-.007.773-.007,1.218" transform="translate(-59.155 -176.198)" fill="#12263f"/>
              <path id="Trazado_214759" data-name="Trazado 214759" d="M66.056,277.049v-1.786H81.883c0,.506.013,1.014-.012,1.52,0,.091-.149.207-.254.251a1.016,1.016,0,0,1-.368.015H66.056Z" transform="translate(-59.012 -245.909)" fill="#12263f"/>
              <path id="Trazado_214760" data-name="Trazado 214760" d="M82.02,307.817c0,.527.019,1.021-.015,1.511-.008.111-.184.233-.309.306-.08.046-.208.011-.314.011H66.207v-1.827Z" transform="translate(-59.147 -274.991)" fill="#12263f"/>
              <path id="Trazado_214761" data-name="Trazado 214761" d="M78.553,342.1H66.216v-1.777c.19-.011.362-.029.533-.029,3.74,0,7.48.007,11.22-.012.474,0,.635.132.59.6-.037.384-.007.773-.007,1.218" transform="translate(-59.155 -303.996)" fill="#12263f"/>
              <path id="Trazado_214762" data-name="Trazado 214762" d="M199.178,197.332v1.781h-1.807c0-.512-.012-1.033.013-1.552,0-.081.176-.214.275-.219.489-.023.979-.01,1.518-.01" transform="translate(-176.321 -176.285)" fill="#12263f"/>
              <rect id="Rectángulo_52805" data-name="Rectángulo 52805" width="6.104" height="1.7" transform="translate(14.951 7.074)" fill="#12263f"/>
              <rect id="Rectángulo_52806" data-name="Rectángulo 52806" width="1.7" height="1.719" transform="translate(11.451 7.049)" fill="#12263f"/>
              <rect id="Rectángulo_52807" data-name="Rectángulo 52807" width="1.677" height="1.723" transform="translate(22.887 7.06)" fill="#12263f"/>
              <rect id="Rectángulo_52808" data-name="Rectángulo 52808" width="6.101" height="1.703" transform="translate(14.945 45.72)" fill="#12263f"/>
            </g>
          </g>
        </g>
        <g id="Grupo_155287" data-name="Grupo 155287" transform="translate(539.891 0)">
          <g id="Grupo_155284" data-name="Grupo 155284" transform="translate(0)">
            <circle id="Elipse_5990" data-name="Elipse 5990" cx="59.737" cy="59.737" r="59.737" transform="translate(0 84.481) rotate(-45)" fill="#f6f6f4"/>
            <circle id="Elipse_5991" data-name="Elipse 5991" cx="49.807" cy="49.807" r="49.807" transform="translate(14.043 84.481) rotate(-45)" fill="#e5e5e5"/>
          </g>
          <text id="_04." data-name="04." transform="translate(27.425 43.565)" fill="#00334e" font-size="19" font-family="SegoeUI-Bold, Segoe UI" font-weight="700"><tspan x="0" y="0">04.</tspan></text>
          <g id="Grupo_175690" data-name="Grupo 175690" transform="translate(54.425 57.79)">
            <g id="Grupo_175690-2" data-name="Grupo 175690" clip-path="url(#clip-path-4)">
              <path id="Trazado_217987" data-name="Trazado 217987" d="M16.637,0c.389.088.778.171,1.166.263A9.835,9.835,0,0,1,25.3,10.6a9.648,9.648,0,0,1-8.538,8.913,32.454,32.454,0,0,1-8.918-.11,9.642,9.642,0,0,1-7.738-8.16A3.1,3.1,0,0,0,0,10.861V8.781A3.247,3.247,0,0,0,.106,8.4,9.835,9.835,0,0,1,7.492.274C7.918.17,8.351.09,8.781,0Zm-4,17.433.007-.1c.982,0,1.963.009,2.945,0A7.509,7.509,0,0,0,15.6,2.314q-2.944-.027-5.889,0A7.517,7.517,0,0,0,2.339,9.09a7.421,7.421,0,0,0,5.714,7.988,33.657,33.657,0,0,0,4.585.354" transform="translate(0 0.001)" fill="#12263f"/>
              <path id="Trazado_217988" data-name="Trazado 217988" d="M308.828,0c.43.091.862.171,1.289.276A9.842,9.842,0,0,1,317.6,10.419a9.667,9.667,0,0,1-8.553,9.094,32.048,32.048,0,0,1-8.979-.117,9.7,9.7,0,0,1-7.77-10A9.816,9.816,0,0,1,300.6.111,2.6,2.6,0,0,0,300.972,0Zm-3.9,17.432q0-.1.007-.194a31.389,31.389,0,0,0,3.974-.027,7.488,7.488,0,0,0-.989-14.9q-2.973-.033-5.947,0a7.52,7.52,0,0,0-7.342,6.618,7.41,7.41,0,0,0,5.712,8.148,33.4,33.4,0,0,0,4.586.35" transform="translate(-258.455 0.001)" fill="#12263f"/>
              <path id="Trazado_217989" data-name="Trazado 217989" d="M163.227,183.293h3.467v-.62q0-4.159,0-8.319a1.207,1.207,0,0,1,.835-1.3,1.165,1.165,0,0,1,1.47,1.235c.01,2.272,0,4.544,0,6.817,0,.71,0,1.421,0,2.171h3.433V170.74h-9.211c0,.351.011.708,0,1.065a1.136,1.136,0,0,1-1.147,1.2q-2.281.045-4.562,0a1.1,1.1,0,0,1-1.129-1.2c-.005-4.159-.036-8.319.026-12.477a4.944,4.944,0,0,1,4.405-4.671c.668-.067,1.342-.068,2.112-.1-.13-.211-.227-.382-.337-.543-1.485-2.189-1.61-7.422,1.372-9.6a6.069,6.069,0,0,1,6.42-.8,5.971,5.971,0,0,1,3.676,5.379,7.379,7.379,0,0,1-1.393,5.605c.574,0,.984-.007,1.393,0a5.093,5.093,0,0,1,5.156,4.094,6.308,6.308,0,0,1,.1,1.263q.011,5.777,0,11.554c0,1.147-.377,1.519-1.525,1.523q-1.415,0-2.83.009a1.074,1.074,0,0,0-.183.051v.591q0,5.228,0,10.456c0,1.112-.386,1.5-1.485,1.5q-5.458,0-10.916,0c-1.061,0-1.459-.4-1.462-1.468,0-.635-.012-1.271,0-1.906a1.152,1.152,0,1,1,2.3-.007c.013.326,0,.654,0,1.045m-2.31-12.618v-.647q0-4.129,0-8.258c0-.851.43-1.373,1.127-1.39.719-.017,1.181.52,1.182,1.394q0,2.974,0,5.948v.636h9.243v-.667q0-3.032,0-6.064a1.142,1.142,0,0,1,.708-1.153.977.977,0,0,1,1.216.232,1.869,1.869,0,0,1,.371,1.038c.03,2.772.016,5.544.016,8.315v.605h2.2c0-3.833.033-7.624-.02-11.413a2.566,2.566,0,0,0-2.2-2.284,4.8,4.8,0,0,0-1.263-.057,1.62,1.62,0,0,0-.895.363c-1.249,1.2-2.46,2.439-3.686,3.663-.788.786-1.337.791-2.113.018-1.131-1.128-2.285-2.236-3.377-3.4a1.975,1.975,0,0,0-1.656-.678,2.83,2.83,0,0,0-3.077,3.1q-.006,5.053,0,10.106c0,.188.016.375.026.594Zm3.017-20.76c0,.356-.012.645,0,.933a3.906,3.906,0,0,0,3.592,3.718,3.822,3.822,0,0,0,4.146-3.2,11.14,11.14,0,0,0,.074-2.357,3.888,3.888,0,0,0-2.7-3.47,3.936,3.936,0,0,0-4.258,1.292,4.273,4.273,0,0,0-.853,3.085m3.891,8.655,1.681-1.633h-3.322l1.64,1.633" transform="translate(-138.272 -126.466)" fill="#12263f"/>
              <path id="Trazado_217990" data-name="Trazado 217990" d="M196.79,428.969a1.134,1.134,0,0,1-1.137-1.137,1.152,1.152,0,1,1,2.3.028,1.134,1.134,0,0,1-1.165,1.109" transform="translate(-173.004 -377.289)" fill="#12263f"/>
              <path id="Trazado_217991" data-name="Trazado 217991" d="M67.679,44.272a3.767,3.767,0,0,1-1.476,2.85c-1.336,1.037-2.707,2.029-4.068,3.033a1.15,1.15,0,0,1-1.49-.018c-1.327-.986-2.674-1.946-3.977-2.962A3.993,3.993,0,0,1,61,40.5a.759.759,0,0,0,.827-.015,4.024,4.024,0,0,1,5.849,3.783m-6.272,3.557c1.148-.86,2.309-1.678,3.407-2.572a1.628,1.628,0,0,0,.107-2.372,1.678,1.678,0,0,0-2.424-.066c-.931.868-1.233.865-2.208-.02a1.673,1.673,0,0,0-2.421.106,1.655,1.655,0,0,0,.182,2.414c1.084.856,2.209,1.657,3.356,2.511" transform="translate(-48.736 -35.397)" fill="#12263f"/>
              <path id="Trazado_217992" data-name="Trazado 217992" d="M355.005,43.977c.013-.656.265-1.087.747-1.189a5.689,5.689,0,0,0,3.777-2.734,1.03,1.03,0,0,1,1.765.026,5.76,5.76,0,0,0,3.729,2.709,1.047,1.047,0,0,1,.54,1.723,5.761,5.761,0,0,0-1.416,4.395,1.043,1.043,0,0,1-1.433,1.036,5.715,5.715,0,0,0-4.608-.01,1.045,1.045,0,0,1-1.458-1.062,5.544,5.544,0,0,0-1.416-4.332,1.459,1.459,0,0,1-.227-.562m6.942,3.4a3.323,3.323,0,0,1,.976-3.006,3.059,3.059,0,0,1-2.539-1.753,3.121,3.121,0,0,1-2.5,1.8,3.207,3.207,0,0,1,.98,2.94,3.135,3.135,0,0,1,3.088.021" transform="translate(-313.91 -34.986)" fill="#12263f"/>
            </g>
          </g>
        </g>
        <g id="Grupo_155296" data-name="Grupo 155296" transform="translate(0 180.569)">
          <path id="Trazado_195676" data-name="Trazado 195676" d="M221.044-176.086v25.669H48.906c-8.337,0-15.1-5.75-15.1-12.834a11.917,11.917,0,0,1,4.425-9.074,16.493,16.493,0,0,1,10.678-3.76Z" transform="translate(-33.802 176.086)" fill="url(#linear-gradient)"/>
          <text id="Demograficos" transform="translate(42.593 17.693)" fill="#fff" font-size="17" font-family="SegoeUI, Segoe UI"><tspan x="0" y="0">Demograficos</tspan></text>
        </g>
        <g id="Grupo_155297" data-name="Grupo 155297" transform="translate(187.242 180.569)">
          <rect id="Rectángulo_46420" data-name="Rectángulo 46420" width="174.844" height="25.669" fill="url(#linear-gradient-2)"/>
          <text id="De_gustos" data-name="De gustos" transform="translate(46.524 17.388)" fill="#12263f" font-size="17" font-family="SegoeUI, Segoe UI"><tspan x="0" y="0">De gustos</tspan></text>
        </g>
        <g id="Grupo_155298" data-name="Grupo 155298" transform="translate(362.086 180.569)">
          <rect id="Rectángulo_46422" data-name="Rectángulo 46422" width="174.857" height="25.669" fill="url(#linear-gradient)"/>
        </g>
        <text id="De_necesidades" data-name="De necesidades" transform="translate(390.239 198.262)" fill="#fff" font-size="17" font-family="SegoeUI, Segoe UI"><tspan x="0" y="0">De necesidades</tspan></text>
      </g>
      <g id="Grupo_157292" data-name="Grupo 157292" transform="translate(540.212 -136.208)">
        <path id="Trazado_217978" data-name="Trazado 217978" d="M881.081-163.252a12.794,12.794,0,0,1-3.76,9.074,12.8,12.8,0,0,1-9.074,3.761H702.271v-25.669H868.246A12.839,12.839,0,0,1,881.081-163.252Z" transform="translate(-702.271 176.086)" fill="url(#linear-gradient-2)"/>
        <text id="De_motivaciones" data-name="De motivaciones" transform="translate(25.975 17.388)" fill="#12263f" font-size="17" font-family="SegoeUI, Segoe UI"><tspan x="0" y="0">De motivaciones</tspan></text>
      </g>
    </g>
  </g>
</svg>
