<svg xmlns="http://www.w3.org/2000/svg" xmlns:xlink="http://www.w3.org/1999/xlink" width="189.833" height="189.833" viewBox="0 0 189.833 189.833">
  <defs>
    <linearGradient id="linear-gradient" x1="0.5" x2="0.5" y2="1" gradientUnits="objectBoundingBox">
      <stop offset="0" stop-color="#116eb9"/>
      <stop offset="1" stop-color="#1894f6"/>
    </linearGradient>
    <filter id="Trazado_150700" x="0" y="0" width="189.833" height="189.833" filterUnits="userSpaceOnUse">
      <feOffset dx="5" dy="5" input="SourceAlpha"/>
      <feGaussianBlur stdDeviation="12.5" result="blur"/>
      <feFlood flood-opacity="0.161"/>
      <feComposite operator="in" in2="blur"/>
      <feComposite in="SourceGraphic"/>
    </filter>
    <clipPath id="clip-path">
      <rect id="Rectángulo_52511" data-name="Rectángulo 52511" width="74.024" height="73.941" fill="#12263f"/>
    </clipPath>
  </defs>
  <g id="Grupo_179438" data-name="Grupo 179438" transform="translate(-714.068 -1935.644)">
    <g id="Grupo_145688" data-name="Grupo 145688" transform="translate(731.023 1952.601)">
      <path id="Trazado_150699" data-name="Trazado 150699" d="M119.426,16.713A72.958,72.958,0,1,1,16.712,26.494a72.957,72.957,0,0,1,102.713-9.782" transform="translate(0 145.92) rotate(-90)" fill="url(#linear-gradient)"/>
      <g transform="matrix(1, 0, 0, 1, -16.96, -16.96)" filter="url(#Trazado_150700)">
        <path id="Trazado_150700-2" data-name="Trazado 150700" d="M93.984,13.152a57.415,57.415,0,1,1-80.832,7.7,57.416,57.416,0,0,1,80.832-7.7" transform="translate(32.5 147.33) rotate(-90)" fill="#fff"/>
      </g>
      <g id="Grupo_171259" data-name="Grupo 171259" transform="translate(35.949 35.989)">
        <g id="Grupo_171258" data-name="Grupo 171258" clip-path="url(#clip-path)">
          <path id="Trazado_212264" data-name="Trazado 212264" d="M61.992,37.136c1.028,1.358,1.955,2.649,2.952,3.884a13.238,13.238,0,0,1,2.879,8.5c.043,7.492.018,14.984.01,22.476,0,1.55-.407,1.941-1.988,1.942q-21.019.007-42.038-.005a6.092,6.092,0,0,1-6.422-5.318c-.14-.849-.576-.846-1.179-.845q-5.322.006-10.643,0c-3.546-.008-5.514-1.975-5.516-5.5,0-2.926.124-5.859-.037-8.776a5.153,5.153,0,0,1,5.427-5.529c3.1-.009,6.209,0,9.313-.005,1.867-.006,2.534-.684,2.534-2.537q0-6.649,0-13.3c0-1.786-.812-2.585-2.66-2.589-3.149-.007-6.3.005-9.446,0A4.829,4.829,0,0,1,.052,24.359Q.04,14.784.047,5.209A4.864,4.864,0,0,1,5.278,0q11.907-.01,23.814,0c3.006,0,4.63,1.285,5.39,4.234a6.6,6.6,0,0,0,.239.616H49.832c3.154,0,5.423,1.313,6.635,4.329a1.518,1.518,0,0,0,1.179.63c3.636.049,7.272.023,10.909.03,3.393.006,5.442,2.038,5.454,5.456q.029,8.113,0,16.225c-.013,3.4-2.09,5.429-5.5,5.432q-3.059,0-6.119.015a1.813,1.813,0,0,0-.4.161M49.025,71.31,47.944,64.04h-9.63c-.362-2.513-.362-2.513,1.984-2.513,2.616,0,5.234-.05,7.849.019,1.375.037,1.248-1.177,1.706-1.869.132-.2-.178-.851-.452-1.135-1.724-1.787-3.521-3.5-5.241-5.292a5.575,5.575,0,0,1,7.389-8.332c.881.693,1.678,1.493,2.609,2.331V38.112c-1.782,1.189-3.384,2.285-5.015,3.336-1.314.847-2.234.37-2.308-1.2-.05-1.054-.009-2.112-.009-3.132-3.829-1.024-4.966-2.514-4.968-6.372q0-6.65-.006-13.3c0-.83,0-1.659,0-2.636H37.082V12.259c1.515,0,2.933.078,4.336-.036a3.127,3.127,0,0,0,1.765-.786A5.011,5.011,0,0,1,46.712,9.85q2.395-.005,4.79-.006h2.458a3.733,3.733,0,0,0-3.623-2.413q-7.45,0-14.9.005a7.492,7.492,0,0,0-.859.108v1.5c0,4.965-.061,9.931.02,14.9.058,3.58-2.561,5.886-5.591,5.615-1.392-.124-2.8-.021-4.277-.021a25.084,25.084,0,0,1-.034,3.1,2.476,2.476,0,0,1-.79,1.64c-.341.221-1.138-.076-1.637-.33a28.769,28.769,0,0,1-2.455-1.562V45.212c.931-.606,1.729-1.139,2.541-1.651,1.378-.868,2.3-.395,2.367,1.237.041,1,.007,2.013.007,3.16,1.522,0,2.885-.016,4.248,0,3.577.051,5.584,2.074,5.6,5.646.012,2.793.005,5.586,0,8.379,0,3.825-1.978,5.779-5.832,5.782q-4.447,0-8.9,0c.218,2.42,1.518,3.6,3.973,3.6q12.24.021,24.48-.005a7.336,7.336,0,0,0,.732-.057M22.154,30.88c0-.759,0-1.2,0-1.64.01-1.868.285-2.149,2.156-2.16,1.55-.009,3.1.014,4.652-.006C31.152,27.046,32,26.185,32,24q.007-9.1,0-18.2c0-2.534-.78-3.335-3.31-3.337q-11.43-.013-22.861,0c-2.476,0-3.323.871-3.325,3.378q-.006,8.968.009,17.936c0,2.455.827,3.282,3.264,3.291,3.145.011,6.292-.039,9.436.034a4.755,4.755,0,0,1,2.206.668c1.547.915,3.012,1.967,4.733,3.112M61.208,54.308l-1.7,1.982c-.4-.379-.72-.677-1.03-.987-2.728-2.724-5.429-5.474-8.187-8.166a3.08,3.08,0,0,0-5.2,1.31A3.323,3.323,0,0,0,46.2,51.8l5.734,5.732c1.4,1.4,1.4,1.4.341,3.116a9.548,9.548,0,0,0-.55,9.6A1.722,1.722,0,0,0,53.541,71.4c3.5-.066,7-.018,10.5-.023.381,0,.761-.057,1.162-.089.03-.267.065-.438.065-.609,0-7.309.04-14.618-.046-21.926a7.867,7.867,0,0,0-.915-3.814c-1.45-2.415-3.272-4.6-4.827-6.959-.734-1.112-1.6-1.147-2.753-.9,0,4.14-.018,8.21.028,12.28a2.037,2.037,0,0,0,.63,1.212c1.267,1.3,2.587,2.54,3.82,3.737M49.277,38.322c1.662-1.1,3.072-2.162,4.6-3a6.747,6.747,0,0,1,2.945-.879c3.764-.1,7.531-.037,11.3-.042,2.624,0,3.313-.677,3.317-3.265q.011-7.773,0-15.546c0-2.427-.83-3.274-3.259-3.279q-10.235-.02-20.47,0c-2.439,0-3.272.836-3.279,3.266q-.024,7.707-.011,15.414c0,2.675.521,3.232,3.2,3.411,1.1.073,1.761.492,1.67,1.719-.048.645-.009,1.3-.009,2.206m-27.123,8.39c-1.726,1.134-3.162,2.167-4.687,3.042a5.4,5.4,0,0,1-2.433.743c-3.187.085-6.378.026-9.568.038-1.963.007-2.917.858-2.947,2.765q-.074,4.583,0,9.167c.033,1.874.967,2.735,2.827,2.737q11.961.014,23.923,0A2.4,2.4,0,0,0,32,62.538q.029-4.65,0-9.3a2.427,2.427,0,0,0-2.718-2.7c-1.506-.025-3.012-.006-4.519-.006-2.407,0-2.591-.178-2.606-2.526,0-.344,0-.687,0-1.293" transform="translate(0 0)" fill="#12263f"/>
          <path id="Trazado_212265" data-name="Trazado 212265" d="M103.492,91.741a7.336,7.336,0,0,1-.732.057q-12.24.01-24.48.005c-2.454,0-3.755-1.183-3.973-3.6q4.461,0,8.9,0c3.855,0,5.827-1.957,5.832-5.782,0-2.793.01-5.586,0-8.379-.015-3.572-2.022-5.6-5.6-5.646-1.363-.019-2.726,0-4.248,0,0-1.148.033-2.155-.007-3.16-.066-1.632-.99-2.106-2.367-1.237-.812.512-1.61,1.045-2.541,1.651V52.816a28.832,28.832,0,0,0,2.455,1.562c.5.254,1.3.551,1.637.33a2.476,2.476,0,0,0,.79-1.64,25.084,25.084,0,0,0,.034-3.1c1.473,0,2.885-.1,4.277.021,3.031.271,5.65-2.035,5.591-5.615-.081-4.964-.02-9.93-.02-14.9v-1.5a7.5,7.5,0,0,1,.859-.109q7.45-.008,14.9-.005a3.733,3.733,0,0,1,3.623,2.413h-2.458q-2.395,0-4.79.005a5.011,5.011,0,0,0-3.529,1.587,3.125,3.125,0,0,1-1.765.786c-1.4.114-2.821.036-4.336.036v2.554h4.767c0,.976,0,1.806,0,2.636q0,6.65.006,13.3c0,3.858,1.139,5.348,4.968,6.372,0,1.02-.041,2.079.009,3.132.074,1.565.994,2.042,2.308,1.2,1.631-1.051,3.233-2.147,5.015-3.336v9.137c-.931-.837-1.728-1.637-2.609-2.33a5.575,5.575,0,0,0-7.389,8.331c1.721,1.789,3.518,3.505,5.241,5.292.274.284.584.935.452,1.135-.458.692-.33,1.906-1.706,1.869-2.615-.07-5.233-.02-7.849-.019-2.346,0-2.346,0-1.984,2.513h9.63l1.082,7.271M92.7,87.248H90.247V89.28H92.7Z" transform="translate(-54.466 -20.431)" fill="#f6f6f6"/>
          <path id="Trazado_212266" data-name="Trazado 212266" d="M29.037,37.626c-1.721-1.145-3.187-2.2-4.733-3.112a4.755,4.755,0,0,0-2.206-.668c-3.144-.072-6.29-.022-9.436-.034-2.437-.009-3.26-.835-3.264-3.29q-.017-8.968-.009-17.937c0-2.507.848-3.374,3.325-3.378q11.43-.015,22.861,0c2.53,0,3.31.8,3.31,3.338q0,9.1,0,18.2c0,2.184-.848,3.044-3.037,3.072-1.55.02-3.1,0-4.652.006-1.871.011-2.147.292-2.156,2.16,0,.441,0,.881,0,1.64M29.043,18.9A11.773,11.773,0,0,0,29,16.215a8.187,8.187,0,0,0-1.271-2.964,4.176,4.176,0,0,0-4.531-1.37c-1.579.729-1.59,2.185-1.568,3.632,0,.089,0,.177,0,.266,0,2.268-.979,3.227-3.291,3.227-.753,0-1.507.022-2.259,0-1.214-.042-1.795.484-1.782,1.736.029,2.967.035,5.934,0,8.9-.015,1.24.521,1.783,1.742,1.781,4.962-.009,9.924.025,14.885-.01a3.024,3.024,0,0,0,3.126-3.226c.022-1.328,0-2.657,0-3.985,0-4.5-.311-4.844-5.013-5.3" transform="translate(-6.883 -6.747)" fill="#ece5f7"/>
          <path id="Trazado_212267" data-name="Trazado 212267" d="M171.382,72.127c0-.909-.039-1.561.009-2.206.091-1.227-.574-1.646-1.671-1.719-2.676-.18-3.2-.736-3.2-3.411q-.006-7.707.011-15.414c.007-2.429.84-3.261,3.279-3.266q10.235-.018,20.47,0c2.429,0,3.256.851,3.259,3.279q.011,7.773,0,15.546c0,2.588-.693,3.261-3.317,3.265-3.766.005-7.534-.059-11.3.042a6.748,6.748,0,0,0-2.945.879c-1.529.843-2.938,1.9-4.6,3m8.66-20.144a5.7,5.7,0,0,0-.972-.748,12,12,0,0,0-3.343-1.388c-2.211-.268-4.113,1.131-5.081,3.325a5.614,5.614,0,0,0,1.241,6.482c2.359,2.075,4.881,3.968,7.386,5.87a1.524,1.524,0,0,0,1.426.068,97.106,97.106,0,0,0,7.844-6.346c2.12-2.017,1.775-5.824-.346-7.939-2.036-2.031-4.826-2.029-7.29,0-.268.221-.549.428-.864.674" transform="translate(-122.105 -33.806)" fill="#e8e8e8"/>
          <path id="Trazado_212268" data-name="Trazado 212268" d="M28.973,175.132c0,.605,0,.949,0,1.293.015,2.349.2,2.526,2.606,2.527,1.506,0,3.013-.019,4.519.006a2.427,2.427,0,0,1,2.718,2.7q.025,4.65,0,9.3a2.4,2.4,0,0,1-2.726,2.667q-11.962.014-23.923,0c-1.86,0-2.794-.863-2.827-2.737q-.08-4.582,0-9.167c.031-1.908.984-2.758,2.947-2.765,3.19-.011,6.381.047,9.568-.038a5.411,5.411,0,0,0,2.433-.743c1.526-.875,2.961-1.908,4.687-3.042m-.062,7.641H12v2.2H28.911Zm7.683,4.755H21.859v2.525H36.594Zm-24.586,2.488h7.019V187.5H12.008Zm24.561-7.259H31.662V185h4.906Z" transform="translate(-6.819 -128.42)" fill="#deeffb"/>
          <rect id="Rectángulo_52505" data-name="Rectángulo 52505" width="2.456" height="2.032" transform="translate(35.781 66.817)" fill="#12263f"/>
          <path id="Trazado_212269" data-name="Trazado 212269" d="M42.547,25.635c4.7.454,5.013.8,5.013,5.3,0,1.329.018,2.657,0,3.986a3.024,3.024,0,0,1-3.126,3.226c-4.961.035-9.923,0-14.885.01-1.221,0-1.757-.541-1.742-1.781.037-2.967.031-5.934,0-8.9-.012-1.252.568-1.778,1.782-1.736.752.026,1.506,0,2.259,0,2.312,0,3.29-.959,3.291-3.227,0-.089,0-.177,0-.266-.023-1.447-.011-2.9,1.568-3.632a4.176,4.176,0,0,1,4.531,1.37,8.189,8.189,0,0,1,1.271,2.964,11.774,11.774,0,0,1,.041,2.684m-4.834-4.654a13.136,13.136,0,0,0,.011,1.692,4.013,4.013,0,0,1-1.645,4.056c-.33.249-.743.67-.752,1.02-.064,2.586-.035,5.175-.035,7.752h9.687c0-2.2.033-4.311-.042-6.422-.009-.265-.58-.7-.914-.727a27.85,27.85,0,0,0-3.847-.016c-1.087.077-1.456-.34-1.316-1.363.047-.343.046-.693.072-1.117l1.107-.2c.29-3.3-.182-4.288-2.326-4.677M32.624,28.4H30.345v7.127h2.279Z" transform="translate(-20.386 -13.483)" fill="#12263f"/>
          <path id="Trazado_212270" data-name="Trazado 212270" d="M189.962,62.108c.316-.245.6-.453.864-.674,2.463-2.031,5.253-2.032,7.29,0,2.121,2.115,2.466,5.922.346,7.939a97.168,97.168,0,0,1-7.844,6.346,1.524,1.524,0,0,1-1.426-.068c-2.5-1.9-5.027-3.795-7.386-5.87a5.614,5.614,0,0,1-1.241-6.482c.968-2.194,2.869-3.593,5.081-3.325a11.994,11.994,0,0,1,3.343,1.388,5.689,5.689,0,0,1,.972.748m0,11c2.076-1.621,4.036-3.139,5.976-4.68a4.155,4.155,0,0,0,.78-.9,3.448,3.448,0,0,0-.44-4.362c-1.06-.988-2.445-.981-3.829.183-2.724,2.292-2.433,2.108-5.008-.039a2.755,2.755,0,0,0-3.3-.5,3.081,3.081,0,0,0-1.456,3.306,4.583,4.583,0,0,0,1.263,2.242c1.906,1.646,3.947,3.136,6.017,4.751" transform="translate(-132.025 -43.931)" fill="#12263f"/>
          <rect id="Rectángulo_52506" data-name="Rectángulo 52506" width="16.909" height="2.201" transform="translate(5.183 54.353)" fill="#12263f"/>
          <rect id="Rectángulo_52507" data-name="Rectángulo 52507" width="14.735" height="2.525" transform="translate(15.04 59.109)" fill="#12263f"/>
          <rect id="Rectángulo_52508" data-name="Rectángulo 52508" width="7.019" height="2.515" transform="translate(5.189 59.082)" fill="#12263f"/>
          <rect id="Rectángulo_52509" data-name="Rectángulo 52509" width="4.906" height="2.246" transform="translate(24.843 54.338)" fill="#12263f"/>
          <path id="Trazado_212271" data-name="Trazado 212271" d="M58.286,28.111c2.144.388,2.616,1.378,2.326,4.677l-1.107.2c-.026.424-.025.773-.072,1.117-.14,1.023.229,1.44,1.316,1.363a27.85,27.85,0,0,1,3.847.016c.334.023.9.463.914.727.075,2.11.042,4.225.042,6.422H55.866c0-2.577-.029-5.165.034-7.752.009-.35.422-.771.752-1.02A4.013,4.013,0,0,0,58.3,29.8a13.136,13.136,0,0,1-.011-1.692" transform="translate(-40.96 -20.613)" fill="#eeac3a"/>
          <rect id="Rectángulo_52510" data-name="Rectángulo 52510" width="2.279" height="7.127" transform="translate(9.958 14.921)" fill="#eeac3a"/>
          <path id="Trazado_212272" data-name="Trazado 212272" d="M196.99,80.11c-2.071-1.615-4.112-3.1-6.017-4.751a4.583,4.583,0,0,1-1.263-2.242,3.081,3.081,0,0,1,1.456-3.306,2.755,2.755,0,0,1,3.3.5c2.576,2.147,2.285,2.331,5.008.039,1.383-1.164,2.769-1.171,3.829-.183a3.448,3.448,0,0,1,.44,4.362,4.156,4.156,0,0,1-.78.9c-1.941,1.541-3.9,3.059-5.976,4.68" transform="translate(-139.05 -50.929)" fill="#7f4fc7"/>
        </g>
      </g>
    </g>
  </g>
</svg>
