<svg xmlns="http://www.w3.org/2000/svg" xmlns:xlink="http://www.w3.org/1999/xlink" width="53" height="53" viewBox="0 0 53 53">
  <defs>
    <clipPath id="clip-path">
      <rect id="Rectángulo_52681" data-name="Rectángulo 52681" width="53" height="53" fill="#12263f"/>
    </clipPath>
  </defs>
  <g id="Grupo_179447" data-name="Grupo 179447" transform="translate(1369 8884)">
    <g id="Grupo_175699" data-name="Grupo 175699" transform="translate(-1369 -8884)">
      <g id="Grupo_171313" data-name="Grupo 171313" clip-path="url(#clip-path)">
        <path id="Trazado_212448" data-name="Trazado 212448" d="M11.1,53.115A3.725,3.725,0,0,1,8.71,49.109c.1-2.513.03-5.033.02-7.55,0-.734.115-1.411,1.009-1.42s1.025.7,1.026,1.412c0,2.6-.006,5.191.007,7.787.007,1.459.26,1.707,1.74,1.708q18.406.006,36.811,0c1.425,0,1.718-.233,1.719-1.477q.012-18.759,0-37.518a5.369,5.369,0,0,0-.077-.545H47.981c-.9,0-1.809.006-2.714,0-2.5-.019-3.646-1.179-3.657-3.712-.008-1.845,0-3.689,0-5.725H40.3q-13.8,0-27.608,0c-1.81,0-2.165.471-1.762,2.321.771-.059,1.545-.108,2.317-.178.986-.09,1.458.306,1.452,1.338-.021,4.011-.016,8.023,0,12.034,0,.884-.394,1.3-1.276,1.3-4.051,0-8.1.019-12.152-.033-.425-.005-.845-.44-1.268-.676V16.525a5.83,5.83,0,0,0,.187-.662,13.356,13.356,0,0,1,7.772-10.4,1.156,1.156,0,0,0,.776-1.345A3.627,3.627,0,0,1,11.1,0H42.964L53.115,10.151v40.6l-2.361,2.361Zm1.547-36.363V6.414c-4.9-.26-10.52,5.326-10.413,10.338ZM43.709,3.734c0,1.651-.044,3.262.04,4.866a1.2,1.2,0,0,0,.856.785c1.571.081,3.149.037,4.8.037L43.709,3.734" fill="#12263f"/>
        <path id="Trazado_212449" data-name="Trazado 212449" d="M28.543,46.13V44.7c0-3.227.012-6.453-.006-9.679-.006-.989.285-1.531,1.418-1.518A13.679,13.679,0,1,1,16.6,51.469a21.337,21.337,0,0,1-.7-3.8c-.161-1.105.37-1.563,1.492-1.551,3.226.036,6.452.013,9.678.013h1.467m9.842-6.415c-2.392,2.41-4.769,4.707-7.021,7.12a4.042,4.042,0,0,1-3.413,1.389c-2.435-.1-4.876-.027-7.315-.027H18.078C18.02,52.48,21.733,57,26.285,58.344a11.685,11.685,0,0,0,13.06-4.932,11.452,11.452,0,0,0-.96-13.7m-7.77,4.671,6.267-6.228a11.055,11.055,0,0,0-6.267-2.563Z" transform="translate(-12.129 -25.592)" fill="#12263f"/>
        <path id="Trazado_212450" data-name="Trazado 212450" d="M76.057,144.646a2.619,2.619,0,0,1,1.174-3.271,2.912,2.912,0,0,1,3.234.033,3.026,3.026,0,0,1,1.41,3.135,1.578,1.578,0,0,0,.382,1.1c.93,1.012,1.9,2,2.923,2.912a2.48,2.48,0,0,0,1.213.322c.223.035.509-.143.69-.059,1.28.6,1.921-.3,2.659-1.056,1.319-1.35,2.693-2.647,3.981-4.025a1.937,1.937,0,0,0,.453-1.3,3.12,3.12,0,0,1,1.749-3.3,3.088,3.088,0,0,1,3.566.709,3.152,3.152,0,0,1,.408,3.619,3.207,3.207,0,0,1-3.441,1.474,1.741,1.741,0,0,0-1.3.36c-1.629,1.538-3.212,3.128-4.758,4.751a1.657,1.657,0,0,0-.355,1.194,3.093,3.093,0,0,1-1.388,3.266,2.874,2.874,0,0,1-3.327-.038,3.036,3.036,0,0,1-1.324-3.281,1.659,1.659,0,0,0-.381-1.2,33.643,33.643,0,0,0-2.755-2.747,2.207,2.207,0,0,0-1.194-.279c-.262-.023-.589.218-.8.13-1.483-.633-2.216.414-3.043,1.284-.379.4-.755.8-1.168,1.167a1.8,1.8,0,0,0-.771,2.1,2.889,2.889,0,0,1-1.724,3.06,3.087,3.087,0,0,1-4.069-4.192,2.945,2.945,0,0,1,3.12-1.637,1.593,1.593,0,0,0,1.828-.588c.714-.784,1.527-1.479,2.229-2.273a7.293,7.293,0,0,0,.771-1.364m4.26-.692c-.734-.472-1.193-.994-1.54-.928a1.514,1.514,0,0,0-.917,1.073c-.04.249.622.854.969.855.392,0,.786-.5,1.488-1m-7.978,7.906c-.731-.453-1.153-.921-1.54-.894-.346.025-.962.666-.907.911a1.507,1.507,0,0,0,.98,1.005c.346.044.767-.5,1.467-1.022m14.674-1.433c-.474.721-.951,1.129-.935,1.516.014.345.636.978.879.93a1.513,1.513,0,0,0,1.038-.945c.055-.344-.482-.781-.982-1.5m11.716-8.438c-.712-.522-1.131-1.065-1.492-1.029a1.523,1.523,0,0,0-.98,1c-.059.221.563.866.908.89.393.028.82-.423,1.564-.861" transform="translate(-51.78 -106.071)" fill="#12263f"/>
        <path id="Trazado_212451" data-name="Trazado 212451" d="M150.383,63.128c-1.887,0-3.774-.01-5.66,0-.775.006-1.54-.132-1.537-1.044s.763-1.046,1.54-1.044q5.779.016,11.557,0c.756,0,1.516.071,1.516,1.044s-.769,1.039-1.52,1.038q-2.948,0-5.9,0" transform="translate(-109.385 -46.634)" fill="#12263f"/>
        <path id="Trazado_212452" data-name="Trazado 212452" d="M150.572,82.191h5.778c.705,0,1.429.062,1.457.975.03.967-.68,1.1-1.458,1.1q-5.837-.007-11.674,0c-.792,0-1.508-.191-1.477-1.1.029-.846.748-.985,1.478-.981,1.965.01,3.931,0,5.9,0" transform="translate(-109.393 -62.786)" fill="#12263f"/>
        <path id="Trazado_212453" data-name="Trazado 212453" d="M146.933,105.274c-.786,0-1.572-.013-2.357,0-.733.016-1.364-.283-1.257-1.022a1.588,1.588,0,0,1,1.163-.974,37.618,37.618,0,0,1,5.062,0c.424.029.808.64,1.21.983-.409.336-.78.877-1.236.962a14.241,14.241,0,0,1-2.585.045" transform="translate(-109.477 -78.836)" fill="#12263f"/>
        <path id="Trazado_212454" data-name="Trazado 212454" d="M188.71,104.613c-.6.472-1.017,1.032-1.318.975-.4-.075-.715-.627-1.066-.974.334-.321.648-.867,1.008-.9s.75.462,1.376.9" transform="translate(-142.341 -79.231)" fill="#12263f"/>
        <path id="Trazado_212455" data-name="Trazado 212455" d="M38.22,152.227c.464.635.956,1.014.936,1.364s-.549.676-.855,1.012c-.356-.331-.91-.616-1-1.01-.069-.29.463-.723.923-1.366" transform="translate(-28.488 -116.292)" fill="#12263f"/>
      </g>
    </g>
  </g>
</svg>
