<svg xmlns="http://www.w3.org/2000/svg" xmlns:xlink="http://www.w3.org/1999/xlink" width="62.878" height="62.906" viewBox="0 0 62.878 62.906">
  <defs>
    <clipPath id="clip-path">
      <rect id="Rectángulo_55928" data-name="Rectángulo 55928" width="62.878" height="62.906" transform="translate(0 0)" fill="#12263f"/>
    </clipPath>
  </defs>
  <g id="Grupo_179446" data-name="Grupo 179446" transform="translate(0 -0.003)">
    <g id="Grupo_175079" data-name="Grupo 175079" transform="translate(0 0.003)" clip-path="url(#clip-path)">
      <path id="Trazado_217328" data-name="Trazado 217328" d="M40.163,619.542H22.715v.374c0,1.615,0,3.23,0,4.846a1.3,1.3,0,0,1-1.21,1.314A1.277,1.277,0,0,1,20.11,625a10.262,10.262,0,0,1-.02-1.24q0-1.96,0-3.921v-.285H2.629v.679c0,1.5,0,3,0,4.505a1.3,1.3,0,0,1-1.085,1.329,1.3,1.3,0,0,1-1.483-.932,1.8,1.8,0,0,1-.052-.481c0-.949.013-1.9.012-2.846,0-1.136-.009-2.272-.018-3.408A1.323,1.323,0,0,1,.867,617a2.1,2.1,0,0,1,.643-.086c.843-.009,1.687,0,2.542,0a6.642,6.642,0,0,1,4-4.774,10.358,10.358,0,0,1-.475-1.053,5.607,5.607,0,0,1,1.254-6.011,4.1,4.1,0,0,1,2.006-1.138.373.373,0,0,0,.219-.179,6.512,6.512,0,0,1,3.374-3.315c.066-.029.128-.065.2-.1a5.476,5.476,0,0,1-.78-2.035,5.728,5.728,0,0,1,.572-3.723,4.676,4.676,0,0,1,2.416-2.255,4.129,4.129,0,0,1,4.587,1.068,5.767,5.767,0,0,1,.744,6.773c-.03.054-.06.11-.1.185a6.7,6.7,0,0,1,2.825,2.166,6.616,6.616,0,0,1,2.761-2.141,15.126,15.126,0,0,1-.637-1.762,5.513,5.513,0,0,1,.9-4.663,4.23,4.23,0,0,1,7.247.28,5.675,5.675,0,0,1,.054,6.005c-.016.028-.03.057-.058.11a6.726,6.726,0,0,1,2.829,2.169,6.632,6.632,0,0,1,2.754-2.137,14.45,14.45,0,0,1-.639-1.825,5.412,5.412,0,0,1,1.45-5.246,4.154,4.154,0,0,1,6.53.664,5.625,5.625,0,0,1,.227,6.266c-.016.028-.03.058-.052.1.209.1.42.2.625.306a6.548,6.548,0,0,1,2.93,3.082.39.39,0,0,0,.207.2,4.775,4.775,0,0,1,3.427,3.552,5.651,5.651,0,0,1-.549,4.484c-.028.049-.054.1-.09.166a6.648,6.648,0,0,1,4.017,4.784h2.59a1.335,1.335,0,0,1,1.464,1.464q0,3.129,0,6.258a1.314,1.314,0,0,1-1.008,1.417,1.289,1.289,0,0,1-1.6-1.116c-.028-.3-.014-.6-.015-.9q0-2.117,0-4.233v-.251H42.791v.265q0,2.458,0,4.915a1.3,1.3,0,0,1-1.289,1.358,1.314,1.314,0,0,1-1.338-1.366q0-2.435,0-4.87v-.306M15.51,612.132a6.682,6.682,0,0,1,2.834,2.166,6.741,6.741,0,0,1,2.829-2.17,5.742,5.742,0,0,1-.736-4.3,5.152,5.152,0,0,1,2.508-3.526,3.757,3.757,0,0,0-2.88-1.751c-1.042-.072-2.091-.034-3.137-.033a3.314,3.314,0,0,0-.675.076,3.909,3.909,0,0,0-2.5,1.7,5.678,5.678,0,0,1,1.761,7.835M39.948,604.3a5.686,5.686,0,0,1,1.768,7.832,6.691,6.691,0,0,1,2.822,2.163,6.686,6.686,0,0,1,2.828-2.168,5.775,5.775,0,0,1-.738-4.289,5.174,5.174,0,0,1,2.51-3.54,3.77,3.77,0,0,0-2.934-1.757c-1.035-.062-2.076-.033-3.114-.028a3.518,3.518,0,0,0-1.524.367,3.687,3.687,0,0,0-1.618,1.419m-13.106.006a5.1,5.1,0,0,1,2.5,3.525,5.682,5.682,0,0,1-.736,4.3,6.683,6.683,0,0,1,2.835,2.166,6.675,6.675,0,0,1,2.829-2.168c-1.644-2.615-.881-6.4,1.764-7.839a3.727,3.727,0,0,0-2.845-1.737c-1.082-.076-2.172-.036-3.259-.028a3.219,3.219,0,0,0-.814.123,3.881,3.881,0,0,0-2.275,1.66M16.766,616.9a.3.3,0,0,0,0-.076,3.762,3.762,0,0,0-3.28-2.492,29.168,29.168,0,0,0-3.063-.037,3.807,3.807,0,0,0-2.77,1.22A3.609,3.609,0,0,0,6.8,616.9Zm13.1,0c0-.035.009-.053,0-.066a3.766,3.766,0,0,0-3.255-2.5,29.011,29.011,0,0,0-3.09-.04,3.8,3.8,0,0,0-2.548,1,3.917,3.917,0,0,0-1.083,1.6Zm13.1,0a.154.154,0,0,0,0-.052,3.872,3.872,0,0,0-3.222-2.512c-1.06-.054-2.125-.049-3.188-.032a3.73,3.73,0,0,0-2.347.879A3.937,3.937,0,0,0,32.99,616.9Zm13.1,0a.776.776,0,0,0-.03-.128,3.765,3.765,0,0,0-3.224-2.431,30.672,30.672,0,0,0-3.087-.042,3.762,3.762,0,0,0-2,.587,3.939,3.939,0,0,0-1.633,2.013Zm-42.307-7.71a3.251,3.251,0,0,0-.392-1.673,1.646,1.646,0,0,0-2.864-.4,1.475,1.475,0,0,0-.145.195,3.144,3.144,0,0,0,0,3.508,1.609,1.609,0,0,0,2.7.21,2.968,2.968,0,0,0,.692-1.837M20.3,597.269a3,3,0,0,0-.657-1.939,1.568,1.568,0,0,0-2.49-.117,3.152,3.152,0,0,0-.068,4.038,1.581,1.581,0,0,0,2.558-.045,2.97,2.97,0,0,0,.657-1.938m9.185-.2a3.155,3.155,0,0,0,.733,2.224,1.549,1.549,0,0,0,2.2.23,3.087,3.087,0,0,0,.009-4.5A1.465,1.465,0,0,0,30.5,595a2.669,2.669,0,0,0-1.015,2.075m23.558,12.089a3.1,3.1,0,0,0-.567-1.921A1.585,1.585,0,0,0,50,606.9a3.1,3.1,0,0,0,.008,4.329,1.524,1.524,0,0,0,2.149,0,2.867,2.867,0,0,0,.885-2.064m-26.185-.006a3.2,3.2,0,0,0-.587-1.932,1.583,1.583,0,0,0-2.515-.278,3.105,3.105,0,0,0,.133,4.345,1.493,1.493,0,0,0,1.924.059,2.8,2.8,0,0,0,1.045-2.194M42.58,597.28a3.042,3.042,0,0,0,.663,1.937,1.582,1.582,0,0,0,2.543.044,3.17,3.17,0,0,0,.033-3.949,1.574,1.574,0,0,0-2.571.01,2.93,2.93,0,0,0-.669,1.957m-6.555,11.678a3.008,3.008,0,0,0,.912,2.289,1.525,1.525,0,0,0,2.166-.064,3.119,3.119,0,0,0,.1-4.159,1.538,1.538,0,0,0-2.389-.037,2.9,2.9,0,0,0-.789,1.97" transform="translate(0 -563.179)" fill="#12263f"/>
      <path id="Trazado_217329" data-name="Trazado 217329" d="M662.612,0c.79.066,1.588.086,2.369.208A6.122,6.122,0,0,1,668.5,1.836a6.057,6.057,0,0,1,1.567,2.918c.177.714.313,1.44.439,2.165a1.307,1.307,0,1,1-2.575.45c-.141-.69-.276-1.381-.435-2.066a3.043,3.043,0,0,0-2.676-2.464,13.753,13.753,0,0,0-3.829-.065,9.181,9.181,0,0,0-2.607.645,5.461,5.461,0,0,0-3.4,4.224,9.483,9.483,0,0,0,.064,4.008,5,5,0,0,0,.687,1.491c.639,1.005,1.336,1.974,2,2.96a11,11,0,0,1,1.726,3.435c.138.547.2,1.115.281,1.675a3.081,3.081,0,0,0,2.3,2.7,7.225,7.225,0,0,0,3.222.226,1.063,1.063,0,0,0,.855-.648c.284-.669.542-1.351.786-2.036a1.341,1.341,0,0,1,1.621-.888,1.272,1.272,0,0,1,.9,1.595,12.951,12.951,0,0,1-1.01,2.625,3.87,3.87,0,0,1-3.191,2.016,9.683,9.683,0,0,1-4.265-.487,5.546,5.546,0,0,1-3.795-4.587,6.771,6.771,0,0,0-.592-2.412c-.472-.8-.949-1.6-1.467-2.376a32.376,32.376,0,0,1-2.082-3.2,7.855,7.855,0,0,1-.783-2.961,13,13,0,0,1,.044-2.986,8.166,8.166,0,0,1,5.61-7A14.157,14.157,0,0,1,662.612,0" transform="translate(-620.419 -0.004)" fill="#12263f"/>
      <path id="Trazado_217330" data-name="Trazado 217330" d="M452.661,27.13a16.664,16.664,0,0,1-5.027,11.98c-.295.3-.6.592-.92.868a1.31,1.31,0,1,1-1.741-1.958,15.766,15.766,0,0,0,3.378-4.212,13.41,13.41,0,0,0,1.62-5.28,13.919,13.919,0,0,0-4.03-11.162c-.311-.33-.649-.634-.981-.944a1.315,1.315,0,0,1-.109-1.858,1.3,1.3,0,0,1,1.854-.11,18.742,18.742,0,0,1,2.482,2.666,16.756,16.756,0,0,1,3.04,6.323,16.073,16.073,0,0,1,.434,3.687" transform="translate(-422.861 -13.43)" fill="#12263f"/>
      <path id="Trazado_217331" data-name="Trazado 217331" d="M760.278,98.267a3.591,3.591,0,0,1,1.138,3.828,7.324,7.324,0,0,1-.188.754,2.241,2.241,0,0,1-2.074,1.6,3.782,3.782,0,0,1-2.732-.944,1.311,1.311,0,0,1-.2-1.85,1.339,1.339,0,0,1,1.854-.2c.208.154.444.272.667.406l.091-.053c.024-.342.057-.683.068-1.025a.54.54,0,0,0-.349-.512,3.751,3.751,0,0,0-.493-.2,1.614,1.614,0,0,1-1.286-1.5,1.987,1.987,0,0,1,1-1.9,4.4,4.4,0,0,1,.481-.232,1.852,1.852,0,0,0,1.121-1.591,6.843,6.843,0,0,0-.087-1.5.739.739,0,0,0-.784-.688,6.028,6.028,0,0,0-2.8.458,2.387,2.387,0,0,0-1.527,2.28,1.318,1.318,0,0,1-1.344,1.339,1.3,1.3,0,0,1-1.277-1.374,4.926,4.926,0,0,1,3.042-4.618,7.845,7.845,0,0,1,4.34-.666,3.177,3.177,0,0,1,2.787,2.283,5.821,5.821,0,0,1-.069,4.069,4.393,4.393,0,0,1-1.376,1.832" transform="translate(-714.948 -85.634)" fill="#12263f"/>
      <path id="Trazado_217332" data-name="Trazado 217332" d="M359.691,103.86a11.28,11.28,0,0,1-2.878,7.6,15.9,15.9,0,0,1-1.177,1.195,1.312,1.312,0,1,1-1.758-1.945,9.434,9.434,0,0,0,2.673-3.859,8.564,8.564,0,0,0-.57-7.23,9.717,9.717,0,0,0-2.1-2.6,1.307,1.307,0,0,1,.235-2.181,1.237,1.237,0,0,1,1.453.167,11.745,11.745,0,0,1,4.028,7.283c.038.264.072.53.087.8s0,.519,0,.778" transform="translate(-336.191 -90.064)" fill="#12263f"/>
      <path id="Trazado_217333" data-name="Trazado 217333" d="M266.759,180.31a6.625,6.625,0,0,1-2.3,5.148,1.3,1.3,0,0,1-1.869-.152,1.339,1.339,0,0,1,.2-1.867,3.786,3.786,0,0,0,.046-5.745,1.364,1.364,0,0,1-.486-1.453,1.289,1.289,0,0,1,2.051-.669,6.166,6.166,0,0,1,2.184,3.582c.091.458.145.924.18,1.156" transform="translate(-249.512 -166.745)" fill="#12263f"/>
    </g>
  </g>
</svg>
