<svg xmlns="http://www.w3.org/2000/svg" xmlns:xlink="http://www.w3.org/1999/xlink" width="98.204" height="98.204" viewBox="0 0 98.204 98.204">
  <defs>
    <linearGradient id="linear-gradient" x1="0.5" x2="0.5" y2="1" gradientUnits="objectBoundingBox">
      <stop offset="0" stop-color="#fdbe41"/>
      <stop offset="1" stop-color="#d09f40"/>
    </linearGradient>
    <clipPath id="clip-path">
      <rect id="Rect치ngulo_57008" data-name="Rect치ngulo 57008" width="57.269" height="57.454" fill="#12263f"/>
    </clipPath>
  </defs>
  <g id="Grupo_179464" data-name="Grupo 179464" transform="translate(-1135.332 -2017.814)">
    <path id="Trazado_197541" data-name="Trazado 197541" d="M49.1,0A49.1,49.1,0,1,1,0,49.1,49.1,49.1,0,0,1,49.1,0Z" transform="translate(1135.332 2017.814)" fill="url(#linear-gradient)"/>
    <g id="Grupo_176847" data-name="Grupo 176847" transform="translate(1156.057 2039.018)">
      <g id="Grupo_176846" data-name="Grupo 176846" clip-path="url(#clip-path)">
        <path id="Trazado_219955" data-name="Trazado 219955" d="M38.284,57.454c-.013-1.495-.029-2.989-.038-4.484a3.065,3.065,0,0,0-.992-2.462,1.958,1.958,0,0,0-2.444-.337C33.4,50.855,32,51.561,30.568,52.2c-.911.41-.93.367-.93,1.377v3.732H27.726c0-1.411-.018-2.808.01-4.2a.754.754,0,0,0-.571-.836c-1.522-.664-3.008-1.412-4.5-2.135a2.211,2.211,0,0,0-3.187,1.095,4.268,4.268,0,0,0-.35,1.62c-.049,1.438-.021,2.879-.025,4.319a.684.684,0,0,1-.041.142H17.141a55.875,55.875,0,0,1,.218-5.771A4.535,4.535,0,0,1,21.8,47.811a6.442,6.442,0,0,0,1.444-.159,3.288,3.288,0,0,0,1.289-.712c.483-.469.366-.836-.227-1.153a9.7,9.7,0,0,1-4.932-10.849.986.986,0,0,0-.171-.742A8.773,8.773,0,0,1,17.212,29c-.048-.915.29-1.277,1.2-1.279q3.844-.007,7.688,0h.627V25.842c-.175-.011-.337-.029-.5-.029q-6.229,0-12.457,0A4.065,4.065,0,0,0,9.684,28.69a3.834,3.834,0,0,0,3.309,4.739,3.9,3.9,0,0,1,.718.107.834.834,0,0,1,.6.956.783.783,0,0,1-.746.839c-3.342.07-6.628-.183-9.542-2.068A8.6,8.6,0,0,1,.121,26.7a18.62,18.62,0,0,1-.115-2.182Q-.007,14.393,0,4.267C0,1.548,1.556,0,4.286,0Q17.3,0,30.323,0a3.772,3.772,0,0,1,3.946,2.909,11.8,11.8,0,0,1,.148,2.116c.011.2,0,.409,0,.7h18.8A3.661,3.661,0,0,1,56.895,7.9a5,5,0,0,1,.35,1.955c.029,4.507.017,9.014.015,13.52,0,2.973.034,5.948-.023,8.92A9.434,9.434,0,0,1,55.1,38.413a9.668,9.668,0,0,1-4.461,2.881A21.029,21.029,0,0,1,44,42.157a.927.927,0,0,1-1.063-.965q.011-.862,1.031-.934a3.8,3.8,0,0,0,.02-7.6c-2.182-.086-4.369-.019-6.62-.019a14.172,14.172,0,0,1,.515,1.416c1.141,4.578-.307,9.648-5.013,11.939-.352.171-.428.439-.264.655a2.845,2.845,0,0,0,1.027.94,5.274,5.274,0,0,0,1.694.308,4.779,4.779,0,0,1,4.834,5.077c.016,1.495.023,2.99.034,4.485ZM8.645,32.948a.307.307,0,0,0-.013-.109c-.061-.115-.134-.224-.2-.339a5.369,5.369,0,0,1,.142-5.88A5.9,5.9,0,0,1,13.812,23.9q8.247-.013,16.494,0a1.954,1.954,0,0,0,2.194-2.17c.01-.823,0-1.645,0-2.468q0-7.544,0-15.089a1.982,1.982,0,0,0-2.273-2.262q-13.072,0-26.144,0a1.936,1.936,0,0,0-2.171,2.13q0,10.349,0,20.7a10.556,10.556,0,0,0,.564,3.693,7.384,7.384,0,0,0,6.166,4.515M48.56,39.763c.588-.153,1.043-.25,1.484-.388a6.843,6.843,0,0,0,5.116-5.259,13.788,13.788,0,0,0,.279-2.836c.022-7.122.013-14.244.012-21.366a1.994,1.994,0,0,0-2.27-2.27q-9.059,0-18.117,0h-.646v.8c0,4.393.007,8.786,0,13.179a3.876,3.876,0,0,1-4.2,4.192H28.715V27.7c.174.009.3.023.433.02a8.736,8.736,0,0,1,6.68,2.638,1.07,1.07,0,0,0,.7.233c2.281.017,4.562-.015,6.843.024a9.3,9.3,0,0,1,2.318.309,5.715,5.715,0,0,1,4.023,5.47,6.059,6.059,0,0,1-1.148,3.368M21.1,36.09a7.876,7.876,0,0,0,.855,4.838,7.57,7.57,0,0,0,3.977,3.536,1.237,1.237,0,0,1,.834,1.294,3.516,3.516,0,0,1-1.82,3.349c2.531,1.96,5.273,1.95,7.44-.018a3.557,3.557,0,0,1-1.817-3.474,1.318,1.318,0,0,1,.83-1.25,12.457,12.457,0,0,0,2.58-1.63A7.072,7.072,0,0,0,36.3,37.275h-.7c-3.141,0-6.283.013-9.424-.01a9.679,9.679,0,0,1-2.221-.221c-.949-.233-1.862-.615-2.851-.953m15.073-.727A6.389,6.389,0,0,0,30.3,29.717c-3.669-.209-7.359-.049-11.042-.049a6.591,6.591,0,0,0,6.276,5.677c2.9.05,5.8.016,8.7.019h1.942" transform="translate(0 0)" fill="#12263f"/>
        <path id="Trazado_219956" data-name="Trazado 219956" d="M73.779,51.113c-.282.807-.49.963-1.277.966q-1.654.007-3.309,0c-.9-.006-1.2-.319-1.2-1.228q0-4.99,0-9.981c0-.9.317-1.219,1.21-1.227,1.066-.009,2.131,0,3.2,0,.877,0,1.077.138,1.38.921.673-.1.891-.34.908-1.091.022-.953-.022-1.908.029-2.859a2.841,2.841,0,0,1,4.407-2.241,2.894,2.894,0,0,1,1.307,2.583c.009.841,0,1.682,0,2.523.009.8.317,1.1,1.122,1.14a8.715,8.715,0,0,1,1.609.136,2.593,2.593,0,0,1,2,2.477c.04,1.756.047,3.514,0,5.269a2.623,2.623,0,0,1-2.546,2.572c-2.429.059-4.86.032-7.29.041-.5,0-1.008,0-1.542,0m-.039-1.931c2.934,0,5.812.01,8.69-.009.555,0,.831-.36.838-.982.015-1.309.006-2.617.006-3.926,0-1.645-.064-1.711-1.687-1.737a2.855,2.855,0,0,1-3.072-3.086c-.009-.823.009-1.645-.006-2.468-.013-.742-.358-1.138-.954-1.142s-.941.384-.95,1.13c-.011.841.007,1.683-.006,2.524a2.818,2.818,0,0,1-1.709,2.782,7.607,7.607,0,0,1-1.149.308Zm-3.8.959h1.823V41.571H69.94Z" transform="translate(-60.344 -30.09)" fill="#12263f"/>
        <path id="Trazado_219957" data-name="Trazado 219957" d="M207.094,34.338l.042.894.882.064v1.849l-.883.063-.042.877h-1.866l-.053-.865-.916-.084V35.307l.917-.083.047-.886Z" transform="translate(-181.298 -30.478)" fill="#12263f"/>
        <path id="Trazado_219958" data-name="Trazado 219958" d="M334.643,96.448c-.659.065-.9.328-.911,1.077-.018.934.012,1.869-.019,2.8a2.641,2.641,0,0,1-1.677,2.5,2.8,2.8,0,0,1-3.09-.478A2.85,2.85,0,0,1,328,100.1c-.01-.841,0-1.682,0-2.523-.006-.871-.3-1.158-1.179-1.2a7.961,7.961,0,0,1-1.553-.138,2.562,2.562,0,0,1-1.991-2.418c-.05-1.773-.06-3.55,0-5.323a2.637,2.637,0,0,1,2.648-2.59c2.654-.042,5.308-.019,7.962-.024h.776c.139-.906.787-1,1.534-.981,1.009.023,2.019,0,3.028.008.9.008,1.218.325,1.219,1.223q.007,4.99,0,9.979c0,.928-.315,1.231-1.26,1.234q-1.6.006-3.2,0c-.84,0-1.026-.131-1.333-.9m.026-8.611a2.536,2.536,0,0,0-.3-.037c-2.73,0-5.461-.007-8.191,0-.712,0-1.025.313-1.036,1.032-.019,1.29-.007,2.58-.008,3.87,0,1.686.033,1.72,1.719,1.765a2.85,2.85,0,0,1,3.045,3.113c.005.86-.018,1.721.011,2.58a.931.931,0,0,0,.974,1c.58-.012.912-.371.922-1.038.014-.879-.01-1.758.008-2.636a2.816,2.816,0,0,1,2.6-2.981,1.527,1.527,0,0,0,.254-.087Zm1.961,7.56h1.858V86.866H336.63Z" transform="translate(-286.893 -75.359)" fill="#12263f"/>
        <rect id="Rect치ngulo_57007" data-name="Rect치ngulo 57007" width="3.757" height="1.841" transform="translate(35.406 24.887)" fill="#12263f"/>
      </g>
    </g>
  </g>
</svg>
