<svg xmlns="http://www.w3.org/2000/svg" xmlns:xlink="http://www.w3.org/1999/xlink" width="98.204" height="98.204" viewBox="0 0 98.204 98.204">
  <defs>
    <linearGradient id="linear-gradient" x1="0.5" x2="0.5" y2="1" gradientUnits="objectBoundingBox">
      <stop offset="0" stop-color="#fdbe41"/>
      <stop offset="1" stop-color="#d09f40"/>
    </linearGradient>
    <clipPath id="clip-path">
      <rect id="Rectángulo_57006" data-name="Rectángulo 57006" width="62.621" height="62.607" fill="#12263f"/>
    </clipPath>
  </defs>
  <g id="Grupo_179462" data-name="Grupo 179462" transform="translate(-601.684 -2017.814)">
    <circle id="Elipse_6020" data-name="Elipse 6020" cx="49.102" cy="49.102" r="49.102" transform="translate(601.684 2017.814)" fill="url(#linear-gradient)"/>
    <g id="Grupo_176845" data-name="Grupo 176845" transform="translate(619.138 2035.192)">
      <g id="Grupo_176844" data-name="Grupo 176844" clip-path="url(#clip-path)">
        <path id="Trazado_219953" data-name="Trazado 219953" d="M0,40.106a1.681,1.681,0,0,1,1.779-.987c1.1.037,2.2.031,3.3-.008a1.118,1.118,0,0,0,.743-.358,9.134,9.134,0,0,1,7.029-3.528c.911-.033,1.825-.005,2.8-.005,0-1.11.056-2.167-.011-3.216a4.092,4.092,0,0,1,4.607-4.618c.18.013.363,0,.719,0-.3-.279-.5-.457-.693-.645a15.648,15.648,0,0,1,19.1-24.5,1.855,1.855,0,0,0,1.068.382c3.3-.031,6.606-.077,9.9.055a8.431,8.431,0,0,1,6.372,3.411.965.965,0,0,0,.865.424c1.059-.023,2.12-.009,3.18-.008,1.434,0,1.852.422,1.852,1.859v.745h-4.23l.365,2.578H56.2a21.524,21.524,0,0,0-.55-2.261,6.337,6.337,0,0,0-5.723-4.178c-3.158-.057-6.319-.042-9.478-.017a2.588,2.588,0,1,0,0,5.175c3.648.027,7.3.011,10.946.012h.753V13.05h-5.4a15.958,15.958,0,0,1-2.727,11.738c.368,0,.621,0,.874,0,1.732-.014,3.471.066,5.195-.063a6.4,6.4,0,0,0,5.96-5.864c.02-.18.05-.358.08-.572H58.75L58.4,20.863h4.181a10.834,10.834,0,0,1-.014,1.544,1.266,1.266,0,0,1-1.423,1.065c-1.223.013-2.446-.012-3.669.018a.958.958,0,0,0-.642.317,9.131,9.131,0,0,1-7.373,3.578c-2.426.017-4.851-.009-7.277.019a1.608,1.608,0,0,0-.914.335,16.228,16.228,0,0,1-6.654,3.2c-.179.04-.359.076-.537.118a.978.978,0,0,0-.162.086v.634q0,4.127,0,8.254c0,1.259-.432,1.687-1.686,1.694-.652,0-1.3.012-1.957,0a.5.5,0,0,0-.573.394A4.956,4.956,0,0,1,25.007,45.6c-2.035.089-4.076.047-6.114.026-.51-.005-.651.142-.648.649.02,3.994.009,7.989.012,11.984,0,1.261.476,1.742,1.729,1.742q13.942,0,27.885,0c1.229,0,1.693-.47,1.693-1.7q0-13.726,0-27.452v-.82h2.627v.79q0,13.42,0,26.841c0,2.958-.593,3.855-3.271,4.946H18.957a4.325,4.325,0,0,1-3-2.372c-.058-.125-.322-.211-.494-.217-.692-.024-1.385-.009-2.077-.011a9.237,9.237,0,0,1-7.6-3.606.969.969,0,0,0-.663-.293c-1.14-.029-2.281-.026-3.421-.009A1.552,1.552,0,0,1,0,55.025v-1.59H4.219L3.87,50.893h2.59a.664.664,0,0,1,.054.134c.024.182.04.364.064.546A6.43,6.43,0,0,0,10.612,56.9c1.606.715,3.312.422,4.993.474V45.609h-2.5V43.041h.719q5.35,0,10.7,0a2.617,2.617,0,1,0,.078-5.217c-3.832-.02-7.664-.041-11.5,0a6.5,6.5,0,0,0-6.445,5.215c-.089.414-.119.84-.179,1.277H3.867L4.232,41.7H0ZM36.95,3.933c-.135-.072-.22-.123-.31-.164A12.742,12.742,0,0,0,29.308,2.8a13,13,0,1,0,14.875,10.75c-.062-.386-.2-.513-.579-.5-.957.022-1.915.017-2.872.005a5.187,5.187,0,0,1-5.31-3.92A5.167,5.167,0,0,1,36.95,3.933M31.284,31.295a16.293,16.293,0,0,1-6.441-1.385V35.2a5.247,5.247,0,0,1,4.9,3.654.478.478,0,0,0,.335.26c.4.033.8.012,1.2.012Zm-9.139-1.286c-.918,0-1.77-.041-2.616.012a1.142,1.142,0,0,0-1.211,1.131c-.059,1.332-.017,2.668-.017,4.021h3.844Z" transform="translate(0 0)" fill="#12263f"/>
        <rect id="Rectángulo_57004" data-name="Rectángulo 57004" width="7.771" height="2.53" transform="translate(39.155 49.602)" fill="#12263f"/>
        <rect id="Rectángulo_57005" data-name="Rectángulo 57005" width="7.768" height="2.515" transform="translate(39.176 54.821)" fill="#12263f"/>
        <path id="Trazado_219954" data-name="Trazado 219954" d="M210.2,53.47v2.558h1.233v2.628h-.621c-1.467,0-2.934-.016-4.4.006a1.288,1.288,0,0,0-1.332,1.753,1.25,1.25,0,0,0,1.294.822c1.589-.013,3.179-.019,4.768,0a4,4,0,0,1,4.141,3.024,3.9,3.9,0,0,1-3.389,4.789c-.284.022-.57.026-.855.032-.259.005-.518,0-.846,0v2.587h-2.608V69.048c-.631,0-1.2.036-1.758-.006a3.768,3.768,0,0,1-3.39-3.833h2.477c.443,1.114.684,1.275,1.914,1.275,1.508,0,3.016.016,4.523-.006a1.288,1.288,0,0,0,1.338-1.749A1.247,1.247,0,0,0,211.4,63.9c-1.569.012-3.138.016-4.707,0a4.056,4.056,0,0,1-3.886-2.166,3.882,3.882,0,0,1,3.185-5.652c.5-.032,1.007,0,1.58,0V53.47Z" transform="translate(-177.575 -46.919)" fill="#12263f"/>
      </g>
    </g>
  </g>
</svg>
