<svg xmlns="http://www.w3.org/2000/svg" xmlns:xlink="http://www.w3.org/1999/xlink" width="777.15" height="611.414" viewBox="0 0 777.15 611.414">
  <defs>
    <clipPath id="clip-path">
      <rect id="Rectángulo_56925" data-name="Rectángulo 56925" width="774.789" height="611.414" fill="#7f4fc7"/>
    </clipPath>
    <clipPath id="clip-path-2">
      <rect id="Rectángulo_56915" data-name="Rectángulo 56915" width="122.6" height="108.219" fill="#12263f"/>
    </clipPath>
    <clipPath id="clip-path-3">
      <rect id="Rectángulo_56917" data-name="Rectángulo 56917" width="406.579" height="111.822" fill="#12263f"/>
    </clipPath>
    <clipPath id="clip-path-4">
      <rect id="Rectángulo_56918" data-name="Rectángulo 56918" width="548.576" height="111.821" fill="#12263f"/>
    </clipPath>
    <clipPath id="clip-path-5">
      <rect id="Rectángulo_56919" data-name="Rectángulo 56919" width="690.573" height="111.822" fill="#12263f"/>
    </clipPath>
    <linearGradient id="linear-gradient" x1="0.5" x2="0.5" y2="1" gradientUnits="objectBoundingBox">
      <stop offset="0" stop-color="#116eb9"/>
      <stop offset="1" stop-color="#1894f6"/>
    </linearGradient>
  </defs>
  <g id="Grupo_179459" data-name="Grupo 179459" transform="translate(-404.85 -824.109)">
    <g id="Grupo_176663" data-name="Grupo 176663" transform="translate(404.85 824.109)">
      <g id="Grupo_176664" data-name="Grupo 176664" transform="translate(0)">
        <g id="Grupo_176661" data-name="Grupo 176661">
          <g id="Grupo_176660" data-name="Grupo 176660" clip-path="url(#clip-path)">
            <g id="Grupo_176632" data-name="Grupo 176632" transform="translate(368.203 6.212)" style="mix-blend-mode: multiply;isolation: isolate">
              <g id="Grupo_176631" data-name="Grupo 176631">
                <g id="Grupo_176630" data-name="Grupo 176630" clip-path="url(#clip-path-2)">
                  <path id="Trazado_219715" data-name="Trazado 219715" d="M510.82,116.79H395.442a3.6,3.6,0,0,1-3.129-5.4L450.048,10.366a3.546,3.546,0,0,1,6.166,0l57.736,101.028a3.6,3.6,0,0,1-3.13,5.4" transform="translate(-391.831 -8.571)" fill="#12263f"/>
                </g>
              </g>
            </g>
            <g id="Grupo_176635" data-name="Grupo 176635" transform="translate(297.212 126.855)" style="mix-blend-mode: multiply;isolation: isolate">
              <g id="Grupo_176634" data-name="Grupo 176634" transform="translate(0 0)">
                <g id="Grupo_176665" data-name="Grupo 176665">
                  <path id="Trazado_219716" data-name="Trazado 219716" d="M554.852,286.849H297.492a3.6,3.6,0,0,1-3.13-5.4L352.09,180.425a10.729,10.729,0,0,1,9.3-5.4H490.958a10.729,10.729,0,0,1,9.3,5.4l57.728,101.028a3.6,3.6,0,0,1-3.13,5.4" transform="translate(-293.881 -175.028)" fill="#12263f"/>
                </g>
              </g>
            </g>
            <g id="Grupo_176638" data-name="Grupo 176638" transform="translate(226.213 251.101)" style="mix-blend-mode: multiply;isolation: isolate">
              <g id="Grupo_176637" data-name="Grupo 176637">
                <g id="Grupo_176636" data-name="Grupo 176636" clip-path="url(#clip-path-3)">
                  <path id="Trazado_219717" data-name="Trazado 219717" d="M598.888,458.279H199.531a3.605,3.605,0,0,1-3.13-5.4l57.728-101.027a10.729,10.729,0,0,1,9.3-5.4H534.995a10.729,10.729,0,0,1,9.3,5.4l57.728,101.027a3.605,3.605,0,0,1-3.13,5.4" transform="translate(-195.92 -346.457)" fill="#12263f"/>
                </g>
              </g>
            </g>
            <g id="Grupo_176641" data-name="Grupo 176641" transform="translate(155.214 375.347)" style="mix-blend-mode: multiply;isolation: isolate">
              <g id="Grupo_176640" data-name="Grupo 176640">
                <g id="Grupo_176639" data-name="Grupo 176639" clip-path="url(#clip-path-4)">
                  <path id="Trazado_219718" data-name="Trazado 219718" d="M642.925,629.707H101.57a3.6,3.6,0,0,1-3.13-5.4l57.728-101.028a10.729,10.729,0,0,1,9.3-5.4H579.032a10.729,10.729,0,0,1,9.3,5.4L646.054,624.31a3.6,3.6,0,0,1-3.13,5.4" transform="translate(-97.959 -517.886)" fill="#12263f"/>
                </g>
              </g>
            </g>
            <g id="Grupo_176644" data-name="Grupo 176644" transform="translate(84.216 499.592)" style="mix-blend-mode: multiply;isolation: isolate">
              <g id="Grupo_176643" data-name="Grupo 176643">
                <g id="Grupo_176642" data-name="Grupo 176642" clip-path="url(#clip-path-5)">
                  <path id="Trazado_219719" data-name="Trazado 219719" d="M686.963,801.135H3.61a3.607,3.607,0,0,1-3.13-5.4L58.216,694.711a10.729,10.729,0,0,1,9.3-5.4h555.55a10.729,10.729,0,0,1,9.3,5.4l57.736,101.028a3.6,3.6,0,0,1-3.13,5.4" transform="translate(0 -689.314)" fill="#12263f"/>
                </g>
              </g>
            </g>
            <path id="Trazado_219720" data-name="Trazado 219720" d="M510.82,108.218H395.442a3.6,3.6,0,0,1-3.129-5.4L450.048,1.794a3.546,3.546,0,0,1,6.166,0l57.736,101.028a3.6,3.6,0,0,1-3.13,5.4" transform="translate(-23.628 0)" fill="#fdc00f"/>
            <path id="Trazado_219721" data-name="Trazado 219721" d="M554.852,278.278H297.492a3.605,3.605,0,0,1-3.13-5.4L352.09,171.854a10.729,10.729,0,0,1,9.3-5.4H490.958a10.729,10.729,0,0,1,9.3,5.4l57.728,101.027a3.605,3.605,0,0,1-3.13,5.4" transform="translate(3.331 -45.814)" fill="url(#linear-gradient)"/>
            <path id="Trazado_219722" data-name="Trazado 219722" d="M598.888,449.706H199.531a3.6,3.6,0,0,1-3.13-5.4l57.728-101.028a10.729,10.729,0,0,1,9.3-5.4H534.995a10.729,10.729,0,0,1,9.3,5.4L602.018,444.31a3.6,3.6,0,0,1-3.13,5.4" transform="translate(30.293 -92.997)" fill="url(#linear-gradient)"/>
            <path id="Trazado_219723" data-name="Trazado 219723" d="M642.925,621.135H101.57a3.6,3.6,0,0,1-3.13-5.4l57.728-101.028a10.729,10.729,0,0,1,9.3-5.4H579.032a10.729,10.729,0,0,1,9.3,5.4l57.728,101.028a3.6,3.6,0,0,1-3.13,5.4" transform="translate(57.255 -140.18)" fill="url(#linear-gradient)"/>
            <path id="Trazado_219724" data-name="Trazado 219724" d="M686.963,792.564H3.61a3.608,3.608,0,0,1-3.13-5.4L58.216,686.14a10.729,10.729,0,0,1,9.3-5.4h555.55a10.729,10.729,0,0,1,9.3,5.4l57.736,101.027a3.605,3.605,0,0,1-3.13,5.4" transform="translate(84.216 -187.363)" fill="url(#linear-gradient)"/>
            <line id="Línea_1884" data-name="Línea 1884" transform="translate(481.974 70.944)" fill="none" stroke="#fff" stroke-linecap="round" stroke-linejoin="round" stroke-width="2.143"/>
            <line id="Línea_1885" data-name="Línea 1885" x2="367.049" transform="translate(10.527 70.944)" fill="none" stroke="#11273d" stroke-linecap="round" stroke-linejoin="round" stroke-width="2.143" stroke-dasharray="0 4.314"/>
            <line id="Línea_1890" data-name="Línea 1890" x2="309.782" transform="translate(10.527 164.424)" fill="none" stroke="#11273d" stroke-linecap="round" stroke-linejoin="round" stroke-width="2.143" stroke-dasharray="0 4.314"/>
            <line id="Línea_1891" data-name="Línea 1891" x2="241.995" transform="translate(10.527 291.591)" fill="none" stroke="#11273d" stroke-linecap="round" stroke-linejoin="round" stroke-width="2.143" stroke-dasharray="0 4.314"/>
            <line id="Línea_1892" data-name="Línea 1892" x2="161.989" transform="translate(10.527 425.044)" fill="none" stroke="#11273d" stroke-linecap="round" stroke-linejoin="round" stroke-width="2.143" stroke-dasharray="0 4.314"/>
            <line id="Línea_1893" data-name="Línea 1893" x2="95.371" transform="translate(10.615 546.371)" fill="none" stroke="#11273d" stroke-linecap="round" stroke-linejoin="round" stroke-width="2.143" stroke-dasharray="0 4.314"/>
            <line id="Línea_1886" data-name="Línea 1886" transform="translate(582.036 70.944)" fill="none" stroke="#fff" stroke-linecap="round" stroke-linejoin="round" stroke-width="2.143"/>
            <path id="Trazado_219726" data-name="Trazado 219726" d="M685.558,99.7a2.92,2.92,0,1,0-2.919-2.919,2.92,2.92,0,0,0,2.919,2.919" transform="translate(-306.565 -25.832)" fill="#12263f"/>
            <path id="Trazado_219734" data-name="Trazado 219734" d="M685.558,99.7a2.92,2.92,0,1,0-2.919-2.919,2.92,2.92,0,0,0,2.919,2.919" transform="translate(-363.832 67.648)" fill="#12263f"/>
            <path id="Trazado_219736" data-name="Trazado 219736" d="M685.558,99.7a2.92,2.92,0,1,0-2.919-2.919,2.92,2.92,0,0,0,2.919,2.919" transform="translate(-431.618 194.814)" fill="#12263f"/>
            <path id="Trazado_219738" data-name="Trazado 219738" d="M685.558,99.7a2.92,2.92,0,1,0-2.919-2.919,2.92,2.92,0,0,0,2.919,2.919" transform="translate(-511.624 328.268)" fill="#12263f"/>
            <path id="Trazado_219740" data-name="Trazado 219740" d="M685.558,99.7a2.92,2.92,0,1,0-2.919-2.919,2.92,2.92,0,0,0,2.919,2.919" transform="translate(-578.155 449.594)" fill="#12263f"/>
            <line id="Línea_1887" data-name="Línea 1887" transform="translate(544.097 176.553)" fill="none" stroke="#fff" stroke-linecap="round" stroke-linejoin="round" stroke-width="2.143"/>
            <line id="Línea_1889" data-name="Línea 1889" transform="translate(582.036 176.553)" fill="none" stroke="#fff" stroke-linecap="round" stroke-linejoin="round" stroke-width="2.143"/>
          </g>
        </g>
      </g>
    </g>
    <path id="Trazado_228411" data-name="Trazado 228411" d="M11.133,0H8.383l-.8-2.492H3.6L2.813,0H.078L4.156-11.2H7.148ZM7.008-4.43,5.8-8.2A4.907,4.907,0,0,1,5.617-9.2H5.555a4.273,4.273,0,0,1-.2.977L4.141-4.43ZM19.891,0H17.43V-1.219h-.039A2.792,2.792,0,0,1,14.945.2q-2.781,0-2.781-3.367V-8h2.461v4.609q0,1.7,1.344,1.7a1.329,1.329,0,0,0,1.063-.465,1.874,1.874,0,0,0,.4-1.262V-8h2.461ZM26.8-.094A3.649,3.649,0,0,1,25.156.2q-2.609,0-2.609-2.711V-6.18h-1.3V-8h1.3V-9.727l2.461-.7V-8h1.8v1.82h-1.8v3.234q0,1.25.992,1.25a1.673,1.673,0,0,0,.8-.227ZM31.945.2A4.3,4.3,0,0,1,28.8-.926a4.064,4.064,0,0,1-1.145-3.043,4.065,4.065,0,0,1,1.188-3.105A4.487,4.487,0,0,1,32.055-8.2,4.249,4.249,0,0,1,35.18-7.074a3.985,3.985,0,0,1,1.133,2.965A4.23,4.23,0,0,1,35.145-.961,4.348,4.348,0,0,1,31.945.2Zm.063-6.5a1.647,1.647,0,0,0-1.359.6A2.653,2.653,0,0,0,30.164-4q0,2.3,1.859,2.3Q33.8-1.7,33.8-4.062,33.8-6.3,32.008-6.3Zm11.125.531a2.142,2.142,0,0,0-1.039-.242,1.5,1.5,0,0,0-1.258.59,2.573,2.573,0,0,0-.453,1.605V0H37.914V-8h2.469v1.484h.031a2.136,2.136,0,0,1,2.109-1.625,1.59,1.59,0,0,1,.609.094Zm6.367,0a2.142,2.142,0,0,0-1.039-.242,1.5,1.5,0,0,0-1.258.59A2.573,2.573,0,0,0,46.75-3.82V0H44.281V-8H46.75v1.484h.031a2.136,2.136,0,0,1,2.109-1.625,1.59,1.59,0,0,1,.609.094ZM57.773-3.3H52.555q.125,1.742,2.2,1.742a4.286,4.286,0,0,0,2.32-.625V-.4A6.1,6.1,0,0,1,54.188.2,4.058,4.058,0,0,1,51.18-.879a4.058,4.058,0,0,1-1.07-3,4.281,4.281,0,0,1,1.156-3.156A3.852,3.852,0,0,1,54.109-8.2a3.5,3.5,0,0,1,2.707,1.039,4,4,0,0,1,.957,2.82ZM55.484-4.812q0-1.719-1.391-1.719a1.328,1.328,0,0,0-1.027.492,2.234,2.234,0,0,0-.527,1.227ZM65.9,0H63.563V-1.148h-.031A2.607,2.607,0,0,1,61.148.2a2.492,2.492,0,0,1-1.832-.66,2.366,2.366,0,0,1-.668-1.762q0-2.328,2.758-2.687L63.578-5.2q0-1.312-1.422-1.312a4.853,4.853,0,0,0-2.719.852V-7.523a6.116,6.116,0,0,1,1.41-.469,7.413,7.413,0,0,1,1.629-.2Q65.9-8.2,65.9-4.781Zm-2.32-3.25v-.539L62.125-3.6q-1.2.156-1.2,1.086a.9.9,0,0,0,.293.691,1.126,1.126,0,0,0,.793.27,1.462,1.462,0,0,0,1.133-.48A1.735,1.735,0,0,0,63.578-3.25ZM70.32,0H67.852V-11.844H70.32Zm3.328-9.266a1.442,1.442,0,0,1-1.023-.371,1.2,1.2,0,0,1-.4-.91,1.153,1.153,0,0,1,.4-.906,1.49,1.49,0,0,1,1.023-.352,1.486,1.486,0,0,1,1.027.352,1.158,1.158,0,0,1,.395.906,1.191,1.191,0,0,1-.395.922A1.466,1.466,0,0,1,73.648-9.266ZM74.867,0H72.4V-8h2.469Zm8.414,0H76.1V-1.023L80.117-6.18H76.5V-8h6.75v1.219l-3.8,4.961h3.836Zm7.984,0H88.93V-1.148H88.9A2.607,2.607,0,0,1,86.516.2a2.492,2.492,0,0,1-1.832-.66,2.366,2.366,0,0,1-.668-1.762q0-2.328,2.758-2.687L88.945-5.2q0-1.312-1.422-1.312a4.853,4.853,0,0,0-2.719.852V-7.523a6.116,6.116,0,0,1,1.41-.469,7.413,7.413,0,0,1,1.629-.2q3.422,0,3.422,3.414Zm-2.32-3.25v-.539L87.492-3.6q-1.2.156-1.2,1.086a.9.9,0,0,0,.293.691,1.126,1.126,0,0,0,.793.27,1.462,1.462,0,0,0,1.133-.48A1.735,1.735,0,0,0,88.945-3.25ZM99.281-.289A4.881,4.881,0,0,1,96.867.2,4.083,4.083,0,0,1,93.883-.922,3.859,3.859,0,0,1,92.742-3.8,4.251,4.251,0,0,1,93.965-7.02,4.518,4.518,0,0,1,97.234-8.2a4.2,4.2,0,0,1,2.047.375v2.094A2.814,2.814,0,0,0,97.555-6.3a2.275,2.275,0,0,0-1.684.621,2.317,2.317,0,0,0-.621,1.715A2.28,2.28,0,0,0,95.844-2.3a2.182,2.182,0,0,0,1.633.605,3.258,3.258,0,0,0,1.8-.578Zm2.867-8.977a1.442,1.442,0,0,1-1.023-.371,1.2,1.2,0,0,1-.4-.91,1.153,1.153,0,0,1,.4-.906,1.49,1.49,0,0,1,1.023-.352,1.486,1.486,0,0,1,1.027.352,1.158,1.158,0,0,1,.395.906,1.191,1.191,0,0,1-.395.922A1.466,1.466,0,0,1,102.148-9.266ZM103.367,0H100.9V-8h2.469Zm5.891.2a4.3,4.3,0,0,1-3.145-1.121,4.064,4.064,0,0,1-1.145-3.043,4.065,4.065,0,0,1,1.188-3.105A4.487,4.487,0,0,1,109.367-8.2a4.249,4.249,0,0,1,3.125,1.121,3.985,3.985,0,0,1,1.133,2.965,4.23,4.23,0,0,1-1.168,3.148A4.348,4.348,0,0,1,109.258.2Zm.063-6.5a1.647,1.647,0,0,0-1.359.6,2.653,2.653,0,0,0-.484,1.7q0,2.3,1.859,2.3,1.773,0,1.773-2.367Q111.109-6.3,109.32-6.3Zm2.648-5.484-2.445,2.523h-1.781l2.031-2.523ZM122.945,0h-2.461V-4.445q0-1.859-1.328-1.859a1.318,1.318,0,0,0-1.055.492,1.875,1.875,0,0,0-.414,1.25V0h-2.469V-8h2.469v1.266h.031a2.829,2.829,0,0,1,2.57-1.461q2.656,0,2.656,3.3Z" transform="translate(414.113 886.179)" fill="#12263f"/>
    <path id="Trazado_228412" data-name="Trazado 228412" d="M8,0H1.281V-11.2H7.742v2.055H3.8v2.492H7.469v2.047H3.8v2.563H8ZM9.031-.211v-2a5.256,5.256,0,0,0,1.215.547,4.028,4.028,0,0,0,1.145.18,2.455,2.455,0,0,0,1.035-.18.581.581,0,0,0,.379-.547.506.506,0,0,0-.172-.391,1.6,1.6,0,0,0-.441-.273,5.009,5.009,0,0,0-.59-.211q-.32-.094-.617-.211a5.913,5.913,0,0,1-.84-.387,2.427,2.427,0,0,1-.609-.48A1.889,1.889,0,0,1,9.16-4.8a2.525,2.525,0,0,1-.129-.852A2.192,2.192,0,0,1,9.324-6.8a2.393,2.393,0,0,1,.781-.793,3.57,3.57,0,0,1,1.117-.453A5.825,5.825,0,0,1,12.531-8.2a7.261,7.261,0,0,1,1.078.082,8.047,8.047,0,0,1,1.078.238v1.906a3.9,3.9,0,0,0-1-.41,4.235,4.235,0,0,0-1.051-.137,2.328,2.328,0,0,0-.457.043,1.505,1.505,0,0,0-.379.125.7.7,0,0,0-.258.211.486.486,0,0,0-.094.293.541.541,0,0,0,.141.375,1.221,1.221,0,0,0,.367.27,3.625,3.625,0,0,0,.5.2q.277.09.551.184a7.161,7.161,0,0,1,.891.375,2.848,2.848,0,0,1,.684.477,1.872,1.872,0,0,1,.438.641,2.277,2.277,0,0,1,.152.875,2.282,2.282,0,0,1-.309,1.215,2.471,2.471,0,0,1-.82.82,3.72,3.72,0,0,1-1.18.461A6.54,6.54,0,0,1,11.477.2,7.149,7.149,0,0,1,9.031-.211Zm12.4.117A3.649,3.649,0,0,1,19.781.2q-2.609,0-2.609-2.711V-6.18h-1.3V-8h1.3V-9.727l2.461-.7V-8h1.8v1.82h-1.8v3.234q0,1.25.992,1.25a1.673,1.673,0,0,0,.8-.227ZM24.07-9.266a1.442,1.442,0,0,1-1.023-.371,1.2,1.2,0,0,1-.4-.91,1.153,1.153,0,0,1,.4-.906A1.49,1.49,0,0,1,24.07-11.8a1.486,1.486,0,0,1,1.027.352,1.158,1.158,0,0,1,.395.906,1.191,1.191,0,0,1-.395.922A1.466,1.466,0,0,1,24.07-9.266ZM25.289,0H22.82V-8h2.469ZM40.07,0H37.609V-4.562q0-1.742-1.281-1.742a1.177,1.177,0,0,0-.992.523,2.151,2.151,0,0,0-.383,1.3V0H32.484V-4.609q0-1.7-1.258-1.7a1.206,1.206,0,0,0-1.012.5,2.2,2.2,0,0,0-.379,1.359V0H27.367V-8h2.469v1.25h.031a2.952,2.952,0,0,1,1.074-1.043,2.952,2.952,0,0,1,1.512-.4A2.3,2.3,0,0,1,34.773-6.7,2.959,2.959,0,0,1,37.461-8.2q2.609,0,2.609,3.219ZM48.68,0H46.344V-1.148h-.031A2.607,2.607,0,0,1,43.93.2,2.492,2.492,0,0,1,42.1-.465a2.366,2.366,0,0,1-.668-1.762q0-2.328,2.758-2.687L46.359-5.2q0-1.312-1.422-1.312a4.853,4.853,0,0,0-2.719.852V-7.523a6.116,6.116,0,0,1,1.41-.469,7.413,7.413,0,0,1,1.629-.2q3.422,0,3.422,3.414Zm-2.32-3.25v-.539L44.906-3.6q-1.2.156-1.2,1.086A.9.9,0,0,0,44-1.824a1.126,1.126,0,0,0,.793.27,1.462,1.462,0,0,0,1.133-.48A1.735,1.735,0,0,0,46.359-3.25ZM56.875-11.2,51.414,1.859h-2.2L54.648-11.2Zm6.07,5.43a2.142,2.142,0,0,0-1.039-.242,1.5,1.5,0,0,0-1.258.59A2.573,2.573,0,0,0,60.2-3.82V0H57.727V-8H60.2v1.484h.031a2.136,2.136,0,0,1,2.109-1.625,1.59,1.59,0,0,1,.609.094ZM71.219-3.3H66q.125,1.742,2.2,1.742a4.286,4.286,0,0,0,2.32-.625V-.4A6.1,6.1,0,0,1,67.633.2,4.058,4.058,0,0,1,64.625-.879a4.058,4.058,0,0,1-1.07-3,4.281,4.281,0,0,1,1.156-3.156A3.852,3.852,0,0,1,67.555-8.2a3.5,3.5,0,0,1,2.707,1.039,4,4,0,0,1,.957,2.82ZM68.93-4.812q0-1.719-1.391-1.719a1.328,1.328,0,0,0-1.027.492,2.234,2.234,0,0,0-.527,1.227ZM78.75-.289A4.881,4.881,0,0,1,76.336.2,4.083,4.083,0,0,1,73.352-.922,3.859,3.859,0,0,1,72.211-3.8,4.251,4.251,0,0,1,73.434-7.02,4.518,4.518,0,0,1,76.7-8.2a4.2,4.2,0,0,1,2.047.375v2.094A2.814,2.814,0,0,0,77.023-6.3a2.275,2.275,0,0,0-1.684.621,2.317,2.317,0,0,0-.621,1.715A2.28,2.28,0,0,0,75.313-2.3a2.182,2.182,0,0,0,1.633.605,3.258,3.258,0,0,0,1.8-.578ZM84.18.2A4.3,4.3,0,0,1,81.035-.926a4.064,4.064,0,0,1-1.145-3.043,4.065,4.065,0,0,1,1.188-3.105A4.487,4.487,0,0,1,84.289-8.2a4.249,4.249,0,0,1,3.125,1.121,3.985,3.985,0,0,1,1.133,2.965A4.23,4.23,0,0,1,87.379-.961,4.348,4.348,0,0,1,84.18.2Zm.063-6.5a1.647,1.647,0,0,0-1.359.6A2.653,2.653,0,0,0,82.4-4q0,2.3,1.859,2.3,1.773,0,1.773-2.367Q86.031-6.3,84.242-6.3ZM97.875,0H95.414V-4.445q0-1.859-1.328-1.859a1.318,1.318,0,0,0-1.055.492,1.875,1.875,0,0,0-.414,1.25V0H90.148V-8h2.469v1.266h.031A2.829,2.829,0,0,1,95.219-8.2q2.656,0,2.656,3.3Zm5.766.2A4.3,4.3,0,0,1,100.5-.926a4.064,4.064,0,0,1-1.145-3.043,4.065,4.065,0,0,1,1.188-3.105A4.487,4.487,0,0,1,103.75-8.2a4.249,4.249,0,0,1,3.125,1.121,3.985,3.985,0,0,1,1.133,2.965A4.23,4.23,0,0,1,106.84-.961,4.348,4.348,0,0,1,103.641.2Zm.063-6.5a1.647,1.647,0,0,0-1.359.6,2.653,2.653,0,0,0-.484,1.7q0,2.3,1.859,2.3,1.773,0,1.773-2.367Q105.492-6.3,103.7-6.3ZM115.672-.289A4.881,4.881,0,0,1,113.258.2a4.083,4.083,0,0,1-2.984-1.117A3.859,3.859,0,0,1,109.133-3.8a4.251,4.251,0,0,1,1.223-3.215,4.518,4.518,0,0,1,3.27-1.176,4.2,4.2,0,0,1,2.047.375v2.094a2.814,2.814,0,0,0-1.727-.578,2.275,2.275,0,0,0-1.684.621,2.317,2.317,0,0,0-.621,1.715,2.28,2.28,0,0,0,.594,1.668,2.182,2.182,0,0,0,1.633.605,3.258,3.258,0,0,0,1.8-.578Zm2.867-8.977a1.442,1.442,0,0,1-1.023-.371,1.2,1.2,0,0,1-.4-.91,1.153,1.153,0,0,1,.4-.906,1.49,1.49,0,0,1,1.023-.352,1.486,1.486,0,0,1,1.027.352,1.158,1.158,0,0,1,.395.906,1.191,1.191,0,0,1-.395.922A1.466,1.466,0,0,1,118.539-9.266ZM119.758,0h-2.469V-8h2.469Zm14.781,0h-2.461V-4.562q0-1.742-1.281-1.742a1.177,1.177,0,0,0-.992.523,2.151,2.151,0,0,0-.383,1.3V0h-2.469V-4.609q0-1.7-1.258-1.7a1.206,1.206,0,0,0-1.012.5,2.2,2.2,0,0,0-.379,1.359V0h-2.469V-8H124.3v1.25h.031a2.952,2.952,0,0,1,1.074-1.043,2.952,2.952,0,0,1,1.512-.4,2.3,2.3,0,0,1,2.32,1.492A2.959,2.959,0,0,1,131.93-8.2q2.609,0,2.609,3.219Zm3.2-9.266a1.442,1.442,0,0,1-1.023-.371,1.2,1.2,0,0,1-.4-.91,1.153,1.153,0,0,1,.4-.906,1.49,1.49,0,0,1,1.023-.352,1.486,1.486,0,0,1,1.027.352,1.158,1.158,0,0,1,.395.906,1.191,1.191,0,0,1-.395.922A1.466,1.466,0,0,1,137.742-9.266ZM138.961,0h-2.469V-8h2.469Zm9.266-3.3h-5.219q.125,1.742,2.2,1.742a4.286,4.286,0,0,0,2.32-.625V-.4A6.1,6.1,0,0,1,144.641.2a4.058,4.058,0,0,1-3.008-1.074,4.058,4.058,0,0,1-1.07-3,4.281,4.281,0,0,1,1.156-3.156A3.852,3.852,0,0,1,144.563-8.2a3.5,3.5,0,0,1,2.707,1.039,4,4,0,0,1,.957,2.82Zm-2.289-1.516q0-1.719-1.391-1.719a1.328,1.328,0,0,0-1.027.492,2.234,2.234,0,0,0-.527,1.227ZM157.422,0h-2.461V-4.445q0-1.859-1.328-1.859a1.318,1.318,0,0,0-1.055.492,1.875,1.875,0,0,0-.414,1.25V0H149.7V-8h2.469v1.266h.031a2.829,2.829,0,0,1,2.57-1.461q2.656,0,2.656,3.3Zm6.789-.094A3.649,3.649,0,0,1,162.563.2q-2.609,0-2.609-2.711V-6.18h-1.3V-8h1.3V-9.727l2.461-.7V-8h1.8v1.82h-1.8v3.234q0,1.25.992,1.25a1.673,1.673,0,0,0,.8-.227ZM169.352.2a4.3,4.3,0,0,1-3.145-1.121,4.064,4.064,0,0,1-1.145-3.043,4.065,4.065,0,0,1,1.188-3.105A4.487,4.487,0,0,1,169.461-8.2a4.249,4.249,0,0,1,3.125,1.121,3.985,3.985,0,0,1,1.133,2.965,4.23,4.23,0,0,1-1.168,3.148A4.348,4.348,0,0,1,169.352.2Zm.063-6.5a1.647,1.647,0,0,0-1.359.6A2.653,2.653,0,0,0,167.57-4q0,2.3,1.859,2.3,1.773,0,1.773-2.367Q171.2-6.3,169.414-6.3Z" transform="translate(414.113 975.447)" fill="#12263f"/>
    <path id="Trazado_228413" data-name="Trazado 228413" d="M.766-.43v-2.5a4.8,4.8,0,0,0,1.477.855,4.746,4.746,0,0,0,1.609.285,3.569,3.569,0,0,0,.832-.086,1.949,1.949,0,0,0,.594-.238,1.039,1.039,0,0,0,.355-.359.9.9,0,0,0,.117-.449.971.971,0,0,0-.187-.586,2.018,2.018,0,0,0-.512-.477,5.347,5.347,0,0,0-.77-.422q-.445-.2-.961-.414A4.9,4.9,0,0,1,1.363-6.156,2.917,2.917,0,0,1,.719-8.062a3.036,3.036,0,0,1,.352-1.5A2.986,2.986,0,0,1,2.027-10.6a4.291,4.291,0,0,1,1.4-.6,7.206,7.206,0,0,1,1.688-.191,10.15,10.15,0,0,1,1.551.105,6.1,6.1,0,0,1,1.246.324v2.336A3.768,3.768,0,0,0,7.3-8.969a4.859,4.859,0,0,0-.684-.246,5.214,5.214,0,0,0-.7-.145,4.949,4.949,0,0,0-.66-.047,3.443,3.443,0,0,0-.781.082,2,2,0,0,0-.594.23,1.147,1.147,0,0,0-.375.355.843.843,0,0,0-.133.465.888.888,0,0,0,.148.5,1.7,1.7,0,0,0,.422.422,4.477,4.477,0,0,0,.664.391q.391.191.883.395a9.837,9.837,0,0,1,1.207.6,4.291,4.291,0,0,1,.918.715,2.785,2.785,0,0,1,.586.91,3.216,3.216,0,0,1,.2,1.191,3.191,3.191,0,0,1-.355,1.574A2.886,2.886,0,0,1,7.086-.543,4.184,4.184,0,0,1,5.668.023,8.2,8.2,0,0,1,3.961.2,9.492,9.492,0,0,1,2.207.039,5.3,5.3,0,0,1,.766-.43ZM13.82.2A4.3,4.3,0,0,1,10.676-.926,4.064,4.064,0,0,1,9.531-3.969a4.065,4.065,0,0,1,1.188-3.105A4.487,4.487,0,0,1,13.93-8.2a4.249,4.249,0,0,1,3.125,1.121,3.985,3.985,0,0,1,1.133,2.965A4.23,4.23,0,0,1,17.02-.961,4.348,4.348,0,0,1,13.82.2Zm.063-6.5a1.647,1.647,0,0,0-1.359.6A2.653,2.653,0,0,0,12.039-4q0,2.3,1.859,2.3,1.773,0,1.773-2.367Q15.672-6.3,13.883-6.3ZM25.852-.289A4.881,4.881,0,0,1,23.438.2,4.083,4.083,0,0,1,20.453-.922,3.859,3.859,0,0,1,19.313-3.8,4.251,4.251,0,0,1,20.535-7.02,4.518,4.518,0,0,1,23.8-8.2a4.2,4.2,0,0,1,2.047.375v2.094A2.814,2.814,0,0,0,24.125-6.3a2.275,2.275,0,0,0-1.684.621,2.317,2.317,0,0,0-.621,1.715A2.28,2.28,0,0,0,22.414-2.3a2.182,2.182,0,0,0,1.633.605,3.258,3.258,0,0,0,1.8-.578Zm2.867-8.977A1.442,1.442,0,0,1,27.7-9.637a1.2,1.2,0,0,1-.4-.91,1.153,1.153,0,0,1,.4-.906,1.49,1.49,0,0,1,1.023-.352,1.486,1.486,0,0,1,1.027.352,1.158,1.158,0,0,1,.395.906,1.191,1.191,0,0,1-.395.922A1.466,1.466,0,0,1,28.719-9.266ZM29.938,0H27.469V-8h2.469Zm8.734,0H36.336V-1.148H36.3A2.607,2.607,0,0,1,33.922.2a2.492,2.492,0,0,1-1.832-.66,2.366,2.366,0,0,1-.668-1.762q0-2.328,2.758-2.687L36.352-5.2q0-1.312-1.422-1.312a4.853,4.853,0,0,0-2.719.852V-7.523a6.116,6.116,0,0,1,1.41-.469,7.413,7.413,0,0,1,1.629-.2q3.422,0,3.422,3.414Zm-2.32-3.25v-.539L34.9-3.6q-1.2.156-1.2,1.086a.9.9,0,0,0,.293.691,1.126,1.126,0,0,0,.793.27,1.462,1.462,0,0,0,1.133-.48A1.735,1.735,0,0,0,36.352-3.25ZM43.094,0H40.625V-11.844h2.469Zm9.266-3.3H47.141q.125,1.742,2.2,1.742a4.286,4.286,0,0,0,2.32-.625V-.4A6.1,6.1,0,0,1,48.773.2,4.058,4.058,0,0,1,45.766-.879a4.058,4.058,0,0,1-1.07-3,4.281,4.281,0,0,1,1.156-3.156A3.852,3.852,0,0,1,48.7-8.2,3.5,3.5,0,0,1,51.4-7.156a4,4,0,0,1,.957,2.82ZM50.07-4.812q0-1.719-1.391-1.719a1.328,1.328,0,0,0-1.027.492,2.234,2.234,0,0,0-.527,1.227ZM53.3-.211v-2a5.256,5.256,0,0,0,1.215.547,4.028,4.028,0,0,0,1.145.18,2.455,2.455,0,0,0,1.035-.18.581.581,0,0,0,.379-.547.506.506,0,0,0-.172-.391,1.6,1.6,0,0,0-.441-.273,5.009,5.009,0,0,0-.59-.211q-.32-.094-.617-.211a5.913,5.913,0,0,1-.84-.387,2.427,2.427,0,0,1-.609-.48,1.889,1.889,0,0,1-.375-.633,2.525,2.525,0,0,1-.129-.852A2.192,2.192,0,0,1,53.6-6.8a2.393,2.393,0,0,1,.781-.793A3.57,3.57,0,0,1,55.5-8.051,5.825,5.825,0,0,1,56.8-8.2a7.261,7.261,0,0,1,1.078.082,8.047,8.047,0,0,1,1.078.238v1.906a3.9,3.9,0,0,0-1-.41,4.235,4.235,0,0,0-1.051-.137,2.328,2.328,0,0,0-.457.043,1.505,1.505,0,0,0-.379.125.7.7,0,0,0-.258.211.486.486,0,0,0-.094.293.541.541,0,0,0,.141.375,1.221,1.221,0,0,0,.367.27,3.625,3.625,0,0,0,.5.2q.277.09.551.184a7.161,7.161,0,0,1,.891.375,2.848,2.848,0,0,1,.684.477,1.871,1.871,0,0,1,.438.641,2.277,2.277,0,0,1,.152.875,2.282,2.282,0,0,1-.309,1.215,2.471,2.471,0,0,1-.82.82,3.72,3.72,0,0,1-1.18.461A6.54,6.54,0,0,1,55.75.2,7.149,7.149,0,0,1,53.3-.211Z" transform="translate(414.113 1103.456)" fill="#12263f"/>
    <path id="Trazado_228414" data-name="Trazado 228414" d="M.766-.43v-2.5a4.8,4.8,0,0,0,1.477.855,4.746,4.746,0,0,0,1.609.285,3.569,3.569,0,0,0,.832-.086,1.949,1.949,0,0,0,.594-.238,1.039,1.039,0,0,0,.355-.359.9.9,0,0,0,.117-.449.971.971,0,0,0-.187-.586,2.018,2.018,0,0,0-.512-.477,5.347,5.347,0,0,0-.77-.422q-.445-.2-.961-.414A4.9,4.9,0,0,1,1.363-6.156,2.917,2.917,0,0,1,.719-8.062a3.036,3.036,0,0,1,.352-1.5A2.986,2.986,0,0,1,2.027-10.6a4.291,4.291,0,0,1,1.4-.6,7.206,7.206,0,0,1,1.688-.191,10.15,10.15,0,0,1,1.551.105,6.1,6.1,0,0,1,1.246.324v2.336A3.768,3.768,0,0,0,7.3-8.969a4.859,4.859,0,0,0-.684-.246,5.214,5.214,0,0,0-.7-.145,4.949,4.949,0,0,0-.66-.047,3.443,3.443,0,0,0-.781.082,2,2,0,0,0-.594.23,1.147,1.147,0,0,0-.375.355.843.843,0,0,0-.133.465.888.888,0,0,0,.148.5,1.7,1.7,0,0,0,.422.422,4.477,4.477,0,0,0,.664.391q.391.191.883.395a9.837,9.837,0,0,1,1.207.6,4.291,4.291,0,0,1,.918.715,2.785,2.785,0,0,1,.586.91,3.216,3.216,0,0,1,.2,1.191,3.191,3.191,0,0,1-.355,1.574A2.886,2.886,0,0,1,7.086-.543,4.184,4.184,0,0,1,5.668.023,8.2,8.2,0,0,1,3.961.2,9.492,9.492,0,0,1,2.207.039,5.3,5.3,0,0,1,.766-.43ZM17.2-3.3H11.977q.125,1.742,2.2,1.742a4.286,4.286,0,0,0,2.32-.625V-.4A6.1,6.1,0,0,1,13.609.2,4.058,4.058,0,0,1,10.6-.879a4.058,4.058,0,0,1-1.07-3,4.281,4.281,0,0,1,1.156-3.156A3.852,3.852,0,0,1,13.531-8.2a3.5,3.5,0,0,1,2.707,1.039,4,4,0,0,1,.957,2.82ZM14.906-4.812q0-1.719-1.391-1.719a1.328,1.328,0,0,0-1.027.492,2.234,2.234,0,0,0-.527,1.227Zm11.6,3.9a4.526,4.526,0,0,1-1.289,3.449,5.224,5.224,0,0,1-3.734,1.223A5.919,5.919,0,0,1,18.922,3.3V1.219a4.907,4.907,0,0,0,2.492.719,2.684,2.684,0,0,0,1.938-.66,2.369,2.369,0,0,0,.688-1.793v-.633h-.031A2.757,2.757,0,0,1,21.516.2a3,3,0,0,1-2.43-1.078,4.372,4.372,0,0,1-.9-2.891,4.87,4.87,0,0,1,1-3.227A3.265,3.265,0,0,1,21.82-8.2,2.429,2.429,0,0,1,24.008-7.07h.031V-8h2.469ZM24.07-3.844v-.633a1.945,1.945,0,0,0-.449-1.293A1.453,1.453,0,0,0,22.453-6.3a1.51,1.51,0,0,0-1.289.641,3.012,3.012,0,0,0-.469,1.8,2.543,2.543,0,0,0,.445,1.582,1.451,1.451,0,0,0,1.219.582,1.511,1.511,0,0,0,1.238-.59A2.418,2.418,0,0,0,24.07-3.844ZM36.172,0H33.711V-1.219h-.039A2.792,2.792,0,0,1,31.227.2q-2.781,0-2.781-3.367V-8h2.461v4.609q0,1.7,1.344,1.7a1.329,1.329,0,0,0,1.063-.465,1.874,1.874,0,0,0,.4-1.262V-8h2.461Zm7.3-5.773a2.142,2.142,0,0,0-1.039-.242,1.5,1.5,0,0,0-1.258.59,2.573,2.573,0,0,0-.453,1.605V0H38.25V-8h2.469v1.484h.031a2.136,2.136,0,0,1,2.109-1.625,1.59,1.59,0,0,1,.609.094ZM45.93-9.266a1.442,1.442,0,0,1-1.023-.371,1.2,1.2,0,0,1-.4-.91,1.153,1.153,0,0,1,.4-.906A1.49,1.49,0,0,1,45.93-11.8a1.486,1.486,0,0,1,1.027.352,1.158,1.158,0,0,1,.395.906,1.191,1.191,0,0,1-.395.922A1.466,1.466,0,0,1,45.93-9.266ZM47.148,0H44.68V-8h2.469Zm9.906,0H54.586V-1.1h-.031A2.768,2.768,0,0,1,52.078.2,3.033,3.033,0,0,1,49.664-.863,4.382,4.382,0,0,1,48.75-3.82,4.77,4.77,0,0,1,49.758-7,3.287,3.287,0,0,1,52.4-8.2a2.246,2.246,0,0,1,2.156,1.109h.031v-4.758h2.469ZM54.633-3.891v-.6a1.893,1.893,0,0,0-.453-1.3A1.5,1.5,0,0,0,53-6.3a1.487,1.487,0,0,0-1.281.645,2.993,2.993,0,0,0-.461,1.77A2.59,2.59,0,0,0,51.7-2.266a1.479,1.479,0,0,0,1.234.57,1.485,1.485,0,0,0,1.223-.6A2.507,2.507,0,0,0,54.633-3.891ZM65.789,0H63.453V-1.148h-.031A2.607,2.607,0,0,1,61.039.2a2.492,2.492,0,0,1-1.832-.66,2.366,2.366,0,0,1-.668-1.762q0-2.328,2.758-2.687L63.469-5.2q0-1.312-1.422-1.312a4.853,4.853,0,0,0-2.719.852V-7.523a6.116,6.116,0,0,1,1.41-.469,7.413,7.413,0,0,1,1.629-.2q3.422,0,3.422,3.414Zm-2.32-3.25v-.539L62.016-3.6q-1.2.156-1.2,1.086a.9.9,0,0,0,.293.691,1.126,1.126,0,0,0,.793.27,1.462,1.462,0,0,0,1.133-.48A1.735,1.735,0,0,0,63.469-3.25ZM75.57,0H73.1V-1.1H73.07A2.768,2.768,0,0,1,70.594.2,3.033,3.033,0,0,1,68.18-.863a4.382,4.382,0,0,1-.914-2.957A4.77,4.77,0,0,1,68.273-7a3.287,3.287,0,0,1,2.641-1.2A2.246,2.246,0,0,1,73.07-7.086H73.1v-4.758H75.57ZM73.148-3.891v-.6a1.893,1.893,0,0,0-.453-1.3,1.5,1.5,0,0,0-1.18-.516,1.487,1.487,0,0,0-1.281.645,2.993,2.993,0,0,0-.461,1.77,2.59,2.59,0,0,0,.445,1.625,1.479,1.479,0,0,0,1.234.57,1.485,1.485,0,0,0,1.223-.6A2.507,2.507,0,0,0,73.148-3.891Z" transform="translate(414.113 1233.149)" fill="#12263f"/>
    <path id="Trazado_228415" data-name="Trazado 228415" d="M7.758-9.148H3.8V-6.4H7.438v2.047H3.8V0H1.281V-11.2H7.758Zm2.852-.117a1.442,1.442,0,0,1-1.023-.371,1.2,1.2,0,0,1-.4-.91,1.153,1.153,0,0,1,.4-.906,1.49,1.49,0,0,1,1.023-.352,1.486,1.486,0,0,1,1.027.352,1.158,1.158,0,0,1,.395.906,1.191,1.191,0,0,1-.395.922A1.466,1.466,0,0,1,10.609-9.266ZM11.828,0H9.359V-8h2.469Zm1.555-.211v-2a5.256,5.256,0,0,0,1.215.547,4.028,4.028,0,0,0,1.145.18,2.455,2.455,0,0,0,1.035-.18.581.581,0,0,0,.379-.547.506.506,0,0,0-.172-.391,1.6,1.6,0,0,0-.441-.273,5.009,5.009,0,0,0-.59-.211q-.32-.094-.617-.211a5.913,5.913,0,0,1-.84-.387,2.427,2.427,0,0,1-.609-.48,1.889,1.889,0,0,1-.375-.633,2.525,2.525,0,0,1-.129-.852A2.192,2.192,0,0,1,13.676-6.8a2.393,2.393,0,0,1,.781-.793,3.57,3.57,0,0,1,1.117-.453A5.825,5.825,0,0,1,16.883-8.2a7.261,7.261,0,0,1,1.078.082,8.047,8.047,0,0,1,1.078.238v1.906a3.9,3.9,0,0,0-1-.41,4.235,4.235,0,0,0-1.051-.137,2.328,2.328,0,0,0-.457.043,1.505,1.505,0,0,0-.379.125.7.7,0,0,0-.258.211.486.486,0,0,0-.094.293.541.541,0,0,0,.141.375,1.221,1.221,0,0,0,.367.27,3.625,3.625,0,0,0,.5.2q.277.09.551.184a7.161,7.161,0,0,1,.891.375,2.848,2.848,0,0,1,.684.477,1.871,1.871,0,0,1,.438.641,2.277,2.277,0,0,1,.152.875,2.282,2.282,0,0,1-.309,1.215,2.471,2.471,0,0,1-.82.82,3.72,3.72,0,0,1-1.18.461A6.54,6.54,0,0,1,15.828.2,7.149,7.149,0,0,1,13.383-.211ZM22.2-9.266a1.442,1.442,0,0,1-1.023-.371,1.2,1.2,0,0,1-.4-.91,1.153,1.153,0,0,1,.4-.906A1.49,1.49,0,0,1,22.2-11.8a1.486,1.486,0,0,1,1.027.352,1.158,1.158,0,0,1,.395.906,1.191,1.191,0,0,1-.395.922A1.466,1.466,0,0,1,22.2-9.266ZM23.414,0H20.945V-8h2.469ZM29.3.2A4.3,4.3,0,0,1,26.16-.926a4.064,4.064,0,0,1-1.145-3.043A4.065,4.065,0,0,1,26.2-7.074,4.487,4.487,0,0,1,29.414-8.2a4.249,4.249,0,0,1,3.125,1.121,3.985,3.985,0,0,1,1.133,2.965A4.23,4.23,0,0,1,32.5-.961,4.348,4.348,0,0,1,29.3.2Zm.063-6.5a1.647,1.647,0,0,0-1.359.6A2.653,2.653,0,0,0,27.523-4q0,2.3,1.859,2.3,1.773,0,1.773-2.367Q31.156-6.3,29.367-6.3ZM37.742,0H35.273V-11.844h2.469Zm5.891.2A4.3,4.3,0,0,1,40.488-.926a4.064,4.064,0,0,1-1.145-3.043,4.065,4.065,0,0,1,1.188-3.105A4.487,4.487,0,0,1,43.742-8.2a4.249,4.249,0,0,1,3.125,1.121A3.985,3.985,0,0,1,48-4.109,4.23,4.23,0,0,1,46.832-.961,4.348,4.348,0,0,1,43.633.2ZM43.7-6.3a1.647,1.647,0,0,0-1.359.6A2.653,2.653,0,0,0,41.852-4q0,2.3,1.859,2.3,1.773,0,1.773-2.367Q45.484-6.3,43.7-6.3Zm1.742-2.961H43.664l-2.453-2.523h2.2Zm12,8.352a4.526,4.526,0,0,1-1.289,3.449,5.224,5.224,0,0,1-3.734,1.223A5.919,5.919,0,0,1,49.852,3.3V1.219a4.907,4.907,0,0,0,2.492.719,2.684,2.684,0,0,0,1.938-.66,2.369,2.369,0,0,0,.688-1.793v-.633h-.031A2.757,2.757,0,0,1,52.445.2a3,3,0,0,1-2.43-1.078,4.372,4.372,0,0,1-.9-2.891,4.87,4.87,0,0,1,1-3.227A3.265,3.265,0,0,1,52.75-8.2,2.429,2.429,0,0,1,54.938-7.07h.031V-8h2.469ZM55-3.844v-.633a1.945,1.945,0,0,0-.449-1.293A1.453,1.453,0,0,0,53.383-6.3a1.51,1.51,0,0,0-1.289.641,3.012,3.012,0,0,0-.469,1.8,2.543,2.543,0,0,0,.445,1.582,1.451,1.451,0,0,0,1.219.582,1.511,1.511,0,0,0,1.238-.59A2.418,2.418,0,0,0,55-3.844Zm5.75-5.422a1.442,1.442,0,0,1-1.023-.371,1.2,1.2,0,0,1-.4-.91,1.153,1.153,0,0,1,.4-.906A1.49,1.49,0,0,1,60.75-11.8a1.486,1.486,0,0,1,1.027.352,1.158,1.158,0,0,1,.395.906,1.191,1.191,0,0,1-.395.922A1.466,1.466,0,0,1,60.75-9.266ZM61.969,0H59.5V-8h2.469Zm8.141-.289A4.881,4.881,0,0,1,67.7.2,4.083,4.083,0,0,1,64.711-.922,3.859,3.859,0,0,1,63.57-3.8,4.251,4.251,0,0,1,64.793-7.02,4.518,4.518,0,0,1,68.063-8.2a4.2,4.2,0,0,1,2.047.375v2.094A2.814,2.814,0,0,0,68.383-6.3a2.275,2.275,0,0,0-1.684.621,2.317,2.317,0,0,0-.621,1.715A2.28,2.28,0,0,0,66.672-2.3,2.182,2.182,0,0,0,68.3-1.7a3.258,3.258,0,0,0,1.8-.578ZM78.383,0H76.047V-1.148h-.031A2.607,2.607,0,0,1,73.633.2,2.492,2.492,0,0,1,71.8-.465a2.366,2.366,0,0,1-.668-1.762q0-2.328,2.758-2.687L76.063-5.2q0-1.312-1.422-1.312a4.853,4.853,0,0,0-2.719.852V-7.523a6.116,6.116,0,0,1,1.41-.469,7.413,7.413,0,0,1,1.629-.2q3.422,0,3.422,3.414Zm-2.32-3.25v-.539L74.609-3.6q-1.2.156-1.2,1.086a.9.9,0,0,0,.293.691,1.126,1.126,0,0,0,.793.27,1.462,1.462,0,0,0,1.133-.48A1.735,1.735,0,0,0,76.063-3.25Zm3.75,3.039v-2a5.256,5.256,0,0,0,1.215.547,4.028,4.028,0,0,0,1.145.18,2.455,2.455,0,0,0,1.035-.18.581.581,0,0,0,.379-.547.506.506,0,0,0-.172-.391,1.6,1.6,0,0,0-.441-.273,5.009,5.009,0,0,0-.59-.211q-.32-.094-.617-.211a5.913,5.913,0,0,1-.84-.387,2.427,2.427,0,0,1-.609-.48,1.889,1.889,0,0,1-.375-.633,2.525,2.525,0,0,1-.129-.852A2.192,2.192,0,0,1,80.105-6.8a2.393,2.393,0,0,1,.781-.793A3.57,3.57,0,0,1,82-8.051,5.825,5.825,0,0,1,83.313-8.2a7.261,7.261,0,0,1,1.078.082,8.047,8.047,0,0,1,1.078.238v1.906a3.9,3.9,0,0,0-1-.41,4.235,4.235,0,0,0-1.051-.137,2.328,2.328,0,0,0-.457.043,1.505,1.505,0,0,0-.379.125.7.7,0,0,0-.258.211.486.486,0,0,0-.094.293.541.541,0,0,0,.141.375,1.221,1.221,0,0,0,.367.27,3.625,3.625,0,0,0,.5.2q.277.09.551.184a7.161,7.161,0,0,1,.891.375,2.848,2.848,0,0,1,.684.477,1.872,1.872,0,0,1,.438.641,2.277,2.277,0,0,1,.152.875,2.282,2.282,0,0,1-.309,1.215,2.471,2.471,0,0,1-.82.82,3.72,3.72,0,0,1-1.18.461A6.54,6.54,0,0,1,82.258.2,7.149,7.149,0,0,1,79.813-.211Z" transform="translate(414.113 1359.474)" fill="#12263f"/>
    <path id="Trazado_228416" data-name="Trazado 228416" d="M75.8,22H68.38V8H75.49V9.48H70.021v4.658h5.059v1.475H70.021v4.9H75.8ZM74.386,3.514l-2.559,3.2h-1.24l2.178-3.2ZM85.587,12l-3.359,5.059L85.529,22H83.663L81.7,18.758q-.186-.3-.439-.762h-.039q-.049.088-.459.762l-2,3.242H76.915l3.408-4.9L77.062,12h1.865l1.934,3.418q.215.381.42.781h.039l2.5-4.2Zm2.7-2.539a1.015,1.015,0,0,1-.732-.293.989.989,0,0,1-.3-.742,1.026,1.026,0,0,1,1.035-1.045,1.034,1.034,0,0,1,.747.3,1.043,1.043,0,0,1,0,1.479A1.025,1.025,0,0,1,88.283,9.461ZM89.064,22h-1.6V12h1.6Zm7.881-.1a3.088,3.088,0,0,1-1.494.313q-2.627,0-2.627-2.93V13.367H91.1V12h1.719V9.559l1.6-.518V12h2.52v1.367h-2.52V19a2.336,2.336,0,0,0,.342,1.436,1.364,1.364,0,0,0,1.133.43,1.684,1.684,0,0,0,1.045-.332Zm6.318.332a4.638,4.638,0,0,1-3.54-1.4A5.191,5.191,0,0,1,98.4,17.117a5.407,5.407,0,0,1,1.377-3.936,4.95,4.95,0,0,1,3.721-1.416,4.485,4.485,0,0,1,3.491,1.377,5.46,5.46,0,0,1,1.255,3.818,5.372,5.372,0,0,1-1.353,3.833A4.739,4.739,0,0,1,103.263,22.234Zm.117-9.121a3.046,3.046,0,0,0-2.441,1.05,4.312,4.312,0,0,0-.9,2.9,4.078,4.078,0,0,0,.908,2.8,3.087,3.087,0,0,0,2.432,1.025,2.928,2.928,0,0,0,2.388-1.006,4.365,4.365,0,0,0,.835-2.861,4.44,4.44,0,0,0-.835-2.891A2.915,2.915,0,0,0,103.38,13.113Zm8.887,6.66-1.562,4.8h-1.143l1.143-4.8ZM23.043,37.621a1.958,1.958,0,0,0-1.211-.322,2.044,2.044,0,0,0-1.714.967A4.47,4.47,0,0,0,19.43,40.9V46h-1.6V36h1.6v2.061h.039a3.492,3.492,0,0,1,1.045-1.646,2.383,2.383,0,0,1,1.572-.591,2.615,2.615,0,0,1,.957.137ZM32.819,41.4H25.758a3.74,3.74,0,0,0,.9,2.578,3.1,3.1,0,0,0,2.363.908,4.913,4.913,0,0,0,3.105-1.113v1.5a5.8,5.8,0,0,1-3.486.957,4.227,4.227,0,0,1-3.33-1.362A5.576,5.576,0,0,1,24.1,41.039a5.468,5.468,0,0,1,1.323-3.8,4.243,4.243,0,0,1,3.286-1.47,3.76,3.76,0,0,1,3.037,1.27,5.293,5.293,0,0,1,1.074,3.525Zm-1.641-1.357a3.259,3.259,0,0,0-.669-2.158,2.279,2.279,0,0,0-1.831-.771,2.587,2.587,0,0,0-1.924.811,3.678,3.678,0,0,0-.977,2.119Zm10.879,5.5a5.2,5.2,0,0,1-2.734.693,4.527,4.527,0,0,1-3.452-1.392,5.043,5.043,0,0,1-1.313-3.608,5.544,5.544,0,0,1,1.416-3.97,4.954,4.954,0,0,1,3.779-1.5,5.261,5.261,0,0,1,2.324.488v1.641a4.072,4.072,0,0,0-2.383-.781,3.22,3.22,0,0,0-2.515,1.1A4.169,4.169,0,0,0,36.2,41.1a3.969,3.969,0,0,0,.923,2.773A3.181,3.181,0,0,0,39.6,44.887a4.014,4.014,0,0,0,2.461-.869Zm6.6.693a4.638,4.638,0,0,1-3.54-1.4A5.191,5.191,0,0,1,43.8,41.117a5.407,5.407,0,0,1,1.377-3.936,4.95,4.95,0,0,1,3.721-1.416,4.485,4.485,0,0,1,3.491,1.377,5.46,5.46,0,0,1,1.255,3.818,5.372,5.372,0,0,1-1.353,3.833A4.739,4.739,0,0,1,48.659,46.234Zm.117-9.121a3.046,3.046,0,0,0-2.441,1.05,4.312,4.312,0,0,0-.9,2.9,4.078,4.078,0,0,0,.908,2.8,3.087,3.087,0,0,0,2.432,1.025,2.928,2.928,0,0,0,2.388-1.006A4.365,4.365,0,0,0,52,41.02a4.44,4.44,0,0,0-.835-2.891A2.915,2.915,0,0,0,48.776,37.113ZM64.5,46H62.9V40.3q0-3.184-2.324-3.184a2.521,2.521,0,0,0-1.987.9A3.348,3.348,0,0,0,57.8,40.3V46H56.2V36h1.6v1.66h.039a3.609,3.609,0,0,1,3.281-1.895,3.059,3.059,0,0,1,2.51,1.06,4.72,4.72,0,0,1,.869,3.062Zm7.2.234a4.638,4.638,0,0,1-3.54-1.4,5.191,5.191,0,0,1-1.323-3.716,5.407,5.407,0,0,1,1.377-3.936,4.95,4.95,0,0,1,3.721-1.416,4.485,4.485,0,0,1,3.491,1.377,5.46,5.46,0,0,1,1.255,3.818,5.372,5.372,0,0,1-1.353,3.833A4.739,4.739,0,0,1,71.7,46.234Zm.117-9.121a3.046,3.046,0,0,0-2.441,1.05,4.312,4.312,0,0,0-.9,2.9,4.078,4.078,0,0,0,.908,2.8,3.087,3.087,0,0,0,2.432,1.025A2.928,2.928,0,0,0,74.2,43.881a4.365,4.365,0,0,0,.835-2.861,4.44,4.44,0,0,0-.835-2.891A2.915,2.915,0,0,0,71.813,37.113Zm14.238,8.428a5.2,5.2,0,0,1-2.734.693,4.527,4.527,0,0,1-3.452-1.392,5.043,5.043,0,0,1-1.313-3.608,5.544,5.544,0,0,1,1.416-3.97,4.954,4.954,0,0,1,3.779-1.5,5.261,5.261,0,0,1,2.324.488v1.641a4.072,4.072,0,0,0-2.383-.781,3.22,3.22,0,0,0-2.515,1.1,4.169,4.169,0,0,0-.981,2.886,3.969,3.969,0,0,0,.923,2.773,3.181,3.181,0,0,0,2.476,1.016,4.014,4.014,0,0,0,2.461-.869Zm3.242-12.08a1.015,1.015,0,0,1-.732-.293.989.989,0,0,1-.3-.742,1.026,1.026,0,0,1,1.035-1.045,1.034,1.034,0,0,1,.747.3,1.043,1.043,0,0,1,0,1.479A1.025,1.025,0,0,1,89.293,33.461ZM90.075,46h-1.6V36h1.6Zm17.441,0h-1.6V40.258a4.332,4.332,0,0,0-.513-2.4,1.944,1.944,0,0,0-1.724-.742,2.134,2.134,0,0,0-1.743.938,3.586,3.586,0,0,0-.718,2.246V46h-1.6V40.063q0-2.949-2.275-2.949A2.108,2.108,0,0,0,95.6,38a3.653,3.653,0,0,0-.684,2.3V46h-1.6V36h1.6v1.582h.039a3.4,3.4,0,0,1,3.105-1.816,2.888,2.888,0,0,1,2.832,2.07,3.569,3.569,0,0,1,3.32-2.07q3.3,0,3.3,4.072Zm3.848-12.539a1.015,1.015,0,0,1-.732-.293.989.989,0,0,1-.3-.742,1.026,1.026,0,0,1,1.035-1.045,1.034,1.034,0,0,1,.747.3,1.043,1.043,0,0,1,0,1.479A1.025,1.025,0,0,1,111.364,33.461ZM112.145,46h-1.6V36h1.6Zm11.279-4.6h-7.061a3.74,3.74,0,0,0,.9,2.578,3.1,3.1,0,0,0,2.363.908,4.913,4.913,0,0,0,3.105-1.113v1.5a5.8,5.8,0,0,1-3.486.957,4.227,4.227,0,0,1-3.33-1.362,5.576,5.576,0,0,1-1.211-3.833,5.468,5.468,0,0,1,1.323-3.8,4.243,4.243,0,0,1,3.286-1.47,3.76,3.76,0,0,1,3.037,1.27,5.293,5.293,0,0,1,1.074,3.525Zm-1.641-1.357a3.259,3.259,0,0,0-.669-2.158,2.279,2.279,0,0,0-1.831-.771,2.587,2.587,0,0,0-1.924.811,3.678,3.678,0,0,0-.977,2.119ZM134.147,46h-1.6V40.3q0-3.184-2.324-3.184a2.521,2.521,0,0,0-1.987.9,3.348,3.348,0,0,0-.786,2.28V46h-1.6V36h1.6v1.66h.039a3.609,3.609,0,0,1,3.281-1.895,3.059,3.059,0,0,1,2.51,1.06,4.72,4.72,0,0,1,.869,3.062Zm7.656-.1a3.088,3.088,0,0,1-1.494.313q-2.627,0-2.627-2.93V37.367h-1.719V36h1.719V33.559l1.6-.518V36h2.52v1.367h-2.52V43a2.336,2.336,0,0,0,.342,1.436,1.364,1.364,0,0,0,1.133.43,1.684,1.684,0,0,0,1.045-.332Zm6.318.332a4.638,4.638,0,0,1-3.54-1.4,5.191,5.191,0,0,1-1.323-3.716,5.407,5.407,0,0,1,1.377-3.936,4.95,4.95,0,0,1,3.721-1.416,4.485,4.485,0,0,1,3.491,1.377,5.46,5.46,0,0,1,1.255,3.818,5.372,5.372,0,0,1-1.353,3.833A4.739,4.739,0,0,1,148.121,46.234Zm.117-9.121a3.046,3.046,0,0,0-2.441,1.05,4.312,4.312,0,0,0-.9,2.9,4.078,4.078,0,0,0,.908,2.8,3.087,3.087,0,0,0,2.432,1.025,2.928,2.928,0,0,0,2.388-1.006,4.365,4.365,0,0,0,.835-2.861,4.44,4.44,0,0,0-.835-2.891A2.915,2.915,0,0,0,148.239,37.113Zm8.887,6.66-1.562,4.8H154.42l1.143-4.8ZM11.7,61.621A1.958,1.958,0,0,0,10.49,61.3a2.044,2.044,0,0,0-1.714.967A4.47,4.47,0,0,0,8.087,64.9V70h-1.6V60h1.6v2.061h.039a3.492,3.492,0,0,1,1.045-1.646,2.383,2.383,0,0,1,1.572-.591,2.615,2.615,0,0,1,.957.137ZM21.476,65.4H14.415a3.74,3.74,0,0,0,.9,2.578,3.1,3.1,0,0,0,2.363.908,4.913,4.913,0,0,0,3.105-1.113v1.5a5.8,5.8,0,0,1-3.486.957,4.227,4.227,0,0,1-3.33-1.362,5.576,5.576,0,0,1-1.211-3.833,5.468,5.468,0,0,1,1.323-3.8,4.243,4.243,0,0,1,3.286-1.47,3.76,3.76,0,0,1,3.037,1.27,5.293,5.293,0,0,1,1.074,3.525Zm-1.641-1.357a3.259,3.259,0,0,0-.669-2.158,2.279,2.279,0,0,0-1.831-.771,2.587,2.587,0,0,0-1.924.811,3.678,3.678,0,0,0-.977,2.119Zm3.457,5.6V67.92a4.74,4.74,0,0,0,2.881.967q2.109,0,2.109-1.406A1.22,1.22,0,0,0,28.1,66.8a1.8,1.8,0,0,0-.488-.493,3.758,3.758,0,0,0-.723-.386q-.415-.171-.894-.356a11.508,11.508,0,0,1-1.167-.532,3.526,3.526,0,0,1-.84-.605,2.253,2.253,0,0,1-.508-.767,2.712,2.712,0,0,1-.171-1.006,2.389,2.389,0,0,1,.322-1.245,2.858,2.858,0,0,1,.859-.908,4.007,4.007,0,0,1,1.226-.552,5.436,5.436,0,0,1,1.421-.186,5.737,5.737,0,0,1,2.324.449v1.621a4.53,4.53,0,0,0-2.539-.723,2.968,2.968,0,0,0-.811.1,1.984,1.984,0,0,0-.62.288,1.331,1.331,0,0,0-.4.444,1.17,1.17,0,0,0-.142.571,1.37,1.37,0,0,0,.142.654,1.44,1.44,0,0,0,.415.469,3.172,3.172,0,0,0,.664.371q.391.166.889.361a12.368,12.368,0,0,1,1.191.522,4.086,4.086,0,0,1,.9.605,2.366,2.366,0,0,1,.571.776,2.5,2.5,0,0,1,.2,1.045,2.464,2.464,0,0,1-.327,1.289,2.8,2.8,0,0,1-.874.908,4,4,0,0,1-1.26.537,6.22,6.22,0,0,1-1.494.176A5.674,5.674,0,0,1,23.292,69.639Zm10.732-1.084h-.039V74.6h-1.6V60h1.6v1.758h.039a3.787,3.787,0,0,1,3.457-1.992A3.662,3.662,0,0,1,40.5,61.108a5.562,5.562,0,0,1,1.084,3.6,6.2,6.2,0,0,1-1.221,4.019,4.064,4.064,0,0,1-3.34,1.509A3.346,3.346,0,0,1,34.025,68.555Zm-.039-4.033v1.4a2.973,2.973,0,0,0,.806,2.1,2.874,2.874,0,0,0,4.326-.249,5.107,5.107,0,0,0,.825-3.1,4.032,4.032,0,0,0-.771-2.617,2.553,2.553,0,0,0-2.09-.947,2.838,2.838,0,0,0-2.246.972A3.568,3.568,0,0,0,33.986,64.521Zm18.193.879H45.118a3.74,3.74,0,0,0,.9,2.578,3.1,3.1,0,0,0,2.363.908,4.913,4.913,0,0,0,3.105-1.113v1.5A5.8,5.8,0,0,1,48,70.234a4.227,4.227,0,0,1-3.33-1.362,5.576,5.576,0,0,1-1.211-3.833,5.468,5.468,0,0,1,1.323-3.8,4.243,4.243,0,0,1,3.286-1.47,3.76,3.76,0,0,1,3.037,1.27,5.293,5.293,0,0,1,1.074,3.525Zm-1.641-1.357a3.259,3.259,0,0,0-.669-2.158,2.279,2.279,0,0,0-1.831-.771,2.587,2.587,0,0,0-1.924.811,3.678,3.678,0,0,0-.977,2.119Zm8.7,5.859a3.088,3.088,0,0,1-1.494.313q-2.627,0-2.627-2.93V61.367H53.4V60h1.719V57.559l1.6-.518V60h2.52v1.367H56.72V67a2.336,2.336,0,0,0,.342,1.436,1.364,1.364,0,0,0,1.133.43,1.684,1.684,0,0,0,1.045-.332Zm6.318.332a4.638,4.638,0,0,1-3.54-1.4,5.191,5.191,0,0,1-1.323-3.716,5.407,5.407,0,0,1,1.377-3.936,4.95,4.95,0,0,1,3.721-1.416,4.485,4.485,0,0,1,3.491,1.377,5.46,5.46,0,0,1,1.255,3.818,5.372,5.372,0,0,1-1.353,3.833A4.739,4.739,0,0,1,65.558,70.234Zm.117-9.121a3.046,3.046,0,0,0-2.441,1.05,4.312,4.312,0,0,0-.9,2.9,4.078,4.078,0,0,0,.908,2.8,3.087,3.087,0,0,0,2.432,1.025,2.928,2.928,0,0,0,2.388-1.006A4.365,4.365,0,0,0,68.9,65.02a4.44,4.44,0,0,0-.835-2.891A2.915,2.915,0,0,0,65.675,61.113Zm8.887,6.66L73,72.578H71.857L73,67.773Zm15.166,1.768a5.2,5.2,0,0,1-2.734.693,4.527,4.527,0,0,1-3.452-1.392,5.043,5.043,0,0,1-1.313-3.608,5.544,5.544,0,0,1,1.416-3.97,4.954,4.954,0,0,1,3.779-1.5,5.261,5.261,0,0,1,2.324.488v1.641a4.072,4.072,0,0,0-2.383-.781,3.22,3.22,0,0,0-2.515,1.1,4.169,4.169,0,0,0-.981,2.886,3.969,3.969,0,0,0,.923,2.773,3.181,3.181,0,0,0,2.476,1.016,4.014,4.014,0,0,0,2.461-.869Zm6.6.693a4.638,4.638,0,0,1-3.54-1.4,5.191,5.191,0,0,1-1.323-3.716,5.407,5.407,0,0,1,1.377-3.936,4.95,4.95,0,0,1,3.721-1.416,4.485,4.485,0,0,1,3.491,1.377,5.46,5.46,0,0,1,1.255,3.818,5.372,5.372,0,0,1-1.353,3.833A4.739,4.739,0,0,1,96.329,70.234Zm.117-9.121a3.046,3.046,0,0,0-2.441,1.05,4.312,4.312,0,0,0-.9,2.9,4.078,4.078,0,0,0,.908,2.8,3.087,3.087,0,0,0,2.432,1.025,2.928,2.928,0,0,0,2.388-1.006,4.365,4.365,0,0,0,.835-2.861,4.44,4.44,0,0,0-.835-2.891A2.915,2.915,0,0,0,96.447,61.113ZM112.169,70h-1.6V64.3q0-3.184-2.324-3.184a2.521,2.521,0,0,0-1.987.9,3.348,3.348,0,0,0-.786,2.28V70h-1.6V60h1.6v1.66h.039a3.609,3.609,0,0,1,3.281-1.895,3.059,3.059,0,0,1,2.51,1.06,4.72,4.72,0,0,1,.869,3.062Zm7.959-13.4a2.133,2.133,0,0,0-1.064-.264q-1.68,0-1.68,2.119V60h2.344v1.367h-2.344V70h-1.592V61.367h-1.709V60h1.709V58.379a3.369,3.369,0,0,1,.908-2.485,3.066,3.066,0,0,1,2.266-.913,3.138,3.138,0,0,1,1.162.176Zm2.139.859a1.015,1.015,0,0,1-.732-.293.989.989,0,0,1-.3-.742,1.026,1.026,0,0,1,1.035-1.045,1.034,1.034,0,0,1,.747.3,1.043,1.043,0,0,1,0,1.479A1.025,1.025,0,0,1,122.267,57.461ZM123.048,70h-1.6V60h1.6Zm10.4,0h-1.6V68.438h-.039a3.353,3.353,0,0,1-3.076,1.8,3.288,3.288,0,0,1-2.339-.791,2.741,2.741,0,0,1-.845-2.1q0-2.8,3.3-3.262l3-.42q0-2.549-2.061-2.549a4.923,4.923,0,0,0-3.262,1.23V60.7a6.2,6.2,0,0,1,3.4-.937q3.525,0,3.525,3.73Zm-1.6-5.059-2.412.332a3.916,3.916,0,0,0-1.68.552,1.591,1.591,0,0,0-.566,1.4,1.526,1.526,0,0,0,.522,1.2,2.019,2.019,0,0,0,1.392.464,2.571,2.571,0,0,0,1.968-.835,2.983,2.983,0,0,0,.776-2.114ZM144.767,70h-1.6V64.3q0-3.184-2.324-3.184a2.521,2.521,0,0,0-1.987.9,3.348,3.348,0,0,0-.786,2.28V70h-1.6V60h1.6v1.66h.039a3.609,3.609,0,0,1,3.281-1.895,3.059,3.059,0,0,1,2.51,1.06,4.72,4.72,0,0,1,.869,3.062Zm9.99-9.541-5.918,8.174H154.7V70h-8.213v-.5l5.918-8.135h-5.361V60h7.715ZM163.986,70h-1.6V68.438h-.039a3.353,3.353,0,0,1-3.076,1.8,3.288,3.288,0,0,1-2.339-.791,2.741,2.741,0,0,1-.845-2.1q0-2.8,3.3-3.262l3-.42q0-2.549-2.061-2.549a4.923,4.923,0,0,0-3.262,1.23V60.7a6.2,6.2,0,0,1,3.4-.937q3.525,0,3.525,3.73Zm-1.6-5.059-2.412.332a3.916,3.916,0,0,0-1.68.552,1.591,1.591,0,0,0-.566,1.4,1.526,1.526,0,0,0,.522,1.2,2.019,2.019,0,0,0,1.392.464,2.571,2.571,0,0,0,1.968-.835,2.983,2.983,0,0,0,.776-2.114Zm5.176,5.273a1.037,1.037,0,0,1-.767-.322,1.061,1.061,0,0,1-.317-.771,1.077,1.077,0,0,1,.317-.776,1.029,1.029,0,0,1,.767-.327,1.056,1.056,0,0,1,.781.327,1.069,1.069,0,0,1,.322.776,1.053,1.053,0,0,1-.322.771A1.064,1.064,0,0,1,167.56,70.215Z" transform="translate(750.137 965.293)" fill="#fff"/>
    <path id="Trazado_228417" data-name="Trazado 228417" d="M29.484,22H27.667l-1.484-3.926H20.245L18.849,22H17.023L22.394,8h1.7Zm-3.838-5.4-2.2-5.967a5.713,5.713,0,0,1-.215-.937h-.039a5.231,5.231,0,0,1-.225.938L20.792,16.6ZM45.529,22h-1.6V16.258a4.332,4.332,0,0,0-.513-2.4,1.944,1.944,0,0,0-1.724-.742,2.134,2.134,0,0,0-1.743.938A3.586,3.586,0,0,0,39.23,16.3V22h-1.6V16.063q0-2.949-2.275-2.949A2.108,2.108,0,0,0,33.615,14a3.653,3.653,0,0,0-.684,2.3V22h-1.6V12h1.6v1.582h.039a3.4,3.4,0,0,1,3.105-1.816,2.888,2.888,0,0,1,2.832,2.07,3.569,3.569,0,0,1,3.32-2.07q3.3,0,3.3,4.072ZM49.376,9.461a1.015,1.015,0,0,1-.732-.293.989.989,0,0,1-.3-.742,1.026,1.026,0,0,1,1.035-1.045,1.034,1.034,0,0,1,.747.3,1.043,1.043,0,0,1,0,1.479A1.025,1.025,0,0,1,49.376,9.461ZM50.158,22h-1.6V12h1.6Zm2.637-.361V19.92a4.74,4.74,0,0,0,2.881.967q2.109,0,2.109-1.406A1.22,1.22,0,0,0,57.6,18.8a1.8,1.8,0,0,0-.488-.493,3.759,3.759,0,0,0-.723-.386q-.415-.171-.894-.356a11.508,11.508,0,0,1-1.167-.532,3.525,3.525,0,0,1-.84-.605,2.253,2.253,0,0,1-.508-.767,2.712,2.712,0,0,1-.171-1.006,2.389,2.389,0,0,1,.322-1.245A2.858,2.858,0,0,1,54,12.5a4.007,4.007,0,0,1,1.226-.552,5.436,5.436,0,0,1,1.421-.186,5.737,5.737,0,0,1,2.324.449v1.621a4.53,4.53,0,0,0-2.539-.723,2.968,2.968,0,0,0-.811.1A1.984,1.984,0,0,0,55,13.5a1.331,1.331,0,0,0-.4.444,1.17,1.17,0,0,0-.142.571,1.37,1.37,0,0,0,.142.654,1.44,1.44,0,0,0,.415.469,3.172,3.172,0,0,0,.664.371q.391.166.889.361a12.368,12.368,0,0,1,1.191.522,4.086,4.086,0,0,1,.9.605,2.366,2.366,0,0,1,.571.776,2.5,2.5,0,0,1,.2,1.045,2.464,2.464,0,0,1-.327,1.289,2.8,2.8,0,0,1-.874.908,4,4,0,0,1-1.26.537,6.22,6.22,0,0,1-1.494.176A5.674,5.674,0,0,1,52.794,21.639Zm13.73.264a3.088,3.088,0,0,1-1.494.313q-2.627,0-2.627-2.93V13.367H60.685V12H62.4V9.559l1.6-.518V12h2.52v1.367h-2.52V19a2.336,2.336,0,0,0,.342,1.436,1.364,1.364,0,0,0,1.133.43,1.684,1.684,0,0,0,1.045-.332Zm9.3.1h-1.6V20.438h-.039a3.353,3.353,0,0,1-3.076,1.8,3.288,3.288,0,0,1-2.339-.791,2.741,2.741,0,0,1-.845-2.1q0-2.8,3.3-3.262l3-.42q0-2.549-2.061-2.549a4.923,4.923,0,0,0-3.262,1.23V12.7a6.2,6.2,0,0,1,3.4-.937q3.525,0,3.525,3.73Zm-1.6-5.059-2.412.332a3.916,3.916,0,0,0-1.68.552,1.591,1.591,0,0,0-.566,1.4,1.526,1.526,0,0,0,.522,1.2,2.019,2.019,0,0,0,1.392.464,2.571,2.571,0,0,0,1.968-.835,2.983,2.983,0,0,0,.776-2.114ZM87.374,22h-1.6V20.3h-.039A3.7,3.7,0,0,1,82.3,22.234a3.735,3.735,0,0,1-3.013-1.343,5.509,5.509,0,0,1-1.128-3.657,5.993,5.993,0,0,1,1.25-3.975,4.123,4.123,0,0,1,3.33-1.494,3.206,3.206,0,0,1,3,1.621h.039V7.2h1.6Zm-1.6-4.521V16a2.861,2.861,0,0,0-.8-2.051,2.686,2.686,0,0,0-2.031-.84,2.766,2.766,0,0,0-2.3,1.074,4.707,4.707,0,0,0-.84,2.969,4.234,4.234,0,0,0,.806,2.729,2.633,2.633,0,0,0,2.163,1,2.735,2.735,0,0,0,2.173-.967A3.6,3.6,0,0,0,85.773,17.479Zm6.309,2.295-1.562,4.8H89.376l1.143-4.8ZM107.589,22h-1.6V20.438h-.039a3.353,3.353,0,0,1-3.076,1.8,3.288,3.288,0,0,1-2.339-.791,2.741,2.741,0,0,1-.845-2.1q0-2.8,3.3-3.262l3-.42q0-2.549-2.061-2.549a4.923,4.923,0,0,0-3.262,1.23V12.7a6.2,6.2,0,0,1,3.4-.937q3.525,0,3.525,3.73Zm-1.6-5.059-2.412.332a3.916,3.916,0,0,0-1.68.552,1.591,1.591,0,0,0-.566,1.4,1.526,1.526,0,0,0,.522,1.2,2.019,2.019,0,0,0,1.392.464,2.571,2.571,0,0,0,1.968-.835,2.983,2.983,0,0,0,.776-2.114Zm9.561-8.34a2.133,2.133,0,0,0-1.064-.264q-1.68,0-1.68,2.119V12h2.344v1.367H112.8V22h-1.592V13.367H109.5V12h1.709V10.379a3.369,3.369,0,0,1,.908-2.485,3.066,3.066,0,0,1,2.266-.913,3.138,3.138,0,0,1,1.162.176Zm9.355,8.8h-7.061a3.74,3.74,0,0,0,.9,2.578,3.1,3.1,0,0,0,2.363.908,4.913,4.913,0,0,0,3.105-1.113v1.5a5.8,5.8,0,0,1-3.486.957,4.227,4.227,0,0,1-3.33-1.362,5.576,5.576,0,0,1-1.211-3.833,5.468,5.468,0,0,1,1.323-3.8,4.243,4.243,0,0,1,3.286-1.47,3.76,3.76,0,0,1,3.037,1.27,5.293,5.293,0,0,1,1.074,3.525Zm-1.641-1.357a3.259,3.259,0,0,0-.669-2.158,2.279,2.279,0,0,0-1.831-.771,2.587,2.587,0,0,0-1.924.811,3.678,3.678,0,0,0-.977,2.119Zm10.879,5.5a5.2,5.2,0,0,1-2.734.693,4.527,4.527,0,0,1-3.452-1.392,5.043,5.043,0,0,1-1.313-3.608,5.544,5.544,0,0,1,1.416-3.97,4.954,4.954,0,0,1,3.779-1.5,5.261,5.261,0,0,1,2.324.488v1.641a4.072,4.072,0,0,0-2.383-.781,3.22,3.22,0,0,0-2.515,1.1,4.169,4.169,0,0,0-.981,2.886,3.969,3.969,0,0,0,.923,2.773,3.181,3.181,0,0,0,2.476,1.016,4.014,4.014,0,0,0,2.461-.869Zm7.061.361a3.088,3.088,0,0,1-1.494.313q-2.627,0-2.627-2.93V13.367h-1.719V12h1.719V9.559l1.6-.518V12h2.52v1.367h-2.52V19a2.336,2.336,0,0,0,.342,1.436,1.364,1.364,0,0,0,1.133.43,1.684,1.684,0,0,0,1.045-.332Zm6.318.332a4.638,4.638,0,0,1-3.54-1.4,5.191,5.191,0,0,1-1.323-3.716,5.407,5.407,0,0,1,1.377-3.936,4.95,4.95,0,0,1,3.721-1.416,4.485,4.485,0,0,1,3.491,1.377,5.46,5.46,0,0,1,1.255,3.818,5.372,5.372,0,0,1-1.353,3.833A4.739,4.739,0,0,1,147.521,22.234Zm.117-9.121a3.046,3.046,0,0,0-2.441,1.05,4.312,4.312,0,0,0-.9,2.9,4.078,4.078,0,0,0,.908,2.8,3.087,3.087,0,0,0,2.432,1.025,2.928,2.928,0,0,0,2.388-1.006,4.365,4.365,0,0,0,.835-2.861,4.44,4.44,0,0,0-.835-2.891A2.915,2.915,0,0,0,147.638,13.113Zm8.887,6.66-1.562,4.8H153.82l1.143-4.8ZM45.773,33.461a1.015,1.015,0,0,1-.732-.293.989.989,0,0,1-.3-.742,1.026,1.026,0,0,1,1.035-1.045,1.034,1.034,0,0,1,.747.3,1.043,1.043,0,0,1,0,1.479A1.025,1.025,0,0,1,45.773,33.461ZM46.554,46h-1.6V36h1.6ZM58.1,46H56.5V40.3q0-3.184-2.324-3.184a2.521,2.521,0,0,0-1.987.9A3.348,3.348,0,0,0,51.4,40.3V46H49.8V36h1.6v1.66h.039a3.609,3.609,0,0,1,3.281-1.895,3.059,3.059,0,0,1,2.51,1.06,4.72,4.72,0,0,1,.869,3.062Zm7.656-.1a3.088,3.088,0,0,1-1.494.313q-2.627,0-2.627-2.93V37.367H59.913V36h1.719V33.559l1.6-.518V36h2.52v1.367h-2.52V43a2.336,2.336,0,0,0,.342,1.436,1.364,1.364,0,0,0,1.133.43,1.684,1.684,0,0,0,1.045-.332Zm2.959-12.441a1.015,1.015,0,0,1-.732-.293.989.989,0,0,1-.3-.742,1.026,1.026,0,0,1,1.035-1.045,1.034,1.034,0,0,1,.747.3,1.043,1.043,0,0,1,0,1.479A1.025,1.025,0,0,1,68.712,33.461ZM69.493,46h-1.6V36h1.6Zm17.441,0h-1.6V40.258a4.332,4.332,0,0,0-.513-2.4,1.944,1.944,0,0,0-1.724-.742,2.134,2.134,0,0,0-1.743.938,3.586,3.586,0,0,0-.718,2.246V46h-1.6V40.063q0-2.949-2.275-2.949A2.108,2.108,0,0,0,75.021,38a3.653,3.653,0,0,0-.684,2.3V46h-1.6V36h1.6v1.582h.039a3.4,3.4,0,0,1,3.105-1.816,2.888,2.888,0,0,1,2.832,2.07,3.569,3.569,0,0,1,3.32-2.07q3.3,0,3.3,4.072Zm3.848-12.539a1.015,1.015,0,0,1-.732-.293.989.989,0,0,1-.3-.742,1.026,1.026,0,0,1,1.035-1.045,1.034,1.034,0,0,1,.747.3,1.043,1.043,0,0,1,0,1.479A1.025,1.025,0,0,1,90.783,33.461ZM91.564,46h-1.6V36h1.6Zm11.777,0h-1.6V44.3H101.7a3.7,3.7,0,0,1-3.437,1.934,3.735,3.735,0,0,1-3.013-1.343,5.509,5.509,0,0,1-1.128-3.657,5.993,5.993,0,0,1,1.25-3.975,4.123,4.123,0,0,1,3.33-1.494,3.206,3.206,0,0,1,3,1.621h.039V31.2h1.6Zm-1.6-4.521V40a2.861,2.861,0,0,0-.8-2.051,2.686,2.686,0,0,0-2.031-.84,2.766,2.766,0,0,0-2.3,1.074,4.707,4.707,0,0,0-.84,2.969,4.234,4.234,0,0,0,.806,2.729,2.633,2.633,0,0,0,2.163,1,2.735,2.735,0,0,0,2.173-.967A3.6,3.6,0,0,0,101.74,41.479Zm12,4.521h-1.6V44.438H112.1a3.353,3.353,0,0,1-3.076,1.8,3.288,3.288,0,0,1-2.339-.791,2.741,2.741,0,0,1-.845-2.1q0-2.8,3.3-3.262l3-.42q0-2.549-2.061-2.549a4.923,4.923,0,0,0-3.262,1.23V36.7a6.2,6.2,0,0,1,3.4-.937q3.525,0,3.525,3.73Zm-1.6-5.059-2.412.332a3.916,3.916,0,0,0-1.68.552,1.591,1.591,0,0,0-.566,1.4,1.526,1.526,0,0,0,.522,1.2,2.019,2.019,0,0,0,1.392.464,2.571,2.571,0,0,0,1.968-.835,2.983,2.983,0,0,0,.776-2.114ZM125.294,46h-1.6V44.3h-.039a3.7,3.7,0,0,1-3.437,1.934,3.735,3.735,0,0,1-3.013-1.343,5.509,5.509,0,0,1-1.128-3.657,5.993,5.993,0,0,1,1.25-3.975,4.123,4.123,0,0,1,3.33-1.494,3.206,3.206,0,0,1,3,1.621h.039V31.2h1.6Zm-1.6-4.521V40a2.861,2.861,0,0,0-.8-2.051,2.686,2.686,0,0,0-2.031-.84,2.766,2.766,0,0,0-2.3,1.074,4.707,4.707,0,0,0-.84,2.969,4.234,4.234,0,0,0,.806,2.729,2.633,2.633,0,0,0,2.163,1,2.735,2.735,0,0,0,2.173-.967A3.6,3.6,0,0,0,123.693,41.479Zm5.4,4.736a1.037,1.037,0,0,1-.767-.322,1.061,1.061,0,0,1-.317-.771,1.077,1.077,0,0,1,.317-.776,1.029,1.029,0,0,1,.767-.327,1.056,1.056,0,0,1,.781.327,1.069,1.069,0,0,1,.322.776,1.053,1.053,0,0,1-.322.771A1.064,1.064,0,0,1,129.093,46.215Z" transform="translate(750.137 1098.563)" fill="#fff"/>
    <path id="Trazado_228418" data-name="Trazado 228418" d="M14.307,21.434V19.5a3.755,3.755,0,0,0,.8.527,6.448,6.448,0,0,0,.977.4,7.774,7.774,0,0,0,1.03.249,5.744,5.744,0,0,0,.957.088,3.749,3.749,0,0,0,2.261-.562,2.106,2.106,0,0,0,.5-2.6,2.805,2.805,0,0,0-.688-.767,6.832,6.832,0,0,0-1.04-.664q-.6-.317-1.294-.669-.732-.371-1.367-.752a5.924,5.924,0,0,1-1.1-.84,3.5,3.5,0,0,1-.737-1.04,3.219,3.219,0,0,1-.269-1.362,3.2,3.2,0,0,1,.42-1.665,3.6,3.6,0,0,1,1.1-1.167,5,5,0,0,1,1.558-.684,7.132,7.132,0,0,1,1.782-.225,6.83,6.83,0,0,1,3.018.5v1.846a5.47,5.47,0,0,0-3.184-.859,5.236,5.236,0,0,0-1.074.112,3.034,3.034,0,0,0-.957.366,2.12,2.12,0,0,0-.684.654,1.737,1.737,0,0,0-.264.977,2.011,2.011,0,0,0,.2.928,2.274,2.274,0,0,0,.591.713,5.885,5.885,0,0,0,.952.625q.562.3,1.294.664.752.371,1.426.781a6.517,6.517,0,0,1,1.182.908,4.036,4.036,0,0,1,.806,1.1,3.1,3.1,0,0,1,.3,1.387,3.517,3.517,0,0,1-.405,1.753,3.326,3.326,0,0,1-1.094,1.167,4.777,4.777,0,0,1-1.587.649,8.691,8.691,0,0,1-1.895.2,7.72,7.72,0,0,1-.82-.054q-.488-.054-1-.156a8.128,8.128,0,0,1-.962-.254A2.993,2.993,0,0,1,14.307,21.434Zm19.1-4.033H26.348a3.74,3.74,0,0,0,.9,2.578,3.1,3.1,0,0,0,2.363.908,4.913,4.913,0,0,0,3.105-1.113v1.5a5.8,5.8,0,0,1-3.486.957,4.227,4.227,0,0,1-3.33-1.362,5.576,5.576,0,0,1-1.211-3.833,5.468,5.468,0,0,1,1.323-3.8,4.243,4.243,0,0,1,3.286-1.47,3.76,3.76,0,0,1,3.037,1.27,5.293,5.293,0,0,1,1.074,3.525Zm-1.641-1.357a3.259,3.259,0,0,0-.669-2.158,2.279,2.279,0,0,0-1.831-.771,2.587,2.587,0,0,0-1.924.811,3.678,3.678,0,0,0-.977,2.119Zm12.6,5.156q0,5.508-5.273,5.508A7.08,7.08,0,0,1,35.85,26V24.4a6.659,6.659,0,0,0,3.223.938q3.691,0,3.691-3.926V20.32h-.039a4.046,4.046,0,0,1-6.44.581,5.329,5.329,0,0,1-1.138-3.579,6.226,6.226,0,0,1,1.226-4.053,4.094,4.094,0,0,1,3.354-1.5,3.26,3.26,0,0,1,3,1.621h.039V12h1.6Zm-1.6-3.721V16a2.861,2.861,0,0,0-.806-2.041,2.652,2.652,0,0,0-2.007-.85,2.781,2.781,0,0,0-2.324,1.079,4.817,4.817,0,0,0-.84,3.022,4.135,4.135,0,0,0,.806,2.671,2.6,2.6,0,0,0,2.134,1,2.788,2.788,0,0,0,2.192-.957A3.567,3.567,0,0,0,42.764,17.479ZM55.694,22h-1.6V20.418h-.039a3.289,3.289,0,0,1-3.086,1.816q-3.574,0-3.574-4.258V12h1.592v5.723q0,3.164,2.422,3.164a2.45,2.45,0,0,0,1.929-.864,3.307,3.307,0,0,0,.757-2.261V12h1.6Zm8.447-8.379A1.958,1.958,0,0,0,62.93,13.3a2.044,2.044,0,0,0-1.714.967,4.47,4.47,0,0,0-.688,2.637V22h-1.6V12h1.6v2.061h.039a3.492,3.492,0,0,1,1.045-1.646,2.383,2.383,0,0,1,1.572-.591,2.615,2.615,0,0,1,.957.137ZM66.7,9.461a1.015,1.015,0,0,1-.732-.293.989.989,0,0,1-.3-.742A1.026,1.026,0,0,1,66.7,7.381a1.034,1.034,0,0,1,.747.3,1.043,1.043,0,0,1,0,1.479A1.025,1.025,0,0,1,66.7,9.461ZM67.481,22h-1.6V12h1.6Zm11.777,0h-1.6V20.3h-.039a3.7,3.7,0,0,1-3.437,1.934,3.735,3.735,0,0,1-3.013-1.343,5.509,5.509,0,0,1-1.128-3.657,5.993,5.993,0,0,1,1.25-3.975,4.123,4.123,0,0,1,3.33-1.494,3.206,3.206,0,0,1,3,1.621h.039V7.2h1.6Zm-1.6-4.521V16a2.861,2.861,0,0,0-.8-2.051,2.686,2.686,0,0,0-2.031-.84,2.766,2.766,0,0,0-2.3,1.074,4.707,4.707,0,0,0-.84,2.969,4.234,4.234,0,0,0,.806,2.729,2.633,2.633,0,0,0,2.163,1,2.735,2.735,0,0,0,2.173-.967A3.6,3.6,0,0,0,77.657,17.479Zm12,4.521h-1.6V20.438h-.039a3.353,3.353,0,0,1-3.076,1.8,3.288,3.288,0,0,1-2.339-.791,2.741,2.741,0,0,1-.845-2.1q0-2.8,3.3-3.262l3-.42q0-2.549-2.061-2.549a4.923,4.923,0,0,0-3.262,1.23V12.7a6.2,6.2,0,0,1,3.4-.937q3.525,0,3.525,3.73Zm-1.6-5.059-2.412.332a3.916,3.916,0,0,0-1.68.552,1.591,1.591,0,0,0-.566,1.4,1.526,1.526,0,0,0,.522,1.2,2.019,2.019,0,0,0,1.392.464,2.571,2.571,0,0,0,1.968-.835,2.983,2.983,0,0,0,.776-2.114ZM101.212,22h-1.6V20.3h-.039a3.7,3.7,0,0,1-3.437,1.934,3.735,3.735,0,0,1-3.013-1.343,5.509,5.509,0,0,1-1.128-3.657,5.993,5.993,0,0,1,1.25-3.975,4.123,4.123,0,0,1,3.33-1.494,3.206,3.206,0,0,1,3,1.621h.039V7.2h1.6Zm-1.6-4.521V16a2.861,2.861,0,0,0-.8-2.051,2.686,2.686,0,0,0-2.031-.84,2.766,2.766,0,0,0-2.3,1.074,4.707,4.707,0,0,0-.84,2.969,4.234,4.234,0,0,0,.806,2.729,2.633,2.633,0,0,0,2.163,1,2.735,2.735,0,0,0,2.173-.967A3.6,3.6,0,0,0,99.61,17.479ZM114.874,8.6a2.133,2.133,0,0,0-1.064-.264q-1.68,0-1.68,2.119V12h2.344v1.367H112.13V22h-1.592V13.367h-1.709V12h1.709V10.379a3.369,3.369,0,0,1,.908-2.485,3.066,3.066,0,0,1,2.266-.913,3.138,3.138,0,0,1,1.162.176Zm2.92,13.4h-1.6V12h1.6Zm1.436-15.1-2.559,3.2h-1.24l2.178-3.2Zm1.2,14.736V19.92a4.74,4.74,0,0,0,2.881.967q2.109,0,2.109-1.406a1.22,1.22,0,0,0-.181-.679,1.8,1.8,0,0,0-.488-.493,3.758,3.758,0,0,0-.723-.386q-.415-.171-.894-.356a11.508,11.508,0,0,1-1.167-.532,3.525,3.525,0,0,1-.84-.605,2.253,2.253,0,0,1-.508-.767,2.712,2.712,0,0,1-.171-1.006,2.389,2.389,0,0,1,.322-1.245,2.858,2.858,0,0,1,.859-.908,4.007,4.007,0,0,1,1.226-.552,5.436,5.436,0,0,1,1.421-.186,5.737,5.737,0,0,1,2.324.449v1.621a4.53,4.53,0,0,0-2.539-.723,2.968,2.968,0,0,0-.811.1,1.984,1.984,0,0,0-.62.288,1.331,1.331,0,0,0-.4.444,1.171,1.171,0,0,0-.142.571,1.37,1.37,0,0,0,.142.654,1.44,1.44,0,0,0,.415.469,3.172,3.172,0,0,0,.664.371q.391.166.889.361a12.368,12.368,0,0,1,1.191.522,4.086,4.086,0,0,1,.9.605,2.366,2.366,0,0,1,.571.776,2.5,2.5,0,0,1,.2,1.045,2.464,2.464,0,0,1-.327,1.289,2.8,2.8,0,0,1-.874.908,4,4,0,0,1-1.26.537,6.22,6.22,0,0,1-1.494.176A5.674,5.674,0,0,1,120.43,21.639Zm9.912-12.178a1.015,1.015,0,0,1-.732-.293.989.989,0,0,1-.3-.742,1.026,1.026,0,0,1,1.035-1.045,1.034,1.034,0,0,1,.747.3,1.043,1.043,0,0,1,0,1.479A1.025,1.025,0,0,1,130.343,9.461ZM131.124,22h-1.6V12h1.6Zm10.059-.459a5.2,5.2,0,0,1-2.734.693A4.527,4.527,0,0,1,135,20.843a5.043,5.043,0,0,1-1.313-3.608,5.544,5.544,0,0,1,1.416-3.97,4.954,4.954,0,0,1,3.779-1.5,5.261,5.261,0,0,1,2.324.488v1.641a4.072,4.072,0,0,0-2.383-.781,3.22,3.22,0,0,0-2.515,1.1,4.169,4.169,0,0,0-.981,2.886,3.969,3.969,0,0,0,.923,2.773,3.181,3.181,0,0,0,2.476,1.016,4.014,4.014,0,0,0,2.461-.869Zm9.58.459h-1.6V20.438h-.039a3.353,3.353,0,0,1-3.076,1.8,3.288,3.288,0,0,1-2.339-.791,2.741,2.741,0,0,1-.845-2.1q0-2.8,3.3-3.262l3-.42q0-2.549-2.061-2.549a4.923,4.923,0,0,0-3.262,1.23V12.7a6.2,6.2,0,0,1,3.4-.937q3.525,0,3.525,3.73Zm-1.6-5.059-2.412.332a3.916,3.916,0,0,0-1.68.552,1.591,1.591,0,0,0-.566,1.4,1.526,1.526,0,0,0,.522,1.2,2.019,2.019,0,0,0,1.392.464,2.571,2.571,0,0,0,1.968-.835,2.983,2.983,0,0,0,.776-2.114Zm6.084,2.832-1.562,4.8H152.54l1.143-4.8ZM172.13,22h-1.6V20.3h-.039a3.7,3.7,0,0,1-3.437,1.934,3.735,3.735,0,0,1-3.013-1.343,5.509,5.509,0,0,1-1.128-3.657,5.993,5.993,0,0,1,1.25-3.975,4.123,4.123,0,0,1,3.33-1.494,3.206,3.206,0,0,1,3,1.621h.039V7.2h1.6Zm-1.6-4.521V16a2.861,2.861,0,0,0-.8-2.051,2.686,2.686,0,0,0-2.031-.84,2.766,2.766,0,0,0-2.3,1.074,4.707,4.707,0,0,0-.84,2.969,4.234,4.234,0,0,0,.806,2.729,2.633,2.633,0,0,0,2.163,1,2.735,2.735,0,0,0,2.173-.967A3.6,3.6,0,0,0,170.528,17.479Zm12.881-.078h-7.061a3.74,3.74,0,0,0,.9,2.578,3.1,3.1,0,0,0,2.363.908,4.913,4.913,0,0,0,3.105-1.113v1.5a5.8,5.8,0,0,1-3.486.957,4.227,4.227,0,0,1-3.33-1.362,5.576,5.576,0,0,1-1.211-3.833,5.468,5.468,0,0,1,1.323-3.8,4.243,4.243,0,0,1,3.286-1.47,3.76,3.76,0,0,1,3.037,1.27,5.293,5.293,0,0,1,1.074,3.525Zm-1.641-1.357a3.259,3.259,0,0,0-.669-2.158,2.279,2.279,0,0,0-1.831-.771,2.587,2.587,0,0,0-1.924.811,3.678,3.678,0,0,0-.977,2.119ZM199.346,17.4h-7.061a3.74,3.74,0,0,0,.9,2.578,3.1,3.1,0,0,0,2.363.908,4.913,4.913,0,0,0,3.105-1.113v1.5a5.8,5.8,0,0,1-3.486.957,4.227,4.227,0,0,1-3.33-1.362,5.576,5.576,0,0,1-1.211-3.833,5.468,5.468,0,0,1,1.323-3.8,4.243,4.243,0,0,1,3.286-1.47,3.76,3.76,0,0,1,3.037,1.27,5.293,5.293,0,0,1,1.074,3.525Zm-1.641-1.357a3.259,3.259,0,0,0-.669-2.158,2.279,2.279,0,0,0-1.831-.771,2.587,2.587,0,0,0-1.924.811,3.678,3.678,0,0,0-.977,2.119ZM215.968,22h-1.6V16.258a4.332,4.332,0,0,0-.513-2.4,1.944,1.944,0,0,0-1.724-.742,2.134,2.134,0,0,0-1.743.938,3.586,3.586,0,0,0-.718,2.246V22h-1.6V16.063q0-2.949-2.275-2.949a2.108,2.108,0,0,0-1.738.884,3.653,3.653,0,0,0-.684,2.3V22h-1.6V12h1.6v1.582h.039a3.4,3.4,0,0,1,3.105-1.816,2.888,2.888,0,0,1,2.832,2.07,3.569,3.569,0,0,1,3.32-2.07q3.3,0,3.3,4.072Zm4.668-1.445H220.6V26.6h-1.6V12h1.6v1.758h.039a3.787,3.787,0,0,1,3.457-1.992,3.662,3.662,0,0,1,3.018,1.343,5.562,5.562,0,0,1,1.084,3.6,6.2,6.2,0,0,1-1.221,4.019,4.064,4.064,0,0,1-3.34,1.509A3.346,3.346,0,0,1,220.636,20.555Zm-.039-4.033v1.4a2.973,2.973,0,0,0,.806,2.1,2.874,2.874,0,0,0,4.326-.249,5.107,5.107,0,0,0,.825-3.1,4.032,4.032,0,0,0-.771-2.617,2.553,2.553,0,0,0-2.09-.947,2.838,2.838,0,0,0-2.246.972A3.568,3.568,0,0,0,220.6,16.521ZM232.354,22h-1.6V7.2h1.6Zm11.279-4.6h-7.061a3.74,3.74,0,0,0,.9,2.578,3.1,3.1,0,0,0,2.363.908,4.913,4.913,0,0,0,3.105-1.113v1.5a5.8,5.8,0,0,1-3.486.957,4.227,4.227,0,0,1-3.33-1.362,5.576,5.576,0,0,1-1.211-3.833,5.468,5.468,0,0,1,1.323-3.8,4.243,4.243,0,0,1,3.286-1.47,3.76,3.76,0,0,1,3.037,1.27,5.293,5.293,0,0,1,1.074,3.525Zm-1.641-1.357a3.259,3.259,0,0,0-.669-2.158,2.279,2.279,0,0,0-1.831-.771,2.587,2.587,0,0,0-1.924.811,3.678,3.678,0,0,0-.977,2.119Zm8.242,6.191a4.638,4.638,0,0,1-3.54-1.4,5.191,5.191,0,0,1-1.323-3.716,5.407,5.407,0,0,1,1.377-3.936,4.95,4.95,0,0,1,3.721-1.416,4.485,4.485,0,0,1,3.491,1.377,5.46,5.46,0,0,1,1.255,3.818,5.372,5.372,0,0,1-1.353,3.833A4.739,4.739,0,0,1,250.235,22.234Zm.117-9.121a3.046,3.046,0,0,0-2.441,1.05,4.312,4.312,0,0,0-.9,2.9,4.078,4.078,0,0,0,.908,2.8,3.087,3.087,0,0,0,2.432,1.025,2.928,2.928,0,0,0,2.388-1.006,4.365,4.365,0,0,0,.835-2.861,4.44,4.44,0,0,0-.835-2.891A2.915,2.915,0,0,0,250.352,13.113Zm8.887,6.66-1.562,4.8h-1.143l1.143-4.8ZM20.787,46h-1.6V44.3h-.039a3.7,3.7,0,0,1-3.437,1.934A3.735,3.735,0,0,1,12.7,44.892a5.509,5.509,0,0,1-1.128-3.657,5.993,5.993,0,0,1,1.25-3.975,4.123,4.123,0,0,1,3.33-1.494,3.206,3.206,0,0,1,3,1.621h.039V31.2h1.6Zm-1.6-4.521V40a2.861,2.861,0,0,0-.8-2.051,2.686,2.686,0,0,0-2.031-.84,2.766,2.766,0,0,0-2.3,1.074,4.707,4.707,0,0,0-.84,2.969,4.234,4.234,0,0,0,.806,2.729,2.633,2.633,0,0,0,2.163,1,2.735,2.735,0,0,0,2.173-.967A3.6,3.6,0,0,0,19.185,41.479ZM32.066,41.4H25.006a3.74,3.74,0,0,0,.9,2.578,3.1,3.1,0,0,0,2.363.908,4.913,4.913,0,0,0,3.105-1.113v1.5a5.8,5.8,0,0,1-3.486.957,4.227,4.227,0,0,1-3.33-1.362,5.576,5.576,0,0,1-1.211-3.833,5.468,5.468,0,0,1,1.323-3.8,4.243,4.243,0,0,1,3.286-1.47,3.76,3.76,0,0,1,3.037,1.27,5.293,5.293,0,0,1,1.074,3.525Zm-1.641-1.357a3.259,3.259,0,0,0-.669-2.158,2.279,2.279,0,0,0-1.831-.771A2.587,2.587,0,0,0,26,37.924a3.678,3.678,0,0,0-.977,2.119Zm14.756-2.422a1.958,1.958,0,0,0-1.211-.322,2.044,2.044,0,0,0-1.714.967,4.47,4.47,0,0,0-.688,2.637V46h-1.6V36h1.6v2.061h.039a3.492,3.492,0,0,1,1.045-1.646,2.383,2.383,0,0,1,1.572-.591,2.615,2.615,0,0,1,.957.137ZM54.957,41.4H47.9a3.74,3.74,0,0,0,.9,2.578,3.1,3.1,0,0,0,2.363.908,4.913,4.913,0,0,0,3.105-1.113v1.5a5.8,5.8,0,0,1-3.486.957,4.227,4.227,0,0,1-3.33-1.362,5.576,5.576,0,0,1-1.211-3.833,5.468,5.468,0,0,1,1.323-3.8,4.243,4.243,0,0,1,3.286-1.47,3.76,3.76,0,0,1,3.037,1.27,5.293,5.293,0,0,1,1.074,3.525Zm-1.641-1.357a3.259,3.259,0,0,0-.669-2.158,2.279,2.279,0,0,0-1.831-.771,2.587,2.587,0,0,0-1.924.811,3.678,3.678,0,0,0-.977,2.119Zm10.879,5.5a5.2,5.2,0,0,1-2.734.693,4.527,4.527,0,0,1-3.452-1.392A5.043,5.043,0,0,1,56.7,41.234a5.544,5.544,0,0,1,1.416-3.97,4.954,4.954,0,0,1,3.779-1.5,5.261,5.261,0,0,1,2.324.488v1.641a4.072,4.072,0,0,0-2.383-.781,3.22,3.22,0,0,0-2.515,1.1,4.169,4.169,0,0,0-.981,2.886,3.969,3.969,0,0,0,.923,2.773,3.181,3.181,0,0,0,2.476,1.016,4.014,4.014,0,0,0,2.461-.869ZM74.7,46H73.1V44.418h-.039a3.289,3.289,0,0,1-3.086,1.816q-3.574,0-3.574-4.258V36h1.592v5.723q0,3.164,2.422,3.164a2.45,2.45,0,0,0,1.929-.864,3.307,3.307,0,0,0,.757-2.261V36h1.6Zm8.447-8.379a1.958,1.958,0,0,0-1.211-.322,2.044,2.044,0,0,0-1.714.967,4.47,4.47,0,0,0-.688,2.637V46h-1.6V36h1.6v2.061h.039a3.492,3.492,0,0,1,1.045-1.646,2.383,2.383,0,0,1,1.572-.591,2.615,2.615,0,0,1,.957.137Zm1.133,8.018V43.92a4.74,4.74,0,0,0,2.881.967q2.109,0,2.109-1.406a1.22,1.22,0,0,0-.181-.679,1.8,1.8,0,0,0-.488-.493,3.758,3.758,0,0,0-.723-.386q-.415-.171-.894-.356a11.509,11.509,0,0,1-1.167-.532,3.525,3.525,0,0,1-.84-.605,2.253,2.253,0,0,1-.508-.767,2.712,2.712,0,0,1-.171-1.006,2.389,2.389,0,0,1,.322-1.245,2.858,2.858,0,0,1,.859-.908,4.007,4.007,0,0,1,1.226-.552,5.436,5.436,0,0,1,1.421-.186,5.737,5.737,0,0,1,2.324.449v1.621a4.53,4.53,0,0,0-2.539-.723,2.968,2.968,0,0,0-.811.1,1.984,1.984,0,0,0-.62.288,1.331,1.331,0,0,0-.4.444,1.171,1.171,0,0,0-.142.571,1.37,1.37,0,0,0,.142.654,1.44,1.44,0,0,0,.415.469,3.172,3.172,0,0,0,.664.371q.391.166.889.361a12.368,12.368,0,0,1,1.191.522,4.086,4.086,0,0,1,.9.605,2.366,2.366,0,0,1,.571.776,2.5,2.5,0,0,1,.2,1.045,2.464,2.464,0,0,1-.327,1.289,2.8,2.8,0,0,1-.874.908,4,4,0,0,1-1.26.537,6.22,6.22,0,0,1-1.494.176A5.673,5.673,0,0,1,84.283,45.639Zm13.271.6a4.638,4.638,0,0,1-3.54-1.4,5.191,5.191,0,0,1-1.323-3.716,5.407,5.407,0,0,1,1.377-3.936,4.95,4.95,0,0,1,3.721-1.416,4.485,4.485,0,0,1,3.491,1.377,5.46,5.46,0,0,1,1.255,3.818,5.372,5.372,0,0,1-1.353,3.833A4.739,4.739,0,0,1,97.555,46.234Zm.117-9.121a3.046,3.046,0,0,0-2.441,1.05,4.312,4.312,0,0,0-.9,2.9,4.078,4.078,0,0,0,.908,2.8,3.087,3.087,0,0,0,2.432,1.025,2.928,2.928,0,0,0,2.388-1.006,4.365,4.365,0,0,0,.835-2.861,4.44,4.44,0,0,0-.835-2.891A2.915,2.915,0,0,0,97.672,37.113Zm6.816,8.525V43.92a4.74,4.74,0,0,0,2.881.967q2.109,0,2.109-1.406a1.22,1.22,0,0,0-.181-.679,1.8,1.8,0,0,0-.488-.493,3.758,3.758,0,0,0-.723-.386q-.415-.171-.894-.356a11.509,11.509,0,0,1-1.167-.532,3.525,3.525,0,0,1-.84-.605,2.253,2.253,0,0,1-.508-.767,2.712,2.712,0,0,1-.171-1.006,2.389,2.389,0,0,1,.322-1.245,2.858,2.858,0,0,1,.859-.908,4.007,4.007,0,0,1,1.226-.552,5.436,5.436,0,0,1,1.421-.186,5.737,5.737,0,0,1,2.324.449v1.621a4.53,4.53,0,0,0-2.539-.723,2.968,2.968,0,0,0-.811.1,1.984,1.984,0,0,0-.62.288,1.331,1.331,0,0,0-.4.444,1.171,1.171,0,0,0-.142.571,1.37,1.37,0,0,0,.142.654,1.44,1.44,0,0,0,.415.469,3.172,3.172,0,0,0,.664.371q.391.166.889.361a12.368,12.368,0,0,1,1.191.522,4.086,4.086,0,0,1,.9.605,2.366,2.366,0,0,1,.571.776,2.5,2.5,0,0,1,.2,1.045,2.464,2.464,0,0,1-.327,1.289,2.8,2.8,0,0,1-.874.908,4,4,0,0,1-1.26.537,6.22,6.22,0,0,1-1.494.176A5.673,5.673,0,0,1,104.488,45.639Zm10.557-1.865-1.562,4.8H112.34l1.143-4.8ZM137.594,46h-1.6V40.258a4.332,4.332,0,0,0-.513-2.4,1.944,1.944,0,0,0-1.724-.742,2.134,2.134,0,0,0-1.743.938,3.586,3.586,0,0,0-.718,2.246V46h-1.6V40.063q0-2.949-2.275-2.949A2.108,2.108,0,0,0,125.68,38,3.653,3.653,0,0,0,125,40.3V46h-1.6V36H125v1.582h.039a3.4,3.4,0,0,1,3.105-1.816,2.888,2.888,0,0,1,2.832,2.07,3.569,3.569,0,0,1,3.32-2.07q3.3,0,3.3,4.072Zm7.207.234a4.638,4.638,0,0,1-3.54-1.4,5.191,5.191,0,0,1-1.323-3.716,5.407,5.407,0,0,1,1.377-3.936,4.95,4.95,0,0,1,3.721-1.416,4.485,4.485,0,0,1,3.491,1.377,5.46,5.46,0,0,1,1.255,3.818,5.372,5.372,0,0,1-1.353,3.833A4.739,4.739,0,0,1,144.8,46.234Zm.117-9.121a3.046,3.046,0,0,0-2.441,1.05,4.312,4.312,0,0,0-.9,2.9,4.078,4.078,0,0,0,.908,2.8,3.087,3.087,0,0,0,2.432,1.025,2.928,2.928,0,0,0,2.388-1.006,4.365,4.365,0,0,0,.835-2.861,4.44,4.44,0,0,0-.835-2.891A2.915,2.915,0,0,0,144.918,37.113Zm12.637.508a1.958,1.958,0,0,0-1.211-.322,2.044,2.044,0,0,0-1.714.967,4.47,4.47,0,0,0-.688,2.637V46h-1.6V36h1.6v2.061h.039a3.492,3.492,0,0,1,1.045-1.646,2.383,2.383,0,0,1,1.572-.591,2.615,2.615,0,0,1,.957.137Zm8.9,8.379h-1.6V44.438h-.039a3.353,3.353,0,0,1-3.076,1.8,3.288,3.288,0,0,1-2.339-.791,2.741,2.741,0,0,1-.845-2.1q0-2.8,3.3-3.262l3-.42q0-2.549-2.061-2.549a4.923,4.923,0,0,0-3.262,1.23V36.7a6.2,6.2,0,0,1,3.4-.937q3.525,0,3.525,3.73Zm-1.6-5.059-2.412.332a3.916,3.916,0,0,0-1.68.552,1.591,1.591,0,0,0-.566,1.4,1.526,1.526,0,0,0,.522,1.2,2.019,2.019,0,0,0,1.392.464,2.571,2.571,0,0,0,1.968-.835,2.983,2.983,0,0,0,.776-2.114ZM171.07,46h-1.6V31.2h1.6Zm4.707-2.227-1.562,4.8h-1.143l1.143-4.8ZM189.068,32.6A2.133,2.133,0,0,0,188,32.338q-1.68,0-1.68,2.119V36h2.344v1.367h-2.344V46h-1.592V37.367h-1.709V36h1.709V34.379a3.369,3.369,0,0,1,.908-2.485,3.066,3.066,0,0,1,2.266-.913,3.138,3.138,0,0,1,1.162.176ZM197.545,46h-1.6V44.438H195.9a3.353,3.353,0,0,1-3.076,1.8,3.288,3.288,0,0,1-2.339-.791,2.741,2.741,0,0,1-.845-2.1q0-2.8,3.3-3.262l3-.42q0-2.549-2.061-2.549a4.923,4.923,0,0,0-3.262,1.23V36.7a6.2,6.2,0,0,1,3.4-.937q3.525,0,3.525,3.73Zm-1.6-5.059-2.412.332a3.916,3.916,0,0,0-1.68.552,1.591,1.591,0,0,0-.566,1.4,1.526,1.526,0,0,0,.522,1.2,2.019,2.019,0,0,0,1.392.464,2.571,2.571,0,0,0,1.968-.835,2.983,2.983,0,0,0,.776-2.114ZM214.762,46h-1.6V40.258a4.332,4.332,0,0,0-.513-2.4,1.944,1.944,0,0,0-1.724-.742,2.134,2.134,0,0,0-1.743.938,3.586,3.586,0,0,0-.718,2.246V46h-1.6V40.063q0-2.949-2.275-2.949a2.108,2.108,0,0,0-1.738.884,3.653,3.653,0,0,0-.684,2.3V46h-1.6V36h1.6v1.582h.039a3.4,3.4,0,0,1,3.105-1.816,2.888,2.888,0,0,1,2.832,2.07,3.569,3.569,0,0,1,3.32-2.07q3.3,0,3.3,4.072Zm3.848-12.539a1.015,1.015,0,0,1-.732-.293.989.989,0,0,1-.3-.742,1.026,1.026,0,0,1,1.035-1.045,1.034,1.034,0,0,1,.747.3,1.043,1.043,0,0,1,0,1.479A1.025,1.025,0,0,1,218.609,33.461ZM219.39,46h-1.6V36h1.6Zm4.844,0h-1.6V31.2h1.6ZM228.3,33.461a1.015,1.015,0,0,1-.732-.293.989.989,0,0,1-.3-.742,1.026,1.026,0,0,1,1.035-1.045,1.034,1.034,0,0,1,.747.3,1.043,1.043,0,0,1,0,1.479A1.025,1.025,0,0,1,228.3,33.461ZM229.078,46h-1.6V36h1.6Zm10.4,0h-1.6V44.438h-.039a3.353,3.353,0,0,1-3.076,1.8,3.288,3.288,0,0,1-2.339-.791,2.741,2.741,0,0,1-.845-2.1q0-2.8,3.3-3.262l3-.42q0-2.549-2.061-2.549a4.923,4.923,0,0,0-3.262,1.23V36.7a6.2,6.2,0,0,1,3.4-.937q3.525,0,3.525,3.73Zm-1.6-5.059-2.412.332a3.916,3.916,0,0,0-1.68.552,1.591,1.591,0,0,0-.566,1.4,1.526,1.526,0,0,0,.522,1.2,2.019,2.019,0,0,0,1.392.464,2.571,2.571,0,0,0,1.968-.835,2.983,2.983,0,0,0,.776-2.114Zm9.834-3.32A1.958,1.958,0,0,0,246.5,37.3a2.044,2.044,0,0,0-1.714.967A4.47,4.47,0,0,0,244.1,40.9V46h-1.6V36h1.6v2.061h.039a3.492,3.492,0,0,1,1.045-1.646,2.383,2.383,0,0,1,1.572-.591,2.615,2.615,0,0,1,.957.137ZM262.887,36l-4.6,11.6q-1.23,3.105-3.457,3.105a3.664,3.664,0,0,1-1.045-.127V49.145a2.969,2.969,0,0,0,.947.176,1.963,1.963,0,0,0,1.816-1.445l.8-1.895L253.443,36h1.777l2.705,7.7q.049.146.205.762h.059q.049-.234.2-.742L261.226,36ZM107.638,70h-1.6V68.3H106a3.7,3.7,0,0,1-3.437,1.934,3.735,3.735,0,0,1-3.013-1.343,5.509,5.509,0,0,1-1.128-3.657,5.993,5.993,0,0,1,1.25-3.975A4.123,4.123,0,0,1,103,59.766a3.206,3.206,0,0,1,3,1.621h.039V55.2h1.6Zm-1.6-4.521V64a2.861,2.861,0,0,0-.8-2.051,2.686,2.686,0,0,0-2.031-.84,2.766,2.766,0,0,0-2.3,1.074,4.707,4.707,0,0,0-.84,2.969,4.234,4.234,0,0,0,.806,2.729,2.633,2.633,0,0,0,2.163,1,2.735,2.735,0,0,0,2.173-.967A3.6,3.6,0,0,0,106.036,65.479Zm12.881-.078h-7.061a3.74,3.74,0,0,0,.9,2.578,3.1,3.1,0,0,0,2.363.908,4.913,4.913,0,0,0,3.105-1.113v1.5a5.8,5.8,0,0,1-3.486.957,4.227,4.227,0,0,1-3.33-1.362,5.576,5.576,0,0,1-1.211-3.833,5.468,5.468,0,0,1,1.323-3.8,4.243,4.243,0,0,1,3.286-1.47,3.76,3.76,0,0,1,3.037,1.27,5.293,5.293,0,0,1,1.074,3.525Zm-1.641-1.357a3.259,3.259,0,0,0-.669-2.158,2.279,2.279,0,0,0-1.831-.771,2.587,2.587,0,0,0-1.924.811,3.678,3.678,0,0,0-.977,2.119Zm8.936,5.6V67.92a4.74,4.74,0,0,0,2.881.967q2.109,0,2.109-1.406a1.22,1.22,0,0,0-.181-.679,1.8,1.8,0,0,0-.488-.493,3.759,3.759,0,0,0-.723-.386q-.415-.171-.894-.356a11.508,11.508,0,0,1-1.167-.532,3.525,3.525,0,0,1-.84-.605,2.253,2.253,0,0,1-.508-.767,2.712,2.712,0,0,1-.171-1.006,2.389,2.389,0,0,1,.322-1.245,2.858,2.858,0,0,1,.859-.908,4.007,4.007,0,0,1,1.226-.552,5.436,5.436,0,0,1,1.421-.186,5.737,5.737,0,0,1,2.324.449v1.621a4.53,4.53,0,0,0-2.539-.723,2.968,2.968,0,0,0-.811.1,1.984,1.984,0,0,0-.62.288,1.331,1.331,0,0,0-.4.444,1.171,1.171,0,0,0-.142.571,1.37,1.37,0,0,0,.142.654,1.44,1.44,0,0,0,.415.469,3.172,3.172,0,0,0,.664.371q.391.166.889.361a12.369,12.369,0,0,1,1.191.522,4.086,4.086,0,0,1,.9.605,2.366,2.366,0,0,1,.571.776,2.5,2.5,0,0,1,.2,1.045,2.464,2.464,0,0,1-.327,1.289,2.8,2.8,0,0,1-.874.908,4,4,0,0,1-1.26.537,6.22,6.22,0,0,1-1.494.176A5.674,5.674,0,0,1,126.212,69.639Zm16.25.361h-1.6V68.438h-.039a3.353,3.353,0,0,1-3.076,1.8,3.288,3.288,0,0,1-2.339-.791,2.741,2.741,0,0,1-.845-2.1q0-2.8,3.3-3.262l3-.42q0-2.549-2.061-2.549a4.923,4.923,0,0,0-3.262,1.23V60.7a6.2,6.2,0,0,1,3.4-.937q3.525,0,3.525,3.73Zm-1.6-5.059-2.412.332a3.916,3.916,0,0,0-1.68.552,1.591,1.591,0,0,0-.566,1.4,1.526,1.526,0,0,0,.522,1.2,2.019,2.019,0,0,0,1.392.464,2.571,2.571,0,0,0,1.968-.835,2.983,2.983,0,0,0,.776-2.114ZM147.081,70h-1.6V55.2h1.6Zm11.328,0h-1.6V68.418h-.039a3.289,3.289,0,0,1-3.086,1.816q-3.574,0-3.574-4.258V60H151.7v5.723q0,3.164,2.422,3.164a2.45,2.45,0,0,0,1.929-.864,3.307,3.307,0,0,0,.757-2.261V60h1.6Zm11.768,0h-1.6V68.3h-.039a3.7,3.7,0,0,1-3.437,1.934,3.735,3.735,0,0,1-3.013-1.343,5.509,5.509,0,0,1-1.128-3.657,5.993,5.993,0,0,1,1.25-3.975,4.123,4.123,0,0,1,3.33-1.494,3.206,3.206,0,0,1,3,1.621h.039V55.2h1.6Zm-1.6-4.521V64a2.861,2.861,0,0,0-.8-2.051,2.686,2.686,0,0,0-2.031-.84,2.766,2.766,0,0,0-2.3,1.074,4.707,4.707,0,0,0-.84,2.969,4.234,4.234,0,0,0,.806,2.729,2.633,2.633,0,0,0,2.163,1,2.735,2.735,0,0,0,2.173-.967A3.6,3.6,0,0,0,168.575,65.479Zm5.4,4.736a1.037,1.037,0,0,1-.767-.322,1.061,1.061,0,0,1-.317-.771,1.077,1.077,0,0,1,.317-.776,1.029,1.029,0,0,1,.767-.327,1.056,1.056,0,0,1,.781.327,1.069,1.069,0,0,1,.322.776,1.053,1.053,0,0,1-.322.771A1.064,1.064,0,0,1,173.975,70.215Z" transform="translate(700.448 1218.046)" fill="#fff"/>
    <path id="Trazado_228419" data-name="Trazado 228419" d="M55.245,22H53.292l-2.344-3.926a8.55,8.55,0,0,0-.625-.933,3.563,3.563,0,0,0-.62-.63,2.148,2.148,0,0,0-.684-.356,2.811,2.811,0,0,0-.825-.112H46.846V22H45.206V8h4.18a5.957,5.957,0,0,1,1.694.229,3.791,3.791,0,0,1,1.348.7,3.245,3.245,0,0,1,.894,1.167,3.87,3.87,0,0,1,.322,1.636,3.939,3.939,0,0,1-.22,1.343,3.507,3.507,0,0,1-.625,1.089,3.789,3.789,0,0,1-.977.815,4.986,4.986,0,0,1-1.284.522v.039a2.954,2.954,0,0,1,.61.356,3.359,3.359,0,0,1,.493.474,6.274,6.274,0,0,1,.464.62q.229.347.513.806Zm-8.4-12.52v5.078h2.227a3.377,3.377,0,0,0,1.138-.186,2.634,2.634,0,0,0,.9-.532,2.414,2.414,0,0,0,.6-.85,2.844,2.844,0,0,0,.215-1.128A2.2,2.2,0,0,0,51.2,10.11a3.125,3.125,0,0,0-2.1-.63ZM64.405,17.4H57.345a3.74,3.74,0,0,0,.9,2.578,3.1,3.1,0,0,0,2.363.908,4.913,4.913,0,0,0,3.105-1.113v1.5a5.8,5.8,0,0,1-3.486.957,4.227,4.227,0,0,1-3.33-1.362,5.576,5.576,0,0,1-1.211-3.833,5.468,5.468,0,0,1,1.323-3.8,4.243,4.243,0,0,1,3.286-1.47,3.76,3.76,0,0,1,3.037,1.27,5.293,5.293,0,0,1,1.074,3.525Zm-1.641-1.357a3.259,3.259,0,0,0-.669-2.158,2.279,2.279,0,0,0-1.831-.771,2.587,2.587,0,0,0-1.924.811,3.678,3.678,0,0,0-.977,2.119Zm3.457,5.6V19.92a4.74,4.74,0,0,0,2.881.967q2.109,0,2.109-1.406a1.22,1.22,0,0,0-.181-.679,1.8,1.8,0,0,0-.488-.493,3.758,3.758,0,0,0-.723-.386q-.415-.171-.894-.356a11.508,11.508,0,0,1-1.167-.532,3.525,3.525,0,0,1-.84-.605,2.253,2.253,0,0,1-.508-.767,2.712,2.712,0,0,1-.171-1.006,2.389,2.389,0,0,1,.322-1.245,2.858,2.858,0,0,1,.859-.908,4.007,4.007,0,0,1,1.226-.552,5.436,5.436,0,0,1,1.421-.186,5.737,5.737,0,0,1,2.324.449v1.621a4.53,4.53,0,0,0-2.539-.723,2.968,2.968,0,0,0-.811.1,1.984,1.984,0,0,0-.62.288,1.331,1.331,0,0,0-.4.444,1.171,1.171,0,0,0-.142.571,1.37,1.37,0,0,0,.142.654,1.44,1.44,0,0,0,.415.469,3.172,3.172,0,0,0,.664.371q.391.166.889.361a12.368,12.368,0,0,1,1.191.522,4.086,4.086,0,0,1,.9.605,2.366,2.366,0,0,1,.571.776,2.5,2.5,0,0,1,.2,1.045,2.464,2.464,0,0,1-.327,1.289,2.8,2.8,0,0,1-.874.908,4,4,0,0,1-1.26.537,6.22,6.22,0,0,1-1.494.176A5.674,5.674,0,0,1,66.221,21.639Zm10.732-1.084h-.039V26.6h-1.6V12h1.6v1.758h.039a3.787,3.787,0,0,1,3.457-1.992,3.662,3.662,0,0,1,3.018,1.343,5.562,5.562,0,0,1,1.084,3.6,6.2,6.2,0,0,1-1.221,4.019,4.064,4.064,0,0,1-3.34,1.509A3.346,3.346,0,0,1,76.954,20.555Zm-.039-4.033v1.4a2.973,2.973,0,0,0,.806,2.1,2.874,2.874,0,0,0,4.326-.249,5.107,5.107,0,0,0,.825-3.1,4.032,4.032,0,0,0-.771-2.617,2.553,2.553,0,0,0-2.09-.947,2.838,2.838,0,0,0-2.246.972A3.568,3.568,0,0,0,76.915,16.521ZM87.891,9.461a1.015,1.015,0,0,1-.732-.293.989.989,0,0,1-.3-.742,1.026,1.026,0,0,1,1.035-1.045,1.034,1.034,0,0,1,.747.3,1.043,1.043,0,0,1,0,1.479A1.025,1.025,0,0,1,87.891,9.461ZM88.673,22h-1.6V12h1.6Zm8.457-8.379a1.958,1.958,0,0,0-1.211-.322,2.044,2.044,0,0,0-1.714.967,4.47,4.47,0,0,0-.688,2.637V22h-1.6V12h1.6v2.061h.039A3.492,3.492,0,0,1,94.6,12.415a2.383,2.383,0,0,1,1.572-.591,2.615,2.615,0,0,1,.957.137Zm8.9,8.379h-1.6V20.438h-.039a3.353,3.353,0,0,1-3.076,1.8,3.288,3.288,0,0,1-2.339-.791,2.741,2.741,0,0,1-.845-2.1q0-2.8,3.3-3.262l3-.42q0-2.549-2.061-2.549a4.923,4.923,0,0,0-3.262,1.23V12.7a6.2,6.2,0,0,1,3.4-.937q3.525,0,3.525,3.73Zm-1.6-5.059-2.412.332a3.916,3.916,0,0,0-1.68.552,1.591,1.591,0,0,0-.566,1.4,1.526,1.526,0,0,0,.522,1.2,2.019,2.019,0,0,0,1.392.464,2.571,2.571,0,0,0,1.968-.835,2.983,2.983,0,0,0,.776-2.114Zm9.834-3.32a1.958,1.958,0,0,0-1.211-.322,2.044,2.044,0,0,0-1.714.967,4.47,4.47,0,0,0-.688,2.637V22h-1.6V12h1.6v2.061h.039a3.492,3.492,0,0,1,1.045-1.646,2.383,2.383,0,0,1,1.572-.591,2.615,2.615,0,0,1,.957.137Zm3.2,6.152-1.562,4.8h-1.143l1.143-4.8ZM132.97,22h-1.6V20.438h-.039a3.353,3.353,0,0,1-3.076,1.8,3.288,3.288,0,0,1-2.339-.791,2.741,2.741,0,0,1-.845-2.1q0-2.8,3.3-3.262l3-.42q0-2.549-2.061-2.549a4.923,4.923,0,0,0-3.262,1.23V12.7a6.2,6.2,0,0,1,3.4-.937q3.525,0,3.525,3.73Zm-1.6-5.059-2.412.332a3.916,3.916,0,0,0-1.68.552,1.591,1.591,0,0,0-.566,1.4,1.526,1.526,0,0,0,.522,1.2,2.019,2.019,0,0,0,1.392.464,2.571,2.571,0,0,0,1.968-.835,2.983,2.983,0,0,0,.776-2.114ZM137.589,22h-1.6V7.2h1.6Zm4.063-12.539a1.015,1.015,0,0,1-.732-.293.989.989,0,0,1-.3-.742,1.026,1.026,0,0,1,1.035-1.045,1.034,1.034,0,0,1,.747.3,1.043,1.043,0,0,1,0,1.479A1.025,1.025,0,0,1,141.651,9.461ZM142.432,22h-1.6V12h1.6Zm17.441,0h-1.6V16.258a4.332,4.332,0,0,0-.513-2.4,1.944,1.944,0,0,0-1.724-.742,2.134,2.134,0,0,0-1.743.938,3.586,3.586,0,0,0-.718,2.246V22h-1.6V16.063q0-2.949-2.275-2.949A2.108,2.108,0,0,0,147.96,14a3.653,3.653,0,0,0-.684,2.3V22h-1.6V12h1.6v1.582h.039a3.4,3.4,0,0,1,3.105-1.816,2.888,2.888,0,0,1,2.832,2.07,3.569,3.569,0,0,1,3.32-2.07q3.3,0,3.3,4.072Zm11.064-4.6h-7.061a3.74,3.74,0,0,0,.9,2.578,3.1,3.1,0,0,0,2.363.908,4.913,4.913,0,0,0,3.105-1.113v1.5a5.8,5.8,0,0,1-3.486.957,4.227,4.227,0,0,1-3.33-1.362,5.576,5.576,0,0,1-1.211-3.833,5.468,5.468,0,0,1,1.323-3.8,4.243,4.243,0,0,1,3.286-1.47,3.76,3.76,0,0,1,3.037,1.27,5.293,5.293,0,0,1,1.074,3.525ZM169.3,16.043a3.259,3.259,0,0,0-.669-2.158,2.279,2.279,0,0,0-1.831-.771,2.587,2.587,0,0,0-1.924.811,3.678,3.678,0,0,0-.977,2.119ZM181.661,22h-1.6V16.3q0-3.184-2.324-3.184a2.521,2.521,0,0,0-1.987.9,3.348,3.348,0,0,0-.786,2.28V22h-1.6V12h1.6v1.66H175a3.609,3.609,0,0,1,3.281-1.895,3.059,3.059,0,0,1,2.51,1.06,4.72,4.72,0,0,1,.869,3.062Zm7.656-.1a3.088,3.088,0,0,1-1.494.313q-2.627,0-2.627-2.93V13.367h-1.719V12H185.2V9.559l1.6-.518V12h2.52v1.367H186.8V19a2.336,2.336,0,0,0,.342,1.436,1.364,1.364,0,0,0,1.133.43,1.684,1.684,0,0,0,1.045-.332Zm9.3.1h-1.6V20.438h-.039a3.353,3.353,0,0,1-3.076,1.8,3.288,3.288,0,0,1-2.339-.791,2.741,2.741,0,0,1-.845-2.1q0-2.8,3.3-3.262l3-.42q0-2.549-2.061-2.549a4.923,4.923,0,0,0-3.262,1.23V12.7a6.2,6.2,0,0,1,3.4-.937q3.525,0,3.525,3.73Zm-1.6-5.059-2.412.332a3.916,3.916,0,0,0-1.68.552,1.591,1.591,0,0,0-.566,1.4,1.526,1.526,0,0,0,.522,1.2,2.019,2.019,0,0,0,1.392.464,2.571,2.571,0,0,0,1.968-.835,2.983,2.983,0,0,0,.776-2.114Zm9.834-3.32a1.958,1.958,0,0,0-1.211-.322,2.044,2.044,0,0,0-1.714.967,4.47,4.47,0,0,0-.688,2.637V22h-1.6V12h1.6v2.061h.039a3.492,3.492,0,0,1,1.045-1.646,2.383,2.383,0,0,1,1.572-.591,2.615,2.615,0,0,1,.957.137Zm1.133,8.018V19.92a4.74,4.74,0,0,0,2.881.967q2.109,0,2.109-1.406a1.22,1.22,0,0,0-.181-.679,1.8,1.8,0,0,0-.488-.493,3.759,3.759,0,0,0-.723-.386q-.415-.171-.894-.356a11.508,11.508,0,0,1-1.167-.532,3.526,3.526,0,0,1-.84-.605,2.253,2.253,0,0,1-.508-.767A2.712,2.712,0,0,1,208,14.656a2.389,2.389,0,0,1,.322-1.245,2.858,2.858,0,0,1,.859-.908,4.007,4.007,0,0,1,1.226-.552,5.436,5.436,0,0,1,1.421-.186,5.737,5.737,0,0,1,2.324.449v1.621a4.53,4.53,0,0,0-2.539-.723,2.968,2.968,0,0,0-.811.1,1.984,1.984,0,0,0-.62.288,1.331,1.331,0,0,0-.4.444,1.17,1.17,0,0,0-.142.571,1.37,1.37,0,0,0,.142.654,1.44,1.44,0,0,0,.415.469,3.172,3.172,0,0,0,.664.371q.391.166.889.361a12.369,12.369,0,0,1,1.191.522,4.086,4.086,0,0,1,.9.605,2.366,2.366,0,0,1,.571.776,2.5,2.5,0,0,1,.2,1.045,2.464,2.464,0,0,1-.327,1.289,2.8,2.8,0,0,1-.874.908,4,4,0,0,1-1.26.537,6.22,6.22,0,0,1-1.494.176A5.674,5.674,0,0,1,207.979,21.639ZM225.108,17.4h-7.061a3.74,3.74,0,0,0,.9,2.578,3.1,3.1,0,0,0,2.363.908,4.913,4.913,0,0,0,3.105-1.113v1.5a5.8,5.8,0,0,1-3.486.957,4.227,4.227,0,0,1-3.33-1.362,5.576,5.576,0,0,1-1.211-3.833,5.468,5.468,0,0,1,1.323-3.8A4.243,4.243,0,0,1,221,11.766a3.76,3.76,0,0,1,3.037,1.27,5.293,5.293,0,0,1,1.074,3.525Zm-1.641-1.357a3.259,3.259,0,0,0-.669-2.158,2.279,2.279,0,0,0-1.831-.771,2.587,2.587,0,0,0-1.924.811,3.678,3.678,0,0,0-.977,2.119Zm5.527,3.73-1.562,4.8H226.29l1.143-4.8ZM16.676,46h-1.6V44.3h-.039A3.7,3.7,0,0,1,11.6,46.234a3.735,3.735,0,0,1-3.013-1.343,5.509,5.509,0,0,1-1.128-3.657,5.993,5.993,0,0,1,1.25-3.975,4.123,4.123,0,0,1,3.33-1.494,3.206,3.206,0,0,1,3,1.621h.039V31.2h1.6Zm-1.6-4.521V40a2.861,2.861,0,0,0-.8-2.051,2.686,2.686,0,0,0-2.031-.84,2.766,2.766,0,0,0-2.3,1.074,4.707,4.707,0,0,0-.84,2.969A4.234,4.234,0,0,0,9.9,43.886a2.633,2.633,0,0,0,2.163,1,2.735,2.735,0,0,0,2.173-.967A3.6,3.6,0,0,0,15.074,41.479ZM27.955,41.4H20.894a3.74,3.74,0,0,0,.9,2.578,3.1,3.1,0,0,0,2.363.908,4.913,4.913,0,0,0,3.105-1.113v1.5a5.8,5.8,0,0,1-3.486.957,4.227,4.227,0,0,1-3.33-1.362,5.576,5.576,0,0,1-1.211-3.833,5.468,5.468,0,0,1,1.323-3.8,4.243,4.243,0,0,1,3.286-1.47,3.76,3.76,0,0,1,3.037,1.27,5.293,5.293,0,0,1,1.074,3.525Zm-1.641-1.357a3.259,3.259,0,0,0-.669-2.158,2.279,2.279,0,0,0-1.831-.771,2.587,2.587,0,0,0-1.924.811,3.678,3.678,0,0,0-.977,2.119Zm3.457,5.6V43.92a4.74,4.74,0,0,0,2.881.967q2.109,0,2.109-1.406a1.22,1.22,0,0,0-.181-.679,1.8,1.8,0,0,0-.488-.493,3.759,3.759,0,0,0-.723-.386q-.415-.171-.894-.356a11.509,11.509,0,0,1-1.167-.532,3.525,3.525,0,0,1-.84-.605,2.253,2.253,0,0,1-.508-.767,2.712,2.712,0,0,1-.171-1.006,2.389,2.389,0,0,1,.322-1.245,2.858,2.858,0,0,1,.859-.908,4.007,4.007,0,0,1,1.226-.552,5.436,5.436,0,0,1,1.421-.186,5.737,5.737,0,0,1,2.324.449v1.621a4.53,4.53,0,0,0-2.539-.723,2.968,2.968,0,0,0-.811.1,1.984,1.984,0,0,0-.62.288,1.331,1.331,0,0,0-.4.444,1.17,1.17,0,0,0-.142.571,1.37,1.37,0,0,0,.142.654,1.44,1.44,0,0,0,.415.469,3.172,3.172,0,0,0,.664.371q.391.166.889.361a12.368,12.368,0,0,1,1.191.522,4.086,4.086,0,0,1,.9.605,2.366,2.366,0,0,1,.571.776,2.5,2.5,0,0,1,.2,1.045,2.464,2.464,0,0,1-.327,1.289,2.8,2.8,0,0,1-.874.908,4,4,0,0,1-1.26.537,6.22,6.22,0,0,1-1.494.176A5.673,5.673,0,0,1,29.771,45.639Zm15.908-.1a5.2,5.2,0,0,1-2.734.693,4.527,4.527,0,0,1-3.452-1.392,5.043,5.043,0,0,1-1.313-3.608,5.544,5.544,0,0,1,1.416-3.97,4.954,4.954,0,0,1,3.779-1.5,5.261,5.261,0,0,1,2.324.488v1.641a4.072,4.072,0,0,0-2.383-.781,3.22,3.22,0,0,0-2.515,1.1A4.169,4.169,0,0,0,39.82,41.1a3.969,3.969,0,0,0,.923,2.773,3.181,3.181,0,0,0,2.476,1.016,4.014,4.014,0,0,0,2.461-.869ZM55.26,46h-1.6V44.438h-.039a3.353,3.353,0,0,1-3.076,1.8,3.288,3.288,0,0,1-2.339-.791,2.741,2.741,0,0,1-.845-2.1q0-2.8,3.3-3.262l3-.42q0-2.549-2.061-2.549a4.923,4.923,0,0,0-3.262,1.23V36.7a6.2,6.2,0,0,1,3.4-.937q3.525,0,3.525,3.73Zm-1.6-5.059-2.412.332a3.916,3.916,0,0,0-1.68.552,1.591,1.591,0,0,0-.566,1.4,1.526,1.526,0,0,0,.522,1.2,2.019,2.019,0,0,0,1.392.464,2.571,2.571,0,0,0,1.968-.835,2.983,2.983,0,0,0,.776-2.114ZM66.578,46h-1.6V40.3q0-3.184-2.324-3.184a2.521,2.521,0,0,0-1.987.9,3.348,3.348,0,0,0-.786,2.28V46h-1.6V36h1.6v1.66h.039A3.609,3.609,0,0,1,63.2,35.766a3.059,3.059,0,0,1,2.51,1.06,4.72,4.72,0,0,1,.869,3.062Zm2.412-.361V43.92a4.74,4.74,0,0,0,2.881.967q2.109,0,2.109-1.406A1.22,1.22,0,0,0,73.8,42.8a1.8,1.8,0,0,0-.488-.493,3.758,3.758,0,0,0-.723-.386q-.415-.171-.894-.356a11.509,11.509,0,0,1-1.167-.532,3.525,3.525,0,0,1-.84-.605,2.253,2.253,0,0,1-.508-.767,2.712,2.712,0,0,1-.171-1.006,2.389,2.389,0,0,1,.322-1.245,2.858,2.858,0,0,1,.859-.908,4.007,4.007,0,0,1,1.226-.552,5.436,5.436,0,0,1,1.421-.186,5.737,5.737,0,0,1,2.324.449v1.621a4.53,4.53,0,0,0-2.539-.723,2.968,2.968,0,0,0-.811.1,1.984,1.984,0,0,0-.62.288,1.331,1.331,0,0,0-.4.444,1.171,1.171,0,0,0-.142.571,1.37,1.37,0,0,0,.142.654,1.44,1.44,0,0,0,.415.469,3.172,3.172,0,0,0,.664.371q.391.166.889.361a12.368,12.368,0,0,1,1.191.522,4.086,4.086,0,0,1,.9.605,2.366,2.366,0,0,1,.571.776,2.5,2.5,0,0,1,.2,1.045,2.464,2.464,0,0,1-.327,1.289,2.8,2.8,0,0,1-.874.908,4,4,0,0,1-1.26.537,6.22,6.22,0,0,1-1.494.176A5.673,5.673,0,0,1,68.99,45.639ZM85.24,46h-1.6V44.438H83.6a3.353,3.353,0,0,1-3.076,1.8,3.288,3.288,0,0,1-2.339-.791,2.741,2.741,0,0,1-.845-2.1q0-2.8,3.3-3.262l3-.42q0-2.549-2.061-2.549a4.923,4.923,0,0,0-3.262,1.23V36.7a6.2,6.2,0,0,1,3.4-.937q3.525,0,3.525,3.73Zm-1.6-5.059-2.412.332a3.916,3.916,0,0,0-1.68.552,1.591,1.591,0,0,0-.566,1.4,1.526,1.526,0,0,0,.522,1.2,2.019,2.019,0,0,0,1.392.464,2.571,2.571,0,0,0,1.968-.835,2.983,2.983,0,0,0,.776-2.114Zm9.834-3.32a1.958,1.958,0,0,0-1.211-.322,2.044,2.044,0,0,0-1.714.967,4.47,4.47,0,0,0-.688,2.637V46h-1.6V36h1.6v2.061H89.9a3.492,3.492,0,0,1,1.045-1.646,2.383,2.383,0,0,1,1.572-.591,2.615,2.615,0,0,1,.957.137Zm3.2,6.152-1.562,4.8H93.971l1.143-4.8Zm7.744,1.865V43.92a4.74,4.74,0,0,0,2.881.967q2.109,0,2.109-1.406a1.22,1.22,0,0,0-.181-.679,1.8,1.8,0,0,0-.488-.493,3.758,3.758,0,0,0-.723-.386q-.415-.171-.894-.356a11.509,11.509,0,0,1-1.167-.532,3.525,3.525,0,0,1-.84-.605,2.253,2.253,0,0,1-.508-.767,2.712,2.712,0,0,1-.171-1.006,2.389,2.389,0,0,1,.322-1.245,2.858,2.858,0,0,1,.859-.908,4.007,4.007,0,0,1,1.226-.552,5.436,5.436,0,0,1,1.421-.186,5.737,5.737,0,0,1,2.324.449v1.621a4.53,4.53,0,0,0-2.539-.723,2.968,2.968,0,0,0-.811.1,1.984,1.984,0,0,0-.62.288,1.331,1.331,0,0,0-.4.444,1.171,1.171,0,0,0-.142.571,1.37,1.37,0,0,0,.142.654,1.44,1.44,0,0,0,.415.469,3.172,3.172,0,0,0,.664.371q.391.166.889.361a12.368,12.368,0,0,1,1.191.522,4.086,4.086,0,0,1,.9.605,2.366,2.366,0,0,1,.571.776,2.5,2.5,0,0,1,.2,1.045,2.464,2.464,0,0,1-.327,1.289,2.8,2.8,0,0,1-.874.908,4,4,0,0,1-1.26.537,6.22,6.22,0,0,1-1.494.176A5.673,5.673,0,0,1,104.42,45.639ZM121.549,41.4h-7.061a3.74,3.74,0,0,0,.9,2.578,3.1,3.1,0,0,0,2.363.908,4.913,4.913,0,0,0,3.105-1.113v1.5a5.8,5.8,0,0,1-3.486.957,4.227,4.227,0,0,1-3.33-1.362,5.576,5.576,0,0,1-1.211-3.833,5.468,5.468,0,0,1,1.323-3.8,4.243,4.243,0,0,1,3.286-1.47,3.76,3.76,0,0,1,3.037,1.27,5.293,5.293,0,0,1,1.074,3.525Zm-1.641-1.357a3.259,3.259,0,0,0-.669-2.158,2.279,2.279,0,0,0-1.831-.771,2.587,2.587,0,0,0-1.924.811,3.678,3.678,0,0,0-.977,2.119ZM131.275,36l-3.359,5.059,3.3,4.941h-1.865l-1.963-3.242q-.186-.3-.439-.762h-.039q-.049.088-.459.762l-2,3.242H122.6l3.408-4.9L122.75,36h1.865l1.934,3.418q.215.381.42.781h.039l2.5-4.2Zm6.055,10.234a4.638,4.638,0,0,1-3.54-1.4,5.191,5.191,0,0,1-1.323-3.716,5.407,5.407,0,0,1,1.377-3.936,4.95,4.95,0,0,1,3.721-1.416,4.485,4.485,0,0,1,3.491,1.377,5.46,5.46,0,0,1,1.255,3.818,5.372,5.372,0,0,1-1.353,3.833A4.739,4.739,0,0,1,137.33,46.234Zm.117-9.121a3.046,3.046,0,0,0-2.441,1.05,4.312,4.312,0,0,0-.9,2.9,4.078,4.078,0,0,0,.908,2.8,3.087,3.087,0,0,0,2.432,1.025,2.928,2.928,0,0,0,2.388-1.006,4.365,4.365,0,0,0,.835-2.861,4.44,4.44,0,0,0-.835-2.891A2.915,2.915,0,0,0,137.447,37.113Zm8.887,6.66-1.562,4.8h-1.143l1.143-4.8ZM162.984,46h-1.6V40.238q0-3.125-2.324-3.125a2.534,2.534,0,0,0-1.973.9,3.366,3.366,0,0,0-.8,2.319V46h-1.6V31.2h1.6V37.66h.039a3.637,3.637,0,0,1,3.281-1.895q3.379,0,3.379,4.072Zm7.2.234a4.638,4.638,0,0,1-3.54-1.4,5.191,5.191,0,0,1-1.323-3.716,5.407,5.407,0,0,1,1.377-3.936,4.95,4.95,0,0,1,3.721-1.416,4.485,4.485,0,0,1,3.491,1.377,5.46,5.46,0,0,1,1.255,3.818,5.372,5.372,0,0,1-1.353,3.833A4.739,4.739,0,0,1,170.181,46.234Zm.117-9.121a3.046,3.046,0,0,0-2.441,1.05,4.312,4.312,0,0,0-.9,2.9,4.078,4.078,0,0,0,.908,2.8,3.087,3.087,0,0,0,2.432,1.025,2.928,2.928,0,0,0,2.388-1.006,4.365,4.365,0,0,0,.835-2.861,4.44,4.44,0,0,0-.835-2.891A2.915,2.915,0,0,0,170.3,37.113ZM191.92,46h-1.6V40.258a4.332,4.332,0,0,0-.513-2.4,1.944,1.944,0,0,0-1.724-.742,2.134,2.134,0,0,0-1.743.938,3.586,3.586,0,0,0-.718,2.246V46h-1.6V40.063q0-2.949-2.275-2.949a2.108,2.108,0,0,0-1.738.884,3.653,3.653,0,0,0-.684,2.3V46h-1.6V36h1.6v1.582h.039a3.4,3.4,0,0,1,3.105-1.816,2.888,2.888,0,0,1,2.832,2.07,3.569,3.569,0,0,1,3.32-2.07q3.3,0,3.3,4.072Zm11.064-4.6h-7.061a3.74,3.74,0,0,0,.9,2.578,3.1,3.1,0,0,0,2.363.908,4.913,4.913,0,0,0,3.105-1.113v1.5a5.8,5.8,0,0,1-3.486.957,4.227,4.227,0,0,1-3.33-1.362,5.576,5.576,0,0,1-1.211-3.833,5.468,5.468,0,0,1,1.323-3.8,4.243,4.243,0,0,1,3.286-1.47,3.76,3.76,0,0,1,3.037,1.27,5.293,5.293,0,0,1,1.074,3.525Zm-1.641-1.357a3.259,3.259,0,0,0-.669-2.158,2.279,2.279,0,0,0-1.831-.771,2.587,2.587,0,0,0-1.924.811,3.678,3.678,0,0,0-.977,2.119Zm8.242,6.191a4.638,4.638,0,0,1-3.54-1.4,5.191,5.191,0,0,1-1.323-3.716,5.407,5.407,0,0,1,1.377-3.936,4.95,4.95,0,0,1,3.721-1.416,4.485,4.485,0,0,1,3.491,1.377,5.46,5.46,0,0,1,1.255,3.818,5.372,5.372,0,0,1-1.353,3.833A4.739,4.739,0,0,1,209.586,46.234Zm.117-9.121a3.046,3.046,0,0,0-2.441,1.05,4.312,4.312,0,0,0-.9,2.9,4.078,4.078,0,0,0,.908,2.8,3.087,3.087,0,0,0,2.432,1.025,2.928,2.928,0,0,0,2.388-1.006,4.365,4.365,0,0,0,.835-2.861,4.44,4.44,0,0,0-.835-2.891A2.915,2.915,0,0,0,209.7,37.113Zm2.344-6.211-2.559,3.2h-1.24l2.178-3.2Zm4.473,14.736V43.92a4.74,4.74,0,0,0,2.881.967q2.109,0,2.109-1.406a1.22,1.22,0,0,0-.181-.679,1.8,1.8,0,0,0-.488-.493,3.759,3.759,0,0,0-.723-.386q-.415-.171-.894-.356a11.509,11.509,0,0,1-1.167-.532,3.526,3.526,0,0,1-.84-.605,2.253,2.253,0,0,1-.508-.767,2.712,2.712,0,0,1-.171-1.006,2.389,2.389,0,0,1,.322-1.245,2.858,2.858,0,0,1,.859-.908,4.007,4.007,0,0,1,1.226-.552,5.436,5.436,0,0,1,1.421-.186,5.737,5.737,0,0,1,2.324.449v1.621a4.53,4.53,0,0,0-2.539-.723,2.968,2.968,0,0,0-.811.1,1.984,1.984,0,0,0-.62.288,1.331,1.331,0,0,0-.4.444,1.17,1.17,0,0,0-.142.571,1.37,1.37,0,0,0,.142.654,1.44,1.44,0,0,0,.415.469,3.172,3.172,0,0,0,.664.371q.391.166.889.361a12.369,12.369,0,0,1,1.191.522,4.086,4.086,0,0,1,.9.605,2.366,2.366,0,0,1,.571.776,2.5,2.5,0,0,1,.2,1.045,2.464,2.464,0,0,1-.327,1.289,2.8,2.8,0,0,1-.874.908,4,4,0,0,1-1.26.537,6.22,6.22,0,0,1-1.494.176A5.673,5.673,0,0,1,216.519,45.639Zm13.73.264a3.088,3.088,0,0,1-1.494.313q-2.627,0-2.627-2.93V37.367H224.41V36h1.719V33.559l1.6-.518V36h2.52v1.367h-2.52V43a2.336,2.336,0,0,0,.342,1.436,1.364,1.364,0,0,0,1.133.43,1.684,1.684,0,0,0,1.045-.332Zm9.3.1h-1.6V44.438h-.039a3.353,3.353,0,0,1-3.076,1.8,3.288,3.288,0,0,1-2.339-.791,2.741,2.741,0,0,1-.845-2.1q0-2.8,3.3-3.262l3-.42q0-2.549-2.061-2.549a4.923,4.923,0,0,0-3.262,1.23V36.7a6.2,6.2,0,0,1,3.4-.937q3.525,0,3.525,3.73Zm-1.6-5.059-2.412.332a3.916,3.916,0,0,0-1.68.552,1.591,1.591,0,0,0-.566,1.4,1.526,1.526,0,0,0,.522,1.2,2.019,2.019,0,0,0,1.392.464,2.571,2.571,0,0,0,1.968-.835,2.983,2.983,0,0,0,.776-2.114Zm4.014,4.7V43.92a4.74,4.74,0,0,0,2.881.967q2.109,0,2.109-1.406a1.22,1.22,0,0,0-.181-.679,1.8,1.8,0,0,0-.488-.493,3.759,3.759,0,0,0-.723-.386q-.415-.171-.894-.356a11.509,11.509,0,0,1-1.167-.532,3.526,3.526,0,0,1-.84-.605,2.253,2.253,0,0,1-.508-.767,2.712,2.712,0,0,1-.171-1.006,2.389,2.389,0,0,1,.322-1.245,2.858,2.858,0,0,1,.859-.908,4.007,4.007,0,0,1,1.226-.552,5.436,5.436,0,0,1,1.421-.186,5.737,5.737,0,0,1,2.324.449v1.621a4.53,4.53,0,0,0-2.539-.723,2.968,2.968,0,0,0-.811.1,1.984,1.984,0,0,0-.62.288,1.331,1.331,0,0,0-.4.444,1.17,1.17,0,0,0-.142.571,1.37,1.37,0,0,0,.142.654,1.44,1.44,0,0,0,.415.469,3.172,3.172,0,0,0,.664.371q.391.166.889.361a12.369,12.369,0,0,1,1.191.522,4.086,4.086,0,0,1,.9.605,2.366,2.366,0,0,1,.571.776,2.5,2.5,0,0,1,.2,1.045,2.464,2.464,0,0,1-.327,1.289,2.8,2.8,0,0,1-.874.908,4,4,0,0,1-1.26.537,6.22,6.22,0,0,1-1.494.176A5.673,5.673,0,0,1,241.959,45.639Zm9.912-12.178a1.015,1.015,0,0,1-.732-.293.989.989,0,0,1-.3-.742,1.026,1.026,0,0,1,1.035-1.045,1.034,1.034,0,0,1,.747.3,1.043,1.043,0,0,1,0,1.479A1.025,1.025,0,0,1,251.871,33.461ZM252.652,46h-1.6V36h1.6Zm2.637-.361V43.92a4.74,4.74,0,0,0,2.881.967q2.109,0,2.109-1.406a1.22,1.22,0,0,0-.181-.679,1.8,1.8,0,0,0-.488-.493,3.758,3.758,0,0,0-.723-.386q-.415-.171-.894-.356a11.509,11.509,0,0,1-1.167-.532,3.525,3.525,0,0,1-.84-.605,2.253,2.253,0,0,1-.508-.767,2.712,2.712,0,0,1-.171-1.006,2.389,2.389,0,0,1,.322-1.245,2.858,2.858,0,0,1,.859-.908,4.007,4.007,0,0,1,1.226-.552,5.436,5.436,0,0,1,1.421-.186,5.737,5.737,0,0,1,2.324.449v1.621a4.53,4.53,0,0,0-2.539-.723,2.968,2.968,0,0,0-.811.1,1.984,1.984,0,0,0-.62.288,1.331,1.331,0,0,0-.4.444,1.171,1.171,0,0,0-.142.571,1.37,1.37,0,0,0,.142.654,1.44,1.44,0,0,0,.415.469,3.172,3.172,0,0,0,.664.371q.391.166.889.361a12.367,12.367,0,0,1,1.191.522,4.086,4.086,0,0,1,.9.605,2.366,2.366,0,0,1,.571.776,2.5,2.5,0,0,1,.2,1.045,2.464,2.464,0,0,1-.327,1.289,2.8,2.8,0,0,1-.874.908,4,4,0,0,1-1.26.537,6.22,6.22,0,0,1-1.494.176A5.673,5.673,0,0,1,255.289,45.639Zm9.648.576a1.037,1.037,0,0,1-.767-.322,1.061,1.061,0,0,1-.317-.771,1.077,1.077,0,0,1,.317-.776,1.029,1.029,0,0,1,.767-.327,1.056,1.056,0,0,1,.781.327,1.069,1.069,0,0,1,.322.776,1.053,1.053,0,0,1-.322.771A1.064,1.064,0,0,1,264.937,46.215Z" transform="translate(700.448 1341.002)" fill="#fff"/>
    <path id="Trazado_228420" data-name="Trazado 228420" d="M0,0H7V439H0Z" transform="translate(1164 904)" fill="#12263f"/>
    <path id="Trazado_228421" data-name="Trazado 228421" d="M14,0,28,23H0Z" transform="translate(1154 888)" fill="#12263f"/>
  </g>
</svg>
