<svg xmlns="http://www.w3.org/2000/svg" xmlns:xlink="http://www.w3.org/1999/xlink" width="90.973" height="90.973" viewBox="0 0 90.973 90.973">
  <defs>
    <linearGradient id="linear-gradient" x1="0.5" x2="0.5" y2="1" gradientUnits="objectBoundingBox">
      <stop offset="0" stop-color="#fdbe41"/>
      <stop offset="1" stop-color="#d09f40"/>
    </linearGradient>
    <clipPath id="clip-path">
      <rect id="Rectángulo_57009" data-name="Rectángulo 57009" width="50.664" height="49.865" fill="#12263f"/>
    </clipPath>
  </defs>
  <g id="Grupo_179465" data-name="Grupo 179465" transform="translate(-11894.988 9680.697)">
    <path id="Trazado_228272" data-name="Trazado 228272" d="M45.486,0A45.486,45.486,0,1,1,0,45.486,45.486,45.486,0,0,1,45.486,0Z" transform="translate(11894.988 -9680.697)" fill="url(#linear-gradient)"/>
    <g id="Grupo_179361" data-name="Grupo 179361" transform="translate(11916.043 -9661.586)">
      <g id="Grupo_176848" data-name="Grupo 176848" clip-path="url(#clip-path)">
        <path id="Trazado_219959" data-name="Trazado 219959" d="M77.949,49.864A2.8,2.8,0,0,1,76.294,48.7a2.572,2.572,0,0,1,.348-3.174,2.474,2.474,0,0,1-.351-2.427,2.013,2.013,0,0,1,.5-.776.649.649,0,0,0,.232-.784,20.522,20.522,0,0,0-1.288-3.082c-1.132-1.895-2.48-3.661-3.6-5.559a35.283,35.283,0,0,1-4.8-13.608A16.315,16.315,0,0,1,69.25,8.972a16.758,16.758,0,0,1,6.051-6.2A19.574,19.574,0,0,1,85.281,0c.692-.012,1,.32,1,1.1q0,6.163,0,12.327v.634H89.62v-.908c0-.99-.01-1.98.006-2.97a.543.543,0,0,0-.342-.567,2.429,2.429,0,0,1-1.247-2.8,2.486,2.486,0,1,1,3.6,2.8c-.147.085-.339.262-.342.4-.026,1.334-.015,2.669-.015,4.082.476,0,.914,0,1.353,0,.875,0,1.139.273,1.143,1.163,0,.424,0,.849,0,1.3H96.26c0-.835.012-1.669-.016-2.5,0-.1-.211-.221-.344-.3a2.484,2.484,0,1,1,3.583-2.84,2.447,2.447,0,0,1-1.231,2.851.506.506,0,0,0-.324.528c.015.94.01,1.881,0,2.822,0,.826-.309,1.126-1.143,1.13-.986,0-1.972,0-2.984,0v3.306h1.779c.974,0,1.948-.008,2.921.005a.54.54,0,0,0,.569-.335A2.481,2.481,0,1,1,99.1,23.6a.6.6,0,0,0-.642-.376c-1.533.014-3.066.006-4.677.006,0,.481,0,.935,0,1.389-.009.81-.3,1.1-1.109,1.1-.988,0-1.976,0-3.006,0V27.39h2.031c.995,0,1.232.235,1.235,1.215,0,.132.011.265,0,.4a1.3,1.3,0,0,0,.663,1.445,2.289,2.289,0,0,1,.825,2.848A2.483,2.483,0,1,1,90.92,30.2c.419-.234.436-.294.3-1.143-.693,0-1.4,0-2.1,0-.888,0-1.162-.274-1.166-1.146,0-.677,0-1.353-.007-2.029a.608.608,0,0,0-.038-.127H86.318V41.549h.507c1.716,0,3.439.089,5.148-.022a2.47,2.47,0,0,1,2.4,3.838,9.465,9.465,0,0,1,.593,1.825,2.388,2.388,0,0,1-1.745,2.559c-.109.035-.215.077-.323.116ZM84.586,1.69A17.01,17.01,0,0,0,74.93,5.046a14.366,14.366,0,0,0-6.032,13A31.259,31.259,0,0,0,71.549,28.13a43.566,43.566,0,0,0,4.435,7.58,35.157,35.157,0,0,1,2.178,3.867,12.711,12.711,0,0,1,.636,1.971h5.784V32.366c-1.243-.192-1.242-.192-1.494-1.417a.461.461,0,0,0-.05-.189c-.119-.147-.232-.358-.387-.4a.711.711,0,0,0-.528.158,4.543,4.543,0,0,0-.534.582.871.871,0,0,1-1.158.215c-.551-.3-1.116-.572-1.64-.911-1.2-.772-1.415-.744-.852-2.332a.563.563,0,0,0-.112-.5.752.752,0,0,0-.542-.151,4.866,4.866,0,0,0-.751.239.893.893,0,0,1-1.115-.395c-.34-.544-.712-1.073-1.009-1.64-.7-1.334-.679-1.335.409-2.364A.717.717,0,0,0,75,22.7c-.03-.144-.255-.284-.424-.355a3.978,3.978,0,0,0-.674-.147c-.724-.161-.908-.386-.912-1.117,0-.528,0-1.056,0-1.584-.011-1.593-.114-1.7,1.635-2.019A.566.566,0,0,0,75,17.131a.752.752,0,0,0-.148-.54,4.009,4.009,0,0,0-.578-.538.861.861,0,0,1-.228-1.151c.3-.551.562-1.123.908-1.641.643-.962.569-1.543,2.328-.864a.646.646,0,0,0,.54-.15.639.639,0,0,0,.113-.5A4.539,4.539,0,0,0,77.706,11a.875.875,0,0,1,.382-1.114,17.667,17.667,0,0,1,1.6-.983c1.133-.568,1.261-1.011,2.441.411a.612.612,0,0,0,.525.154c.155-.043.279-.247.383-.4a.97.97,0,0,0,.076-.334c.209-1.021.293-1.1,1.345-1.237a.8.8,0,0,0,.162-.068q0-2.663,0-5.334c0-.113-.016-.225-.029-.395m-9.9,17.464V20.7A1.817,1.817,0,0,1,76.7,22.267a1.866,1.866,0,0,1-.958,2.381l.782,1.329a1.819,1.819,0,0,1,2.534.367,1.881,1.881,0,0,1,.368,2.521l1.192.7c.459-.382.828-.909,1.295-1.016a4.627,4.627,0,0,1,1.618.286,1.125,1.125,0,0,1,1.036.82c.05-.653.029-1.263.058-1.87.017-.361-.112-.46-.463-.519a7.473,7.473,0,0,1,.078-14.733c.137-.024.353-.176.358-.276.032-.684.017-1.369.017-2.054-.371.985-1.347.735-2.023,1.041-1.028.465-1.327-.569-1.935-1l-1.245.73a1.865,1.865,0,0,1-.372,2.532,1.868,1.868,0,0,1-2.533.37l-.77,1.318a1.867,1.867,0,0,1,.956,2.4,1.878,1.878,0,0,1-2.007,1.569m11.622,4.882H92.08V15.79H86.308Zm-1.717-9.811a5.732,5.732,0,0,0-4.944,6.028c.136,2.726,2.688,5.466,4.944,5.32Zm.884,32.259h-2.92c-1.369,0-2.739-.007-4.108.006a.834.834,0,0,0-.886.86.859.859,0,0,0,.869.836c.132.009.264,0,.4,0H92.091a4.3,4.3,0,0,0,.494-.011.811.811,0,0,0,.751-.88c-.023-.521-.381-.812-1.031-.813q-3.415-.006-6.83,0m-.054-3.265H80.129c-.528,0-1.055,0-1.583,0a.7.7,0,0,0-.75.641.758.758,0,0,0,.5.865,1.477,1.477,0,0,0,.531.083q6.629.006,13.259,0c.669,0,1.048-.325,1.033-.861-.013-.484-.353-.731-1.022-.732q-3.34,0-6.679,0m15.836-19.992a.822.822,0,1,0-.019-1.644.822.822,0,0,0,.019,1.644M97.109,10.773a.855.855,0,0,0-.838.812.823.823,0,1,0,1.646.032.863.863,0,0,0-.808-.844M92.916,32.358a.811.811,0,1,0-.79.844.82.82,0,0,0,.79-.844M91.259,7.45a.816.816,0,1,0-.82.819.836.836,0,0,0,.82-.819" transform="translate(-60.519 0)" fill="#12263f"/>
        <path id="Trazado_219960" data-name="Trazado 219960" d="M1.692,470.369,0,470.375v-1.683l1.693.007-.015-.014v1.7Z" transform="translate(0 -422.194)" fill="#12263f"/>
        <path id="Trazado_219961" data-name="Trazado 219961" d="M16.919,487.347l.009-1.69-.015.014h1.7l-.014-.013-.1,1.688Z" transform="translate(-15.235 -437.482)" fill="#12263f"/>
        <path id="Trazado_219962" data-name="Trazado 219962" d="M405,101.311l-.621-1.472,1.5-.732.7,1.637-1.572.566" transform="translate(-364.264 -89.276)" fill="#12263f"/>
        <path id="Trazado_219963" data-name="Trazado 219963" d="M418.409,168.947h1.583v1.733l-1.664-.137c.027-.537.053-1.05.081-1.6" transform="translate(-376.832 -152.188)" fill="#12263f"/>
        <path id="Trazado_219964" data-name="Trazado 219964" d="M494.061,16.539h1.655v1.668h-1.652l.013.012q0-.849,0-1.7Z" transform="translate(-445.052 -14.883)" fill="#12263f"/>
        <path id="Trazado_219965" data-name="Trazado 219965" d="M363.183,326.462l-.96,1.435-1.362-.947.917-1.373,1.4.885" transform="translate(-325.065 -293.281)" fill="#12263f"/>
        <path id="Trazado_219966" data-name="Trazado 219966" d="M477.134,1.66V.008H478.8V1.664l.018-.017h-1.7Z" transform="translate(-429.794 -0.007)" fill="#12263f"/>
        <path id="Trazado_219967" data-name="Trazado 219967" d="M415.171,133.406l1.611-.376.311,1.749-1.642.193-.28-1.567" transform="translate(-373.988 -119.834)" fill="#12263f"/>
        <path id="Trazado_219968" data-name="Trazado 219968" d="M380.6,297.1l-.779,1.54-1.458-.78.745-1.474,1.493.715" transform="translate(-340.832 -266.985)" fill="#12263f"/>
        <path id="Trazado_219969" data-name="Trazado 219969" d="M309.767,10.011l-.649,1.52-1.51-.55.5-1.58,1.662.61" transform="translate(-277.094 -8.468)" fill="#12263f"/>
        <path id="Trazado_219970" data-name="Trazado 219970" d="M16.927,453.917v-1.642H18.6v1.64l.014-.013h-1.7Z" transform="translate(-15.234 -407.411)" fill="#12263f"/>
        <path id="Trazado_219971" data-name="Trazado 219971" d="M387.134,69.841l1.3-1.035,1.031,1.449-1.4.891-.929-1.3" transform="translate(-348.732 -61.981)" fill="#12263f"/>
        <path id="Trazado_219972" data-name="Trazado 219972" d="M337.512,24.754,338.3,23.3l1.512.913-.919,1.375-1.385-.83" transform="translate(-304.032 -20.985)" fill="#12263f"/>
        <path id="Trazado_219973" data-name="Trazado 219973" d="M277.4,3.583l-1.586-.269.207-1.648,1.732.312-.353,1.6" transform="translate(-248.454 -1.502)" fill="#12263f"/>
        <path id="Trazado_219974" data-name="Trazado 219974" d="M326.533,383.7l-.685,1.43-1.537-.607.768-1.621,1.454.8" transform="translate(-292.141 -344.919)" fill="#12263f"/>
        <path id="Trazado_219975" data-name="Trazado 219975" d="M342.743,355.761l-1.389-.9.961-1.426,1.363.947-.935,1.382" transform="translate(-307.493 -318.373)" fill="#12263f"/>
        <path id="Trazado_219976" data-name="Trazado 219976" d="M364.459,44.574l1.053-1.277,1.29,1.168-1.2,1.153-1.146-1.044" transform="translate(-328.306 -39.002)" fill="#12263f"/>
        <path id="Trazado_219977" data-name="Trazado 219977" d="M394.932,266.224l-.644,1.6-1.521-.654.613-1.53,1.552.583" transform="translate(-353.806 -239.291)" fill="#12263f"/>
        <path id="Trazado_219978" data-name="Trazado 219978" d="M462.8,18.218h-1.587V16.548h1.59l-.012-.012q0,.849,0,1.7Z" transform="translate(-415.462 -14.896)" fill="#12263f"/>
        <path id="Trazado_219979" data-name="Trazado 219979" d="M33.9,468.692H35.5v1.673H33.9l.014.013q0-.849,0-1.7Z" transform="translate(-30.54 -422.188)" fill="#12263f"/>
        <path id="Trazado_219980" data-name="Trazado 219980" d="M478.786,33.494c.006.46.014.921.018,1.381a1.431,1.431,0,0,1-.032.211h-1.661V33.492l-.011.016,1.7,0-.013-.012" transform="translate(-429.774 -30.17)" fill="#12263f"/>
      </g>
    </g>
  </g>
</svg>
