<svg xmlns="http://www.w3.org/2000/svg" xmlns:xlink="http://www.w3.org/1999/xlink" width="325.624" height="226.452" viewBox="0 0 325.624 226.452">
  <defs>
    <linearGradient id="linear-gradient" x1="0.5" x2="0.5" y2="1" gradientUnits="objectBoundingBox">
      <stop offset="0" stop-color="#fff"/>
      <stop offset="1" stop-color="#d2e6ee"/>
    </linearGradient>
    <linearGradient id="linear-gradient-5" y1="0.5" x2="1" y2="0.5" gradientUnits="objectBoundingBox">
      <stop offset="0" stop-color="#ff928e"/>
      <stop offset="1" stop-color="#feb3b1"/>
    </linearGradient>
    <linearGradient id="linear-gradient-8" x1="294.087" y1="1.605" x2="296.088" y2="4.278" xlink:href="#linear-gradient-5"/>
    <linearGradient id="linear-gradient-9" x1="0.439" y1="-3.503" x2="0.505" y2="0.689" xlink:href="#linear-gradient-5"/>
    <linearGradient id="linear-gradient-10" x1="0.511" y1="0.146" x2="0.456" y2="1.705" xlink:href="#linear-gradient-5"/>
    <linearGradient id="linear-gradient-11" x1="-47.545" y1="17.427" x2="-48.867" y2="15.942" xlink:href="#linear-gradient-5"/>
    <linearGradient id="linear-gradient-12" x1="-155.484" y1="82.575" x2="-159.791" y2="75.375" xlink:href="#linear-gradient-5"/>
    <linearGradient id="linear-gradient-13" x1="0.5" x2="0.5" y2="1" gradientUnits="objectBoundingBox">
      <stop offset="0" stop-color="#fff"/>
      <stop offset="1" stop-color="#d3d3d3"/>
    </linearGradient>
    <linearGradient id="linear-gradient-25" x1="1.66" y1="1.186" x2="0.085" y2="0.256" xlink:href="#linear-gradient-5"/>
    <linearGradient id="linear-gradient-26" x1="0.892" y1="0.928" x2="-0.916" y2="-1.638" xlink:href="#linear-gradient-5"/>
    <linearGradient id="linear-gradient-27" y1="0.5" x2="1" y2="0.5" gradientUnits="objectBoundingBox">
      <stop offset="0" stop-color="#dae3fe"/>
      <stop offset="1" stop-color="#e9effd"/>
    </linearGradient>
    <linearGradient id="linear-gradient-28" x1="0" y1="0.5" x2="1" y2="0.5" xlink:href="#linear-gradient-27"/>
    <linearGradient id="linear-gradient-40" x1="0" y1="0.5" x2="1" y2="0.5" xlink:href="#linear-gradient-27"/>
    <linearGradient id="linear-gradient-41" x1="0" y1="0.5" x2="1" y2="0.5" xlink:href="#linear-gradient-27"/>
    <linearGradient id="linear-gradient-45" x1="0" y1="0.5" x2="1" y2="0.5" xlink:href="#linear-gradient-27"/>
    <linearGradient id="linear-gradient-49" x1="0" y1="0.5" x2="1" y2="0.5" xlink:href="#linear-gradient-27"/>
    <linearGradient id="linear-gradient-126" x1="0" y1="0.5" x2="1" y2="0.5" xlink:href="#linear-gradient-27"/>
  </defs>
  <g id="Grupo_179461" data-name="Grupo 179461" transform="translate(-12664.601 8640.94)">
    <g id="Grupo_176841" data-name="Grupo 176841" transform="translate(12341.019 -8894.687)">
      <g id="Grupo_46161" data-name="Grupo 46161" transform="translate(323.582 280.635)">
        <path id="Trazado_96199" data-name="Trazado 96199" d="M323.582,422.3V572.114c0,12.324,9.467,22.4,21.344,22.72,52.75,1.411,237.245,4.832,287.46,4.064,8.631-.132,15.622-7.3,15.871-16.246.968-34.8,2.541-118.5-3.279-157.35a16.813,16.813,0,0,0-15.862-14.566c-44.2-1.467-239.775-6.124-289.966-4.955C330.494,405.985,323.582,413.319,323.582,422.3Z" transform="translate(-323.582 -405.597)" fill="#00223d"/>
        <path id="Trazado_96200" data-name="Trazado 96200" d="M374.757,448.621V590.954a12.946,12.946,0,0,0,12.5,13.166l280.014,3.589a12.58,12.58,0,0,0,12.539-12.766l.468-141.061a9.22,9.22,0,0,0-8.815-9.4l-286.682-6.008A9.967,9.967,0,0,0,374.757,448.621Z" transform="translate(-365.695 -432.645)" fill="#f1f1f1"/>
        <path id="Trazado_96201" data-name="Trazado 96201" d="M680.353,1398.423h-.006l-307.164-5.429a.338.338,0,0,1-.332-.344.346.346,0,0,1,.344-.332l307.164,5.429a.338.338,0,0,1-.006.675Z" transform="translate(-364.126 -1217.592)" fill="#fff" opacity="0.65"/>
      </g>
      <g id="Grupo_46178" data-name="Grupo 46178" transform="translate(342.127 300.522)">
        <path id="Trazado_96202" data-name="Trazado 96202" d="M516.3,932.176H435.309a4.421,4.421,0,0,1-4.422-4.421v-8.035a3.258,3.258,0,0,1,3.258-3.258h83.319a3.258,3.258,0,0,1,3.258,3.258v8.035A4.422,4.422,0,0,1,516.3,932.176Z" transform="translate(-430.43 -845.885)" fill="#707070" opacity="0.37"/>
        <path id="Trazado_96203" data-name="Trazado 96203" d="M516.3,1096.784H435.309a4.422,4.422,0,0,1-4.422-4.422v-43.723a3.258,3.258,0,0,1,3.258-3.258h83.319a3.258,3.258,0,0,1,3.258,3.258v43.723A4.422,4.422,0,0,1,516.3,1096.784Z" transform="translate(-430.43 -951.976)" fill="#707070" opacity="0.37"/>
        <path id="Trazado_96204" data-name="Trazado 96204" d="M1079.048,932.176H998.057a4.421,4.421,0,0,1-4.421-4.421v-8.035a3.258,3.258,0,0,1,3.258-3.258h83.319a3.258,3.258,0,0,1,3.258,3.258v8.035A4.421,4.421,0,0,1,1079.048,932.176Z" transform="translate(-893.528 -845.885)" fill="#707070" opacity="0.37"/>
        <path id="Trazado_96205" data-name="Trazado 96205" d="M1079.048,1096.784H998.057a4.422,4.422,0,0,1-4.421-4.422v-43.723a3.258,3.258,0,0,1,3.258-3.258h83.319a3.258,3.258,0,0,1,3.258,3.258v43.723A4.421,4.421,0,0,1,1079.048,1096.784Z" transform="translate(-893.528 -951.976)" fill="#707070" opacity="0.37"/>
        <path id="Trazado_96206" data-name="Trazado 96206" d="M1641.795,932.176H1560.8a4.421,4.421,0,0,1-4.421-4.421v-8.035a3.258,3.258,0,0,1,3.258-3.258h83.319a3.258,3.258,0,0,1,3.258,3.258v8.035A4.422,4.422,0,0,1,1641.795,932.176Z" transform="translate(-1356.625 -845.885)" fill="#707070" opacity="0.37"/>
        <path id="Trazado_96207" data-name="Trazado 96207" d="M1641.795,1096.784H1560.8a4.421,4.421,0,0,1-4.421-4.422v-43.723a3.258,3.258,0,0,1,3.258-3.258h83.319a3.258,3.258,0,0,1,3.258,3.258v43.723A4.422,4.422,0,0,1,1641.795,1096.784Z" transform="translate(-1356.625 -951.976)" fill="#707070" opacity="0.37"/>
        <g id="Grupo_46162" data-name="Grupo 46162" transform="translate(0)">
          <path id="Trazado_96208" data-name="Trazado 96208" d="M428.869,528.322c-.233,9.99-2.137,41.989,2.728,48.835,6.885,9.691,64.774,5.1,78.927,1.275s7.268-39.782,5.738-50.11-30.14-10.711-51.218-10.328S429.074,519.523,428.869,528.322Z" transform="translate(-428.308 -517.903)" fill="#7dc4be"/>
          <path id="Trazado_96209" data-name="Trazado 96209" d="M902.767,608.186a.593.593,0,0,1-.589-.527c-.488-4.319-1.112-8.279-1.569-11.171l-.185-1.179a.593.593,0,0,1,1.173-.183l.185,1.177c.458,2.9,1.085,6.878,1.576,11.223a.594.594,0,0,1-.523.656A.583.583,0,0,1,902.767,608.186Z" transform="translate(-816.817 -581.039)" fill="#fff"/>
          <path id="Trazado_96210" data-name="Trazado 96210" d="M811.6,736.04a.594.594,0,0,1-.078-1.182,88.467,88.467,0,0,0,10.35-1.865c5.6-1.513,8.083-9.323,7.388-23.214a.593.593,0,0,1,.563-.622.606.606,0,0,1,.622.563c.727,14.525-2.053,22.741-8.264,24.42a89.523,89.523,0,0,1-10.5,1.9A.6.6,0,0,1,811.6,736.04Z" transform="translate(-743.24 -675.29)" fill="#fff"/>
          <path id="Trazado_96211" data-name="Trazado 96211" d="M450.066,730.756a.594.594,0,0,1-.591-.54c-.266-2.934-.423-6.483-.468-10.55a.594.594,0,0,1,1.187-.013c.044,4.035.2,7.553.463,10.455a.594.594,0,0,1-.538.645Z" transform="translate(-445.342 -683.444)" opacity="0.56" fill="url(#linear-gradient)"/>
          <path id="Trazado_96212" data-name="Trazado 96212" d="M450.572,555.919h-.018a.594.594,0,0,1-.576-.611c.058-1.928.121-3.727.177-5.328.063-1.794.117-3.339.146-4.535.166-7.111,9.663-9.006,23.87-9.663a.594.594,0,1,1,.055,1.186c-16.027.741-22.615,3.205-22.739,8.5-.028,1.2-.082,2.749-.146,4.549-.056,1.6-.119,3.4-.177,5.321A.593.593,0,0,1,450.572,555.919Z" transform="translate(-446.141 -532.615)" fill="#fff"/>
          <path id="Trazado_96213" data-name="Trazado 96213" d="M599.1,625.449a1.268,1.268,0,0,1-1.079-1.934l22.1-35.874a1.268,1.268,0,1,1,2.16,1.331l-22.1,35.874A1.268,1.268,0,0,1,599.1,625.449Z" transform="translate(-567.815 -574.796)" fill="#fff"/>
          <path id="Trazado_96214" data-name="Trazado 96214" d="M537.221,647.918a1.265,1.265,0,0,1-.941-.417l-8.622-9.529a5.8,5.8,0,0,1-1.43-4.277,5.634,5.634,0,0,1,1.93-3.932l9.085-7.637a1.268,1.268,0,0,1,1.632,1.942L529.79,631.7a3.089,3.089,0,0,0-1.032,2.164,3.252,3.252,0,0,0,.781,2.4l8.621,9.529a1.268,1.268,0,0,1-.94,2.119Z" transform="translate(-508.877 -603.425)" fill="#fff"/>
          <path id="Trazado_96215" data-name="Trazado 96215" d="M743.825,647.918a1.268,1.268,0,0,1-.94-2.119l8.621-9.529a3.253,3.253,0,0,0,.781-2.4,3.09,3.09,0,0,0-1.032-2.164l-9.084-7.636a1.268,1.268,0,1,1,1.632-1.942l9.085,7.637a5.634,5.634,0,0,1,1.93,3.932,5.8,5.8,0,0,1-1.43,4.277l-8.621,9.529A1.265,1.265,0,0,1,743.825,647.918Z" transform="translate(-686.22 -603.425)" fill="#fff"/>
        </g>
        <g id="Grupo_46164" data-name="Grupo 46164" transform="translate(100.246 0.362)">
          <path id="Trazado_96216" data-name="Trazado 96216" d="M994.981,530.368c-.233,9.99-2.137,41.989,2.728,48.835,6.885,9.691,64.774,5.1,78.927,1.275s7.268-39.782,5.738-50.11-30.14-10.711-51.218-10.328S995.186,521.57,994.981,530.368Z" transform="translate(-994.42 -519.949)" fill="#00223d"/>
          <path id="Trazado_96217" data-name="Trazado 96217" d="M1468.881,608.186a.594.594,0,0,1-.589-.527c-.487-4.319-1.112-8.279-1.568-11.171l-.185-1.179a.593.593,0,0,1,1.173-.183l.185,1.177c.458,2.9,1.085,6.878,1.576,11.223a.594.594,0,0,1-.523.656A.583.583,0,0,1,1468.881,608.186Z" transform="translate(-1382.93 -581.401)" fill="#fff"/>
          <path id="Trazado_96218" data-name="Trazado 96218" d="M1377.712,736.04a.594.594,0,0,1-.078-1.182,88.454,88.454,0,0,0,10.35-1.865c5.6-1.513,8.083-9.323,7.388-23.214a.593.593,0,0,1,.563-.622.607.607,0,0,1,.622.563c.727,14.525-2.054,22.741-8.264,24.42a89.521,89.521,0,0,1-10.5,1.9A.6.6,0,0,1,1377.712,736.04Z" transform="translate(-1309.351 -675.652)" fill="#fff"/>
          <path id="Trazado_96219" data-name="Trazado 96219" d="M1016.178,730.756a.594.594,0,0,1-.591-.54c-.266-2.934-.423-6.483-.468-10.55a.594.594,0,0,1,1.187-.013c.044,4.035.2,7.553.463,10.455a.594.594,0,0,1-.538.645Z" transform="translate(-1011.454 -683.807)" fill="#fff"/>
          <path id="Trazado_96220" data-name="Trazado 96220" d="M1016.685,555.919h-.018a.594.594,0,0,1-.576-.611c.058-1.928.121-3.727.177-5.328.063-1.794.117-3.339.146-4.535.166-7.111,9.662-9.006,23.87-9.663a.594.594,0,1,1,.055,1.186c-16.027.741-22.615,3.205-22.739,8.5-.028,1.2-.082,2.749-.146,4.549-.056,1.6-.12,3.4-.177,5.321A.593.593,0,0,1,1016.685,555.919Z" transform="translate(-1012.253 -532.978)" fill="#fff"/>
          <g id="Grupo_46163" data-name="Grupo 46163" transform="translate(22.358 7.291)">
            <path id="Trazado_96221" data-name="Trazado 96221" d="M1252.914,584.856a1.268,1.268,0,0,1-1.248-1.494l3.827-21.2a1.268,1.268,0,0,1,1.483-1.021A23.066,23.066,0,0,1,1275.5,580.3a1.269,1.269,0,0,1-1.072,1.447l-21.329,3.091A1.25,1.25,0,0,1,1252.914,584.856Zm4.841-20.945-3.28,18.169,18.282-2.65A20.534,20.534,0,0,0,1257.756,563.911Z" transform="translate(-1228.455 -561.121)" fill="#fff"/>
            <path id="Trazado_96222" data-name="Trazado 96222" d="M1139.523,653.034a18.843,18.843,0,1,1,3.5-37.356,1.268,1.268,0,0,1,1.013,1.472l-2.772,15.352,15.448-2.239a1.271,1.271,0,0,1,1.436,1.064,18.859,18.859,0,0,1-18.627,21.707Zm0-35.149a16.306,16.306,0,1,0,16.307,16.306c0-.41-.016-.821-.046-1.23l-15.9,2.3a1.268,1.268,0,0,1-1.43-1.481l2.853-15.8A16.206,16.206,0,0,0,1139.523,617.885Z" transform="translate(-1120.68 -605.746)" fill="#fff"/>
          </g>
        </g>
        <g id="Grupo_46165" data-name="Grupo 46165" transform="translate(200.492 0.362)">
          <path id="Trazado_96223" data-name="Trazado 96223" d="M1561.094,530.368c-.233,9.99-2.137,41.989,2.728,48.835,6.885,9.691,64.774,5.1,78.927,1.275s7.268-39.782,5.738-50.11-30.14-10.711-51.218-10.328S1561.3,521.57,1561.094,530.368Z" transform="translate(-1560.533 -519.949)" fill="#5b7393"/>
          <path id="Trazado_96224" data-name="Trazado 96224" d="M2034.992,608.186a.594.594,0,0,1-.589-.527c-.487-4.319-1.112-8.279-1.568-11.171l-.186-1.179a.594.594,0,0,1,1.173-.183l.185,1.177c.458,2.9,1.085,6.878,1.576,11.223a.594.594,0,0,1-.523.656A.587.587,0,0,1,2034.992,608.186Z" transform="translate(-1949.042 -581.401)" fill="#fff"/>
          <path id="Trazado_96225" data-name="Trazado 96225" d="M1943.825,736.04a.594.594,0,0,1-.078-1.182,88.448,88.448,0,0,0,10.35-1.865c5.6-1.513,8.083-9.323,7.388-23.214a.593.593,0,0,1,.563-.622.606.606,0,0,1,.622.563c.727,14.525-2.053,22.741-8.264,24.42a89.525,89.525,0,0,1-10.5,1.9A.61.61,0,0,1,1943.825,736.04Z" transform="translate(-1875.464 -675.652)" fill="#fff"/>
          <path id="Trazado_96226" data-name="Trazado 96226" d="M1582.292,730.756a.594.594,0,0,1-.591-.54c-.266-2.934-.423-6.483-.468-10.55a.594.594,0,0,1,1.188-.013c.044,4.035.2,7.553.463,10.455a.594.594,0,0,1-.538.645Z" transform="translate(-1577.568 -683.807)" fill="#fff"/>
          <path id="Trazado_96227" data-name="Trazado 96227" d="M1582.8,555.919h-.018a.594.594,0,0,1-.576-.611c.058-1.928.121-3.727.178-5.328.063-1.794.117-3.339.146-4.535.166-7.111,9.662-9.006,23.87-9.663a.594.594,0,1,1,.055,1.186c-16.027.741-22.615,3.205-22.739,8.5-.028,1.2-.082,2.749-.146,4.549-.056,1.6-.119,3.4-.177,5.321A.593.593,0,0,1,1582.8,555.919Z" transform="translate(-1578.366 -532.978)" fill="#fff"/>
          <path id="Trazado_96228" data-name="Trazado 96228" d="M1754.134,639.434a1.527,1.527,0,0,1-1.525-1.485l-.7-26.033a2.459,2.459,0,0,1,3.5-2.293l25.716,12.028a2.458,2.458,0,0,1,.115,4.4l-22.7,12.1a1.526,1.526,0,1,1-1.436-2.693l21.65-11.542L1754.989,612.8l.671,25.07a1.527,1.527,0,0,1-1.485,1.567Z" transform="translate(-1718.022 -593.551)" fill="#fff"/>
        </g>
        <g id="Grupo_46169" data-name="Grupo 46169" transform="translate(26.679 51.893)">
          <g id="Grupo_46166" data-name="Grupo 46166" transform="translate(0 18.83)">
            <path id="Trazado_96229" data-name="Trazado 96229" d="M605.107,922.7l-4.482-4.371a3.65,3.65,0,0,0-2.549-1.038h-9.722a3.65,3.65,0,0,0-2.518,1.007l-4.586,4.368a3.651,3.651,0,0,0-1.132,2.547l-1.144,43.178a3.651,3.651,0,0,0,3.65,3.748h21.935a3.651,3.651,0,0,0,3.647-3.82l-2-43.173A3.651,3.651,0,0,0,605.107,922.7Zm-11.818,2.251a2.728,2.728,0,1,1,2.227-2.227A2.73,2.73,0,0,1,593.289,924.954Z" transform="translate(-578.973 -917.294)" fill="url(#linear-gradient)"/>
          </g>
          <path id="Trazado_96230" data-name="Trazado 96230" d="M608.5,995l16.187-2.749a1.055,1.055,0,0,1,1.231,1.04v.916a1.055,1.055,0,0,1-.936,1.048l-16.187,1.832a1.054,1.054,0,0,1-1.173-1.048h0A1.054,1.054,0,0,1,608.5,995Z" transform="translate(-602.546 -960.135)" fill="#00223d"/>
          <path id="Trazado_96231" data-name="Trazado 96231" d="M608.5,1022.293l16.187-2.749a1.055,1.055,0,0,1,1.231,1.04v.916a1.055,1.055,0,0,1-.936,1.048l-16.187,1.832a1.054,1.054,0,0,1-1.173-1.048h0A1.054,1.054,0,0,1,608.5,1022.293Z" transform="translate(-602.546 -982.595)" fill="#00223d"/>
          <g id="Grupo_46168" data-name="Grupo 46168" transform="translate(3.55 48.036)">
            <circle id="Elipse_3872" data-name="Elipse 3872" cx="8.975" cy="8.975" r="8.975" transform="translate(0 17.471) rotate(-76.717)" fill="#00223d"/>
            <circle id="Elipse_3873" data-name="Elipse 3873" cx="8.677" cy="8.677" r="8.677" transform="translate(1.125 3.246) rotate(-7.018)" fill="#f6c343"/>
            <path id="Trazado_96232" data-name="Trazado 96232" d="M618.023,1101.142a.338.338,0,0,1-.3-.49,8.313,8.313,0,0,1,7.456-4.591,8.421,8.421,0,0,1,1.506.135.338.338,0,0,1-.121.664,7.722,7.722,0,0,0-1.384-.125,7.64,7.64,0,0,0-6.854,4.22A.338.338,0,0,1,618.023,1101.142Z" transform="translate(-614.381 -1093.611)" fill="#fff" opacity="0.61"/>
            <circle id="Elipse_3874" data-name="Elipse 3874" cx="7.344" cy="7.344" r="7.344" transform="translate(0.601 10.987) rotate(-45)" fill="#fff" opacity="0.61"/>
            <g id="Grupo_46167" data-name="Grupo 46167" transform="translate(7.752 5.789)">
              <path id="Trazado_96233" data-name="Trazado 96233" d="M645.313,1125.573v-.8a6.521,6.521,0,0,1-2.242-.486.462.462,0,0,1-.255-.546l.2-.744a.466.466,0,0,1,.632-.3,5.41,5.41,0,0,0,2.07.436c.8,0,1.4-.272,1.4-.83,0-.5-.462-.8-1.577-1.1-1.591-.435-2.733-1.128-2.733-2.529,0-1.265.924-2.23,2.529-2.489v-.8a.466.466,0,0,1,.466-.465h.469a.466.466,0,0,1,.466.465v.717a5.949,5.949,0,0,1,1.777.319.464.464,0,0,1,.29.56l-.187.688a.464.464,0,0,1-.613.313,4.857,4.857,0,0,0-1.743-.316c-.952,0-1.224.394-1.224.748,0,.435.571.734,1.808,1.115,1.768.53,2.5,1.265,2.5,2.583,0,1.21-.9,2.3-2.638,2.57v.894a.465.465,0,0,1-.466.465h-.469A.466.466,0,0,1,645.313,1125.573Z" transform="translate(-642.799 -1114.916)" fill="#f6c343"/>
            </g>
          </g>
          <path id="Trazado_96234" data-name="Trazado 96234" d="M628.212,836.5a.691.691,0,0,1-.639-.427c-1.184-2.866.17-5.961,1.514-8.051.41-.637.855-1.262,1.286-1.866a17.163,17.163,0,0,0,2.666-4.683,8.394,8.394,0,0,0-1.607-7.823,5.343,5.343,0,0,0-5.63-.841c-1.8.947-4.349,4.271-1.25,15.891a.691.691,0,0,1-1.335.356c-3.178-11.917-.7-16.077,1.941-17.469a6.614,6.614,0,0,1,7.322,1.163,9.8,9.8,0,0,1,1.878,9.137,18.452,18.452,0,0,1-2.86,5.071c-.421.591-.857,1.2-1.249,1.811-.955,1.485-2.406,4.34-1.4,6.777a.691.691,0,0,1-.638.954Z" transform="translate(-614.152 -810.956)" fill="#00223d"/>
        </g>
        <g id="Grupo_46173" data-name="Grupo 46173" transform="translate(129.578 51.893)">
          <g id="Grupo_46170" data-name="Grupo 46170" transform="translate(0 18.83)">
            <path id="Trazado_96235" data-name="Trazado 96235" d="M1186.2,922.7l-4.482-4.371a3.65,3.65,0,0,0-2.549-1.038h-9.722a3.649,3.649,0,0,0-2.518,1.007l-4.586,4.368a3.651,3.651,0,0,0-1.132,2.547l-1.144,43.178a3.651,3.651,0,0,0,3.65,3.748h21.935a3.651,3.651,0,0,0,3.647-3.82l-2-43.173A3.651,3.651,0,0,0,1186.2,922.7Zm-11.818,2.251a2.728,2.728,0,1,1,2.227-2.227A2.73,2.73,0,0,1,1174.379,924.954Z" transform="translate(-1160.062 -917.294)" fill="url(#linear-gradient)"/>
          </g>
          <path id="Trazado_96236" data-name="Trazado 96236" d="M1189.588,995l16.187-2.749a1.055,1.055,0,0,1,1.231,1.04v.916a1.055,1.055,0,0,1-.936,1.048l-16.187,1.832a1.054,1.054,0,0,1-1.173-1.048h0A1.054,1.054,0,0,1,1189.588,995Z" transform="translate(-1183.637 -960.135)" fill="#00223d"/>
          <path id="Trazado_96237" data-name="Trazado 96237" d="M1189.588,1022.293l16.187-2.749a1.055,1.055,0,0,1,1.231,1.04v.916a1.055,1.055,0,0,1-.936,1.048l-16.187,1.832a1.054,1.054,0,0,1-1.173-1.048h0A1.054,1.054,0,0,1,1189.588,1022.293Z" transform="translate(-1183.637 -982.595)" fill="#00223d"/>
          <g id="Grupo_46172" data-name="Grupo 46172" transform="translate(2.621 47.106)">
            <circle id="Elipse_3875" data-name="Elipse 3875" cx="8.975" cy="8.975" r="8.975" transform="translate(0 16.584) rotate(-67.5)" fill="#00223d"/>
            <circle id="Elipse_3876" data-name="Elipse 3876" cx="8.677" cy="8.677" r="8.677" transform="matrix(0.973, -0.23, 0.23, 0.973, 1.289, 5.276)" fill="#f6c343"/>
            <path id="Trazado_96238" data-name="Trazado 96238" d="M1199.113,1101.142a.338.338,0,0,1-.3-.49,8.312,8.312,0,0,1,7.456-4.591,8.419,8.419,0,0,1,1.506.135.338.338,0,0,1-.121.664,7.724,7.724,0,0,0-1.385-.125,7.64,7.64,0,0,0-6.854,4.22A.337.337,0,0,1,1199.113,1101.142Z" transform="translate(-1194.542 -1092.682)" fill="#fff" opacity="0.61"/>
            <circle id="Elipse_3877" data-name="Elipse 3877" cx="7.344" cy="7.344" r="7.344" transform="translate(2.321 7.942) rotate(-22.5)" fill="#fff" opacity="0.61"/>
            <g id="Grupo_46171" data-name="Grupo 46171" transform="translate(8.681 6.718)">
              <path id="Trazado_96239" data-name="Trazado 96239" d="M1226.4,1125.573v-.8a6.521,6.521,0,0,1-2.242-.486.463.463,0,0,1-.255-.546l.2-.744a.466.466,0,0,1,.633-.3,5.411,5.411,0,0,0,2.07.436c.8,0,1.4-.272,1.4-.83,0-.5-.462-.8-1.577-1.1-1.591-.435-2.733-1.128-2.733-2.529,0-1.265.925-2.23,2.529-2.489v-.8a.466.466,0,0,1,.465-.465h.469a.465.465,0,0,1,.466.465v.717a5.953,5.953,0,0,1,1.777.319.463.463,0,0,1,.289.56l-.187.688a.464.464,0,0,1-.613.313,4.854,4.854,0,0,0-1.743-.316c-.952,0-1.224.394-1.224.748,0,.435.571.734,1.808,1.115,1.768.53,2.5,1.265,2.5,2.583,0,1.21-.9,2.3-2.638,2.57v.894a.465.465,0,0,1-.465.465h-.469A.466.466,0,0,1,1226.4,1125.573Z" transform="translate(-1223.889 -1114.916)" fill="#f6c343"/>
            </g>
          </g>
          <path id="Trazado_96240" data-name="Trazado 96240" d="M1209.3,836.5a.691.691,0,0,1-.638-.427c-1.184-2.866.17-5.961,1.514-8.051.41-.637.855-1.262,1.286-1.866a17.159,17.159,0,0,0,2.666-4.683,8.394,8.394,0,0,0-1.607-7.823,5.343,5.343,0,0,0-5.63-.841c-1.8.947-4.349,4.271-1.251,15.891a.69.69,0,1,1-1.334.356c-3.178-11.917-.7-16.077,1.941-17.469a6.614,6.614,0,0,1,7.322,1.163,9.8,9.8,0,0,1,1.877,9.137,18.451,18.451,0,0,1-2.86,5.071c-.422.591-.857,1.2-1.249,1.811-.954,1.485-2.406,4.34-1.4,6.777a.691.691,0,0,1-.638.954Z" transform="translate(-1195.243 -810.956)" fill="#00223d"/>
        </g>
        <g id="Grupo_46177" data-name="Grupo 46177" transform="translate(232.476 51.893)">
          <g id="Grupo_46174" data-name="Grupo 46174" transform="translate(0 18.83)">
            <path id="Trazado_96241" data-name="Trazado 96241" d="M1767.288,922.7l-4.482-4.371a3.65,3.65,0,0,0-2.549-1.038h-9.722a3.651,3.651,0,0,0-2.518,1.007l-4.586,4.368a3.65,3.65,0,0,0-1.132,2.547l-1.144,43.178a3.651,3.651,0,0,0,3.65,3.748h21.935a3.651,3.651,0,0,0,3.647-3.82l-2-43.173A3.651,3.651,0,0,0,1767.288,922.7Zm-11.818,2.251a2.728,2.728,0,1,1,2.227-2.227A2.73,2.73,0,0,1,1755.47,924.954Z" transform="translate(-1741.153 -917.294)" fill="url(#linear-gradient)"/>
          </g>
          <path id="Trazado_96242" data-name="Trazado 96242" d="M1770.678,995l16.187-2.749a1.054,1.054,0,0,1,1.231,1.04v.916a1.055,1.055,0,0,1-.936,1.048l-16.187,1.832a1.054,1.054,0,0,1-1.173-1.048h0A1.054,1.054,0,0,1,1770.678,995Z" transform="translate(-1764.727 -960.135)" fill="#00223d"/>
          <path id="Trazado_96243" data-name="Trazado 96243" d="M1770.678,1022.293l16.187-2.749a1.054,1.054,0,0,1,1.231,1.04v.916a1.055,1.055,0,0,1-.936,1.048l-16.187,1.832a1.055,1.055,0,0,1-1.173-1.048h0A1.055,1.055,0,0,1,1770.678,1022.293Z" transform="translate(-1764.727 -982.595)" fill="#00223d"/>
          <g id="Grupo_46176" data-name="Grupo 46176" transform="translate(4.223 48.709)">
            <circle id="Elipse_3878" data-name="Elipse 3878" cx="8.975" cy="8.975" r="8.975" transform="matrix(0.138, -0.99, 0.99, 0.138, 0, 17.78)" fill="#00223d"/>
            <circle id="Elipse_3879" data-name="Elipse 3879" cx="8.677" cy="8.677" r="8.677" transform="translate(0.475 2.544) rotate(-6.845)" fill="#f6c343"/>
            <path id="Trazado_96244" data-name="Trazado 96244" d="M1780.2,1101.142a.338.338,0,0,1-.3-.49,8.312,8.312,0,0,1,7.456-4.591,8.413,8.413,0,0,1,1.506.135.338.338,0,0,1-.121.664,7.685,7.685,0,0,0-8.238,4.1A.338.338,0,0,1,1780.2,1101.142Z" transform="translate(-1777.234 -1094.284)" fill="#fff" opacity="0.61"/>
            <circle id="Elipse_3880" data-name="Elipse 3880" cx="7.344" cy="7.344" r="7.344" transform="translate(1.734 4.461) rotate(-10.699)" fill="#fff" opacity="0.61"/>
            <g id="Grupo_46175" data-name="Grupo 46175" transform="translate(7.079 5.116)">
              <path id="Trazado_96245" data-name="Trazado 96245" d="M1807.494,1125.573v-.8a6.52,6.52,0,0,1-2.242-.486.463.463,0,0,1-.256-.546l.2-.744a.466.466,0,0,1,.632-.3,5.411,5.411,0,0,0,2.07.436c.8,0,1.4-.272,1.4-.83,0-.5-.462-.8-1.577-1.1-1.591-.435-2.733-1.128-2.733-2.529,0-1.265.924-2.23,2.529-2.489v-.8a.466.466,0,0,1,.465-.465h.469a.466.466,0,0,1,.466.465v.717a5.953,5.953,0,0,1,1.777.319.464.464,0,0,1,.29.56l-.187.688a.464.464,0,0,1-.613.313,4.856,4.856,0,0,0-1.743-.316c-.952,0-1.224.394-1.224.748,0,.435.571.734,1.808,1.115,1.768.53,2.5,1.265,2.5,2.583,0,1.21-.9,2.3-2.638,2.57v.894a.466.466,0,0,1-.466.465h-.469A.466.466,0,0,1,1807.494,1125.573Z" transform="translate(-1804.98 -1114.916)" fill="#f6c343"/>
            </g>
          </g>
          <path id="Trazado_96246" data-name="Trazado 96246" d="M1790.393,836.5a.691.691,0,0,1-.639-.427c-1.184-2.866.17-5.961,1.514-8.051.41-.637.856-1.262,1.287-1.866a17.166,17.166,0,0,0,2.666-4.683,8.4,8.4,0,0,0-1.607-7.823,5.343,5.343,0,0,0-5.63-.841c-1.8.947-4.349,4.271-1.25,15.891a.691.691,0,0,1-1.334.356c-3.177-11.917-.7-16.077,1.941-17.469a6.614,6.614,0,0,1,7.322,1.163,9.8,9.8,0,0,1,1.877,9.137,18.448,18.448,0,0,1-2.86,5.071c-.421.591-.857,1.2-1.249,1.811-.955,1.485-2.406,4.34-1.4,6.777a.691.691,0,0,1-.638.954Z" transform="translate(-1776.333 -810.956)" fill="#00223d"/>
        </g>
      </g>
      <g id="Grupo_46186" data-name="Grupo 46186" transform="translate(406.018 352)">
        <path id="Trazado_96247" data-name="Trazado 96247" d="M945,1485.612s-.442,2.5-.659,4.978a1.706,1.706,0,0,0,1.632,1.848c3.3.137,10.351.4,12.882.292a.555.555,0,0,0,.489-.76h0a1.245,1.245,0,0,0-.635-.67l-11.651-5.354Z" transform="translate(-916.846 -1365.73)" fill="#00223d"/>
        <path id="Trazado_96248" data-name="Trazado 96248" d="M946.042,1475.165l.355,2.992s2.041.95,3.435-.119l-.845-3.334Z" transform="translate(-918.254 -1356.753)" fill="url(#linear-gradient-5)"/>
        <path id="Trazado_96249" data-name="Trazado 96249" d="M904.548,1159.646c-.153.781-.823,38.991,3.261,56.114a.581.581,0,0,1-.341.676,10.123,10.123,0,0,1-3.326.676,1,1,0,0,1-.993-.719c-1.168-3.973-6.762-23.878-7.492-42.892-.816-21.247,0-.723,0-.723l.478-13.134Z" transform="translate(-876.493 -1097.484)" fill="#5b7393"/>
        <path id="Trazado_96250" data-name="Trazado 96250" d="M865.868,1492.981a18,18,0,0,0-1.384,4.618,1.041,1.041,0,0,0,.916,1.247c1.089.107,2.765.245,4.108.236a1.038,1.038,0,0,0,1.027-1.157,8.755,8.755,0,0,0-2.043-4.8Z" transform="translate(-851.121 -1371.794)" fill="#00223d"/>
        <path id="Trazado_96251" data-name="Trazado 96251" d="M868.912,1470.432l.829,4.525a2.926,2.926,0,0,0,2.443.168l-.4-4.868Z" transform="translate(-854.783 -1353.093)" fill="url(#linear-gradient-5)"/>
        <path id="Trazado_96252" data-name="Trazado 96252" d="M850.281,1156.447c-3.34,20.16.725,49.826,2.1,55.633a.905.905,0,0,0,.731.688,6.077,6.077,0,0,0,2.613-.1.83.83,0,0,0,.6-.764c.184-4.694-.147-33.513,2.965-44.9a2.588,2.588,0,0,1,1-1.427l6.041-4.295.463-6.942Z" transform="translate(-838.393 -1093.113)" fill="#5b7393"/>
        <g id="Grupo_46179" data-name="Grupo 46179" transform="translate(10.641 9.632)">
          <path id="Trazado_96253" data-name="Trazado 96253" d="M871.746,942.953c-10.011-.165-21.056,2.628-21.056,2.628-2.984,17.411-.522,37.494-.522,37.494,7.75,2.032,16.492-1.243,16.492-1.243,1.288-7.278,7.3-27.759,7.3-27.759a32.976,32.976,0,0,0,12.239-3.884,21.462,21.462,0,0,1-4.242-8.874A33.59,33.59,0,0,1,871.746,942.953Z" transform="translate(-849.213 -927.45)" fill="#00223d"/>
          <path id="Trazado_96254" data-name="Trazado 96254" d="M1053.47,863.764a1.915,1.915,0,0,0-2.228-.626c-1.473,6.223-9.2,11.268-17.133,13.735a21.467,21.467,0,0,0,4.243,8.873C1051.521,878.341,1053.47,863.764,1053.47,863.764Z" transform="translate(-1001.368 -863.005)" fill="url(#linear-gradient-5)"/>
        </g>
        <g id="Grupo_46180" data-name="Grupo 46180" transform="translate(60.515)">
          <path id="Trazado_96255" data-name="Trazado 96255" d="M1132.853,819.3c.1.327-1.089.825-1.79-.513-.024-.641-.414-3.388-.031-3.911a51.193,51.193,0,0,1,6-6.269.942.942,0,0,1,.118,1.308l-1.919,2a9.3,9.3,0,0,1,1.121,2.215,2.689,2.689,0,0,1-.268,1.979c-.337.607-.8,1.4-1.231,2.013A2.655,2.655,0,0,1,1132.853,819.3Z" transform="translate(-1130.864 -808.611)" fill="url(#linear-gradient-8)"/>
          <path id="Trazado_96256" data-name="Trazado 96256" d="M1140.083,834.614l-1.749,1.483-.549,1.476,1.559,1.73a20.121,20.121,0,0,1,.914-3.563C1140.648,835.106,1140.446,834.8,1140.083,834.614Z" transform="translate(-1136.56 -830.01)" fill="url(#linear-gradient-9)"/>
        </g>
        <path id="Trazado_96257" data-name="Trazado 96257" d="M810.791,975.094l-3.84-9.693s-9.351,6.353-10.888,14.408a21.271,21.271,0,0,1,7.875,2.208C805.359,978.822,810.791,975.094,810.791,975.094Z" transform="translate(-794.834 -937.637)" fill="#00223d"/>
        <path id="Trazado_96258" data-name="Trazado 96258" d="M904.309,904.663l-3.185,9.211a.332.332,0,0,0,.151.4,7.487,7.487,0,0,0,7.766-.522,1.562,1.562,0,0,0,.72-1.116l1.031-7.972Z" transform="translate(-881.275 -887.654)" fill="url(#linear-gradient-10)"/>
        <g id="Grupo_46181" data-name="Grupo 46181" transform="translate(16.989 3.691)">
          <path id="Trazado_96259" data-name="Trazado 96259" d="M920.394,856.492s3.5,6.584,3.049,9.244-4.783,2.469-8.569.308l-2.645-7.109Z" transform="translate(-907.418 -851.705)" fill="url(#linear-gradient-11)"/>
          <path id="Trazado_96260" data-name="Trazado 96260" d="M892.682,840.305a.271.271,0,0,0,.118-.4,7.085,7.085,0,0,1-.973-2.066s-.629-.4,1.6-.936,5.553-1.362,6.252-3.259c.681-1.85-1.109-6.5-3.964-2.8a.271.271,0,0,1-.43,0,2.8,2.8,0,0,0-3.408-1.107,2.566,2.566,0,0,0-1.757,2.48.27.27,0,0,1-.32.276,3.129,3.129,0,0,0-3.654,1.7c-.746,1.639-.261,2.567.18,3.021a.27.27,0,0,1-.116.449,1.628,1.628,0,0,0-1.149,1.858c.095,1.721,2.019,1.569,2.567,1.491a.272.272,0,0,1,.241.085c.47.52,2.586,2.727,4.876,2.993a.274.274,0,0,0,.287-.362l-.991-2.881a.273.273,0,0,1,.148-.338Z" transform="translate(-885.058 -829.457)" fill="#00223d"/>
          <path id="Trazado_96261" data-name="Trazado 96261" d="M917.9,889.1s-2.49-1.709-2.672-.27,2.243,2.084,3.444,1.548Z" transform="translate(-909.876 -877.839)" fill="url(#linear-gradient-12)"/>
        </g>
        <g id="Grupo_46185" data-name="Grupo 46185" transform="translate(12.3 59.293)">
          <path id="Trazado_96262" data-name="Trazado 96262" d="M1016.306,1233.029a.7.7,0,0,1-.685-.57l-4.54-24.362a.7.7,0,1,1,1.371-.255l4.54,24.362a.7.7,0,0,1-.687.825Z" transform="translate(-984.067 -1195.97)" fill="url(#linear-gradient-13)"/>
          <path id="Trazado_96263" data-name="Trazado 96263" d="M1005.452,1230.624H968.14a1.395,1.395,0,1,1,0-2.79h36.4l9.429-21.794H960.12a1.395,1.395,0,0,1,0-2.79h55.968a1.395,1.395,0,0,1,1.28,1.949l-10.635,24.584A1.4,1.4,0,0,1,1005.452,1230.624Z" transform="translate(-940.992 -1192.661)" fill="url(#linear-gradient-13)"/>
          <g id="Grupo_46182" data-name="Grupo 46182">
            <path id="Trazado_96264" data-name="Trazado 96264" d="M920.568,1205.811h-29.4a1.452,1.452,0,0,1-1.391-1.038l-17.51-58.42h-12.23a1.452,1.452,0,1,1,0-2.9h13.313a1.452,1.452,0,0,1,1.391,1.037l17.51,58.42h28.319a1.452,1.452,0,1,1,0,2.9Z" transform="translate(-858.583 -1143.45)" fill="url(#linear-gradient-13)"/>
          </g>
          <g id="Grupo_46183" data-name="Grupo 46183" transform="translate(28.278 60.172)">
            <circle id="Elipse_3881" data-name="Elipse 3881" cx="3.63" cy="3.63" r="3.63" transform="translate(0 7.065) rotate(-76.718)" fill="#00223d"/>
            <circle id="Elipse_3882" data-name="Elipse 3882" cx="2.621" cy="2.621" r="2.621" transform="translate(1.644 1.745)" fill="url(#linear-gradient-13)"/>
          </g>
          <g id="Grupo_46184" data-name="Grupo 46184" transform="translate(55.945 60.375)">
            <circle id="Elipse_3883" data-name="Elipse 3883" cx="3.63" cy="3.63" r="3.63" transform="translate(0 7.166) rotate(-80.783)" fill="#00223d"/>
            <circle id="Elipse_3884" data-name="Elipse 3884" cx="2.621" cy="2.621" r="2.621" transform="translate(1.442 1.543)" fill="url(#linear-gradient-13)"/>
          </g>
          <path id="Trazado_96265" data-name="Trazado 96265" d="M1070.181,1234.691a.7.7,0,0,1-.7-.684l-.483-24.139a.7.7,0,0,1,.683-.711.688.688,0,0,1,.711.683l.483,24.139a.7.7,0,0,1-.683.711Z" transform="translate(-1031.741 -1197.522)" fill="url(#linear-gradient-13)"/>
          <path id="Trazado_96266" data-name="Trazado 96266" d="M1112.449,1234.573a.7.7,0,0,1-.7-.7v-24.03a.7.7,0,0,1,1.395,0v24.03A.7.7,0,0,1,1112.449,1234.573Z" transform="translate(-1066.921 -1197.515)" fill="url(#linear-gradient-13)"/>
          <path id="Trazado_96267" data-name="Trazado 96267" d="M1159.35,1234.471h0a.7.7,0,0,1-.693-.7l.165-23.917a.7.7,0,0,1,.7-.693h.005a.7.7,0,0,1,.693.7l-.165,23.917A.7.7,0,0,1,1159.35,1234.471Z" transform="translate(-1105.517 -1197.524)" fill="url(#linear-gradient-13)"/>
          <path id="Trazado_96268" data-name="Trazado 96268" d="M1189.822,1235.887a.7.7,0,0,1-.685-.83l4.533-23.363a.7.7,0,1,1,1.37.266l-4.533,23.364A.7.7,0,0,1,1189.822,1235.887Z" transform="translate(-1130.592 -1199.144)" fill="url(#linear-gradient-13)"/>
          <path id="Trazado_96269" data-name="Trazado 96269" d="M1025.739,1242.437H974.247a.7.7,0,0,1,0-1.395h51.492a.7.7,0,1,1,0,1.395Z" transform="translate(-953.192 -1223.761)" fill="url(#linear-gradient-13)"/>
          <path id="Trazado_96270" data-name="Trazado 96270" d="M1033.445,1282.459H987.379a.7.7,0,1,1,0-1.395h46.066a.7.7,0,1,1,0,1.395Z" transform="translate(-963.998 -1256.696)" fill="url(#linear-gradient-13)"/>
          <path id="Trazado_96271" data-name="Trazado 96271" d="M1038.578,1319.355H997.385a.7.7,0,1,1,0-1.395h41.194a.7.7,0,1,1,0,1.395Z" transform="translate(-972.232 -1287.058)" fill="url(#linear-gradient-13)"/>
        </g>
        <path id="Trazado_96272" data-name="Trazado 96272" d="M790.414,1045.059s-6.391,14.557,9.231,16.687l2.13-1.775s-7.811-4.261-3.551-12.782C798.224,1047.189,793.609,1043.283,790.414,1045.059Z" transform="translate(-789.12 -1002.808)" fill="url(#linear-gradient-25)"/>
        <path id="Trazado_96273" data-name="Trazado 96273" d="M850.688,1131.42h5.681s3.55,4.615,3.2,5.68-3.864.219-3.864.219l-1.817-3.059s-5.326.355-5.326-1.065S850.688,1131.42,850.688,1131.42Z" transform="translate(-838.033 -1074.258)" fill="url(#linear-gradient-26)"/>
      </g>
      <g id="Grupo_46187" data-name="Grupo 46187" transform="translate(510.312 418.338)">
        <path id="Trazado_96274" data-name="Trazado 96274" d="M1479.238,1202.947a1.045,1.045,0,0,1-1.044-1.013c-.02-.663-.38-16.258,10.382-17.924a7.378,7.378,0,0,1,6.059,1.617c5.312,4.378,5.812,15.753,5.83,16.235a1.045,1.045,0,0,1-2.088.081c0-.109-.482-10.924-5.073-14.7a5.3,5.3,0,0,0-4.408-1.162c-8.956,1.386-8.617,15.65-8.613,15.794a1.045,1.045,0,0,1-1.012,1.077Z" transform="translate(-1460.463 -1183.787)" fill="#00223d"/>
        <path id="Trazado_96275" data-name="Trazado 96275" d="M1378.114,1307.18l7.648-43.629,28.731-.475,9.26,46.985H1380.6A2.515,2.515,0,0,1,1378.114,1307.18Z" transform="translate(-1378.086 -1248.938)" fill="#5b7393"/>
        <path id="Trazado_96276" data-name="Trazado 96276" d="M1589.261,1263.551l-5.58-.475,9.26,46.985h5.54a1.771,1.771,0,0,0,1.734-2.132Z" transform="translate(-1547.275 -1248.938)" fill="#344a67"/>
        <path id="Trazado_96277" data-name="Trazado 96277" d="M1444.374,1202.276a1.045,1.045,0,0,1-1.044-1.013c-.02-.663-.38-16.258,10.383-17.924a7.377,7.377,0,0,1,6.059,1.616c5.312,4.378,5.812,15.753,5.831,16.235a1.045,1.045,0,0,1-2.089.081c0-.108-.482-10.924-5.073-14.7a5.3,5.3,0,0,0-4.408-1.162c-8.956,1.386-8.618,15.65-8.613,15.794a1.045,1.045,0,0,1-1.012,1.077Z" transform="translate(-1431.772 -1183.234)" fill="#00223d"/>
      </g>
      <g id="Grupo_46188" data-name="Grupo 46188" transform="translate(547.331 437.174)">
        <path id="Trazado_96278" data-name="Trazado 96278" d="M1676.693,1305.745a.453.453,0,0,1-.453-.439,25.559,25.559,0,0,1,.889-6.924c1.328-4.733,3.992-7.539,7.706-8.114a5.945,5.945,0,0,1,4.883,1.3c4.439,3.658,4.862,13.3,4.877,13.706a.453.453,0,1,1-.9.035c0-.1-.423-9.643-4.549-13.042a5.075,5.075,0,0,0-4.167-1.1c-8.133,1.259-7.832,13.986-7.828,14.114a.453.453,0,0,1-.439.467Z" transform="translate(-1660.46 -1290.081)" fill="#00223d"/>
        <path id="Trazado_96279" data-name="Trazado 96279" d="M1587.165,1383.976l6.613-27.481,24.84-.411,8.006,30.383h-37.308A2.174,2.174,0,0,1,1587.165,1383.976Z" transform="translate(-1587.141 -1344.312)" fill="#7dc4be"/>
        <path id="Trazado_96280" data-name="Trazado 96280" d="M1769.719,1356.495l-4.824-.411,8.006,30.383h4.79a1.531,1.531,0,0,0,1.5-1.843Z" transform="translate(-1733.419 -1344.312)" fill="#3c918a"/>
        <path id="Trazado_96281" data-name="Trazado 96281" d="M1646.55,1305.166a.454.454,0,0,1-.453-.439,25.615,25.615,0,0,1,.889-6.924c1.328-4.733,3.992-7.539,7.706-8.113a5.944,5.944,0,0,1,4.883,1.3c4.439,3.658,4.862,13.3,4.877,13.706a.453.453,0,1,1-.9.035c0-.1-.423-9.643-4.549-13.042a5.072,5.072,0,0,0-4.167-1.1c-8.132,1.258-7.832,13.985-7.828,14.114a.453.453,0,0,1-.439.467Z" transform="translate(-1635.654 -1289.605)" fill="#00223d"/>
      </g>
      <g id="Grupo_46189" data-name="Grupo 46189" transform="translate(477.816 253.746)">
        <path id="Trazado_96282" data-name="Trazado 96282" d="M1372.4,1292.921l-1-.179a.173.173,0,1,1,.061-.341h.007l.991.186h.005a.169.169,0,0,1-.061.332Z" transform="translate(-1339.969 -1108.475)" fill="url(#linear-gradient-27)"/>
        <path id="Trazado_96283" data-name="Trazado 96283" d="M1353.813,1288.279l-.979-.281a.188.188,0,1,1,.1-.361h.007l.965.286.006,0a.183.183,0,0,1-.1.352Z" transform="translate(-1324.699 -1104.551)" fill="url(#linear-gradient-28)"/>
        <path id="Trazado_96284" data-name="Trazado 96284" d="M1335.782,1281.8l-.946-.377a.2.2,0,1,1,.15-.376h0l.006,0,.932.381.005,0a.2.2,0,0,1-.148.367Z" transform="translate(-1309.894 -1099.118)" fill="url(#linear-gradient-28)"/>
        <path id="Trazado_96285" data-name="Trazado 96285" d="M1318.457,1273.6l-.906-.466a.217.217,0,0,1,.2-.386h0l.006,0,.891.468.005,0a.213.213,0,0,1-.2.377Z" transform="translate(-1295.679 -1092.285)" fill="url(#linear-gradient-28)"/>
        <path id="Trazado_96286" data-name="Trazado 96286" d="M1301.962,1263.835l-.86-.546a.232.232,0,0,1,.249-.391h0l.005,0,.844.547.005,0a.227.227,0,0,1-.245.383Z" transform="translate(-1282.151 -1084.169)" fill="url(#linear-gradient-28)"/>
        <path id="Trazado_96287" data-name="Trazado 96287" d="M1286.393,1252.646l-.809-.62a.246.246,0,1,1,.3-.391h0l0,0,.794.619,0,0a.242.242,0,0,1-.3.383Z" transform="translate(-1269.39 -1074.889)" fill="url(#linear-gradient-28)"/>
        <path id="Trazado_96288" data-name="Trazado 96288" d="M1271.831,1240.171l-.754-.685a.261.261,0,1,1,.351-.386l0,0,0,0,.739.683,0,0a.256.256,0,0,1-.347.378Z" transform="translate(-1257.46 -1064.559)" fill="url(#linear-gradient-28)"/>
        <path id="Trazado_96289" data-name="Trazado 96289" d="M1258.34,1226.543l-.7-.745a.276.276,0,1,1,.4-.376l0,0,0,.005.68.741,0,0a.271.271,0,0,1-.4.368Z" transform="translate(-1246.416 -1053.287)" fill="url(#linear-gradient-28)"/>
        <path id="Trazado_96290" data-name="Trazado 96290" d="M1245.981,1211.881l-.634-.8a.29.29,0,1,1,.454-.361l0,0,0,.005.619.792,0,.005a.286.286,0,0,1-.449.354Z" transform="translate(-1236.306 -1041.172)" fill="url(#linear-gradient-28)"/>
        <path id="Trazado_96291" data-name="Trazado 96291" d="M1234.8,1196.286l-.571-.846a.305.305,0,0,1,.506-.341v0l0,.006.555.84,0,.006a.3.3,0,0,1-.5.333Z" transform="translate(-1227.169 -1028.295)" fill="url(#linear-gradient-28)"/>
        <path id="Trazado_96292" data-name="Trazado 96292" d="M1224.881,1179.875l-.5-.888a.32.32,0,0,1,.557-.315v0l0,.007.488.879,0,.007a.315.315,0,0,1-.55.308Z" transform="translate(-1219.068 -1014.754)" fill="url(#linear-gradient-28)"/>
        <path id="Trazado_96293" data-name="Trazado 96293" d="M1216.269,1162.741l-.431-.925a.334.334,0,0,1,.606-.282v0l0,.007.416.915,0,.007a.33.33,0,0,1-.6.276Z" transform="translate(-1212.047 -1000.625)" fill="url(#linear-gradient-28)"/>
        <path id="Trazado_96294" data-name="Trazado 96294" d="M1209.047,1144.986l-.355-.959a.347.347,0,1,1,.651-.24v0l0,.008.344.945,0,.008a.344.344,0,0,1-.646.237Z" transform="translate(-1206.175 -985.993)" fill="url(#linear-gradient-28)"/>
        <path id="Trazado_96295" data-name="Trazado 96295" d="M1203.311,1126.72l-.275-.984a.355.355,0,0,1,.684-.191v0l0,.009.265.969,0,.008a.352.352,0,0,1-.679.188Z" transform="translate(-1201.528 -970.955)" fill="url(#linear-gradient-40)"/>
        <path id="Trazado_96296" data-name="Trazado 96296" d="M1199.08,1108.068l-.2-1a.363.363,0,1,1,.713-.139v.01l.188.987v.008a.361.361,0,0,1-.708.136Z" transform="translate(-1198.116 -955.605)" fill="url(#linear-gradient-41)"/>
        <path id="Trazado_96297" data-name="Trazado 96297" d="M1196.254,1089.148l-.121-1.013a.372.372,0,1,1,.738-.089v.01l.115,1v.008a.369.369,0,0,1-.733.086Z" transform="translate(-1195.855 -940.041)" fill="url(#linear-gradient-28)"/>
        <path id="Trazado_96298" data-name="Trazado 96298" d="M1194.8,1070.078l-.049-1.019a.38.38,0,1,1,.758-.036v.01l.043,1v.008a.377.377,0,0,1-.754.034Z" transform="translate(-1194.721 -924.357)" fill="url(#linear-gradient-28)"/>
        <path id="Trazado_96299" data-name="Trazado 96299" d="M1194.578,1050.956l.022-1.02a.388.388,0,1,1,.776.017h0v.008l-.026,1v.008a.386.386,0,0,1-.771-.018Z" transform="translate(-1194.578 -908.635)" fill="url(#linear-gradient-41)"/>
        <path id="Trazado_96300" data-name="Trazado 96300" d="M1195.424,1031.87l.089-1.017a.4.4,0,1,1,.789.069v.009l-.092,1v.008a.394.394,0,0,1-.784-.07Z" transform="translate(-1195.273 -892.947)" fill="url(#linear-gradient-45)"/>
        <path id="Trazado_96301" data-name="Trazado 96301" d="M1197.511,1012.9l.153-1.009a.4.4,0,1,1,.8.121v.009l-.156.993v.007a.4.4,0,0,1-.794-.123Z" transform="translate(-1196.988 -877.359)" fill="url(#linear-gradient-28)"/>
        <path id="Trazado_96302" data-name="Trazado 96302" d="M1200.785,994.12l.215-1a.413.413,0,1,1,.807.174v0l0,.007-.217.982,0,.007a.41.41,0,0,1-.8-.175Z" transform="translate(-1199.678 -861.927)" fill="url(#linear-gradient-28)"/>
        <path id="Trazado_96303" data-name="Trazado 96303" d="M1205.19,975.589l.273-.983a.421.421,0,1,1,.811.226v0l0,.007-.274.967,0,.007a.418.418,0,0,1-.806-.226Z" transform="translate(-1203.298 -846.704)" fill="url(#linear-gradient-28)"/>
        <path id="Trazado_96304" data-name="Trazado 96304" d="M1210.672,957.364l.329-.965a.429.429,0,0,1,.813.277v0l0,.007-.329.95,0,.007a.427.427,0,0,1-.807-.277Z" transform="translate(-1207.803 -831.736)" fill="url(#linear-gradient-49)"/>
        <path id="Trazado_96305" data-name="Trazado 96305" d="M1217.188,939.483l.383-.946a.437.437,0,0,1,.811.328v0l0,.007-.382.931,0,.007a.435.435,0,0,1-.805-.328Z" transform="translate(-1213.157 -817.05)" fill="url(#linear-gradient-28)"/>
        <path id="Trazado_96306" data-name="Trazado 96306" d="M1224.687,922.014l.434-.923a.446.446,0,0,1,.807.379v0l0,.007-.432.908,0,.007a.443.443,0,0,1-.8-.379Z" transform="translate(-1219.32 -802.708)" fill="url(#linear-gradient-28)"/>
        <path id="Trazado_96307" data-name="Trazado 96307" d="M1233.13,904.994l.483-.9a.454.454,0,1,1,.8.43v0l0,.006-.481.883,0,.006a.451.451,0,0,1-.794-.43Z" transform="translate(-1226.259 -788.736)" fill="url(#linear-gradient-28)"/>
        <path id="Trazado_96308" data-name="Trazado 96308" d="M1242.483,888.462l.531-.872a.462.462,0,1,1,.789.481v0l0,.006-.528.857,0,.006a.46.46,0,0,1-.784-.48Z" transform="translate(-1233.944 -775.168)" fill="url(#linear-gradient-28)"/>
        <path id="Trazado_96309" data-name="Trazado 96309" d="M1252.733,872.493l.578-.84a.467.467,0,1,1,.769.529h0l0,.006-.571.827,0,.006a.466.466,0,0,1-.767-.529Z" transform="translate(-1242.367 -762.069)" fill="url(#linear-gradient-28)"/>
        <path id="Trazado_96310" data-name="Trazado 96310" d="M1263.82,857.092l.618-.811a.469.469,0,1,1,.746.57h0l0,.005-.612.8,0,.005a.469.469,0,0,1-.745-.569Z" transform="translate(-1251.479 -749.434)" fill="url(#linear-gradient-28)"/>
        <path id="Trazado_96311" data-name="Trazado 96311" d="M1275.643,842.249l.656-.78a.472.472,0,0,1,.723.608h0l0,0-.649.769,0,.005a.471.471,0,0,1-.721-.607Z" transform="translate(-1261.197 -737.258)" fill="url(#linear-gradient-28)"/>
        <path id="Trazado_96312" data-name="Trazado 96312" d="M1288.149,827.975l.69-.75a.475.475,0,1,1,.7.643h0l0,0-.683.739,0,0a.474.474,0,0,1-.7-.643Z" transform="translate(-1271.476 -725.549)" fill="url(#linear-gradient-28)"/>
        <path id="Trazado_96313" data-name="Trazado 96313" d="M1301.282,814.274l.722-.719a.478.478,0,1,1,.674.677h0l0,0-.714.709,0,0a.477.477,0,0,1-.672-.676Z" transform="translate(-1282.272 -714.311)" fill="url(#linear-gradient-28)"/>
        <path id="Trazado_96314" data-name="Trazado 96314" d="M1314.993,801.144l.75-.688a.48.48,0,1,1,.649.708h0l0,0-.743.679,0,0a.479.479,0,0,1-.647-.707Z" transform="translate(-1293.542 -703.541)" fill="url(#linear-gradient-28)"/>
        <path id="Trazado_96315" data-name="Trazado 96315" d="M1329.229,788.58l.777-.658a.483.483,0,0,1,.625.737h0l0,0-.769.65,0,0a.482.482,0,0,1-.623-.736Z" transform="translate(-1305.244 -693.237)" fill="url(#linear-gradient-28)"/>
        <path id="Trazado_96316" data-name="Trazado 96316" d="M1343.942,776.573l.8-.629a.486.486,0,0,1,.6.764h0l0,0-.794.621,0,0a.485.485,0,0,1-.6-.763Z" transform="translate(-1317.341 -683.389)" fill="url(#linear-gradient-28)"/>
        <path id="Trazado_96317" data-name="Trazado 96317" d="M1359.091,765.113l.822-.6a.489.489,0,1,1,.575.79h0l0,0-.814.592,0,0a.488.488,0,0,1-.574-.789Z" transform="translate(-1329.794 -673.991)" fill="url(#linear-gradient-28)"/>
        <path id="Trazado_96318" data-name="Trazado 96318" d="M1374.626,754.185l.842-.572a.491.491,0,1,1,.552.813h0l0,0-.835.565,0,0a.49.49,0,0,1-.55-.812Z" transform="translate(-1342.566 -665.028)" fill="url(#linear-gradient-28)"/>
        <path id="Trazado_96319" data-name="Trazado 96319" d="M1390.531,743.765l.86-.545a.494.494,0,0,1,.529.835h0l0,0-.853.538,0,0a.493.493,0,0,1-.527-.834Z" transform="translate(-1355.643 -656.482)" fill="url(#linear-gradient-28)"/>
        <path id="Trazado_96320" data-name="Trazado 96320" d="M1406.756,733.849l.877-.519a.5.5,0,1,1,.506.855h0l0,0-.87.513,0,0a.5.5,0,0,1-.5-.854Z" transform="translate(-1368.983 -648.35)" fill="url(#linear-gradient-28)"/>
        <path id="Trazado_96321" data-name="Trazado 96321" d="M1423.274,724.419l.891-.493a.5.5,0,0,1,.483.874h0l0,0-.885.487,0,0a.5.5,0,0,1-.482-.873Z" transform="translate(-1382.565 -640.616)" fill="url(#linear-gradient-28)"/>
        <path id="Trazado_96322" data-name="Trazado 96322" d="M1440.057,715.462l.9-.468a.5.5,0,1,1,.461.892h0l0,0-.9.462,0,0a.5.5,0,0,1-.46-.891Z" transform="translate(-1396.365 -633.271)" fill="url(#linear-gradient-28)"/>
        <path id="Trazado_96323" data-name="Trazado 96323" d="M1457.074,706.959l.914-.444a.5.5,0,0,1,.441.908h0l-.908.439,0,0a.5.5,0,0,1-.439-.907Z" transform="translate(-1410.358 -626.298)" fill="url(#linear-gradient-28)"/>
        <path id="Trazado_96324" data-name="Trazado 96324" d="M1474.294,698.876l.923-.422a.508.508,0,1,1,.422.923h0l-.918.417h0a.507.507,0,0,1-.42-.922Z" transform="translate(-1424.518 -619.668)" fill="url(#linear-gradient-28)"/>
        <path id="Trazado_96325" data-name="Trazado 96325" d="M1491.69,691.181l.932-.4a.51.51,0,0,1,.4.937h0l-.926.4h0a.509.509,0,0,1-.4-.936Z" transform="translate(-1438.825 -613.356)" fill="url(#linear-gradient-28)"/>
        <path id="Trazado_96326" data-name="Trazado 96326" d="M1509.243,683.844l.94-.383a.513.513,0,0,1,.387.95h0l-.936.38h0a.512.512,0,0,1-.386-.949Z" transform="translate(-1453.26 -607.336)" fill="url(#linear-gradient-28)"/>
        <path id="Trazado_96327" data-name="Trazado 96327" d="M1526.943,676.841l.946-.366a.516.516,0,1,1,.372.962h0l-.941.362h0a.515.515,0,0,1-.371-.961Z" transform="translate(-1467.818 -601.59)" fill="url(#linear-gradient-28)"/>
        <path id="Trazado_96328" data-name="Trazado 96328" d="M1544.755,670.139l.951-.35a.518.518,0,1,1,.358.973h0l-.947.347h0a.518.518,0,0,1-.357-.972Z" transform="translate(-1482.467 -596.09)" fill="url(#linear-gradient-28)"/>
        <path id="Trazado_96329" data-name="Trazado 96329" d="M1562.672,663.722l.957-.335a.519.519,0,1,1,.343.979h0l-.953.335h0a.519.519,0,0,1-.345-.98Z" transform="translate(-1497.205 -590.824)" fill="url(#linear-gradient-28)"/>
        <path id="Trazado_96330" data-name="Trazado 96330" d="M1580.693,657.559l.961-.323a.516.516,0,0,1,.329.979h0l-.958.323h0a.517.517,0,0,1-.331-.98Z" transform="translate(-1512.031 -585.765)" fill="url(#linear-gradient-28)"/>
        <path id="Trazado_96331" data-name="Trazado 96331" d="M1598.794,651.6l.965-.313a.514.514,0,1,1,.316.978l-.961.313a.515.515,0,1,1-.322-.977Z" transform="translate(-1526.923 -580.873)" fill="url(#linear-gradient-28)"/>
        <path id="Trazado_96332" data-name="Trazado 96332" d="M1616.959,645.82l.968-.3a.512.512,0,1,1,.306.976l-.965.3a.512.512,0,0,1-.311-.976Z" transform="translate(-1541.87 -576.122)" fill="url(#linear-gradient-28)"/>
        <path id="Trazado_96333" data-name="Trazado 96333" d="M1635.177,640.181l.97-.3a.509.509,0,0,1,.3.974l-.967.3a.51.51,0,1,1-.3-.974Z" transform="translate(-1556.859 -571.489)" fill="url(#linear-gradient-28)"/>
        <path id="Trazado_96334" data-name="Trazado 96334" d="M1653.433,634.654l.971-.292a.507.507,0,0,1,.292.971l-.969.293a.508.508,0,1,1-.295-.971Z" transform="translate(-1571.882 -566.945)" fill="url(#linear-gradient-28)"/>
        <path id="Trazado_96335" data-name="Trazado 96335" d="M1671.714,629.207l.971-.288a.5.5,0,1,1,.287.967l-.97.289a.505.505,0,1,1-.289-.968Z" transform="translate(-1586.926 -562.466)" fill="url(#linear-gradient-28)"/>
        <path id="Trazado_96336" data-name="Trazado 96336" d="M1690.007,623.809l.971-.286a.5.5,0,0,1,.284.963l-.971.287a.5.5,0,1,1-.286-.964Z" transform="translate(-1601.98 -558.026)" fill="url(#linear-gradient-28)"/>
        <path id="Trazado_96337" data-name="Trazado 96337" d="M1708.3,618.424l.972-.286a.5.5,0,0,1,.283.959l-.972.288a.5.5,0,0,1-.284-.96Z" transform="translate(-1617.039 -553.595)" fill="url(#linear-gradient-28)"/>
        <path id="Trazado_96338" data-name="Trazado 96338" d="M1726.6,613.02l.972-.288a.5.5,0,1,1,.284.954l-.972.29a.5.5,0,0,1-.285-.955Z" transform="translate(-1632.095 -549.146)" fill="url(#linear-gradient-28)"/>
        <path id="Trazado_96339" data-name="Trazado 96339" d="M1744.88,607.564l.971-.291a.5.5,0,1,1,.286.948l-.971.293a.5.5,0,0,1-.287-.949Z" transform="translate(-1647.142 -544.653)" fill="url(#linear-gradient-28)"/>
        <path id="Trazado_96340" data-name="Trazado 96340" d="M1763.14,602.022l.969-.3a.493.493,0,1,1,.29.942l-.97.3a.494.494,0,1,1-.291-.943Z" transform="translate(-1662.172 -540.088)" fill="url(#linear-gradient-28)"/>
        <path id="Trazado_96341" data-name="Trazado 96341" d="M1781.366,596.366l.966-.3a.491.491,0,1,1,.3.935l-.968.305a.491.491,0,0,1-.3-.937Z" transform="translate(-1677.175 -535.426)" fill="url(#linear-gradient-28)"/>
        <path id="Trazado_96342" data-name="Trazado 96342" d="M1799.547,590.56l.963-.312a.488.488,0,1,1,.3.928l-.965.314a.489.489,0,1,1-.3-.93Z" transform="translate(-1692.141 -530.641)" fill="url(#linear-gradient-28)"/>
        <path id="Trazado_96343" data-name="Trazado 96343" d="M1817.671,584.574l.959-.322h0a.486.486,0,0,1,.31.921l-.962.324a.486.486,0,1,1-.311-.922Z" transform="translate(-1707.06 -525.705)" fill="url(#linear-gradient-28)"/>
        <path id="Trazado_96344" data-name="Trazado 96344" d="M1835.722,578.375l.955-.334h0a.484.484,0,0,1,.32.913l-.958.336a.484.484,0,1,1-.321-.914h0Z" transform="translate(-1721.921 -520.593)" fill="url(#linear-gradient-28)"/>
        <path id="Trazado_96345" data-name="Trazado 96345" d="M1853.695,571.932l.949-.347h0a.481.481,0,0,1,.331.9l-.953.35a.482.482,0,1,1-.332-.9h0Z" transform="translate(-1736.718 -515.278)" fill="url(#linear-gradient-28)"/>
        <path id="Trazado_96346" data-name="Trazado 96346" d="M1871.564,565.216l.943-.362h0a.479.479,0,0,1,.344.894l-.947.365a.479.479,0,0,1-.345-.895h0Z" transform="translate(-1751.429 -509.736)" fill="url(#linear-gradient-28)"/>
        <path id="Trazado_96347" data-name="Trazado 96347" d="M1889.311,558.2l.936-.379h0a.476.476,0,0,1,.358.883l-.94.382a.477.477,0,0,1-.359-.884h0Z" transform="translate(-1766.042 -503.943)" fill="url(#linear-gradient-28)"/>
        <path id="Trazado_96348" data-name="Trazado 96348" d="M1906.922,550.841l.928-.4h0a.474.474,0,0,1,.374.871l-.933.4a.475.475,0,0,1-.375-.872h0Z" transform="translate(-1780.542 -497.873)" fill="url(#linear-gradient-28)"/>
        <path id="Trazado_96349" data-name="Trazado 96349" d="M1924.381,543.122l.919-.417h0a.472.472,0,0,1,.391.859l-.925.421a.472.472,0,0,1-.392-.86h0Z" transform="translate(-1794.919 -491.501)" fill="url(#linear-gradient-28)"/>
        <path id="Trazado_96350" data-name="Trazado 96350" d="M1941.669,535l.907-.44,0,0a.469.469,0,0,1,.41.844l-.915.445a.47.47,0,1,1-.411-.845h0Z" transform="translate(-1809.154 -484.793)" fill="url(#linear-gradient-28)"/>
        <path id="Trazado_96351" data-name="Trazado 96351" d="M1958.7,526.313l.889-.474.005,0a.467.467,0,0,1,.44.824l-.9.48a.468.468,0,1,1-.441-.825h0Z" transform="translate(-1823.184 -477.61)" fill="url(#linear-gradient-28)"/>
        <path id="Trazado_96352" data-name="Trazado 96352" d="M1975.364,516.9l.864-.514.007,0a.464.464,0,0,1,.475.8l-.875.523a.465.465,0,1,1-.477-.8h0Z" transform="translate(-1836.912 -469.826)" fill="url(#linear-gradient-28)"/>
        <path id="Trazado_96353" data-name="Trazado 96353" d="M1991.557,506.66l.833-.561.007,0a.457.457,0,0,1,.512.757l-.845.574a.459.459,0,1,1-.516-.76h0Z" transform="translate(-1850.256 -461.345)" fill="url(#linear-gradient-28)"/>
        <path id="Trazado_96354" data-name="Trazado 96354" d="M2007.107,495.413l.791-.616.008-.006a.45.45,0,0,1,.554.709l-.8.632a.452.452,0,1,1-.558-.711h0Z" transform="translate(-1863.076 -452.029)" fill="url(#linear-gradient-28)"/>
        <path id="Trazado_96355" data-name="Trazado 96355" d="M2021.8,483.021l.736-.678.009-.008a.443.443,0,0,1,.6.65l-.751.7a.445.445,0,0,1-.606-.652h0Z" transform="translate(-1875.191 -441.76)" fill="url(#linear-gradient-28)"/>
        <path id="Trazado_96356" data-name="Trazado 96356" d="M2035.359,469.353l.665-.747.01-.011a.436.436,0,0,1,.652.579l-.68.771a.438.438,0,1,1-.657-.58h0Z" transform="translate(-1886.377 -430.431)" fill="url(#linear-gradient-28)"/>
        <path id="Trazado_96357" data-name="Trazado 96357" d="M2047.451,454.345l.573-.816.01-.013a.429.429,0,0,1,.7.491l-.588.844a.431.431,0,1,1-.707-.492h0Z" transform="translate(-1896.354 -417.991)" fill="url(#linear-gradient-40)"/>
        <path id="Trazado_96358" data-name="Trazado 96358" d="M2057.668,438.014l.46-.882.009-.016a.422.422,0,0,1,.748.389l-.473.915a.424.424,0,1,1-.753-.389h0Z" transform="translate(-1904.788 -404.459)" fill="url(#linear-gradient-28)"/>
        <path id="Trazado_96359" data-name="Trazado 96359" d="M2065.643,420.548c.116-.311.228-.624.331-.938v0a.415.415,0,0,1,.788.259q-.16.492-.339.975a.417.417,0,1,1-.782-.288v0Z" transform="translate(-1911.374 -390.002)" fill="url(#linear-gradient-40)"/>
        <path id="Trazado_96360" data-name="Trazado 96360" d="M2070.952,402.119l.179-.977,0-.019a.408.408,0,0,1,.8.145l-.182,1.015a.41.41,0,0,1-.806-.144v0Z" transform="translate(-1915.758 -374.751)" fill="url(#linear-gradient-41)"/>
        <path id="Trazado_96361" data-name="Trazado 96361" d="M2073.382,383.254l.03-.995v-.018a.4.4,0,0,1,.8.023l-.027,1.03a.4.4,0,0,1-.8-.021v-.019Z" transform="translate(-1917.764 -359.169)" fill="url(#linear-gradient-28)"/>
        <path id="Trazado_96362" data-name="Trazado 96362" d="M2072.464,364.315l-.113-.991,0-.017a.394.394,0,0,1,.782-.091l.121,1.024a.4.4,0,0,1-.786.093v0Z" transform="translate(-1916.913 -343.546)" fill="url(#linear-gradient-28)"/>
        <path id="Trazado_96363" data-name="Trazado 96363" d="M2068.726,345.735l-.251-.964,0-.016a.386.386,0,0,1,.747-.2l.263.995a.389.389,0,0,1-.751.2v0Z" transform="translate(-1913.714 -328.241)" fill="url(#linear-gradient-41)"/>
        <path id="Trazado_96364" data-name="Trazado 96364" d="M2062.4,327.862l-.385-.92-.006-.015a.379.379,0,0,1,.7-.294l.4.949a.381.381,0,1,1-.7.3v0Z" transform="translate(-1908.385 -313.535)" fill="url(#linear-gradient-28)"/>
        <path id="Trazado_96365" data-name="Trazado 96365" d="M2053.579,311.088l-.514-.853-.008-.014a.372.372,0,0,1,.636-.385l.535.879a.374.374,0,0,1-.639.389h0Z" transform="translate(-1900.995 -299.756)" fill="url(#linear-gradient-28)"/>
        <path id="Trazado_96366" data-name="Trazado 96366" d="M2042.351,295.84l-.637-.763-.011-.013a.365.365,0,0,1,.56-.469l.662.787a.367.367,0,0,1-.562.473h0Z" transform="translate(-1891.626 -287.254)" fill="url(#linear-gradient-28)"/>
        <path id="Trazado_96367" data-name="Trazado 96367" d="M2028.883,282.585c-.248-.221-.5-.441-.753-.652a.358.358,0,0,1,.454-.554c.266.218.525.444.783.672a.36.36,0,0,1-.478.539h0Z" transform="translate(-1880.419 -276.419)" fill="url(#linear-gradient-28)"/>
        <path id="Trazado_96368" data-name="Trazado 96368" d="M2013.358,271.669l-.849-.52-.014-.009a.351.351,0,0,1,.365-.6l.879.534a.353.353,0,0,1-.367.6h0Z" transform="translate(-1867.522 -267.525)" fill="url(#linear-gradient-28)"/>
        <path id="Trazado_96369" data-name="Trazado 96369" d="M1996.344,263.372l-.92-.384-.014-.006a.343.343,0,0,1,.263-.635l.951.391a.346.346,0,1,1-.263.64h0Z" transform="translate(-1853.426 -260.803)" fill="url(#linear-gradient-28)"/>
        <path id="Trazado_96370" data-name="Trazado 96370" d="M1978.277,257.744l-.968-.245-.014,0a.331.331,0,0,1,.16-.642l1,.245a.335.335,0,0,1-.16.65h0Z" transform="translate(-1838.487 -256.294)" fill="url(#linear-gradient-28)"/>
        <path id="Trazado_96371" data-name="Trazado 96371" d="M1959.577,254.8l-.993-.1h-.014a.318.318,0,0,1,.064-.634l1.021.1a.322.322,0,1,1-.062.641h-.016Z" transform="translate(-1823.049 -254.007)" fill="url(#linear-gradient-28)"/>
        <path id="Trazado_96372" data-name="Trazado 96372" d="M1940.63,254.365l-1,.041h-.014a.306.306,0,0,1-.027-.611l1.027-.05a.31.31,0,1,1,.03.618h-.016Z" transform="translate(-1807.425 -253.746)" fill="url(#linear-gradient-28)"/>
        <path id="Trazado_96373" data-name="Trazado 96373" d="M1921.852,256.25l-.981.19-.013,0a.293.293,0,0,1-.114-.575l1.006-.2a.3.3,0,0,1,.117.582h0Z" transform="translate(-1791.962 -255.32)" fill="url(#linear-gradient-28)"/>
        <path id="Trazado_96374" data-name="Trazado 96374" d="M1903.7,260.98l-.937.341-.013,0a.281.281,0,0,1-.194-.527l.96-.357a.284.284,0,0,1,.2.533h0Z" transform="translate(-1777.039 -259.241)" fill="url(#linear-gradient-28)"/>
        <path id="Trazado_96375" data-name="Trazado 96375" d="M1886.7,268.6c-.292.161-.584.321-.87.493a.268.268,0,0,1-.278-.459c.292-.179.592-.346.891-.513a.272.272,0,0,1,.266.474h0Z" transform="translate(-1763.086 -265.545)" fill="url(#linear-gradient-28)"/>
        <path id="Trazado_96376" data-name="Trazado 96376" d="M1871.271,279.039l-.774.632-.01.008a.255.255,0,0,1-.324-.395l.789-.654a.259.259,0,1,1,.331.4h0Z" transform="translate(-1750.455 -274.175)" fill="url(#linear-gradient-28)"/>
        <path id="Trazado_96377" data-name="Trazado 96377" d="M1857.877,291.966l-.665.748-.007.009a.243.243,0,0,1-.364-.321l.674-.77a.247.247,0,0,1,.371.325h0Z" transform="translate(-1739.518 -284.853)" fill="url(#linear-gradient-28)"/>
        <path id="Trazado_96378" data-name="Trazado 96378" d="M1846.7,306.931l-.546.843-.006.009a.23.23,0,0,1-.387-.249l.551-.864a.234.234,0,1,1,.395.251h0Z" transform="translate(-1730.419 -297.209)" fill="url(#linear-gradient-41)"/>
        <path id="Trazado_96379" data-name="Trazado 96379" d="M1837.932,323.5l-.415.913,0,.009a.218.218,0,0,1-.4-.178l.416-.934a.221.221,0,0,1,.4.18v0Z" transform="translate(-1723.321 -310.885)" fill="url(#linear-gradient-40)"/>
        <path id="Trazado_96380" data-name="Trazado 96380" d="M1831.747,341.279l-.275.965,0,.009a.205.205,0,0,1-.395-.111l.273-.985a.209.209,0,0,1,.4.112h0Z" transform="translate(-1718.359 -325.552)" fill="url(#linear-gradient-28)"/>
        <path id="Trazado_96381" data-name="Trazado 96381" d="M1828.338,359.9l-.124,1v.009a.192.192,0,0,1-.382-.046l.119-1.015a.2.2,0,1,1,.39.046h0Z" transform="translate(-1715.694 -340.911)" fill="url(#linear-gradient-126)"/>
        <path id="Trazado_96382" data-name="Trazado 96382" d="M1827.705,378.929l.038,1v.009a.18.18,0,0,1-.359.015l-.046-1.021a.184.184,0,0,1,.367-.016h0Z" transform="translate(-1715.29 -356.609)" fill="url(#linear-gradient-49)"/>
        <path id="Trazado_96383" data-name="Trazado 96383" d="M1829.661,397.914l.125.618v.006a.169.169,0,0,1-.33.068l-.132-.628a.171.171,0,1,1,.335-.07h0Z" transform="translate(-1716.922 -372.268)" fill="url(#linear-gradient-41)"/>
      </g>
    </g>
  </g>
</svg>
