<svg xmlns="http://www.w3.org/2000/svg" xmlns:xlink="http://www.w3.org/1999/xlink" width="93" height="94" viewBox="0 0 93 94">
  <defs>
    <clipPath id="clip-path">
      <rect id="Rectángulo_56650" data-name="Rectángulo 56650" width="54.092" height="54.19" fill="#fff"/>
    </clipPath>
  </defs>
  <g id="Grupo_179438" data-name="Grupo 179438" transform="translate(-1047.512 -1819.865)">
    <g id="Grupo_176125" data-name="Grupo 176125" transform="translate(1047.787 1819.531)">
      <ellipse id="Elipse_4870" data-name="Elipse 4870" cx="46.5" cy="47" rx="46.5" ry="47" transform="translate(-0.275 0.334)" fill="#7f4fc7"/>
      <g id="Grupo_176136" data-name="Grupo 176136" transform="translate(15.023 15.672)">
        <g id="Grupo_176135" data-name="Grupo 176135" clip-path="url(#clip-path)">
          <path id="Trazado_218544" data-name="Trazado 218544" d="M51.922,54.19h-31.7a.566.566,0,0,0-.13-.094,2.645,2.645,0,0,1-2.043-2.842c0-1.6-.009-3.2.006-4.8,0-.349-.105-.471-.461-.487a14.26,14.26,0,0,1-1.623-.187,18.816,18.816,0,0,1-15.55-14.6c-.162-.7-.282-1.415-.421-2.123V25.119q.165-.849.33-1.7A18.893,18.893,0,0,1,17.566,8.209c.378-.023.494-.139.49-.514-.017-1.657-.01-3.315-.006-4.972A2.641,2.641,0,0,1,20.778.007Q31.927,0,43.076,0a1.38,1.38,0,0,1,1.057.447Q48.9,5.228,53.68,9.988A1.3,1.3,0,0,1,54.092,11q-.014,20.3,0,40.6a2.458,2.458,0,0,1-1.373,2.249,7.369,7.369,0,0,1-.794.346m-9.5-52.4h-21.3c-1.084,0-1.334.254-1.334,1.362q0,11.144,0,22.289c0,.761,0,.762.785.762q8.032,0,16.064,0c1,0,1.3.267,1.227,1.272a28.882,28.882,0,0,1-.4,3.461A18.949,18.949,0,0,1,20.347,45.96c-.415.025-.57.128-.563.564.023,1.566,0,3.132.011,4.7,0,.843.319,1.158,1.153,1.158q15.136,0,30.271,0c.84,0,1.153-.311,1.154-1.149q0-19.476.012-38.951c0-.5-.16-.61-.625-.6-2.131.021-4.264-.054-6.392.029a2.8,2.8,0,0,1-2.955-2.966c.059-2.074.014-4.151.014-6.227V1.791M36.041,28c-.229-.011-.426-.028-.622-.028q-7.787,0-15.574-.01a1.288,1.288,0,0,0-1,.43q-5.475,5.5-10.968,10.976c-.139.14-.273.285-.409.427A17.073,17.073,0,0,0,36.041,28M6.2,38.508c.094-.081.194-.157.283-.245q5.643-5.638,11.273-11.288a1.185,1.185,0,0,0,.284-.764q.024-7.839.011-15.678c0-.191-.02-.381-.03-.57A17.136,17.136,0,0,0,2.885,20.914,16.881,16.881,0,0,0,6.2,38.508M44.247,3.229c-.009.164-.025.323-.025.482q0,2.537,0,5.074c0,.841.311,1.153,1.146,1.155q2.565,0,5.13,0c.15,0,.3-.026.423-.037L44.247,3.229" transform="translate(0 0.001)" fill="#fff"/>
          <path id="Trazado_218545" data-name="Trazado 218545" d="M207.7,61.043H198.9c-.87,0-1.124-.259-1.124-1.143q0-8.71,0-17.42c0-1.03.259-1.314,1.3-1.259a18.729,18.729,0,0,1,16.4,10.242,17.9,17.9,0,0,1,2.132,8.426c.016.906-.252,1.154-1.172,1.154H207.7m-8.175-18.027v.709q0,7.425,0,14.85c0,.722,0,.724.713.724h14.58c1,0,1,0,.906-1.021-.014-.145-.012-.292-.036-.435a17.061,17.061,0,0,0-10.857-13.689,16.057,16.057,0,0,0-5.307-1.139" transform="translate(-176.121 -36.702)" fill="#fff"/>
          <path id="Trazado_218546" data-name="Trazado 218546" d="M329.586,321.614a8.1,8.1,0,1,1-8.084-8.151,8.066,8.066,0,0,1,8.084,8.151m-8.1-6.365a6.333,6.333,0,1,0,6.354,6.363,6.364,6.364,0,0,0-6.354-6.363" transform="translate(-279.078 -279.14)" fill="#fff"/>
          <path id="Trazado_218547" data-name="Trazado 218547" d="M402.825,189.934v1.72c-.186.015-.345.038-.5.038-2.035,0-4.071-.007-6.106.009-.393,0-.571-.1-.539-.518s.007-.824.007-1.249Z" transform="translate(-352.347 -169.137)" fill="#fff"/>
          <rect id="Rectángulo_56648" data-name="Rectángulo 56648" width="7.094" height="1.673" transform="translate(43.386 15.418)" fill="#fff"/>
          <rect id="Rectángulo_56649" data-name="Rectángulo 56649" width="7.082" height="1.68" transform="translate(43.376 26.252)" fill="#fff"/>
          <path id="Trazado_218548" data-name="Trazado 218548" d="M343.814,361.956l4.7-4.806,1.3,1.272L347.3,360.93c-.939.938-1.873,1.881-2.817,2.814a.871.871,0,0,1-1.347.061c-.9-.869-1.775-1.766-2.68-2.671l1.307-1.209,2.05,2.032" transform="translate(-303.178 -318.043)" fill="#fff"/>
        </g>
      </g>
    </g>
  </g>
</svg>
