<svg xmlns="http://www.w3.org/2000/svg" xmlns:xlink="http://www.w3.org/1999/xlink" width="234.596" height="217.729" viewBox="0 0 234.596 217.729">
  <defs>
    <linearGradient id="linear-gradient" x1="0.5" x2="0.5" y2="1" gradientUnits="objectBoundingBox">
      <stop offset="0" stop-color="#fff"/>
      <stop offset="1" stop-color="#d2e6ee"/>
    </linearGradient>
    <linearGradient id="linear-gradient-9" x1="0.5" x2="0.5" y2="1" gradientUnits="objectBoundingBox">
      <stop offset="0" stop-color="#ea3065"/>
      <stop offset="1" stop-color="#a22f5f"/>
    </linearGradient>
  </defs>
  <g id="Grupo_179441" data-name="Grupo 179441" transform="translate(-4864.84 8687.396)">
    <g id="Grupo_176499" data-name="Grupo 176499" transform="translate(4809.548 -8762.867)">
      <path id="Trazado_16324" data-name="Trazado 16324" d="M189.319,123.21a.666.666,0,0,0-.533-1.156.657.657,0,0,0-.353.162q-.5.45-.994.914a.666.666,0,1,0,.914.968q.476-.45.967-.887ZM249.566,275.6a.666.666,0,0,0-.382,1.2.658.658,0,0,0,.41.131l.553-.009.695-.018.1,0a.666.666,0,1,0-.058-1.33l-.764.021-.553.009Zm5.258-.288a.666.666,0,0,0,.144,1.324l.606-.063.733-.085a.666.666,0,0,0-.175-1.321l-.7.082-.606.063Zm5.207-.76a.666.666,0,0,0,.265,1.305l.395-.078.617-.129.307-.068a.667.667,0,0,0,.1-1.269.66.66,0,0,0-.391-.029l-.292.064-.6.126-.395.078Zm5.1-1.268a.666.666,0,1,0,.4,1.269l.539-.167.573-.186.171-.058a.666.666,0,0,0-.434-1.259l-.156.053-.558.181-.538.168Zm4.929-1.807a.665.665,0,1,0,.54,1.216l.45-.2.528-.239.253-.118a.666.666,0,1,0-.571-1.2l-.238.111-.513.232-.449.2Zm4.688-2.358a.666.666,0,0,0,.391,1.238.656.656,0,0,0,.282-.09l.2-.114.483-.287.475-.291a.666.666,0,0,0-.4-1.229.659.659,0,0,0-.3.1l-.461.282-.468.278-.2.115Zm4.366-2.9a.666.666,0,0,0,.811,1.056l.29-.22.432-.336.341-.273a.666.666,0,1,0-.837-1.035l-.328.263L279.4,266l-.29.22Zm3.98-3.409a.666.666,0,1,0,.935.947l.269-.263.38-.379.3-.311a.666.666,0,1,0-.957-.925l-.293.3-.368.368-.269.262Zm3.533-3.873a.666.666,0,1,0,1.042.828l.193-.241.328-.418.308-.4a.666.666,0,1,0-1.062-.8l-.3.39-.318.406-.193.241Zm3.04-4.274a.666.666,0,1,0,1.133.7l.108-.171.275-.451.319-.537a.666.666,0,0,0-1.156-.662l-.3.51-.268.438-.108.171Zm2.52-4.6a.666.666,0,1,0,1.2.569l.258-.552.218-.481.087-.2a.666.666,0,1,0-1.222-.528l-.081.185-.211.468-.252.538Zm1.979-4.855a.666.666,0,1,0,1.263.421l.158-.463.164-.5.1-.312a.666.666,0,0,0-1.273-.393l-.094.3-.16.49-.157.463Zm1.439-5.052a.666.666,0,1,0,1.3.285l.088-.388.112-.52.082-.406a.666.666,0,1,0-1.306-.259l-.08.393-.109.507-.088.388Zm.9-5.178a.666.666,0,1,0,1.323.151l.039-.335.058-.532.046-.471a.666.666,0,1,0-1.326-.123l-.045.458-.056.518-.039.334Zm.361-5.244a.667.667,0,0,0,1.283.26.681.681,0,0,0,.049-.244l.006-.311,0-.538,0-.5a.665.665,0,1,0-1.331.011v.482l0,.525-.006.311Zm-.167-5.254a.666.666,0,0,0,1.326-.117L298,224.04l-.05-.54-.049-.477a.666.666,0,1,0-1.324.143l.048.463.049.527.027.322Zm-.687-5.212a.666.666,0,1,0,1.308-.249l-.068-.369-.1-.537-.086-.413a.666.666,0,1,0-1.3.274l.082.4.1.524.069.37Zm-1.2-5.119a.666.666,0,1,0,1.276-.378l-.132-.455-.16-.528-.1-.305a.666.666,0,1,0-1.269.4l.092.292.156.516.132.454Zm-1.7-4.98a.665.665,0,1,0,1.236-.494l-.235-.583-.214-.515-.066-.152a.666.666,0,0,0-1.221.532l.06.139.21.5.231.57Zm-2.184-4.779a.666.666,0,0,0,1.179-.62l-.128-.244-.265-.5-.243-.445a.666.666,0,1,0-1.165.644l.236.433.258.485.127.244Zm-2.65-4.536a.666.666,0,0,0,1.107-.74l-.305-.462-.321-.475-.125-.18a.666.666,0,1,0-1.091.764l.117.169.313.463.305.462Zm-3.1-4.252a.666.666,0,0,0,1.031-.844l-.222-.273-.372-.448-.265-.314a.666.666,0,0,0-1.169.377.66.66,0,0,0,.158.488l.256.3.362.437.221.275Zm-3.5-3.921a.666.666,0,0,0,1.118-.627.659.659,0,0,0-.176-.313l-.174-.177-.422-.419-.361-.35a.667.667,0,0,0-1.109.633.659.659,0,0,0,.188.328l.351.341.411.408.174.176Zm-3.876-3.552a.666.666,0,0,0,.845-1.029l-.2-.169-.473-.385-.37-.293a.666.666,0,1,0-.822,1.047l.358.284.462.375.2.169Zm-4.2-3.16a.665.665,0,1,0,.739-1.106l-.357-.242-.524-.346-.241-.155a.667.667,0,0,0-.958.849.66.66,0,0,0,.243.274l.228.147.513.338.358.241Zm-4.489-2.753a.666.666,0,1,0,.64-1.167l-.123-.069-.57-.309-.493-.26a.666.666,0,0,0-.615,1.181l.48.253.557.3.123.069Zm-4.72-2.338a.666.666,0,1,0,.538-1.218l-.635-.276-.6-.255a.666.666,0,0,0-.83.951.658.658,0,0,0,.319.278l.589.25.622.27Zm-4.9-1.924a.665.665,0,1,0,.433-1.258l-.1-.034q-.587-.2-1.176-.394a.667.667,0,0,0-.8.931.658.658,0,0,0,.389.335c.387.127.771.257,1.156.387l.1.033Zm-5.048-1.58a.666.666,0,0,0,.365-1.281q-.644-.183-1.29-.36a.666.666,0,0,0-.35,1.285c.426.116.85.235,1.275.356Zm-5.124-1.34a.667.667,0,0,0,.6-1.143.656.656,0,0,0-.29-.152c-.416-.076-.883-.208-1.3-.3a.665.665,0,1,0-.3,1.3c.415.1.879.226,1.29.3Zm-5.177-1.131a.666.666,0,0,0,.259-1.306q-.657-.13-1.313-.255a.666.666,0,0,0-.249,1.308q.652.124,1.3.253Zm-5.219-.947a.667.667,0,0,0,.565-1.141.659.659,0,0,0-.348-.172q-.66-.11-1.32-.213a.666.666,0,1,0-.206,1.315q.655.1,1.309.211Zm-5.247-.786a.666.666,0,0,0,.177-1.32q-.661-.089-1.324-.174A.666.666,0,0,0,232.35,172c.439.057.877.114,1.316.173Zm-5.271-.644a.666.666,0,1,0,.145-1.323c-.443-.048-.885-.1-1.328-.142a.666.666,0,0,0-.5,1.17.651.651,0,0,0,.361.154l1.319.141Zm-5.286-.52a.667.667,0,0,0,.48-1.179.656.656,0,0,0-.364-.148c-.443-.039-.887-.076-1.33-.113a.666.666,0,0,0-.109,1.327q.662.054,1.323.113Zm-5.319-.475a.666.666,0,1,0,.145-1.323q-.658-.07-1.316-.148a.666.666,0,1,0-.158,1.322c.443.053.886.1,1.33.149Zm-5.312-.694a.666.666,0,0,0,.21-1.315c-.434-.068-.874-.134-1.3-.213a.666.666,0,1,0-.23,1.311c.438.079.883.147,1.324.217Zm-5.273-.984a.667.667,0,0,0,.655-1.077.657.657,0,0,0-.368-.223q-.645-.142-1.288-.293a.666.666,0,1,0-.308,1.3q.654.153,1.309.3ZM202,167.52a.666.666,0,1,0,.38-1.276c-.42-.124-.84-.254-1.258-.388a.666.666,0,1,0-.41,1.267q.642.206,1.288.4Zm-5.091-1.756a.665.665,0,1,0,.5-1.235q-.611-.244-1.214-.5a.666.666,0,0,0-.757,1.059.687.687,0,0,0,.228.163q.619.266,1.246.516Zm-4.9-2.274a.666.666,0,1,0,.635-1.171q-.575-.31-1.14-.639a.666.666,0,1,0-.677,1.147c.389.228.785.449,1.182.663Zm-4.576-2.906a.667.667,0,0,0,1.032-.744.657.657,0,0,0-.23-.318c-.348-.261-.689-.53-1.027-.8a.666.666,0,0,0-.845,1.029c.352.286.707.565,1.069.838Zm-4.04-3.647a.666.666,0,1,0,.987-.894c-.292-.321-.573-.647-.847-.982a.666.666,0,1,0-1.032.841c.29.352.585.7.892,1.034Zm-3.2-4.434a.666.666,0,0,0,1.168-.64c-.208-.378-.4-.758-.59-1.148a.666.666,0,1,0-1.2.567c.2.413.405.819.627,1.22Zm-2.021-5.1a.666.666,0,1,0,1.293-.318q-.157-.625-.271-1.258a.666.666,0,0,0-1.3-.064.654.654,0,0,0-.015.3c.081.452.179.9.29,1.345Zm-.614-5.452a.666.666,0,1,0,1.331.034c.01-.43.031-.858.068-1.286a.666.666,0,1,0-1.326-.12c-.041.455-.063.916-.073,1.373Zm.878-5.421a.666.666,0,1,0,1.271.4c.119-.388.262-.848.419-1.219a.666.666,0,1,0-1.244-.477c-.164.424-.313.865-.447,1.3Zm2.211-4.995a.666.666,0,1,0,1.152.667q.325-.565.675-1.113a.666.666,0,0,0-1.121-.719q-.366.575-.706,1.164Zm3.1-4.455a.666.666,0,0,0,.562,1.086.657.657,0,0,0,.469-.243c.276-.338.559-.668.845-1a.666.666,0,1,0-1-.879C184.324,126.386,184.033,126.733,183.747,127.082Z" transform="translate(-52.49 -22.168)" fill="#fff" fill-rule="evenodd"/>
      <g id="Grupo_12331" data-name="Grupo 12331" transform="translate(116.122 109.164)">
        <path id="Trazado_16325" data-name="Trazado 16325" d="M201.117,212.055a.422.422,0,0,1,.713.452c-.048.076-16.771,26.061-3.562,41.208a.421.421,0,0,1-.634.555C184,238.64,201.068,212.132,201.117,212.055Z" transform="translate(-174.156 -164.979)" fill="#000618" fill-rule="evenodd"/>
        <path id="Trazado_16326" data-name="Trazado 16326" d="M284.037,206a.421.421,0,1,1,.712-.449c.027.043,9.58,14.87-.5,26.261a.421.421,0,1,1-.63-.558C293.275,220.339,284.063,206.038,284.037,206Z" transform="translate(-208.309 -162.541)" fill="#000618" fill-rule="evenodd"/>
        <path id="Trazado_16327" data-name="Trazado 16327" d="M203.836,183.889l-7.044,7.744a28.267,28.267,0,0,1,3.037,13.8c-.335,7.828-26.726,51.216,22.029,50.993s21.63-25.378,21.63-25.378,16.083-5.208,7.961-28.495S203.836,183.889,203.836,183.889Z" transform="translate(-174.172 -154.36)" fill="#000618" fill-rule="evenodd"/>
        <path id="Trazado_16328" data-name="Trazado 16328" d="M248.969,238.8c-.283-.284-.449-.438-.449-.438a10.48,10.48,0,0,0,1.46-.65,43.926,43.926,0,0,0,4.165-5.5c6.649-10.337-.427-24.548-.427-24.548l-3.763-1.124s-7.493-2.683-9.505-3.354-25.273.782-31.87,13.195.752,30.407.752,30.407,27.428-.885,28.993-1C239.49,245.711,244,243.955,248.969,238.8Z" transform="translate(-179.204 -161.68)" fill="#01020e" fill-rule="evenodd"/>
        <path id="Trazado_16329" data-name="Trazado 16329" d="M282.432,271.046c7.833,3.42,8.849,10.582,9.868,18.551.9,7.068,1.185,17.733-.676,33.934s-31.471-21.372-31.471-21.372Z" transform="translate(-199.555 -187.153)" fill="#ef8871" fill-rule="evenodd"/>
        <path id="Trazado_16330" data-name="Trazado 16330" d="M200.066,268.377l-7.6-3.89s-8.033,2-12.144,7.165-16.557,49.321-17.027,54.722,3.189,25.98,9.883,25.98,10.023-44.99,10.023-44.99l5.467-16.863Z" transform="translate(-163.253 -184.696)" fill="#f4ad85" fill-rule="evenodd"/>
        <path id="Trazado_16331" data-name="Trazado 16331" d="M201.069,268.377l-7.6-3.89a30.092,30.092,0,0,0-5.551,2.132c.985.476,1.755,1.692,1.665,4.388-.234,7.047-10.98,33.937-13.328,41.452s-4.227,11.977-4.227,11.977l-4.894-10.264c-.442,1.658-.845,3.212-1.2,4.628,1.831,9.866,4.108,23.39,4.418,31.121,1.135,1.506,2.415,2.431,3.833,2.431,6.693,0,10.023-44.99,10.023-44.99l5.467-16.863Z" transform="translate(-164.255 -184.696)" fill="#ef8871" fill-rule="evenodd"/>
        <path id="Trazado_16332" data-name="Trazado 16332" d="M233.231,255.194s20.2,7.2,25.91,9.913c-.01.011-1.091,1.139-2.318,7.333-1.233,6.224,0,15.266-1.291,24.191-.934,6.449-5.3,39.072-7.651,56.68l-49.8-4.018c-.015-.785-.047-1.728-.093-2.8,4.09,3.185,8.011,3.327,5.584-5.977-4.228-16.205-3.406-44.388-2-52.843s3.508-17.354,1.512-25.925C204.424,260.543,233.231,255.194,233.231,255.194Z" transform="translate(-176.265 -181.214)" fill="#26aab7" fill-rule="evenodd"/>
        <path id="Trazado_16333" data-name="Trazado 16333" d="M247.967,262.958c5.055,1.9,10.188,3.892,12.64,5.058-.01.011-1.091,1.139-2.318,7.333-1.233,6.224,0,15.266-1.291,24.191-.187,1.291-.512,3.633-.931,6.691-11.253,1.754-44.49,5.561-52.466,4.854a14.2,14.2,0,0,1-1.7-.257,145.761,145.761,0,0,1,1.139-20.243c.036-.216.073-.433.109-.65,2.815,8.309,38.26,12.954,38.26,12.954s5.878-13,4.351-17.815-8.575-4.68-8.575-4.68l.179-4.3s7.047-9.542,8.74-12.445C246.315,263.281,246.974,263.061,247.967,262.958Z" transform="translate(-177.732 -184.123)" fill="#167377" fill-rule="evenodd"/>
        <path id="Trazado_16334" data-name="Trazado 16334" d="M251.312,263.793l.417.158c-.9,3.621-2.1,7.868-3.779,10.371a17.876,17.876,0,0,1-5.85,5.823c-2.565,1.487-5.92,2.379-10.6,2.261a15.683,15.683,0,0,1-9.9-3.745,20.607,20.607,0,0,1-6.274-9.849c-1.29-4.5-2.505-6-2.919-6.408l.493-.109c.577.677,1.708,2.4,2.853,6.4a20.154,20.154,0,0,0,6.132,9.632,15.25,15.25,0,0,0,9.628,3.64c4.593.116,7.872-.753,10.371-2.2a17.468,17.468,0,0,0,5.7-5.686c1.649-2.458,2.841-6.686,3.73-10.283Zm8.3,3.309.369.161c-.972,1.722-2.341,5.337-3.6,12.9-1.508,9.068.22,13.157,1.543,14.878-.014.207-.029.414-.046.621-1.419-1.61-3.565-5.774-1.934-15.572,1.236-7.432,2.635-11.144,3.668-12.991Zm-56.43,25.747q.047-.427.1-.821c1.136-2.234,5.457-12.065,2.994-28.114.134-.042.275-.083.429-.127,2.832,18.355-3.159,28.708-3.3,28.947a.22.22,0,0,1-.219.116Z" transform="translate(-178.212 -183.875)" fill="#167377" fill-rule="evenodd"/>
        <path id="Trazado_16335" data-name="Trazado 16335" d="M239.917,220.631h.152a7.986,7.986,0,0,1,8.068,7.883l.1,16.176c2.933,1.072,6.442,2.371,9.728,3.626-5.171,11.166-11.269,18.544-21.015,16.431-13.35-2.9-12.875-14.1-16.941-18.238,3.8-.823,8.253-1.718,12.12-2.474l-.1-15.336A8.014,8.014,0,0,1,239.917,220.631Z" transform="translate(-184.516 -168.265)" fill="#ef8871" fill-rule="evenodd"/>
        <path id="Trazado_16336" data-name="Trazado 16336" d="M253.994,226.94a7.817,7.817,0,0,1,.5,2.693l.1,16.176c2.933,1.072,6.442,2.371,9.728,3.626-3.8,8.212-8.108,14.376-14,16.22,9.365-6.315,6.486-14.116,4.49-14.938s-17.845-5.266-17.845-5.266l1.516-.3-.1-15.336a8.032,8.032,0,0,1,2.865-6.2C245.474,223.582,249.681,224.892,253.994,226.94Z" transform="translate(-190.869 -169.385)" fill="#ea745d" fill-rule="evenodd"/>
        <path id="Trazado_16337" data-name="Trazado 16337" d="M276.953,196.13c.156,0,.31.006.463.016h0a6.236,6.236,0,1,1-4.992,1.929c.086,1.845.676,4.064,3.034,3.98l-.542-3.553A2.143,2.143,0,0,1,276.953,196.13Z" transform="translate(-203.514 -159.086)" fill="#ea745d" fill-rule="evenodd"/>
        <path id="Trazado_16338" data-name="Trazado 16338" d="M206.7,207.346c-.15.041-.3.086-.443.138l0,0h0a6.235,6.235,0,1,0,5.323.556c.4,1.8.41,4.1-1.888,4.636l-.407-3.572A2.142,2.142,0,0,0,206.7,207.346Z" transform="translate(-177.806 -163.276)" fill="#ea745d" fill-rule="evenodd"/>
        <path id="Trazado_16339" data-name="Trazado 16339" d="M229.148,152.255h0a21.407,21.407,0,0,1,23.973,18.34l2.561,19.243a21.407,21.407,0,0,1-18.341,23.972h0a21.405,21.405,0,0,1-23.971-18.34l-2.561-19.243A21.405,21.405,0,0,1,229.148,152.255Z" transform="translate(-180.999 -142.579)" fill="#f4ad85" fill-rule="evenodd"/>
        <path id="Trazado_16340" data-name="Trazado 16340" d="M229.148,152.255h0a21.415,21.415,0,0,1,23.659,16.568,8.89,8.89,0,0,1-.974,3.132l-9.861-.576s-6.491,12.408-19.822,15.423c-3.584.81-4.708,4.423-3.976,7.854,1.783,8.357,8.957,20.333,26.625,16.7a21.158,21.158,0,0,1-7.458,2.458h0a21.406,21.406,0,0,1-23.971-18.34l-2.561-19.243A21.405,21.405,0,0,1,229.148,152.255Z" transform="translate(-180.999 -142.579)" fill="#ef8871" fill-rule="evenodd"/>
        <path id="Trazado_16344" data-name="Trazado 16344" d="M280.927,278.019s.815-.118,1,.521-2.518,4.074-2.694,4.191-5.533-.558-5.533-.558-.283-.265-.223-.468a1,1,0,0,1,.259-.381Z" transform="translate(-204.544 -189.762)" fill="#000618" fill-rule="evenodd"/>
        <path id="Trazado_16346" data-name="Trazado 16346" d="M210.393,180.178l.363,2.728c.175,1.313-2.345,4.827-3.352,4.96l-.638-4.793a2.989,2.989,0,0,0-3.433-1.779c-9.6-8.466-10.526-23.809-2.686-32.871s26.865-12.108,30.346-11.441,7.668,5.866,7.668,5.866,2.493-2.9,5.294-1.939,13.794,16.359,14.346,20.5-6.374,13.416-6.374,13.416a2.989,2.989,0,0,0-2.848,2.615l.4,2.98c-1.007.134-1.75-1.14-1.924-2.453s-.363-2.727-.363-2.727c-8.856-2.6-13.658-13.411-13.658-13.411S224.3,180.361,210.393,180.178Z" transform="translate(-175.289 -136.894)" fill="#000618" fill-rule="evenodd"/>
        <path id="Trazado_16347" data-name="Trazado 16347" d="M195.381,163.67a23.394,23.394,0,0,1,2.739-11.211c8.682,6.726,22.707,11.23,34.389-14.573a12.714,12.714,0,0,1,2.214,1.436C230.2,152.445,218.639,175.36,195.381,163.67Z" transform="translate(-175.289 -137.266)" fill="#0f1630" fill-rule="evenodd"/>
        <path id="Trazado_16348" data-name="Trazado 16348" d="M210.8,193.522l.363,2.728c.175,1.313-2.345,4.827-3.352,4.96l-.638-4.793a2.989,2.989,0,0,0-3.433-1.779,23.564,23.564,0,0,1-7.281-12.311c.012.009,16.447,11.424,36.68-9.815,0,0,9.257,14.437,22.8,10.136a62.23,62.23,0,0,1-3.606,5.521,2.989,2.989,0,0,0-2.848,2.615l.4,2.98c-1.007.134-1.75-1.14-1.925-2.453s-.363-2.727-.363-2.727c-8.856-2.6-13.658-13.411-13.658-13.411S224.7,193.706,210.8,193.522Z" transform="translate(-175.692 -150.238)" fill="#01020e" fill-rule="evenodd"/>
        <path id="Trazado_16349" data-name="Trazado 16349" d="M283.243,242.014l1.385.378s.811-7.228.8-7.929a8.378,8.378,0,0,0-.9-2.888c-.534-1.181-2.493-5.643-2.6-5.786s-1.372.957-.8,2.912,1.538,4.6,1.53,5.167-1.3,5.573-1.3,5.573Z" transform="translate(-207.361 -170.193)" fill="#ef8871" fill-rule="evenodd"/>
        <path id="Trazado_16350" data-name="Trazado 16350" d="M277.573,247.9a3.079,3.079,0,0,0-1.614-2.683c-1.388-.842-4.667-3.439-5.366-3.743a2.444,2.444,0,0,0-2.33.363,41.132,41.132,0,0,0-4.006,2.907,31.208,31.208,0,0,0-2.1,4.483c-.169.371,1.216.708,2.321-.129,0,0-.578,1.161-.764,1.554a28.778,28.778,0,0,0-.464,3.99c-.023.607,1.653.3,2.222-1.091,0,0-.091,1-.092,1.316s.959.195.959.195,1.106,6,1.354,6.746,9.77,34.988,9.77,34.988l13.774-.832s-15.026-33.6-15.125-34.1C275.261,257.635,277.591,251.452,277.573,247.9Z" transform="translate(-200.302 -176.014)" fill="#f4ad85" fill-rule="evenodd"/>
        <path id="Trazado_16351" data-name="Trazado 16351" d="M268.854,260.071l.059.317h0l.021.115,0,.011v.005l0,.016,0,.017,0,.017,0,.014v0l0,.017.006.035,0,.018h0l.011.054,0,.019c.295,1.58,1.034,5.491,1.231,6.086.183.555,5.467,19.526,8.185,29.295a39.494,39.494,0,0,0,5.26-2.589S273,268.717,272.747,267.74s.337-1.753.131-2.017-1.028-.646-1.233-1.351-.7-3.2-.381-4.2c.249-.77,1.058-.676,1.415-.593a9.382,9.382,0,0,0,1.045.262c.534.071.494-.256.494-.256a7.846,7.846,0,0,1,1.19-2.677,7.114,7.114,0,0,1-1.489-1.823c-.6-.258-1.065-.589-1.531-.26a11.533,11.533,0,0,0-1.767,1.794,17.461,17.461,0,0,1-.358,2.322C270.042,259.828,268.854,260.071,268.854,260.071Z" transform="translate(-202.816 -181.025)" fill="#ef8871" fill-rule="evenodd"/>
        <g id="Grupo_12330" data-name="Grupo 12330" transform="translate(0.205 110.016)">
          <path id="Trazado_16352" data-name="Trazado 16352" d="M168.657,410.995h99.858a2.908,2.908,0,0,0,2.789-3h0a2.909,2.909,0,0,0-2.789-3H168.657a2.909,2.909,0,0,0-2.789,3h0A2.909,2.909,0,0,0,168.657,410.995Z" transform="translate(-164.437 -347.352)" fill="#000618" fill-rule="evenodd"/>
          <path id="Trazado_16353" data-name="Trazado 16353" d="M269.468,312.819H165.988a2.355,2.355,0,0,0-2.377,2.8l7.909,52.529a3.383,3.383,0,0,0,3.219,2.8h85.977a3.383,3.383,0,0,0,3.22-2.8l7.909-52.529A2.355,2.355,0,0,0,269.468,312.819Z" transform="translate(-163.58 -312.819)" fill="#3c4973" fill-rule="evenodd"/>
          <path id="Trazado_16354" data-name="Trazado 16354" d="M268.61,316.789H169.732a2.25,2.25,0,0,0-2.271,2.673l7.557,50.192a3.232,3.232,0,0,0,3.076,2.674h82.152a3.232,3.232,0,0,0,3.077-2.674l7.557-50.192A2.25,2.25,0,0,0,268.61,316.789Z" transform="translate(-165.022 -314.306)" fill="#7d6eb2" fill-rule="evenodd"/>
          <path id="Trazado_16355" data-name="Trazado 16355" d="M176.465,356.861l1.938,12.873a3.232,3.232,0,0,0,3.076,2.674h82.152a3.232,3.232,0,0,0,3.077-2.674l7.557-50.192A2.247,2.247,0,0,0,272.8,317C261.486,336.525,233.673,368.5,176.465,356.861Z" transform="translate(-168.407 -314.386)" fill="#3c4973" fill-rule="evenodd"/>
          <path id="Trazado_16356" data-name="Trazado 16356" d="M243.58,373.265c6.058,0,11-4.124,11-9.181s-4.94-9.18-11-9.18-11,4.124-11,9.18S237.522,373.265,243.58,373.265Z" transform="translate(-189.431 -328.586)" fill="#000618" fill-rule="evenodd"/>
          <path id="Trazado_16357" data-name="Trazado 16357" d="M245.162,358.429a8.77,8.77,0,0,1,7.215,3.454L239.59,370.6a6.521,6.521,0,0,1-2.785-5.2c0-3.852,3.742-6.976,8.357-6.976Zm6.789,11.044-3.84-2.114-6.4,4.4a9.725,9.725,0,0,0,3.454.622A8.942,8.942,0,0,0,251.951,369.473Z" transform="translate(-191.013 -329.907)" fill="#fff" fill-rule="evenodd"/>
        </g>
        <path id="Trazado_16360" data-name="Trazado 16360" d="M7.777.8a.649.649,0,0,1,.126.894.619.619,0,0,1-.884.054C7.012,1.741,4.881-.119,1.081,3.38a.636.636,0,0,1-.894-.071.632.632,0,0,1,0-.894C4.77-1.809,7.768.791,7.777.8Z" transform="matrix(-0.966, 0.259, -0.259, -0.966, 62.192, 57.947)" fill="#ef8871" fill-rule="evenodd"/>
        <path id="Trazado_16361" data-name="Trazado 16361" d="M281.38,278.129a.4.4,0,0,1,.321.385c.044.352-2.086,3.119-8.045,3.329,0,0-.143-.044-.164-.136s.072-.194.072-.194l-.031-.111s-.215.154-.215.338.881,3.864,1.057,4.789,1.987.711,3.518.34,5.182-1.648,6.14-3.628a1.914,1.914,0,0,0-.029-.925c-.147-.426-2-3.853-2.092-4.059a.572.572,0,0,0-.594-.267Z" transform="translate(-204.488 -189.751)" fill="#0f1630" fill-rule="evenodd"/>
        <path id="Trazado_16362" data-name="Trazado 16362" d="M276.485,283.565a16.829,16.829,0,0,1-2.829.328s-.143-.044-.164-.136.072-.194.072-.194l-.031-.111s-.215.154-.215.338.881,3.864,1.057,4.789,1.987.711,3.518.34c.217-.053.478-.123.769-.213l-2.178-5.14Z" transform="translate(-204.488 -191.801)" fill="#000618" fill-rule="evenodd"/>
      </g>
      <g id="Grupo_12332" data-name="Grupo 12332" transform="translate(75.075 279.822)">
        <path id="Trazado_16363" data-name="Trazado 16363" d="M115.864,419.136h164.95a3.778,3.778,0,0,1,3.767,3.767h0a3.778,3.778,0,0,1-3.767,3.767H115.864A3.778,3.778,0,0,1,112.1,422.9h0A3.778,3.778,0,0,1,115.864,419.136Z" transform="translate(-103.04 -413.292)" fill-rule="evenodd" fill="url(#linear-gradient)"/>
        <path id="Rectángulo_2800" data-name="Rectángulo 2800" d="M4.805,0H185.792A4.805,4.805,0,0,1,190.6,4.805v0a4.805,4.805,0,0,1-4.805,4.805H4.806A4.806,4.806,0,0,1,0,4.805v0A4.805,4.805,0,0,1,4.805,0Z" fill="url(#linear-gradient)"/>
        <rect id="Rectángulo_2801" data-name="Rectángulo 2801" width="9.998" height="9.611" transform="translate(114.505)" fill="url(#linear-gradient)"/>
        <rect id="Rectángulo_2802" data-name="Rectángulo 2802" width="5.194" height="9.611" transform="translate(129.698)" fill="url(#linear-gradient)"/>
        <rect id="Rectángulo_2803" data-name="Rectángulo 2803" width="2.597" height="9.611" transform="translate(140.346)" fill="url(#linear-gradient)"/>
        <rect id="Rectángulo_2804" data-name="Rectángulo 2804" width="11.184" height="9.611" transform="translate(151.837)" fill="url(#linear-gradient)"/>
        <rect id="Rectángulo_2805" data-name="Rectángulo 2805" width="5.592" height="9.611" transform="translate(171.453)" fill="url(#linear-gradient)"/>
        <rect id="Rectángulo_2806" data-name="Rectángulo 2806" width="93.675" height="5.713" rx="2.857" transform="translate(2.337 1.56)" fill="url(#linear-gradient)"/>
      </g>
      <g id="Grupo_12333" data-name="Grupo 12333" transform="translate(131.245 75.471)">
        <path id="Trazado_16364" data-name="Trazado 16364" d="M199.184,92.642l2.056,11.836,26.684-21.462-27.862,6.851Z" transform="translate(-191.837 -83.016)" fill="#d5eaf5" fill-rule="evenodd"/>
        <path id="Trazado_16365" data-name="Trazado 16365" d="M202.472,111.12l10.29-8.277a16.55,16.55,0,0,1,.481-2.1l-8.646,2.323Z" transform="translate(-193.069 -89.658)" fill="#ecf6fc" fill-rule="evenodd"/>
        <path id="Trazado_16366" data-name="Trazado 16366" d="M223.522,83.016l-36.086,6.675,7.346,2.951Z" transform="translate(-187.436 -83.016)" fill="#fff" fill-rule="evenodd"/>
        <path id="Trazado_16367" data-name="Trazado 16367" d="M230.429,83.016l-16.217,21.546-8.341-8.135Z" transform="translate(-194.342 -83.016)" fill="#fff" fill-rule="evenodd"/>
      </g>
      <g id="Grupo_12335" data-name="Grupo 12335" transform="translate(73.162 172.613)">
        <path id="Trazado_16368" data-name="Trazado 16368" d="M97.07,253.024A47.156,47.156,0,0,1,108,251.742h0a9.558,9.558,0,0,0,9.529-9.529h0a9.437,9.437,0,0,0-.1-1.345h15.07A4.146,4.146,0,0,1,136.643,245v29.162a.462.462,0,0,1-.788.327l-7.045-7.045H101.2a4.146,4.146,0,0,1-4.134-4.134Z" transform="translate(-95.498 -239.296)" fill="#7d6eb2" fill-rule="evenodd"/>
        <path id="Trazado_16369" data-name="Trazado 16369" d="M98.69,238.354h31.3a4.146,4.146,0,0,1,4.134,4.134V271.65a.462.462,0,0,1-.788.326l-7.045-7.045H98.69a4.146,4.146,0,0,1-4.134-4.134v-18.31A4.146,4.146,0,0,1,98.69,238.354Z" transform="translate(-94.556 -238.354)" fill="#ffd947" fill-rule="evenodd"/>
        <g id="Grupo_12334" data-name="Grupo 12334" transform="translate(5.49 2.669)">
          <path id="Trazado_16370" data-name="Trazado 16370" d="M126.558,247.408l5.179.021a4.693,4.693,0,0,1,3.379,1.465,5.029,5.029,0,0,1,1.392,3.482v.018c0,.021,0,.043,0,.064a4.964,4.964,0,0,1-1.406,3.391,4.71,4.71,0,0,1-3.378,1.445h-.016c-.02,0-.04,0-.059,0l-5.124-.02-9.135,4.576a1.227,1.227,0,0,1-1.242-.069,1.274,1.274,0,0,1-.435-.474,1.3,1.3,0,0,1-.149-.614l.061-16.776a1.3,1.3,0,0,1,.153-.62,1.277,1.277,0,0,1,.437-.47,1.253,1.253,0,0,1,.616-.2,1.231,1.231,0,0,1,.628.136l.049.027,9.051,4.621Zm5.179,1.32-5.336-.021a.652.652,0,0,1-.3-.072l-9.185-4.69-.06,16.712,9.2-4.609a.645.645,0,0,1,.311-.078l5.279.021.07,0a3.415,3.415,0,0,0,2.446-1.048,3.669,3.669,0,0,0,1.039-2.5l0-.068a3.717,3.717,0,0,0-1.026-2.58A3.393,3.393,0,0,0,131.737,248.728Z" transform="translate(-107.916 -242.621)" fill="#7d6eb2" fill-rule="evenodd"/>
          <path id="Trazado_16371" data-name="Trazado 16371" d="M140.771,264.761v5.847a2.091,2.091,0,0,1-2.084,2.084h0a2.091,2.091,0,0,1-2.084-2.084v-5.684l2.987.011A3.983,3.983,0,0,0,140.771,264.761Z" transform="translate(-115.798 -250.916)" fill="#7d6eb2" fill-rule="evenodd"/>
          <rect id="Rectángulo_2807" data-name="Rectángulo 2807" width="0.978" height="8.565" transform="translate(19.453 5.441)" fill="#7d6eb2"/>
          <rect id="Rectángulo_2808" data-name="Rectángulo 2808" width="0.978" height="8.565" transform="translate(22.586 5.441)" fill="#7d6eb2"/>
          <path id="Trazado_16372" data-name="Trazado 16372" d="M109.1,250.324a.651.651,0,0,1-.219,1.283l-5-.871a.651.651,0,1,1,.219-1.283l5,.871Zm-.393,8.075a.65.65,0,0,1,.566,1.171l-3.3,1.591a.65.65,0,1,1-.565-1.171l3.295-1.591Zm.566-11.787a.65.65,0,1,1-.566,1.171l-3.767-1.819a.65.65,0,0,1,.565-1.171l3.767,1.819Zm-.393,7.963a.651.651,0,0,1,.219,1.283l-5,.871a.651.651,0,1,1-.219-1.283Z" transform="translate(-103.335 -243.411)" fill="#7d6eb2" fill-rule="evenodd"/>
        </g>
      </g>
      <g id="Grupo_12340" data-name="Grupo 12340" transform="translate(212.938 98.089)">
        <path id="Trazado_16373" data-name="Trazado 16373" d="M357.929,119.184H325.36a4.313,4.313,0,0,0-4.3,4.3v30.34a.48.48,0,0,0,.819.34l7.33-7.329h28.721a4.313,4.313,0,0,0,4.3-4.3v-19.05A4.313,4.313,0,0,0,357.929,119.184Z" transform="translate(-319.189 -119.184)" fill="#7d6eb2" fill-rule="evenodd"/>
        <path id="Trazado_16374" data-name="Trazado 16374" d="M354.938,119.184H322.37a4.313,4.313,0,0,0-4.3,4.3v30.34a.48.48,0,0,0,.82.34l7.329-7.329h28.72a4.313,4.313,0,0,0,4.3-4.3v-19.05A4.313,4.313,0,0,0,354.938,119.184Z" transform="translate(-318.069 -119.184)" fill="#ffd947" fill-rule="evenodd"/>
        <g id="Grupo_12338" data-name="Grupo 12338" transform="translate(8.06 7.037)">
          <g id="Grupo_12336" data-name="Grupo 12336">
            <path id="Trazado_16375" data-name="Trazado 16375" d="M336.126,136.635a3.1,3.1,0,1,0-3.1-3.1A3.1,3.1,0,0,0,336.126,136.635Z" transform="translate(-331.733 -130.436)" fill="#7d6eb2" fill-rule="evenodd"/>
            <path id="Trazado_16376" data-name="Trazado 16376" d="M335.351,141.917h0a4.407,4.407,0,0,1,4.394,4.394V150.6a.493.493,0,0,1-.492.492h-7.805a.493.493,0,0,1-.491-.492v-4.287A4.407,4.407,0,0,1,335.351,141.917Z" transform="translate(-330.957 -134.737)" fill="#7d6eb2" fill-rule="evenodd"/>
          </g>
          <g id="Grupo_12337" data-name="Grupo 12337" transform="translate(16.264)">
            <path id="Trazado_16377" data-name="Trazado 16377" d="M362.134,136.635a3.1,3.1,0,1,0-3.1-3.1A3.1,3.1,0,0,0,362.134,136.635Z" transform="translate(-357.741 -130.436)" fill="#7d6eb2" fill-rule="evenodd"/>
            <path id="Trazado_16378" data-name="Trazado 16378" d="M361.358,141.917h0a4.407,4.407,0,0,1,4.394,4.394V150.6a.493.493,0,0,1-.492.492h-7.8a.492.492,0,0,1-.491-.492v-4.287A4.406,4.406,0,0,1,361.358,141.917Z" transform="translate(-356.965 -134.737)" fill="#7d6eb2" fill-rule="evenodd"/>
          </g>
        </g>
        <g id="Grupo_12339" data-name="Grupo 12339" transform="translate(15.3 3.72)">
          <path id="Trazado_16379" data-name="Trazado 16379" d="M348.754,132.588a3.727,3.727,0,1,0-3.728-3.728A3.735,3.735,0,0,0,348.754,132.588Z" transform="translate(-343.468 -125.133)" fill="#7d6eb2" fill-rule="evenodd"/>
          <path id="Trazado_16380" data-name="Trazado 16380" d="M347.821,138.942h0a5.3,5.3,0,0,1,5.285,5.286v5.156a.592.592,0,0,1-.591.591h-9.388a.592.592,0,0,1-.591-.591v-5.156A5.3,5.3,0,0,1,347.821,138.942Z" transform="translate(-342.535 -130.306)" fill="#7d6eb2" fill-rule="evenodd"/>
        </g>
      </g>
      <path id="Trazado_16381" data-name="Trazado 16381" d="M416.8,264.583a11.066,11.066,0,1,1-7.824,3.241,11.033,11.033,0,0,1,7.824-3.241Zm9.867,11.656h-4.516a21.911,21.911,0,0,1-.376,3.586,13.475,13.475,0,0,1,3.314,1.212,9.83,9.83,0,0,0,1.578-4.8Zm-5.7,0h-3.58v3.04a22.079,22.079,0,0,1,3.229.311,20.712,20.712,0,0,0,.351-3.351Zm-4.761,0h-3.58a20.575,20.575,0,0,0,.351,3.351,22.086,22.086,0,0,1,3.229-.311v-3.04Zm-4.761,0h-4.516a9.837,9.837,0,0,0,1.579,4.8,13.457,13.457,0,0,1,3.314-1.212,21.911,21.911,0,0,1-.376-3.586Zm-4.516-1.181h4.516a22.282,22.282,0,0,1,.28-3.046,13.087,13.087,0,0,1-3.475-1.333,9.831,9.831,0,0,0-1.321,4.379Zm5.953-2.8a21.071,21.071,0,0,0-.255,2.8h3.58v-2.476a22.105,22.105,0,0,1-3.324-.328Zm7.829,0a22.1,22.1,0,0,1-3.324.328v2.476h3.58a20.95,20.95,0,0,0-.256-2.8Zm1.436,2.8h4.516a9.829,9.829,0,0,0-1.32-4.379,13.112,13.112,0,0,1-3.476,1.333,22.186,22.186,0,0,1,.28,3.046Zm-4.76-9.187V271.4a21.127,21.127,0,0,0,3.1-.305,13.562,13.562,0,0,0-.856-2.61,4.922,4.922,0,0,0-2.245-2.615Zm0,14.589v4.965a4.923,4.923,0,0,0,2.245-2.615,12.949,12.949,0,0,0,.723-2.069,21.072,21.072,0,0,0-2.968-.281Zm-1.181,4.965V280.46a21.089,21.089,0,0,0-2.969.281,12.835,12.835,0,0,0,.724,2.069,4.915,4.915,0,0,0,2.244,2.615Zm0-14.025v-5.529a4.922,4.922,0,0,0-2.245,2.615,13.56,13.56,0,0,0-.856,2.61,21.127,21.127,0,0,0,3.1.305Zm-7.3-1.706a12.029,12.029,0,0,0,3.045,1.158,14.765,14.765,0,0,1,.938-2.855,8.723,8.723,0,0,1,1.092-1.827,9.923,9.923,0,0,0-5.076,3.525Zm12.736,1.158a12.028,12.028,0,0,0,3.045-1.158,9.992,9.992,0,0,0-.9-1.036,9.886,9.886,0,0,0-4.174-2.489A8.776,8.776,0,0,1,420.7,268a14.887,14.887,0,0,1,.937,2.855ZM424.373,282a12.424,12.424,0,0,0-2.862-1.02,14.324,14.324,0,0,1-.807,2.323,8.723,8.723,0,0,1-1.094,1.827,9.886,9.886,0,0,0,4.175-2.488q.308-.309.588-.642Zm-12.293-1.02a12.335,12.335,0,0,0-2.862,1.02q.279.333.588.642a9.873,9.873,0,0,0,4.174,2.488,8.753,8.753,0,0,1-1.093-1.827A14.3,14.3,0,0,1,412.08,280.976Z" transform="translate(-137.973 -75.568)" fill="#fff" fill-rule="evenodd"/>
      <path id="Trazado_16382" data-name="Trazado 16382" d="M73.77,179.7a4.025,4.025,0,0,1,1.59-1.657,2.458,2.458,0,0,0,1.2-1.613,10.418,10.418,0,0,0,.245-2.7.62.62,0,0,1,.62-.62h1.061a1.1,1.1,0,0,1,.319.051,2.292,2.292,0,0,1,1.151,1.072,4.022,4.022,0,0,1,.5,1.965,4.5,4.5,0,0,1-.208,1.341,3.565,3.565,0,0,0-.234,1.483.486.486,0,0,0,.181.025h2.661a3.489,3.489,0,0,1,.9.112,2.129,2.129,0,0,1,1.069.636,2.058,2.058,0,0,1,.484,1.4,3.627,3.627,0,0,1-.1.8,2.844,2.844,0,0,1-.318,3.025,2.459,2.459,0,0,1-.846,2.206,2.61,2.61,0,0,1-2.558,1.9H76.62a4.1,4.1,0,0,1-2.343-.953,1.406,1.406,0,0,1-.365.62l-.022.02a1.372,1.372,0,0,1-.945.377H70.729a1.381,1.381,0,0,1-1.38-1.38v-7a1.38,1.38,0,0,1,.414-.983l.02-.019a1.376,1.376,0,0,1,.946-.377h2.217a1.376,1.376,0,0,1,.824.275Zm.555,6.878a3.927,3.927,0,0,0,2.294,1.3H81.5a1.429,1.429,0,0,0,1.421-1.183.619.619,0,0,1,.33-.428c.45-.225.463-.966.4-1.379a.614.614,0,0,1,.239-.626c.588-.433.389-1.374.138-1.933a.608.608,0,0,1-.053-.452,2.708,2.708,0,0,0,.105-.689.88.88,0,0,0-.174-.583.937.937,0,0,0-.46-.255,2.256,2.256,0,0,0-.582-.068H80.2a1.274,1.274,0,0,1-1.316-.779,3.891,3.891,0,0,1,.187-2.338,3.27,3.27,0,0,0,.152-.973,2.763,2.763,0,0,0-.34-1.355,1.4,1.4,0,0,0-.426-.494h-.413a9.694,9.694,0,0,1-.288,2.418,3.649,3.649,0,0,1-1.807,2.369,3.783,3.783,0,0,0-1.622,2.692v4.753Zm-1.38-5.913H70.729a.129.129,0,0,0-.085.027l-.014.016a.137.137,0,0,0-.042.1v7a.141.141,0,0,0,.042.1.139.139,0,0,0,.1.041h2.217a.126.126,0,0,0,.083-.026l.015-.016a.142.142,0,0,0,.042-.1v-7a.14.14,0,0,0-.043-.1A.139.139,0,0,0,72.946,180.667Z" transform="translate(-11.95 -41.298)" fill="#fff" fill-rule="evenodd"/>
      <g id="Grupo_12341" data-name="Grupo 12341" transform="translate(237.481 80.086)">
        <rect id="Rectángulo_2809" data-name="Rectángulo 2809" width="3.523" height="3.523" rx="1.314" transform="translate(0 7.104)" fill="#fff"/>
        <rect id="Rectángulo_2810" data-name="Rectángulo 2810" width="3.523" height="3.523" rx="1.314" transform="translate(6.517 7.104)" fill="#a6cae4"/>
        <path id="Rectángulo_2811" data-name="Rectángulo 2811" d="M1.314,0h.894A1.314,1.314,0,0,1,3.523,1.314v.894A1.314,1.314,0,0,1,2.208,3.523H1.313A1.313,1.313,0,0,1,0,2.21v-.9A1.314,1.314,0,0,1,1.314,0Z" transform="translate(13.034 7.104)" fill="#fff"/>
        <rect id="Rectángulo_2812" data-name="Rectángulo 2812" width="3.523" height="3.523" rx="1.314" transform="translate(19.551 7.104)" fill="#a6cae4"/>
        <rect id="Rectángulo_2813" data-name="Rectángulo 2813" width="3.522" height="3.523" rx="1.314" transform="translate(26.068 7.104)" fill="#fff"/>
        <rect id="Rectángulo_2814" data-name="Rectángulo 2814" width="3.523" height="3.523" rx="1.314" transform="translate(32.585 7.104)" fill="#fff"/>
        <rect id="Rectángulo_2815" data-name="Rectángulo 2815" width="3.523" height="3.523" rx="1.314" transform="translate(39.102 7.104)" fill="#fff"/>
        <rect id="Rectángulo_2816" data-name="Rectángulo 2816" width="3.523" height="3.523" rx="1.314" transform="translate(19.787)" fill="#fff"/>
        <rect id="Rectángulo_2817" data-name="Rectángulo 2817" width="3.523" height="3.523" rx="1.314" transform="translate(26.304)" fill="#a6cae4"/>
        <rect id="Rectángulo_2818" data-name="Rectángulo 2818" width="3.523" height="3.523" rx="1.314" transform="translate(32.821)" fill="#fff"/>
        <path id="Rectángulo_2819" data-name="Rectángulo 2819" d="M1.314,0h.894A1.314,1.314,0,0,1,3.522,1.314v.895A1.314,1.314,0,0,1,2.209,3.523h-.9A1.313,1.313,0,0,1,0,2.209v-.9A1.314,1.314,0,0,1,1.314,0Z" transform="translate(26.068 14.737)" fill="#fff"/>
        <path id="Rectángulo_2820" data-name="Rectángulo 2820" d="M1.313,0h.9A1.314,1.314,0,0,1,3.523,1.314v.9A1.313,1.313,0,0,1,2.209,3.523h-.9A1.314,1.314,0,0,1,0,2.209v-.9A1.313,1.313,0,0,1,1.313,0Z" transform="translate(32.585 14.737)" fill="#a6cae4"/>
      </g>
      <path id="Trazado_16383" data-name="Trazado 16383" d="M146.588,192.49h0a4.842,4.842,0,0,1,6.829,0l.464.463.463-.463a4.843,4.843,0,0,1,6.829,0h0a4.843,4.843,0,0,1,0,6.83l-.463.463-6.83,6.83-6.83-6.83-.463-.463A4.843,4.843,0,0,1,146.588,192.49Z" transform="translate(-40.359 -48.031)" fill="#fff" fill-rule="evenodd"/>
      <g id="Grupo_12347" data-name="Grupo 12347" transform="translate(79.178 222.846)">
        <g id="Grupo_12345" data-name="Grupo 12345">
          <g id="Grupo_12342" data-name="Grupo 12342" transform="translate(9.568)">
            <path id="Trazado_16384" data-name="Trazado 16384" d="M127.74,320.516c-5.009-5.1-8.735,1.378-8.215,7.882.493,6.165,5.808,27.321,4.823,36.221h2.034C131.36,353.206,134.152,327.045,127.74,320.516Z" transform="translate(-119.476 -318.681)" fill="#63a9ba" fill-rule="evenodd"/>
            <path id="Trazado_16385" data-name="Trazado 16385" d="M128.2,366.285c4.845-17.988-1.289-42.854-1.309-42.938a.288.288,0,0,0-.559.136c.021.084,6.162,24.978,1.28,42.8Z" transform="translate(-122.041 -320.347)" fill="#80b9c9" fill-rule="evenodd"/>
          </g>
          <g id="Grupo_12343" data-name="Grupo 12343" transform="translate(0 12.371)">
            <path id="Trazado_16386" data-name="Trazado 16386" d="M109.65,339.167c-5.278-2.8-6.609,3.305-4.551,8.354,1.705,4.184,9.24,16.559,12.088,24.51h2.683C120.1,361.042,115.881,342.468,109.65,339.167Z" transform="translate(-104.176 -338.463)" fill="#fff" fill-rule="evenodd"/>
            <path id="Trazado_16387" data-name="Trazado 16387" d="M120.449,373.455c-1.746-14.861-11.629-31.014-11.665-31.073a.24.24,0,1,0-.411.25c.035.058,9.855,16.107,11.6,30.823Z" transform="translate(-105.735 -339.888)" fill="#b8b8c1" fill-rule="evenodd"/>
          </g>
          <g id="Grupo_12344" data-name="Grupo 12344" transform="translate(16.366 19.632)">
            <path id="Trazado_16388" data-name="Trazado 16388" d="M141.764,350.57c5.116-2.234,5.927,3.545,3.654,8.105-1.538,3.086-7.08,10.985-10.812,17.705h-4.259C131.8,366.214,136.476,352.88,141.764,350.57Z" transform="translate(-130.347 -350.074)" fill="#3a7f80" fill-rule="evenodd"/>
            <path id="Trazado_16389" data-name="Trazado 16389" d="M132.779,377.723c3.632-12.317,12-23.924,12.031-23.971a.225.225,0,0,1,.366.261c-.034.046-8.31,11.532-11.934,23.709Z" transform="translate(-131.258 -351.417)" fill="#51a5a5" fill-rule="evenodd"/>
          </g>
        </g>
        <g id="Grupo_12346" data-name="Grupo 12346" transform="translate(6.489 41.139)">
          <path id="Rectángulo_2821" data-name="Rectángulo 2821" d="M1.538,0H18.073a1.538,1.538,0,0,1,1.538,1.538V4.752a1.539,1.539,0,0,1-1.539,1.539H1.538A1.538,1.538,0,0,1,0,4.753V1.538A1.538,1.538,0,0,1,1.538,0Z" fill="url(#linear-gradient-9)"/>
          <path id="Trazado_16390" data-name="Trazado 16390" d="M119.125,390.147h11.62l3.034,2.738-2.479,9.546H118.57l-2.478-9.546Z" transform="translate(-115.129 -386.595)" fill-rule="evenodd" fill="url(#linear-gradient-9)"/>
          <path id="Trazado_16391" data-name="Trazado 16391" d="M133.779,394.525l-.51,1.962H116.6l-.51-1.962Z" transform="translate(-115.129 -388.235)" fill-rule="evenodd" fill="url(#linear-gradient-9)"/>
        </g>
      </g>
      <circle id="Elipse_641" data-name="Elipse 641" cx="1.644" cy="1.644" r="1.644" transform="translate(186.811 85.605)" fill="#a6cae4"/>
      <circle id="Elipse_642" data-name="Elipse 642" cx="1.644" cy="1.644" r="1.644" transform="translate(213.585 179.783)" fill="#a6cae4"/>
      <circle id="Elipse_643" data-name="Elipse 643" cx="1.644" cy="1.644" r="1.644" transform="translate(246.935 248.361)" fill="#a6cae4"/>
      <circle id="Elipse_644" data-name="Elipse 644" cx="1.644" cy="1.644" r="1.644" transform="translate(55.292 235.209)" fill="#a6cae4"/>
      <path id="Trazado_16392" data-name="Trazado 16392" d="M383.09,182.5a1.644,1.644,0,1,0-1.644-1.644A1.647,1.647,0,0,0,383.09,182.5Z" transform="translate(-128.875 -43.585)" fill="#a6cae4" fill-rule="evenodd"/>
      <circle id="Elipse_645" data-name="Elipse 645" cx="1.644" cy="1.644" r="1.644" transform="translate(104.612 124.826)" fill="#a6cae4"/>
      <circle id="Elipse_646" data-name="Elipse 646" cx="1.644" cy="1.644" r="1.644" transform="translate(100.619 219.239)" fill="#fff"/>
      <circle id="Elipse_647" data-name="Elipse 647" cx="1.644" cy="1.644" r="1.644" transform="translate(257.738 211.019)" fill="#fff"/>
      <path id="Trazado_16393" data-name="Trazado 16393" d="M338.776,191.892a1.644,1.644,0,1,0-1.645-1.644A1.647,1.647,0,0,0,338.776,191.892Z" transform="translate(-112.273 -47.103)" fill="#fff" fill-rule="evenodd"/>
      <circle id="Elipse_648" data-name="Elipse 648" cx="1.644" cy="1.644" r="1.644" transform="translate(211.471 80.673)" fill="#fff"/>
      <circle id="Elipse_649" data-name="Elipse 649" cx="1.644" cy="1.644" r="1.644" transform="translate(277.701 122.008)" fill="#fff"/>
      <g id="Grupo_12348" data-name="Grupo 12348" transform="translate(232.818 245.145)">
        <path id="Trazado_16394" data-name="Trazado 16394" d="M379.086,384.49a5.374,5.374,0,1,1-3.8,1.575,5.36,5.36,0,0,1,3.8-1.575Zm2.318,3.058a3.278,3.278,0,1,0,.959,2.317A3.269,3.269,0,0,0,381.4,387.548Z" transform="translate(-358.796 -365.635)" fill="#d2b236" fill-rule="evenodd"/>
        <path id="Trazado_16395" data-name="Trazado 16395" d="M363.571,399.156h0a8.454,8.454,0,0,0,8.43-8.43v-8.786a.748.748,0,0,0-.747-.745H355.888a.747.747,0,0,0-.746.745v8.786A8.453,8.453,0,0,0,363.571,399.156Z" transform="translate(-351.839 -364.4)" fill="#ffd947" fill-rule="evenodd"/>
        <path id="Trazado_16396" data-name="Trazado 16396" d="M371.608,389.672a8.362,8.362,0,0,1-.407,2.584,8.274,8.274,0,0,1-.561,1.326,8.51,8.51,0,0,1-4.239,3.876,8.406,8.406,0,0,1-4.6.53,8.386,8.386,0,0,0,9.327-.53,8.531,8.531,0,0,0,2.267-2.574,8.359,8.359,0,0,0,1.1-4.159v-8.786a.748.748,0,0,0-.747-.745h-2.14v8.478Z" transform="translate(-354.332 -364.4)" fill="#d2b236" fill-rule="evenodd"/>
        <path id="Trazado_16397" data-name="Trazado 16397" d="M356.265,408.569h14.613A1.127,1.127,0,0,0,372,407.445h0a1.127,1.127,0,0,0-1.124-1.124H356.265a1.127,1.127,0,0,0-1.123,1.124h0A1.127,1.127,0,0,0,356.265,408.569Z" transform="translate(-351.839 -373.814)" fill="#d2b236" fill-rule="evenodd"/>
        <path id="Rectángulo_2822" data-name="Rectángulo 2822" d="M1.42,0h0A1.42,1.42,0,0,1,2.84,1.42V6.505a1.42,1.42,0,0,1-1.42,1.42h0A1.42,1.42,0,0,1,0,6.505V1.42A1.42,1.42,0,0,1,1.42,0Z" transform="translate(4.583 18.396)" fill="#d2b236"/>
        <path id="Trazado_16398" data-name="Trazado 16398" d="M354.393,360.739h6.427a.889.889,0,0,0,.886-.886h0a.889.889,0,0,0-.886-.886h-8.645a2.322,2.322,0,0,1-2.314-2.314h0a2.321,2.321,0,0,1,2.314-2.314h22.48a2.321,2.321,0,0,1,2.314,2.314h0a2.321,2.321,0,0,1-2.314,2.314h-7.841a.888.888,0,0,0-.886.886h0a.889.889,0,0,0,.886.886h3.017a1.791,1.791,0,0,1,1.786,1.786h0a1.791,1.791,0,0,1-1.786,1.785h-4.99a3.561,3.561,0,0,0-3.55,3.551v1.628a.841.841,0,0,1-.839.838h0a.84.84,0,0,1-.839-.838v-3.1a2.088,2.088,0,0,0-2.081-2.082h-3.14a1.791,1.791,0,0,1-1.785-1.785h0A1.791,1.791,0,0,1,354.393,360.739Z" transform="translate(-349.86 -354.339)" fill="#fff" fill-rule="evenodd"/>
      </g>
    </g>
  </g>
</svg>
