<svg xmlns="http://www.w3.org/2000/svg" xmlns:xlink="http://www.w3.org/1999/xlink" width="254.5" height="238.575" viewBox="0 0 254.5 238.575">
  <defs>
    <linearGradient id="linear-gradient" x1="0.5" x2="0.5" y2="1" gradientUnits="objectBoundingBox">
      <stop offset="0" stop-color="#fff"/>
      <stop offset="1" stop-color="#d2e6ee"/>
    </linearGradient>
    <linearGradient id="linear-gradient-7" x1="-19.527" y1="26.574" x2="-18.481" y2="26.574" xlink:href="#linear-gradient"/>
    <linearGradient id="linear-gradient-8" x1="-28.053" y1="40.71" x2="-27.008" y2="40.71" xlink:href="#linear-gradient"/>
    <linearGradient id="linear-gradient-9" y1="0.5" x2="1" y2="0.5" gradientUnits="objectBoundingBox">
      <stop offset="0" stop-color="#f9b776"/>
      <stop offset="1" stop-color="#f47960"/>
    </linearGradient>
    <linearGradient id="linear-gradient-11" x1="-0.138" y1="0.775" x2="1.475" y2="-0.237" xlink:href="#linear-gradient"/>
    <linearGradient id="linear-gradient-13" x1="78.211" y1="1.605" x2="80.211" y2="4.278" xlink:href="#linear-gradient-9"/>
    <linearGradient id="linear-gradient-14" x1="0.339" y1="0.706" x2="2.358" y2="-1.072" xlink:href="#linear-gradient-9"/>
    <linearGradient id="linear-gradient-15" x1="-0.241" y1="1.066" x2="3.808" y2="-1.521" xlink:href="#linear-gradient"/>
    <linearGradient id="linear-gradient-19" x1="-41.391" y1="-14.688" x2="-41.713" y2="-15.754" xlink:href="#linear-gradient-9"/>
    <linearGradient id="linear-gradient-20" x1="-136.11" y1="-73.662" x2="-137.053" y2="-78.309" xlink:href="#linear-gradient-9"/>
  </defs>
  <g id="Grupo_179443" data-name="Grupo 179443" transform="translate(-4880.504 7992.931)">
    <g id="Grupo_176498" data-name="Grupo 176498" transform="translate(4416.092 -8471.801)">
      <g id="Grupo_46142" data-name="Grupo 46142" transform="translate(467.686 478.87)">
        <g id="Grupo_46137" data-name="Grupo 46137" transform="translate(0 11.721)">
          <g id="Grupo_46134" data-name="Grupo 46134">
            <path id="Trazado_96135" data-name="Trazado 96135" d="M503.395,1093.48a.38.38,0,0,1-.246-.326c-.037-.5-.064-1-.081-1.5a.368.368,0,0,1,.366-.378c.506-.011.369.494.469,1.836a.367.367,0,0,1-.35.393A.389.389,0,0,1,503.395,1093.48Z" transform="translate(-503.068 -1054.087)" fill="#00223d"/>
            <path id="Trazado_96136" data-name="Trazado 96136" d="M504.769,699.928c.093-.951.225-1.91.393-2.85a.372.372,0,0,1,.438-.3c.56.109.195.425-.078,3.227a.37.37,0,0,1-.413.329A.38.38,0,0,1,504.769,699.928Zm1.509-7.382c.288-.915.619-1.836.971-2.7a.379.379,0,0,1,.7.284c-.35.866-.669,1.755-.951,2.65a.379.379,0,0,1-.723-.23Zm3-6.908c.469-.831.978-1.653,1.513-2.444a.379.379,0,0,1,.632.418c-.524.776-1.023,1.581-1.483,2.395A.379.379,0,0,1,509.274,685.637Zm4.421-5.616a.368.368,0,0,1-.04-.525c.634-.716,1.306-1.416,2-2.081.355-.342.888.194.534.535-.677.652-1.335,1.338-1.957,2.039A.382.382,0,0,1,513.7,680.021Zm5.47-5.116a.366.366,0,0,1,.069-.521c.772-.572,1.576-1.121,2.391-1.632a.376.376,0,0,1,.413.629c-.8.5-1.587,1.038-2.343,1.6A.385.385,0,0,1,519.165,674.905Zm6.637-3.712a.381.381,0,0,1-.209-.19.365.365,0,0,1,.175-.494c.876-.405,1.779-.781,2.684-1.117a.385.385,0,0,1,.491.217.365.365,0,0,1-.214.479c-.886.329-1.771.7-2.63,1.094A.383.383,0,0,1,525.8,671.194Zm7.142-2.457a.381.381,0,0,1-.236-.261.366.366,0,0,1,.274-.448c.943-.22,1.907-.407,2.866-.554a.384.384,0,0,1,.437.31.366.366,0,0,1-.309.425c-.94.144-1.884.327-2.808.543A.383.383,0,0,1,532.945,668.737Zm7.277-1.3a.368.368,0,0,1,.362-.382c.971-.026,1.957-.013,2.931.036a.372.372,0,1,1-.028.743c-.954-.049-1.92-.061-2.871-.035A.383.383,0,0,1,540.221,667.432Zm24.239,8.079c-2.266-1.73-2.776-1.7-2.465-2.172a.38.38,0,0,1,.523-.1c.818.53,1.626,1.1,2.4,1.69A.372.372,0,1,1,564.46,675.511Zm-16.644-7.585a.371.371,0,0,1,.435-.3c.959.17,1.924.38,2.87.623a.371.371,0,1,1-.181.719c-.927-.238-1.873-.444-2.813-.611A.379.379,0,0,1,547.816,667.927Zm10.217,3.636c-2.565-1.24-3.064-1.112-2.857-1.637a.385.385,0,0,1,.489-.207c.911.357,1.817.754,2.694,1.177a.371.371,0,1,1-.325.667Z" transform="translate(-504.618 -667.038)" fill="#00223d"/>
            <path id="Trazado_96137" data-name="Trazado 96137" d="M1225.953,793.264c-.869-.928-1.408-1.243-1.047-1.6a.382.382,0,0,1,.535,0c.937.924,1.407,1.292,1.047,1.618A.432.432,0,0,1,1225.953,793.264Z" transform="translate(-1161.528 -780.646)" fill="#00223d"/>
          </g>
          <g id="Grupo_46135" data-name="Grupo 46135" transform="translate(8.861 37.521)">
            <path id="Trazado_96138" data-name="Trazado 96138" d="M1350.908,1097.282a.379.379,0,0,1-.247-.372c.026-.489.042-.983.048-1.47a.369.369,0,0,1,.383-.362.382.382,0,0,1,.374.382c-.006.5-.023,1-.05,1.5a.369.369,0,0,1-.4.346A.388.388,0,0,1,1350.908,1097.282Z" transform="translate(-1285.224 -1095.077)" fill="#00223d"/>
            <path id="Trazado_96139" data-name="Trazado 96139" d="M667.832,1195.409c-.973-.4-1.942-.842-2.877-1.318a.373.373,0,0,1-.168-.5c.265-.513.479-.032,3.327,1.134a.374.374,0,0,1,.21.487A.385.385,0,0,1,667.832,1195.409Zm4.6,1.173c.143-.558.474-.132,3.486.4a.379.379,0,0,1,.312.432.371.371,0,0,1-.435.3c-1.031-.182-2.07-.41-3.088-.677A.377.377,0,0,1,672.433,1196.582Zm-11.89-5.122c-.862-.6-1.711-1.237-2.521-1.9a.369.369,0,0,1-.052-.524c.374-.442.475.073,3,1.822a.371.371,0,0,1,.1.519A.381.381,0,0,1,660.543,1191.46Zm20.233,6.784a.379.379,0,0,1-.247-.363.369.369,0,0,1,.388-.356c1.028.041,2.068.04,3.091,0a.382.382,0,0,1,.4.355.368.368,0,0,1-.355.388c-1.044.045-2.106.046-3.155,0A.4.4,0,0,1,680.776,1198.243Zm8.151-.561a.382.382,0,0,1-.241-.28.366.366,0,0,1,.3-.433c1.006-.181,2.017-.407,3-.671a.385.385,0,0,1,.468.262.366.366,0,0,1-.259.456c-1.008.27-2.039.5-3.066.685A.387.387,0,0,1,688.927,1197.683Zm7.8-2.307a.383.383,0,0,1-.215-.2.365.365,0,0,1,.193-.488c.939-.394,1.872-.832,2.774-1.3a.386.386,0,0,1,.513.156.365.365,0,0,1-.151.5c-.92.48-1.872.927-2.83,1.329A.383.383,0,0,1,696.73,1195.375Zm7.08-3.932a.385.385,0,0,1-.173-.13.366.366,0,0,1,.08-.519c.826-.586,1.637-1.215,2.41-1.869a.383.383,0,0,1,.534.043.366.366,0,0,1-.035.524c-.789.667-1.616,1.309-2.459,1.907A.381.381,0,0,1,703.81,1191.443Zm5.9-5.439c-.444-.385.079-.463,1.888-2.875a.379.379,0,0,1,.611.447c-.617.823-1.279,1.63-1.966,2.4A.382.382,0,0,1,709.709,1186Zm4.717-6.51c-.518-.281-.03-.466,1.19-3.221a.38.38,0,0,1,.695.305c-.416.94-.878,1.873-1.373,2.772A.378.378,0,0,1,714.426,1179.494Zm3.1-7.4a.376.376,0,0,1-.233-.452c.278-.972.517-1.964.709-2.948a.372.372,0,0,1,.443-.288.379.379,0,0,1,.3.44c-.2,1-.44,2.016-.724,3.008a.374.374,0,0,1-.466.251Z" transform="translate(-653.174 -1161.972)" fill="#00223d"/>
            <path id="Trazado_96140" data-name="Trazado 96140" d="M605.255,1351.142c-.895-.966-1.346-1.354-.97-1.663.391-.321.61.177,1.526,1.167a.367.367,0,0,1-.021.525A.384.384,0,0,1,605.255,1351.142Z" transform="translate(-604.152 -1327.09)" fill="#00223d"/>
          </g>
          <g id="Grupo_46136" data-name="Grupo 46136" transform="translate(9.4 8.985)">
            <path id="Trazado_96141" data-name="Trazado 96141" d="M615.006,812.723l5.377-.666a24.073,24.073,0,0,0,5.831,4.975c.21,5.185-.143,5.563.411,5.748l6.2,2.064a.446.446,0,0,0,.494-.146l3.264-4.213a23.981,23.981,0,0,0,7.64-.488l3.912,3.76a.455.455,0,0,0,.512.082l5.8-2.826a.429.429,0,0,0,.239-.448l-.759-5.3a22.857,22.857,0,0,0,4.974-5.657l5.426-.02a.437.437,0,0,0,.416-.3l2.007-6.061a.439.439,0,0,0-.156-.488l-4.336-3.272a22.941,22.941,0,0,0-.612-7.518c3.6-3.778,4.106-3.781,3.843-4.291-3.005-5.585-2.834-6.06-3.423-5.987l-5.377.666a24.071,24.071,0,0,0-5.831-4.975c-.209-5.182.143-5.563-.411-5.748-6.192-1.945-6.34-2.371-6.691-1.918l-3.264,4.213a23.974,23.974,0,0,0-7.64.488c-3.851-3.552-3.9-4.1-4.424-3.843-5.691,2.9-6.122,2.7-6.04,3.274l.759,5.3a22.853,22.853,0,0,0-4.973,5.657c-5.179.125-5.659-.236-5.842.317-1.877,6.032-2.32,6.195-1.851,6.549l4.336,3.272a22.944,22.944,0,0,0,.612,7.518c-3.588,3.765-4.107,3.778-3.843,4.291C614.589,812.321,614.417,812.8,615.006,812.723Z" transform="translate(-610.306 -769.538)" fill="#7d6eb2"/>
            <path id="Trazado_96142" data-name="Trazado 96142" d="M859.9,1019.637a6.211,6.211,0,0,1,6.756-5.718,6.4,6.4,0,0,1,5.92,6.728,6.212,6.212,0,0,1-6.756,5.718h0A6.4,6.4,0,0,1,859.9,1019.637Zm5.957,6.172h0Zm.724-10.778a5.1,5.1,0,0,0-5.548,4.7,5.257,5.257,0,0,0,4.862,5.526,5.1,5.1,0,0,0,5.548-4.7A5.257,5.257,0,0,0,866.584,1015.032Z" transform="translate(-838.011 -992.479)" fill="url(#linear-gradient)"/>
            <path id="Trazado_96143" data-name="Trazado 96143" d="M758.523,932.987h0a16.78,16.78,0,0,1-2.538-1.209.561.561,0,0,1-.248-.679.538.538,0,0,1,.042-.087.569.569,0,0,1,.776-.191,15.71,15.71,0,0,0,2.948,1.333h0a15.025,15.025,0,0,0,18.877-8.722q.107-.284.2-.574a15.2,15.2,0,0,0-28.827-9.6c-1.537,4.643-.194,7.759-.374,8.236a.572.572,0,0,1-1.086-.083,15.693,15.693,0,0,1,.6-9.13c4.9-12.965,23.348-13.755,29.777-1.287a15.706,15.706,0,0,1,.99,12.227q-.1.314-.22.622a15.652,15.652,0,0,1-7.865,8.581,16.385,16.385,0,0,1-12.425.789Q758.836,933.1,758.523,932.987Z" transform="translate(-735.823 -890.464)" fill="url(#linear-gradient)"/>
          </g>
        </g>
        <g id="Grupo_46141" data-name="Grupo 46141" transform="translate(63.584 0)">
          <g id="Grupo_46138" data-name="Grupo 46138">
            <path id="Trazado_96144" data-name="Trazado 96144" d="M1228.641,792.023a.231.231,0,0,1-.15-.2c-.022-.3-.039-.607-.049-.911a.223.223,0,0,1,.222-.229c.307-.007.224.3.285,1.114a.223.223,0,0,1-.212.238A.235.235,0,0,1,1228.641,792.023Z" transform="translate(-1228.443 -768.125)" fill="#00223d"/>
            <path id="Trazado_96145" data-name="Trazado 96145" d="M1229.474,553.271c.056-.577.136-1.159.239-1.729a.225.225,0,0,1,.266-.179c.34.066.118.258-.047,1.958a.224.224,0,0,1-.25.2A.231.231,0,0,1,1229.474,553.271Zm.915-4.479c.175-.555.375-1.114.589-1.641a.23.23,0,0,1,.427.172c-.212.525-.406,1.064-.577,1.608a.23.23,0,0,1-.439-.139Zm1.818-4.191c.285-.5.593-1,.918-1.483a.23.23,0,0,1,.384.254c-.318.471-.621.959-.9,1.453A.23.23,0,0,1,1232.207,544.6Zm2.682-3.407a.223.223,0,0,1-.025-.318c.385-.434.792-.859,1.211-1.263.216-.207.539.117.324.325-.41.4-.81.812-1.187,1.237A.231.231,0,0,1,1234.89,541.195Zm3.318-3.1a.222.222,0,0,1,.042-.316c.468-.347.956-.68,1.451-.99a.228.228,0,0,1,.251.382c-.484.3-.963.63-1.421.97A.234.234,0,0,1,1238.208,538.091Zm4.026-2.252a.232.232,0,0,1-.127-.115.221.221,0,0,1,.106-.3c.532-.246,1.08-.474,1.629-.678a.234.234,0,0,1,.3.132.222.222,0,0,1-.13.291c-.538.2-1.075.423-1.6.664A.233.233,0,0,1,1242.234,535.839Zm4.333-1.49a.232.232,0,0,1-.143-.159.222.222,0,0,1,.166-.272c.572-.134,1.157-.247,1.739-.336a.233.233,0,0,1,.265.188.223.223,0,0,1-.187.258c-.57.087-1.143.2-1.7.329A.232.232,0,0,1,1246.568,534.349Zm4.414-.792a.223.223,0,0,1,.22-.232c.589-.016,1.188-.008,1.778.022a.226.226,0,1,1-.017.451c-.579-.03-1.165-.037-1.742-.022A.232.232,0,0,1,1250.982,533.558Zm14.7,4.9c-1.375-1.05-1.684-1.033-1.5-1.318a.23.23,0,0,1,.317-.063c.5.322.986.667,1.456,1.026A.225.225,0,1,1,1265.687,538.459Zm-10.1-4.6a.225.225,0,0,1,.264-.182c.582.1,1.167.23,1.741.378a.225.225,0,1,1-.11.436c-.562-.145-1.136-.269-1.706-.37A.23.23,0,0,1,1255.589,533.857Zm6.2,2.206c-1.556-.752-1.859-.675-1.734-.993a.234.234,0,0,1,.3-.125c.552.217,1.1.457,1.634.714a.225.225,0,1,1-.2.4Z" transform="translate(-1229.383 -533.318)" fill="#00223d"/>
            <path id="Trazado_96146" data-name="Trazado 96146" d="M1666.989,609.894c-.527-.563-.854-.754-.635-.969a.232.232,0,0,1,.324,0c.569.56.854.784.635.981A.262.262,0,0,1,1666.989,609.894Z" transform="translate(-1627.905 -602.239)" fill="#00223d"/>
          </g>
          <g id="Grupo_46139" data-name="Grupo 46139" transform="translate(5.375 22.762)">
            <path id="Trazado_96147" data-name="Trazado 96147" d="M1742.794,794.33a.23.23,0,0,1-.15-.226c.016-.3.026-.6.03-.892a.223.223,0,0,1,.232-.219.232.232,0,0,1,.227.232c0,.3-.014.608-.03.91a.224.224,0,0,1-.241.21A.235.235,0,0,1,1742.794,794.33Z" transform="translate(-1702.946 -792.993)" fill="#00223d"/>
            <path id="Trazado_96148" data-name="Trazado 96148" d="M1328.4,853.86c-.59-.242-1.178-.51-1.745-.8a.226.226,0,0,1-.1-.3c.16-.311.291-.019,2.019.688a.227.227,0,0,1,.127.3A.234.234,0,0,1,1328.4,853.86Zm2.791.712c.087-.338.288-.08,2.115.243a.229.229,0,0,1,.189.262.225.225,0,0,1-.264.182c-.625-.11-1.255-.249-1.874-.411A.229.229,0,0,1,1331.19,854.572Zm-7.213-3.108c-.523-.362-1.038-.751-1.53-1.155a.224.224,0,0,1-.031-.318c.227-.268.288.044,1.822,1.105a.225.225,0,0,1,.059.315A.231.231,0,0,1,1323.976,851.464Zm12.274,4.116a.23.23,0,0,1-.15-.22.224.224,0,0,1,.235-.216c.624.025,1.255.024,1.875,0a.232.232,0,0,1,.243.216.223.223,0,0,1-.216.235c-.634.027-1.278.028-1.914,0A.242.242,0,0,1,1336.251,855.58Zm4.945-.34a.231.231,0,0,1-.146-.17.222.222,0,0,1,.18-.262c.611-.11,1.224-.247,1.823-.407a.234.234,0,0,1,.284.159.222.222,0,0,1-.157.277c-.611.164-1.237.3-1.86.416A.235.235,0,0,1,1341.2,855.24Zm4.734-1.4a.232.232,0,0,1-.131-.122.222.222,0,0,1,.117-.3c.57-.239,1.136-.5,1.683-.79a.234.234,0,0,1,.311.095.222.222,0,0,1-.091.3c-.558.291-1.136.562-1.717.806A.232.232,0,0,1,1345.93,853.84Zm4.3-2.385a.232.232,0,0,1-.105-.079.222.222,0,0,1,.049-.315c.5-.356.993-.737,1.462-1.134a.233.233,0,0,1,.324.026.222.222,0,0,1-.021.318c-.478.4-.98.794-1.492,1.157A.232.232,0,0,1,1350.225,851.454Zm3.579-3.3c-.269-.234.048-.281,1.146-1.744a.23.23,0,0,1,.371.271c-.375.5-.776.989-1.193,1.455A.232.232,0,0,1,1353.8,848.155Zm2.861-3.95c-.314-.17-.018-.283.722-1.954a.23.23,0,0,1,.421.185c-.253.57-.533,1.136-.833,1.681A.229.229,0,0,1,1356.665,844.205Zm1.88-4.488a.228.228,0,0,1-.141-.274c.169-.59.313-1.192.43-1.788a.226.226,0,0,1,.269-.175.23.23,0,0,1,.182.267c-.119.609-.267,1.223-.439,1.825a.226.226,0,0,1-.283.152Z" transform="translate(-1319.506 -833.576)" fill="#00223d"/>
            <path id="Trazado_96149" data-name="Trazado 96149" d="M1290.435,948.337c-.543-.586-.817-.822-.589-1.009s.37.107.926.708a.222.222,0,0,1-.013.318A.233.233,0,0,1,1290.435,948.337Z" transform="translate(-1289.766 -933.746)" fill="#00223d"/>
          </g>
          <g id="Grupo_46140" data-name="Grupo 46140" transform="translate(5.703 5.451)">
            <path id="Trazado_96150" data-name="Trazado 96150" d="M1296.351,621.7l3.262-.4a14.6,14.6,0,0,0,3.537,3.018c.127,3.146-.087,3.375.25,3.487l3.759,1.252a.27.27,0,0,0,.3-.089l1.98-2.556a14.548,14.548,0,0,0,4.635-.3l2.373,2.281a.276.276,0,0,0,.311.05l3.519-1.715a.26.26,0,0,0,.145-.272l-.46-3.213a13.872,13.872,0,0,0,3.017-3.432l3.292-.012a.266.266,0,0,0,.252-.18l1.217-3.677a.267.267,0,0,0-.095-.3l-2.63-1.985a13.919,13.919,0,0,0-.371-4.561c2.184-2.292,2.491-2.294,2.331-2.6-1.823-3.388-1.719-3.676-2.076-3.632l-3.262.4a14.6,14.6,0,0,0-3.538-3.018c-.127-3.144.087-3.375-.249-3.487-3.756-1.18-3.846-1.439-4.059-1.164l-1.98,2.556a14.544,14.544,0,0,0-4.635.3c-2.336-2.155-2.367-2.486-2.684-2.331-3.453,1.758-3.714,1.639-3.664,1.986l.46,3.213a13.862,13.862,0,0,0-3.017,3.432c-3.142.076-3.433-.143-3.544.193-1.139,3.659-1.407,3.758-1.123,3.973l2.63,1.985a13.933,13.933,0,0,0,.371,4.561c-2.176,2.284-2.491,2.292-2.331,2.6C1296.1,621.455,1295.994,621.744,1296.351,621.7Z" transform="translate(-1293.499 -595.5)" fill="#f6c343"/>
            <path id="Trazado_96151" data-name="Trazado 96151" d="M1444.92,747.226a3.768,3.768,0,0,1,4.1-3.469,3.884,3.884,0,0,1,3.591,4.082,3.768,3.768,0,0,1-4.1,3.469h0A3.883,3.883,0,0,1,1444.92,747.226Zm3.614,3.744h0Zm.439-6.538a3.091,3.091,0,0,0-3.366,2.849,3.189,3.189,0,0,0,2.949,3.352,3.094,3.094,0,0,0,3.366-2.849A3.189,3.189,0,0,0,1448.973,744.432Z" transform="translate(-1431.639 -730.75)" fill="url(#linear-gradient)"/>
            <path id="Trazado_96152" data-name="Trazado 96152" d="M1383.418,694.658h0a10.179,10.179,0,0,1-1.54-.734.34.34,0,0,1-.151-.412.349.349,0,0,1,.026-.053.345.345,0,0,1,.471-.116,9.534,9.534,0,0,0,1.788.809h0a9.115,9.115,0,0,0,11.452-5.291q.065-.172.123-.348a9.219,9.219,0,0,0-17.488-5.826,10.23,10.23,0,0,0-.227,5,.347.347,0,0,1-.658-.05,9.518,9.518,0,0,1,.363-5.539c2.971-7.865,14.164-8.344,18.065-.781a9.528,9.528,0,0,1,.6,7.417q-.063.191-.133.377a9.5,9.5,0,0,1-4.771,5.206,9.941,9.941,0,0,1-7.538.478C1383.672,694.751,1383.544,694.706,1383.418,694.658Z" transform="translate(-1369.646 -668.861)" fill="url(#linear-gradient)"/>
          </g>
        </g>
      </g>
      <g id="Grupo_46143" data-name="Grupo 46143" transform="translate(464.412 494.503)">
        <path id="Trazado_96153" data-name="Trazado 96153" d="M1054.418,2269.109h-34c-2.383,0-4.582,1.736-4.582,2.941v73.8c0,1.2,2.2,2.39,4.582,2.39h34c2.383,0,5.14-1.186,5.14-2.39v-73.8C1059.559,2270.845,1056.8,2269.109,1054.418,2269.109Z" transform="translate(-967.619 -2132.587)" fill="#00223d"/>
        <path id="Trazado_96154" data-name="Trazado 96154" d="M508.374,2564.617c0-.623-2.148-1.267-4.531-1.267h-33.61c-2.383,0-4.511.644-4.511,1.267v50.856c0,.623,2.128,1.211,4.511,1.211h33.61c2.383,0,4.531-.588,4.531-1.211Z" transform="translate(-465.723 -2401.036)" fill="#00223d"/>
        <path id="Trazado_96155" data-name="Trazado 96155" d="M2708.879,1172.341c0-1.531-2.562-2.686-4.945-2.686h-34.024c-2.383,0-4.215,1.155-4.215,2.686v169.592c0,1.531,1.832,3.224,4.215,3.224h34.024c2.383,0,4.945-1.693,4.945-3.224Z" transform="translate(-2472.851 -1129.509)" fill="#00223d"/>
        <path id="Trazado_96156" data-name="Trazado 96156" d="M1621.266,1901.573c0-1.128-2.055-2.171-4.437-2.171h-33.61c-2.383,0-4.071,1.043-4.071,2.171v107.2c0,1.128,1.688,2.167,4.071,2.167h33.61c2.383,0,4.437-1.039,4.437-2.167Z" transform="translate(-1481.548 -1795.288)" fill="#00223d"/>
        <path id="Trazado_96157" data-name="Trazado 96157" d="M2167.177,1524.407c0-1.266-1.887-2.108-4.269-2.108H2129.3c-2.383,0-4.239.842-4.239,2.108v140.3c0,1.265,1.856,2.184,4.239,2.184h33.61c2.383,0,4.269-.919,4.269-2.184Z" transform="translate(-1979.606 -1451.242)" fill="#00223d"/>
        <path id="Trazado_96158" data-name="Trazado 96158" d="M2570.049,752.588l27.206-40.047a1.952,1.952,0,0,1,3.247-.024l28.048,40.047a2.092,2.092,0,0,1-1.615,3.315h-55.254A2.091,2.091,0,0,1,2570.049,752.588Z" transform="translate(-2385.251 -711.661)" fill="#00223d"/>
      </g>
      <g id="Grupo_46146" data-name="Grupo 46146" transform="translate(642.669 588.399)">
        <g id="Grupo_46145" data-name="Grupo 46145" transform="translate(0 0)">
          <circle id="Elipse_3866" data-name="Elipse 3866" cx="26.956" cy="26.956" r="26.956" transform="translate(0 38.121) rotate(-45)" fill="#00223d"/>
          <circle id="Elipse_3867" data-name="Elipse 3867" cx="26.06" cy="26.06" r="26.06" transform="translate(1.268 38.121) rotate(-45)" fill="#f6c343"/>
          <path id="Trazado_96159" data-name="Trazado 96159" d="M2682.821,1950.9a.588.588,0,0,1-.269-.064.6.6,0,0,1-.265-.8,24.55,24.55,0,0,1,22.022-13.559,24.846,24.846,0,0,1,4.447.4.6.6,0,1,1-.214,1.176,23.646,23.646,0,0,0-4.233-.381,23.361,23.361,0,0,0-20.955,12.9A.6.6,0,0,1,2682.821,1950.9Z" transform="translate(-2666.189 -1923.001)" fill="#fff"/>
          <circle id="Elipse_3868" data-name="Elipse 3868" cx="22.056" cy="22.056" r="22.056" transform="translate(7.497 38.689) rotate(-45)" opacity="0.78" fill="url(#linear-gradient)"/>
          <g id="Grupo_46144" data-name="Grupo 46144" transform="translate(28.975 23.079)">
            <path id="Trazado_96160" data-name="Trazado 96160" d="M2837.388,2078.127v-2.4a19.581,19.581,0,0,1-6.733-1.46,1.388,1.388,0,0,1-.767-1.64l.609-2.235a1.4,1.4,0,0,1,1.9-.916,16.244,16.244,0,0,0,6.216,1.309c2.41,0,4.206-.817,4.206-2.491,0-1.511-1.388-2.409-4.737-3.308-4.778-1.307-8.208-3.39-8.208-7.6,0-3.8,2.777-6.7,7.6-7.473v-2.4a1.4,1.4,0,0,1,1.4-1.4h1.411a1.4,1.4,0,0,1,1.4,1.4v2.155a17.84,17.84,0,0,1,5.337.958,1.392,1.392,0,0,1,.87,1.68l-.561,2.067a1.4,1.4,0,0,1-1.841.941,14.566,14.566,0,0,0-5.234-.95c-2.859,0-3.675,1.184-3.675,2.246,0,1.307,1.715,2.206,5.431,3.349,5.309,1.593,7.514,3.8,7.514,7.759,0,3.635-2.7,6.9-7.923,7.718v2.685a1.4,1.4,0,0,1-1.4,1.4h-1.41A1.4,1.4,0,0,1,2837.388,2078.127Z" transform="translate(-2829.838 -2046.12)" fill="#f6c343"/>
          </g>
        </g>
        <rect id="Rectángulo_28275" data-name="Rectángulo 28275" width="52.819" height="10.061" rx="3.634" transform="translate(11.712 72.655)" fill="#f6c343"/>
        <rect id="Rectángulo_28276" data-name="Rectángulo 28276" width="52.819" height="10.061" rx="3.634" transform="translate(11.754 84.014)" fill="#f6c343"/>
        <rect id="Rectángulo_28277" data-name="Rectángulo 28277" width="52.819" height="10.061" rx="3.634" transform="translate(11.795 95.373)" fill="#f6c343"/>
        <rect id="Rectángulo_28278" data-name="Rectángulo 28278" width="52.819" height="10.061" rx="3.634" transform="translate(11.837 106.438)" fill="#f6c343"/>
        <rect id="Rectángulo_28279" data-name="Rectángulo 28279" width="52.819" height="10.061" rx="3.634" transform="translate(11.878 117.503)" fill="#f6c343"/>
      </g>
      <g id="Grupo_46149" data-name="Grupo 46149" transform="translate(585.449 600.346)">
        <g id="Grupo_46148" data-name="Grupo 46148" transform="translate(0 0)">
          <circle id="Elipse_3869" data-name="Elipse 3869" cx="26.956" cy="26.956" r="26.956" transform="translate(0 38.121) rotate(-45)" fill="#00223d"/>
          <circle id="Elipse_3870" data-name="Elipse 3870" cx="26.06" cy="26.06" r="26.06" transform="translate(1.268 38.121) rotate(-45)" fill="#f6c343"/>
          <path id="Trazado_96161" data-name="Trazado 96161" d="M2030.049,2087.19a.591.591,0,0,1-.269-.064.6.6,0,0,1-.264-.8,24.55,24.55,0,0,1,22.022-13.559,24.861,24.861,0,0,1,4.447.4.6.6,0,1,1-.214,1.176,23.678,23.678,0,0,0-4.233-.381,23.361,23.361,0,0,0-20.954,12.9A.6.6,0,0,1,2030.049,2087.19Z" transform="translate(-2013.417 -2059.296)" fill="#fff"/>
          <circle id="Elipse_3871" data-name="Elipse 3871" cx="22.056" cy="22.056" r="22.056" transform="translate(7.497 38.689) rotate(-45)" opacity="0.78" fill="url(#linear-gradient)"/>
          <g id="Grupo_46147" data-name="Grupo 46147" transform="translate(28.975 23.079)">
            <path id="Trazado_96162" data-name="Trazado 96162" d="M2184.617,2214.42v-2.4a19.56,19.56,0,0,1-6.733-1.46,1.388,1.388,0,0,1-.767-1.64l.61-2.235a1.4,1.4,0,0,1,1.9-.915,16.248,16.248,0,0,0,6.217,1.309c2.409,0,4.207-.817,4.207-2.491,0-1.511-1.389-2.409-4.737-3.308-4.778-1.307-8.208-3.389-8.208-7.6,0-3.8,2.777-6.7,7.6-7.473v-2.4a1.4,1.4,0,0,1,1.4-1.4h1.41a1.4,1.4,0,0,1,1.4,1.4v2.155a17.836,17.836,0,0,1,5.337.958,1.391,1.391,0,0,1,.869,1.679l-.56,2.067a1.4,1.4,0,0,1-1.841.942,14.555,14.555,0,0,0-5.234-.95c-2.859,0-3.675,1.184-3.675,2.246,0,1.306,1.715,2.2,5.431,3.348,5.309,1.593,7.514,3.8,7.514,7.759,0,3.635-2.7,6.9-7.922,7.719v2.686a1.4,1.4,0,0,1-1.4,1.4h-1.41A1.4,1.4,0,0,1,2184.617,2214.42Z" transform="translate(-2177.067 -2182.413)" fill="#f6c343"/>
          </g>
        </g>
        <rect id="Rectángulo_28280" data-name="Rectángulo 28280" width="52.819" height="10.061" rx="3.634" transform="translate(11.712 71.479)" fill="#f6c343"/>
        <rect id="Rectángulo_28281" data-name="Rectángulo 28281" width="52.819" height="10.061" rx="3.634" transform="translate(11.754 82.838)" fill="#f6c343"/>
        <rect id="Rectángulo_28282" data-name="Rectángulo 28282" width="52.819" height="10.061" rx="3.634" transform="translate(11.795 94.197)" fill="#f6c343"/>
        <rect id="Rectángulo_28283" data-name="Rectángulo 28283" width="52.819" height="10.061" rx="3.634" transform="translate(11.837 105.556)" fill="#f6c343"/>
      </g>
      <g id="Grupo_46150" data-name="Grupo 46150" transform="translate(483.536 536.602)">
        <path id="Trazado_96163" data-name="Trazado 96163" d="M847.54,2940.024a.44.44,0,0,1-.336-.155q-.384-.451-.759-.908a.441.441,0,1,1,.681-.56q.37.45.75.9a.441.441,0,0,1-.336.727Z" transform="translate(-832.104 -2785.164)" fill="#00223d"/>
        <path id="Trazado_96164" data-name="Trazado 96164" d="M697.118,1344.053a.44.44,0,0,1-.35-.172c-.477-.621-.948-1.256-1.4-1.89a.441.441,0,0,1,.717-.513c.447.625.912,1.253,1.383,1.865a.441.441,0,0,1-.349.709Zm-2.717-3.8a.441.441,0,0,1-.368-.2c-.433-.653-.859-1.32-1.266-1.983a.441.441,0,0,1,.752-.461c.4.654.821,1.312,1.249,1.956a.441.441,0,0,1-.367.685Zm-2.443-3.983a.441.441,0,0,1-.384-.224c-.385-.682-.762-1.378-1.119-2.07a.441.441,0,0,1,.783-.4c.353.682.724,1.369,1.1,2.041a.441.441,0,0,1-.383.658Zm-2.145-4.151a.441.441,0,0,1-.4-.253c-.333-.708-.656-1.431-.96-2.149a.441.441,0,0,1,.812-.344c.3.707.618,1.42.946,2.118a.441.441,0,0,1-.4.629Zm-1.823-4.3a.441.441,0,0,1-.413-.285c-.277-.731-.542-1.478-.789-2.218a.441.441,0,1,1,.836-.279c.243.729.5,1.464.777,2.185a.441.441,0,0,1-.256.568A.435.435,0,0,1,687.99,1327.816Zm-1.477-4.432a.441.441,0,0,1-.423-.319c-.218-.754-.422-1.519-.607-2.275a.441.441,0,0,1,.857-.21c.182.745.383,1.5.6,2.24a.442.442,0,0,1-.424.564Zm-1.11-4.537a.441.441,0,0,1-.432-.354c-.154-.766-.293-1.546-.415-2.318a.441.441,0,1,1,.871-.137c.119.76.257,1.528.408,2.281a.441.441,0,0,1-.345.519A.436.436,0,0,1,685.4,1318.847Zm-.723-4.615a.441.441,0,0,1-.438-.392c-.086-.767-.157-1.556-.211-2.345a.441.441,0,1,1,.88-.06c.053.777.123,1.553.208,2.308a.441.441,0,0,1-.389.487A.427.427,0,0,1,684.68,1314.232Zm-.323-4.66a.441.441,0,0,1-.44-.428c-.017-.592-.026-1.2-.026-1.8q0-.277,0-.555a.441.441,0,0,1,.441-.437h0a.441.441,0,0,1,.437.445q0,.275,0,.548c0,.593.008,1.189.025,1.772a.441.441,0,0,1-.428.453Zm.04-4.672h-.02a.441.441,0,0,1-.421-.46c.034-.773.083-1.563.144-2.348a.441.441,0,1,1,.879.069c-.061.774-.109,1.554-.142,2.318A.441.441,0,0,1,684.4,1304.9Zm.365-4.659a.422.422,0,0,1-.049,0,.441.441,0,0,1-.389-.487c.086-.773.187-1.557.3-2.332a.441.441,0,1,1,.873.126c-.11.766-.21,1.541-.3,2.3A.441.441,0,0,1,684.762,1300.241Zm.668-4.625a.441.441,0,0,1-.435-.518c.136-.767.286-1.543.446-2.308a.441.441,0,1,1,.863.181c-.158.755-.307,1.523-.441,2.281A.441.441,0,0,1,685.43,1295.616Zm.958-4.571a.45.45,0,0,1-.1-.012.441.441,0,0,1-.325-.532c.183-.757.382-1.522.589-2.273a.441.441,0,1,1,.85.235c-.205.743-.4,1.5-.582,2.246A.441.441,0,0,1,686.388,1291.045Zm1.243-4.5a.441.441,0,0,1-.421-.572c.232-.746.479-1.5.734-2.233a.441.441,0,1,1,.833.289c-.252.727-.5,1.469-.725,2.206A.441.441,0,0,1,687.631,1286.545Zm1.531-4.414a.441.441,0,0,1-.411-.6c.281-.732.578-1.466.881-2.181a.441.441,0,0,1,.812.344c-.3.706-.592,1.431-.87,2.153A.441.441,0,0,1,689.162,1282.131Zm1.825-4.3a.441.441,0,0,1-.4-.627c.332-.713.68-1.424,1.033-2.116a.441.441,0,0,1,.785.4c-.349.682-.691,1.384-1.019,2.087A.44.44,0,0,1,690.987,1277.828Zm38.814-2.252a8.041,8.041,0,0,1-1.266-.1.441.441,0,1,1,.139-.871,7.306,7.306,0,0,0,2.194.011.441.441,0,0,1,.126.873A8.4,8.4,0,0,1,729.8,1275.576Zm3.371-.72a.441.441,0,0,1-.173-.847,10.627,10.627,0,0,0,1.951-1.1.441.441,0,0,1,.508.721,11.563,11.563,0,0,1-2.113,1.188A.437.437,0,0,1,733.172,1274.856Zm-6.783-.084a.44.44,0,0,1-.194-.045,9.9,9.9,0,0,1-2.033-1.347.441.441,0,1,1,.571-.672,9.006,9.006,0,0,0,1.851,1.227.441.441,0,0,1-.195.837Zm-33.271-1.107a.441.441,0,0,1-.384-.656c.385-.688.786-1.372,1.192-2.033a.441.441,0,1,1,.752.461c-.4.651-.795,1.325-1.174,2A.441.441,0,0,1,693.117,1273.665Zm43.866-1.462a.441.441,0,0,1-.313-.751,14.876,14.876,0,0,0,1.467-1.728.441.441,0,0,1,.713.519,15.747,15.747,0,0,1-1.555,1.831A.44.44,0,0,1,736.983,1272.2Zm-14.156-.395a.441.441,0,0,1-.343-.164c-.282-.348-.56-.724-.826-1.117-.186-.275-.369-.56-.542-.848a.441.441,0,0,1,.755-.456c.166.274.34.547.518.809.252.373.515.728.781,1.058a.441.441,0,0,1-.343.718Zm-27.263-2.129a.441.441,0,0,1-.366-.687c.439-.653.9-1.3,1.357-1.928a.441.441,0,0,1,.71.523c-.454.616-.9,1.254-1.335,1.9A.44.44,0,0,1,695.564,1269.679Zm44.145-1.248a.441.441,0,0,1-.4-.633,10.571,10.571,0,0,0,.755-2.107.441.441,0,0,1,.857.207,11.461,11.461,0,0,1-.818,2.283A.441.441,0,0,1,739.709,1268.431Zm-19.3-.6a.441.441,0,0,1-.4-.258,21.754,21.754,0,0,1-.867-2.22.441.441,0,0,1,.838-.275,20.825,20.825,0,0,0,.831,2.13.441.441,0,0,1-.4.624Zm-22.063-1.91a.441.441,0,0,1-.342-.719c.5-.615,1.012-1.219,1.529-1.8a.441.441,0,1,1,.657.588c-.507.568-1.013,1.162-1.5,1.765A.44.44,0,0,1,698.341,1265.916Zm42.457-1.992h-.01a.441.441,0,0,1-.431-.45c0-.069,0-.138,0-.208a9.99,9.99,0,0,0-.205-2.015.441.441,0,1,1,.863-.179,10.862,10.862,0,0,1,.223,2.194q0,.114,0,.227A.441.441,0,0,1,740.8,1263.924Zm-21.85-.528a.441.441,0,0,1-.431-.349,22.567,22.567,0,0,1-.371-2.353.441.441,0,1,1,.877-.091,21.692,21.692,0,0,0,.357,2.26.441.441,0,0,1-.432.533Zm-17.49-.965a.441.441,0,0,1-.313-.751c.554-.56,1.127-1.11,1.7-1.634a.441.441,0,0,1,.593.652c-.565.514-1.127,1.053-1.67,1.6A.439.439,0,0,1,701.458,1262.431Zm38.4-3.042a.44.44,0,0,1-.4-.255,9.531,9.531,0,0,0-.446-.844,12.02,12.02,0,0,0-.717-1.071.441.441,0,0,1,.706-.529,12.974,12.974,0,0,1,.769,1.15c.177.3.341.609.487.922a.441.441,0,0,1-.4.627Zm-34.937-.1a.441.441,0,0,1-.278-.783c.591-.48,1.2-.948,1.811-1.39l.065-.047a.441.441,0,1,1,.512.718l-.06.043c-.6.433-1.194.89-1.772,1.36A.439.439,0,0,1,704.916,1259.289Zm13.549-.532h0a.441.441,0,0,1-.441-.441,23.4,23.4,0,0,1,.124-2.377.441.441,0,1,1,.877.091,22.478,22.478,0,0,0-.119,2.287A.441.441,0,0,1,718.465,1258.757Zm-9.759-2.2a.441.441,0,0,1-.236-.814c.669-.422,1.354-.825,2.038-1.2a.441.441,0,0,1,.422.774c-.667.364-1.336.757-1.989,1.169A.44.44,0,0,1,708.706,1256.561Zm28.373-.9a.44.44,0,0,1-.3-.117,13.417,13.417,0,0,0-1.786-1.383.441.441,0,0,1,.48-.74,14.273,14.273,0,0,1,1.9,1.474.441.441,0,0,1-.3.765Zm-24.273-1.338a.441.441,0,0,1-.185-.841c.719-.332,1.453-.641,2.182-.917a.441.441,0,0,1,.313.825c-.709.269-1.424.569-2.125.893A.437.437,0,0,1,712.806,1254.328Zm6.136-.211a.441.441,0,0,1-.432-.529c.091-.447.2-.9.314-1.342-.509.122-1.02.26-1.527.41a.441.441,0,1,1-.251-.845c.681-.2,1.37-.382,2.054-.535a.441.441,0,0,1,.841.266c-.224.734-.415,1.482-.567,2.222A.441.441,0,0,1,718.942,1254.118Zm14.241-.994a.44.44,0,0,1-.181-.039,16.835,16.835,0,0,0-2.134-.788.441.441,0,0,1,.25-.846,17.745,17.745,0,0,1,2.246.83.441.441,0,0,1-.181.843Zm-4.464-1.333a.449.449,0,0,1-.074-.006,21.267,21.267,0,0,0-2.273-.257.441.441,0,1,1,.053-.88,22.151,22.151,0,0,1,2.367.268.441.441,0,0,1-.073.876Zm-6.984-.09a.441.441,0,0,1-.056-.878c.793-.1,1.589-.169,2.366-.2a.441.441,0,1,1,.034.881c-.751.029-1.521.093-2.288.192A.5.5,0,0,1,721.735,1251.7Zm-1.434-2.046a.441.441,0,0,1-.408-.607c.293-.721.625-1.447.986-2.158a.441.441,0,1,1,.786.4c-.35.688-.671,1.392-.955,2.09A.441.441,0,0,1,720.3,1249.655Zm2.108-4.164a.441.441,0,0,1-.376-.67c.4-.661.841-1.326,1.3-1.975a.441.441,0,1,1,.718.511c-.45.633-.877,1.28-1.269,1.923A.441.441,0,0,1,722.409,1245.491Zm2.716-3.793a.441.441,0,0,1-.335-.728,22.244,22.244,0,0,1,1.64-1.721.441.441,0,1,1,.6.642,21.413,21.413,0,0,0-1.575,1.653A.44.44,0,0,1,725.125,1241.7Zm3.391-3.188a.441.441,0,0,1-.265-.793,22.243,22.243,0,0,1,1.977-1.324.441.441,0,1,1,.451.757,21.433,21.433,0,0,0-1.9,1.272A.441.441,0,0,1,728.516,1238.51Zm4-2.391a.441.441,0,0,1-.188-.84c.694-.327,1.408-.629,2.184-.921a.441.441,0,1,1,.311.825c-.754.284-1.447.576-2.119.893A.438.438,0,0,1,732.515,1236.118Zm4.361-1.662a.441.441,0,0,1-.131-.862c.674-.209,1.392-.417,2.26-.653a.441.441,0,0,1,.232.851c-.858.234-1.567.438-2.23.644A.444.444,0,0,1,736.876,1234.457Zm4.5-1.249a.441.441,0,0,1-.113-.867c.722-.191,1.493-.4,2.241-.619a.441.441,0,0,1,.249.846c-.758.224-1.536.432-2.264.625A.447.447,0,0,1,741.38,1233.208Zm4.471-1.355a.441.441,0,0,1-.156-.854,16.7,16.7,0,0,0,2.073-.931.441.441,0,1,1,.42.776,17.565,17.565,0,0,1-2.182.981A.437.437,0,0,1,745.851,1231.853Zm4.056-2.258a.441.441,0,0,1-.285-.777,8.694,8.694,0,0,0,1.5-1.627.441.441,0,0,1,.72.51,9.684,9.684,0,0,1-1.646,1.79A.437.437,0,0,1,749.907,1229.6Zm2.676-3.752a.434.434,0,0,1-.168-.034.441.441,0,0,1-.24-.576c.281-.68.552-1.387.829-2.161a.441.441,0,0,1,.83.3c-.282.788-.558,1.508-.844,2.2A.441.441,0,0,1,752.583,1225.844Zm1.585-4.394a.442.442,0,0,1-.42-.576c.238-.739.467-1.481.693-2.224a.441.441,0,0,1,.844.257c-.227.747-.458,1.494-.7,2.238A.441.441,0,0,1,754.168,1221.449Zm1.371-4.467a.441.441,0,0,1-.422-.569c.227-.748.456-1.494.694-2.237a.441.441,0,1,1,.84.269c-.236.739-.465,1.482-.69,2.225A.441.441,0,0,1,755.539,1216.982Zm1.436-4.445a.441.441,0,0,1-.415-.589c.281-.79.555-1.51.838-2.2a.441.441,0,1,1,.816.334c-.278.679-.547,1.386-.823,2.163A.441.441,0,0,1,756.975,1212.537Zm1.778-4.315a.441.441,0,0,1-.4-.633c.351-.727.724-1.43,1.108-2.093a.441.441,0,1,1,.763.442c-.373.643-.735,1.327-1.077,2.034A.441.441,0,0,1,758.753,1208.222Zm2.348-4.031a.441.441,0,0,1-.361-.694c.455-.649.942-1.282,1.449-1.881a.441.441,0,0,1,.674.569c-.489.578-.96,1.19-1.4,1.817A.441.441,0,0,1,761.1,1204.19Zm3.013-3.559a.441.441,0,0,1-.309-.756c.416-.409.854-.811,1.3-1.2q.23-.2.463-.39a.441.441,0,1,1,.562.68q-.227.187-.451.38c-.433.372-.857.761-1.259,1.156A.439.439,0,0,1,764.113,1200.631Zm3.6-2.978a.441.441,0,0,1-.254-.8c.649-.456,1.319-.889,1.992-1.286a.441.441,0,0,1,.448.76c-.653.385-1.3.8-1.933,1.248A.439.439,0,0,1,767.708,1197.653Zm4.022-2.367a.441.441,0,0,1-.191-.838c.716-.344,1.451-.659,2.183-.934a.441.441,0,1,1,.311.825c-.708.266-1.418.571-2.111.9A.44.44,0,0,1,771.731,1195.286Zm4.368-1.64a.441.441,0,0,1-.116-.866c.768-.21,1.549-.384,2.321-.517a.441.441,0,0,1,.149.869c-.744.128-1.5.3-2.238.5A.442.442,0,0,1,776.1,1193.646Zm4.6-.787a.441.441,0,0,1-.03-.881,22.965,22.965,0,0,1,2.381-.042.441.441,0,0,1-.03.881,21.921,21.921,0,0,0-2.289.04Z" transform="translate(-683.891 -1191.923)" fill="#00223d"/>
        <path id="Trazado_96165" data-name="Trazado 96165" d="M1838.807,1195.609a.447.447,0,0,1-.087-.009c-.376-.076-.758-.142-1.134-.2a.441.441,0,1,1,.127-.873c.392.057.79.126,1.181.2a.441.441,0,0,1-.086.874Z" transform="translate(-1736.112 -1194.298)" fill="#00223d"/>
      </g>
      <g id="Grupo_46153" data-name="Grupo 46153" transform="translate(563.102 497.063)">
        <path id="Trazado_96166" data-name="Trazado 96166" d="M1639.71,1223.42s1.731,10.4-5.765,12.494-15.581,2.347-17.394,5.53c0,0,.537-20.608,21.026-21.07Z" transform="translate(-1614.362 -1178.341)" fill="#f6c343"/>
        <path id="Trazado_96167" data-name="Trazado 96167" d="M1913.277,1227.146s5.167,8.968,3.323,11.952c-1.755,2.838-21.671,15.187-23.611,16.385a.193.193,0,0,1-.259-.053h0a2.651,2.651,0,0,1-.388-2.372c1.242-3.9,5.05-15.524,7.328-18.669C1902.42,1230.592,1913.277,1227.146,1913.277,1227.146Z" transform="translate(-1865.863 -1184.52)" fill="#7d6eb2"/>
        <path id="Trazado_96168" data-name="Trazado 96168" d="M1971.207,1277.914a.238.238,0,0,0,.188-.03c.108-.07,10.9-7.022,15.427-10.195a2.486,2.486,0,0,0,1.014-2.516,37.037,37.037,0,0,0-2.166-7.2.238.238,0,0,0-.437.19,36.486,36.486,0,0,1,2.135,7.1,2.01,2.01,0,0,1-.82,2.034c-4.521,3.168-15.3,10.115-15.412,10.184a.237.237,0,0,0,.07.43Z" transform="translate(-1937.767 -1212.516)" fill="#fff"/>
        <path id="Trazado_96169" data-name="Trazado 96169" d="M1624.79,934.5s-6.985-7.638-10.387-6.782c-3.236.815-21.03,16.064-22.758,17.55a.193.193,0,0,0-.028.263h0a2.651,2.651,0,0,0,2.143,1.087c4.1,0,16.324-.118,20.011-1.339C1618.222,943.8,1624.79,934.5,1624.79,934.5Z" transform="translate(-1591.577 -911.274)" fill="#7d6eb2"/>
        <path id="Trazado_96170" data-name="Trazado 96170" d="M1674.8,951.339a.238.238,0,0,0,.211-.047c.1-.082,9.982-8.259,14.369-11.61a2.011,2.011,0,0,1,2.187-.167,36.5,36.5,0,0,1,6.123,4.183.238.238,0,1,0,.313-.358,36.287,36.287,0,0,0-6.207-4.242,2.487,2.487,0,0,0-2.7.206c-4.395,3.357-14.284,11.54-14.383,11.622a.238.238,0,0,0,.092.414Z" transform="translate(-1667.344 -921.442)" fill="#fff"/>
        <path id="Trazado_96171" data-name="Trazado 96171" d="M1861.144,792.349a53.459,53.459,0,0,1-11.729,11.876,152.207,152.207,0,0,1-32.534,18.541,2.03,2.03,0,0,1-2.045-.337,35.783,35.783,0,0,1-10.191-13.7,2.949,2.949,0,0,1,.451-3.032,153.692,153.692,0,0,1,27.138-24.948,53.46,53.46,0,0,1,14.758-7.553C1854.736,779.287,1859,787.537,1861.144,792.349Z" transform="translate(-1785.756 -770.362)" fill="#f6c343"/>
        <path id="Trazado_96172" data-name="Trazado 96172" d="M2290.163,743.7a55.476,55.476,0,0,1,22.486-2.593,1,1,0,0,1,.872,1.191,55.466,55.466,0,0,1-9.206,20.556C2302.169,758.041,2297.907,749.79,2290.163,743.7Z" transform="translate(-2228.927 -740.865)" fill="#7d6eb2"/>
        <g id="Grupo_46151" data-name="Grupo 46151" transform="translate(46.881 11.982)">
          <path id="Trazado_96173" data-name="Trazado 96173" d="M2129.923,879.2c-4,2.929-4.7,8.784-1.554,13.079s8.935,5.4,12.937,2.474,4.7-8.784,1.554-13.079S2133.925,876.271,2129.923,879.2Z" transform="translate(-2126.399 -877.562)" fill="#7d6eb2"/>
          <path id="Trazado_96174" data-name="Trazado 96174" d="M2151.06,896.512a7.7,7.7,0,1,0,10.308,1.971A7.43,7.43,0,0,0,2151.06,896.512Z" transform="translate(-2146.337 -893.661)" fill="url(#linear-gradient-7)"/>
          <path id="Trazado_96175" data-name="Trazado 96175" d="M2263.838,931.7a.238.238,0,0,0,.25-.088,6.006,6.006,0,0,0-.073-7.088,6.242,6.242,0,0,0-1.4-1.389.238.238,0,0,0-.277.386,5.768,5.768,0,0,1,1.294,1.284,5.527,5.527,0,0,1,.076,6.522.238.238,0,0,0,.048.333A.233.233,0,0,0,2263.838,931.7Z" transform="translate(-2250.332 -919.102)" fill="#fff"/>
        </g>
        <g id="Grupo_46152" data-name="Grupo 46152" transform="translate(35.446 25.834)">
          <path id="Trazado_96176" data-name="Trazado 96176" d="M1998.277,1036.663a6.382,6.382,0,1,0,8.546,1.634A6.16,6.16,0,0,0,1998.277,1036.663Z" transform="translate(-1995.95 -1035.581)" fill="#7d6eb2"/>
          <path id="Trazado_96177" data-name="Trazado 96177" d="M2012.242,1048.1a5.086,5.086,0,1,0,6.81,1.3A4.909,4.909,0,0,0,2012.242,1048.1Z" transform="translate(-2009.122 -1046.215)" fill="url(#linear-gradient-8)"/>
          <path id="Trazado_96178" data-name="Trazado 96178" d="M2085.885,1070.584a.239.239,0,0,0,.25-.088,4.05,4.05,0,0,0-.048-4.779,4.184,4.184,0,0,0-.944-.936.238.238,0,1,0-.276.386,3.714,3.714,0,0,1,.836.831,3.569,3.569,0,0,1,.051,4.212.238.238,0,0,0,.048.333A.23.23,0,0,0,2085.885,1070.584Z" transform="translate(-2076.981 -1062.182)" fill="#fff"/>
        </g>
      </g>
      <g id="Grupo_46158" data-name="Grupo 46158" transform="translate(535.325 576.43)">
        <path id="Trazado_96179" data-name="Trazado 96179" d="M1609.949,3161.4s-.49,2.771-.73,5.514a1.89,1.89,0,0,0,1.808,2.048c3.653.152,11.467.448,14.271.323a.615.615,0,0,0,.541-.842,1.375,1.375,0,0,0-.7-.742l-12.907-5.933Z" transform="translate(-1579.889 -3028.592)" fill="#26aab7"/>
        <path id="Trazado_96180" data-name="Trazado 96180" d="M1613.042,3137.5l.393,3.315s2.261,1.053,3.805-.133l-.936-3.694Z" transform="translate(-1583.384 -3006.317)" fill="url(#linear-gradient-9)"/>
        <path id="Trazado_96181" data-name="Trazado 96181" d="M1509.72,2431.892c-.17.865-.912,43.2,3.613,62.166a.644.644,0,0,1-.378.749,11.225,11.225,0,0,1-3.685.749,1.11,1.11,0,0,1-1.1-.8c-1.293-4.4-7.491-26.453-8.3-47.518-.9-23.539,0-.8,0-.8l.53-14.55Z" transform="translate(-1479.766 -2363.025)" fill="#26aab7"/>
        <path id="Trazado_96182" data-name="Trazado 96182" d="M1432.025,3177.9a19.935,19.935,0,0,0-1.534,5.117,1.154,1.154,0,0,0,1.015,1.381c1.206.118,3.063.271,4.551.26a1.15,1.15,0,0,0,1.138-1.282,9.694,9.694,0,0,0-2.264-5.318Z" transform="translate(-1416.813 -3043.639)" fill="#26aab7"/>
        <path id="Trazado_96183" data-name="Trazado 96183" d="M1440.425,3127.231l.919,5.012a3.242,3.242,0,0,0,2.706.186l-.439-5.393Z" transform="translate(-1425.898 -2997.238)" fill="url(#linear-gradient-9)"/>
        <path id="Trazado_96184" data-name="Trazado 96184" d="M1397.276,2422.344c-3.7,22.334.8,55.2,2.322,61.633a1,1,0,0,0,.81.762,6.734,6.734,0,0,0,2.895-.115.919.919,0,0,0,.661-.846c.2-5.2-.163-37.128,3.285-49.745a2.868,2.868,0,0,1,1.106-1.581l6.693-4.758.513-7.691Z" transform="translate(-1385.231 -2352.179)" fill="#26aab7"/>
        <g id="Grupo_46154" data-name="Grupo 46154" transform="translate(10.663 10.671)">
          <path id="Trazado_96185" data-name="Trazado 96185" d="M1421.3,1945.089c-11.09-.183-23.327,2.912-23.327,2.912-3.306,19.289-.578,41.537-.578,41.537,8.586,2.252,18.271-1.377,18.271-1.377,1.427-8.062,8.085-30.752,8.085-30.752a36.532,36.532,0,0,0,13.558-4.3,23.779,23.779,0,0,1-4.7-9.831A37.211,37.211,0,0,1,1421.3,1945.089Z" transform="translate(-1396.339 -1927.913)" fill="url(#linear-gradient-11)"/>
          <path id="Trazado_96186" data-name="Trazado 96186" d="M1831.584,1768.856a2.122,2.122,0,0,0-2.468-.693c-1.632,6.894-10.189,12.484-18.981,15.216a23.781,23.781,0,0,0,4.7,9.831C1829.425,1785.006,1831.584,1768.856,1831.584,1768.856Z" transform="translate(-1773.863 -1768.016)" fill="url(#linear-gradient-9)"/>
        </g>
        <g id="Grupo_46155" data-name="Grupo 46155" transform="translate(65.916)">
          <path id="Trazado_96187" data-name="Trazado 96187" d="M2028.874,1658.129c.114.362-1.206.914-1.983-.568-.027-.71-.459-3.754-.035-4.332a56.7,56.7,0,0,1,6.644-6.946,1.043,1.043,0,0,1,.13,1.449l-2.126,2.215a10.3,10.3,0,0,1,1.241,2.454,2.978,2.978,0,0,1-.3,2.193c-.373.673-.882,1.546-1.364,2.23A2.943,2.943,0,0,1,2028.874,1658.129Z" transform="translate(-2026.67 -1646.283)" fill="url(#linear-gradient-13)"/>
          <path id="Trazado_96188" data-name="Trazado 96188" d="M2044.705,1704.477l-1.938,1.643-.608,1.635,1.727,1.917a22.273,22.273,0,0,1,1.013-3.947C2045.331,1705.022,2045.107,1704.683,2044.705,1704.477Z" transform="translate(-2040.802 -1699.376)" fill="url(#linear-gradient-14)"/>
        </g>
        <path id="Trazado_96189" data-name="Trazado 96189" d="M1293.706,2007.917l-4.254-10.739s-10.359,7.039-12.062,15.963a24.518,24.518,0,0,1,9.005,2.413C1287.161,2011.341,1293.706,2007.917,1293.706,2007.917Z" transform="translate(-1277.154 -1966.42)" fill="url(#linear-gradient-15)"/>
        <path id="Trazado_96190" data-name="Trazado 96190" d="M1300.3,2184.16s-11.63,6.573-15.555.961a4.413,4.413,0,0,1-.809-3.428,24.521,24.521,0,0,0-9.005-2.413,12.316,12.316,0,0,0,1.339,8.443c6.874,12.574,25.569-.7,25.569-.7Z" transform="translate(-1274.696 -2132.558)" fill="url(#linear-gradient-9)"/>
        <g id="Grupo_46156" data-name="Grupo 46156" transform="translate(24.182 33.756)">
          <path id="Trazado_96191" data-name="Trazado 96191" d="M1550.591,2079.941l6.348-22.167a.646.646,0,0,1,.547-.465c1.15-.134,4.482-.511,8.33-.836a94.547,94.547,0,0,1,13.233-.439.648.648,0,0,1,.53.933c-1.829,3.7-9.352,18.751-13.119,23.682a.651.651,0,0,1-.523.257l-14.727-.137A.649.649,0,0,1,1550.591,2079.941Z" transform="translate(-1550.566 -2053.78)" fill="#00223d"/>
          <path id="Trazado_96192" data-name="Trazado 96192" d="M1726.236,2032.14l4.6-.767a.331.331,0,0,1,.368.429l-.456,1.38a.33.33,0,0,1-.27.224l-4.428.592a.33.33,0,0,1-.365-.4l.282-1.205A.33.33,0,0,1,1726.236,2032.14Z" transform="translate(-1710.328 -2031.369)" fill="#26aab7"/>
          <path id="Trazado_96193" data-name="Trazado 96193" d="M1692.648,2050.389l.379-1.975a.456.456,0,0,1,.4-.368l9.3-.943a.456.456,0,0,1,.49.561l-.591,2.461a.457.457,0,0,1-.421.349l-9.083.457A.457.457,0,0,1,1692.648,2050.389Z" transform="translate(-1680.186 -2045.721)" fill="#26aab7"/>
          <path id="Trazado_96194" data-name="Trazado 96194" d="M1561.978,2190.065s-.884-3.636-.527-4.925,1.048-2.949,3.351-2.58a33.738,33.738,0,0,1,5.021,1.339,1.318,1.318,0,0,1-1.888,1.138l1.086.84s-.155,1.345-1.634.626l1.01,1.114a1.177,1.177,0,0,1-1.723.4C1565.585,2187.3,1565.063,2190.5,1561.978,2190.065Z" transform="translate(-1560.419 -2169.259)" fill="url(#linear-gradient-9)"/>
        </g>
        <path id="Trazado_96195" data-name="Trazado 96195" d="M1516.022,1861.246l-3.529,10.205a.367.367,0,0,0,.167.443,8.294,8.294,0,0,0,8.6-.579,1.732,1.732,0,0,0,.8-1.237l1.143-8.832Z" transform="translate(-1491.63 -1842.403)" fill="url(#linear-gradient-9)"/>
        <g id="Grupo_46157" data-name="Grupo 46157" transform="translate(17.695 4.089)">
          <path id="Trazado_96196" data-name="Trazado 96196" d="M1546.415,1753.439s3.875,7.294,3.378,10.241-5.3,2.735-9.493.342l-2.93-7.876Z" transform="translate(-1532.04 -1748.135)" fill="url(#linear-gradient-19)"/>
          <path id="Trazado_96197" data-name="Trazado 96197" d="M1485.006,1704.954a.3.3,0,0,0,.131-.44,7.848,7.848,0,0,1-1.078-2.289s-.7-.446,1.773-1.037,6.152-1.509,6.926-3.611c.755-2.05-1.228-7.2-4.392-3.1a.3.3,0,0,1-.476,0,3.1,3.1,0,0,0-3.775-1.227,2.843,2.843,0,0,0-1.947,2.747.3.3,0,0,1-.354.306,3.467,3.467,0,0,0-4.048,1.887c-.826,1.816-.289,2.844.2,3.347a.3.3,0,0,1-.128.5,1.8,1.8,0,0,0-1.273,2.058c.105,1.906,2.237,1.739,2.844,1.652a.3.3,0,0,1,.267.094c.521.576,2.865,3.021,5.4,3.316a.3.3,0,0,0,.318-.4l-1.1-3.192a.3.3,0,0,1,.163-.375Z" transform="translate(-1476.56 -1692.936)" fill="#00223d"/>
          <path id="Trazado_96198" data-name="Trazado 96198" d="M1547.026,1825.452s-2.759-1.893-2.96-.3,2.484,2.309,3.815,1.715Z" transform="translate(-1538.138 -1812.981)" fill="url(#linear-gradient-20)"/>
        </g>
      </g>
    </g>
  </g>
</svg>
