<svg xmlns="http://www.w3.org/2000/svg" xmlns:xlink="http://www.w3.org/1999/xlink" width="264.34" height="228.668" viewBox="0 0 264.34 228.668">
  <defs>
    <linearGradient id="linear-gradient" x1="0.5" x2="0.5" y2="1" gradientUnits="objectBoundingBox">
      <stop offset="0" stop-color="#fff"/>
      <stop offset="1" stop-color="#d3d3d3"/>
    </linearGradient>
    <linearGradient id="linear-gradient-5" x1="0.5" x2="0.5" y2="1" gradientUnits="objectBoundingBox">
      <stop offset="0" stop-color="#fff"/>
      <stop offset="1" stop-color="#f1f7fa"/>
    </linearGradient>
    <linearGradient id="linear-gradient-11" x1="0.5" x2="0.5" y2="1" gradientUnits="objectBoundingBox">
      <stop offset="0" stop-color="#116eb9"/>
      <stop offset="1" stop-color="#1894f6"/>
    </linearGradient>
  </defs>
  <g id="Grupo_179439" data-name="Grupo 179439" transform="translate(-4864.372 9415.376)">
    <g id="Grupo_46872" data-name="Grupo 46872" transform="translate(4388.846 -10184.376)">
      <g id="Grupo_46851" data-name="Grupo 46851" transform="translate(647.709 802.584)">
        <path id="Trazado_97330" data-name="Trazado 97330" d="M700.845,1338.8c0,3.169-4.147,5.737-9.263,5.737s-9.264-2.568-9.264-5.737,4.147-5.737,9.264-5.737S700.845,1335.636,700.845,1338.8Z" transform="translate(-649.817 -1216.904)" fill="#344966"/>
        <path id="Trazado_97331" data-name="Trazado 97331" d="M601.656,895.5A41.765,41.765,0,0,0,574.3,968.829c.031.033,6.524,7.051,7.6,14.4l.194,4.5a6.313,6.313,0,0,0,1.636,3.974c.088.1.179.19.273.28h35.315c.094-.091.185-.183.273-.28a6.313,6.313,0,0,0,1.635-3.974l.194-4.5c1.071-7.35,7.564-14.368,7.6-14.4A41.766,41.766,0,0,0,601.656,895.5Z" transform="translate(-559.891 -895.504)" fill="url(#linear-gradient)"/>
        <path id="Rectángulo_28272" data-name="Rectángulo 28272" d="M0,0H35.493a0,0,0,0,1,0,0V.985A25.076,25.076,0,0,1,10.417,26.061h0A10.417,10.417,0,0,1,0,15.644V0A0,0,0,0,1,0,0Z" transform="translate(24.019 96.48)" fill="url(#linear-gradient)"/>
        <g id="Grupo_46849" data-name="Grupo 46849" transform="translate(23.754 17.635)">
          <path id="Trazado_97333" data-name="Trazado 97333" d="M670.811,1006.319l-8.3-36.2-7.283,21.053-2.136-.739,9.861-28.5,8.467,36.934,8.673-21.171,8.033,13.562-1.945,1.152-5.718-9.654Z" transform="translate(-653.094 -961.933)" fill="#f5ca56"/>
        </g>
        <g id="Grupo_46850" data-name="Grupo 46850" transform="translate(22.903 42.07)">
          <path id="Trazado_97334" data-name="Trazado 97334" d="M759.379,1113.825l-.2.021a1.91,1.91,0,0,1-2.1-1.7l-5.8-56.043a1.909,1.909,0,0,1,1.7-2.1l.2-.021a1.909,1.909,0,0,1,2.1,1.7l5.8,56.044A1.909,1.909,0,0,1,759.379,1113.825Z" transform="translate(-751.27 -1053.973)" fill="#f5ca56"/>
          <path id="Trazado_97335" data-name="Trazado 97335" d="M647.916,1113.863h0a2.009,2.009,0,0,0,2.205-1.792l5.783-55.845a2.01,2.01,0,0,0-1.792-2.205h0a2.009,2.009,0,0,0-2.205,1.792l-5.783,55.845A2.009,2.009,0,0,0,647.916,1113.863Z" transform="translate(-618.178 -1054)" fill="#f5ca56"/>
        </g>
        <path id="Trazado_97336" data-name="Trazado 97336" d="M681.189,1262.855H646.611a1.965,1.965,0,0,1-1.964-1.964h0a1.964,1.964,0,0,1,1.964-1.964h34.578a1.965,1.965,0,0,1,1.965,1.964h0A1.965,1.965,0,0,1,681.189,1262.855Z" transform="translate(-622.123 -1162.446)" fill="#344966"/>
        <path id="Trazado_97337" data-name="Trazado 97337" d="M681.189,1292.526H646.611a1.964,1.964,0,0,1-1.964-1.964h0a1.965,1.965,0,0,1,1.964-1.965h34.578a1.965,1.965,0,0,1,1.965,1.965h0A1.965,1.965,0,0,1,681.189,1292.526Z" transform="translate(-622.123 -1184.24)" fill="#344966"/>
        <path id="Trazado_97338" data-name="Trazado 97338" d="M681.189,1325.729H646.611a1.965,1.965,0,0,1-1.964-1.965h0a1.964,1.964,0,0,1,1.964-1.964h34.578a1.965,1.965,0,0,1,1.965,1.964h0A1.965,1.965,0,0,1,681.189,1325.729Z" transform="translate(-622.123 -1208.629)" fill="#344966"/>
      </g>
      <g id="Grupo_46852" data-name="Grupo 46852" transform="translate(475.526 841.004)">
        <path id="Trazado_97339" data-name="Trazado 97339" d="M1295.343,1156.5a26.75,26.75,0,1,1,5.725-37.395A26.78,26.78,0,0,1,1295.343,1156.5Zm-3.2-5.834h0a20.175,20.175,0,0,0,3.089-28.363h0a20.175,20.175,0,0,0-28.364-3.089h0a20.174,20.174,0,0,0-3.089,28.364h0A20.174,20.174,0,0,0,1292.145,1150.67Z" transform="translate(-1234.477 -1090.157)" fill="url(#linear-gradient)"/>
        <path id="Trazado_97340" data-name="Trazado 97340" d="M1251.082,1123.768c-.64.123-1.063-.329-2.123-1.439-1.9-1.987-3.794-3.974-5.757-5.891a1.774,1.774,0,0,0-1.464-.314c-2.586.733-5.128,1.623-7.721,2.33-.8.219-1.18.458-1.335,1.322-.616,3.454-1.328,6.89-2,10.3-3.16.495-11.024-.269-13.573-1.348.046-3.342.04-6.758.169-10.168a1.689,1.689,0,0,0-1.242-1.948,70.393,70.393,0,0,1-6.869-3.67,1.937,1.937,0,0,0-2.5-.078c-2.5,1.768-5.1,3.384-7.629,5.11-.679.464-1.2.511-1.728-.133q-3.708-4.541-7.411-9.085c-.608-.744.039-1.159.454-1.574,2.1-2.1,4.191-4.216,6.36-6.245a1.921,1.921,0,0,0,.539-2.45c-1.036-2.809-1.889-5.685-2.885-8.754l-10.992-2.2a40.08,40.08,0,0,1,1.481-13.482l10.987.107c1.77-3.107,3.346-6.02,5.085-8.833a1.51,1.51,0,0,0-.036-1.99c-1.7-2.488-3.333-5.029-5.02-7.529-.365-.541-.564-.965-.04-1.529a38.287,38.287,0,0,1,8.892-7.4,1.2,1.2,0,0,1,1.731.274c2.176,2.216,4.395,4.391,6.561,6.615a1.4,1.4,0,0,0,1.72.439c2.814-.9,5.671-1.685,8.541-2.392a1.189,1.189,0,0,0,1.037-1.127c.689-3.441,1.4-6.877,2.129-10.4a43,43,0,0,1,13.348,1.326c-.038,3.889-.076,7.753-.112,11.45l9.886,5.321c2.244-1.478,4.817-3.2,7.418-4.877,2.135-1.377,1.7-1.585,3.613.344a4.2,4.2,0,0,0,.651.451l4.4,5.476a8.34,8.34,0,0,0,.768,1.38c.859,1.037.86,1.816-.223,2.807-2.255,2.063-4.383,4.268-6.51,6.466a1.624,1.624,0,0,0-.329,1.317c.677,2.557,1.577,5.062,2.118,7.645a1.987,1.987,0,0,0,1.94,1.838c3.271.594,6.517,1.323,10.1,2.066-.449,4.521-.886,8.931-1.328,13.39-.85.008-1.339.02-1.828.016-3.015-.03-6.371.325-9.385.242a1.515,1.515,0,0,0-1.589,1.041c-1.34,2.533-2.5,4.621-3.862,7.146a1.794,1.794,0,0,0,.069,1.516c1.307,2.1,2.73,4.127,4.078,6.2,1.092,1.678,1.491,2.305,1.13,3.123Zm-6.356-16.433a27.7,27.7,0,1,0-20.587,5.055A27.518,27.518,0,0,0,1244.726,1107.335Z" transform="translate(-1183.3 -1040.224)" fill="url(#linear-gradient)"/>
      </g>
      <path id="Trazado_97341" data-name="Trazado 97341" d="M1330.049,1432.533l-2.761,4.985c-.25.163-.507.045-1.148-.241-1.146-.513-2.292-1.025-3.455-1.5a.809.809,0,0,0-.674.121c-.968.757-1.89,1.574-2.865,2.321a.665.665,0,0,0-.335.791c.336,1.568.63,3.146.936,4.7a17.543,17.543,0,0,1-5.977,1.778c-.559-1.422-1.151-2.867-1.687-4.332a.773.773,0,0,0-.863-.609,32.169,32.169,0,0,1-3.542-.365c-.476-.07-.781-.056-1.071.4-.751,1.181-1.573,2.315-2.344,3.482-.207.314-.421.424-.755.243q-2.355-1.28-4.708-2.563c-.387-.209-.185-.5-.081-.745.525-1.252,1.044-2.509,1.611-3.743a.878.878,0,0,0-.2-1.13c-.924-1.01-1.783-2.079-2.736-3.205l-5.033.969a18.324,18.324,0,0,1-1.706-5.962l4.668-1.855c.212-1.621.374-3.126.624-4.617a.69.69,0,0,0-.359-.835c-1.153-.758-2.281-1.552-3.428-2.318-.248-.165-.406-.311-.281-.64a17.511,17.511,0,0,1,2.483-4.669.55.55,0,0,1,.78-.183c1.3.562,2.62,1.1,3.922,1.664a.638.638,0,0,0,.8-.112c1.035-.868,2.108-1.694,3.2-2.489a.544.544,0,0,0,.244-.656c-.3-1.576-.6-3.153-.9-4.771a19.623,19.623,0,0,1,5.877-1.748l1.933,4.864,5.1.542c.694-1.014,1.485-2.188,2.3-3.348.665-.952.443-.964,1.588-.479a1.91,1.91,0,0,0,.353.078l2.81,1.556a3.906,3.906,0,0,0,.563.452.788.788,0,0,1,.392,1.226c-.6,1.263-1.116,2.565-1.637,3.863a.74.74,0,0,0,.089.614c.729.965,1.542,1.869,2.218,2.869a.909.909,0,0,0,1.139.442c1.487-.314,2.987-.568,4.631-.873.592,1.99,1.171,3.932,1.755,5.9-.359.15-.563.24-.771.322-1.281.509-2.558,1.03-3.848,1.516-.367.138-.455.336-.492.715-.129,1.3-.342,2.6-.48,3.9a.82.82,0,0,0,.292.63c.916.662,1.868,1.274,2.8,1.919C1329.783,1431.928,1330.06,1432.124,1330.049,1432.533Zm-11.026-3.011a9.223,9.223,0,0,0-3.6-12.537h0a9.223,9.223,0,0,0-12.537,3.6h0a9.223,9.223,0,0,0,3.6,12.537h0a9.224,9.224,0,0,0,12.538-3.6Z" transform="translate(-794.294 -466.938)" fill="#fcfcfc"/>
      <rect id="Rectángulo_28273" data-name="Rectángulo 28273" width="163.156" height="104.56" rx="1" transform="translate(522.687 888.411)" fill="url(#linear-gradient-5)"/>
      <rect id="Rectángulo_28274" data-name="Rectángulo 28274" width="155.146" height="86.438" transform="translate(526.692 894.319)" fill="url(#linear-gradient)"/>
      <path id="Trazado_97342" data-name="Trazado 97342" d="M698.773,1591.665H872.385a3.036,3.036,0,0,0,3.036-3.036v-4.554H691.185A7.589,7.589,0,0,0,698.773,1591.665Z" transform="translate(-179.037 -598.693)" fill="url(#linear-gradient-5)"/>
      <path id="Trazado_97343" data-name="Trazado 97343" d="M691.5,1586.184a7.22,7.22,0,0,1-.316-2.109H875.421a7.2,7.2,0,0,1-.316,2.109Z" transform="translate(-179.037 -598.693)" fill="#00223d" opacity="0.6"/>
      <path id="Trazado_97344" data-name="Trazado 97344" d="M1151.833,1327.492h-21.456l-43.076-78.284v-8.153h16.969Z" transform="translate(-560.608 -346.735)" fill="#fff" opacity="0.5" style="mix-blend-mode: soft-light;isolation: isolate"/>
      <path id="Trazado_97345" data-name="Trazado 97345" d="M903.045,1327.492h-29.26l-47.562-86.438h29.259Z" transform="translate(-242.511 -346.735)" fill="#fff" opacity="0.5" style="mix-blend-mode: soft-light;isolation: isolate"/>
      <path id="Trazado_97346" data-name="Trazado 97346" d="M745.973,1241.054h13.466l44.831,81.474v4.964H793.536Z" transform="translate(-122.431 -346.735)" fill="#fff" opacity="0.5" style="mix-blend-mode: soft-light;isolation: isolate"/>
      <path id="Trazado_97347" data-name="Trazado 97347" d="M1447.167,1359.538l-1.283,2.943c-.131.1-.281.052-.656-.074-.67-.227-1.341-.453-2.018-.655a.455.455,0,0,0-.371.1c-.5.477-.976.983-1.483,1.455a.375.375,0,0,0-.146.461c.273.862.521,1.731.776,2.588a9.908,9.908,0,0,1-3.258,1.315c-.389-.768-.8-1.546-1.178-2.339a.435.435,0,0,0-.516-.3,18.092,18.092,0,0,1-2.006-.015c-.27-.014-.441.01-.579.281-.358.7-.759,1.382-1.129,2.078-.1.187-.214.26-.41.176l-2.777-1.186c-.227-.1-.13-.269-.084-.413.228-.731.452-1.464.7-2.186a.5.5,0,0,0-.17-.623c-.572-.517-1.111-1.071-1.705-1.652l-2.771.812a10.335,10.335,0,0,1-1.275-3.252l2.52-1.289c.032-.92.043-1.774.1-2.623a.39.39,0,0,0-.246-.45c-.686-.363-1.362-.748-2.046-1.117-.148-.08-.244-.153-.192-.345a9.877,9.877,0,0,1,1.143-2.751.311.311,0,0,1,.428-.144c.762.245,1.528.476,2.288.724a.36.36,0,0,0,.444-.106c.535-.542,1.092-1.063,1.663-1.567a.308.308,0,0,0,.1-.382c-.255-.867-.5-1.737-.758-2.628a11.076,11.076,0,0,1,3.2-1.293l1.344,2.626,2.891.031c.335-.606.717-1.306,1.109-2,.323-.569.2-.565.865-.354a1.08,1.08,0,0,0,.2.025l1.658.723a2.154,2.154,0,0,0,.34.223c.32.134.413.311.285.667-.268.74-.49,1.5-.712,2.254a.417.417,0,0,0,.082.34c.46.5.965.966,1.4,1.491a.511.511,0,0,0,.662.187c.817-.255,1.645-.478,2.551-.736l1.3,3.213c-.193.1-.3.165-.416.222-.691.354-1.379.714-2.077,1.055a.392.392,0,0,0-.238.428c0,.738-.053,1.475-.061,2.214a.46.46,0,0,0,.2.337c.55.323,1.117.615,1.672.927C1446.985,1359.213,1447.151,1359.308,1447.167,1359.538Zm-6.344-1.1a5.2,5.2,0,0,0-2.687-6.839h0a5.2,5.2,0,0,0-6.841,2.687h0a5.2,5.2,0,0,0,2.688,6.84h0a5.2,5.2,0,0,0,6.84-2.688Z" transform="translate(-945.839 -423.151)" fill="#fec55e"/>
      <path id="Trazado_97348" data-name="Trazado 97348" d="M961.277,1125.523s3.332,95.024,16.144,115.193H955.462v-117.8Z" transform="translate(-351.196 -259.959)" fill="#00223d"/>
      <path id="Trazado_97349" data-name="Trazado 97349" d="M762.473,1466.055a17.188,17.188,0,0,1,7.259,1.59v25.116H750.848a15.174,15.174,0,0,1-4.874-11.085C745.974,1473.048,753.361,1466.055,762.473,1466.055Z" transform="translate(-87.893 -512.004)" fill="#00223d"/>
      <path id="Trazado_97350" data-name="Trazado 97350" d="M813.923,1487.657c7.976,0,14.441,6.122,14.441,13.674a13.086,13.086,0,0,1-2.227,7.3H801.709a13.083,13.083,0,0,1-2.227-7.3C799.482,1493.779,805.947,1487.657,813.923,1487.657Z" transform="translate(-160.731 -527.871)" fill="#00223d"/>
      <path id="Trazado_97351" data-name="Trazado 97351" d="M883.973,1426.878c12.171,0,22.038,9.342,22.038,20.866a20.432,20.432,0,0,1-8.2,16.24H870.136a20.432,20.432,0,0,1-8.2-16.24C861.935,1436.22,871.8,1426.878,883.973,1426.878Z" transform="translate(-254.957 -483.227)" fill="#00223d"/>
      <path id="Trazado_97352" data-name="Trazado 97352" d="M1054.618,1125.523s-3.628,95.024-16.44,115.193h22.255v-117.8Z" transform="translate(-456.167 -259.959)" fill="#00223d"/>
      <path id="Trazado_97353" data-name="Trazado 97353" d="M1248.151,1466.055a17.193,17.193,0,0,0-7.259,1.59v25.116h18.884a15.173,15.173,0,0,0,4.873-11.085C1264.649,1473.048,1257.263,1466.055,1248.151,1466.055Z" transform="translate(-714.2 -512.004)" fill="#00223d"/>
      <path id="Trazado_97354" data-name="Trazado 97354" d="M1182.519,1487.657c-7.975,0-14.441,6.122-14.441,13.674a13.085,13.085,0,0,0,2.227,7.3h24.428a13.084,13.084,0,0,0,2.227-7.3C1196.96,1493.779,1190.495,1487.657,1182.519,1487.657Z" transform="translate(-627.18 -527.871)" fill="#00223d"/>
      <path id="Trazado_97355" data-name="Trazado 97355" d="M1070.432,1426.878c-12.171,0-22.038,9.342-22.038,20.866a20.432,20.432,0,0,0,8.2,16.24h27.673a20.432,20.432,0,0,0,8.2-16.24C1092.469,1436.22,1082.6,1426.878,1070.432,1426.878Z" transform="translate(-490.916 -483.227)" fill="#00223d"/>
      <g id="Grupo_46853" data-name="Grupo 46853" transform="translate(569.186 769)">
        <path id="Trazado_97356" data-name="Trazado 97356" d="M987.865,1155.907l10.723-4.379,10.724,4.379s13.078,17.4-10.724,40.15C974.786,1173.307,987.865,1155.907,987.865,1155.907Z" transform="translate(-963.509 -1049.977)" fill="#f4b34a"/>
        <path id="Trazado_97357" data-name="Trazado 97357" d="M1004.316,1167.345l7.217-2.946,7.217,2.946s8.8,11.711-7.217,27.022C995.514,1179.056,1004.316,1167.345,1004.316,1167.345Z" transform="translate(-976.454 -1059.43)" fill="#fec55e"/>
        <path id="Trazado_97358" data-name="Trazado 97358" d="M1023.675,1153.8l3.091-2.268,3.092,2.268s3.769,9.013-3.092,20.8C1019.906,1162.809,1023.675,1153.8,1023.675,1153.8Z" transform="translate(-991.687 -1049.977)" fill="#00223d"/>
        <path id="Trazado_97359" data-name="Trazado 97359" d="M1112.566,1075.4s-14.174-2-19.488,13.412h0a30.677,30.677,0,0,1,.083-15.869c1.742-6.331,5.015-14.9,11-22.18C1115.223,1037.318,1112.566,1075.4,1112.566,1075.4Z" transform="translate(-1092.075 -973.852)" fill="url(#linear-gradient)"/>
        <path id="Trazado_97360" data-name="Trazado 97360" d="M906.319,1075.4s14.174-2,19.488,13.412h0a30.673,30.673,0,0,0-.083-15.869c-1.742-6.331-5.016-14.9-11-22.18C903.661,1037.318,906.319,1075.4,906.319,1075.4Z" transform="translate(-856.651 -973.852)" fill="url(#linear-gradient)"/>
        <path id="Trazado_97361" data-name="Trazado 97361" d="M951.665,829.206c1.145-32.862,13.748-48.334,22.909-60.206,9.161,11.873,21.747,27.345,22.892,60.206s-8.9,48.55-8.9,48.55h-28S950.52,862.068,951.665,829.206Z" transform="translate(-939.486 -769)" fill="#7d6eb2"/>
        <path id="Trazado_97362" data-name="Trazado 97362" d="M1024.537,1096.773v-38.049S1032.685,1081.028,1024.537,1096.773Z" transform="translate(-989.458 -981.809)" fill="#8ec8c8"/>
        <path id="Trazado_97363" data-name="Trazado 97363" d="M1038.478,829.435c1.142-32.786,13.69-48.262,22.845-60.124V877.985H1047.38S1037.333,862.3,1038.478,829.435Z" transform="translate(-1026.298 -769.228)" fill="#584795"/>
        <path id="Trazado_97364" data-name="Trazado 97364" d="M967.472,802.928c4.716-15.961,12.611-25.791,18.89-33.928,6.229,8.072,14.039,17.811,18.762,33.546A55.912,55.912,0,0,1,967.472,802.928Z" transform="translate(-951.274 -769)" fill="#8ec8c8"/>
        <path id="Trazado_97365" data-name="Trazado 97365" d="M1057.213,769.311v36.909a57.618,57.618,0,0,1-18.826-3.063C1043.086,787.249,1050.944,777.433,1057.213,769.311Z" transform="translate(-1022.189 -769.228)" fill="#26aab7"/>
        <path id="Trazado_97366" data-name="Trazado 97366" d="M1041.8,1058.723v38.05C1033.651,1081.028,1041.8,1058.723,1041.8,1058.723Z" transform="translate(-1006.719 -981.808)" fill="#26aab7"/>
        <path id="Trazado_97367" data-name="Trazado 97367" d="M997.569,959.6a13.242,13.242,0,0,0,5.249,1.076,13.068,13.068,0,1,0-5.249-1.076Z" transform="translate(-967.992 -890.791)" fill="url(#linear-gradient)"/>
        <path id="Trazado_97368" data-name="Trazado 97368" d="M996.686,953.481a11.072,11.072,0,1,0,11.07-10.912A10.992,10.992,0,0,0,996.686,953.481Z" transform="translate(-972.732 -896.49)" fill="#584795"/>
      </g>
      <path id="Trazado_97369" data-name="Trazado 97369" d="M826.973,1503.734h-81a16.256,16.256,0,0,1,12.72-6.115c.114,0,.227,0,.34,0,0-.113,0-.227,0-.34a16.291,16.291,0,0,1,31.52-5.784,14.5,14.5,0,0,1,18.335,2.3,10.8,10.8,0,0,1,18.088-2.13Z" transform="translate(-145.134 -522.977)" fill="#fcfcfc" opacity="0.6"/>
      <path id="Trazado_97370" data-name="Trazado 97370" d="M1072.768,1497.669v-13.622a10.8,10.8,0,0,1,16.643,3.959,14.5,14.5,0,0,1,19.425-4.324,14.449,14.449,0,0,1,28.122,6.642,5.124,5.124,0,0,1,3.654,7.345Z" transform="translate(-546.075 -516.912)" fill="#fcfcfc" opacity="0.6"/>
      <g id="Grupo_46855" data-name="Grupo 46855" transform="translate(646.229 851.503)">
        <path id="Trazado_97371" data-name="Trazado 97371" d="M810.683,1126.226c.188.008.7.181,1.458,1.605a53.475,53.475,0,0,1,2.37,7.317l-4.2,1.564-.539-1.147-.889-8.833S810.631,1126.223,810.683,1126.226Z" transform="translate(-795.602 -1113.894)" fill="#26aab7"/>
        <path id="Trazado_97372" data-name="Trazado 97372" d="M829.748,1123.241a25.661,25.661,0,0,1,5.553.793s1.013,8.71-.912,15.329c-.431,1.481.356,6.141.356,6.141l-12.447-.164s1.475-11.266.919-13.085-.569-8.162-.569-8.162.085-.014,2.8-.482A28.157,28.157,0,0,1,829.748,1123.241Z" transform="translate(-820.22 -1111.702)" fill="#8ec8c8"/>
        <path id="Trazado_97373" data-name="Trazado 97373" d="M849.455,1268a16.761,16.761,0,0,0,.782,4.058c.506.88-.026,2.376-.053,2.582s-1.066.5-2.718.323-1.625-.557-1.492-1.173,1.012-1.408,1.066-2a15.349,15.349,0,0,0-.506-2.7Z" transform="translate(-841.378 -1218.029)" fill="#ffc3b5"/>
        <path id="Trazado_97374" data-name="Trazado 97374" d="M800.08,1196.68s8.592-.477,10.511.685-1.363,6.865-1.363,6.865-5.978-.275-17.689.4c-2.773.16-3.012-7.231-2.494-7.842S800.08,1196.68,800.08,1196.68Z" transform="translate(-786.959 -1165.501)" fill="#03192b"/>
        <path id="Trazado_97375" data-name="Trazado 97375" d="M846.687,1286.962c-1.7-.181-1.491-1.017-1.354-1.651A5.623,5.623,0,0,1,846.2,1284a2.839,2.839,0,0,0,1.138.553,4.252,4.252,0,0,0,2.489-.5,8.25,8.25,0,0,1,.228,2.195A4.949,4.949,0,0,1,846.687,1286.962Z" transform="translate(-840.805 -1229.785)" fill="#293241"/>
        <path id="Trazado_97376" data-name="Trazado 97376" d="M853.231,1203.064c.343,2.6,2.043,15.529,2.043,15.529l-3.944.489s-4.85-16.879-4.6-19.461,2.064-2.8,2.064-2.8S852.322,1196.187,853.231,1203.064Z" transform="translate(-846.41 -1165.738)" fill="#00223d"/>
        <path id="Trazado_97377" data-name="Trazado 97377" d="M818.945,1130.058c1.164-.437,1.733,10.049,1.89,14.366a50.8,50.8,0,0,0,6.547-.066c.421-.032,1.391-.387,1.809-.442a4.2,4.2,0,0,1,1.028-.049,19.42,19.42,0,0,1,2.41,1.085c.228.239.844.841.74,1.1s-1.185-.727-1.185-.727l-.528-.3c.658.642,1.912,1.488,1.731,1.8s-1.308-.558-2.114-1.144c.692.625,1.551,1.743,1.353,1.917-.178.157-1.155-1.137-2.2-1.51-.387-.138-.773.244-1.077.291a2.19,2.19,0,0,1-.789.044l-1.131-.321c-.385.035-.395.263-.784.345-.452.1-1.193.2-1.768.338-3.312.81-4.418,1.186-5.431,1.186C816.373,1147.972,816.2,1131.09,818.945,1130.058Z" transform="translate(-816.653 -1116.7)" fill="#ffc3b5"/>
        <path id="Trazado_97378" data-name="Trazado 97378" d="M862.093,1137.191c-.218-4.42-.186-9.87,2.292-10.8.978-.367,2.7,1.839,2.392,10.889A18.6,18.6,0,0,1,862.093,1137.191Z" transform="translate(-862.009 -1113.989)" fill="#26aab7"/>
        <path id="Trazado_97379" data-name="Trazado 97379" d="M796.957,1279.33a2.149,2.149,0,0,0-.121,1.849c.448.843,2.8,2.084,3.045,2.541a1.109,1.109,0,0,1,.149.781l-6.982-1.712.535-2.1.653-1.455Z" transform="translate(-776.935 -1226.279)" fill="#ffc3b5"/>
        <path id="Trazado_97380" data-name="Trazado 97380" d="M793.206,1285.654s-1.963.34-2.741-.281-.726-.734-1.013-.628c-.184.068-.465.907-.643,1.5a.574.574,0,0,0,.413.721l7.27,1.8c.552.106.918-.239.546-.682a6.515,6.515,0,0,0-.75-.7A25.226,25.226,0,0,0,793.206,1285.654Z" transform="translate(-772.945 -1230.305)" fill="#293241"/>
        <path id="Trazado_97381" data-name="Trazado 97381" d="M786.115,1199.206c.555-1.169,1.819-2.691,4.041-1.775,2.12.875,2.689,3.023,2.02,5.223s-5.072,15.133-5.226,16.911l-3.515.024s.639-10.241.8-12.716A23.975,23.975,0,0,1,786.115,1199.206Z" transform="translate(-766.778 -1165.99)" fill="#00223d"/>
        <path id="Trazado_97382" data-name="Trazado 97382" d="M805.765,1160.021H794.013a.766.766,0,0,0-.709.477l-3.619,8.855h-6.479a.328.328,0,0,0-.328.329h0a.328.328,0,0,0,.328.329h18.44a1.288,1.288,0,0,0,1.174-.763l3.644-8.144A.769.769,0,0,0,805.765,1160.021Z" transform="translate(-780.72 -1138.718)" fill="#fec55e"/>
        <path id="Trazado_97383" data-name="Trazado 97383" d="M810.814,1177.074a.647.647,0,1,1-.485-.847A.692.692,0,0,1,810.814,1177.074Z" transform="translate(-792.096 -1150.614)" fill="#fff"/>
        <g id="Grupo_46854" data-name="Grupo 46854" transform="translate(5.78)">
          <path id="Trazado_97384" data-name="Trazado 97384" d="M833.154,1080.677a9.039,9.039,0,0,1-1.04-.416,5.23,5.23,0,0,0-1.185-.447,2.86,2.86,0,0,0-2.4.642c-.775.841-2.152.152-1.875,4.556.314,4.985,3.086,4.438,3.153,4.354s2.472-3.19,2.472-3.19.841,1.84.841,1.772S837.409,1082.109,833.154,1080.677Z" transform="translate(-826.613 -1079.776)"/>
          <path id="Trazado_97385" data-name="Trazado 97385" d="M842.822,1109.519l.239,1.782s.536,2.566-.154,3.061-2.932-3.135-2.932-3.135l.237-4.513Z" transform="translate(-838.385 -1099.563)" fill="#ffc3b5"/>
          <path id="Trazado_97386" data-name="Trazado 97386" d="M840.86,1108.177a5.111,5.111,0,0,0,2.889,2.853l-.2-1.51-2.61-2.805Z" transform="translate(-839.109 -1099.563)" fill="#fc8899"/>
          <path id="Trazado_97387" data-name="Trazado 97387" d="M834.863,1088.128a2.376,2.376,0,0,1,2.735,2.4,18.116,18.116,0,0,1-.2,2.285c-.318,2.056-1.721,3.867-2.648,3.705a4.458,4.458,0,0,1-2.851-4.862A3.933,3.933,0,0,1,834.863,1088.128Z" transform="translate(-830.568 -1085.888)" fill="#ffc3b5"/>
          <path id="Trazado_97388" data-name="Trazado 97388" d="M852.189,1100.216a.691.691,0,1,1-.525-.935A.765.765,0,0,1,852.189,1100.216Z" transform="translate(-850.214 -1094.096)" fill="#ffc3b5"/>
          <path id="Trazado_97389" data-name="Trazado 97389" d="M831.054,1089.185s1.121.279,1.537-.443,1.9-2.278,3.8-1.632-1.665-1.57-1.816-1.57l-1.968-.013s-1.4,1.152-1.45,1.278-.454,1.506-.454,1.506Z" transform="translate(-829.604 -1084.001)"/>
        </g>
        <path id="Trazado_97390" data-name="Trazado 97390" d="M837.468,1110.641l2.041.39a.908.908,0,0,1-1.1.623C837.311,1111.477,837.468,1110.641,837.468,1110.641Z" transform="translate(-828.186 -1102.447)" fill="#fff"/>
      </g>
      <g id="Grupo_46857" data-name="Grupo 46857" transform="translate(675.078 985.256)">
        <path id="Trazado_97391" data-name="Trazado 97391" d="M606.311,1592.063v7.408c0,1.2-13.36,2.168-29.841,2.168s-29.841-.971-29.841-2.168v-7.408Z" transform="translate(-546.629 -1589.815)" fill="#f4b34a"/>
        <g id="Grupo_46856" data-name="Grupo 46856" transform="translate(0 2.247)">
          <path id="Trazado_97392" data-name="Trazado 97392" d="M546.629,1601.555v-9.493h21.6v7.408C568.225,1600.461,559.1,1601.3,546.629,1601.555Z" transform="translate(-508.543 -1592.063)" fill="#fec55e"/>
          <path id="Trazado_97393" data-name="Trazado 97393" d="M649.569,1601.575c-2.318.042-4.743.064-7.24.064-3.721,0-7.283-.049-10.567-.141v-9.436h17.808Z" transform="translate(-612.488 -1592.063)" fill="#fec55e"/>
          <path id="Trazado_97394" data-name="Trazado 97394" d="M721.422,1601.465c-10.632-.332-18.078-1.1-18.078-1.994v-7.408h18.078Z" transform="translate(-703.344 -1592.063)" fill="#eab054"/>
        </g>
        <path id="Trazado_97395" data-name="Trazado 97395" d="M546.629,1585.766c0,1.2,13.361,2.168,29.841,2.168s29.841-.971,29.841-2.168-13.36-2.168-29.841-2.168S546.629,1584.569,546.629,1585.766Z" transform="translate(-546.629 -1583.598)" fill="#f4b34a"/>
        <path id="Trazado_97396" data-name="Trazado 97396" d="M566.471,1587.606c0,.831,11,1.5,24.574,1.5s24.573-.673,24.573-1.5-11-1.5-24.573-1.5S566.471,1586.776,566.471,1587.606Z" transform="translate(-561.203 -1585.438)" fill="#f7cc7f"/>
      </g>
      <g id="Grupo_46859" data-name="Grupo 46859" transform="translate(680.183 977.417)">
        <path id="Trazado_97397" data-name="Trazado 97397" d="M587.08,1562.534v7.408c0,1.2-13.36,2.168-29.841,2.168s-29.841-.971-29.841-2.168v-7.408Z" transform="translate(-527.398 -1560.287)" fill="#f4b34a"/>
        <g id="Grupo_46858" data-name="Grupo 46858" transform="translate(0 2.247)">
          <path id="Trazado_97398" data-name="Trazado 97398" d="M527.4,1572.027v-9.493h21.6v7.408C548.993,1570.931,539.869,1571.766,527.4,1572.027Z" transform="translate(-489.312 -1562.534)" fill="#fec55e"/>
          <path id="Trazado_97399" data-name="Trazado 97399" d="M630.338,1572.046c-2.318.042-4.743.064-7.241.064-3.72,0-7.282-.05-10.567-.139v-9.437h17.808Z" transform="translate(-593.256 -1562.534)" fill="#fec55e"/>
          <path id="Trazado_97400" data-name="Trazado 97400" d="M702.19,1571.935c-10.632-.331-18.078-1.1-18.078-1.994v-7.408H702.19Z" transform="translate(-684.112 -1562.534)" fill="#eab054"/>
        </g>
        <ellipse id="Elipse_3874" data-name="Elipse 3874" cx="29.841" cy="2.168" rx="29.841" ry="2.168" transform="translate(0 0)" fill="#f4b34a"/>
        <ellipse id="Elipse_3875" data-name="Elipse 3875" cx="24.573" cy="1.503" rx="24.573" ry="1.503" transform="translate(5.268 0.665)" fill="#f7cc7f"/>
      </g>
      <g id="Grupo_46861" data-name="Grupo 46861" transform="translate(676.781 969.369)">
        <path id="Trazado_97401" data-name="Trazado 97401" d="M599.893,1532.221v7.408c0,1.2-13.36,2.168-29.841,2.168s-29.841-.971-29.841-2.168v-7.408Z" transform="translate(-540.211 -1529.973)" fill="#f4b34a"/>
        <g id="Grupo_46860" data-name="Grupo 46860" transform="translate(0 2.247)">
          <path id="Trazado_97402" data-name="Trazado 97402" d="M540.211,1541.713v-9.493h21.6v7.408C561.806,1540.618,552.681,1541.453,540.211,1541.713Z" transform="translate(-502.124 -1532.221)" fill="#fec55e"/>
          <path id="Trazado_97403" data-name="Trazado 97403" d="M643.151,1541.733c-2.318.042-4.743.064-7.24.064-3.721,0-7.282-.049-10.567-.139v-9.436h17.808Z" transform="translate(-606.07 -1532.221)" fill="#fec55e"/>
          <path id="Trazado_97404" data-name="Trazado 97404" d="M715,1541.622c-10.632-.332-18.078-1.1-18.078-1.994v-7.408H715Z" transform="translate(-696.926 -1532.221)" fill="#fec55e"/>
        </g>
        <ellipse id="Elipse_3876" data-name="Elipse 3876" cx="29.841" cy="2.168" rx="29.841" ry="2.168" transform="translate(0 0)" fill="#f4b34a"/>
        <ellipse id="Elipse_3877" data-name="Elipse 3877" cx="24.573" cy="1.503" rx="24.573" ry="1.503" transform="translate(5.268 0.665)" fill="#f7cc7f"/>
      </g>
      <g id="Grupo_46863" data-name="Grupo 46863" transform="translate(680.183 961.432)">
        <path id="Trazado_97405" data-name="Trazado 97405" d="M587.08,1502.322v7.408c0,1.2-13.36,2.169-29.841,2.169s-29.841-.971-29.841-2.169v-7.408Z" transform="translate(-527.398 -1500.075)" fill="#f4b34a"/>
        <g id="Grupo_46862" data-name="Grupo 46862" transform="translate(0 2.247)">
          <path id="Trazado_97406" data-name="Trazado 97406" d="M527.4,1511.814v-9.492h21.6v7.408C548.993,1510.72,539.869,1511.554,527.4,1511.814Z" transform="translate(-489.312 -1502.322)" fill="#fec55e"/>
          <path id="Trazado_97407" data-name="Trazado 97407" d="M630.338,1511.834c-2.318.042-4.743.064-7.241.064-3.72,0-7.282-.05-10.567-.14v-9.436h17.808Z" transform="translate(-593.256 -1502.322)" fill="#fec55e"/>
          <path id="Trazado_97408" data-name="Trazado 97408" d="M702.19,1511.723c-10.632-.332-18.078-1.1-18.078-1.994v-7.408H702.19Z" transform="translate(-684.112 -1502.322)" fill="#fec55e"/>
        </g>
        <path id="Trazado_97409" data-name="Trazado 97409" d="M527.4,1496.026c0,1.2,13.36,2.168,29.841,2.168s29.841-.971,29.841-2.168-13.36-2.168-29.841-2.168S527.4,1494.829,527.4,1496.026Z" transform="translate(-527.398 -1493.858)" fill="#f4b34a"/>
        <path id="Trazado_97410" data-name="Trazado 97410" d="M547.24,1497.866c0,.831,11,1.5,24.573,1.5s24.574-.673,24.574-1.5-11-1.5-24.574-1.5S547.24,1497.036,547.24,1497.866Z" transform="translate(-541.973 -1495.698)" fill="#f7cc7f"/>
      </g>
      <g id="Grupo_46865" data-name="Grupo 46865" transform="translate(641.339 977.715)">
        <rect id="Rectángulo_28275" data-name="Rectángulo 28275" width="52.277" height="19.027" transform="translate(0)" fill="#fcfcfc"/>
        <g id="Grupo_46864" data-name="Grupo 46864" transform="translate(0)">
          <rect id="Rectángulo_28276" data-name="Rectángulo 28276" width="52.277" height="2.448" transform="translate(0 2.773)" fill="#eff4ef"/>
          <rect id="Rectángulo_28277" data-name="Rectángulo 28277" width="52.277" height="2.448" transform="translate(0 7.554)" fill="#eff4ef"/>
          <rect id="Rectángulo_28278" data-name="Rectángulo 28278" width="52.277" height="2.448" transform="translate(0 12.335)" fill="#eff4ef"/>
          <rect id="Rectángulo_28279" data-name="Rectángulo 28279" width="52.277" height="2.448" transform="translate(0 16.579)" fill="#eff4ef"/>
          <rect id="Rectángulo_28280" data-name="Rectángulo 28280" width="10.873" height="19.027" transform="translate(19.461)" fill="#f5ca56"/>
        </g>
        <rect id="Rectángulo_28281" data-name="Rectángulo 28281" width="7.895" height="19.027" transform="translate(51.643)" fill="#26aab7"/>
      </g>
      <g id="Grupo_46866" data-name="Grupo 46866" transform="translate(677.075 926.707)">
        <path id="Trazado_97411" data-name="Trazado 97411" d="M598.032,1367.505c.676-1.626,1.363-3.254,3.115-4.078a3.921,3.921,0,0,1,4.161.532c3.571,2.685.459,5.644,4.524,10.736,1.263,1.583,2.792,2.86,3.549,4.714,1.059,2.595-.2,3.841-2.224,5.084-9.676,5.947-14.748-6.263-14.565-9.057A44.971,44.971,0,0,1,598.032,1367.505Z" transform="translate(-569.342 -1363.053)"/>
        <path id="Trazado_97412" data-name="Trazado 97412" d="M655.779,1441.63c.408-.065,1.4-.774,1.749-.839.271-.05.857-.139,1.107-.175.306-1.143,1.86-7.373,2.034-9.2.188-1.978,1.588-10.537,1.588-10.537l3.622.659s-1.5,6.584-1.921,9.776c-.357,2.742-3.366,8.908-3.748,9.558,0,.016,0,.031,0,.047-.058.968-.525.645-.525.645l-.758.193s-2.681.258-2.856.323S655.372,1441.694,655.779,1441.63Z" transform="translate(-637.131 -1405.528)" fill="#ffc3b5"/>
        <path id="Trazado_97413" data-name="Trazado 97413" d="M651.533,1402.033c-2.561.869-4.017,7.831-4.017,7.831s4.018,1.121,5.047.534c0,0,1.169-5.179,1.587-5Z" transform="translate(-623.248 -1391.684)" fill="#8ec8c8"/>
        <path id="Trazado_97414" data-name="Trazado 97414" d="M738.86,1544.352a27.412,27.412,0,0,0-1.227,4.3c-.017.115.146.677.131.8a7.262,7.262,0,0,1-5.771,2.752,32.7,32.7,0,0,0,2.508-2.183,38,38,0,0,0,1-5.65C736.707,1544.924,737.524,1544.482,738.86,1544.352Z" transform="translate(-730.385 -1496.222)" fill="#ffc3b5"/>
        <path id="Trazado_97415" data-name="Trazado 97415" d="M661.27,1457.265l3.461,9.747s-5.562,1.047-7.641,1.428-13.7.889-13.99,1.095c-.219.154-2.618,7.915-3.69,12.195a10.066,10.066,0,0,1-4.405-.436c.6-6.123,2.759-15.825,3.451-16.881C639.582,1462.692,661.27,1457.265,661.27,1457.265Z" transform="translate(-630.507 -1432.254)" fill="#d1d1d1"/>
        <path id="Trazado_97416" data-name="Trazado 97416" d="M704.243,1560.446a27.36,27.36,0,0,0-.4,4.452c0,.118.27.639.278.76a7.261,7.261,0,0,1-5.153,3.784,32.353,32.353,0,0,0,2.054-2.614,37.876,37.876,0,0,0-.075-5.737C702.234,1561.412,702.955,1560.824,704.243,1560.446Z" transform="translate(-687 -1508.043)" fill="#ffc3b5"/>
        <path id="Trazado_97417" data-name="Trazado 97417" d="M645.965,1459.169l1.342,2.293a6.57,6.57,0,0,1-3.294,9.445l-.06.023c-1.971.764-13.287,3.44-13.538,3.7-.186.191-1.089,8.266-1.34,12.67a10.07,10.07,0,0,1-4.409.4c-.56-6.127-.255-16.062.227-17.229C625.679,1468.565,645.965,1459.169,645.965,1459.169Z" transform="translate(-611.162 -1433.653)" fill="#fcfcfc"/>
        <path id="Trazado_97418" data-name="Trazado 97418" d="M699.921,1577.359c.3-.333,1.408,1.5,1.684,1.89a.876.876,0,0,1,.185.84c-.1.181-5.931,3.613-7.354,3.857a.715.715,0,0,1-.426-.114c-.556-.492,2-4.126,3.152-4.6A5.512,5.512,0,0,0,699.921,1577.359Z" transform="translate(-683.252 -1520.437)" fill="#8ec8c8"/>
        <path id="Trazado_97419" data-name="Trazado 97419" d="M739.031,1560.719c.358-.27,1.1,1.736,1.3,2.172a.873.873,0,0,1,.024.859c-.13.16-6.5,2.438-7.946,2.411a.714.714,0,0,1-.4-.192c-.454-.588,2.741-3.677,3.959-3.931A5.508,5.508,0,0,0,739.031,1560.719Z" transform="translate(-731.969 -1508.226)" fill="#8ec8c8"/>
        <path id="Trazado_97420" data-name="Trazado 97420" d="M628.82,1401.55h0a.949.949,0,0,1-.258-.053,4.461,4.461,0,0,0-2.324.132c-.984.415-2.509,4.294-2.418,8.276.036.608.073,1.153.1,1.533.248,3.008,1.111,8.651,1.158,8.682,1.174.755,8.256-2.174,8.743-2.818s.773-8.461,1.01-8.851l.465-6.8A53.494,53.494,0,0,0,628.82,1401.55Z" transform="translate(-598.108 -1391.222)" fill="#8ec8c8"/>
        <path id="Trazado_97421" data-name="Trazado 97421" d="M641.071,1389.123a18.117,18.117,0,0,0-.365,3.289c.091.931-.348,3.928-2.317,3.938s-.374-3.812-.188-4.724a34.875,34.875,0,0,0,.229-3.734Z" transform="translate(-607.487 -1381.298)" fill="#ffc3b5"/>
        <path id="Trazado_97422" data-name="Trazado 97422" d="M637.415,1389.309c.031-.772.04-1.416.04-1.416l2.641,1.23s-.093.483-.187,1.1A2.3,2.3,0,0,1,637.415,1389.309Z" transform="translate(-606.513 -1381.298)" fill="#fc8899"/>
        <path id="Trazado_97423" data-name="Trazado 97423" d="M632.754,1367.145a3.271,3.271,0,0,1,1.39,1.788c.372,1.224-.052,4.381-2.68,5.143s-3.767-1.739-3.226-3.693S629.957,1365.952,632.754,1367.145Z" transform="translate(-598.206 -1365.829)" fill="#ffc3b5"/>
        <path id="Trazado_97424" data-name="Trazado 97424" d="M647.837,1374.565c.052.525.341.926.647.9s.512-.48.461-1.006-.341-.926-.647-.9S647.786,1374.04,647.837,1374.565Z" transform="translate(-618.134 -1370.77)" fill="#ffc3b5"/>
        <path id="Trazado_97425" data-name="Trazado 97425" d="M624.474,1367.406s.477,3.522,1.615,4.157.662,2.2.662,2.2,1.033-3.628.132-4.793A5.011,5.011,0,0,0,624.474,1367.406Z" transform="translate(-590.234 -1366.25)"/>
        <path id="Trazado_97426" data-name="Trazado 97426" d="M626.526,1383.491c-.309.459-.308,1,0,1.209s.812.006,1.121-.453.308-1,0-1.209S626.835,1383.032,626.526,1383.491Z" transform="translate(-591.345 -1377.672)" fill="#ffc3b5"/>
        <path id="Trazado_97427" data-name="Trazado 97427" d="M638.859,1385.709l1.853.466a.843.843,0,0,1-1.043.523C638.667,1386.478,638.859,1385.709,638.859,1385.709Z" transform="translate(-607.508 -1379.695)" fill="#fff"/>
        <path id="Trazado_97428" data-name="Trazado 97428" d="M593.294,1440.2c-.033-.085-.107-.086-.182-.088a18.568,18.568,0,0,1-2.193-.164,1.547,1.547,0,0,1-.352-.09.915.915,0,0,0-.606-.022,1.2,1.2,0,0,1-.337.036c-.368,0-1.42-.359-1.96-.453a.316.316,0,0,1-.252-.237c-.532-2.1-1.672-6.817-1.82-8.368-.189-1.983-1.558-10.923-1.558-10.923l-3.664,1.022s1.508,6.6,1.925,9.8c.322,2.471,2.792,7.714,3.565,9.223a1.545,1.545,0,0,0,1.424,1.177.457.457,0,0,1,.29.156,2.034,2.034,0,0,0,.462.4,1.085,1.085,0,0,1,.315.314c.156.227.295.465.433.7.091.158.187.208.322.17a.287.287,0,0,0,.212-.324,1.45,1.45,0,0,0-.219-.721.392.392,0,0,1,.029-.523,1.654,1.654,0,0,1,.275-.307.474.474,0,0,1,.375-.136,6.1,6.1,0,0,0,.8.148l.221.045.121.026c.019,0,.408.047.542.047.107,0,.281.008.429.015a2.317,2.317,0,0,0,.426-.063.521.521,0,0,0,.342-.137c.04-.036.078-.076.058-.136a.135.135,0,0,0-.118-.09,5.119,5.119,0,0,1-.539-.091c.136,0,.558-.01.694-.013a.636.636,0,0,0,.465-.2C593.27,1440.337,593.328,1440.284,593.294,1440.2Z" transform="translate(-544.577 -1404.8)" fill="#ffc3b5"/>
        <path id="Trazado_97429" data-name="Trazado 97429" d="M614.552,1402.264c1.808-.329,3.3,7.762,3.3,7.762s-4.018,1.121-5.047.534c0,0-1.169-5.179-1.587-5Z" transform="translate(-577.314 -1391.847)" fill="#8ec8c8"/>
      </g>
      <g id="Grupo_46870" data-name="Grupo 46870" transform="translate(524.635 796.121)">
        <g id="Grupo_46869" data-name="Grupo 46869" transform="translate(0 0)">
          <path id="Trazado_97430" data-name="Trazado 97430" d="M1309.975,1191.2s-.81.792-.828,1.084-.072,3.408.259,3.7,1.442.8.99.825c-.323.015-2.109.081-3.313.015-.351-.02-.735-2.718-.874-3.131-.2-.6-.693-1.952-.51-2.37a3.512,3.512,0,0,1,1.122-1.014,5.526,5.526,0,0,0,1.242-1.327Z" transform="translate(-1301.881 -1104.604)" fill="#f48c7f"/>
          <path id="Trazado_97431" data-name="Trazado 97431" d="M1265.121,1204.171s-.725,2.054-.726,2.06c-.054.325-.267,1.13-.267,1.425,0,1.112,5-.944,3.879-1.436a1.187,1.187,0,0,1-.454-.779,2.612,2.612,0,0,1,.421-1.314Z" transform="translate(-1248.524 -1115.732)" fill="#f7a491"/>
          <g id="Grupo_46867" data-name="Grupo 46867" transform="translate(5.324 50.183)">
            <path id="Trazado_97432" data-name="Trazado 97432" d="M1249.294,1060.193s.364,3.683.364,3.738c0,5.957,1.178,17.595.954,18.715-.546,2.731-6.426,16.668-6.426,16.668l-3.178-.381,4.142-16.685-1.525-6.717-2.155-13.276Z" transform="translate(-1230.18 -1060.193)" fill="#0f8a96"/>
            <path id="Trazado_97433" data-name="Trazado 97433" d="M1257.986,1064.9l-.6,3.491-1.631,14.366-6.214,14.04s.874,2.043,2.163,2.33l9.889-14.415,6.143-18.445-.216-4.1Z" transform="translate(-1249.539 -1061.647)" fill="#26aab7"/>
          </g>
          <path id="Trazado_97434" data-name="Trazado 97434" d="M1306.176,1193.9s1.867,5.273,2.6,5.528c.194.067,1.126.239,1.3.652a1.27,1.27,0,0,1,.024.43h-3.893s-.516-2.214-.71-3.234a15.227,15.227,0,0,1-.917-2.721C1304.695,1194.329,1306.176,1193.9,1306.176,1193.9Z" transform="translate(-1301.198 -1108.221)"/>
          <path id="Trazado_97435" data-name="Trazado 97435" d="M1249.538,1213.784l.573-1.814a4.952,4.952,0,0,0,1.8.425,18.129,18.129,0,0,0,1.775-.425c2.4.792,4.364,1.176,4.007,1.814h-8.158Z" transform="translate(-1234.218 -1121.494)"/>
          <path id="Trazado_97436" data-name="Trazado 97436" d="M1142.629,892.195s4.224,2.734,14.632,2.362c0,0-11.157,4.213-15.519,4.865l-1.8-7.091Z" transform="translate(-1104.648 -886.611)" fill="url(#linear-gradient-11)"/>
          <path id="Trazado_97437" data-name="Trazado 97437" d="M1191.379,900.59a10.752,10.752,0,0,1-2.877,3.656l-.936-3.7.061-1.788Z" transform="translate(-1151.408 -891.436)" fill="#1a76b7"/>
          <path id="Trazado_97438" data-name="Trazado 97438" d="M1187.567,875.831s12.2-.824,14.093-.128l1.96,7.743a38.471,38.471,0,0,0-13.7,1.659Z" transform="translate(-1163.648 -874.292)" fill="url(#linear-gradient-11)"/>
          <path id="Trazado_97439" data-name="Trazado 97439" d="M1210.322,1001.9l1.667,1.279c.321-.248,1.023-1.29,1.479-1.615l-1.523-1.661h0a.442.442,0,0,1-.178-.4,1.334,1.334,0,0,1,.042-.256c.047-.131.09-.288.137-.419s-.266-.4-.432-.442-.22.586-.291.774a20.542,20.542,0,0,0-.526,2.379Z" transform="translate(-1179.536 -964.612)" fill="#fc8899"/>
          <path id="Trazado_97440" data-name="Trazado 97440" d="M1233.052,1012.241c-.468-.5-1.129-.78-1.619-1.3l-7.4,5.093s-5.719-6.763-8.824-4.367a51.563,51.563,0,0,0,3.841,5.526c1.9,2.352,4.8,3.474,5.365,3.214C1225.056,1020.117,1232.886,1012.443,1233.052,1012.241Z" transform="translate(-1200.42 -973.834)" fill="#d1d1d1"/>
          <path id="Trazado_97441" data-name="Trazado 97441" d="M1323.885,939.6c.244.652.668,1.677.668,1.677.012.294.073,1.519.15,3.019l2.082-1.14a23.761,23.761,0,0,1-.24-2.582c.067-.136.224,0,.779-1.036a1.891,1.891,0,0,0,.137-.8s-.034-.614-.177-.654a.287.287,0,0,0-.327.181c-.037.111.006.355-.031.466a.765.765,0,0,1-.472.286,8.191,8.191,0,0,1-.2-1.8s.013-.518.03-.689c.015-.146.094-.578.094-.578s.078-.622-.115-.646c-.113-.014-.336.511-.466,1.055a10.389,10.389,0,0,1-.247,1.195c-.142,0-.187-1-.187-1a3.168,3.168,0,0,0,.055-.68c.1-.276.129-.77-.107-.782a4,4,0,0,0-.274.649s-.068.447-.114.658a11.872,11.872,0,0,0-.064,1.193c-.029.213-.087.134-.108.145a5.233,5.233,0,0,1-.034-.675,3.964,3.964,0,0,1-.029-.655,4.809,4.809,0,0,0,.011-.7c-.025-.513-.338-.422-.393.056-.021.183-.042.381-.062.583-.08.784.013,1.518-.068,1.534a5.584,5.584,0,0,1-.2-1.326s-.254-.721-.333-.014a6.034,6.034,0,0,0,.012,1.5A5.817,5.817,0,0,0,1323.885,939.6Z" transform="translate(-1323.604 -918.125)" fill="#ffc3b5"/>
          <path id="Trazado_97442" data-name="Trazado 97442" d="M1274.565,974.583a1.207,1.207,0,0,0-1.978.5.9.9,0,0,0-1.137.445s-1.291-.224-1.369,1.676c0,0-.656-.043-.648.729a1.9,1.9,0,0,0,.456,1.234.92.92,0,0,0-.079.995.873.873,0,0,0,.716.61s.254.988.727,1.238a1.429,1.429,0,0,0,1.047.033.677.677,0,0,0,.726.416c.5-.11,1.073-.67,1.668-.521a6.119,6.119,0,0,0,2.043-.26,2.076,2.076,0,0,0,.867-2.573,1.248,1.248,0,0,0-.1-1.743,2.172,2.172,0,0,0-.828-2.282A2.893,2.893,0,0,0,1274.565,974.583Z" transform="translate(-1259.683 -946.875)"/>
          <path id="Trazado_97443" data-name="Trazado 97443" d="M1250.233,1012.122l-2.554-1.314s-2.269.331-2.551.365-.811,10.606-.856,14.567.439,4.6.439,4.6a25.154,25.154,0,0,0,6.332-.185,20.563,20.563,0,0,0,5.675-2.453s-3.274-7.2-4.026-9.485S1250.233,1012.122,1250.233,1012.122Z" transform="translate(-1231.799 -973.735)" fill="#fcfcfc"/>
          <path id="Trazado_97444" data-name="Trazado 97444" d="M1285.678,972.729l-8.39-6.706s-1.911-7.07-2.018-7.332-1.977-.177-2.733-.159c-.242.006,1.053,7.65,1.566,8.895.607,1.472,7.091,7.725,7.091,7.725a23.232,23.232,0,0,1,1.557,6.42c.149,4.626-.18,11.055.039,11.229,1.306.617,5.975.136,6.212-.375C1291.623,986.787,1285.678,972.729,1285.678,972.729Z" transform="translate(-1272.248 -935.318)" fill="#d1d1d1"/>
          <path id="Trazado_97445" data-name="Trazado 97445" d="M1278.769,999.855l.382,1.47s.712,2.1.181,2.585-2.788-2.331-2.788-2.331l-.259-3.813Z" transform="translate(-1263.11 -964.156)" fill="#ffc3b5"/>
          <path id="Trazado_97446" data-name="Trazado 97446" d="M1278.014,999a4.326,4.326,0,0,0,2.722,2.1l-.323-1.247-2.483-2.089Z" transform="translate(-1264.755 -964.156)" fill="#fc8899"/>
          <path id="Trazado_97447" data-name="Trazado 97447" d="M1274.615,981.611a2.013,2.013,0,0,1,2.808,1.275,15.193,15.193,0,0,1,.394,1.9c.244,1.742-.455,3.551-1.248,3.647a3.769,3.769,0,0,1-3.5-3.239A3.329,3.329,0,0,1,1274.615,981.611Z" transform="translate(-1260.579 -952.142)" fill="#ffc3b5"/>
          <path id="Trazado_97448" data-name="Trazado 97448" d="M1289.922,994.382a.586.586,0,1,1-.654-.628A.648.648,0,0,1,1289.922,994.382Z" transform="translate(-1276.825 -961.206)" fill="#ffc3b5"/>
          <path id="Trazado_97449" data-name="Trazado 97449" d="M1271.223,976.285c.9.55,1.3,1.5.907,2.125a1.733,1.733,0,0,1-2.342.134c-.9-.55-1.3-1.5-.908-2.125A1.734,1.734,0,0,1,1271.223,976.285Z" transform="translate(-1253.857 -948.101)"/>
          <path id="Trazado_97450" data-name="Trazado 97450" d="M1282.056,979.125c.034.282-.279.551-.7.6s-.788-.137-.822-.419.279-.552.7-.6S1282.021,978.843,1282.056,979.125Z" transform="translate(-1266.767 -950.149)"/>
          <path id="Trazado_97451" data-name="Trazado 97451" d="M1272.314,985.836a.654.654,0,1,1-.729-.578A.657.657,0,0,1,1272.314,985.836Z" transform="translate(-1254.5 -954.964)"/>
          <path id="Trazado_97452" data-name="Trazado 97452" d="M1243.888,1013.963s3.547,8.383,4.808,11.337c.137.32.823,2.409.847,2.618.057.463-1.887,1.294-2.131,1.288-.218-.005-3.073-8.858-4.732-13.158a12.775,12.775,0,0,0-2.432-3.959l-.806-.665-.078-.249S1242.966,1011.494,1243.888,1013.963Z" transform="translate(-1223.324 -974.004)" fill="#d1d1d1"/>
          <rect id="Rectángulo_28282" data-name="Rectángulo 28282" width="0.656" height="58.892" transform="translate(23.228 0.161) rotate(-14.213)"/>
          <g id="Grupo_46868" data-name="Grupo 46868" transform="translate(32.025 34.41)">
            <path id="Trazado_97453" data-name="Trazado 97453" d="M1211.276,1002.576a1.975,1.975,0,0,0-.116-.385,1.091,1.091,0,0,0-.22-.352.669.669,0,0,1-.112-.232.413.413,0,0,0-.05-.092v0a.944.944,0,0,0-.218-.21,1,1,0,0,1-.235-.255.71.71,0,0,0-.264-.233c-.105-.051-.186-.052-.224.013-.174.3-1.046,1.256-.693,1.718a11.046,11.046,0,0,1,.761.972c.109.251.492.234.721.146A.873.873,0,0,0,1211.276,1002.576Z" transform="translate(-1209.059 -1000.776)" fill="#ffc3b5"/>
          </g>
        </g>
        <path id="Trazado_97454" data-name="Trazado 97454" d="M1277.454,999.895l-1.694.186a.754.754,0,0,0,.86.589C1277.532,1000.6,1277.454,999.895,1277.454,999.895Z" transform="translate(-1260.897 -965.719)" fill="#fff"/>
      </g>
      <g id="Grupo_46871" data-name="Grupo 46871" transform="translate(566.774 919.65)">
        <path id="Trazado_97455" data-name="Trazado 97455" d="M948.6,1340.452a8.036,8.036,0,0,0,1-.165,4.74,4.74,0,0,1,1.139-.163,2.6,2.6,0,0,1,2.008,1.041c.522.9,1.879.557.769,4.409-1.257,4.361-3.608,3.332-3.651,3.244s-1.567-3.314-1.567-3.314-1.107,1.467-1.094,1.407S944.548,1340.888,948.6,1340.452Z" transform="translate(-892.08 -1339.152)"/>
        <path id="Trazado_97456" data-name="Trazado 97456" d="M975.345,1376.214c.016-.287,1.32.014,1.489-.213s-1.428-.909-1.393-1.156c.064-.454,1.795.64,1.837.432s-1.687-1.422-1.345-1.667,1.662,1.448,1.807,1.245-1.369-1.463-1.136-1.941c.125-.255,2.314,2.483,2.7,2.477s.213-1.52.55-1.595-.018,2.921.125,3.085a44.007,44.007,0,0,0,4.294,4.841c.354-.389,2.542-2.319,2.866-2.69.54.86,1.379,1.344,1.964,2.166-1.163,1.2-4.584,3.917-5.057,3.932-1.439.047-4.527-5.78-5.19-6.833s-1.288-1.059-1.835-1.531S975.329,1376.5,975.345,1376.214Z" transform="translate(-934.932 -1363.228)" fill="#edaea2"/>
        <path id="Trazado_97457" data-name="Trazado 97457" d="M961.148,1389.863s4.859-3.739,5.772-5.422-1.243-2.878-2.937-2.9-5.28,5.023-5.28,5.023Z" transform="translate(-908.546 -1369.578)" fill="#c1507f"/>
        <path id="Trazado_97458" data-name="Trazado 97458" d="M986.165,1609.707s.145,2.609.146,2.615c.053.332.263,1.15.263,1.451,0,1.131-4.941-.96-3.834-1.462.1-.045.626-.388.658-.773.051-.594.18-1.794.18-1.794Z" transform="translate(-934.322 -1537.169)" fill="#ffc3b5"/>
        <path id="Trazado_97459" data-name="Trazado 97459" d="M986.121,1619.345a17.559,17.559,0,0,0,1.754.433c.594.086,1.378-.643,1.8-.446.463.216.416,2.35.416,2.35s-6.193.371-7.943-.2C981.453,1621.252,983.749,1620.151,986.121,1619.345Z" transform="translate(-937.691 -1544.214)" fill="#fcfcfc"/>
        <path id="Trazado_97460" data-name="Trazado 97460" d="M945.153,1610.649s.145,2.609.146,2.615c.054.331.263,1.149.263,1.451,0,1.132-4.942-.961-3.834-1.462.1-.045.781-.645.814-1.03.051-.594.024-1.537.024-1.537Z" transform="translate(-882.423 -1537.861)" fill="#ffc3b5"/>
        <path id="Trazado_97461" data-name="Trazado 97461" d="M945.034,1620.289a17.54,17.54,0,0,0,1.754.433c.594.087,1.378-.642,1.8-.445.463.217.481,2.166.481,2.166s-6.621.489-8.178.03C940.19,1622.265,942.661,1621.094,945.034,1620.289Z" transform="translate(-885.716 -1544.908)" fill="#fcfcfc"/>
        <path id="Trazado_97462" data-name="Trazado 97462" d="M954.809,1468.769l-2.089.918-4.395,21.379.178,16.026,3.523.083s1.639-14.019,1.639-15.105,7.59-19.013,7.59-19.013Z" transform="translate(-899.91 -1433.647)" fill="#03192b"/>
        <path id="Trazado_97463" data-name="Trazado 97463" d="M936.756,1468.662s1.539,16.471,1.539,19.247,1.248,18.316,1.248,18.316l3.531-.021s.255-4.736.633-11.705c.059-1.091-.076-3.293,0-4.423.549-8.126,1.178-21.809.872-22.131C942.267,1465.509,936.756,1468.662,936.756,1468.662Z" transform="translate(-880.244 -1432.363)" fill="#00223d"/>
        <path id="Trazado_97464" data-name="Trazado 97464" d="M944.028,1380.053a14.652,14.652,0,0,1,3.447.717c.766.477,1.165,2.463,1.165,2.463s-.437,10.332-.235,12.748c.156,1.869.236,9.513.236,9.513s-8.958,1.352-12.488.274c0,0,.609-5.549.486-6.982s.047-14.573.263-15.507a3.446,3.446,0,0,1,2.169-2.881A19.689,19.689,0,0,1,944.028,1380.053Z" transform="translate(-884.065 -1368.465)" fill="#fcfcfc"/>
        <path id="Trazado_97465" data-name="Trazado 97465" d="M955.993,1369.328l.9,3.407s-1.637,2.05-2.978,1.806c-1.125-.2-.965-1.651-.965-1.651a8.833,8.833,0,0,0,.167-2.973C952.851,1368.953,955.993,1369.328,955.993,1369.328Z" transform="translate(-896.771 -1360.552)" fill="#ffc3b5"/>
        <path id="Trazado_97466" data-name="Trazado 97466" d="M956.056,1369.917c-.264-.964,2.878-.589,2.878-.589l.074.282a1.584,1.584,0,0,1-.293.511,4.37,4.37,0,0,1-2.608,1.3A4.7,4.7,0,0,0,956.056,1369.917Z" transform="translate(-899.712 -1360.552)" fill="#fc8899"/>
        <path id="Trazado_97467" data-name="Trazado 97467" d="M1162.36,1599.19s-.9.882-.924,1.205-.081,3.792.289,4.115,1.453.553,1.1.918c-.263.275-2.289.216-3.632.142-.392-.021-.884-3.149-1.039-3.608-.226-.668-.774-2.172-.568-2.636a3.909,3.909,0,0,1,1.25-1.128,6.144,6.144,0,0,0,1.386-1.476Z" transform="translate(-1157.094 -1527.631)" fill="#ffc3b5"/>
        <path id="Trazado_97468" data-name="Trazado 97468" d="M1112.6,1613.619s-.809,2.285-.81,2.291c-.06.362-.3,1.256-.3,1.585,0,1.236,5.575-1.049,4.326-1.6a1.314,1.314,0,0,1-.505-.866,2.9,2.9,0,0,1,.47-1.462Z" transform="translate(-1097.97 -1540.006)" fill="#ffc3b5"/>
        <path id="Trazado_97469" data-name="Trazado 97469" d="M1094.943,1453.5s.406,4.1.406,4.157c0,6.626,1.313,19.568,1.064,20.814-.609,3.037-7.168,18.537-7.168,18.537l-3.545-.423,4.619-18.557-1.7-7.469-2.4-14.764Z" transform="translate(-1071.57 -1422.428)" fill="#03192b"/>
        <path id="Trazado_97470" data-name="Trazado 97470" d="M1104.639,1458.736l-.673,3.881-1.819,15.977-6.93,15.615s.974,2.272,2.413,2.591l11.029-16.032,6.851-20.514-.24-4.557Z" transform="translate(-1093.162 -1424.046)" fill="#00223d"/>
        <path id="Trazado_97471" data-name="Trazado 97471" d="M1157.966,1602.2s2.082,5.865,2.9,6.148c.216.075,1.255.266,1.451.726a2,2,0,0,1,0,.6h-4.342s-.549-2.584-.766-3.719a16.813,16.813,0,0,1-1.021-3.027C1156.313,1602.673,1157.966,1602.2,1157.966,1602.2Z" transform="translate(-1156.176 -1531.653)"/>
        <path id="Trazado_97472" data-name="Trazado 97472" d="M1095.217,1624.31l.638-2.017a5.541,5.541,0,0,0,2.011.473,20.129,20.129,0,0,0,1.98-.473c2.676.881,4.867,1.308,4.469,2.017h-9.1Z" transform="translate(-1082.014 -1546.414)"/>
        <path id="Trazado_97473" data-name="Trazado 97473" d="M1019.354,1412.846l-.366.22a2.8,2.8,0,0,1-.447.318c-.091.021-2.591-.034-2.591-.034s-.009.831.007.831,1.314,1.058,1.314,1.058l.277.126,1.7-.508,1.554-.2s1.1-.127,1.1-.154a7.229,7.229,0,0,0-.075-.942c-.043-.043-.668-.683-.668-.683s-.478-.107-.494-.107-.479-.092-.5-.1-.742.108-.742.108Z" transform="translate(-978.517 -1392.448)" fill="#edaea2"/>
        <path id="Trazado_97474" data-name="Trazado 97474" d="M1016.632,1414.567a4.2,4.2,0,0,0-.774.172c-.269.108-2.4,1.721-2.4,1.721s-.286.156-.436.032a.344.344,0,0,1-.14-.269s-.253.141-.425.043a.289.289,0,0,1-.145-.339.486.486,0,0,1-.393-.054c-.145-.123-.07-.441-.07-.441s-.457.279-.635.091-.1-.387.076-.538,1.232-.85,1.355-.931.474-.452.581-.5.371-.193.371-.193.441.048.468.064.15.323.371.4a.563.563,0,0,0,.49-.065.419.419,0,0,0,.005-.167,3.794,3.794,0,0,1-.21-.489c-.037-.189-.086-.242-.156-.285s-.452-.156-.64-.231a3.167,3.167,0,0,0-.979.145l-.377.161s.07-.279.307-.322.532-.108.7-.125.555.1.732.113a2.878,2.878,0,0,1,.71.114,8.432,8.432,0,0,0,1.479-.011S1017.02,1414.083,1016.632,1414.567Z" transform="translate(-972.1 -1392.281)" fill="#ffc3b5"/>
        <path id="Trazado_97475" data-name="Trazado 97475" d="M945.829,1401.016c.507-.011,6.359-.061,8.558-.079a2.426,2.426,0,0,0,1.479-.519l4.89-3.848,2.968,3.112-5.973,4.129a9.844,9.844,0,0,1-3.184.5c-2.309-.233-8.18-1.409-8.768-1.329Z" transform="translate(-901.708 -1380.615)" fill="#ffc3b5"/>
        <path id="Trazado_97476" data-name="Trazado 97476" d="M1047.239,1402.928c-.507-.011-6.672-.1-8.871-.119a2.425,2.425,0,0,1-1.478-.519l-4.891-3.849-2.141,2.468,6.071,4.386a2.044,2.044,0,0,0,1.4.377c2.309-.234,8.634-.852,9.221-.772Z" transform="translate(-1007.538 -1381.99)" fill="#edaea2"/>
        <path id="Trazado_97477" data-name="Trazado 97477" d="M936.026,1387.876s4.094-4.306,5.574-5.393a2.126,2.126,0,0,1,3.453,1.71c.138,2.738-5.29,7.637-5.29,7.637Z" transform="translate(-880.447 -1369.926)" fill="#c1507f"/>
        <path id="Trazado_97478" data-name="Trazado 97478" d="M1087.921,1387.879s-4.094-4.306-5.575-5.393-4.459-.163-4.223,1.7c.241,1.9,6.929,6.724,6.929,6.724Z" transform="translate(-1061.03 -1369.929)" fill="#167377"/>
        <path id="Trazado_97479" data-name="Trazado 97479" d="M1100.214,1385.345c.1.659,1.849,18.588,1.849,18.588-8.3,4.009-12.882.714-12.882.714s.272-12.59-.054-14.3c-.215-1.134-.014-8.776.72-8.987a13.418,13.418,0,0,1,2.733-.573,30.707,30.707,0,0,1,5.612.07A8.906,8.906,0,0,1,1100.214,1385.345Z" transform="translate(-1078.075 -1368.953)" fill="#167377"/>
        <path id="Trazado_97480" data-name="Trazado 97480" d="M1107.652,1366.539l-.611,3.734s2.236,4.751,3.572,4.351c1.12-.335.431-4.416.431-4.416a10.745,10.745,0,0,1-.428-3.288C1110.8,1365.823,1107.652,1366.539,1107.652,1366.539Z" transform="translate(-1092.044 -1358.387)" fill="#ffc3b5"/>
        <path id="Trazado_97481" data-name="Trazado 97481" d="M1112.162,1366.919c.183-1.1-2.964-.381-2.964-.381l-.051.321a1.773,1.773,0,0,0,.341.54,4.228,4.228,0,0,0,2.753,1.195A5.709,5.709,0,0,1,1112.162,1366.919Z" transform="translate(-1093.59 -1358.387)" fill="#fc8899"/>
        <path id="Trazado_97482" data-name="Trazado 97482" d="M1102.552,1343.186c-.089-.031-.713,4.411.471,5.634s3.493,1.622,4.32.66c.915-1.065.869-5.839-.972-7.1S1102.552,1343.186,1102.552,1343.186Z" transform="translate(-1087.46 -1340.515)" fill="#ffc3b5"/>
        <path id="Trazado_97483" data-name="Trazado 97483" d="M1108.666,1337.431a3.336,3.336,0,0,0-2.432,1.856,3.51,3.51,0,0,0,1.006,4.7,2.741,2.741,0,0,1,1.275,2.065l.211-.566a3.1,3.1,0,0,0,.163-1.354,2.565,2.565,0,0,0-.21-.815c-.313-.643.67-1.07.946-1.605.212-.411.223-1.354.557-2.034l.4-.52a2.611,2.611,0,0,1,1.823-.493C1113.306,1338.853,1112.2,1334.636,1108.666,1337.431Z" transform="translate(-1093.141 -1336.471)"/>
        <path id="Trazado_97484" data-name="Trazado 97484" d="M1118.714,1356.486c.009.542-.248.986-.574.991s-.6-.429-.608-.972.247-.986.573-.99S1118.7,1355.944,1118.714,1356.486Z" transform="translate(-1102.289 -1350.459)" fill="#ffc3b5"/>
        <path id="Trazado_97485" data-name="Trazado 97485" d="M1106.371,1363.024l-1.957.2a.86.86,0,0,0,.984.676C1106.45,1363.822,1106.371,1363.024,1106.371,1363.024Z" transform="translate(-1086.465 -1355.975)" fill="#fff"/>
        <path id="Trazado_97486" data-name="Trazado 97486" d="M1135.334,1417.062a.546.546,0,0,1,0-.121c.13-1.313,1.219-12.332,1.4-12.8.165-.423,5.052-7.412,5.052-7.412l2.4,3.272-4.7,6.269c-.105.4-1.8,7.836-1.8,7.836s-.348,1.356-.5,2.168c.072.2.141.38.2.532a4.851,4.851,0,0,0,.506.814,5.578,5.578,0,0,1,.6,1.061c.049.192.139.589.19.829s.12.52.132.65a1.246,1.246,0,0,0,.152.349.21.21,0,0,1-.248.3c-.171-.057-.3-.278-.386-.416-.231-.388-.355-1.1-.411-1.06s-.26,1.241-.292,1.378a14.86,14.86,0,0,1-.412,1.79c-.137.256-.318.213-.367.053-.042-.138.151-2.095.151-2.095s.024-.25-.085-.172-.288,1.854-.364,2.114-.249.4-.4.189a7.868,7.868,0,0,1,.129-2.138s.034-.237-.067-.215-.228,1.536-.307,1.666a.2.2,0,0,1-.372-.04,9.324,9.324,0,0,1,.178-1.936s-.014-.134-.077-.089-.264,1.327-.394,1.445a.138.138,0,0,1-.2,0c-.24-.163.127-1.384.124-1.99a14.987,14.987,0,0,0,.194-2.01C1135.359,1417.243,1135.344,1417.132,1135.334,1417.062Z" transform="translate(-1132.391 -1380.732)" fill="#ffc3b5"/>
        <path id="Trazado_97487" data-name="Trazado 97487" d="M1126.935,1391.185l4.174,2.8a45.281,45.281,0,0,1,3.615-4.747c1.582-1.561-.576-6.344-1.6-6.073C1130.849,1383.772,1126.935,1391.185,1126.935,1391.185Z" transform="translate(-1121.357 -1370.762)" fill="#167377"/>
        <path id="Trazado_97488" data-name="Trazado 97488" d="M955.807,1347.087a2.158,2.158,0,0,0-2.9,1.594,16.442,16.442,0,0,0-.271,2.066c-.122,1.886.768,3.768,1.622,3.806a4.051,4.051,0,0,0,3.483-3.753A3.574,3.574,0,0,0,955.807,1347.087Z" transform="translate(-897.555 -1344.159)" fill="#ffc3b5"/>
        <path id="Trazado_97489" data-name="Trazado 97489" d="M950.456,1360.169a.628.628,0,1,0,.65-.726A.7.7,0,0,0,950.456,1360.169Z" transform="translate(-890.907 -1353.344)" fill="#ffc3b5"/>
        <path id="Trazado_97490" data-name="Trazado 97490" d="M955.646,1348.588s-1.05.027-1.277-.694a3.077,3.077,0,0,0-3.048-2.193c-1.8.2,1.785-1.065,1.919-1.036l1.748.375s1.016,1.3,1.036,1.418.107,1.425.107,1.425Z" transform="translate(-895.447 -1342.489)"/>
        <path id="Trazado_97491" data-name="Trazado 97491" d="M963.61,1367.834l-1.887-.054a.825.825,0,0,0,.851.768C963.586,1368.606,963.61,1367.834,963.61,1367.834Z" transform="translate(-905.823 -1359.468)" fill="#fff"/>
      </g>
    </g>
  </g>
</svg>
