<svg xmlns="http://www.w3.org/2000/svg" xmlns:xlink="http://www.w3.org/1999/xlink" width="236.091" height="251.497" viewBox="0 0 236.091 251.497">
  <defs>
    <linearGradient id="linear-gradient" x1="1.047" y1="-0.803" x2="0.223" y2="1.106" gradientUnits="objectBoundingBox">
      <stop offset="0" stop-color="#1d325f"/>
      <stop offset="1" stop-color="#00030e"/>
    </linearGradient>
    <linearGradient id="linear-gradient-2" x1="2.929" y1="-13.106" x2="0.343" y2="1.338" xlink:href="#linear-gradient"/>
    <linearGradient id="linear-gradient-3" x1="4.546" y1="-12.953" x2="0.602" y2="0.147" xlink:href="#linear-gradient"/>
    <linearGradient id="linear-gradient-4" x1="0.5" x2="0.5" y2="1" gradientUnits="objectBoundingBox">
      <stop offset="0" stop-color="#fff"/>
      <stop offset="1" stop-color="#d2e6ee"/>
    </linearGradient>
  </defs>
  <g id="Grupo_179440" data-name="Grupo 179440" transform="translate(-4180.776 9065.047)">
    <g id="Grupo_176495" data-name="Grupo 176495" transform="translate(4033.058 -9161.972)">
      <path id="Trazado_96572" data-name="Trazado 96572" d="M196.7,175.736c-30.966-10.03-57.022,19.8-45.812,44.611,11.624,25.725,41.858,3.055,29.37-4.019-6.277-3.556-18.2,3.514-22.282,14.339-5.171,13.719-7.339,24.24-4.283,40.059,6.164,31.9,36.56,50.826,64.24,31.824,14.5-9.958,28.876-26.7,51.409-26.7" transform="translate(0 -9.772)" fill="none" stroke="#fff" stroke-miterlimit="10" stroke-width="1" stroke-dasharray="3"/>
      <path id="Trazado_96573" data-name="Trazado 96573" d="M215.308,170.1a23.668,23.668,0,0,0-.569-5.168,2.678,2.678,0,0,1,1.26-2.917l2.343-1.353a2.67,2.67,0,0,0,.977-3.649l-2.472-4.283a2.672,2.672,0,0,0-3.65-.977l-2.35,1.356a2.676,2.676,0,0,1-3.157-.368,23.562,23.562,0,0,0-8.947-5.168,2.674,2.674,0,0,1-1.894-2.548v-2.711a2.671,2.671,0,0,0-2.672-2.672h-4.945a2.671,2.671,0,0,0-2.672,2.672v2.711a2.674,2.674,0,0,1-1.893,2.548,23.565,23.565,0,0,0-8.948,5.168,2.676,2.676,0,0,1-3.157.368l-2.35-1.356a2.67,2.67,0,0,0-3.649.977l-2.473,4.283a2.671,2.671,0,0,0,.978,3.649l2.343,1.353a2.676,2.676,0,0,1,1.26,2.917,23.762,23.762,0,0,0,0,10.337,2.678,2.678,0,0,1-1.26,2.917l-2.343,1.353a2.671,2.671,0,0,0-.978,3.649l2.473,4.283a2.67,2.67,0,0,0,3.649.977l2.35-1.356a2.678,2.678,0,0,1,3.157.368,23.565,23.565,0,0,0,8.948,5.168,2.674,2.674,0,0,1,1.893,2.548v2.711a2.671,2.671,0,0,0,2.672,2.672h4.945a2.671,2.671,0,0,0,2.672-2.672v-2.711a2.674,2.674,0,0,1,1.894-2.548,23.562,23.562,0,0,0,8.947-5.168,2.678,2.678,0,0,1,3.157-.368l2.35,1.357a2.673,2.673,0,0,0,3.65-.978l2.472-4.282a2.671,2.671,0,0,0-.977-3.65L216,178.184a2.677,2.677,0,0,1-1.26-2.917A23.668,23.668,0,0,0,215.308,170.1Zm-23.6,12.076A12.076,12.076,0,1,1,203.783,170.1,12.076,12.076,0,0,1,191.708,182.174Z" transform="translate(-1.678 -6.08)" fill="#fff"/>
      <path id="Trazado_96574" data-name="Trazado 96574" d="M256.02,183.383a18.273,18.273,0,0,0-.44-4,2.07,2.07,0,0,1,.975-2.254l1.811-1.046a2.065,2.065,0,0,0,.756-2.821l-1.912-3.311a2.065,2.065,0,0,0-2.821-.756l-1.816,1.049a2.07,2.07,0,0,1-2.441-.284,18.215,18.215,0,0,0-6.917-3.995A2.069,2.069,0,0,1,241.75,164v-2.1a2.065,2.065,0,0,0-2.065-2.065h-3.823A2.066,2.066,0,0,0,233.8,161.9V164a2.068,2.068,0,0,1-1.463,1.971,18.212,18.212,0,0,0-6.918,3.995,2.07,2.07,0,0,1-2.441.284l-1.816-1.049a2.065,2.065,0,0,0-2.821.756l-1.912,3.311a2.066,2.066,0,0,0,.756,2.821l1.811,1.046a2.068,2.068,0,0,1,.975,2.254,18.382,18.382,0,0,0,0,7.993,2.069,2.069,0,0,1-.975,2.255l-1.811,1.046a2.066,2.066,0,0,0-.756,2.821l1.912,3.311a2.066,2.066,0,0,0,2.821.756l1.816-1.05a2.07,2.07,0,0,1,2.441.284,18.214,18.214,0,0,0,6.918,4,2.067,2.067,0,0,1,1.463,1.97v2.1a2.065,2.065,0,0,0,2.065,2.065h3.824a2.065,2.065,0,0,0,2.065-2.065v-2.1a2.068,2.068,0,0,1,1.464-1.97,18.218,18.218,0,0,0,6.917-4,2.068,2.068,0,0,1,2.441-.284l1.816,1.049a2.066,2.066,0,0,0,2.821-.756l1.912-3.311a2.065,2.065,0,0,0-.756-2.821l-1.811-1.046a2.071,2.071,0,0,1-.975-2.255A18.266,18.266,0,0,0,256.02,183.383Zm-18.246,9.336a9.336,9.336,0,1,1,9.336-9.336A9.337,9.337,0,0,1,237.773,192.719Z" transform="translate(-7.353 -8.266)" fill="#7d6eb2"/>
      <path id="Trazado_96575" data-name="Trazado 96575" d="M214.432,174.873c6.991,4.153,24.265,8.764,32.492,1.781s8.346-22.333,1.895-30.984c-2.445-3.279-7.33-5.855-10.431-3.19-2.694,2.315-1.693,6.949.86,9.418,4.875,4.715,13.189,3.956,18.869.251,18.4-12,33.656-25.967,54.066-30.485,25.081-5.553,45.788,6.893,38.155,24.743-3.436,8.033-7.031,16.195-8.056,24.871s2.632,18.886,10.963,21.518c5.3,1.674,10.984-.1,16.384-1.413s11.608-2.032,16.068,1.286a12.8,12.8,0,0,1,3.466,15.539c-6.588,12.674-40.792,15.693-40.792,32.889" transform="translate(-7.167 -3.989)" fill="none" stroke="#fff" stroke-miterlimit="10" stroke-width="1" stroke-dasharray="3"/>
      <g id="Grupo_46303" data-name="Grupo 46303" transform="translate(309.353 135.269)">
        <g id="Grupo_46301" data-name="Grupo 46301" transform="translate(0 0)">
          <rect id="Rectángulo_28305" data-name="Rectángulo 28305" width="51.536" height="69.446" rx="5.13" fill="#fff"/>
          <path id="Trazado_96576" data-name="Trazado 96576" d="M334.046,141.557h42.388a4.573,4.573,0,0,1,4.574,4.574v60.3A4.574,4.574,0,0,1,376.434,211" transform="translate(-329.472 -141.557)" fill="none" stroke="#00223d" stroke-linecap="round" stroke-miterlimit="10" stroke-width="0.25"/>
        </g>
        <g id="Grupo_46302" data-name="Grupo 46302" transform="translate(8.148 18.636)">
          <rect id="Rectángulo_28306" data-name="Rectángulo 28306" width="30.114" height="2.468" fill="#e8e8e8"/>
          <rect id="Rectángulo_28307" data-name="Rectángulo 28307" width="30.114" height="2.468" transform="translate(0 9.51)" fill="#e8e8e8"/>
          <rect id="Rectángulo_28308" data-name="Rectángulo 28308" width="30.114" height="2.468" transform="translate(0 19.019)" fill="#e8e8e8"/>
          <rect id="Rectángulo_28309" data-name="Rectángulo 28309" width="30.114" height="2.468" transform="translate(0 28.529)" fill="#e8e8e8"/>
          <rect id="Rectángulo_28310" data-name="Rectángulo 28310" width="30.114" height="2.468" transform="translate(0 38.039)" fill="#e8e8e8"/>
        </g>
        <rect id="Rectángulo_28311" data-name="Rectángulo 28311" width="4.773" height="4.772" rx="0.969" transform="translate(41.45 17.484)" fill="none" stroke="#00223d" stroke-linecap="round" stroke-miterlimit="10" stroke-width="0.25"/>
        <rect id="Rectángulo_28312" data-name="Rectángulo 28312" width="4.773" height="4.773" rx="0.969" transform="translate(41.45 26.994)" fill="none" stroke="#00223d" stroke-linecap="round" stroke-miterlimit="10" stroke-width="0.25"/>
        <rect id="Rectángulo_28313" data-name="Rectángulo 28313" width="4.773" height="4.773" rx="0.969" transform="translate(41.45 36.504)" fill="none" stroke="#00223d" stroke-linecap="round" stroke-miterlimit="10" stroke-width="0.25"/>
        <rect id="Rectángulo_28314" data-name="Rectángulo 28314" width="4.773" height="4.772" rx="0.969" transform="translate(41.45 46.013)" fill="none" stroke="#00223d" stroke-linecap="round" stroke-miterlimit="10" stroke-width="0.25"/>
        <rect id="Rectángulo_28315" data-name="Rectángulo 28315" width="4.773" height="4.773" rx="0.969" transform="translate(41.45 55.523)" fill="none" stroke="#00223d" stroke-linecap="round" stroke-miterlimit="10" stroke-width="0.25"/>
        <path id="Trazado_96577" data-name="Trazado 96577" d="M376.368,165.15l.028-3.017,3.017.027-.027,2.989Z" transform="translate(-334.055 -143.785)" fill="#26aab7"/>
        <path id="Trazado_96578" data-name="Trazado 96578" d="M376.368,175.814l.028-3.017,3.017.028-.027,2.989Z" transform="translate(-334.055 -144.939)" fill="#26aab7"/>
        <path id="Trazado_96579" data-name="Trazado 96579" d="M376.368,186.479l.028-3.017,3.017.028-.027,2.989Z" transform="translate(-334.055 -146.094)" fill="#26aab7"/>
      </g>
      <g id="Grupo_46314" data-name="Grupo 46314" transform="translate(273.413 231.352)">
        <g id="Grupo_46304" data-name="Grupo 46304" transform="translate(0 7.838)">
          <rect id="Rectángulo_28316" data-name="Rectángulo 28316" width="101.994" height="81.152" rx="12" fill="#fff"/>
          <path id="Trazado_96580" data-name="Trazado 96580" d="M390.606,271.738v56.821a12.165,12.165,0,0,1-12.165,12.165H300.778a12.165,12.165,0,0,1-12.165-12.165" transform="translate(-288.613 -259.573)" fill="none" stroke="#00223d" stroke-miterlimit="10" stroke-width="0.25"/>
          <path id="Trazado_96581" data-name="Trazado 96581" d="M288.613,270.261A12.165,12.165,0,0,1,300.778,258.1h77.664a12.165,12.165,0,0,1,12.165,12.165Z" transform="translate(-288.613 -258.096)" fill="#7d6eb2"/>
        </g>
        <g id="Grupo_46309" data-name="Grupo 46309" transform="translate(14.518 29.057)">
          <g id="Grupo_46305" data-name="Grupo 46305">
            <rect id="Rectángulo_28317" data-name="Rectángulo 28317" width="12.729" height="8.901" rx="1.684" fill="#e8e8e8"/>
            <rect id="Rectángulo_28318" data-name="Rectángulo 28318" width="12.729" height="8.901" rx="1.684" transform="translate(15.057)" fill="#e8e8e8"/>
            <rect id="Rectángulo_28319" data-name="Rectángulo 28319" width="12.729" height="8.901" rx="1.684" transform="translate(30.114)" fill="#e8e8e8"/>
            <rect id="Rectángulo_28320" data-name="Rectángulo 28320" width="12.729" height="8.901" rx="1.684" transform="translate(45.171)" fill="#e8e8e8"/>
            <rect id="Rectángulo_28321" data-name="Rectángulo 28321" width="12.729" height="8.901" rx="1.684" transform="translate(60.228)" fill="#e8e8e8"/>
          </g>
          <g id="Grupo_46306" data-name="Grupo 46306" transform="translate(0 12.461)">
            <rect id="Rectángulo_28322" data-name="Rectángulo 28322" width="12.729" height="8.901" rx="1.684" fill="#e8e8e8"/>
            <rect id="Rectángulo_28323" data-name="Rectángulo 28323" width="12.729" height="8.901" rx="1.684" transform="translate(15.057)" fill="#7d6eb2"/>
            <rect id="Rectángulo_28324" data-name="Rectángulo 28324" width="12.729" height="8.901" rx="1.684" transform="translate(30.114)" fill="#e8e8e8"/>
            <rect id="Rectángulo_28325" data-name="Rectángulo 28325" width="12.729" height="8.901" rx="1.684" transform="translate(45.171)" fill="#e8e8e8"/>
            <rect id="Rectángulo_28326" data-name="Rectángulo 28326" width="12.729" height="8.901" rx="1.684" transform="translate(60.228)" fill="#e8e8e8"/>
          </g>
          <g id="Grupo_46307" data-name="Grupo 46307" transform="translate(0 24.922)">
            <rect id="Rectángulo_28327" data-name="Rectángulo 28327" width="12.729" height="8.901" rx="1.684" fill="#e8e8e8"/>
            <rect id="Rectángulo_28328" data-name="Rectángulo 28328" width="12.729" height="8.901" rx="1.684" transform="translate(15.057)" fill="#e8e8e8"/>
            <rect id="Rectángulo_28329" data-name="Rectángulo 28329" width="12.729" height="8.901" rx="1.684" transform="translate(30.114)" fill="#e8e8e8"/>
            <rect id="Rectángulo_28330" data-name="Rectángulo 28330" width="12.729" height="8.901" rx="1.684" transform="translate(45.171)" fill="#7d6eb2"/>
            <rect id="Rectángulo_28331" data-name="Rectángulo 28331" width="12.729" height="8.901" rx="1.684" transform="translate(60.228)" fill="#e8e8e8"/>
          </g>
          <g id="Grupo_46308" data-name="Grupo 46308" transform="translate(0 37.383)">
            <rect id="Rectángulo_28332" data-name="Rectángulo 28332" width="12.729" height="8.901" rx="1.684" fill="#e8e8e8"/>
            <rect id="Rectángulo_28333" data-name="Rectángulo 28333" width="12.729" height="8.901" rx="1.684" transform="translate(15.057)" fill="#e8e8e8"/>
            <rect id="Rectángulo_28334" data-name="Rectángulo 28334" width="12.729" height="8.901" rx="1.684" transform="translate(30.114)" fill="#e8e8e8"/>
            <rect id="Rectángulo_28335" data-name="Rectángulo 28335" width="12.729" height="8.901" rx="1.684" transform="translate(45.171)" fill="#e8e8e8"/>
            <rect id="Rectángulo_28336" data-name="Rectángulo 28336" width="12.729" height="8.901" rx="1.684" transform="translate(60.228)" fill="#e8e8e8"/>
          </g>
        </g>
        <g id="Grupo_46310" data-name="Grupo 46310" transform="translate(74.009)">
          <path id="Trazado_96582" data-name="Trazado 96582" d="M374.633,264.982h0a3.025,3.025,0,0,1-3.025-3.025v-9.626a3.025,3.025,0,0,1,3.025-3.025h0a3.025,3.025,0,0,1,3.025,3.025v9.626A3.025,3.025,0,0,1,374.633,264.982Z" transform="translate(-371.608 -249.306)" fill="#cfdeff"/>
          <path id="Trazado_96583" data-name="Trazado 96583" d="M377.657,252.7v9.626a3.025,3.025,0,0,1-3.025,3.025h0a3.025,3.025,0,0,1-3.025-3.025" transform="translate(-371.608 -249.673)" fill="none" stroke="#00030e" stroke-linecap="round" stroke-miterlimit="10" stroke-width="0.25"/>
        </g>
        <g id="Grupo_46311" data-name="Grupo 46311" transform="translate(46.954 29.464)">
          <path id="Trazado_96584" data-name="Trazado 96584" d="M348.072,290.434h0l-5.325-5.326a1.951,1.951,0,0,1,0-2.76h0l5.325,5.326A1.951,1.951,0,0,1,348.072,290.434Z" transform="translate(-341.366 -282.348)" fill="#00223d"/>
          <path id="Trazado_96585" data-name="Trazado 96585" d="M341.268,289.153h0l5.326-5.326a1.951,1.951,0,0,1,2.76,0h0l-5.326,5.326A1.953,1.953,0,0,1,341.268,289.153Z" transform="translate(-341.268 -282.446)" fill="#00223d"/>
        </g>
        <g id="Grupo_46312" data-name="Grupo 46312" transform="translate(16.839 54.387)">
          <path id="Trazado_96586" data-name="Trazado 96586" d="M314.3,318.382h0l-5.326-5.326a1.95,1.95,0,0,1,0-2.759h0l5.326,5.325A1.953,1.953,0,0,1,314.3,318.382Z" transform="translate(-307.595 -310.297)" fill="#00223d"/>
          <path id="Trazado_96587" data-name="Trazado 96587" d="M307.5,317.1h0l5.326-5.326a1.951,1.951,0,0,1,2.76,0h0l-5.326,5.326A1.953,1.953,0,0,1,307.5,317.1Z" transform="translate(-307.497 -310.395)" fill="#00223d"/>
        </g>
        <g id="Grupo_46313" data-name="Grupo 46313" transform="translate(77.068 66.848)">
          <path id="Trazado_96588" data-name="Trazado 96588" d="M381.843,332.356h0l-5.326-5.326a1.951,1.951,0,0,1,0-2.759h0l5.326,5.326A1.95,1.95,0,0,1,381.843,332.356Z" transform="translate(-375.137 -324.271)" fill="#00223d"/>
          <path id="Trazado_96589" data-name="Trazado 96589" d="M375.039,331.075h0l5.326-5.326a1.95,1.95,0,0,1,2.759,0h0l-5.325,5.326A1.953,1.953,0,0,1,375.039,331.075Z" transform="translate(-375.039 -324.369)" fill="#00223d"/>
        </g>
      </g>
      <g id="Grupo_46316" data-name="Grupo 46316" transform="translate(214.549 138.219)">
        <circle id="Elipse_3888" data-name="Elipse 3888" cx="57.022" cy="57.022" r="57.022" transform="translate(0 112.511) rotate(-80.594)" fill="#12263f"/>
        <circle id="Elipse_3889" data-name="Elipse 3889" cx="45.044" cy="45.044" r="45.044" transform="translate(1.873 65.575) rotate(-45)" fill="#fff"/>
        <g id="Grupo_46315" data-name="Grupo 46315" transform="translate(23.543 23.543)">
          <rect id="Rectángulo_28337" data-name="Rectángulo 28337" width="4.987" height="7.131" rx="0.973" transform="translate(39.538)" fill="#e8e8e8"/>
          <rect id="Rectángulo_28338" data-name="Rectángulo 28338" width="4.988" height="7.131" rx="0.973" transform="translate(18.856 6.878) rotate(-29.999)" fill="#e8e8e8"/>
          <rect id="Rectángulo_28339" data-name="Rectángulo 28339" width="4.988" height="7.131" rx="0.973" transform="translate(4.384 23.175) rotate(-59.999)" fill="#e8e8e8"/>
          <rect id="Rectángulo_28340" data-name="Rectángulo 28340" width="4.987" height="7.131" rx="0.973" transform="translate(0 44.525) rotate(-90)" fill="#e8e8e8"/>
          <rect id="Rectángulo_28341" data-name="Rectángulo 28341" width="4.988" height="7.131" rx="0.973" transform="translate(6.878 65.207) rotate(-120.001)" fill="#e8e8e8"/>
          <rect id="Rectángulo_28342" data-name="Rectángulo 28342" width="4.988" height="7.131" rx="0.973" transform="translate(23.176 79.679) rotate(-150.001)" fill="#e8e8e8"/>
          <rect id="Rectángulo_28343" data-name="Rectángulo 28343" width="4.987" height="7.131" rx="0.973" transform="translate(44.526 84.063) rotate(180)" fill="#e8e8e8"/>
          <rect id="Rectángulo_28344" data-name="Rectángulo 28344" width="4.988" height="7.131" rx="0.973" transform="translate(65.207 77.186) rotate(150.001)" fill="#e8e8e8"/>
          <rect id="Rectángulo_28345" data-name="Rectángulo 28345" width="4.988" height="7.131" rx="0.973" transform="translate(79.679 60.888) rotate(119.999)" fill="#e8e8e8"/>
          <rect id="Rectángulo_28346" data-name="Rectángulo 28346" width="4.987" height="7.131" rx="0.973" transform="translate(84.064 39.538) rotate(90)" fill="#e8e8e8"/>
          <rect id="Rectángulo_28347" data-name="Rectángulo 28347" width="4.988" height="7.131" rx="0.973" transform="translate(77.186 18.856) rotate(60)" fill="#e8e8e8"/>
          <rect id="Rectángulo_28348" data-name="Rectángulo 28348" width="4.988" height="7.131" rx="0.973" transform="translate(60.888 4.384) rotate(29.999)" fill="#e8e8e8"/>
        </g>
        <path id="Trazado_96590" data-name="Trazado 96590" d="M296.138,167.888a45.044,45.044,0,0,1,0,90.089" transform="translate(-230.563 -147.358)" fill="none" stroke="#00223d" stroke-miterlimit="10" stroke-width="0.25"/>
        <path id="Trazado_96591" data-name="Trazado 96591" d="M296.138,154.456a57.022,57.022,0,0,1,0,114.044" transform="translate(-230.563 -145.903)" fill="none" stroke="#00223d" stroke-miterlimit="10" stroke-width="0.25"/>
        <path id="Trazado_96592" data-name="Trazado 96592" d="M296.305,178.065c1.491,7.071,5.121,30.07.063,41.79a.678.678,0,0,1-1.243,0c-5.059-11.72-1.428-34.718.063-41.79A.57.57,0,0,1,296.305,178.065Z" transform="translate(-230.172 -148.411)" fill="#00223d"/>
        <path id="Trazado_96593" data-name="Trazado 96593" d="M264.984,217.67c5.461-1.152,24.908-3.956,33.96-.049a.524.524,0,0,1,0,.96c-9.052,3.907-28.5,1.1-33.96-.048A.44.44,0,0,1,264.984,217.67Z" transform="translate(-227.152 -152.526)" fill="#00223d"/>
      </g>
      <g id="Grupo_46321" data-name="Grupo 46321" transform="translate(176.728 176.352)">
        <g id="Grupo_46317" data-name="Grupo 46317" transform="translate(19.46)">
          <path id="Trazado_96594" data-name="Trazado 96594" d="M204.962,216.2l3.665-10.311h10.921l-2.468,8.763Z" transform="translate(-202.33 -189.604)" fill="#f4b7bc" stroke="#f4b7bc" stroke-linecap="round" stroke-linejoin="round" stroke-width="0.25"/>
          <path id="Trazado_96595" data-name="Trazado 96595" d="M218.916,210.828l-.363,4.355,1.173-4.173Z" transform="translate(-203.802 -190.139)" fill="#00030e" stroke="#00030e" stroke-miterlimit="10" stroke-width="0.25"/>
          <circle id="Elipse_3890" data-name="Elipse 3890" cx="8.383" cy="8.383" r="8.383" transform="translate(0 16.667) rotate(-76.718)" fill="#f4b7bc" stroke="#f4b7bc" stroke-linecap="round" stroke-linejoin="round" stroke-width="0.25"/>
          <path id="Trazado_96596" data-name="Trazado 96596" d="M220.964,195.184c1.941,3.935,2.258,10.267.253,13.011s-4.643-.211-5.224-1.689c0,0-1.819-1.648-1.53-2.954.337-1.525,2.3-1.3,2.585.369" transform="translate(-203.356 -188.446)" fill="#f4b7bc" stroke="#f4b7bc" stroke-linecap="round" stroke-linejoin="round" stroke-width="0.25"/>
          <path id="Trazado_96597" data-name="Trazado 96597" d="M215.455,206.984c.828.783,1.788.1,1.635-.948" transform="translate(-203.466 -189.621)" fill="none" stroke="#00030e" stroke-linecap="round" stroke-linejoin="round" stroke-width="0.25"/>
          <path id="Trazado_96598" data-name="Trazado 96598" d="M214.858,201.84c.857.464,1.234,1.789,2.333,1.587.826-.152,1.053-1.134.9-1.824s-.35-1.668.036-2.135,1.632-1.356.831-2.491.869-2.259,1.112-3.625c.441-2.482-2.7-6.666-8.516-5.537-7.2,1.4-6.858,6.364-6.858,6.364a4.511,4.511,0,0,0-2.17,2.82c-.66,1.959.06,4.17,2.475,6.51s1.831,3.023,1.352,3.608-.16,1.276,1.65,1.383,5.835,0,6.03-3.511a4.929,4.929,0,0,1-.885-1.679A1.23,1.23,0,0,1,214.858,201.84Z" transform="translate(-202.041 -187.627)" stroke="#00030e" stroke-linecap="round" stroke-linejoin="round" stroke-width="0.25" fill="url(#linear-gradient)"/>
          <path id="Trazado_96599" data-name="Trazado 96599" d="M222.227,197.527c1.166,3.815,1.115,8.625-.564,10.922a2.173,2.173,0,0,1-3.111.759" transform="translate(-203.802 -188.699)" fill="none" stroke="#00030e" stroke-linecap="round" stroke-linejoin="round" stroke-width="0.25"/>
          <path id="Trazado_96600" data-name="Trazado 96600" d="M203.441,217.362l1.356-2.738s3.728-1.779,13.039-.523l.628,1.407Z" transform="translate(-202.166 -190.445)" fill="#167377"/>
        </g>
        <g id="Grupo_46319" data-name="Grupo 46319" transform="translate(0 17.996)">
          <path id="Trazado_96601" data-name="Trazado 96601" d="M231.832,209.466a4.254,4.254,0,0,0-2.558-.851h-1.255l-2.684-.761a1.208,1.208,0,0,0-1.134.259c-.745.663-2.141,1.907-2.821,2.541-.164.153.045.487.2.537a2.073,2.073,0,0,0,1.8-.362l.154-.11,1.125,1.314a8.648,8.648,0,0,1,1.615,2.836c1.47,4.312,4.252,3.745,5.822,4.894l3.485-7.386C233.988,211.1,232.691,210.109,231.832,209.466Zm-6.668.685,1.056.35.158.747Z" transform="translate(-184.641 -207.808)" fill="#f4b7bc" stroke="#f4b7bc" stroke-linecap="round" stroke-linejoin="round" stroke-width="0.25"/>
          <path id="Trazado_96602" data-name="Trazado 96602" d="M232.8,216.242c-.387.489-2.549.1-4.929.717v.315c1.527,2.309,3.643,2.1,4.938,3.043l3.485-7.386A13.517,13.517,0,0,0,232.8,216.242Z" transform="translate(-185.35 -208.363)" fill="#00030e" stroke="#00030e" stroke-linecap="round" stroke-linejoin="round" stroke-width="0.25"/>
          <path id="Trazado_96603" data-name="Trazado 96603" d="M198.66,218.5c-10.5,2.777-19.036,25.778-18.443,30.046s8.883,18.635,18.313,23.13l2.91-8.072s-10.044-10.373-9.734-14.223c0,0,.546-2.625,4.872-7Z" transform="translate(-180.187 -208.966)" fill="#8ec8c8"/>
          <g id="Grupo_46318" data-name="Grupo 46318" transform="translate(11.334 18.731)">
            <path id="Trazado_96604" data-name="Trazado 96604" d="M200.837,266.537a36.8,36.8,0,0,1-1.1,9.767c.3.166.606.323.912.468l2.91-8.072s-1.246-1.287-2.844-3.119A9.193,9.193,0,0,1,200.837,266.537Z" transform="translate(-193.638 -232.794)" fill="#00030e" stroke="#00030e" stroke-linecap="round" stroke-linejoin="round" stroke-width="0.25"/>
            <path id="Trazado_96605" data-name="Trazado 96605" d="M197.954,243.5l1.66-14.683c-6,1.14-7.529,5.766-6.346,9.6,1.292,4.193,1.513,4.64,2.5,7.507A32.481,32.481,0,0,1,197.954,243.5Z" transform="translate(-192.897 -228.813)" fill="#00030e" stroke="#00030e" stroke-linecap="round" stroke-linejoin="round" stroke-width="0.25"/>
          </g>
          <path id="Trazado_96606" data-name="Trazado 96606" d="M200.221,284.715c-4.292-10.256,3.982-15.24-1.327-32.322-2.912-9.37-4.784-17.154-5.925-22.568a9.978,9.978,0,0,1,7.051-11.628c6.877-1.981,16.8-3.707,25.615-1.359a9.954,9.954,0,0,1,7.166,7.551c1.812,8.5,7.4,27.673,5.612,60.325Z" transform="translate(-181.548 -208.663)" fill="#8ec8c8"/>
          <path id="Trazado_96607" data-name="Trazado 96607" d="M200.247,286.429c-4.292-10.256,3.982-15.24-1.327-32.322-2.912-9.37-4.784-17.154-5.925-22.568" transform="translate(-181.574 -210.378)" fill="none" stroke="#00030e" stroke-linecap="round" stroke-linejoin="round" stroke-width="0.25"/>
          <path id="Trazado_96608" data-name="Trazado 96608" d="M233.725,241.578s6.095,23.105,1.576,45.937" transform="translate(-185.984 -211.465)" fill="none" stroke="#00030e" stroke-linecap="round" stroke-miterlimit="10" stroke-width="0.25"/>
          <path id="Trazado_96609" data-name="Trazado 96609" d="M228.174,238.757c4.442,4.707,13.144,13.823,13.144,13.823a102.587,102.587,0,0,0-2.509-14.974Z" transform="translate(-185.383 -211.035)" fill="#00030e" stroke="#00030e" stroke-linecap="round" stroke-miterlimit="10" stroke-width="0.25"/>
          <path id="Trazado_96610" data-name="Trazado 96610" d="M211.812,284.867a18.817,18.817,0,0,1-.488-12.322c3.656-11.55-14.639-51.813-5.089-55.45" transform="translate(-182.705 -208.814)" fill="none" stroke="#00030e" stroke-linecap="round" stroke-miterlimit="10" stroke-width="0.25"/>
          <path id="Trazado_96611" data-name="Trazado 96611" d="M252.847,236.085c2.608-9.367-15.959-23.154-15.959-23.154a8.781,8.781,0,0,0-3.485,7.386Z" transform="translate(-185.949 -208.363)" fill="#8ec8c8"/>
          <path id="Trazado_96612" data-name="Trazado 96612" d="M233.4,220.693l6.276,5.09,6.123-.242a91.332,91.332,0,0,0-11.485-9.138A8.628,8.628,0,0,0,233.4,220.693Z" transform="translate(-185.949 -208.739)" fill="#00030e" stroke="#00030e" stroke-miterlimit="10" stroke-width="0.25"/>
          <path id="Trazado_96613" data-name="Trazado 96613" d="M227.654,216.641c-6.689-.71-6.6,15.22,0,19.843s22.253,6.4,24.032,0S235.514,217.476,227.654,216.641Z" transform="translate(-184.787 -208.762)" fill="#8ec8c8"/>
          <path id="Trazado_96614" data-name="Trazado 96614" d="M223.027,229.368c.63,3.439,2.189,6.764,4.665,8.5,6.6,4.624,22.253,6.4,24.032,0" transform="translate(-184.826 -210.142)" fill="none" stroke="#00030e" stroke-linecap="round" stroke-miterlimit="10" stroke-width="0.25"/>
          <path id="Trazado_96615" data-name="Trazado 96615" d="M247.921,227.989c-5.481-5.462-14.635-10.811-19.662-11.345" transform="translate(-185.392 -208.765)" fill="none" stroke="#00030e" stroke-linecap="round" stroke-miterlimit="10" stroke-width="0.25"/>
          <path id="Trazado_96616" data-name="Trazado 96616" d="M252.883,236.085c2.608-9.367-15.959-23.154-15.959-23.154a8.807,8.807,0,0,0-3.2,4.727" transform="translate(-185.984 -208.363)" fill="none" stroke="#00030e" stroke-linecap="round" stroke-miterlimit="10" stroke-width="0.25"/>
          <path id="Trazado_96617" data-name="Trazado 96617" d="M200.9,218.2a56.791,56.791,0,0,1,19.745-2.352" transform="translate(-182.43 -208.663)" fill="none" stroke="#00030e" stroke-linecap="round" stroke-linejoin="round" stroke-width="0.25"/>
        </g>
        <g id="Grupo_46320" data-name="Grupo 46320" transform="translate(15.432 94.046)">
          <path id="Trazado_96618" data-name="Trazado 96618" d="M217.817,293.093H200.734a22.932,22.932,0,0,0,1.435,2.829s-.5,22.6-1.506,28.371c-.933,5.36-5.11,12.667-2.09,39.989,2.249,1.452,6.468.415,9.525-.649l9.72-62.3Z" transform="translate(-197.494 -293.093)" fill="#8ec8c8"/>
          <path id="Trazado_96619" data-name="Trazado 96619" d="M215.76,295.561l-.57,35.159,4.544-29.122v-6.037Z" transform="translate(-199.41 -293.36)" fill="#00030e" stroke="#00030e" stroke-linecap="round" stroke-miterlimit="10" stroke-width="0.25"/>
          <path id="Trazado_96620" data-name="Trazado 96620" d="M228.888,364.4a572.311,572.311,0,0,0,8.9-71.308l-24.959,0a12.593,12.593,0,0,0,5.481,4.793s7.841,21.392,4.693,29.036c-3.888,9.443-4.624,27.59-4.722,37.393C220.376,367.138,226.236,366.669,228.888,364.4Z" transform="translate(-199.154 -293.093)" fill="#8ec8c8"/>
          <path id="Trazado_96621" data-name="Trazado 96621" d="M236.52,293.094H201.128c.177.421.378.853.6,1.292h34.717C236.468,293.957,236.5,293.519,236.52,293.094Z" transform="translate(-197.887 -293.093)" fill="#00030e" stroke="#00030e" stroke-miterlimit="10" stroke-width="0.25"/>
          <path id="Trazado_96622" data-name="Trazado 96622" d="M236.788,377.57a4.566,4.566,0,0,0-1.624-1.481l-5.616-3.039c-2.652,2.268-8.512,2.737-10.608-.084-.018,1.784-.014,3.294-.005,4.422a2.274,2.274,0,0,0,2.277,2.252h15.667a.69.69,0,0,0,.574-1.073Z" transform="translate(-199.815 -301.741)" stroke="#00030e" stroke-linecap="round" stroke-linejoin="round" stroke-width="0.25" fill="url(#linear-gradient-2)"/>
          <path id="Trazado_96623" data-name="Trazado 96623" d="M198.7,372.847q.3,2.735.7,5.742a1.117,1.117,0,0,0,1.1.968h9.3a1.106,1.106,0,0,0,1.069-1.414,42.348,42.348,0,0,0-2.653-5.945C205.172,373.262,200.953,374.3,198.7,372.847Z" transform="translate(-197.625 -301.658)" stroke="#00030e" stroke-linecap="round" stroke-linejoin="round" stroke-width="0.25" fill="url(#linear-gradient-3)"/>
          <path id="Trazado_96624" data-name="Trazado 96624" d="M214.532,295.562a10.093,10.093,0,0,0,3.961,2.594s7.841,21.391,4.693,29.036" transform="translate(-199.339 -293.36)" fill="none" stroke="#00030e" stroke-linecap="round" stroke-miterlimit="10" stroke-width="0.25"/>
          <path id="Trazado_96625" data-name="Trazado 96625" d="M234.506,293.093c-.533,23.937-2.658,39.793-8.12,73.022" transform="translate(-200.622 -293.093)" fill="none" stroke="#00030e" stroke-miterlimit="10" stroke-width="0.25"/>
          <line id="Línea_1506" data-name="Línea 1506" y1="9.633" x2="1.99" transform="translate(33.562)" fill="none" stroke="#00030e" stroke-miterlimit="10" stroke-width="0.25"/>
          <line id="Línea_1507" data-name="Línea 1507" x1="8.31" y2="58.838" transform="translate(9.742 11.989)" fill="none" stroke="#00030e" stroke-miterlimit="10" stroke-width="0.25"/>
        </g>
      </g>
      <path id="Trazado_96628" data-name="Trazado 96628" d="M180.561,275.3l.919,2.483a8.2,8.2,0,0,0,4.845,4.845l2.483.919-2.483.918a8.2,8.2,0,0,0-4.845,4.845l-.919,2.483-.919-2.483a8.2,8.2,0,0,0-4.845-4.845l-2.483-.918,2.483-.919a8.2,8.2,0,0,0,4.845-4.845Z" transform="translate(-2.607 -20.769)" fill="#26aab7"/>
      <path id="Trazado_96631" data-name="Trazado 96631" d="M252.718,278.168l.26.7a2.316,2.316,0,0,0,1.368,1.368l.7.259-.7.26a2.314,2.314,0,0,0-1.368,1.368l-.26.7-.259-.7a2.315,2.315,0,0,0-1.369-1.368l-.7-.26.7-.259a2.317,2.317,0,0,0,1.369-1.368Z" transform="translate(-11.061 -21.079)" fill="#26aab7"/>
      <path id="Trazado_96633" data-name="Trazado 96633" d="M172.03,264.724l.26.7a2.318,2.318,0,0,0,1.368,1.369l.7.259-.7.26a2.311,2.311,0,0,0-1.368,1.368l-.26.7-.259-.7a2.311,2.311,0,0,0-1.368-1.368l-.7-.26.7-.259a2.318,2.318,0,0,0,1.368-1.369Z" transform="translate(-2.324 -19.624)" fill="#26aab7"/>
      <g id="Grupo_46332" data-name="Grupo 46332" transform="translate(148.24 113.552)">
        <g id="Grupo_46137" data-name="Grupo 46137" transform="translate(0 8.679)">
          <g id="Grupo_46134" data-name="Grupo 46134">
            <path id="Trazado_96135" data-name="Trazado 96135" d="M503.31,1092.907a.281.281,0,0,1-.182-.241c-.027-.367-.047-.741-.06-1.111a.272.272,0,0,1,.271-.28c.375-.008.273.366.348,1.359a.272.272,0,0,1-.259.291A.286.286,0,0,1,503.31,1092.907Z" transform="translate(-503.068 -1063.739)" fill="#00223d"/>
            <path id="Trazado_96136" data-name="Trazado 96136" d="M504.768,691.392c.069-.7.167-1.414.291-2.11a.275.275,0,0,1,.324-.219c.415.081.144.314-.058,2.39a.274.274,0,0,1-.306.243A.282.282,0,0,1,504.768,691.392Zm1.117-5.466c.213-.678.458-1.359.719-2a.281.281,0,0,1,.521.21c-.259.641-.5,1.3-.7,1.962a.281.281,0,0,1-.535-.17Zm2.219-5.115c.347-.615.724-1.224,1.121-1.81a.281.281,0,0,1,.468.31c-.388.574-.758,1.171-1.1,1.773A.281.281,0,0,1,508.1,680.81Zm3.274-4.159a.273.273,0,0,1-.03-.389c.469-.53.967-1.049,1.479-1.541.263-.253.658.143.4.4-.5.483-.989.991-1.449,1.51A.282.282,0,0,1,511.378,676.651Zm4.05-3.788a.271.271,0,0,1,.051-.385c.572-.424,1.167-.83,1.771-1.208a.279.279,0,0,1,.306.466c-.591.37-1.175.769-1.735,1.184A.285.285,0,0,1,515.428,672.863Zm4.915-2.748a.282.282,0,0,1-.155-.14.27.27,0,0,1,.13-.366c.649-.3,1.318-.578,1.987-.827a.285.285,0,0,1,.363.161.27.27,0,0,1-.158.355c-.656.244-1.312.516-1.948.81A.284.284,0,0,1,520.343,670.115Zm5.289-1.819a.282.282,0,0,1-.175-.193.271.271,0,0,1,.2-.332c.7-.163,1.412-.3,2.122-.41a.284.284,0,0,1,.323.23.271.271,0,0,1-.229.314c-.7.107-1.4.242-2.079.4A.284.284,0,0,1,525.632,668.3Zm5.388-.966a.272.272,0,0,1,.268-.283c.719-.019,1.449-.01,2.17.027a.275.275,0,1,1-.021.55c-.706-.036-1.422-.045-2.126-.026A.283.283,0,0,1,531.02,667.33Zm17.948,5.982c-1.678-1.281-2.055-1.261-1.825-1.608a.281.281,0,0,1,.387-.077c.606.393,1.2.814,1.777,1.252A.275.275,0,1,1,548.968,673.312ZM536.644,667.7a.275.275,0,0,1,.322-.222c.71.126,1.425.281,2.125.461a.275.275,0,1,1-.134.533c-.686-.176-1.387-.328-2.083-.452A.281.281,0,0,1,536.644,667.7Zm7.565,2.692c-1.9-.918-2.269-.824-2.116-1.212a.286.286,0,0,1,.362-.153c.674.265,1.346.558,1.995.872a.275.275,0,1,1-.241.494Z" transform="translate(-504.657 -667.038)" fill="#00223d"/>
            <path id="Trazado_96137" data-name="Trazado 96137" d="M1225.652,792.822c-.643-.687-1.042-.92-.775-1.182a.283.283,0,0,1,.4,0c.694.684,1.042.957.775,1.2A.32.32,0,0,1,1225.652,792.822Z" transform="translate(-1177.947 -783.478)" fill="#00223d"/>
          </g>
          <g id="Grupo_46135" data-name="Grupo 46135" transform="translate(6.561 27.783)">
            <path id="Trazado_96138" data-name="Trazado 96138" d="M1350.844,1096.71a.281.281,0,0,1-.183-.276c.02-.362.032-.728.036-1.089a.273.273,0,0,1,.284-.268.283.283,0,0,1,.277.283c0,.368-.017.742-.037,1.111a.274.274,0,0,1-.295.256A.29.29,0,0,1,1350.844,1096.71Z" transform="translate(-1302.207 -1095.078)" fill="#00223d"/>
            <path id="Trazado_96139" data-name="Trazado 96139" d="M665.25,1188.4c-.721-.295-1.438-.623-2.13-.976a.276.276,0,0,1-.124-.371c.2-.38.355-.024,2.464.839a.277.277,0,0,1,.156.36A.285.285,0,0,1,665.25,1188.4Zm3.407.869c.106-.413.351-.1,2.581.3a.28.28,0,0,1,.231.32.275.275,0,0,1-.322.222c-.763-.135-1.532-.3-2.287-.5A.28.28,0,0,1,668.657,1189.268Zm-8.8-3.793c-.638-.442-1.267-.916-1.867-1.41a.273.273,0,0,1-.039-.388c.277-.327.352.054,2.223,1.349a.274.274,0,0,1,.072.384A.282.282,0,0,1,659.853,1185.475Zm14.982,5.023a.281.281,0,0,1-.183-.268.273.273,0,0,1,.287-.264c.761.031,1.531.03,2.289,0a.283.283,0,0,1,.3.263.272.272,0,0,1-.263.287c-.773.033-1.559.034-2.336,0A.288.288,0,0,1,674.835,1190.5Zm6.036-.415a.283.283,0,0,1-.178-.207.271.271,0,0,1,.221-.32c.745-.134,1.493-.3,2.224-.5a.285.285,0,0,1,.347.194.271.271,0,0,1-.192.338c-.746.2-1.51.37-2.271.507A.284.284,0,0,1,680.87,1190.083Zm5.778-1.708a.283.283,0,0,1-.159-.15.27.27,0,0,1,.143-.361c.7-.291,1.386-.616,2.054-.964a.286.286,0,0,1,.38.115.27.27,0,0,1-.112.372c-.681.355-1.386.686-2.1.984A.284.284,0,0,1,686.648,1188.375Zm5.242-2.912a.286.286,0,0,1-.128-.1.271.271,0,0,1,.059-.384c.612-.434,1.212-.9,1.784-1.383a.284.284,0,0,1,.4.031.271.271,0,0,1-.026.388c-.584.494-1.2.969-1.821,1.412A.282.282,0,0,1,691.891,1185.463Zm4.368-4.027c-.329-.285.058-.343,1.4-2.129a.281.281,0,0,1,.453.331c-.457.609-.947,1.207-1.456,1.775A.283.283,0,0,1,696.259,1181.435Zm3.493-4.821c-.384-.208-.022-.345.881-2.385a.281.281,0,0,1,.514.226c-.308.7-.65,1.387-1.017,2.052A.28.28,0,0,1,699.751,1176.615Zm2.295-5.478a.279.279,0,0,1-.172-.335c.206-.72.383-1.454.525-2.183a.275.275,0,0,1,.328-.213.28.28,0,0,1,.222.326c-.146.744-.326,1.493-.536,2.227a.276.276,0,0,1-.345.186Z" transform="translate(-654.396 -1163.641)" fill="#00223d"/>
            <path id="Trazado_96140" data-name="Trazado 96140" d="M604.968,1350.685c-.663-.715-1-1-.718-1.231s.452.131,1.13.864a.272.272,0,0,1-.016.389A.284.284,0,0,1,604.968,1350.685Z" transform="translate(-604.152 -1332.876)" fill="#00223d"/>
          </g>
          <g id="Grupo_46136" data-name="Grupo 46136" transform="translate(6.961 6.653)">
            <path id="Trazado_96141" data-name="Trazado 96141" d="M613.786,801.515l3.982-.493a17.817,17.817,0,0,0,4.318,3.684c.155,3.839-.106,4.12.3,4.256l4.589,1.529a.33.33,0,0,0,.366-.108l2.417-3.12a17.756,17.756,0,0,0,5.657-.361l2.9,2.784a.336.336,0,0,0,.379.061l4.3-2.093a.318.318,0,0,0,.177-.332L642.6,803.4a16.92,16.92,0,0,0,3.683-4.189l4.018-.015a.324.324,0,0,0,.308-.22l1.486-4.488a.325.325,0,0,0-.116-.361l-3.211-2.423a16.989,16.989,0,0,0-.453-5.567c2.666-2.8,3.04-2.8,2.845-3.177-2.225-4.135-2.1-4.487-2.534-4.433l-3.982.493a17.822,17.822,0,0,0-4.318-3.684c-.155-3.837.106-4.12-.3-4.256-4.585-1.441-4.695-1.756-4.954-1.42l-2.417,3.12a17.746,17.746,0,0,0-5.657.361c-2.851-2.63-2.889-3.034-3.276-2.845-4.214,2.145-4.533,2-4.472,2.424l.562,3.922a16.923,16.923,0,0,0-3.683,4.189c-3.835.093-4.19-.175-4.326.235-1.39,4.466-1.717,4.587-1.37,4.849l3.211,2.423a16.992,16.992,0,0,0,.453,5.567c-2.657,2.788-3.041,2.8-2.845,3.177C613.477,801.217,613.35,801.569,613.786,801.515Z" transform="translate(-610.306 -769.538)" fill="#12263f"/>
            <path id="Trazado_96142" data-name="Trazado 96142" d="M859.9,1018.148a4.6,4.6,0,0,1,5-4.234,4.74,4.74,0,0,1,4.383,4.982,4.6,4.6,0,0,1-5,4.234h0A4.74,4.74,0,0,1,859.9,1018.148Zm4.411,4.57h0Zm.536-7.98a3.773,3.773,0,0,0-4.108,3.477,3.892,3.892,0,0,0,3.6,4.092,3.777,3.777,0,0,0,4.108-3.477A3.893,3.893,0,0,0,864.846,1014.738Z" transform="translate(-843.689 -998.038)" fill="url(#linear-gradient-4)"/>
            <path id="Trazado_96143" data-name="Trazado 96143" d="M755.762,924.966h0a12.425,12.425,0,0,1-1.879-.9.415.415,0,0,1-.184-.5.392.392,0,0,1,.031-.064.421.421,0,0,1,.574-.142,11.622,11.622,0,0,0,2.183.988h0a11.126,11.126,0,0,0,13.978-6.458q.079-.21.15-.425a11.252,11.252,0,0,0-21.345-7.111c-1.138,3.438-.143,5.745-.277,6.1a.423.423,0,0,1-.8-.062,11.622,11.622,0,0,1,.443-6.76c3.627-9.6,17.288-10.185,22.049-.953a11.631,11.631,0,0,1,.733,9.053q-.077.233-.163.461a11.589,11.589,0,0,1-5.824,6.354,12.131,12.131,0,0,1-9.2.584Q755.993,925.054,755.762,924.966Z" transform="translate(-738.953 -893.479)" fill="url(#linear-gradient-4)"/>
          </g>
        </g>
        <g id="Grupo_46141" data-name="Grupo 46141" transform="translate(47.082 0)">
          <g id="Grupo_46138" data-name="Grupo 46138">
            <path id="Trazado_96144" data-name="Trazado 96144" d="M1228.59,791.676a.171.171,0,0,1-.111-.146c-.017-.223-.029-.45-.036-.674a.165.165,0,0,1,.164-.17c.228,0,.166.222.211.825a.165.165,0,0,1-.157.177A.173.173,0,0,1,1228.59,791.676Z" transform="translate(-1228.443 -773.981)" fill="#00223d"/>
            <path id="Trazado_96145" data-name="Trazado 96145" d="M1229.474,548.093c.042-.427.1-.858.177-1.28a.167.167,0,0,1,.2-.133c.252.049.088.191-.035,1.45a.166.166,0,0,1-.185.148A.171.171,0,0,1,1229.474,548.093Zm.678-3.316c.13-.411.278-.825.436-1.215a.17.17,0,0,1,.316.128c-.157.389-.3.788-.427,1.19a.171.171,0,0,1-.325-.1Zm1.346-3.1c.211-.373.439-.742.68-1.1a.17.17,0,0,1,.284.188c-.236.348-.459.71-.666,1.076A.17.17,0,0,1,1231.5,541.673Zm1.986-2.523a.165.165,0,0,1-.018-.236c.285-.322.587-.636.9-.935.16-.153.4.087.24.24-.3.293-.6.6-.879.916A.171.171,0,0,1,1233.484,539.15Zm2.457-2.3a.164.164,0,0,1,.031-.234c.347-.257.708-.5,1.074-.733a.169.169,0,0,1,.186.283c-.359.225-.713.466-1.053.718A.173.173,0,0,1,1235.941,536.852Zm2.982-1.667a.171.171,0,0,1-.094-.085.164.164,0,0,1,.078-.222c.394-.182.8-.351,1.206-.5a.173.173,0,0,1,.22.1.164.164,0,0,1-.1.215c-.4.148-.8.313-1.182.492A.171.171,0,0,1,1238.922,535.185Zm3.208-1.1a.172.172,0,0,1-.106-.117.164.164,0,0,1,.123-.2c.424-.1.857-.183,1.287-.249a.172.172,0,0,1,.2.139.165.165,0,0,1-.139.191c-.422.065-.847.147-1.261.244A.172.172,0,0,1,1242.131,534.082Zm3.269-.586a.166.166,0,0,1,.163-.172c.436-.011.879-.006,1.317.016a.167.167,0,1,1-.012.334c-.428-.022-.862-.027-1.29-.016A.172.172,0,0,1,1245.4,533.5Zm10.888,3.629c-1.018-.777-1.247-.765-1.107-.976a.171.171,0,0,1,.235-.047c.367.238.73.494,1.078.759A.167.167,0,1,1,1256.288,537.125Zm-7.477-3.407a.167.167,0,0,1,.2-.135c.43.076.865.171,1.289.28a.167.167,0,1,1-.081.323c-.416-.107-.841-.2-1.263-.274A.17.17,0,0,1,1248.811,533.717Zm4.59,1.633c-1.152-.557-1.376-.5-1.284-.736a.173.173,0,0,1,.22-.093c.409.161.816.339,1.21.529a.168.168,0,0,1,.08.224A.169.169,0,0,1,1253.4,535.351Z" transform="translate(-1229.406 -533.318)" fill="#00223d"/>
            <path id="Trazado_96146" data-name="Trazado 96146" d="M1666.806,609.626c-.39-.417-.632-.558-.47-.717a.172.172,0,0,1,.24,0c.421.415.632.58.47.727A.194.194,0,0,1,1666.806,609.626Z" transform="translate(-1637.866 -603.958)" fill="#00223d"/>
          </g>
          <g id="Grupo_46139" data-name="Grupo 46139" transform="translate(3.98 16.855)">
            <path id="Trazado_96147" data-name="Trazado 96147" d="M1742.755,793.983a.17.17,0,0,1-.111-.167c.012-.219.019-.442.022-.661a.166.166,0,0,1,.172-.162.172.172,0,0,1,.168.172c0,.223-.01.45-.022.674a.166.166,0,0,1-.179.155A.175.175,0,0,1,1742.755,793.983Z" transform="translate(-1713.249 -792.993)" fill="#00223d"/>
            <path id="Trazado_96148" data-name="Trazado 96148" d="M1326.832,849.608c-.437-.179-.872-.378-1.293-.592a.167.167,0,0,1-.075-.225c.119-.23.215-.014,1.495.509a.168.168,0,0,1,.094.218A.173.173,0,0,1,1326.832,849.608Zm2.067.527c.064-.251.213-.059,1.566.18a.17.17,0,0,1,.14.194.167.167,0,0,1-.2.135c-.463-.082-.93-.184-1.387-.3A.169.169,0,0,1,1328.9,850.135Zm-5.341-2.3c-.387-.268-.769-.556-1.133-.855a.166.166,0,0,1-.023-.236c.168-.2.213.033,1.349.818a.167.167,0,0,1,.043.233A.171.171,0,0,1,1323.558,847.833Zm9.089,3.047a.17.17,0,0,1-.111-.163.166.166,0,0,1,.174-.16c.462.019.929.018,1.388,0a.172.172,0,0,1,.18.16.165.165,0,0,1-.16.174c-.469.02-.946.021-1.417,0A.177.177,0,0,1,1332.646,850.881Zm3.662-.252a.172.172,0,0,1-.108-.126.164.164,0,0,1,.134-.194c.452-.081.906-.183,1.349-.3a.173.173,0,0,1,.21.118.164.164,0,0,1-.116.2c-.453.121-.916.225-1.377.308A.175.175,0,0,1,1336.308,850.629Zm3.505-1.037a.171.171,0,0,1-.1-.091.164.164,0,0,1,.087-.219c.421-.177.841-.374,1.246-.585a.173.173,0,0,1,.231.07.164.164,0,0,1-.068.226c-.413.215-.841.416-1.271.6A.172.172,0,0,1,1339.814,849.593Zm3.18-1.766a.175.175,0,0,1-.078-.059.164.164,0,0,1,.036-.233c.371-.263.735-.546,1.083-.839a.172.172,0,0,1,.24.019.165.165,0,0,1-.016.236c-.354.3-.726.588-1.1.857A.172.172,0,0,1,1342.994,847.826Zm2.65-2.443c-.2-.173.035-.208.848-1.291a.17.17,0,0,1,.274.2c-.277.37-.574.732-.883,1.077A.171.171,0,0,1,1345.644,845.383Zm2.119-2.924c-.233-.126-.014-.209.535-1.447a.17.17,0,0,1,.312.137c-.187.422-.395.841-.617,1.245A.17.17,0,0,1,1347.763,842.458Zm1.392-3.323a.169.169,0,0,1-.1-.2c.125-.437.232-.882.319-1.324a.167.167,0,0,1,.2-.13.17.17,0,0,1,.135.2c-.088.451-.2.906-.325,1.351a.168.168,0,0,1-.209.113Z" transform="translate(-1320.247 -834.587)" fill="#00223d"/>
            <path id="Trazado_96149" data-name="Trazado 96149" d="M1290.261,948.06c-.4-.434-.6-.608-.436-.747s.274.079.685.524a.165.165,0,0,1-.01.236A.172.172,0,0,1,1290.261,948.06Z" transform="translate(-1289.766 -937.256)" fill="#00223d"/>
          </g>
          <g id="Grupo_46140" data-name="Grupo 46140" transform="translate(4.223 4.036)">
            <path id="Trazado_96150" data-name="Trazado 96150" d="M1295.611,614.9l2.415-.3a10.812,10.812,0,0,0,2.62,2.235c.094,2.329-.064,2.5.185,2.582l2.784.927a.2.2,0,0,0,.222-.066l1.466-1.893a10.772,10.772,0,0,0,3.432-.219l1.757,1.689a.2.2,0,0,0,.23.037l2.606-1.27a.192.192,0,0,0,.107-.2l-.341-2.379a10.266,10.266,0,0,0,2.234-2.541l2.438-.009a.2.2,0,0,0,.187-.133l.9-2.723a.2.2,0,0,0-.07-.219l-1.948-1.47a10.307,10.307,0,0,0-.275-3.377c1.617-1.7,1.844-1.7,1.726-1.928-1.35-2.509-1.273-2.722-1.538-2.689l-2.415.3a10.811,10.811,0,0,0-2.62-2.235c-.094-2.328.064-2.5-.185-2.582-2.781-.874-2.848-1.065-3.006-.862l-1.466,1.893a10.769,10.769,0,0,0-3.432.219c-1.73-1.6-1.752-1.841-1.988-1.726-2.556,1.3-2.75,1.214-2.713,1.471l.341,2.379a10.269,10.269,0,0,0-2.234,2.541c-2.326.056-2.542-.106-2.624.142-.843,2.709-1.042,2.783-.831,2.942l1.948,1.47a10.321,10.321,0,0,0,.275,3.377c-1.611,1.691-1.845,1.7-1.726,1.928C1295.423,614.719,1295.346,614.933,1295.611,614.9Z" transform="translate(-1293.499 -595.5)" fill="#f6c343"/>
            <path id="Trazado_96151" data-name="Trazado 96151" d="M1444.918,746.322a2.79,2.79,0,0,1,3.035-2.568,2.876,2.876,0,0,1,2.659,3.023,2.79,2.79,0,0,1-3.035,2.568h0A2.875,2.875,0,0,1,1444.918,746.322Zm2.676,2.773h0Zm.325-4.841a2.289,2.289,0,0,0-2.493,2.109,2.361,2.361,0,0,0,2.184,2.482,2.292,2.292,0,0,0,2.492-2.109A2.362,2.362,0,0,0,1447.919,744.254Z" transform="translate(-1435.084 -734.123)" fill="url(#linear-gradient-4)"/>
            <path id="Trazado_96152" data-name="Trazado 96152" d="M1381.742,689.793h0a7.527,7.527,0,0,1-1.14-.543.252.252,0,0,1-.112-.3.289.289,0,0,1,.019-.039.256.256,0,0,1,.349-.086,7.053,7.053,0,0,0,1.324.6h0a6.75,6.75,0,0,0,8.48-3.918q.048-.127.091-.258a6.826,6.826,0,0,0-12.949-4.314,7.575,7.575,0,0,0-.168,3.7.257.257,0,0,1-.488-.037,7.05,7.05,0,0,1,.269-4.1c2.2-5.824,10.488-6.179,13.377-.578a7.056,7.056,0,0,1,.445,5.492c-.031.094-.064.187-.1.279a7.032,7.032,0,0,1-3.533,3.855,7.362,7.362,0,0,1-5.581.354Q1381.883,689.846,1381.742,689.793Z" transform="translate(-1371.545 -670.691)" fill="url(#linear-gradient-4)"/>
          </g>
        </g>
      </g>
      <g id="Grupo_46333" data-name="Grupo 46333" transform="translate(343.357 96.925)">
        <path id="Trazado_94748" data-name="Trazado 94748" d="M102.593,91.063l19.814.2a1.827,1.827,0,0,1,1.638,1.058l1.808,3.895a.222.222,0,0,0,.423-.085l.2-4.825.2-19.289a3.416,3.416,0,0,0-3.381-3.451l-20.466-.212a3.416,3.416,0,0,0-3.452,3.381l-.164,15.872A3.417,3.417,0,0,0,102.593,91.063Z" transform="translate(-99.212 -68.359)" fill="#00223d" style="mix-blend-mode: multiply;isolation: isolate"/>
        <path id="Rectángulo_28116" data-name="Rectángulo 28116" d="M.555,0H3.618a.556.556,0,0,1,.556.556v5.82a.556.556,0,0,1-.556.556H.556A.556.556,0,0,1,0,6.375V.555A.555.555,0,0,1,.555,0Z" transform="translate(9.442 11.28) rotate(0.591)" fill="#7d6eb2"/>
        <rect id="Rectángulo_28117" data-name="Rectángulo 28117" width="4.173" height="4.174" rx="0.431" transform="translate(4.734 13.989) rotate(0.593)" fill="#f6c343"/>
        <rect id="Rectángulo_28118" data-name="Rectángulo 28118" width="4.173" height="10.665" rx="0.556" transform="matrix(1, 0.01, -0.01, 1, 14.117, 7.594)" fill="#8ec8c8"/>
        <rect id="Rectángulo_28119" data-name="Rectángulo 28119" width="3.77" height="13.762" rx="0.888" transform="translate(18.786 4.545) rotate(0.593)" fill="#fff"/>
      </g>
    </g>
  </g>
</svg>
