<svg xmlns="http://www.w3.org/2000/svg" xmlns:xlink="http://www.w3.org/1999/xlink" width="172.525" height="158.438" viewBox="0 0 172.525 158.438">
  <defs>
    <clipPath id="clip-path">
      <rect id="Rect치ngulo_57567" data-name="Rect치ngulo 57567" width="172.525" height="158.438" fill="none"/>
    </clipPath>
    <linearGradient id="linear-gradient" x1="0.5" x2="0.5" y2="1" gradientUnits="objectBoundingBox">
      <stop offset="0" stop-color="#f5f5f5"/>
      <stop offset="0.25" stop-color="#f5f5f5"/>
      <stop offset="1" stop-color="#a7b3cf"/>
    </linearGradient>
    <linearGradient id="linear-gradient-2" x1="0.5" x2="0.5" y2="1" gradientUnits="objectBoundingBox">
      <stop offset="0" stop-color="#116eb9"/>
      <stop offset="1" stop-color="#1894f6"/>
    </linearGradient>
  </defs>
  <g id="Grupo_179439" data-name="Grupo 179439" transform="translate(-1650.72 8412.166)">
    <g id="Grupo_179306" data-name="Grupo 179306" transform="translate(1650.72 -8412.166)">
      <g id="Grupo_179358" data-name="Grupo 179358" clip-path="url(#clip-path)">
        <path id="Trazado_228251" data-name="Trazado 228251" d="M172.525,110.2a3.705,3.705,0,0,1-3.552,1.711c-8.757-.055-17.515-.027-26.272-.027h-1.975v2.162c0,10.889.022,21.777-.009,32.666-.017,5.914-3.325,10.248-8.69,11.461a12.3,12.3,0,0,1-2.672.242q-15.915.024-31.83.01a7.917,7.917,0,0,1-1.009-.032,2.476,2.476,0,0,1-.412-4.841,7.57,7.57,0,0,1,2-.17q15.325-.014,30.651-.008c4.641,0,6.9-2.267,6.917-6.929.012-3.747,0-7.493,0-11.32H47.813q0,1.386,0,2.775c0,3.087-.027,6.174.009,9.261.044,3.8,2.422,6.194,6.236,6.2,10.385.026,20.771.009,31.156.011a13.152,13.152,0,0,1,1.514.03,2.58,2.58,0,0,1,2.456,2.522,2.449,2.449,0,0,1-2.622,2.478c-11.227.016-22.456.09-33.681-.056a10.588,10.588,0,0,1-10.066-10.317c-.13-6.4-.051-12.8-.054-19.195,0-9.205-.018-18.41.022-27.615A2.243,2.243,0,0,0,41.557,98.9c-3.331-1.764-5.46-4.553-7.309-7.826C26.637,77.6,18.815,64.248,11.107,50.829a2.259,2.259,0,0,0-2.45-1.366,7.766,7.766,0,0,1-7.522-4.179,7.817,7.817,0,0,1,.32-8.6,2.315,2.315,0,0,0,.285-2.43,14.518,14.518,0,0,1,24.913-14.3,2.147,2.147,0,0,0,2.092.945,7.773,7.773,0,0,1,7.742,4.06,8.116,8.116,0,0,1-.346,8.912,1.933,1.933,0,0,0-.271,1.57c2.119,3.812,4.329,7.573,6.891,11.309V45.059c0-11.282-.026-22.564.014-33.845A10.846,10.846,0,0,1,51.407.259,13.89,13.89,0,0,1,54.415.012q37.3-.019,74.606-.005c7.08,0,11.673,4.577,11.694,11.706.038,12.685.011,25.37.011,38.055v2.206h1.942c8.757,0,17.515.027,26.272-.025a3.82,3.82,0,0,1,3.585,1.667V55.3a3.5,3.5,0,0,1-3.508,1.751c-8.747-.052-17.494-.025-26.241-.025h-1.947v49.806h1.916c8.747,0,17.494.03,26.241-.028a3.634,3.634,0,0,1,3.538,1.712ZM135.579,51.974c.044-.516.088-.789.088-1.063,0-13.191.034-26.382-.016-39.572-.016-4.037-2.5-6.281-6.7-6.282q-37.221-.009-74.442,0c-4.441,0-6.691,2.277-6.694,6.766q-.012,21.47.028,42.94a5.682,5.682,0,0,0,.717,2.673c4.27,7.505,8.611,14.971,12.91,22.46a5.228,5.228,0,0,1,.8,2q.943,10.815,1.757,21.641a5.191,5.191,0,0,1-2.865,5.145,5.28,5.28,0,0,1-5.742-.223c-1.37-.876-2.686-1.834-4.032-2.748-1.118-.759-2.243-1.508-3.444-2.315v26.442h87.573V111.884c-5.929,0-11.708.009-17.487-.005-1.951-.005-3.112-.982-3.109-2.536s1.162-2.5,3.125-2.507q7.579-.016,15.158,0h2.358V57.026h-1.906c-5.333,0-10.666.015-16-.015a2.516,2.516,0,1,1-.073-5.018c1.85-.066,3.7-.019,5.557-.02h12.433M14.754,47.1l23.1,40,6.023-3.444c-.1-.192-.38-.732-.683-1.257Q37.1,71.832,31.009,61.269a9.851,9.851,0,0,1-.774-1.488,2.488,2.488,0,0,1,4.1-2.584,6.824,6.824,0,0,1,1.028,1.527q6.147,10.631,12.282,21.268c.288.5.616.973.66,1.041l6.052-3.39L31.225,37.6l-6.038,3.486c1.5,2.6,2.853,4.989,4.238,7.359a2.538,2.538,0,0,1-.26,3.381c-1.242,1.254-3.047.914-4.083-.811-1.44-2.4-2.807-4.837-4.286-7.4L14.754,47.1M32.57,29.726c-.038-3.2-2.654-4.642-5.01-3.3Q17.191,32.322,6.9,38.354a3.211,3.211,0,1,0,3.135,5.594C16.994,39.984,23.942,36,30.827,31.914c.889-.528,1.384-1.72,1.743-2.188m25.659,64.46c-.269-3.41-.472-6.312-.75-9.207a1.951,1.951,0,0,0-.665-1.358,2.794,2.794,0,0,0-4.307,1.59,12.274,12.274,0,0,0-.532,2.279c-.425,2.851-1.673,3.534-4.438,2.54a11.659,11.659,0,0,0-3.4-.716c-1.487-.062-1.792,1.269-2.234,2.354-.416,1.021.19,1.5.944,2.006,2.323,1.559,4.587,3.2,6.933,4.724a2.043,2.043,0,0,0,1.723.146c2.033-1.054,4.008-2.225,5.96-3.426a2.819,2.819,0,0,0,.766-.934M22.762,23.328a9.362,9.362,0,0,0-16.12,9.313l16.12-9.313m32.485,78.95,3.4,2.126.378-.342-.345-3.752-3.439,1.968" transform="translate(0 0)"/>
        <path id="Trazado_228252" data-name="Trazado 228252" d="M469.037,131.206a3.7,3.7,0,0,1-3.556,1.7c-4.874-.072-9.749-.019-14.624-.03-2.073,0-3.284-.968-3.275-2.555s1.192-2.489,3.307-2.491c4.931-.006,9.862.044,14.792-.03a3.481,3.481,0,0,1,3.356,1.724Z" transform="translate(-296.512 -84.662)"/>
        <path id="Trazado_228253" data-name="Trazado 228253" d="M469.077,105.12a4.047,4.047,0,0,1-3.614,1.622c-4.76-.061-9.521-.021-14.281-.025a7.356,7.356,0,0,1-1.338-.077,2.448,2.448,0,0,1-2.2-2.551,2.391,2.391,0,0,1,2.509-2.394c3.247-.054,6.5-.023,9.745-.026,1.96,0,3.924.068,5.88-.022a3.18,3.18,0,0,1,3.3,1.79Z" transform="translate(-296.551 -67.334)"/>
        <path id="Trazado_228254" data-name="Trazado 228254" d="M469.111,267.577a4.392,4.392,0,0,1-3.845,1.519c-4.6-.07-9.206-.023-13.809-.027a12.754,12.754,0,0,1-1.512-.06,2.474,2.474,0,0,1,.027-4.931c1.226-.108,2.467-.055,3.7-.057,3.93-.005,7.86.041,11.788-.024a4,4,0,0,1,3.65,1.559Z" transform="translate(-296.586 -174.891)"/>
        <path id="Trazado_228255" data-name="Trazado 228255" d="M469.456,293.76a3.979,3.979,0,0,1-3.6,1.646c-4.816-.062-9.633,0-14.45-.045-.754-.007-1.8-.056-2.191-.522a4.211,4.211,0,0,1-.994-2.725c.092-1.249,1.194-1.782,2.462-1.781q5.293.005,10.586,0c1.624,0,3.253.074,4.871-.021a3.183,3.183,0,0,1,3.317,1.767Z" transform="translate(-296.93 -192.316)"/>
        <path id="Trazado_228256" data-name="Trazado 228256" d="M257.856,420.441a7.089,7.089,0,1,1-.134-14.176,7.089,7.089,0,0,1,.134,14.176m1.966-7.143a1.923,1.923,0,0,0-2.029-1.955,1.894,1.894,0,0,0-2.036,1.958,2.033,2.033,0,1,0,4.065,0" transform="translate(-166.071 -269.14)"/>
        <path id="Trazado_228257" data-name="Trazado 228257" d="M229.418,61.892H216.985c-1.852,0-3.707-.046-5.557.02a2.516,2.516,0,1,0,.073,5.018c5.333.03,10.666.014,16,.015h1.906V116.75h-2.358c-5.053,0-10.105-.007-15.158,0-1.963,0-3.121.953-3.125,2.506s1.157,2.531,3.109,2.536c5.779.015,11.559.005,17.488.005v17.954H141.789V113.314c1.2.807,2.326,1.555,3.444,2.315,1.345.914,2.662,1.873,4.032,2.749a5.281,5.281,0,0,0,5.742.223,5.191,5.191,0,0,0,2.865-5.145q-.8-10.827-1.757-21.642a5.227,5.227,0,0,0-.8-2c-4.3-7.489-8.64-14.954-12.91-22.46a5.68,5.68,0,0,1-.717-2.673q-.065-21.47-.028-42.94c0-4.488,2.253-6.764,6.694-6.765q37.221-.009,74.442,0c4.2,0,6.684,2.246,6.7,6.282.05,13.191.019,26.382.016,39.572,0,.274-.044.547-.088,1.063m-62.877-.1a19.045,19.045,0,1,0,19.172-19.116A18.981,18.981,0,0,0,166.541,61.8m31.123,60.763h-8.77q-17.091,0-34.182.006c-2.02,0-3.151.9-3.211,2.448-.059,1.506,1.065,2.583,2.857,2.585q22.143.022,44.285-.01a3.837,3.837,0,0,0,4.132-4.109c.062-2.356.031-4.714.018-7.071-.019-3.48-1.422-4.891-4.921-4.9q-12.292-.021-24.584,0a9.126,9.126,0,0,0-2,.183,3.551,3.551,0,0,0-2.865,3.316,4.238,4.238,0,0,0,1.251,2.663c.863.8,1.952.368,2.92-.309a3.918,3.918,0,0,1,2.04-.775c7.128-.055,14.256-.036,21.385-.03.536,0,1.071.061,1.649.1ZM185.552,88.1c-4.265,0-8.529-.02-12.793.007-2.811.018-4.4,1.589-4.435,4.348q-.044,3.7,0,7.4c.032,2.677,1.589,4.35,4.279,4.366q12.961.075,25.923,0c2.688-.016,4.209-1.656,4.258-4.379.044-2.412.037-4.825,0-7.237-.042-3.025-1.547-4.492-4.611-4.505-4.208-.019-8.417,0-12.625,0m.042-67.052c-1.341,0-2.684-.039-4.023.01a2.5,2.5,0,1,0-.062,5c2.737.071,5.478.078,8.214-.011a2.495,2.495,0,1,0-.1-4.988c-1.339-.054-2.682-.011-4.023-.014" transform="translate(-93.839 -9.918)" fill="url(#linear-gradient)"/>
        <path id="Trazado_228258" data-name="Trazado 228258" d="M43.713,120.894l6.043-3.488c1.48,2.563,2.847,5,4.286,7.4,1.036,1.725,2.841,2.065,4.082.811a2.538,2.538,0,0,0,.26-3.381c-1.385-2.37-2.742-4.757-4.238-7.359l6.038-3.486,23.13,40.046-6.052,3.391c-.044-.068-.372-.543-.66-1.041q-6.144-10.633-12.282-21.268a6.835,6.835,0,0,0-1.028-1.528,2.488,2.488,0,0,0-4.1,2.584,9.882,9.882,0,0,0,.774,1.488q6.09,10.566,12.186,21.129c.3.525.579,1.065.683,1.257l-6.023,3.444-23.1-40" transform="translate(-28.959 -73.794)" fill="#eeac3a"/>
        <path id="Trazado_228259" data-name="Trazado 228259" d="M42.56,80.61c-.359.468-.854,1.66-1.743,2.188-6.885,4.089-13.834,8.07-20.792,12.034a3.21,3.21,0,1,1-3.135-5.594q10.3-6.014,20.659-11.93c2.356-1.34,4.972.1,5.011,3.3" transform="translate(-9.989 -50.884)" fill="#d8dbf7"/>
        <path id="Trazado_228260" data-name="Trazado 228260" d="M140.206,257.346a2.82,2.82,0,0,1-.766.934c-1.952,1.2-3.927,2.371-5.96,3.426a2.043,2.043,0,0,1-1.723-.146c-2.347-1.519-4.611-3.165-6.933-4.724-.754-.506-1.361-.985-.944-2.007.442-1.085.747-2.415,2.234-2.354a11.657,11.657,0,0,1,3.4.716c2.765.994,4.013.311,4.438-2.54a12.277,12.277,0,0,1,.532-2.28,2.794,2.794,0,0,1,4.307-1.59,1.953,1.953,0,0,1,.665,1.358c.278,2.895.482,5.8.75,9.207" transform="translate(-81.977 -163.161)" fill="#4c2f77"/>
        <path id="Trazado_228261" data-name="Trazado 228261" d="M34.106,61.577,17.986,70.89a9.362,9.362,0,0,1,16.12-9.313" transform="translate(-11.343 -38.248)" fill="#7f4fc7"/>
        <path id="Trazado_228262" data-name="Trazado 228262" d="M163.684,299.162l3.439-1.968.345,3.752-.378.342-3.4-2.126" transform="translate(-108.436 -196.884)" fill="#fff"/>
        <path id="Trazado_228263" data-name="Trazado 228263" d="M269.774,423.265a2.033,2.033,0,1,1-4.065,0,1.894,1.894,0,0,1,2.036-1.958,1.923,1.923,0,0,1,2.029,1.955" transform="translate(-176.022 -279.107)" fill="#fff"/>
        <path id="Trazado_228264" data-name="Trazado 228264" d="M215.4,116.183a19.045,19.045,0,1,1,18.783,18.953A19.068,19.068,0,0,1,215.4,116.183m28.533,10.06c5.772-4.984,5.971-14.341.425-19.959a13.958,13.958,0,0,0-20.486.672c-4.972,5.665-4.425,15.1,1.116,19.261,5.21-4.827,12.708-5.553,18.945.026m-14.3,2.907c3.2,1.334,7.315,1.257,9.469-.124a7.441,7.441,0,0,0-9.469.124" transform="translate(-142.694 -64.304)"/>
        <path id="Trazado_228265" data-name="Trazado 228265" d="M216.993,312.031v-5.9c-.578-.035-1.114-.1-1.649-.1-7.128-.007-14.257-.026-21.385.03a3.913,3.913,0,0,0-2.04.775c-.968.676-2.057,1.105-2.92.309a4.238,4.238,0,0,1-1.251-2.664,3.551,3.551,0,0,1,2.865-3.316,9.146,9.146,0,0,1,2-.183q12.292-.017,24.584,0c3.5.006,4.9,1.418,4.921,4.9.013,2.357.044,4.715-.018,7.071a3.838,3.838,0,0,1-4.132,4.109q-22.143.048-44.285.01c-1.793,0-2.917-1.079-2.858-2.585.06-1.547,1.191-2.446,3.212-2.448q17.091-.018,34.182-.006h8.77" transform="translate(-113.168 -199.389)"/>
        <path id="Trazado_228266" data-name="Trazado 228266" d="M237.864,231.61c4.208,0,8.417-.014,12.625,0,3.064.013,4.569,1.481,4.611,4.506.033,2.412.04,4.825,0,7.237-.049,2.723-1.57,4.363-4.258,4.379q-12.961.077-25.923,0c-2.69-.016-4.247-1.689-4.279-4.365q-.044-3.7,0-7.405c.033-2.759,1.625-4.33,4.435-4.348,4.264-.027,8.529-.007,12.793-.007m12.106,5.179h-24.18v5.844h24.18Z" transform="translate(-146.151 -153.431)"/>
        <path id="Trazado_228267" data-name="Trazado 228267" d="M258.8,32.938c1.341,0,2.684-.042,4.023.012a2.5,2.5,0,1,1,.1,4.989c-2.736.089-5.477.081-8.214.011a2.483,2.483,0,0,1-2.56-2.55,2.458,2.458,0,0,1,2.623-2.453c1.339-.05,2.682-.01,4.023-.009" transform="translate(-167.047 -21.81)"/>
        <path id="Trazado_228268" data-name="Trazado 228268" d="M253.869,136.185c-6.237-5.579-13.735-4.852-18.945-.026-5.541-4.158-6.088-13.6-1.116-19.261a13.958,13.958,0,0,1,20.486-.672c5.546,5.618,5.346,14.975-.425,19.959m-9.492-4.925a7.929,7.929,0,1,0-7.944-7.859,7.879,7.879,0,0,0,7.944,7.859" transform="translate(-152.633 -74.247)" fill="url(#linear-gradient-2)"/>
        <path id="Trazado_228269" data-name="Trazado 228269" d="M257.553,188.66a7.441,7.441,0,0,1,9.469-.124c-2.154,1.381-6.266,1.459-9.469.124" transform="translate(-170.622 -123.814)" fill="#fff"/>
        <rect id="Rect치ngulo_57566" data-name="Rect치ngulo 57566" width="24.18" height="5.844" transform="translate(79.639 83.357)" fill="#43a99b"/>
        <path id="Trazado_228270" data-name="Trazado 228270" d="M256.219,137.792a7.929,7.929,0,1,1,.045-15.858,7.929,7.929,0,0,1-.045,15.858m-.032-5.06a2.914,2.914,0,0,0,2.914-2.849,2.953,2.953,0,0,0-2.889-2.892,2.85,2.85,0,0,0-2.872,2.866,2.81,2.81,0,0,0,2.846,2.874" transform="translate(-164.475 -80.778)"/>
        <path id="Trazado_228271" data-name="Trazado 228271" d="M266.13,142.66a2.81,2.81,0,0,1-2.846-2.874,2.85,2.85,0,0,1,2.872-2.866,2.953,2.953,0,0,1,2.889,2.892,2.914,2.914,0,0,1-2.914,2.849" transform="translate(-174.419 -90.706)" fill="#fff"/>
      </g>
    </g>
  </g>
</svg>
