<svg xmlns="http://www.w3.org/2000/svg" xmlns:xlink="http://www.w3.org/1999/xlink" width="157.362" height="157.363" viewBox="0 0 157.362 157.363">
  <defs>
    <clipPath id="clip-path">
      <rect id="Rectángulo_52716" data-name="Rectángulo 52716" width="157.362" height="157.363" fill="none"/>
    </clipPath>
    <linearGradient id="linear-gradient" x1="0.5" x2="0.5" y2="1" gradientUnits="objectBoundingBox">
      <stop offset="0" stop-color="#f5f5f5"/>
      <stop offset="0.25" stop-color="#f5f5f5"/>
      <stop offset="1" stop-color="#a7b3cf"/>
    </linearGradient>
  </defs>
  <g id="Grupo_179442" data-name="Grupo 179442" transform="translate(-722.07 -3391.631)">
    <g id="Grupo_179441" data-name="Grupo 179441">
      <g id="Grupo_171369" data-name="Grupo 171369" transform="translate(722.07 3391.631)">
        <g id="Grupo_171368" data-name="Grupo 171368" clip-path="url(#clip-path)">
          <path id="Trazado_212515" data-name="Trazado 212515" d="M36.486,0H70.116c3.026,1.1,5.258,2.989,5.932,6.459A28.146,28.146,0,0,1,86.141,1.12C87.759.673,89.415.369,91.054,0h5.711a6.117,6.117,0,0,0,.9.27,27.851,27.851,0,0,1,23.349,21.073c.325,1.313.532,2.655.8,4.037,2.536,0,4.967-.051,7.393.026a1.68,1.68,0,0,0,1.8-1.15c1.249-2.62,2.618-5.184,3.842-7.816A1.9,1.9,0,0,1,136.9,15.2c5.973.054,11.946.024,17.919.03.442,0,.884.054,1.515.1-1.076,2.15-2.069,4.121-3.05,6.1-1.056,2.127-2.932,4.262-2.924,6.388.008,2.188,1.843,4.377,2.9,6.552.988,2.023,2.011,4.029,3.118,6.242-6.928,0-13.577.018-20.226-.044-.4,0-.943-.571-1.17-1.006-1.391-2.667-2.687-5.385-4.079-8.051-.227-.436-.766-.987-1.178-1-2.629-.091-5.262-.046-8.006-.046a28.474,28.474,0,0,1-8.468,17.581l9.073,11.333c.434-.249.75-.436,1.071-.613a22.809,22.809,0,0,1,33.171,14.008c.3,1.114.527,2.249.787,3.374v5.076c-.112.456-.252.908-.33,1.37a22.846,22.846,0,1,1-44.568-9.858,23.829,23.829,0,0,1,5.877-10.21L109.4,51.363c-2.38.614-2.872,1.975-2.859,4.133.1,18.079.057,36.158.057,54.237v1.941h1.923q17.921,0,35.841.007a12.631,12.631,0,0,1,12.708,10.067,4.93,4.93,0,0,0,.289.712v3.807c-.063.083-.159.156-.184.249-1.966,7.221-6.294,10.537-13.767,10.538H106.6c0,2.485.007,4.752,0,7.019-.028,7.833-5.44,13.278-13.254,13.281q-40.044.016-80.089,0C5.442,157.352.007,151.9.005,144.074q-.011-62.882,0-125.763C.008,10.5,5.459,5.1,13.3,5.078c5.445-.012,10.89.011,16.335-.024.5,0,1.293-.174,1.452-.505A9.145,9.145,0,0,1,36.486,0M91.309,137.055c-4.083,0-7.993.018-11.9-.016a6.5,6.5,0,0,1-2.156-.36q-8.392-3.1-16.75-6.288a8.655,8.655,0,0,1-2.354-1.266c-3.837-3.1-2.769-8.807,2.043-10.678,5.46-2.123,10.959-4.147,16.465-6.148a10.143,10.143,0,0,1,3.216-.6c3.788-.071,7.579-.028,11.433-.028V56.215L78.783,51.968l-3.5,4.59A33.005,33.005,0,1,1,23.79,66.51,32.01,32.01,0,0,1,40.848,50.7c10.534-4.236,20.665-3.017,30.391,2.778l3.809-4.994a28.4,28.4,0,0,1-9-23.108H64.218q-12.928,0-25.856,0A7.35,7.35,0,0,1,31.4,21.246a1.611,1.611,0,0,0-1.729-.954c-4.389.026-8.777.01-13.166.017-.4,0-.8.071-1.2.108V142.033h76ZM30.4,10.152c-5.715,0-11.261,0-16.807,0-5.481,0-8.513,3.047-8.514,8.552q0,62.485,0,124.971c0,5.6,3.015,8.606,8.621,8.607q28.943,0,57.886,0c7.4,0,14.8.02,22.2-.01,3.778-.016,6.972-2.362,7.467-6.025.4-2.983.082-6.063.082-9.193h-4.89c0,1.786.02,3.318,0,4.849a5.047,5.047,0,0,1-5.289,5.294q-37.824.022-75.649,0a5.043,5.043,0,0,1-5.344-5.4q-.013-60.582,0-121.164c0-3.321,2.129-5.4,5.49-5.408,4.388-.016,8.776,0,13.163-.007.511,0,1.022-.046,1.585-.073Zm86.054,15.174C115.922,16.1,107.215,4.95,93.586,5.08a22.837,22.837,0,0,0,.355,45.672c13.537-.052,22.043-11.22,22.5-20.214H106.389c-2.153,7.942-8.874,10.639-13.959,9.982a12.688,12.688,0,0,1-1.669-24.894,12.365,12.365,0,0,1,8.5.808,12.985,12.985,0,0,1,7.137,8.893ZM71.079,93.908c2.064,0,3.958-.056,5.848.024a1.475,1.475,0,0,0,1.754-1.166c.844-3.307,2.164-6.582,2.414-9.936a27.864,27.864,0,1,0-53.281,9.66c.238.526.7,1.321,1.092,1.345,2.186.132,4.384.063,6.688.063V78.637H45.768v-15.1H60.962v5.072H71.079ZM53.374,5.077c-4.969,0-9.937-.015-14.906.007-1.974.009-2.909.952-2.925,2.928-.026,3.171-.033,6.343,0,9.514a2.508,2.508,0,0,0,2.763,2.765q13.875.031,27.749-.04a1.849,1.849,0,0,0,1.274-.949c.8-1.6,1.252-3.413,2.236-4.875A9.451,9.451,0,0,0,71.09,8.316c-.125-2.368-.9-3.233-3.287-3.237q-7.215-.013-14.43,0M152.279,78.72a17.761,17.761,0,1,0-17.8,17.721,17.814,17.814,0,0,0,17.8-17.721M31.948,99.054c12.2,14.608,33.624,12.065,42.5,0ZM101.455,111.6V54.86l-4.925.931V111.6ZM81.291,121.715H131.85v-4.881H81.291Zm50.617,5.3H81.348V131.9h50.559Zm5.265-10.244V131.96c2.754,0,5.4.1,8.03-.024a7.589,7.589,0,0,0,0-15.144c-2.633-.125-5.276-.024-8.03-.024M100.919,25.357a7.427,7.427,0,0,0-8.585-4.874,7.633,7.633,0,0,0-6.01,8.167,7.78,7.78,0,0,0,7.3,6.9c2.639.148,6.766-1.974,7.145-5.156H91.495V25.357ZM50.87,93.782h4.89V68.6H50.87ZM76.105,117.9c-4.673,1.754-9.163,3.409-13.621,5.146-.6.232-1.032.877-1.542,1.33A6.388,6.388,0,0,0,62.5,125.7c4.123,1.614,8.277,3.147,12.425,4.7a11.755,11.755,0,0,0,1.18.3ZM65.879,73.734H61v20.1h4.879ZM40.71,93.793h4.85V83.787H40.71ZM136.1,25.38c3.077,0,5.872.016,8.667-.019a1.409,1.409,0,0,0,1.064-.433c.8-1.458,1.5-2.97,2.307-4.623-3.051,0-5.846-.03-8.64.032a1.664,1.664,0,0,0-1.2.709c-.756,1.315-1.387,2.7-2.2,4.334m12.062,10.152c-.828-1.665-1.505-3.085-2.247-4.469a1.177,1.177,0,0,0-.814-.574c-2.923-.042-5.846-.026-8.994-.026.825,1.66,1.484,3.09,2.254,4.457a1.509,1.509,0,0,0,1.12.586c2.794.049,5.59.026,8.681.026" transform="translate(0)"/>
          <path id="Trazado_212516" data-name="Trazado 212516" d="M124.157,180.595v4.978h-76V63.958c.394-.037.8-.108,1.2-.108,4.389-.008,8.777.009,13.166-.017a1.611,1.611,0,0,1,1.729.954,7.35,7.35,0,0,0,6.962,4.131q12.928.012,25.856,0h1.825a28.4,28.4,0,0,0,9,23.108l-3.808,4.994c-9.726-5.8-19.857-7.014-30.391-2.778A32.011,32.011,0,0,0,56.638,110.05a32.981,32.981,0,1,0,51.494-9.953l3.5-4.59,12.522,4.248v55.459c-3.854,0-7.645-.043-11.433.028a10.143,10.143,0,0,0-3.216.6c-5.506,2-11,4.025-16.464,6.148-4.811,1.871-5.88,7.575-2.043,10.678a8.653,8.653,0,0,0,2.354,1.266q8.359,3.187,16.75,6.288a6.5,6.5,0,0,0,2.156.36c3.909.034,7.817.016,11.9.016M63.372,79h30.3V74.1h-30.3Zm.009,10.121H93.637v-4.89H63.382ZM53.22,170.367h30.3v-4.9H53.22Zm0,10.147H83.512v-4.887H53.225ZM58.156,74.085h-4.9v4.871h4.9Zm.006,10.178h-4.88v4.876h4.88Z" transform="translate(-32.847 -43.54)" fill="#f8f5fd"/>
          <path id="Trazado_212517" data-name="Trazado 212517" d="M268.947,36.223H258.893a12.984,12.984,0,0,0-7.137-8.893,12.363,12.363,0,0,0-8.5-.808,12.688,12.688,0,0,0,1.67,24.894c5.085.657,11.806-2.04,13.96-9.982h10.052c-.458,8.994-8.963,20.162-22.5,20.214a22.837,22.837,0,0,1-.355-45.672c13.63-.13,22.336,11.018,22.867,20.247" transform="translate(-152.493 -10.897)" fill="#1a76b7"/>
          <path id="Trazado_212518" data-name="Trazado 212518" d="M125.56,208.25V182.956H115.443v-5.072H100.25v15.1H90.076v15.26c-2.3,0-4.5.069-6.688-.063-.395-.024-.854-.819-1.092-1.345a27.868,27.868,0,1,1,53.281-9.66c-.25,3.354-1.57,6.628-2.414,9.936a1.475,1.475,0,0,1-1.754,1.166c-1.889-.079-3.784-.024-5.848-.024" transform="translate(-54.481 -114.342)" fill="#fff"/>
          <path id="Trazado_212519" data-name="Trazado 212519" d="M129.591,15.959q7.215,0,14.43,0c2.387,0,3.162.87,3.287,3.237a9.453,9.453,0,0,1-1.521,6.111c-.984,1.462-1.436,3.274-2.236,4.875a1.85,1.85,0,0,1-1.274.949q-13.874.087-27.75.04a2.508,2.508,0,0,1-2.763-2.765c-.038-3.171-.031-6.343,0-9.514.016-1.975.952-2.919,2.926-2.928,4.968-.022,9.937-.007,14.906-.008" transform="translate(-76.217 -10.883)" fill="url(#linear-gradient)"/>
          <path id="Trazado_212520" data-name="Trazado 212520" d="M100.5,311.593H143c-8.872,12.065-30.293,14.608-42.5,0" transform="translate(-68.551 -212.539)" fill="#fff"/>
          <rect id="Rectángulo_52705" data-name="Rectángulo 52705" width="50.559" height="4.881" transform="translate(81.291 116.834)" fill="#eeac3a"/>
          <rect id="Rectángulo_52706" data-name="Rectángulo 52706" width="50.559" height="4.885" transform="translate(81.349 127.012)" fill="#eeac3a"/>
          <path id="Trazado_212521" data-name="Trazado 212521" d="M431.5,367.231c2.754,0,5.4-.1,8.03.024a7.59,7.59,0,0,1,0,15.145c-2.633.127-5.276.024-8.03.024Z" transform="translate(-294.328 -250.463)" fill="url(#linear-gradient)"/>
          <path id="Trazado_212522" data-name="Trazado 212522" d="M286.07,68.916h-9.424v5.033h9.276c-.379,3.182-4.506,5.3-7.145,5.156a7.78,7.78,0,0,1-7.3-6.9,7.633,7.633,0,0,1,6.01-8.167,7.427,7.427,0,0,1,8.585,4.874" transform="translate(-185.15 -43.56)" fill="#43a99b"/>
          <rect id="Rectángulo_52707" data-name="Rectángulo 52707" width="4.89" height="25.18" transform="translate(50.87 68.603)" fill="#1a76b7"/>
          <path id="Trazado_212523" data-name="Trazado 212523" d="M206.868,370.865v12.8a11.667,11.667,0,0,1-1.18-.3c-4.148-1.549-8.3-3.081-12.426-4.7a6.38,6.38,0,0,1-1.558-1.322c.51-.454.946-1.1,1.542-1.33,4.458-1.737,8.948-3.393,13.621-5.147" transform="translate(-130.763 -252.968)" fill="#b0c0d2"/>
          <rect id="Rectángulo_52708" data-name="Rectángulo 52708" width="4.879" height="20.104" transform="translate(61 73.734)" fill="#eeac3a"/>
          <rect id="Rectángulo_52709" data-name="Rectángulo 52709" width="4.85" height="10.005" transform="translate(40.71 83.787)" fill="#653f9f"/>
          <path id="Trazado_212524" data-name="Trazado 212524" d="M428.13,68.933c.813-1.631,1.445-3.019,2.2-4.334a1.664,1.664,0,0,1,1.2-.708c2.794-.062,5.59-.032,8.64-.032-.811,1.653-1.509,3.165-2.307,4.623a1.408,1.408,0,0,1-1.064.433c-2.795.035-5.59.019-8.667.019" transform="translate(-292.029 -43.553)" fill="url(#linear-gradient)"/>
          <path id="Trazado_212525" data-name="Trazado 212525" d="M440.205,100.888c-3.091,0-5.886.023-8.681-.026a1.509,1.509,0,0,1-1.12-.586c-.77-1.367-1.429-2.8-2.254-4.457,3.148,0,6.072-.016,8.994.026a1.177,1.177,0,0,1,.814.574c.741,1.385,1.418,2.8,2.247,4.469" transform="translate(-292.043 -65.356)" fill="url(#linear-gradient)"/>
          <rect id="Rectángulo_52710" data-name="Rectángulo 52710" width="30.296" height="4.897" transform="translate(30.525 30.56)"/>
          <rect id="Rectángulo_52711" data-name="Rectángulo 52711" width="30.255" height="4.89" transform="translate(30.534 40.688)"/>
          <rect id="Rectángulo_52712" data-name="Rectángulo 52712" width="30.296" height="4.897" transform="translate(20.373 121.93)"/>
          <rect id="Rectángulo_52713" data-name="Rectángulo 52713" width="30.286" height="4.887" transform="translate(20.378 132.087)"/>
          <rect id="Rectángulo_52714" data-name="Rectángulo 52714" width="4.899" height="4.871" transform="translate(20.409 30.545)"/>
          <rect id="Rectángulo_52715" data-name="Rectángulo 52715" width="4.88" height="4.876" transform="translate(20.435 40.723)"/>
          <path id="Trazado_212526" data-name="Trazado 212526" d="M383.212,220.283c0-2.009-.034-4.019.007-6.027a6.566,6.566,0,0,1,9.394-6.02c4.215,1.947,8.345,4.084,12.469,6.221a6.6,6.6,0,0,1,.015,11.629c-4.121,2.142-8.253,4.276-12.468,6.224a6.571,6.571,0,0,1-9.409-6c-.043-2.008-.007-4.018-.007-6.027m5.075-.165c0,1.956-.038,3.913.012,5.868.041,1.611,1.12,2.279,2.574,1.568,3.841-1.878,7.672-3.779,11.473-5.738,1.618-.834,1.6-2.257-.041-3.1q-5.7-2.93-11.474-5.735c-1.478-.722-2.493-.069-2.533,1.585-.044,1.849-.01,3.7-.01,5.551" transform="translate(-261.381 -141.597)"/>
          <path id="Trazado_212527" data-name="Trazado 212527" d="M399.177,231.067c0-1.85-.034-3.7.01-5.551.04-1.654,1.055-2.307,2.533-1.585q5.763,2.814,11.475,5.735c1.638.841,1.659,2.265.041,3.1-3.8,1.958-7.632,3.859-11.473,5.738-1.454.711-2.533.043-2.574-1.568-.05-1.955-.012-3.912-.012-5.868" transform="translate(-272.27 -152.546)" fill="#eeac3a"/>
        </g>
      </g>
    </g>
  </g>
</svg>
