<svg xmlns="http://www.w3.org/2000/svg" xmlns:xlink="http://www.w3.org/1999/xlink" width="309.946" height="341.85" viewBox="0 0 309.946 341.85">
  <defs>
    <clipPath id="clip-path">
      <rect id="Rectángulo_52614" data-name="Rectángulo 52614" width="77.925" height="78.114" fill="none"/>
    </clipPath>
    <clipPath id="clip-path-2">
      <rect id="Rectángulo_54067" data-name="Rectángulo 54067" width="82.305" height="82.275" fill="none"/>
    </clipPath>
    <linearGradient id="linear-gradient" x1="0.5" x2="0.5" y2="1" gradientUnits="objectBoundingBox">
      <stop offset="0" stop-color="#f5f5f5"/>
      <stop offset="0.25" stop-color="#f5f5f5"/>
      <stop offset="1" stop-color="#a7b3cf"/>
    </linearGradient>
    <linearGradient id="linear-gradient-3" x1="0.5" x2="0.5" y2="1" gradientUnits="objectBoundingBox">
      <stop offset="0" stop-color="#116eb9"/>
      <stop offset="1" stop-color="#1894f6"/>
    </linearGradient>
  </defs>
  <g id="Grupo_179424" data-name="Grupo 179424" transform="translate(-1108.538 -133.382)">
    <g id="Grupo_169378" data-name="Grupo 169378" transform="translate(1312.852 389.277)">
      <g id="Grupo_155861" data-name="Grupo 155861" transform="translate(0 50.1)">
        <rect id="Rectángulo_46503" data-name="Rectángulo 46503" width="18.173" height="34.382" transform="translate(0.737 0.736)" fill="#afafaf"/>
        <path id="Trazado_196270" data-name="Trazado 196270" d="M89.818,125.3H71.644a.736.736,0,0,1-.737-.736V90.186a.736.736,0,0,1,.737-.736H89.818a.736.736,0,0,1,.736.736v34.383A.736.736,0,0,1,89.818,125.3ZM72.38,123.831h16.7V90.923H72.38Z" transform="translate(-70.907 -89.45)"/>
      </g>
      <g id="Grupo_155862" data-name="Grupo 155862" transform="translate(28.765 9.594)">
        <rect id="Rectángulo_46504" data-name="Rectángulo 46504" width="18.173" height="74.888" transform="translate(0.737 0.736)" fill="#fff"/>
        <path id="Trazado_196271" data-name="Trazado 196271" d="M110.146,137.185H91.972a.736.736,0,0,1-.737-.736V61.561a.736.736,0,0,1,.737-.736h18.173a.736.736,0,0,1,.736.736v74.888A.736.736,0,0,1,110.146,137.185Zm-17.438-1.473h16.7V62.3h-16.7Z" transform="translate(-91.235 -60.825)"/>
      </g>
      <g id="Grupo_155863" data-name="Grupo 155863" transform="translate(85.987 0)">
        <rect id="Rectángulo_46505" data-name="Rectángulo 46505" width="18.173" height="84.481" transform="translate(0.737 0.736)" fill="#fff"/>
        <path id="Trazado_196272" data-name="Trazado 196272" d="M150.582,140H132.41a.736.736,0,0,1-.737-.736V54.781a.736.736,0,0,1,.737-.736h18.172a.736.736,0,0,1,.737.736v84.482A.736.736,0,0,1,150.582,140Zm-17.436-1.473h16.7V55.518h-16.7Z" transform="translate(-131.673 -54.045)"/>
      </g>
      <g id="Grupo_155878" data-name="Grupo 155878" transform="translate(57.008 38.802)">
        <g id="Grupo_155864" data-name="Grupo 155864">
          <rect id="Rectángulo_46506" data-name="Rectángulo 46506" width="18.173" height="45.679" transform="translate(0.736 0.737)" fill="#fff"/>
          <path id="Trazado_196273" data-name="Trazado 196273" d="M130.1,128.618H111.93a.736.736,0,0,1-.736-.736V82.2a.736.736,0,0,1,.736-.737H130.1a.737.737,0,0,1,.737.737v45.679A.736.736,0,0,1,130.1,128.618Zm-17.436-1.473h16.7V82.939h-16.7Z" transform="translate(-111.194 -81.466)"/>
        </g>
        <g id="Grupo_155865" data-name="Grupo 155865" transform="translate(2.617 42.607)">
          <path id="Trazado_196274" data-name="Trazado 196274" d="M115.98,113.909a.249.249,0,0,1-.139-.042l-2.691-1.841a.247.247,0,0,1-.064-.342.244.244,0,0,1,.341-.064l2.691,1.841a.245.245,0,0,1,.064.341A.242.242,0,0,1,115.98,113.909Z" transform="translate(-113.044 -111.576)"/>
        </g>
        <g id="Grupo_155866" data-name="Grupo 155866" transform="translate(2.224 39.062)">
          <path id="Trazado_196275" data-name="Trazado 196275" d="M121.278,114.987a.248.248,0,0,1-.127-.035c-2.8-1.714-5.587-3.542-8.279-5.434a.245.245,0,1,1,.282-.4c2.686,1.886,5.463,3.707,8.254,5.415a.245.245,0,0,1,.081.338A.241.241,0,0,1,121.278,114.987Z" transform="translate(-112.766 -109.071)"/>
        </g>
        <g id="Grupo_155867" data-name="Grupo 155867" transform="translate(2.598 35.255)">
          <path id="Trazado_196276" data-name="Trazado 196276" d="M125.12,115.658a.245.245,0,0,1-.14-.044c-4.031-2.788-8.02-5.746-11.858-8.8a.246.246,0,0,1,.306-.385c3.829,3.044,7.81,6,11.833,8.778a.245.245,0,0,1-.14.447Z" transform="translate(-113.03 -106.381)"/>
        </g>
        <g id="Grupo_155868" data-name="Grupo 155868" transform="translate(2.304 31.352)">
          <path id="Trazado_196277" data-name="Trazado 196277" d="M127.742,114.983a.244.244,0,0,1-.146-.048l-14.675-10.87a.246.246,0,0,1,.293-.395l14.675,10.872a.245.245,0,0,1-.147.442Z" transform="translate(-112.822 -103.622)"/>
        </g>
        <g id="Grupo_155869" data-name="Grupo 155869" transform="translate(2.607 27.3)">
          <path id="Trazado_196278" data-name="Trazado 196278" d="M127.484,112.286a.246.246,0,0,1-.143-.047c-4.842-3.5-9.625-7.215-14.217-11.047a.246.246,0,1,1,.316-.376c4.582,3.823,9.356,7.534,14.189,11.026a.245.245,0,0,1-.144.444Z" transform="translate(-113.036 -100.759)"/>
        </g>
        <g id="Grupo_155870" data-name="Grupo 155870" transform="translate(2.579 23.075)">
          <path id="Trazado_196279" data-name="Trazado 196279" d="M127.5,109.437a.237.237,0,0,1-.149-.051c-4.767-3.658-9.559-7.419-14.24-11.177a.245.245,0,1,1,.307-.382c4.678,3.756,9.467,7.514,14.231,11.17a.245.245,0,0,1-.15.44Z" transform="translate(-113.017 -97.773)"/>
        </g>
        <g id="Grupo_155871" data-name="Grupo 155871" transform="translate(2.67 18.276)">
          <path id="Trazado_196280" data-name="Trazado 196280" d="M127,105.854a.241.241,0,0,1-.15-.051c-4.627-3.539-9.229-7.237-13.681-10.988a.246.246,0,0,1,.317-.375c4.445,3.746,9.042,7.439,13.662,10.974a.245.245,0,0,1-.149.44Z" transform="translate(-113.081 -94.382)"/>
        </g>
        <g id="Grupo_155872" data-name="Grupo 155872" transform="translate(2.651 13.702)">
          <path id="Trazado_196281" data-name="Trazado 196281" d="M127.224,102.832a.246.246,0,0,1-.15-.051c-4.7-3.613-9.385-7.379-13.92-11.2a.246.246,0,1,1,.317-.376c4.53,3.814,9.206,7.578,13.9,11.185a.244.244,0,0,1,.045.344A.241.241,0,0,1,127.224,102.832Z" transform="translate(-113.067 -91.149)"/>
        </g>
        <g id="Grupo_155873" data-name="Grupo 155873" transform="translate(2.617 9.284)">
          <path id="Trazado_196282" data-name="Trazado 196282" d="M127.155,99.734a.25.25,0,0,1-.151-.051c-4.675-3.637-9.344-7.413-13.872-11.223a.246.246,0,1,1,.316-.376c4.524,3.806,9.186,7.578,13.858,11.211a.244.244,0,0,1,.044.344A.248.248,0,0,1,127.155,99.734Z" transform="translate(-113.044 -88.027)"/>
        </g>
        <g id="Grupo_155874" data-name="Grupo 155874" transform="translate(2.561 4.826)">
          <path id="Trazado_196283" data-name="Trazado 196283" d="M127.242,96.831a.242.242,0,0,1-.149-.051c-4.767-3.659-9.479-7.52-14.006-11.473a.246.246,0,0,1,.324-.371c4.518,3.947,9.222,7.8,13.981,11.455a.245.245,0,0,1-.15.44Z" transform="translate(-113.004 -84.877)"/>
        </g>
        <g id="Grupo_155875" data-name="Grupo 155875" transform="translate(4.675 2.592)">
          <path id="Trazado_196284" data-name="Trazado 196284" d="M126.764,93.566a.245.245,0,0,1-.154-.055l-12.021-9.778a.245.245,0,0,1-.035-.345.248.248,0,0,1,.345-.035l12.021,9.778a.246.246,0,0,1-.156.436Z" transform="translate(-114.498 -83.298)"/>
        </g>
        <g id="Grupo_155876" data-name="Grupo 155876" transform="translate(10.374 2.946)">
          <path id="Trazado_196285" data-name="Trazado 196285" d="M125.186,89.522a.241.241,0,0,1-.144-.047,55.321,55.321,0,0,1-6.444-5.509.245.245,0,0,1,.347-.347,55,55,0,0,0,6.388,5.459.245.245,0,0,1-.146.443Z" transform="translate(-118.525 -83.548)"/>
        </g>
        <g id="Grupo_155877" data-name="Grupo 155877" transform="translate(15.135 2.688)">
          <path id="Trazado_196286" data-name="Trazado 196286" d="M123.756,85.335a.246.246,0,0,1-.166-.064l-1.622-1.479a.247.247,0,0,1-.016-.347.245.245,0,0,1,.347-.016l1.622,1.479a.245.245,0,0,1-.166.426Z" transform="translate(-121.89 -83.365)"/>
        </g>
      </g>
    </g>
    <g id="Grupo_175122" data-name="Grupo 175122" transform="translate(12843.826 12256.952)">
      <path id="Trazado_217469" data-name="Trazado 217469" d="M-11479.914-11889.859v-44.288s-3.727-5.119-6-4.306a6.959,6.959,0,0,1-4.405,0v-16.952h-49.687v16.952h-6.12s-4.385,3.1-4.3,7.021,0,41.573,0,41.573Z" transform="translate(-1.973 -0.818)" fill="#fff" stroke="#707070" stroke-width="1"/>
      <g id="Grupo_175121" data-name="Grupo 175121" transform="translate(-11556.083 -11957.746)">
        <g id="Grupo_171288" data-name="Grupo 171288" clip-path="url(#clip-path)">
          <path id="Trazado_212384" data-name="Trazado 212384" d="M75.409,65.238h2.483c.012.253.029.455.029.656,0,1.86.008,3.72,0,5.58A6.583,6.583,0,0,1,71.293,78.1c-5.65.017-11.3.011-16.95.012q-12.517,0-25.033,0-11.369,0-22.739,0A6.3,6.3,0,0,1,0,71.6C0,69.806,0,68.015.007,66.225c0-.947.051-.988,1.013-.986.486,0,.973-.01,1.459-.018.031,0,.061-.029.032-.014,0-2.316,0-4.6,0-6.889q0-16.9,0-33.8a6.744,6.744,0,0,1,3.2-6.069,6.012,6.012,0,0,1,3.275-.891c1.026-.006,2.051,0,3.077,0h.491c0-2.98-.017-5.89,0-8.8S12.478,2.951,12.629,0h.693Q39.06.007,64.8,0c.467,0,.581.129.579.583q-.021,8.214-.008,16.429v.568c.769,0,1.5-.013,2.222,0a16.855,16.855,0,0,1,2.651.117A6.227,6.227,0,0,1,75.4,23.946q.015,20.314.009,40.627v.664M62.827,40.145c.01-.194.026-.348.026-.5q0-13.273.018-26.547c0-.5-.193-.553-.611-.552q-23.235.016-46.47.014h-.555V40.134H55.09c-.218-.583-.46-1.1-.6-1.651a1.125,1.125,0,0,0-1.11-.952A3.66,3.66,0,0,1,50.417,33.2a.55.55,0,0,0-.169-.466q-3.137-2.236-6.3-4.431a.521.521,0,0,0-.459-.031,3.618,3.618,0,0,1-4.226-.2.532.532,0,0,0-.463-.029q-2.329,1.268-4.635,2.579a.5.5,0,0,0-.207.4,3.749,3.749,0,0,1-4.536,4,3.694,3.694,0,0,1-2.4-5.458.535.535,0,0,0-.025-.688c-1.312-1.856-2.624-3.713-3.906-5.59-.394-.578-.748-1.094-1.549-.675a.408.408,0,0,1-.206.007A3.808,3.808,0,0,1,17.8,18.145a3.724,3.724,0,1,1,6.9,2.525.693.693,0,0,0-.054.586q2.166,3.153,4.385,6.269a.569.569,0,0,0,.461.213,3.609,3.609,0,0,1,2.991.691.529.529,0,0,0,.455.055q2.328-1.273,4.632-2.59a.6.6,0,0,0,.249-.389,13.642,13.642,0,0,1,.127-1.37A3.642,3.642,0,0,1,41.6,21.38a3.689,3.689,0,0,1,3.57,4.258.79.79,0,0,0,.151.641q3.155,2.259,6.355,4.456a.52.52,0,0,0,.454-.018,3.631,3.631,0,0,1,3.426-.229,3.773,3.773,0,0,1,2.162,4.033,4.39,4.39,0,0,1-1.287,2.256l1.283,3.392H62.51c.086,0,.172-.013.318-.024m-1.371,9.986a9.586,9.586,0,0,0,.965.227,3.79,3.79,0,0,1,2.825,4.4,3.849,3.849,0,0,1-4.395,2.861,3.674,3.674,0,0,1-2.8-2.495,3.473,3.473,0,0,1,.806-3.656.732.732,0,0,0,.152-.9c-.523-1.336-1.014-2.684-1.518-4.028-.483-1.288-.967-2.576-1.461-3.891H12.666V25.158H10.223V60.2h57.6V25.155H65.347V42.676H58.66l2.8,7.455M2.665,67.808c0,1.208-.006,2.353,0,3.5a3.79,3.79,0,0,0,4.036,4q7.823.005,15.645,0,16.09,0,32.18.01,8.449,0,16.9,0a3.718,3.718,0,0,0,3.85-2.933,11.2,11.2,0,0,0,.112-2.333c.015-.741,0-1.482,0-2.239ZM65.381,22.621c.811,0,1.558-.029,2.3.012a3.35,3.35,0,0,1,1.2.264,2.558,2.558,0,0,1,1.491,2.53q.008,17.211,0,34.422a2.649,2.649,0,0,1-2.907,2.9l-56.953,0a2.575,2.575,0,0,1-2.838-2.84q0-17.237,0-34.474a2.562,2.562,0,0,1,2.793-2.822h2.194V20.1H8.8A3.674,3.674,0,0,0,5.17,23.7q0,20.471,0,40.942v.592H72.885v-.545q0-20.471,0-40.942a3.681,3.681,0,0,0-2.673-3.513,3.613,3.613,0,0,0-.919-.133C68,20.09,66.7,20.1,65.381,20.1ZM62.827,2.573H15.234v7.435H62.827ZM55.276,33.9a1.178,1.178,0,0,0-1.3-1.233A1.165,1.165,0,0,0,52.846,33.9a1.2,1.2,0,0,0,1.125,1.24,1.212,1.212,0,0,0,1.3-1.234M29,31.351a1.229,1.229,0,0,0,2.457.079,1.206,1.206,0,0,0-1.217-1.261A1.23,1.23,0,0,0,29,31.351m13.745-6.245a1.168,1.168,0,0,0-1.253-1.214,1.187,1.187,0,0,0-1.2,1.23,1.21,1.21,0,0,0,1.214,1.227,1.191,1.191,0,0,0,1.238-1.243m-21.3-5.058a1.2,1.2,0,0,0,1.236-1.129,1.23,1.23,0,0,0-2.452-.183,1.2,1.2,0,0,0,1.216,1.312m40.14,35.14a1.18,1.18,0,0,0,1.218-1.2,1.217,1.217,0,0,0-1.232-1.255,1.2,1.2,0,0,0-1.206,1.219,1.148,1.148,0,0,0,1.22,1.236" transform="translate(0 0)" fill="#1a1818"/>
          <path id="Trazado_212385" data-name="Trazado 212385" d="M25.525,649.957H98.251c0,.757.012,1.5,0,2.239a11.2,11.2,0,0,1-.112,2.333,3.718,3.718,0,0,1-3.85,2.932q-8.449,0-16.9,0-16.09,0-32.18-.01-7.823,0-15.645,0a3.79,3.79,0,0,1-4.036-4c-.007-1.145,0-2.291,0-3.5m30.09,4.966H68.093v-2.438H55.615Zm-4.995-.007h2.433V652.47H50.62Zm22.5-2.44H70.686v2.446h2.438Z" transform="translate(-22.86 -582.149)" fill="#43a99b"/>
          <path id="Trazado_212386" data-name="Trazado 212386" d="M193.617,32.1H146.025V24.66h47.592Zm-42.651-4.952h-2.442v2.47h2.442Zm2.558,2.459h2.461V27.132h-2.461Zm5.022-.014H161V27.135h-2.453Z" transform="translate(-130.791 -22.087)" fill="#d2c1eb"/>
          <path id="Trazado_212387" data-name="Trazado 212387" d="M508.977,314.369a1.212,1.212,0,0,1-1.3,1.234,1.2,1.2,0,0,1-1.125-1.24,1.165,1.165,0,0,1,1.133-1.227,1.179,1.179,0,0,1,1.3,1.233" transform="translate(-453.701 -280.469)" fill="#deeffb"/>
          <path id="Trazado_212388" data-name="Trazado 212388" d="M277.98,290.359a1.23,1.23,0,0,1,1.241-1.182,1.206,1.206,0,0,1,1.217,1.261,1.229,1.229,0,0,1-2.457-.079" transform="translate(-248.98 -259.008)" fill="#deeffb"/>
          <path id="Trazado_212389" data-name="Trazado 212389" d="M388.691,230.224a1.191,1.191,0,0,1-1.238,1.243,1.21,1.21,0,0,1-1.214-1.227,1.188,1.188,0,0,1,1.2-1.23,1.168,1.168,0,0,1,1.253,1.214" transform="translate(-345.945 -205.119)" fill="#deeffb"/>
          <path id="Trazado_212390" data-name="Trazado 212390" d="M195.151,171.342a1.2,1.2,0,0,1-1.216-1.312,1.23,1.23,0,0,1,2.452.183,1.2,1.2,0,0,1-1.236,1.129" transform="translate(-173.701 -151.294)" fill="#deeffb"/>
          <path id="Trazado_212391" data-name="Trazado 212391" d="M579.9,507.915a1.148,1.148,0,0,1-1.22-1.236,1.2,1.2,0,0,1,1.206-1.219,1.217,1.217,0,0,1,1.232,1.255,1.18,1.18,0,0,1-1.218,1.2" transform="translate(-518.305 -452.727)" fill="#deeffb"/>
          <rect id="Rectángulo_52605" data-name="Rectángulo 52605" width="12.479" height="2.405" transform="translate(47.81 15.134)" fill="#1a1818"/>
          <path id="Trazado_212392" data-name="Trazado 212392" d="M470.479,193.149v2.422c-.169.014-.318.036-.467.036-3.842,0-7.684-.005-11.527.013-.45,0-.563-.143-.541-.563.032-.621.008-1.245.008-1.909Z" transform="translate(-410.166 -172.999)" fill="#1a1818"/>
          <path id="Trazado_212393" data-name="Trazado 212393" d="M169.607,289.2h2.49v4.971h2.486v2.522c-1.3-.124-2.652.329-3.879-.483a2.289,2.289,0,0,1-1.079-1.868c-.059-1.7-.018-3.4-.018-5.142" transform="translate(-151.9 -259.026)" fill="#1a1818"/>
          <rect id="Rectángulo_52606" data-name="Rectángulo 52606" width="2.434" height="2.452" transform="translate(17.739 25.153)" fill="#1a1818"/>
          <path id="Trazado_212394" data-name="Trazado 212394" d="M142.012,445.955H122.051V433.478h19.961Zm-17.465-2.526H139.5v-7.455H124.546Z" transform="translate(-109.318 -388.255)" fill="#1a1818"/>
          <path id="Trazado_212395" data-name="Trazado 212395" d="M340.632,443.411h2.518v-9.959h2.519v9.955h2.506v-7.462h2.507v7.463H353.2v-4.959h2.5v4.979h2.495v2.485h-20v-12.47h2.443Z" transform="translate(-302.907 -388.223)" fill="#1a1818"/>
          <rect id="Rectángulo_52607" data-name="Rectángulo 52607" width="12.478" height="2.438" transform="translate(32.755 70.335)" fill="#1a1818"/>
          <rect id="Rectángulo_52608" data-name="Rectángulo 52608" width="2.433" height="2.446" transform="translate(27.76 70.32)" fill="#1a1818"/>
          <rect id="Rectángulo_52609" data-name="Rectángulo 52609" width="2.438" height="2.446" transform="translate(47.826 70.326)" fill="#1a1818"/>
          <rect id="Rectángulo_52610" data-name="Rectángulo 52610" width="2.442" height="2.47" transform="translate(17.734 5.056)" fill="#1a1818"/>
          <rect id="Rectángulo_52611" data-name="Rectángulo 52611" width="2.461" height="2.471" transform="translate(22.734 5.044)" fill="#1a1818"/>
          <rect id="Rectángulo_52612" data-name="Rectángulo 52612" width="2.453" height="2.454" transform="translate(27.757 5.047)" fill="#1a1818"/>
          <rect id="Rectángulo_52613" data-name="Rectángulo 52613" width="14.958" height="7.455" transform="translate(15.229 47.72)" fill="#eeac3a"/>
        </g>
      </g>
    </g>
    <g id="Grupo_175125" data-name="Grupo 175125" transform="translate(-15 5.188)">
      <path id="Trazado_217471" data-name="Trazado 217471" d="M-11563.3-11879.647v-51.871l-4.133-1.855h-61.15l5.386,1.855v3l2.564,1.022,3.661-1.771,2.263,1.771,1.372,2.1-2.2,2.144.823,2.616,3.453,1.123,1.113,1.431v3.479l-4.566.873-.823,3.225,2.2,2.059-1.372,2.425-2.263,1.118-4.939-1.761-1.286,2.492v3.169h3.633l1.384,1.92,4.844,1.248,1.268,2.234h3.365l1.521,3.988v12.675Z" transform="translate(12766.518 12062.117)" fill="#fff" stroke="#707070" stroke-width="1"/>
      <path id="Trazado_217472" data-name="Trazado 217472" d="M-11631.1-11531.7v16.777l2.617,6.328,1.686,3.268,2.679-.576,7.395-1.467h4.764l6.5,2.043h1.548l3.875-8.43v-15.924l-3.2-2.02-1.662,2.02-1.238-3.557h-3.6l-2.226-2.957H-11615l-1.154-9.354-1.985-1.311-2.583,1.311v23.639l-1.905,2.52h-2.727l-.681-9.451-.761-3.77-2.961-.627Z" transform="translate(12758.807 11697.206)" fill="#fff" stroke="#707070" stroke-width="1"/>
      <g id="Grupo_175124" data-name="Grupo 175124" transform="translate(1123.538 128.193)">
        <g id="Grupo_174745" data-name="Grupo 174745" clip-path="url(#clip-path-2)">
          <path id="Trazado_215074" data-name="Trazado 215074" d="M0,20.968V13.115c.981,0,1.963-.011,2.944.007a1.84,1.84,0,0,0,1.939-1.064,1.8,1.8,0,0,0-.609-2.187c-.711-.659-1.409-1.331-2.011-1.9L7.9,2.326C8.55,2.986,9.26,3.7,9.964,4.418a1.743,1.743,0,0,0,2.069.5A1.721,1.721,0,0,0,13.1,3.083c-.022-1-.005-2-.005-3.052h.986Q46.058.03,78.038,0a2.953,2.953,0,0,1,3.138,3.178c-.078,8.124-.032,16.249-.032,24.373q0,12.923.009,25.846a2.821,2.821,0,0,1-.844,2.21,2.863,2.863,0,0,1-2.1.7q-20.693-.015-41.386-.022c-.658,0-.886.18-1.1.827-.641,1.959-1.411,3.875-2.147,5.8-.15.394-.368.762-.572,1.178H64.194V59.18L82.3,70.7,64.118,82.275V77.3H32.679v3.825H7.856v-.93c0-4.935.011-9.869-.019-14.8A2.471,2.471,0,0,0,7.4,64.061,24.37,24.37,0,0,1,2.674,50.7c-.173-4.71-.058-9.432-.044-14.148a2.55,2.55,0,0,1,2.52-2.494,5.19,5.19,0,0,1,5.313,5.157c.016,2.508,0,5.017.006,7.525,0,1.072.522,1.724,1.337,1.7.788-.02,1.282-.651,1.283-1.676,0-5.262,0-10.524.008-15.786a1.78,1.78,0,0,0-3.157-1.3c-.695.727-1.4,1.444-2.066,2.13L2.238,26.189c.718-.7,1.478-1.435,2.228-2.179A1.691,1.691,0,0,0,4.882,22,1.649,1.649,0,0,0,3.19,20.963c-1.063.013-2.127,0-3.19.006M36.644,43.343a28.355,28.355,0,0,1,4.038-2.761,29.091,29.091,0,0,1,4.906-1.435,2.51,2.51,0,0,0,1.9-1.5,13.826,13.826,0,0,0,.6-2.448c.036-.212-.21-.5-.382-.714a20.266,20.266,0,0,1-1.857-2.258,1.465,1.465,0,0,0-1.478-.8,5.146,5.146,0,0,1-4.625-7.31,2.981,2.981,0,0,0,.127-2.434,12.415,12.415,0,0,1,9.3-16.082,31.7,31.7,0,0,1,6.344-.314A12.455,12.455,0,0,1,67.138,13.1a12.661,12.661,0,0,1,.172,9.1,1.657,1.657,0,0,0-.04,1.2,5.254,5.254,0,0,1-4.7,8.031.922.922,0,0,0-.909.486c-.641.9-1.392,1.729-2.091,2.593-.144.177-.35.378-.362.577a3.663,3.663,0,0,0,3.381,4.207c7.206,1.073,11.119,6.839,10.708,12.838-.035.5,0,1.012,0,1.492h5.195V2.7H26.634l5.222,5.153c-.758.731-1.475,1.437-2.21,2.124a1.661,1.661,0,0,0-.519,2.049,1.755,1.755,0,0,0,1.826,1.1c1-.026,2-.006,3.016-.006v7.847c-1.061,0-2.067.015-3.072,0a1.7,1.7,0,0,0-1.759,1.067,1.681,1.681,0,0,0,.487,2.06c.744.706,1.459,1.443,2.1,2.085l-5.562,5.561c.029.015-.029,0-.065-.037q-.959-.95-1.913-1.9c-.9-.894-1.5-1.026-2.378-.526-.8.455-1.039,1.184-.755,2.316,2.425-.533,4.055.459,5.018,2.665a4.079,4.079,0,0,1,5.223,2.6,2,2,0,0,0,.29-.014,3.91,3.91,0,0,1,5.054,4.035c0,.863,0,1.726,0,2.474m-5.79,19.074a21.166,21.166,0,0,0,2.813-8.548c.292-4.37.277-8.761.333-13.145a1.718,1.718,0,0,0-.657-1.209c-.874-.628-1.919.107-1.929,1.327-.018,2.235-.005,4.471-.006,6.706v.859H28.8v-.921c0-3.108.008-6.215-.006-9.323a1.357,1.357,0,0,0-1.308-1.483,1.381,1.381,0,0,0-1.308,1.487c-.008.19,0,.382,0,.572q0,4.416,0,8.832V48.4H23.562v-.936q0-5.684,0-11.368c0-.218.01-.437-.005-.654a1.307,1.307,0,1,0-2.612-.03c-.018.217-.006.436-.006.654q0,5.725,0,11.449v.877H18.326V36.562q0-5.684,0-11.367c0-.959-.51-1.577-1.274-1.6-.79-.026-1.327.617-1.346,1.613,0,.191,0,.382,0,.572q0,10.509,0,21.018a5.336,5.336,0,0,1-.09,1.216,3.922,3.922,0,0,1-7.751-.9c-.009-2.535.008-5.07-.006-7.606A2.575,2.575,0,0,0,5.27,36.729c-.012.161-.036.322-.036.483,0,4.144-.043,8.288.019,12.43a21.709,21.709,0,0,0,2.59,10.021c.519.972,1.124,1.9,1.688,2.843a27.09,27.09,0,0,1,21.322-.09m1.9,12.246H66.772v2.79l10.6-6.752L66.718,63.922V66.8H32.756ZM10.467,78.5H30.1c0-4.41.007-8.764-.022-13.118,0-.2-.291-.491-.511-.581a23.849,23.849,0,0,0-18.578-.018.745.745,0,0,0-.536.845c.026,1.389.01,2.778.01,4.167v8.7m54.293-57.27a3.1,3.1,0,0,0,.2-.423A9.82,9.82,0,0,0,57.842,8.238a28.756,28.756,0,0,0-5.927-.344,9.936,9.936,0,0,0-9.806,7.9,9.279,9.279,0,0,0,.43,5.478l1.924-.382a5.35,5.35,0,0,1,3.747-4.93,8.031,8.031,0,0,1,.911-.353c.523-.123.648-.418.633-.935-.04-1.376-.014-2.754-.014-4.127H52.35c0,1.261-.011,2.48,0,3.7a3.976,3.976,0,0,0,4.134,4.109c.708.009,1.417.019,2.125,0a3.962,3.962,0,0,1,3.81,2.19.994.994,0,0,0,.584.417c.551.129,1.119.182,1.755.276M6.011,7.862a4.334,4.334,0,0,1,1.306,5.217A4.415,4.415,0,0,1,2.654,15.76v2.587c2.168-.138,3.836.622,4.679,2.678a4.37,4.37,0,0,1-1.27,5.162l1.767,1.868a4.543,4.543,0,0,1,5.19-1.392,1.47,1.47,0,0,0-.826-1.883,9.028,9.028,0,0,1-4.126-9.789A9.164,9.164,0,0,1,25.7,14.126,9.025,9.025,0,0,1,21.77,24.821a1.471,1.471,0,0,0-.762,1.874,4.422,4.422,0,0,1,5.2,1.357L28.1,26.283a4.455,4.455,0,0,1,3.277-7.952V15.813c-5.155-.73-6.5-3.964-3.435-7.93L26.194,6.041a4.273,4.273,0,0,1-5.218,1.3A4.3,4.3,0,0,1,18.307,2.7H15.7a4.217,4.217,0,0,1-2.579,4.62c-2.059.889-3.827.284-5.34-1.333L6.011,7.862m44.65,9.98c-.642.253-1.227.472-1.8.712a2.642,2.642,0,0,0-1.739,2.61c-.014,2.126-.037,4.252.006,6.378a6.562,6.562,0,0,0,6.192,6.5,6.4,6.4,0,0,0,6.74-5.581,46,46,0,0,0,.116-6.281,1.234,1.234,0,0,0-1.312-1.2,14.108,14.108,0,0,0-1.716,0,6.79,6.79,0,0,1-6.482-3.13M20.286,22.621a6.389,6.389,0,0,0,3.009-7.306,6.509,6.509,0,0,0-12.674.459c-.5,2.865.863,5.83,3.142,6.813,2.2-2.207,4.364-2.208,6.524.034M46.835,53.655l-2.1-11.531c-4.984-.021-8.966,5.752-8,11.531Zm13.655-.02H70.624c.578-6.264-2.941-11.345-8.036-11.526l-2.1,11.526M49.9,38.973c1.169.47,2.322.94,3.481,1.394a.712.712,0,0,0,.469.033c1.206-.471,2.4-.963,3.565-1.433l-.759-2.786a9.432,9.432,0,0,1-6,.012l-.754,2.78m5.829,14.678c-.553-1.677-1.078-3.295-1.631-4.9a.552.552,0,0,0-.417-.276.538.538,0,0,0-.44.232c-.565,1.628-1.1,3.266-1.659,4.947ZM44.49,23.617a2.634,2.634,0,0,0-2.6,2.766,2.5,2.5,0,0,0,2.6,2.339ZM62.84,28.76a2.578,2.578,0,0,0,2.6-2.5,2.606,2.606,0,0,0-2.6-2.623ZM20.984,2.666a1.869,1.869,0,0,0,.7,2.078,1.488,1.488,0,0,0,1.756.152c.809-.628,1.513-1.391,2.4-2.23ZM51.056,42.3c-1.028-.415-1.94-.83-2.889-1.129-.214-.068-.81.3-.8.411.124,1.035.345,2.059.561,3.21L51.056,42.3M59.4,44.8c.2-1.1.37-2.035.525-2.97.095-.572-.236-.881-.784-.682-.938.341-1.855.741-2.868,1.151L59.4,44.8m-10.2,7.078.16.014c.381-1.128.708-2.28,1.162-3.378a1.247,1.247,0,0,0-.667-1.858,11.439,11.439,0,0,0-.939.748c-.175.169-.407.439-.379.63.186,1.286.435,2.563.664,3.843m8-5.226c-.178.35-.645.833-.559,1.177.346,1.385.864,2.728,1.318,4.086.293-.851.386-1.719.63-2.542A1.905,1.905,0,0,0,57.2,46.655m-5.144-1.72c1.2,1.337,2.172,1.316,3.169-.027-1.944-1.585-1.182-1.589-3.169.027" transform="translate(0 0)" fill="#1a1818"/>
          <path id="Trazado_215076" data-name="Trazado 215076" d="M199.821,400.687v-7.866h33.962v-2.874l10.659,6.778-10.6,6.752v-2.79Zm10.4-5.226h-2.534v2.519h2.534Zm7.839.014h-2.505v2.52h2.505Zm5.326,2.513h2.52v-2.505h-2.52Z" transform="translate(-167.065 -326.025)" fill="#d8dbf7"/>
          <path id="Trazado_215077" data-name="Trazado 215077" d="M63.8,399.378v-8.7c0-1.389.017-2.779-.01-4.167a.745.745,0,0,1,.536-.846,23.849,23.849,0,0,1,18.578.019c.22.09.509.381.511.58.029,4.354.022,8.708.022,13.118Z" transform="translate(-53.336 -320.874)" fill="#43a99b"/>
          <path id="Trazado_215078" data-name="Trazado 215078" d="M19.546,21.655l1.767-1.871c1.513,1.617,3.281,2.222,5.34,1.333a4.217,4.217,0,0,0,2.579-4.62h2.61a4.452,4.452,0,0,0,7.887,3.336l1.745,1.842c-3.062,3.966-1.72,7.2,3.435,7.93v2.519a4.455,4.455,0,0,0-3.277,7.952L39.74,41.846a4.422,4.422,0,0,0-5.2-1.357,1.471,1.471,0,0,1,.762-1.874A9.025,9.025,0,0,0,39.233,27.92a9.164,9.164,0,0,0-17.632.865,9.028,9.028,0,0,0,4.126,9.789,1.47,1.47,0,0,1,.826,1.883,4.543,4.543,0,0,0-5.19,1.392L19.6,39.98a4.37,4.37,0,0,0,1.271-5.162c-.843-2.055-2.51-2.816-4.679-2.678V29.554a4.415,4.415,0,0,0,4.664-2.682,4.334,4.334,0,0,0-1.306-5.217" transform="translate(-13.534 -13.794)" fill="#eeac3a"/>
          <path id="Trazado_215079" data-name="Trazado 215079" d="M233.473,268.505h-10.1c-.965-5.779,3.017-11.552,8-11.531l2.1,11.531" transform="translate(-186.638 -214.85)" fill="url(#linear-gradient)"/>
          <path id="Trazado_215080" data-name="Trazado 215080" d="M369.006,268.41l2.1-11.526c5.1.181,8.615,5.262,8.036,11.526Z" transform="translate(-308.516 -214.774)" fill="url(#linear-gradient)"/>
          <path id="Trazado_215081" data-name="Trazado 215081" d="M304.425,223.51l.754-2.78a9.432,9.432,0,0,0,6-.012l.759,2.786c-1.161.47-2.359.962-3.565,1.433a.712.712,0,0,1-.47-.033c-1.159-.454-2.312-.924-3.481-1.394" transform="translate(-254.522 -184.537)" fill="#fff"/>
          <path id="Trazado_215082" data-name="Trazado 215082" d="M318.838,300.874h-4.147c.558-1.681,1.094-3.319,1.659-4.947a.538.538,0,0,1,.44-.232.552.552,0,0,1,.417.276c.552,1.608,1.078,3.226,1.631,4.9" transform="translate(-263.105 -247.223)" fill="url(#linear-gradient-3)"/>
          <path id="Trazado_215083" data-name="Trazado 215083" d="M292.659,252.244l-3.125,2.492c-.216-1.152-.436-2.175-.561-3.21-.014-.114.583-.479.8-.411.949.3,1.861.715,2.889,1.129" transform="translate(-241.602 -209.944)" fill="#fff"/>
          <path id="Trazado_215084" data-name="Trazado 215084" d="M346.423,254.378l-3.127-2.5c1.013-.41,1.93-.81,2.868-1.151.548-.2.879.109.785.682-.155.935-.329,1.867-.525,2.97" transform="translate(-287.021 -209.575)" fill="#fff"/>
          <path id="Trazado_215085" data-name="Trazado 215085" d="M296.776,289.857c-.229-1.28-.477-2.557-.664-3.843-.028-.191.2-.462.379-.63a11.446,11.446,0,0,1,.939-.748,1.246,1.246,0,0,1,.667,1.858c-.454,1.1-.78,2.25-1.162,3.378l-.16-.014" transform="translate(-247.57 -237.976)" fill="#fff"/>
          <path id="Trazado_215086" data-name="Trazado 215086" d="M346.052,284.608a1.905,1.905,0,0,1,1.388,2.721c-.244.823-.337,1.691-.63,2.542-.454-1.358-.972-2.7-1.318-4.086-.086-.344.381-.827.559-1.177" transform="translate(-288.849 -237.953)" fill="#fff"/>
          <path id="Trazado_215087" data-name="Trazado 215087" d="M317.578,267.924c1.988-1.617,1.225-1.612,3.169-.027-1,1.343-1.968,1.364-3.169.027" transform="translate(-265.519 -222.989)" fill="url(#linear-gradient-3)"/>
          <rect id="Rectángulo_54064" data-name="Rectángulo 54064" width="2.534" height="2.519" transform="translate(40.622 69.436)" fill="#1a1818"/>
          <rect id="Rectángulo_54065" data-name="Rectángulo 54065" width="2.505" height="2.52" transform="translate(48.489 69.45)" fill="#1a1818"/>
          <rect id="Rectángulo_54066" data-name="Rectángulo 54066" width="2.52" height="2.505" transform="translate(56.32 69.457)" fill="#1a1818"/>
        </g>
      </g>
    </g>
  </g>
</svg>
