<svg xmlns="http://www.w3.org/2000/svg" xmlns:xlink="http://www.w3.org/1999/xlink" width="131.946" height="257.736" viewBox="0 0 131.946 257.736">
  <defs>
    <clipPath id="clip-path">
      <rect id="Rectángulo_54063" data-name="Rectángulo 54063" width="101.917" height="101.954" fill="none"/>
    </clipPath>
    <linearGradient id="linear-gradient" x1="0.5" x2="0.5" y2="1" gradientUnits="objectBoundingBox">
      <stop offset="0" stop-color="#f5f5f5"/>
      <stop offset="0.25" stop-color="#f5f5f5"/>
      <stop offset="1" stop-color="#a7b3cf"/>
    </linearGradient>
    <linearGradient id="linear-gradient-2" x1="0.5" x2="0.5" y2="1" gradientUnits="objectBoundingBox">
      <stop offset="0" stop-color="#7e53c5"/>
      <stop offset="1" stop-color="#080383"/>
    </linearGradient>
  </defs>
  <g id="Grupo_179423" data-name="Grupo 179423" transform="translate(-842.916 -174.519)">
    <g id="Grupo_169381" data-name="Grupo 169381" transform="translate(874.333 174.52)">
      <g id="Grupo_156205" data-name="Grupo 156205" transform="translate(0 0)">
        <g id="Grupo_156176" data-name="Grupo 156176" transform="translate(0 13.845)">
          <path id="Trazado_196533" data-name="Trazado 196533" d="M830.2,197.871c0-21.594.253-40.4,0-60.671-30.255,0-60.664.88-91.145.559-.293,20.661,0,40.1,0,60.184Q784.75,197.943,830.2,197.871Z" transform="translate(-738.333 -136.612)" fill="#fff"/>
          <path id="Trazado_196534" data-name="Trazado 196534" d="M739.118,198.6a.588.588,0,0,1-.588-.588c0-6.7-.033-13.433-.064-19.947-.064-13.013-.13-26.469.064-40.245a.587.587,0,0,1,.588-.579h.006c17.606.185,35.462-.034,52.731-.246,12.6-.155,25.63-.314,38.409-.314a.589.589,0,0,1,.588.58c.166,13.375.114,26.028.057,39.424-.028,6.835-.057,13.9-.057,21.255a.588.588,0,0,1-.588.588c-15.137,0-30.55.018-45.457.036C769.842,198.58,754.37,198.6,739.118,198.6Zm.579-60.179c-.184,13.562-.12,26.815-.057,39.638.031,6.325.063,12.857.064,19.364,15.063,0,30.329-.018,45.1-.035,14.715-.018,29.923-.036,44.872-.036,0-7.143.029-14.019.058-20.674.055-13.2.106-25.672-.051-38.823-12.586.006-25.408.163-37.814.315C774.786,138.378,757.125,138.6,739.7,138.42Z" transform="translate(-738.401 -136.679)"/>
        </g>
        <g id="Grupo_156177" data-name="Grupo 156177" transform="translate(0.129 7.74)">
          <path id="Trazado_196535" data-name="Trazado 196535" d="M739.228,132.193c-.1,2.519-.077,4.91-.192,7.8,30.508.065,60.734.026,91.146-.071,0-2.606-.077-6.01-.077-8.127Z" transform="translate(-738.447 -131.204)" fill="#7f4fc7"/>
          <path id="Trazado_196536" data-name="Trazado 196536" d="M769.941,140.677c-10.59,0-20.841-.011-30.839-.033a.588.588,0,0,1-.587-.611c.06-1.485.083-2.84.1-4.149.02-1.246.039-2.423.089-3.648a.588.588,0,0,1,.585-.565l90.876-.4h0a.588.588,0,0,1,.587.588c0,1,.018,2.292.036,3.649.02,1.525.042,3.1.042,4.477a.588.588,0,0,1-.586.588C808.784,140.643,788.827,140.677,769.941,140.677Zm-30.229-1.207c27.487.059,56.924.034,89.948-.07-.006-1.22-.024-2.567-.041-3.877-.016-1.109-.029-2.173-.035-3.073l-89.723.4c-.034,1.015-.051,2.012-.068,3.059C739.776,137.039,739.757,138.209,739.713,139.47Z" transform="translate(-738.515 -131.271)"/>
        </g>
        <g id="Grupo_156178" data-name="Grupo 156178" transform="translate(64.031 11.893)">
          <path id="Trazado_196537" data-name="Trazado 196537" d="M795.7,136.2a.588.588,0,0,1-.01-1.176l4.2-.075h.01a.588.588,0,0,1,.01,1.176l-4.2.074Z" transform="translate(-795.114 -134.95)"/>
        </g>
        <g id="Grupo_156179" data-name="Grupo 156179" transform="translate(73.313 11.968)">
          <path id="Trazado_196538" data-name="Trazado 196538" d="M803.923,136.266a.588.588,0,0,1-.01-1.175l4.2-.074h.011a.588.588,0,0,1,.01,1.176l-4.2.073Z" transform="translate(-803.335 -135.016)"/>
        </g>
        <g id="Grupo_156180" data-name="Grupo 156180" transform="translate(82.296 11.818)">
          <path id="Trazado_196539" data-name="Trazado 196539" d="M811.879,136.133a.588.588,0,0,1-.01-1.175l4.2-.075h.01a.588.588,0,0,1,.01,1.176l-4.2.073Z" transform="translate(-811.292 -134.883)"/>
        </g>
        <g id="Grupo_156181" data-name="Grupo 156181" transform="translate(11.167 28.728)">
          <path id="Trazado_196540" data-name="Trazado 196540" d="M748.879,151.383a.588.588,0,0,1-.02-1.175l10.191-.347a.6.6,0,0,1,.607.567.587.587,0,0,1-.568.607l-10.19.347Z" transform="translate(-748.292 -149.861)"/>
        </g>
        <g id="Grupo_156182" data-name="Grupo 156182" transform="translate(11.729 40.581)">
          <path id="Trazado_196541" data-name="Trazado 196541" d="M749.376,161.882a.588.588,0,0,1-.015-1.176L763,160.359h.015a.588.588,0,0,1,.015,1.175l-13.641.348Z" transform="translate(-748.789 -160.359)"/>
        </g>
        <g id="Grupo_156183" data-name="Grupo 156183" transform="translate(11.564 52.434)">
          <path id="Trazado_196542" data-name="Trazado 196542" d="M749.231,172.381a.588.588,0,0,1-.008-1.176l27.612-.347h.008a.588.588,0,0,1,.007,1.175l-27.612.348Z" transform="translate(-748.643 -170.858)"/>
        </g>
        <g id="Grupo_156184" data-name="Grupo 156184" transform="translate(11.729 63.037)">
          <path id="Trazado_196543" data-name="Trazado 196543" d="M749.377,181.771a.588.588,0,0,1,0-1.175l48.431-.347h0a.588.588,0,0,1,0,1.175l-48.431.347Z" transform="translate(-748.789 -180.249)"/>
        </g>
        <g id="Grupo_156200" data-name="Grupo 156200" transform="translate(31.298)">
          <g id="Grupo_156185" data-name="Grupo 156185" transform="translate(41.613 38.809)">
            <path id="Trazado_196544" data-name="Trazado 196544" d="M803.5,165.155l12.313,12.113a81.04,81.04,0,0,0,6.7,6.12,7.289,7.289,0,0,0,4.242,1.942,3.21,3.21,0,0,0,3.185-3.059,5.273,5.273,0,0,0-1.837-3.4q-9.8-10.339-20.46-19.575C806.347,161.206,805.047,163.11,803.5,165.155Z" transform="translate(-802.912 -158.724)" fill="#fff"/>
            <path id="Trazado_196545" data-name="Trazado 196545" d="M826.826,185.984h0a7.751,7.751,0,0,1-4.6-2.066,81.584,81.584,0,0,1-6.753-6.164L803.155,165.64a.586.586,0,0,1-.056-.773c1.532-2.024,2.844-3.947,4.114-5.807a.619.619,0,0,1,.417-.264.6.6,0,0,1,.47.126c7.08,6.136,13.977,12.735,20.5,19.615a5.781,5.781,0,0,1,2,3.8,3.473,3.473,0,0,1-1.047,2.479A3.94,3.94,0,0,1,826.826,185.984Zm-22.48-20.821,11.946,11.752a80.95,80.95,0,0,0,6.653,6.076,6.781,6.781,0,0,0,3.879,1.817h0a2.747,2.747,0,0,0,1.891-.823,2.312,2.312,0,0,0,.7-1.643,4.761,4.761,0,0,0-1.676-3c-6.343-6.691-13.042-13.115-19.918-19.1C806.739,161.837,805.617,163.462,804.346,165.163Z" transform="translate(-802.979 -158.79)"/>
          </g>
          <g id="Grupo_156187" data-name="Grupo 156187">
            <g id="Grupo_156186" data-name="Grupo 156186">
              <path id="Trazado_196546" data-name="Trazado 196546" d="M792.239,124.937a25.6,25.6,0,1,0,25.6,25.6A25.6,25.6,0,0,0,792.239,124.937Zm0,45.037a19.441,19.441,0,1,1,19.439-19.441A19.441,19.441,0,0,1,792.239,169.974Zm0,0a19.441,19.441,0,1,1,19.439-19.441A19.441,19.441,0,0,1,792.239,169.974Z" transform="translate(-766.055 -124.349)" fill="#fff"/>
              <path id="Trazado_196547" data-name="Trazado 196547" d="M792.306,176.785A26.184,26.184,0,1,1,818.491,150.6,26.214,26.214,0,0,1,792.306,176.785Zm0-51.194A25.009,25.009,0,1,0,817.315,150.6,25.038,25.038,0,0,0,792.306,125.591Zm0,45.038A20.029,20.029,0,1,1,812.334,150.6,20.052,20.052,0,0,1,792.306,170.63ZM773.453,150.6a18.853,18.853,0,1,0,18.854-18.853A18.874,18.874,0,0,0,773.453,150.6Z" transform="translate(-766.122 -124.416)"/>
            </g>
          </g>
          <g id="Grupo_156188" data-name="Grupo 156188" transform="translate(13.601 23.324)">
            <path id="Trazado_196548" data-name="Trazado 196548" d="M778.689,147.6a2.009,2.009,0,1,1,2.009,2.009A2.009,2.009,0,0,1,778.689,147.6Z" transform="translate(-778.102 -145.007)" fill="#fff"/>
            <path id="Trazado_196549" data-name="Trazado 196549" d="M780.765,150.266a2.6,2.6,0,1,1,2.6-2.6A2.6,2.6,0,0,1,780.765,150.266Zm0-4.017a1.421,1.421,0,1,0,1.421,1.421A1.423,1.423,0,0,0,780.765,146.249Z" transform="translate(-778.169 -145.074)"/>
          </g>
          <g id="Grupo_156189" data-name="Grupo 156189" transform="translate(23.327 23.324)">
            <ellipse id="Elipse_6032" data-name="Elipse 6032" cx="2.008" cy="2.008" rx="2.008" ry="2.008" transform="translate(0.588 0.588)" fill="#fff"/>
            <path id="Trazado_196550" data-name="Trazado 196550" d="M789.379,150.266a2.6,2.6,0,1,1,2.6-2.6A2.6,2.6,0,0,1,789.379,150.266Zm0-4.017a1.421,1.421,0,1,0,1.421,1.421A1.423,1.423,0,0,0,789.379,146.249Z" transform="translate(-786.783 -145.074)"/>
          </g>
          <g id="Grupo_156190" data-name="Grupo 156190" transform="translate(33.052 23.324)">
            <ellipse id="Elipse_6033" data-name="Elipse 6033" cx="2.008" cy="2.008" rx="2.008" ry="2.008" transform="translate(0.588 0.588)" fill="#fff"/>
            <path id="Trazado_196551" data-name="Trazado 196551" d="M797.994,150.266a2.6,2.6,0,1,1,2.6-2.6A2.6,2.6,0,0,1,797.994,150.266Zm0-4.017a1.421,1.421,0,1,0,1.42,1.421A1.423,1.423,0,0,0,797.994,146.249Z" transform="translate(-795.397 -145.074)"/>
          </g>
          <g id="Grupo_156191" data-name="Grupo 156191" transform="translate(45.305 44.006)">
            <path id="Trazado_196552" data-name="Trazado 196552" d="M806.445,165.361a.186.186,0,0,1-.054-.008.2.2,0,0,1-.134-.243l.451-1.575a.2.2,0,0,1,.376.107l-.451,1.576A.2.2,0,0,1,806.445,165.361Z" transform="translate(-806.25 -163.393)"/>
          </g>
          <g id="Grupo_156192" data-name="Grupo 156192" transform="translate(47.458 42.821)">
            <path id="Trazado_196553" data-name="Trazado 196553" d="M808.353,168.256h-.026a.2.2,0,0,1-.169-.22c.242-1.841.532-3.7.864-5.53a.2.2,0,1,1,.386.071c-.332,1.821-.621,3.675-.86,5.51A.2.2,0,0,1,808.353,168.256Z" transform="translate(-808.156 -162.343)"/>
          </g>
          <g id="Grupo_156193" data-name="Grupo 156193" transform="translate(50.255 45.196)">
            <path id="Trazado_196554" data-name="Trazado 196554" d="M810.829,170.663a.2.2,0,0,1-.2-.2c0-.92.141-2.465.266-3.826.077-.834.142-1.554.165-2.006a.2.2,0,1,1,.391.019c-.023.461-.089,1.184-.166,2.022-.124,1.355-.264,2.889-.264,3.791A.2.2,0,0,1,810.829,170.663Z" transform="translate(-810.634 -164.447)"/>
          </g>
          <g id="Grupo_156194" data-name="Grupo 156194" transform="translate(52.97 47.122)">
            <path id="Trazado_196555" data-name="Trazado 196555" d="M813.382,173.083a.2.2,0,0,1-.2-.192l-.148-6.537a.2.2,0,1,1,.393-.009l.147,6.537a.2.2,0,0,1-.191.2Z" transform="translate(-813.038 -166.153)"/>
          </g>
          <g id="Grupo_156195" data-name="Grupo 156195" transform="translate(55.585 49.706)">
            <path id="Trazado_196556" data-name="Trazado 196556" d="M815.808,175.678a.2.2,0,0,1-.2-.189l-.256-6.845a.2.2,0,0,1,.189-.2.2.2,0,0,1,.2.189l.257,6.846a.2.2,0,0,1-.19.2Z" transform="translate(-815.355 -168.441)"/>
          </g>
          <g id="Grupo_156196" data-name="Grupo 156196" transform="translate(58.268 52.593)">
            <path id="Trazado_196557" data-name="Trazado 196557" d="M818.273,177.786a.2.2,0,0,1-.2-.185l-.347-6.395a.2.2,0,0,1,.185-.207.191.191,0,0,1,.206.185l.347,6.395a.2.2,0,0,1-.185.207Z" transform="translate(-817.731 -170.999)"/>
          </g>
          <g id="Grupo_156197" data-name="Grupo 156197" transform="translate(60.88 55.014)">
            <path id="Trazado_196558" data-name="Trazado 196558" d="M820.72,179.763a.2.2,0,0,1-.2-.181l-.48-6.227a.2.2,0,0,1,.39-.03l.481,6.227a.2.2,0,0,1-.18.21Z" transform="translate(-820.044 -173.143)"/>
          </g>
          <g id="Grupo_156198" data-name="Grupo 156198" transform="translate(63.397 57.806)">
            <path id="Trazado_196559" data-name="Trazado 196559" d="M823.03,181.468a.2.2,0,0,1-.194-.176l-.561-5.461a.2.2,0,0,1,.175-.215.2.2,0,0,1,.214.175l.561,5.461a.2.2,0,0,1-.175.215Z" transform="translate(-822.274 -175.615)"/>
          </g>
          <g id="Grupo_156199" data-name="Grupo 156199" transform="translate(66.109 60.536)">
            <path id="Trazado_196560" data-name="Trazado 196560" d="M825.265,180.866a.2.2,0,0,1-.193-.165l-.394-2.44a.2.2,0,0,1,.162-.225.193.193,0,0,1,.225.161l.4,2.44a.2.2,0,0,1-.163.225A.153.153,0,0,1,825.265,180.866Z" transform="translate(-824.675 -178.033)"/>
          </g>
        </g>
        <g id="Grupo_156201" data-name="Grupo 156201" transform="translate(0.845 16.149)" opacity="0.129">
          <path id="Trazado_196561" data-name="Trazado 196561" d="M771.1,139.073c-.66-.389-1.448-.1-2.169-.12-3.009-.036-6.02-.282-9.034-.226-3.415.041-6.826.349-10.243.218-1.95-.081-3.9-.015-5.852-.061-.75-.018-1.5-.021-2.249-.017a3.67,3.67,0,0,0-1.467.135,1.545,1.545,0,0,0,.6,2.963c4.945.023,9.885.4,14.83.292,4.926-.212,9.866.016,14.782-.341l.037,0a1.691,1.691,0,0,0,1.076-.446A1.54,1.54,0,0,0,771.1,139.073Z" transform="translate(-739.149 -138.72)"/>
        </g>
        <g id="Grupo_156202" data-name="Grupo 156202" transform="translate(81.136 15.952)" opacity="0.129">
          <path id="Trazado_196562" data-name="Trazado 196562" d="M820.643,138.737a1.519,1.519,0,0,0-1.219-.116c.03-.014.043-.019.013-.009-.319.052-.64.1-.956.166l-.08.009c-1.939.007-3.885-.18-5.832-.115-.649,0-1.39-.093-1.874.435a1.506,1.506,0,0,0,1.056,2.55c1.671-.12,3.341-.132,5.014-.105,1.371-.106,1.085-.122,2.077-.175.308,0,.615-.036.923-.053.01,0,.01,0,0,0a1.4,1.4,0,0,0,1.013-.306A1.381,1.381,0,0,0,820.643,138.737Z" transform="translate(-810.264 -138.545)"/>
        </g>
        <g id="Grupo_156203" data-name="Grupo 156203" transform="translate(38.07 23.924)" opacity="0.129">
          <path id="Trazado_196563" data-name="Trazado 196563" d="M797.478,166.069c.645-.218,1.3-.431,1.938-.666,1.382-.78,2.733-1.613,4.025-2.509a23.66,23.66,0,0,0,3.264-2.962,17.636,17.636,0,0,0,1.18-1.336,1.3,1.3,0,0,0-1.139.1,25.89,25.89,0,0,1-5.384,3.255,15.211,15.211,0,0,1-5.214,1.485,26.308,26.308,0,0,1-13.614-2.68,19.523,19.523,0,0,1-3.144-1.961q-.859-.694-1.644-1.472c-.222-.182-.847-.912-1.084-1.184a38.518,38.518,0,0,1-3.52-7.262,22.578,22.578,0,0,1-.675-2.184,6.7,6.7,0,0,0-.314-1.085,21.764,21.764,0,0,0,.292,4.981,32.872,32.872,0,0,0,1.433,5.078c.173.3.348.592.519.881a29.255,29.255,0,0,0,4.7,6.081,23.185,23.185,0,0,0,4.116,2.062,30.119,30.119,0,0,0,8.8,2.062,18.7,18.7,0,0,0,3.307.016Q796.4,166.429,797.478,166.069Z" transform="translate(-772.12 -145.606)"/>
        </g>
        <g id="Grupo_156204" data-name="Grupo 156204" transform="translate(72.646 40.636)" opacity="0.129">
          <path id="Trazado_196564" data-name="Trazado 196564" d="M822.63,182.732a1.382,1.382,0,0,0-.533-.518l-.012-.012.016.007a.218.218,0,0,0-.027-.017c-.134-.13-.473-.436-.594-.565-1.969-1.985-4.2-3.677-6.272-5.544-1.509-1.4-2.778-3.04-4.354-4.376-1.639-1.409-2.974-3.125-4.579-4.565a1.535,1.535,0,0,0,.335-.149,11.326,11.326,0,0,0,2.661-2.417c.289-.339.607-.651.888-1a1.908,1.908,0,0,0,.766-1.29,1.634,1.634,0,0,0-1.187-1.817,1.76,1.76,0,0,0-2.089,1.2,22.688,22.688,0,0,1-2.485,2.426l-.176.122a1.618,1.618,0,0,0-.738.961,1.489,1.489,0,0,0-.061.432,1.023,1.023,0,0,0-.207-.021,1.254,1.254,0,0,0-.879,2.124,34.962,34.962,0,0,1,4.723,4.635c1.7,1.733,3.31,3.555,5.02,5.279,1.361,1.306,2.877,2.432,4.292,3.677,1.041.881,2.01,1.84,3.008,2.768a1.156,1.156,0,0,0,.412.479A1.408,1.408,0,0,0,822.63,182.732Z" transform="translate(-802.745 -160.408)"/>
        </g>
      </g>
    </g>
    <g id="Grupo_175123" data-name="Grupo 175123" transform="translate(12575.999 12228.027)">
      <path id="Trazado_217470" data-name="Trazado 217470" d="M-11633.136-11816.812v-59.449h-38.415s-2.062,3.793-4.367,3.483-17.319,0-17.319,0l5.539,4.7,7.722,9.76,1.595,11.307-3.782,11.556-7.06,8.046v10.6Z" fill="#fff" stroke="#707070" stroke-width="1"/>
      <g id="Grupo_175120" data-name="Grupo 175120" transform="translate(-11733.083 -11897.727)">
        <g id="Grupo_174743" data-name="Grupo 174743" clip-path="url(#clip-path)">
          <path id="Trazado_215063" data-name="Trazado 215063" d="M96.574,101.954h-48.5a1.064,1.064,0,0,0-.252-.167c-3.444-1.066-5.086-3.288-5.087-6.9q0-10.326,0-20.652v-1c-2.01.9-3.854,1.788-5.75,2.542a1.1,1.1,0,0,0-.849,1.235q.041,9.2.012,18.392a6.506,6.506,0,0,1-4.492,6.225c-.285.1-.562.218-.843.328H25.062a1.069,1.069,0,0,0-.252-.167c-3.444-1.066-5.086-3.288-5.087-6.9,0-5.925-.014-11.85.016-17.774a1.2,1.2,0,0,0-.938-1.377C7.65,71.427,1.125,63.326.113,51.412-.752,41.221,3.359,32.947,11.525,26.755c1.1-.837,2.318-1.528,3.514-2.308-.1-.139-.171-.249-.252-.352-3.024-3.857-1.8-8.579,2.7-10.553a1.234,1.234,0,0,0,.576-.874A8.294,8.294,0,0,1,31.294,6.586c.189-.271.363-.515.531-.763a13.115,13.115,0,0,1,21.743-.088,1.722,1.722,0,0,0,1.638.871q20.03-.037,40.06-.015a6.542,6.542,0,0,1,6.424,4.784c.058.19.15.37.227.554V96.61a23.283,23.283,0,0,1-1.1,2.388,7.158,7.158,0,0,1-4.247,2.956m-44-72.271H78.845V52.623H55.726l-.607,3.325H92V59.2H75.333q-10.17,0-20.34.011c-.337,0-.866.057-.978.265-.51.943-.9,1.95-1.392,3.059H91.971v3.188H52.592v-3.1c-.229.3-.314.393-.373.5a28.724,28.724,0,0,1-5.775,7.163,1.616,1.616,0,0,0-.406,1.061c-.044,1.506-.019,3.013-.019,4.52v3.026H98.576V23.024h-.75q-17.309,0-34.619.023a1.878,1.878,0,0,0-1.2.542,8.432,8.432,0,0,1-6.4,2.732c-3.561-.034-7.122-.01-10.683-.006-.275,0-.551.039-1.033.076a29.161,29.161,0,0,1,8.688,9.7Zm46.052,52.6h-52.6c0,4.134,0,8.2,0,12.272,0,2.915,1.2,4.113,4.113,4.113H94.5c.308,0,.617.012.924-.009A3.251,3.251,0,0,0,98.6,95.5c.062-4.378.02-8.757.02-13.217M22.217,17.524c-.259-.189-.443-.336-.64-.464a3.238,3.238,0,0,0-5.053,2.035,3.109,3.109,0,0,0,.939,2.992,2.313,2.313,0,0,0,2.615.458,26.1,26.1,0,0,1,13.471-.566,21.632,21.632,0,0,0,4.056,1c6.16.107,12.323.1,18.483.014a4.878,4.878,0,0,0,4.726-4.775,5,5,0,0,0-4.471-5.035,4.933,4.933,0,0,0-5.276,4.025c-.063.286-.136.57-.2.827H47.66a8.32,8.32,0,0,1,4.507-7.3A9.755,9.755,0,0,0,42.721,3.3c-5.28.031-8.741,3.433-9.944,9.8H29.528a16.228,16.228,0,0,1,.3-2.381,1.191,1.191,0,0,0-.593-1.451A4.689,4.689,0,0,0,24.4,8.642a4.925,4.925,0,0,0-3.006,3.988c-.091.539.122.747.608.979.925.44,1.782,1.023,2.783,1.616l-2.566,2.3M27.937,74A24.667,24.667,0,1,0,3.278,49.36,24.773,24.773,0,0,0,27.937,74m70.7-54.3c0-2.092.005-4.074,0-6.056-.008-2.474-1.325-3.777-3.827-3.778q-18.171,0-36.343,0c-.273,0-.546.03-.948.054,4.859,1.6,6.983,4.851,6.544,9.78ZM55.956,49.258H75.562V32.936H55.956ZM23.046,77.087c.011-.047-.033.051-.033.148,0,6.056-.029,12.112.01,18.168a3.266,3.266,0,0,0,3.295,3.257c.888.036,1.779.01,2.668.008,2.617-.006,3.888-1.284,3.889-3.922q0-8.417,0-16.834v-.825Z" transform="translate(0 0)" fill="#1a1818"/>
          <path id="Trazado_215064" data-name="Trazado 215064" d="M276.108,399.64c0,4.46.042,8.839-.02,13.217a3.251,3.251,0,0,1-3.183,3.158c-.307.021-.616.009-.924.009H227.616c-2.916,0-4.113-1.2-4.113-4.113,0-4.069,0-8.137,0-12.272Zm-21.371,8.139a4.927,4.927,0,1,0-4.934,4.949,4.89,4.89,0,0,0,4.934-4.949" transform="translate(-177.484 -317.355)" fill="#d8dbf7"/>
          <path id="Trazado_215065" data-name="Trazado 215065" d="M85.622,30.237l2.566-2.3c-1-.593-1.858-1.176-2.783-1.616-.487-.231-.7-.44-.608-.979A4.925,4.925,0,0,1,87.8,21.355a4.689,4.689,0,0,1,4.841.623,1.191,1.191,0,0,1,.593,1.451,16.227,16.227,0,0,0-.3,2.381h3.248c1.2-6.368,4.664-9.77,9.944-9.8a9.755,9.755,0,0,1,9.446,7.439,8.32,8.32,0,0,0-4.507,7.3h3.21c.062-.258.134-.541.2-.827a4.933,4.933,0,0,1,5.276-4.025,5,5,0,0,1,4.471,5.035,4.878,4.878,0,0,1-4.726,4.775c-6.16.083-12.324.093-18.483-.014a21.648,21.648,0,0,1-4.056-1,26.1,26.1,0,0,0-13.471.566,2.313,2.313,0,0,1-2.615-.458,3.11,3.11,0,0,1-.939-2.992,3.238,3.238,0,0,1,5.053-2.035c.2.128.381.275.64.464" transform="translate(-63.406 -12.713)" fill="url(#linear-gradient)"/>
          <path id="Trazado_215066" data-name="Trazado 215066" d="M40.581,169.149a24.667,24.667,0,1,1,24.662-24.642,24.773,24.773,0,0,1-24.662,24.642m-.056-3.295a21.372,21.372,0,1,0-21.31-21.481,21.351,21.351,0,0,0,21.31,21.481" transform="translate(-12.644 -95.146)" fill="#eeac3a"/>
          <path id="Trazado_215067" data-name="Trazado 215067" d="M320.448,57.768H285.872c.439-4.929-1.685-8.18-6.544-9.78.4-.023.675-.053.948-.054q18.172,0,36.343,0c2.5,0,3.819,1.3,3.827,3.778.006,1.982,0,3.964,0,6.056" transform="translate(-221.815 -38.064)" fill="#d8dbf7"/>
          <path id="Trazado_215068" data-name="Trazado 215068" d="M111.755,374.352h9.829v.825q0,8.417,0,16.834c0,2.638-1.272,3.917-3.889,3.922-.889,0-1.78.027-2.668-.008a3.266,3.266,0,0,1-3.295-3.257c-.039-6.056-.014-12.112-.01-18.168,0-.1.044-.2.033-.148" transform="translate(-88.71 -297.264)" fill="url(#linear-gradient-2)"/>
          <rect id="Rectángulo_54054" data-name="Rectángulo 54054" width="26.162" height="3.159" transform="translate(52.651 69.124)" fill="#1a1818"/>
          <rect id="Rectángulo_54055" data-name="Rectángulo 54055" width="9.721" height="3.171" transform="translate(82.27 29.673)" fill="#1a1818"/>
          <rect id="Rectángulo_54056" data-name="Rectángulo 54056" width="9.725" height="3.156" transform="translate(82.278 42.835)" fill="#1a1818"/>
          <rect id="Rectángulo_54057" data-name="Rectángulo 54057" width="9.725" height="3.155" transform="translate(82.278 49.412)" fill="#1a1818"/>
          <rect id="Rectángulo_54058" data-name="Rectángulo 54058" width="3.189" height="3.136" transform="translate(82.266 36.249)" fill="#1a1818"/>
          <rect id="Rectángulo_54059" data-name="Rectángulo 54059" width="3.154" height="3.172" transform="translate(88.841 36.249)" fill="#1a1818"/>
          <rect id="Rectángulo_54060" data-name="Rectángulo 54060" width="3.152" height="3.171" transform="translate(82.267 69.136)" fill="#1a1818"/>
          <rect id="Rectángulo_54061" data-name="Rectángulo 54061" width="3.165" height="3.148" transform="translate(88.836 69.13)" fill="#1a1818"/>
          <path id="Trazado_215069" data-name="Trazado 215069" d="M337.194,420.24a4.927,4.927,0,1,1-4.972-4.908,4.9,4.9,0,0,1,4.972,4.908m-3.294-.013a1.634,1.634,0,1,0-1.6,1.668,1.712,1.712,0,0,0,1.6-1.668" transform="translate(-259.941 -329.816)" fill="#1a1818"/>
          <path id="Trazado_215070" data-name="Trazado 215070" d="M53.228,178.562A21.372,21.372,0,1,1,74.653,157.3a21.346,21.346,0,0,1-21.425,21.265M71.371,157.2A18.085,18.085,0,1,0,53.252,175.28,18.18,18.18,0,0,0,71.371,157.2" transform="translate(-25.347 -107.854)" fill="#1a1818"/>
          <path id="Trazado_215071" data-name="Trazado 215071" d="M346.6,432.924a1.634,1.634,0,1,1-1.667-1.6,1.713,1.713,0,0,1,1.667,1.6" transform="translate(-272.641 -342.514)" fill="#fff"/>
          <path id="Trazado_215072" data-name="Trazado 215072" d="M84.029,169.855a18.085,18.085,0,1,1-18.1-18.1,18.188,18.188,0,0,1,18.1,18.1m-13.214-1.662v-3.205H61.1v3.255h3.138v9.874H61.072v3.169h9.716v-3.255H67.65v-9.838Zm-3.295-9.778H64.385v3.19H67.52Z" transform="translate(-38.005 -120.512)" fill="#fff"/>
          <path id="Trazado_215073" data-name="Trazado 215073" d="M121.778,219.216h-3.165v9.838h3.138v3.255h-9.716V229.14H115.2v-9.875h-3.138v-3.255h9.716Z" transform="translate(-88.968 -171.535)" fill="#1a1818"/>
          <rect id="Rectángulo_54062" data-name="Rectángulo 54062" width="3.135" height="3.19" transform="translate(26.381 37.903)" fill="#1a1818"/>
        </g>
      </g>
    </g>
  </g>
</svg>
