<svg xmlns="http://www.w3.org/2000/svg" width="68.327" height="72.51" viewBox="0 0 68.327 72.51">
  <g id="Grupo_179427" data-name="Grupo 179427" transform="translate(-1018 -704.735)">
    <g id="Rectángulo_37275" data-name="Rectángulo 37275" transform="translate(1018 704.735)" fill="#fff" stroke="#1565c0" stroke-width="1">
      <rect width="68.327" height="72.51" rx="10" stroke="none"/>
      <rect x="0.5" y="0.5" width="67.327" height="71.51" rx="9.5" fill="none"/>
    </g>
    <g id="Grupo_175054" data-name="Grupo 175054" transform="translate(769.385 -1128.045)">
      <g id="_1HjDfM.tif" data-name="1HjDfM.tif" transform="translate(259.972 1845.365)">
        <g id="Grupo_166015" data-name="Grupo 166015" transform="translate(0)">
          <path id="Trazado_184118" data-name="Trazado 184118" d="M294.5,1889.91H269.973l.074-1.458h2.811v-2.837h-.505c-2.8,0-5.594.005-8.391-.005a4.9,4.9,0,0,1-1.245-.129,3.533,3.533,0,0,1-2.743-3.6q0-11.371,0-22.742c0-.116,0-.232.008-.348a3.53,3.53,0,0,1,3.253-3.32c1.2-.063,2.4-.03,3.605-.064a1.16,1.16,0,0,0,.631-.206,11.988,11.988,0,0,1,11.676-1.914.441.441,0,0,0,.623-.219c1.563-2.455,3.145-4.9,4.71-7.35a.638.638,0,0,1,.614-.353c4.174.012,8.347.007,12.521.009.139,0,.277.014.444.023,0,.329,0,.616,0,.9,0,.565,0,.568-.568.566q-5.781-.018-11.562-.046a.674.674,0,0,0-.662.351c-1.366,2.151-2.749,4.291-4.126,6.435-.084.13-.163.264-.241.391.544.376,1.071.709,1.56,1.09a1.5,1.5,0,0,0,.99.334q8.543-.015,17.086-.009a3.962,3.962,0,0,1,2.8.959,4.17,4.17,0,0,1,1.167,2.133v24.009a4.144,4.144,0,0,1-1.16,2.133,3.9,3.9,0,0,1-2.753.968q-4.237-.005-8.473,0c-.167,0-.333.015-.509.023v2.814h2.818C294.451,1888.967,294.475,1889.438,294.5,1889.91Zm-13.893-14.251a12.032,12.032,0,0,1-14.238-2.35c-4.686-5.219-4.616-10.758-.743-16.446-.577,0-1.167.016-1.757,0a2.269,2.269,0,0,0-2.455,2.446c.035,6.2.015,12.41.016,18.615,0,.154.014.308.022.5h.508c2.058,0,4.121.084,6.173-.028a5.229,5.229,0,0,1,3.919,1.2,1.241,1.241,0,0,0,.753.232q14.872.017,29.744.009h.475c.009-.172.02-.285.02-.4q0-10.112,0-20.224a2.169,2.169,0,0,0-2.4-2.347q-7.914,0-15.828,0c-.121,0-.242.017-.418.03a12.247,12.247,0,0,1-2.526,18.025c.46.648.9,1.279,1.355,1.892a.52.52,0,0,0,.37.144c.463.006.926-.025,1.389-.026q3.3-.005,6.6,0c1.347,0,2.695.03,4.042.03,1.376,0,2.752-.022,4.128-.031.617,0,1.234,0,1.843,0v1.5h-.328q-9.175,0-18.351.006a.613.613,0,0,1-.564-.307C281.787,1877.3,281.2,1876.494,280.607,1875.659Zm9.5,12.773v-2.817H276.349a.97.97,0,0,1-.344-.011c-.094-.038-.22-.146-.225-.23-.024-.386-.011-.774-.011-1.208h24.643c.145,0,.29,0,.435,0a2.217,2.217,0,0,0,2.127-2.869h-.55c-9.421,0-18.842-.029-28.263.029a5.621,5.621,0,0,1-4.037-1.232,1.17,1.17,0,0,0-.716-.218c-2.493-.015-4.986-.01-7.479-.008-.154,0-.308.014-.478.023,0,.861-.066,1.69.016,2.5a2.148,2.148,0,0,0,2.332,1.772q5,0,10,0h.55v4.266ZM274.3,1854.087a10.7,10.7,0,0,0,0,21.363Zm10.407,15.416a10.718,10.718,0,0,0-.008-9.469l-8.193,4.734Zm-8.893-15.524v9.51l8.16-4.715a10.812,10.812,0,0,0-3.9-3.5l-.829,1.271-1.207-.777.727-1.168Zm5.192,19.735a10.506,10.506,0,0,0,2.967-2.955l-8.161-4.712v9.4a8.831,8.831,0,0,0,3.89-1.034l-.927-1.33,1.17-.836Z" transform="translate(-259.972 -1845.365)" fill="#12263f"/>
          <path id="Trazado_184119" data-name="Trazado 184119" d="M576.026,1878.469c0,.432.01.848-.009,1.263,0,.076-.118.175-.2.212a.79.79,0,0,1-.3.014c-3.492,0-6.983-.008-10.475.01-.446,0-.6-.122-.551-.563a8.433,8.433,0,0,0,.007-.937Z" transform="translate(-537.944 -1875.584)" fill="#12263f"/>
          <path id="Trazado_184120" data-name="Trazado 184120" d="M564.966,1912.8v-1.465h8.665c0,.424.022.827-.017,1.224-.009.091-.227.227-.352.23-.9.02-1.8.011-2.695.011h-5.6Z" transform="translate(-538.389 -1905.589)" fill="#12263f"/>
          <path id="Trazado_184121" data-name="Trazado 184121" d="M681.793,1912.883h-1.42v-1.442h1.42Z" transform="translate(-643.74 -1905.683)" fill="#12263f"/>
          <path id="Trazado_184122" data-name="Trazado 184122" d="M294.592,2258.079c0,.414.013.787-.01,1.159a.328.328,0,0,1-.208.238c-.4.024-.8.011-1.219.011v-1.408Z" transform="translate(-290.264 -2222.116)" fill="#12263f"/>
          <path id="Trazado_184123" data-name="Trazado 184123" d="M326.079,2257.941H327.5v1.385h-1.417Z" transform="translate(-320.319 -2221.99)" fill="#12263f"/>
          <path id="Trazado_184124" data-name="Trazado 184124" d="M360.478,2259.466h-1.412v-1.385h1.412Z" transform="translate(-350.431 -2222.117)" fill="#12263f"/>
          <path id="Trazado_184125" data-name="Trazado 184125" d="M347.819,2060.614c-.186.018-.341.045-.5.045-1.605,0-3.211-.008-4.816.009-.381,0-.494-.118-.487-.5.02-1.055,0-1.055,1.053-1.055H347.2c.623,0,.623,0,.624.646Z" transform="translate(-334.871 -2040.489)" fill="#12263f"/>
          <path id="Trazado_184126" data-name="Trazado 184126" d="M347.779,2027.209v1.4a3.694,3.694,0,0,1-.439.051c-1.621,0-3.241-.005-4.862.009-.352,0-.5-.1-.468-.467.029-.314.006-.632.006-.988Z" transform="translate(-334.858 -2011.363)" fill="#12263f"/>
          <path id="Trazado_184127" data-name="Trazado 184127" d="M347.873,2093.608h-5.787c0-.406-.02-.807.015-1.2a.406.406,0,0,1,.305-.246q2.583-.022,5.167,0a.4.4,0,0,1,.286.259C347.893,2092.8,347.873,2093.193,347.873,2093.608Z" transform="translate(-334.926 -2070.643)" fill="#12263f"/>
        </g>
      </g>
      <rect id="Rectángulo_49942" data-name="Rectángulo 49942" width="3.082" height="14.529" transform="translate(289.027 1861.526)" fill="#12263f"/>
      <rect id="Rectángulo_49943" data-name="Rectángulo 49943" width="3.082" height="12.176" transform="translate(293.21 1863.879)" fill="#12263f"/>
      <rect id="Rectángulo_49944" data-name="Rectángulo 49944" width="3.082" height="7.265" transform="translate(297.282 1868.79)" fill="#12263f"/>
    </g>
  </g>
</svg>
