<svg xmlns="http://www.w3.org/2000/svg" xmlns:xlink="http://www.w3.org/1999/xlink" width="98.204" height="98.204" viewBox="0 0 98.204 98.204">
  <defs>
    <linearGradient id="linear-gradient" x1="0.5" x2="0.5" y2="1" gradientUnits="objectBoundingBox">
      <stop offset="0" stop-color="#fdbe41"/>
      <stop offset="1" stop-color="#d09f40"/>
    </linearGradient>
  </defs>
  <g id="Grupo_179463" data-name="Grupo 179463" transform="translate(-867.947 -2017.814)">
    <g id="Grupo_179460" data-name="Grupo 179460">
      <circle id="Elipse_6021" data-name="Elipse 6021" cx="49.102" cy="49.102" r="49.102" transform="translate(867.947 2017.814)" fill="url(#linear-gradient)"/>
      <g id="WGXxTz.tif" transform="translate(894.815 2035.499)">
        <g id="Grupo_154920" data-name="Grupo 154920" transform="translate(0 0)">
          <path id="Trazado_195249" data-name="Trazado 195249" d="M-977.264,219.384c2.527,2.541,5.035,5.1,7.595,7.609a2.828,2.828,0,0,1,.947,2.249c-.051,3.7-.021,7.41-.021,11.115v.7l.126.018c.131-.251.267-.5.391-.753,1.252-2.574,2.485-5.158,3.759-7.721a4.706,4.706,0,0,1,4.725-2.63,4.769,4.769,0,0,1,4.081,3.462,4.883,4.883,0,0,1-.434,3.6q-4.877,10-9.734,20.008c-.877,1.8-1.767,3.6-2.619,5.419a3,3,0,0,0-.284,1.22c-.02,4.541-.012,9.081-.013,13.622,0,1.172-.268,1.444-1.417,1.444q-18.09,0-36.18.013a1.464,1.464,0,0,1-1.412-.688V219.384Zm-28.473,1.928v55.513h35.018V264.832c-.215.141-.366.227-.5.331-1.41,1.053-2.806,2.128-4.238,3.149a2.222,2.222,0,0,1-1.166.391c-1.67.043-3.342.018-5.013.018q-4.369,0-8.739,0c-.84,0-1.306-.508-1.11-1.206.166-.589.623-.69,1.167-.689q6.131.013,12.262,0h.766c0-.218,0-.349,0-.48-.044-2.078-.112-4.155-.117-6.233a3.678,3.678,0,0,1,.326-1.551c2.025-4.227,4.093-8.433,6.129-12.655a2.784,2.784,0,0,0,.272-1.16c.018-4.9.012-9.8.012-14.7v-.768c-2.3,0-4.515,0-6.726,0-.963,0-1.26-.282-1.266-1.24-.01-1.83,0-3.659,0-5.489v-1.235Zm40.538,17.226c-.157.3-.278.508-.385.727-2.76,5.675-5.429,11.4-8.321,17a12.333,12.333,0,0,0-1.538,7.566,16.414,16.414,0,0,1,.013,2.076c1.605-1.2,3.04-2.253,4.443-3.345a2.868,2.868,0,0,0,.793-.967q4.876-9.956,9.717-19.929c.1-.215.193-.439.3-.689Zm.8-1.749,5.1,2.477c.6-1.264,1.217-2.441,1.71-3.67a2.721,2.721,0,0,0-1.341-3.4,2.7,2.7,0,0,0-3.546.839C-963.2,234.224-963.751,235.514-964.394,236.79Zm-12.3-13.925v4.474h4.428Z" transform="translate(1007.753 -219.384)" fill="#12263f"/>
          <path id="Trazado_195250" data-name="Trazado 195250" d="M-960.919,401.964c.721,0,1.443-.011,2.164,0a.939.939,0,0,1,1.029,1q.035,2.232,0,4.464a.952.952,0,0,1-1.073,1.028q-2.2.016-4.4,0c-.676,0-1.031-.31-1.043-.969q-.041-2.265,0-4.531c.011-.694.364-.986,1.088-.995C-962.406,401.957-961.663,401.963-960.919,401.964Zm1.221,4.588V403.9h-2.576v2.65Z" transform="translate(970.166 -377.156)" fill="#12263f"/>
          <path id="Trazado_195251" data-name="Trazado 195251" d="M-960.975,483.291c-.721,0-1.442.006-2.163,0-.783-.008-1.112-.314-1.122-1.1q-.027-2.164,0-4.328c.01-.746.35-1.06,1.092-1.065q2.164-.013,4.327,0a.969.969,0,0,1,1.1,1.07q.027,2.164,0,4.328c-.008.752-.377,1.091-1.142,1.1C-959.578,483.3-960.276,483.291-960.975,483.291Zm1.269-1.92v-2.65H-962.3v2.65Z" transform="translate(970.181 -441.816)" fill="#12263f"/>
          <path id="Trazado_195252" data-name="Trazado 195252" d="M-960.97,558.116c-.744,0-1.488.009-2.231,0-.672-.011-1.021-.313-1.033-.979q-.038-2.265,0-4.531a.9.9,0,0,1,1.031-.984q2.2-.018,4.4,0a.955.955,0,0,1,1.085,1.017q.034,2.232,0,4.464c-.01.672-.394,1.005-1.083,1.015C-959.528,558.124-960.249,558.116-960.97,558.116Zm1.273-1.912v-2.65h-2.573v2.65Z" transform="translate(970.163 -506.476)" fill="#12263f"/>
          <path id="Trazado_195253" data-name="Trazado 195253" d="M-880.332,420.8q-3.383,0-6.766,0c-.8,0-1.2-.327-1.2-.952s.409-.939,1.212-.939c4.533,0,9.066,0,13.6-.007.563,0,1.041.161,1.119.732a1.482,1.482,0,0,1-.381.983c-.13.16-.493.176-.752.177C-875.776,420.8-878.054,420.8-880.332,420.8Z" transform="translate(904.524 -391.795)" fill="#12263f"/>
          <path id="Trazado_195254" data-name="Trazado 195254" d="M-883.682,346c-1.171,0-2.342.006-3.514,0-.724,0-1.121-.366-1.1-.977.017-.579.4-.91,1.1-.911q3.581-.008,7.162,0a.98.98,0,0,1,1.091.941.982.982,0,0,1-1.088.946C-881.25,346-882.466,346-883.682,346Z" transform="translate(904.528 -327.159)" fill="#12263f"/>
          <path id="Trazado_195255" data-name="Trazado 195255" d="M-883.661,495.659c-1.171,0-2.343,0-3.514,0-.736,0-1.129-.349-1.121-.959s.4-.929,1.149-.931q3.514-.006,7.027,0c.715,0,1.163.361,1.177.924.014.585-.451.963-1.2.966C-881.318,495.662-882.49,495.659-883.661,495.659Z" transform="translate(904.525 -456.489)" fill="#12263f"/>
          <path id="Trazado_195256" data-name="Trazado 195256" d="M-956.928,339.706c.661-.864,1.2-1.584,1.758-2.3.439-.564,1-.7,1.454-.365a1,1,0,0,1,.093,1.494c-.757,1.011-1.52,2.019-2.3,3.012a.97.97,0,0,1-1.662.1c-.472-.453-.932-.92-1.388-1.39-.506-.523-.541-1.069-.111-1.488.412-.4.969-.352,1.486.158C-957.377,339.152-957.188,339.4-956.928,339.706Z" transform="translate(965.954 -320.906)" fill="#12263f"/>
        </g>
      </g>
    </g>
  </g>
</svg>
