<svg xmlns="http://www.w3.org/2000/svg" width="416.494" height="243.906" viewBox="0 0 416.494 243.906">
  <g id="Grupo_179435" data-name="Grupo 179435" transform="translate(-941.505 -855.24)">
    <g id="Grupo_50302" data-name="Grupo 50302" transform="translate(941.505 855.24)">
      <g id="Grupo_50301" data-name="Grupo 50301" transform="translate(0 0)">
        <g id="Grupo_50275" data-name="Grupo 50275" transform="translate(15.308 131.981)">
          <path id="Trazado_100403" data-name="Trazado 100403" d="M2731.9,1781.045v91.232a8.038,8.038,0,0,1-3.679,6.759,7.993,7.993,0,0,1-4.366,1.286H2591.505a8.03,8.03,0,0,1-2.662-.451,7.949,7.949,0,0,1-1.7-.835,8.04,8.04,0,0,1-3.678-6.759v-91.232a8.045,8.045,0,0,1,8.044-8.044h132.353A8.045,8.045,0,0,1,2731.9,1781.045Z" transform="translate(-2564.518 -1773)" fill="#12263f"/>
          <path id="Trazado_100500" data-name="Trazado 100500" d="M11.9.031h99.477a26.734,26.734,0,0,1,26.734,26.734V76.821a26.734,26.734,0,0,1-26.734,26.734H10.819C-3.946,103.555.1,105.117.1,90.352V12.281C.1-2.484-2.867.031,11.9.031Z" transform="translate(24.062 5.183)" fill="#fff"/>
          <path id="Trazado_100404" data-name="Trazado 100404" d="M2691.45,1912.261c-1.368,0-2.481-.784-2.481-1.748v-46.635c0-.964,1.113-1.748,2.481-1.748h115.958c1.367,0,2.479.785,2.479,1.748v46.635c0,.964-1.112,1.748-2.479,1.748Z" transform="translate(-2656.263 -1850.505)" fill="#edf4f9"/>
          <path id="Trazado_100405" data-name="Trazado 100405" d="M2731.9,2514.305v3.874a8.035,8.035,0,0,1-3.679,6.757H2587.138a8.037,8.037,0,0,1-3.678-6.757v-3.874Z" transform="translate(-2564.518 -2417.614)" opacity="0.2" style="mix-blend-mode: multiply;isolation: isolate"/>
          <rect id="Rectángulo_29036" data-name="Rectángulo 29036" width="28.938" height="4.42" transform="translate(78.695 100.404)" fill="#172735"/>
          <path id="Trazado_100406" data-name="Trazado 100406" d="M2624.556,2544.538v2.2a7.294,7.294,0,0,1-7.294,7.294h-171.74a7.3,7.3,0,0,1-7.294-7.294v-2.2a1.77,1.77,0,0,1,1.771-1.77h78.2l1.49,2.582a3.2,3.2,0,0,0,2.773,1.6h17.863a3.2,3.2,0,0,0,2.772-1.6l1.49-2.582h78.2A1.77,1.77,0,0,1,2624.556,2544.538Z" transform="translate(-2438.227 -2442.364)" fill="#12263f"/>
          <g id="Grupo_50274" data-name="Grupo 50274" transform="translate(32.705 68.494)">
            <rect id="Rectángulo_29037" data-name="Rectángulo 29037" width="16.889" height="16.889" rx="2" fill="#edf4f9"/>
            <rect id="Rectángulo_29038" data-name="Rectángulo 29038" width="31.628" height="1.398" transform="translate(20.771 0.544)" fill="#edf4f9"/>
            <rect id="Rectángulo_29039" data-name="Rectángulo 29039" width="31.628" height="1.398" transform="translate(20.771 3.65)" fill="#edf4f9"/>
            <rect id="Rectángulo_29040" data-name="Rectángulo 29040" width="14.482" height="1.398" transform="translate(20.771 6.756)" fill="#edf4f9"/>
            <rect id="Rectángulo_29041" data-name="Rectángulo 29041" width="28.42" height="1.398" transform="translate(20.771 11.259)" fill="#edf4f9"/>
          </g>
          <rect id="Rectángulo_29042" data-name="Rectángulo 29042" width="16.889" height="16.889" rx="2" transform="translate(97.26 68.494)" fill="#edf4f9"/>
          <rect id="Rectángulo_29043" data-name="Rectángulo 29043" width="31.628" height="1.398" transform="translate(118.032 68.952)" fill="#edf4f9"/>
          <rect id="Rectángulo_29044" data-name="Rectángulo 29044" width="31.628" height="1.398" transform="translate(118.032 72.058)" fill="#edf4f9"/>
          <rect id="Rectángulo_29045" data-name="Rectángulo 29045" width="14.482" height="1.398" transform="translate(118.032 75.164)" fill="#edf4f9"/>
          <rect id="Rectángulo_29046" data-name="Rectángulo 29046" width="28.42" height="1.398" transform="translate(118.032 79.668)" fill="#edf4f9"/>
        </g>
        <g id="Grupo_50282" data-name="Grupo 50282" transform="translate(0 134.61)">
          <path id="Trazado_100407" data-name="Trazado 100407" d="M2489.066,2541.621s-5.809,3.364-15.727-1.157a16.3,16.3,0,0,1,9.713-2.672C2488.45,2538.2,2489.066,2541.621,2489.066,2541.621Z" transform="translate(-2453.451 -2440.633)"/>
          <path id="Trazado_100408" data-name="Trazado 100408" d="M2337.051,2516.775s-7.092,3.008-16.188-3.7c0,0,4.779-4.78,9.327-4.78S2337.051,2516.775,2337.051,2516.775Z" transform="translate(-2320.862 -2415.017)"/>
          <g id="Grupo_50277" data-name="Grupo 50277" transform="translate(6.561 96.106)">
            <g id="Grupo_50276" data-name="Grupo 50276" transform="translate(0.196)">
              <path id="Trazado_100409" data-name="Trazado 100409" d="M2380.852,2538.422s1.7-5.319,1.953-6.065-5.6-2.39-5.6-2.39,1.079,5.294.642,7.606-.128,2.9-.128,2.9Z" transform="translate(-2376.611 -2529.967)" fill="#ebc4a1"/>
              <path id="Trazado_100410" data-name="Trazado 100410" d="M2372.924,2590.324a1.507,1.507,0,0,0,.732.488c.333.079,9.855-.249,10.214-.584.039-.036.235.018.277-.027a2.758,2.758,0,0,0,.777-1.289c-.024-.308-7.168-2.416-7.657-3.058a2.972,2.972,0,0,0-3.366-.309,16.138,16.138,0,0,1-1.14,3.552c-.057.114.059.492,0,.6C2372.577,2589.991,2372.681,2590.075,2372.924,2590.324Z" transform="translate(-2372.666 -2577.938)" fill="#12263f"/>
            </g>
            <path id="Trazado_100411" data-name="Trazado 100411" d="M2371.382,2616.77a3.5,3.5,0,0,0,.932.774c.333.078,10.046-.462,10.406-.8.039-.035.081-.078.123-.123-2.5-.177-8.493-.639-11.386-1.1-.057.115-.117.222-.18.326A.757.757,0,0,0,2371.382,2616.77Z" transform="translate(-2371.166 -2604.361)" fill="#e1f0ff"/>
          </g>
          <g id="Grupo_50279" data-name="Grupo 50279" transform="translate(26.202 95.162)">
            <g id="Grupo_50278" data-name="Grupo 50278" transform="translate(0.088)">
              <path id="Trazado_100412" data-name="Trazado 100412" d="M2535.949,2531.535s2.28-5.1,2.619-5.809-5.3-3-5.3-3,.48,5.382-.212,7.631-.452,2.871-.452,2.871Z" transform="translate(-2531.241 -2522.726)" fill="#ebc4a1"/>
              <path id="Trazado_100413" data-name="Trazado 100413" d="M2522.8,2584.052a2.321,2.321,0,0,0,.784.707c.322.115,9.485.7,9.88.412.042-.031.384.086.431.046.393-.33.908-.918.915-1.194.011-.309-6.853-3.2-7.267-3.9a2.972,2.972,0,0,0-3.311-.683,16.129,16.129,0,0,1-1.53,3.4c-.069.107-.141.207-.214.3C2522.281,2583.428,2522.591,2583.778,2522.8,2584.052Z" transform="translate(-2522.422 -2571.814)" fill="#12263f"/>
            </g>
            <path id="Trazado_100414" data-name="Trazado 100414" d="M2521.908,2608.552a3.488,3.488,0,0,0,.839.873c.323.115,10.035.664,10.43.371.043-.031.089-.069.136-.109-2.468-.455-8.369-1.583-11.192-2.369-.069.107-.141.208-.215.3A.755.755,0,0,0,2521.908,2608.552Z" transform="translate(-2521.747 -2596.284)" fill="#e1f0ff"/>
          </g>
          <path id="Trazado_100415" data-name="Trazado 100415" d="M2738.742,1997.847s3.24,6.168-.821,11.461c0,0-2.623-3.957-1.646-6.989S2737.56,1998.412,2738.742,1997.847Z" transform="translate(-2681.901 -1971.148)" fill="#002c3d"/>
          <path id="Trazado_100416" data-name="Trazado 100416" d="M2320.862,2174.162c11.1-1.157,16.188,3.7,16.188,3.7,1.277-2.107,2.759-8.391,4-14.689,1.112-5.63,2.035-11.27,2.458-13.937.162-1.007.249-1.592.249-1.592l1.933,2.579,2.23,2.973c-.156,6.167-7.17,22.74-7.17,22.74,11.409-2.851,15.727,1.157,15.727,1.157,1.268-1.3,3.217-5.807,4.944-10.406,2.048-5.447,3.789-11.027,3.741-11.562-.282-3.278-13.1-21.585-14.492-25.183a39.2,39.2,0,0,1-1.9-6.476c-.11-.144-.225-.281-.336-.417-7.381-8.829-17.651-1.949-17.651-1.949s-.411,18.809-1.232,26.11S2320.862,2174.162,2320.862,2174.162Z" transform="translate(-2320.862 -2076.103)" fill="#12263f"/>
          <path id="Trazado_100417" data-name="Trazado 100417" d="M2458.033,1845.133a4.436,4.436,0,0,1-.912,3.082c-1.113,1.274-.456,2.276-.285,2.41s5.2.249,5.2.249l.255-.6.342-.8-.636-.714a1.488,1.488,0,0,1-.245-.632,6.4,6.4,0,0,1-.094-1.723.008.008,0,0,0,0,.005c.03.024.537.468,1.289,1.127.677.594,1.8-1.964,1.744-3.169a15.918,15.918,0,0,0-.129-1.673,1.425,1.425,0,0,0,1.032-.135.341.341,0,0,0,.17-.435,4.128,4.128,0,0,1-.62-2.863,3.156,3.156,0,0,1,.165-.486c.456-1.059-3.678-2.221-6.5-1.8-1.478.222-2.593.876-2.5,2.207A12.667,12.667,0,0,0,2458.033,1845.133Z" transform="translate(-2438.646 -1831.178)" fill="#ebc4a1"/>
          <path id="Trazado_100418" data-name="Trazado 100418" d="M2320.862,2174.162c11.1-1.157,16.188,3.7,16.188,3.7,1.277-2.107,2.759-8.391,4-14.689a2.593,2.593,0,0,0-.728.632c-.747.975-.975,2.249-1.61,3.3a4.793,4.793,0,0,1-8.281-.153c-1.553-2.781-.062-6.184,1.125-9.137a45.421,45.421,0,0,0,3.256-16.713c.008-3.145-.307-6.329.317-9.414s2.422-6.16,5.364-7.279c2.089-.8,4.374-.492,6.531-.933a8.793,8.793,0,0,0,1.406-.425c-7.381-8.829-17.651-1.949-17.651-1.949s-.411,18.809-1.232,26.11S2320.862,2174.162,2320.862,2174.162Z" transform="translate(-2320.862 -2076.103)" fill="#12263f" opacity="0.3" style="mix-blend-mode: multiply;isolation: isolate"/>
          <path id="Trazado_100419" data-name="Trazado 100419" d="M2394.281,2185.639s-3.237,5.439-11.062,5.36c0,0,.77-3.781,5.742-5.36S2394.281,2185.639,2394.281,2185.639Z" transform="translate(-2375.085 -2133.834)" fill="#002c3d"/>
          <path id="Trazado_100420" data-name="Trazado 100420" d="M2733.125,2015.605c.021.645.163,1.3.246,1.94a2.023,2.023,0,0,0,.266.9,1.49,1.49,0,0,0,1.143.545c.437.027.875-.048,1.31-.045a5.462,5.462,0,0,1,2.668.863c.147.087.293.177.437.27.651.42,1.272.882,1.934,1.277a11.3,11.3,0,0,0,3.475,1.355.312.312,0,0,0,.338-.456.266.266,0,0,0-.083-.093,8.621,8.621,0,0,0-1.868-1.049c.051.018.1.036.149.051q1.6.557,3.2,1.112c.228.081.534.138.675-.06a.392.392,0,0,0-.057-.458,1.121,1.121,0,0,0-.41-.267q-1.381-.634-2.765-1.271l3.352,1.2c.3.105.708.168.849-.111a.438.438,0,0,0-.108-.492,1.288,1.288,0,0,0-.458-.27q-1.615-.67-3.225-1.34c.947.321,1.895.645,2.842.966.3.1.7.186.9-.066a.546.546,0,0,0-.1-.7,1.6,1.6,0,0,0-.683-.336l-4.707-1.433a11.075,11.075,0,0,0,1.805.228,1.118,1.118,0,0,0,.47-.051.4.4,0,0,0,.261-.365c-.012-.219-.249-.345-.45-.429a6.148,6.148,0,0,0-3.564-.675c-.521.114-1,.363-1.523.492a4.969,4.969,0,0,1-3.256-.747c-.143-.075-.281-.138-.411-.195a4.609,4.609,0,0,1-1.007-.555,1.654,1.654,0,0,0-1.1-.44C2733.26,2014.937,2733.113,2015.221,2733.125,2015.605Z" transform="translate(-2679.351 -1985.974)" fill="#ebc4a1"/>
          <path id="Trazado_100421" data-name="Trazado 100421" d="M2733.125,2015.605c.021.645.163,1.3.246,1.94a2.023,2.023,0,0,0,.266.9,1.49,1.49,0,0,0,1.143.545c.437.027.875-.048,1.31-.045a5.462,5.462,0,0,1,2.668.863c.147.087.293.177.437.27a5.136,5.136,0,0,0-1.78-1.508,3.156,3.156,0,0,1-1.619-1.9,3.393,3.393,0,0,1-.015-.776,4.609,4.609,0,0,1-1.007-.555,1.654,1.654,0,0,0-1.1-.44C2733.26,2014.937,2733.113,2015.221,2733.125,2015.605Z" transform="translate(-2679.351 -1985.974)" fill="#1a1a1a" opacity="0.3" style="mix-blend-mode: multiply;isolation: isolate"/>
          <g id="Grupo_50281" data-name="Grupo 50281" transform="translate(11.986 50.149)">
            <g id="Grupo_50280" data-name="Grupo 50280">
              <path id="Trazado_100422" data-name="Trazado 100422" d="M2455.615,2258.849a2.169,2.169,0,0,0,1.914-.479.339.339,0,0,0-.348-.36c-.372-.025-1.4.385-2.158,0v.6Z" transform="translate(-2449.51 -2247.524)" fill="#ebc4a1"/>
              <path id="Trazado_100423" data-name="Trazado 100423" d="M2456.966,2257.521s1.333,1.854,2.007,2.048,1.1.289,1.233.52a1.757,1.757,0,0,1,.145.552.219.219,0,0,1-.245.248,4.59,4.59,0,0,1-1.486-.414s-1.471-.84-1.654-1.255A5.117,5.117,0,0,1,2456.966,2257.521Z" transform="translate(-2451.128 -2247.101)" fill="#ebc4a1"/>
              <path id="Trazado_100424" data-name="Trazado 100424" d="M2462.606,2264.838a2.166,2.166,0,0,0,1.914-.479.338.338,0,0,0-.347-.36c-.372-.025-1.4.385-2.158,0v.6Z" transform="translate(-2455.59 -2252.732)" fill="#ebc4a1"/>
              <path id="Trazado_100425" data-name="Trazado 100425" d="M2412.753,2179.749s2.218,3.538,2.9,5.115a3,3,0,0,1,.183.516,51.634,51.634,0,0,0,3.834,7.744c.27.078.291-.752.291-1.118a12.668,12.668,0,0,0-.531-1.508c-.183-.476-.381-1.016-.56-1.541-.081-.243-.156-.483-.225-.71-.018-.063-.036-.126-.054-.186v0c-.21-.752-.3-1.367-.114-1.562.579-.6,1.523.885,1.6.963a2.127,2.127,0,0,0,1.062.27,10.987,10.987,0,0,0-1.64-2.7,17.908,17.908,0,0,1-1.964-1.426,18.8,18.8,0,0,1-.917-3.871c-.2-1.147-.357-2.1-.357-2.1Z" transform="translate(-2412.753 -2177.629)" fill="#ebc4a1"/>
            </g>
            <path id="Trazado_100426" data-name="Trazado 100426" d="M2412.753,2179.749s2.218,3.538,2.9,5.115a1.947,1.947,0,0,0,.054-.408,7.537,7.537,0,0,0-.277-1.766,2.9,2.9,0,0,1,.069-1.763,3.368,3.368,0,0,1,1.115-1.2c-.2-1.147-.357-2.1-.357-2.1Z" transform="translate(-2412.753 -2177.629)" fill="#1a1a1a" opacity="0.3" style="mix-blend-mode: multiply;isolation: isolate"/>
          </g>
          <path id="Trazado_100427" data-name="Trazado 100427" d="M2356.362,1948.2c.387,2,3.895,8.286,3.355,15.688,0,0,4.626-5.822,11.063-5.36l-1.7-4.251-.944-2.35a20.018,20.018,0,0,1,11.356,2.158,6.233,6.233,0,0,1-.579-3.31,11.4,11.4,0,0,1,.168-1.472c.24-1.352.564-3.579.855-5.786.389-2.989.719-5.942.689-6.65v-.012c0-.357.819-.039,1.964.576,2.645,1.433,7.03,4.473,7.03,4.473s18.039,3.133,17.988,2.98-1.439-8.892.822-11.461c0,0-2.09-.282-4.983-.576a110.443,110.443,0,0,0-11.053-.656s-10.945-5.244-13.362-6.065-3.289-1.826-4.086-1.826c0,0-.18,1.055-.794.95s-3.652-1.463-4.087-1.49a.291.291,0,0,0-.228.054,3.049,3.049,0,0,1-1.081.923c-1.209.693-2.339.618-3.6,1.7s-4.832,6.784-8.79,20.659C2356.362,1947.094,2355.978,1946.194,2356.362,1948.2Z" transform="translate(-2351.583 -1906.724)" fill="#dee7f3"/>
          <path id="Trazado_100428" data-name="Trazado 100428" d="M2433.16,2007.481a46.4,46.4,0,0,0,1.9,5.192,20.017,20.017,0,0,1,11.356,2.158,6.242,6.242,0,0,1-.578-3.31,31.04,31.04,0,0,0-7.179-1.61c-3.34-.444-2.71.036-2.981-2.944-.266-2.923,1.571-12.975,1.64-13.35C2437.176,1994.056,2433.105,2006.722,2433.16,2007.481Z" transform="translate(-2418.512 -1967.47)" fill="#1a1a1a" opacity="0.3" style="mix-blend-mode: multiply;isolation: isolate"/>
          <path id="Trazado_100429" data-name="Trazado 100429" d="M2489.753,1905.189a6.413,6.413,0,0,1-.093-1.724l-1.152-.957A6.523,6.523,0,0,0,2489.753,1905.189Z" transform="translate(-2466.642 -1888.245)" fill="#1a1a1a" opacity="0.3" style="mix-blend-mode: multiply;isolation: isolate"/>
          <path id="Trazado_100430" data-name="Trazado 100430" d="M2454.477,1839.861a2.187,2.187,0,0,1,1.4.14c-.26-.36-.461-.63-.461-.63s1.166-1.964,1.5-2.4c2.821-.419,6.955.743,6.5,1.8a3.16,3.16,0,0,0-.165.486,3.608,3.608,0,0,1-2.032.267c-2.911-.309-3.7-.809-3.777.4a6.218,6.218,0,0,0,.711,2.83l.042.081a4.652,4.652,0,0,1-1-.827c-.531-.4-1.117-.768-1.323-.619-.411.3.27,1.542.54,1.683s-.115,2.056-.115,2.056-1.118-1.4-1.144-1.465S2453.4,1840.2,2454.477,1839.861Z" transform="translate(-2436.743 -1831.178)" fill="#1a1a1a" opacity="0.3" style="mix-blend-mode: multiply;isolation: isolate"/>
          <path id="Trazado_100431" data-name="Trazado 100431" d="M2443,1800.861c-.051,3.906,3.625,6.244,3.625,6.244l-.27-1.481-.039-.216c-.875-.333-1.337-2.185-.516-2.569.735-.345,1.377.6,1.505.809-.144-.276-.95-1.913.012-2.995,1.055-1.181,2.39.386,6.122.363s1.461-6.041,1.461-6.041c-.848,1.337-2.725.641-2.725.641a3.655,3.655,0,0,0,.771-2.467,3.877,3.877,0,0,1-.225.336,5.577,5.577,0,0,1-4.347,2.44C2445.362,1795.953,2443.047,1796.955,2443,1800.861Z" transform="translate(-2427.065 -1793.15)" fill="#1a1a1a"/>
          <path id="Trazado_100432" data-name="Trazado 100432" d="M2356.362,1948.568c.387,2,3.895,8.286,3.355,15.688,0,0,4.626-5.822,11.063-5.36l-1.7-4.251a.493.493,0,0,0-.3.243c-1.08,2.006-6.86,1.814-7.054.231s-2.12-5.358-2.5-7.708,2.158-7.633,2.851-10.6,2.776-8.169,5.357-9.866,2.407-2.761,2.407-2.761a3.053,3.053,0,0,1-1.081.923c-1.209.693-2.339.618-3.6,1.7s-4.832,6.784-8.79,20.659C2356.362,1947.462,2355.978,1946.563,2356.362,1948.568Z" transform="translate(-2351.583 -1907.092)" fill="#1a1a1a" opacity="0.3" style="mix-blend-mode: multiply;isolation: isolate"/>
          <path id="Trazado_100433" data-name="Trazado 100433" d="M2534,1961.816c1.841,2.168,5.528,6.3,8.058,7.831,3.5,2.108,4.56,2.108,7.522,2.261,2.806.146,8.955-1,7.489-7.153,2.893.294,4.983.576,4.983.576-2.26,2.569-.875,11.308-.822,11.461s-17.988-2.979-17.988-2.979-4.386-3.041-7.03-4.473c-1.146-.614-1.964-.932-1.964-.575-.006-.287-.145-5.549-1.382-8.3a.009.009,0,0,1,0-.006A4.9,4.9,0,0,1,2534,1961.816Z" transform="translate(-2505.215 -1938.63)" fill="#1a1a1a" opacity="0.3" style="mix-blend-mode: multiply;isolation: isolate"/>
          <path id="Trazado_100434" data-name="Trazado 100434" d="M2460.767,1923.815s5.187,3.673,5.6,2.605a2.349,2.349,0,0,0-.489-2.12s-.18,1.055-.8.95-3.651-1.463-4.086-1.49A.292.292,0,0,0,2460.767,1923.815Z" transform="translate(-2442.519 -1906.724)" fill="#1a1a1a" opacity="0.3" style="mix-blend-mode: multiply;isolation: isolate"/>
          <path id="Trazado_100435" data-name="Trazado 100435" d="M2473.34,2271.82c11.41-2.85,15.727,1.158,15.727,1.158,1.268-1.3,3.217-5.808,4.944-10.406a.935.935,0,0,0-.108-.061c-1.262-.62-2.763.111-3.889.953s-2.284,1.874-3.689,1.883a8.972,8.972,0,0,1-2.687-.72,2.711,2.711,0,0,0-2.647.282,48.819,48.819,0,0,0,3.627-7.378,16.291,16.291,0,0,0,.957-8.086,26.014,26.014,0,0,0-3.961-10.31c-2.1-3.175-3.913-5.921-5.036-10.322-.183,4.566.681,9.108-.225,13.62a13.635,13.635,0,0,0-.254,2.686c.161-1.007.249-1.593.249-1.593l1.933,2.579,2.231,2.974C2480.354,2255.248,2473.34,2271.82,2473.34,2271.82Z" transform="translate(-2453.451 -2171.99)" fill="#1a1a1a" opacity="0.3" style="mix-blend-mode: multiply;isolation: isolate"/>
          <path id="Trazado_100436" data-name="Trazado 100436" d="M2443,1803.1c-.051,3.906,3.625,6.245,3.625,6.245l-.27-1.481c-.141-.078-.279-.162-.411-.249a4.364,4.364,0,0,1-1.687-4.425,5.61,5.61,0,0,1,3.043-3.78,35.828,35.828,0,0,0,3.606-1.517,4.93,4.93,0,0,0,1.478-1.508,4.8,4.8,0,0,0,.336-.66,5.578,5.578,0,0,1-4.347,2.44C2445.362,1798.191,2443.047,1799.193,2443,1803.1Z" transform="translate(-2427.065 -1795.388)" fill="#1a1a1a" opacity="0.3" style="mix-blend-mode: multiply;isolation: isolate"/>
        </g>
        <g id="Grupo_50284" data-name="Grupo 50284" transform="translate(18.801 47.822)">
          <path id="Trazado_100437" data-name="Trazado 100437" d="M2529.84,1127.775h-59.715c-2.824,0-5.114,2.753-5.114,6.149v44.443c0,3.4,2.29,6.149,5.114,6.149h59.715c2.824,0,5.114-2.753,5.114-6.149v-44.443C2534.954,1130.528,2532.664,1127.775,2529.84,1127.775Z" transform="translate(-2465.01 -1127.775)" fill="#d7e9f9"/>
          <path id="Trazado_100438" data-name="Trazado 100438" d="M2534.95,1133.927v2.437h-69.944v-2.437c0-3.4,2.29-6.148,5.114-6.148h59.715C2532.66,1127.778,2534.95,1130.531,2534.95,1133.927Z" transform="translate(-2465.006 -1127.778)" fill="#26aab7"/>
          <g id="Grupo_50283" data-name="Grupo 50283" transform="translate(10.577 19.072)">
            <rect id="Rectángulo_29047" data-name="Rectángulo 29047" width="8.597" height="16.747" rx="2" transform="translate(0 12.699)" fill="#f5ca56"/>
            <rect id="Rectángulo_29048" data-name="Rectángulo 29048" width="8.597" height="20.849" rx="2" transform="translate(13.398 8.597)" fill="#f5ca56"/>
            <rect id="Rectángulo_29049" data-name="Rectángulo 29049" width="8.597" height="24.98" rx="2" transform="translate(26.795 4.466)" fill="#dbdada"/>
            <rect id="Rectángulo_29050" data-name="Rectángulo 29050" width="8.597" height="29.446" rx="2" transform="translate(40.193)" fill="#dbdada"/>
          </g>
          <circle id="Elipse_4018" data-name="Elipse 4018" cx="1.673" cy="1.673" r="1.673" transform="translate(3.439 2.996)" fill="#d8e5ed"/>
          <circle id="Elipse_4019" data-name="Elipse 4019" cx="1.673" cy="1.673" r="1.673" transform="translate(7.996 2.996)" fill="#d8e5ed"/>
          <circle id="Elipse_4020" data-name="Elipse 4020" cx="1.673" cy="1.673" r="1.673" transform="translate(12.553 2.996)" fill="#d8e5ed"/>
        </g>
        <path id="Trazado_100439" data-name="Trazado 100439" d="M3373.389,1875.174v2.2a7.3,7.3,0,0,1-7.294,7.294h-62.94a20.46,20.46,0,0,1-1.733-2.929q-.337-.694-.62-1.416a20.329,20.329,0,0,1-1.408-6.918c0-.187-.008-.375-.008-.564V1773H3346.4a8.045,8.045,0,0,1,8.045,8.044V1873.4h17.172A1.771,1.771,0,0,1,3373.389,1875.174Z" transform="translate(-3171.751 -1641.019)" opacity="0.05" style="mix-blend-mode: multiply;isolation: isolate"/>
        <g id="Grupo_50287" data-name="Grupo 50287" transform="translate(136.287 17.977)">
          <g id="Grupo_50285" data-name="Grupo 50285">
            <path id="Trazado_100440" data-name="Trazado 100440" d="M3823.851,946.505q-.235-.607-.451-1.221a37.136,37.136,0,0,1,.6-26.026,14.005,14.005,0,1,0-25.022,0,37.115,37.115,0,0,1,.594,26.026q-.212.613-.45,1.221-.364.938-.782,1.86l-.852,1.884h28l-.855-1.884Q3824.217,947.444,3823.851,946.505Zm-12.366-39.563a6.228,6.228,0,1,1-6.227,6.229A6.229,6.229,0,0,1,3811.485,906.942Z" transform="translate(-3741.17 -898.965)" fill="#12263f"/>
            <path id="Trazado_100441" data-name="Trazado 100441" d="M3825.486,1182.775h-28l.853-1.885a37.069,37.069,0,0,0,3.293-14.522h19.71a37.056,37.056,0,0,0,3.292,14.522Z" transform="translate(-3741.168 -1131.49)" fill="#1a1a1a" opacity="0.2" style="mix-blend-mode: multiply;isolation: isolate"/>
            <path id="Trazado_100442" data-name="Trazado 100442" d="M3506.364,1226.733v160.809a11.84,11.84,0,0,1-11.826,11.827h-116.98a11.84,11.84,0,0,1-11.826-11.827V1226.733a11.839,11.839,0,0,1,11.826-11.826h116.98A11.839,11.839,0,0,1,3506.364,1226.733Z" transform="translate(-3365.732 -1173.697)" fill="#12263f"/>
            <rect id="Rectángulo_29051" data-name="Rectángulo 29051" width="127.97" height="171.799" rx="2" transform="translate(6.332 47.541)" fill="#fff"/>
            <path id="Trazado_100443" data-name="Trazado 100443" d="M3715.68,1263.3l-4.384-7.359a3.817,3.817,0,0,0-3.273-1.86h-50.167a3.8,3.8,0,0,0-2.794,1.221,3.682,3.682,0,0,0-.479.639l-4.384,7.359a3.81,3.81,0,0,0,3.273,5.76h58.935A3.81,3.81,0,0,0,3715.68,1263.3Zm-16.48,1.039h-32.521a1.384,1.384,0,0,1,0-2.768H3699.2a1.384,1.384,0,1,1,0,2.768Z" transform="translate(-3612.623 -1207.762)" fill="#12263f"/>
          </g>
          <g id="Grupo_50286" data-name="Grupo 50286" transform="translate(18.747 73.758)">
            <rect id="Rectángulo_29052" data-name="Rectángulo 29052" width="22.853" height="22.853" rx="2" fill="#dee7f3"/>
            <rect id="Rectángulo_29053" data-name="Rectángulo 29053" width="22.853" height="22.853" rx="2" transform="translate(0 45.288)" fill="#dee7f3"/>
            <rect id="Rectángulo_29054" data-name="Rectángulo 29054" width="22.853" height="22.853" rx="2" transform="translate(0 90.575)" fill="#dee7f3"/>
          </g>
          <rect id="Rectángulo_29055" data-name="Rectángulo 29055" width="71.197" height="1.851" transform="translate(49.664 77.768)" fill="#edf4f9"/>
          <rect id="Rectángulo_29056" data-name="Rectángulo 29056" width="71.197" height="1.851" transform="translate(49.664 84.259)" fill="#edf4f9"/>
          <rect id="Rectángulo_29057" data-name="Rectángulo 29057" width="71.197" height="1.851" transform="translate(49.664 90.751)" fill="#edf4f9"/>
          <rect id="Rectángulo_29058" data-name="Rectángulo 29058" width="71.197" height="1.851" transform="translate(49.664 123.055)" fill="#edf4f9"/>
          <rect id="Rectángulo_29059" data-name="Rectángulo 29059" width="71.197" height="1.851" transform="translate(49.664 129.547)" fill="#edf4f9"/>
          <rect id="Rectángulo_29060" data-name="Rectángulo 29060" width="71.197" height="1.851" transform="translate(49.664 136.038)" fill="#edf4f9"/>
          <rect id="Rectángulo_29061" data-name="Rectángulo 29061" width="71.197" height="1.851" transform="translate(49.664 168.343)" fill="#edf4f9"/>
          <rect id="Rectángulo_29062" data-name="Rectángulo 29062" width="71.197" height="1.851" transform="translate(49.664 174.834)" fill="#edf4f9"/>
          <rect id="Rectángulo_29063" data-name="Rectángulo 29063" width="71.197" height="1.851" transform="translate(49.664 181.326)" fill="#edf4f9"/>
        </g>
        <g id="Grupo_50292" data-name="Grupo 50292" transform="translate(114.741 0)">
          <g id="Grupo_50288" data-name="Grupo 50288" transform="translate(36.36)">
            <path id="Trazado_100444" data-name="Trazado 100444" d="M3512.373,816.122c-.166.19-5.818,1.474-5.818,1.474l-.425-.622-.572-.828.555-.952a1.74,1.74,0,0,0,.131-.769,5.039,5.039,0,0,0-.024-.553,8.993,8.993,0,0,0-.267-1.411s0,0,0,0c-.029.034-.5.652-1.2,1.569-.63.824-2.479-1.8-2.7-3.177a18.024,18.024,0,0,1-.239-1.918,1.642,1.642,0,0,1-1.195.085.4.4,0,0,1-.293-.452,4.756,4.756,0,0,0,.044-3.374,3.749,3.749,0,0,0-.3-.51c-.757-1.089,3.641-3.351,6.922-3.526,1.719-.089,3.129.393,3.329,1.916a14.578,14.578,0,0,1-.569,7.118,5.107,5.107,0,0,0,1.737,3.269C3513.045,814.647,3512.534,815.929,3512.373,816.122Z" transform="translate(-3497.295 -795.932)" fill="#ebc4a1"/>
            <path id="Trazado_100445" data-name="Trazado 100445" d="M3510.415,803.93a2.517,2.517,0,0,0-1.55.479c.211-.467.376-.816.376-.816s-1.767-1.949-2.244-2.367c-3.281.174-7.68,2.436-6.923,3.526a3.658,3.658,0,0,1,.3.51,4.158,4.158,0,0,0,2.355-.165c3.216-1.017,3.99-1.763,4.357-.41a7.146,7.146,0,0,1-.152,3.358l-.028.1a5.354,5.354,0,0,0,.935-1.162c.507-.575,1.083-1.123,1.351-1,.531.239.049,1.8-.223,2.024s.6,2.294.6,2.294.941-1.838.955-1.916S3511.707,804.07,3510.415,803.93Z" transform="translate(-3497.292 -795.997)" fill="#1a1a1a" opacity="0.3" style="mix-blend-mode: multiply;isolation: isolate"/>
            <path id="Trazado_100446" data-name="Trazado 100446" d="M3494.247,767.559c.954,4.4-2.658,7.881-2.658,7.881l-.036-1.734-.005-.253c.912-.577,1.007-2.774-.008-3.019-.907-.221-1.415.993-1.512,1.259.1-.344.634-2.377-.7-3.378-1.463-1.091-2.608.985-6.826,1.815s-3.035-6.484-3.035-6.484c1.265,1.315,3.223.1,3.223.1a4.2,4.2,0,0,1-1.436-2.608,4.449,4.449,0,0,0,.331.327,6.424,6.424,0,0,0,5.467,1.757C3490.449,762.562,3493.293,763.161,3494.247,767.559Z" transform="translate(-3479.312 -761.138)" fill="#1a1a1a"/>
            <path id="Trazado_100447" data-name="Trazado 100447" d="M3509.387,769.741c.954,4.4-2.658,7.881-2.658,7.881l-.035-1.734c.141-.12.277-.247.406-.375a5.028,5.028,0,0,0,.89-5.382,6.467,6.467,0,0,0-4.3-3.569c-1.453-.388-3.015-.338-4.419-.884a5.675,5.675,0,0,1-2.014-1.363,5.579,5.579,0,0,1-.531-.667,6.428,6.428,0,0,0,5.468,1.757C3505.59,764.744,3508.432,765.343,3509.387,769.741Z" transform="translate(-3494.451 -763.32)" fill="#1a1a1a" opacity="0.3" style="mix-blend-mode: multiply;isolation: isolate"/>
            <path id="Trazado_100448" data-name="Trazado 100448" d="M3546.811,874.079a7.868,7.868,0,0,1-.85,3.208,9.029,9.029,0,0,0-.268-1.411v0Z" transform="translate(-3537.035 -859.348)" fill="#1a1a1a" opacity="0.3" style="mix-blend-mode: multiply;isolation: isolate"/>
          </g>
          <path id="Trazado_100449" data-name="Trazado 100449" d="M3355.7,1069.557s-1.025,2.381-.393,2.381,1.9-2.792,2.5-3.023l.181-.08-.075-.708-1.01-.121Z" transform="translate(-3334.944 -1027.979)" fill="#ebc4a1"/>
          <path id="Trazado_100450" data-name="Trazado 100450" d="M3335.013,1029.925l-1.537,1.016s-.38.07-.873.19a5.981,5.981,0,0,0-2.159.8,4.058,4.058,0,0,1-2.6,1.244c-.858-.092-.249-1.178-.045-1.126s1.787-1.135,1.63-1.972-2.824-.318-2.8,1.56c.181,2.789-.813,2.282-.813,2.282-.679-.067-.385-3.823-.385-4.115s1.9-1.606,2.013-1.673a10.2,10.2,0,0,1,2.806.392,5.836,5.836,0,0,0,1.928.1c.534-.038.949-.1.949-.1l.851-.027Z" transform="translate(-3309.083 -993.297)" fill="#ebc4a1"/>
          <path id="Trazado_100451" data-name="Trazado 100451" d="M3380.408,1032.461l-1.538,1.016s-.379.07-.872.189a3.26,3.26,0,0,0-.431-2.5c.534-.038.949-.1.949-.1l.852-.028Z" transform="translate(-3354.479 -995.832)" fill="#1a1a1a" opacity="0.2"/>
          <path id="Trazado_100452" data-name="Trazado 100452" d="M3406.165,927.858l-2.176,6.646a56.475,56.475,0,0,1-9.9.492c-3.974-.3-9.063-.982-9.51-1.042a.205.205,0,0,0-.031,0,2.463,2.463,0,0,0-.453-2.532c1.087-.376,4.16-.47,7.157-.465h0c3.506.009,6.9.154,6.9.154a57.873,57.873,0,0,1,1.85-7.265,60.084,60.084,0,0,1,2.828-7.261h1.388Z" transform="translate(-3360.153 -896.306)" fill="#5b7393"/>
          <path id="Trazado_100453" data-name="Trazado 100453" d="M3386.157,1369.424l.933,4.369,3.464-.148-.589-5.476Z" transform="translate(-3361.948 -1288.991)" fill="#ebc4a1"/>
          <g id="Grupo_50289" data-name="Grupo 50289" transform="translate(15 83.458)">
            <path id="Trazado_100454" data-name="Trazado 100454" d="M3330.611,1427.543a1.878,1.878,0,0,1-.609,1.512c-1.478,1.174-14.5.278-14.455-.534a1.309,1.309,0,0,1,.616-1.082C3319.621,1428.108,3325.617,1428.881,3330.611,1427.543Z" transform="translate(-3315.548 -1423.989)" fill="#e1e1e1"/>
            <path id="Trazado_100455" data-name="Trazado 100455" d="M3334.719,1404.544c-5,1.338-10.991.565-14.448-.1l.035-.018a34.72,34.72,0,0,1,8.678-3.432s1.392,1.418,4.948.333A8.75,8.75,0,0,1,3334.719,1404.544Z" transform="translate(-3319.656 -1400.989)" fill="#5b7393"/>
          </g>
          <path id="Trazado_100456" data-name="Trazado 100456" d="M3354.229,1222.551a3.238,3.238,0,0,0-.84-.429,4.482,4.482,0,0,0-1.132-.261,6.241,6.241,0,0,0-2.589.284,9.487,9.487,0,0,0-1.048.4s-1.036-3.124-2.163-7.042a78.617,78.617,0,0,1-2.77-12.374,10.872,10.872,0,0,1,3.428-4.44,11.267,11.267,0,0,1,6.039-2.277s.3,3.247.609,7.545C3354.2,1210.16,3354.657,1218.549,3354.229,1222.551Z" transform="translate(-3325.017 -1139.64)" fill="#12263f"/>
          <path id="Trazado_100457" data-name="Trazado 100457" d="M3377.079,1222.551a3.239,3.239,0,0,0-.84-.429,4.486,4.486,0,0,0-1.133-.261c-.127-5.715-3.161-16.609-5.142-23.168a11.267,11.267,0,0,1,6.04-2.277s.3,3.247.609,7.545C3377.053,1210.16,3377.506,1218.549,3377.079,1222.551Z" transform="translate(-3347.867 -1139.64)" fill="#12263f" opacity="0.2" style="mix-blend-mode: multiply;isolation: isolate"/>
          <g id="Grupo_50290" data-name="Grupo 50290" transform="translate(0 46.566)">
            <path id="Trazado_100458" data-name="Trazado 100458" d="M3264.395,1360.952l-2.467,3.725,2.531,2.37,3.5-4.254Z" transform="translate(-3253.922 -1329.282)" fill="#ebc4a1"/>
            <path id="Trazado_100459" data-name="Trazado 100459" d="M3210.632,1365.21a1.619,1.619,0,0,1-1.274.593c-1.621-.131-9.289-8.363-8.783-8.849a1.129,1.129,0,0,1,1.026-.319C3203.381,1359.093,3206.7,1363.111,3210.632,1365.21Z" transform="translate(-3200.55 -1325.509)" fill="#e1e1e1"/>
            <path id="Trazado_100460" data-name="Trazado 100460" d="M3217.627,1365.359c-3.932-2.1-7.251-6.118-9.032-8.576l.032.01a29.925,29.925,0,0,1,7.483,2.95s.042,1.713,2.919,3.124A7.559,7.559,0,0,1,3217.627,1365.359Z" transform="translate(-3207.546 -1325.657)" fill="#5b7393"/>
            <path id="Trazado_100461" data-name="Trazado 100461" d="M3308.322,1131.261c-13.928,2.614-21.433,1.89-21.433,1.89s-4.528,12.026-13.215,20.7a1.965,1.965,0,0,0-.056-.232,2.851,2.851,0,0,0-3.052-2.136,2.525,2.525,0,0,0-.274.017s3.667-19.352,10.18-25.318c0,0,14.108-4.517,22.43-5.688,4.055-.575,7.316-1.147,9.591-1.578,2.4-.459,3.7-.769,3.7-.769S3322.25,1128.643,3308.322,1131.261Z" transform="translate(-3261.194 -1118.149)" fill="#12263f"/>
          </g>
          <path id="Trazado_100462" data-name="Trazado 100462" d="M3409.181,927.858,3407,934.5a56.46,56.46,0,0,1-9.9.492c-4.16-.318-9.541-1.045-9.541-1.045,3.061-1.69,14.018-1.688,14.018-1.688s.182-1.123.635-2.937a37.359,37.359,0,0,0,.809-5.482,60.31,60.31,0,0,1,2.828-7.261h1.389Z" transform="translate(-3363.171 -896.306)" fill="#1a1a1a" opacity="0.2"/>
          <path id="Trazado_100463" data-name="Trazado 100463" d="M3330.87,1131.261c-13.928,2.614-21.434,1.89-21.434,1.89s-4.528,12.026-13.215,20.7q.517-.76,1-1.523c.155-.243.306-.481.453-.724a70.788,70.788,0,0,0,8.608-20.87s23.8-.169,28.142-3.786c2.621-2.183,1.729-5.637.612-8.032,2.4-.459,3.7-.769,3.7-.769S3344.8,1128.643,3330.87,1131.261Z" transform="translate(-3283.743 -1071.583)" fill="#1a1a1a" opacity="0.2" style="mix-blend-mode: multiply;isolation: isolate"/>
          <path id="Trazado_100464" data-name="Trazado 100464" d="M3519.409,917.53a17.235,17.235,0,0,1-10.612,1.954c-1.128.073-2.125.238-3.035.375a8.616,8.616,0,0,1-3.479.044c-1.807-.483-1.927-.3-1.567-2.9.225-1.6.751-5.359,1.178-9.087.261-2.293.483-4.575.579-6.344.241-4.642,1.088-11.036,1.631-11.7s1.886-2.412,2.572-2.411c0,0,1.149,3.023,4.274-1.594,0,0,2.393.982,2.875,2.125s1.857,3.633,1.856,5.079S3514.528,907.94,3519.409,917.53Z" transform="translate(-3461.423 -869.604)" fill="#5b7393"/>
          <path id="Trazado_100465" data-name="Trazado 100465" d="M3337.835,1111.035l-13.785-4.494a.945.945,0,0,0-1.2,1.154l2.14,7.6a.944.944,0,0,0,1.152.656l11.646-3.108A.944.944,0,0,0,3337.835,1111.035Z" transform="translate(-3306.865 -1061.447)" fill="#1a1a1a"/>
          <path id="Trazado_100466" data-name="Trazado 100466" d="M3337.787,1112.847l-11.646,3.108a.944.944,0,0,1-1.153-.657l-2.138-7.6a.943.943,0,0,1,1.073-1.185,7.235,7.235,0,0,0,12.465,4.054l1.448.472A.944.944,0,0,1,3337.787,1112.847Z" transform="translate(-3306.866 -1061.449)" fill="#1a1a1a" opacity="0.2"/>
          <g id="Grupo_50291" data-name="Grupo 50291" transform="translate(10.234 26.433)">
            <path id="Trazado_100467" data-name="Trazado 100467" d="M3280.537,963.98a.253.253,0,0,0-.306-.178l-1.026.26a.251.251,0,0,0-.18.31l4.682,17.26,1.514-.383Z" transform="translate(-3279.015 -963.795)" fill="#1a1a1a"/>
            <path id="Trazado_100468" data-name="Trazado 100468" d="M3326.807,1096.264l-20.813-6.768a.225.225,0,0,1-.145-.285l.363-1.118a.226.226,0,0,1,.284-.145l20.813,6.768a.226.226,0,0,1,.145.285l-.363,1.118A.226.226,0,0,1,3326.807,1096.264Z" transform="translate(-3302.339 -1071.745)" fill="#1a1a1a"/>
            <rect id="Rectángulo_29064" data-name="Rectángulo 29064" width="11.063" height="0.399" transform="translate(5.453 17.29) rotate(18.013)" fill="#e1e1e1"/>
            <rect id="Rectángulo_29065" data-name="Rectángulo 29065" width="1.115" height="0.399" transform="translate(17.264 21.131) rotate(18.013)" fill="#e1e1e1"/>
            <rect id="Rectángulo_29066" data-name="Rectángulo 29066" width="1.115" height="0.399" transform="matrix(0.951, 0.309, -0.309, 0.951, 18.784, 21.625)" fill="#e1e1e1"/>
            <path id="Trazado_100469" data-name="Trazado 100469" d="M3312.447,1094.425a.181.181,0,1,1-.116-.228A.181.181,0,0,1,3312.447,1094.425Z" transform="translate(-3307.78 -1077.18)" fill="#e1e1e1"/>
          </g>
          <path id="Trazado_100470" data-name="Trazado 100470" d="M3337.363,1052.814s-1.522,1.009-1.6,1.142a2.768,2.768,0,0,1-.679.267c-.425.133-1,.288-1.562.418-.032.007-.06.018-.084.021s-.052.011-.078.018l-.025,0a11.711,11.711,0,0,1-1.167.207c-1.221.137-2.2,1.336-2.645,1.571a1.449,1.449,0,0,1-1.267.084c-.243-.091.912-1.037,1.886-1.793a10.424,10.424,0,0,1-2.979,1.652.812.812,0,0,1-.384,0c-.991-.324,1.3-1.828,2.787-2.978a25.031,25.031,0,0,1,5.076-2.393c.384-.144.623-.229.623-.229l1.857.588Z" transform="translate(-3310.101 -1013.019)" fill="#ebc4a1"/>
          <path id="Trazado_100471" data-name="Trazado 100471" d="M3383.925,1052.814s-1.523,1.009-1.6,1.142a2.753,2.753,0,0,1-.679.267c-.425.133-1,.288-1.562.418a2.416,2.416,0,0,0,1.488-1.716,1.936,1.936,0,0,0-.368-1.9c.384-.144.623-.229.623-.229l1.857.588Z" transform="translate(-3356.664 -1013.019)" fill="#1a1a1a" opacity="0.2"/>
          <path id="Trazado_100472" data-name="Trazado 100472" d="M3513.536,932.991c-2.5,8.8-6.765,11.912-7.469,14.7a19.979,19.979,0,0,0-.3,4.667,8.616,8.616,0,0,1-3.479.044c-1.807-.483-1.927-.3-1.567-2.9.225-1.6.751-5.36,1.178-9.088a4.791,4.791,0,0,0,.454-.562c.845-1.322,4.981-9.881,5.087-10.908s.828-3.858.828-3.858l4.988-1.844S3516.044,924.189,3513.536,932.991Z" transform="translate(-3461.423 -902.101)" fill="#1a1a1a" opacity="0.2"/>
          <path id="Trazado_100473" data-name="Trazado 100473" d="M3420.791,919.712a19.412,19.412,0,0,1-.715,2.275c-2.5,6.692-8.954,16.1-8.954,16.1-5.744.131-17.183-2.6-17.183-2.6a2.241,2.241,0,0,0-.322-3,2.069,2.069,0,0,0-.176-.155,7.271,7.271,0,0,1,2.1-.565c4.218-.638,11.874-.181,11.874-.181s4.387-11.034,5.517-14.53S3422.36,913.143,3420.791,919.712Z" transform="translate(-3368.281 -894.551)" fill="#5b7393"/>
        </g>
        <path id="Trazado_100474" data-name="Trazado 100474" d="M4084.016,1666.587v113.72a11.841,11.841,0,0,1-11.827,11.827h-39.851a17.238,17.238,0,0,1-2.309-8.619V1683.86a17.294,17.294,0,0,1,17.274-17.273Z" transform="translate(-3807.095 -1548.486)" opacity="0.05" style="mix-blend-mode: multiply;isolation: isolate"/>
        <g id="Grupo_50293" data-name="Grupo 50293" transform="translate(250.509 44.545)">
          <path id="Trazado_100475" data-name="Trazado 100475" d="M5056.779,1904.575l39.855,39.855c4.535,4.534,3.9,12.524-1.425,17.846h0c-5.322,5.322-13.311,5.96-17.847,1.426l-39.854-39.855Z" transform="translate(-4933.673 -1799.977)" fill="#00223d"/>
          <rect id="Rectángulo_29067" data-name="Rectángulo 29067" width="19.441" height="21.18" transform="translate(88.184 102.695) rotate(-45)" fill="#12263f"/>
          <path id="Trazado_100476" data-name="Trazado 100476" d="M4931.267,1784.588l6.913,6.913a64.4,64.4,0,0,1-13.865,13.629l-6.794-6.8Z" transform="translate(-4829.337 -1695.64)" fill="#1a1a1a" opacity="0.2" style="mix-blend-mode: multiply;isolation: isolate"/>
          <circle id="Elipse_4021" data-name="Elipse 4021" cx="57.782" cy="57.782" r="57.782" fill="#12263f"/>
          <circle id="Elipse_4022" data-name="Elipse 4022" cx="47.743" cy="47.743" r="47.743" transform="translate(10.039 10.039)" fill="#fff" style="mix-blend-mode: screen;isolation: isolate"/>
          <path id="Trazado_100477" data-name="Trazado 100477" d="M4442.746,1256.216a47.751,47.751,0,0,1-91.158,19.892,47.765,47.765,0,0,0,63.307-63.306A47.749,47.749,0,0,1,4442.746,1256.216Z" transform="translate(-4337.222 -1198.434)" fill="#1a1a1a" opacity="0.2" style="mix-blend-mode: multiply;isolation: isolate"/>
          <rect id="Rectángulo_29068" data-name="Rectángulo 29068" width="27.255" height="7.223" transform="translate(103.834 123.871) rotate(-45)" fill="#1a1a1a" opacity="0.2" style="mix-blend-mode: multiply;isolation: isolate"/>
          <path id="Trazado_100478" data-name="Trazado 100478" d="M5012.437,1858.869,4991.8,1879.5a2.285,2.285,0,0,1-3.231,0l-3.929-3.929a2.287,2.287,0,0,1,0-3.232l20.634-20.634a2.285,2.285,0,0,1,3.232,0l3.929,3.928A2.284,2.284,0,0,1,5012.437,1858.869Z" transform="translate(-4887.121 -1753.424)" fill="#d8e5ed"/>
        </g>
        <g id="Grupo_50294" data-name="Grupo 50294" transform="translate(231.588 126.756)">
          <rect id="Rectángulo_29069" data-name="Rectángulo 29069" width="69.759" height="116.893" rx="2" fill="#12263f"/>
          <rect id="Rectángulo_29070" data-name="Rectángulo 29070" width="63.72" height="110.854" rx="2" transform="translate(3.02 3.02)" fill="#fff"/>
          <path id="Trazado_100479" data-name="Trazado 100479" d="M4231.006,1745.256h-19.917l5.393,5.393a2.466,2.466,0,0,0,1.743.723h25.562a2.465,2.465,0,0,0,1.743-.723l5.393-5.393Z" transform="translate(-4196.127 -1743.649)" fill="#12263f"/>
          <rect id="Rectángulo_29071" data-name="Rectángulo 29071" width="58.825" height="39.718" rx="2" transform="translate(5.467 13.138)" fill="#edf4f9"/>
          <rect id="Rectángulo_29072" data-name="Rectángulo 29072" width="16.889" height="16.889" rx="2" transform="translate(7.222 67.143)" fill="#edf4f9"/>
          <rect id="Rectángulo_29073" data-name="Rectángulo 29073" width="16.889" height="16.889" rx="2" transform="translate(7.222 88.66)" fill="#edf4f9"/>
          <rect id="Rectángulo_29074" data-name="Rectángulo 29074" width="31.628" height="1.398" transform="translate(27.993 67.687)" fill="#edf4f9"/>
          <rect id="Rectángulo_29075" data-name="Rectángulo 29075" width="31.628" height="1.398" transform="translate(27.993 70.793)" fill="#edf4f9"/>
          <rect id="Rectángulo_29076" data-name="Rectángulo 29076" width="58.825" height="1.398" transform="translate(5.467 55.783)" fill="#edf4f9"/>
          <rect id="Rectángulo_29077" data-name="Rectángulo 29077" width="31.628" height="1.398" transform="translate(5.467 58.889)" fill="#edf4f9"/>
          <rect id="Rectángulo_29078" data-name="Rectángulo 29078" width="14.482" height="1.398" transform="translate(27.993 73.899)" fill="#edf4f9"/>
          <rect id="Rectángulo_29079" data-name="Rectángulo 29079" width="28.42" height="1.398" transform="translate(27.993 78.402)" fill="#edf4f9"/>
          <rect id="Rectángulo_29080" data-name="Rectángulo 29080" width="31.628" height="1.398" transform="translate(27.993 89.118)" fill="#edf4f9"/>
          <rect id="Rectángulo_29081" data-name="Rectángulo 29081" width="31.628" height="1.398" transform="translate(27.993 92.224)" fill="#edf4f9"/>
          <rect id="Rectángulo_29082" data-name="Rectángulo 29082" width="14.482" height="1.398" transform="translate(27.993 95.33)" fill="#edf4f9"/>
          <rect id="Rectángulo_29083" data-name="Rectángulo 29083" width="28.42" height="1.398" transform="translate(27.993 99.834)" fill="#edf4f9"/>
        </g>
        <g id="Grupo_50300" data-name="Grupo 50300" transform="translate(81.606 113.779)">
          <rect id="Rectángulo_29086" data-name="Rectángulo 29086" width="56.776" height="14.7" rx="2" fill="#26aab7"/>
          <g id="Grupo_50298" data-name="Grupo 50298" transform="translate(3.884 3.843)">
            <path id="Trazado_100490" data-name="Trazado 100490" d="M2979.979,1662.916l.871,2.679h2.815l-2.278,1.656.87,2.678-2.278-1.656-2.279,1.656.87-2.678-2.279-1.656h2.816Z" transform="translate(-2976.292 -1662.916)" fill="#f5ca56"/>
            <path id="Trazado_100491" data-name="Trazado 100491" d="M3059.778,1662.916l.87,2.679h2.816l-2.279,1.656.871,2.678-2.279-1.656-2.279,1.656.871-2.678-2.279-1.656h2.816Z" transform="translate(-3045.682 -1662.916)" fill="#f5ca56"/>
            <path id="Trazado_100492" data-name="Trazado 100492" d="M3139.577,1662.916l.87,2.679h2.817l-2.278,1.656.87,2.678-2.279-1.656-2.279,1.656.87-2.678-2.278-1.656h2.817Z" transform="translate(-3115.073 -1662.916)" fill="#f5ca56"/>
            <path id="Trazado_100493" data-name="Trazado 100493" d="M3219.375,1662.916l.87,2.679h2.816l-2.278,1.656.87,2.678-2.278-1.656-2.279,1.656.87-2.678-2.279-1.656h2.816Z" transform="translate(-3184.463 -1662.916)" fill="#f5ca56"/>
            <path id="Trazado_100494" data-name="Trazado 100494" d="M3299.174,1662.916l.87,2.679h2.817l-2.279,1.656.87,2.678-2.279-1.656-2.279,1.656.87-2.678-2.278-1.656h2.816Z" transform="translate(-3253.854 -1662.916)" fill="#d8e5ed"/>
          </g>
          <rect id="Rectángulo_29087" data-name="Rectángulo 29087" width="56.776" height="14.7" rx="2" transform="translate(10.203 18.083)" fill="#26aab7"/>
          <g id="Grupo_50299" data-name="Grupo 50299" transform="translate(14.088 21.927)">
            <path id="Trazado_100495" data-name="Trazado 100495" d="M3058.206,1801.557l.869,2.679h2.817l-2.279,1.655.871,2.679-2.279-1.655-2.279,1.655.871-2.679-2.279-1.655h2.817Z" transform="translate(-3054.518 -1801.557)" fill="#f5ca56"/>
            <path id="Trazado_100496" data-name="Trazado 100496" d="M3138,1801.557l.87,2.679h2.816l-2.278,1.655.87,2.679-2.279-1.655-2.278,1.655.87-2.679-2.279-1.655h2.817Z" transform="translate(-3123.908 -1801.557)" fill="#f5ca56"/>
            <path id="Trazado_100497" data-name="Trazado 100497" d="M3217.8,1801.557l.87,2.679h2.817l-2.278,1.655.869,2.679-2.278-1.655-2.279,1.655.871-2.679-2.279-1.655h2.817Z" transform="translate(-3193.299 -1801.557)" fill="#f5ca56"/>
            <path id="Trazado_100498" data-name="Trazado 100498" d="M3297.6,1801.557l.87,2.679h2.817l-2.279,1.655.87,2.679-2.279-1.655-2.278,1.655.871-2.679-2.279-1.655h2.817Z" transform="translate(-3262.689 -1801.557)" fill="#f5ca56"/>
            <path id="Trazado_100499" data-name="Trazado 100499" d="M3377.4,1801.557l.87,2.679h2.816l-2.278,1.655.87,2.679-2.279-1.655-2.279,1.655.87-2.679-2.279-1.655h2.817Z" transform="translate(-3332.079 -1801.557)" fill="#f5ca56"/>
          </g>
        </g>
        <g id="Grupo_50457" data-name="Grupo 50457" transform="translate(277.605 167.101)">
          <rect id="Rectángulo_29086-2" data-name="Rectángulo 29086" width="56.776" height="14.7" rx="2" fill="#7d6eb2"/>
          <g id="Grupo_50298-2" data-name="Grupo 50298" transform="translate(3.884 3.843)">
            <path id="Trazado_100490-2" data-name="Trazado 100490" d="M2979.979,1662.916l.871,2.679h2.815l-2.278,1.656.87,2.678-2.278-1.656-2.279,1.656.87-2.678-2.279-1.656h2.816Z" transform="translate(-2976.292 -1662.916)" fill="#f5ca56"/>
            <path id="Trazado_100491-2" data-name="Trazado 100491" d="M3059.778,1662.916l.87,2.679h2.816l-2.279,1.656.871,2.678-2.279-1.656-2.279,1.656.871-2.678-2.279-1.656h2.816Z" transform="translate(-3045.682 -1662.916)" fill="#f5ca56"/>
            <path id="Trazado_100492-2" data-name="Trazado 100492" d="M3139.577,1662.916l.87,2.679h2.817l-2.278,1.656.87,2.678-2.279-1.656-2.279,1.656.87-2.678-2.278-1.656h2.817Z" transform="translate(-3115.073 -1662.916)" fill="#f5ca56"/>
            <path id="Trazado_100493-2" data-name="Trazado 100493" d="M3219.375,1662.916l.87,2.679h2.816l-2.278,1.656.87,2.678-2.278-1.656-2.279,1.656.87-2.678-2.279-1.656h2.816Z" transform="translate(-3184.463 -1662.916)" fill="#f5ca56"/>
            <path id="Trazado_100494-2" data-name="Trazado 100494" d="M3299.174,1662.916l.87,2.679h2.817l-2.279,1.656.87,2.678-2.279-1.656-2.279,1.656.87-2.678-2.278-1.656h2.816Z" transform="translate(-3253.854 -1662.916)" fill="#d8e5ed"/>
          </g>
          <rect id="Rectángulo_29087-2" data-name="Rectángulo 29087" width="56.776" height="14.7" rx="2" transform="translate(10.203 18.083)" fill="#7d6eb2"/>
          <g id="Grupo_50299-2" data-name="Grupo 50299" transform="translate(14.088 21.927)">
            <path id="Trazado_100495-2" data-name="Trazado 100495" d="M3058.206,1801.557l.869,2.679h2.817l-2.279,1.655.871,2.679-2.279-1.655-2.279,1.655.871-2.679-2.279-1.655h2.817Z" transform="translate(-3054.518 -1801.557)" fill="#f5ca56"/>
            <path id="Trazado_100496-2" data-name="Trazado 100496" d="M3138,1801.557l.87,2.679h2.816l-2.278,1.655.87,2.679-2.279-1.655-2.278,1.655.87-2.679-2.279-1.655h2.817Z" transform="translate(-3123.908 -1801.557)" fill="#f5ca56"/>
            <path id="Trazado_100497-2" data-name="Trazado 100497" d="M3217.8,1801.557l.87,2.679h2.817l-2.278,1.655.869,2.679-2.278-1.655-2.279,1.655.871-2.679-2.279-1.655h2.817Z" transform="translate(-3193.299 -1801.557)" fill="#f5ca56"/>
            <path id="Trazado_100498-2" data-name="Trazado 100498" d="M3297.6,1801.557l.87,2.679h2.817l-2.279,1.655.87,2.679-2.279-1.655-2.278,1.655.871-2.679-2.279-1.655h2.817Z" transform="translate(-3262.689 -1801.557)" fill="#f5ca56"/>
            <path id="Trazado_100499-2" data-name="Trazado 100499" d="M3377.4,1801.557l.87,2.679h2.816l-2.278,1.655.87,2.679-2.279-1.655-2.279,1.655.87-2.679-2.279-1.655h2.817Z" transform="translate(-3332.079 -1801.557)" fill="#f5ca56"/>
          </g>
        </g>
      </g>
    </g>
  </g>
</svg>
