<svg xmlns="http://www.w3.org/2000/svg" xmlns:xlink="http://www.w3.org/1999/xlink" width="98.204" height="98.204" viewBox="0 0 98.204 98.204">
  <defs>
    <linearGradient id="linear-gradient" x1="0.5" x2="0.5" y2="1" gradientUnits="objectBoundingBox">
      <stop offset="0" stop-color="#fdbe41"/>
      <stop offset="1" stop-color="#d09f40"/>
    </linearGradient>
    <clipPath id="clip-path">
      <rect id="Rectángulo_57003" data-name="Rectángulo 57003" width="66.427" height="66.416" fill="#12263f"/>
    </clipPath>
  </defs>
  <g id="Grupo_179461" data-name="Grupo 179461" transform="translate(-333.893 -2019.879)">
    <circle id="Elipse_6019" data-name="Elipse 6019" cx="49.102" cy="49.102" r="49.102" transform="translate(333.893 2019.879)" fill="url(#linear-gradient)"/>
    <g id="Grupo_176843" data-name="Grupo 176843" transform="translate(348.378 2036.382)">
      <g id="Grupo_176842" data-name="Grupo 176842" clip-path="url(#clip-path)">
        <path id="Trazado_219948" data-name="Trazado 219948" d="M47.215,0A11.836,11.836,0,0,1,49.18,1.174a3.483,3.483,0,0,1,.954,2.793q-.016,12.16-.006,24.321v.9c2.376-.495,4.182.156,5.2,2.414,2.7-.872,5.253.379,5.676,3.459a13.368,13.368,0,0,1,2.174.019,3.779,3.779,0,0,1,3.207,3.777c.045,4.475.054,8.95,0,13.425a8.425,8.425,0,0,1-1.1,4.03,7.436,7.436,0,0,0-.947,4.1c.05,1.1.021,2.2.007,3.307A2.622,2.622,0,0,1,61.692,66.4c-.713.013-1.427.017-2.14,0a1.292,1.292,0,1,1-.016-2.582c.709-.021,1.42,0,2.183,0,.014-.253.034-.461.035-.668.005-1.275-.009-2.551.012-3.826a7.019,7.019,0,0,1,.822-3.366A10.348,10.348,0,0,0,63.836,50.6c-.058-3.782-.014-7.566-.019-11.35,0-.965-.4-1.514-1.139-1.638a1.4,1.4,0,0,0-1.694,1.537c-.022,1.621,0,3.243-.014,4.864a1.281,1.281,0,0,1-1.233,1.326,1.309,1.309,0,0,1-1.348-1.289c-.015-.194-.006-.389-.006-.583,0-2.659,0-5.318-.005-7.977a1.36,1.36,0,0,0-1.094-1.536,1.325,1.325,0,0,0-1.673,1.107,4.527,4.527,0,0,0-.061.838c-.006,2.248.005,4.5-.011,6.745a1.246,1.246,0,0,1-1.218,1.329A1.3,1.3,0,0,1,52.962,42.7c-.018-.193-.009-.389-.009-.583q0-4.216,0-8.431c0-.259,0-.52-.02-.777a1.3,1.3,0,0,0-1.348-1.29,1.278,1.278,0,0,0-1.408,1.215A11.839,11.839,0,0,0,50.13,34.2c0,2.2,0,4.41,0,6.615a4.611,4.611,0,0,1-.044.775,1.269,1.269,0,0,1-2.491.032,4.408,4.408,0,0,1-.055-.838q0-6.875,0-13.749a6.683,6.683,0,0,0-.049-.97,1.384,1.384,0,0,0-2.733.019,6.971,6.971,0,0,0-.034.906q0,10.474,0,20.948a5.419,5.419,0,0,1-.028.776,1.259,1.259,0,0,1-1.333,1.148A1.23,1.23,0,0,1,42.134,48.6c-.027-1.318,0-2.637-.018-3.956a3,3,0,0,0-2.3-3.066c-.76-.2-1.024-.02-1.027.756-.011,3.07-.033,6.14.025,9.209a2.425,2.425,0,0,0,.661,1.4A9.282,9.282,0,0,0,41.128,54.3a9.711,9.711,0,0,1,4.453,8.648c-.006.275,0,.549,0,.869.763,0,1.431-.008,2.1,0a1.306,1.306,0,1,1-.023,2.59c-.605.007-1.211,0-1.816,0a2.668,2.668,0,0,1-2.85-2.768c-.04-.905-.065-1.816-.19-2.711A5.759,5.759,0,0,0,41.206,57.8a1.291,1.291,0,0,0-.863-.271q-11.576-.044-23.153-.06a3.513,3.513,0,0,1-3.639-2.943,5.436,5.436,0,0,1-.056-.968q0-9.145.005-18.289a1.406,1.406,0,0,0-.467-1.106A9.123,9.123,0,0,1,11.77,32.39c-.168-.282-.272-.463-.651-.469-2.015-.035-2.05-.1-2.425-2.112Q7,20.734,5.287,11.666c-.02-.105-.061-.206-.117-.392-1.123,0-2.261-.037-3.4.013A1.753,1.753,0,0,1,0,10.376V9.6a1.682,1.682,0,0,1,1.751-.927c1.358.053,2.719.019,4.079.019,1.257,0,1.6.288,1.82,1.515.164.908.343,1.813.513,2.707h5.329V12.17c0-2.849-.007-5.7,0-8.547A3.548,3.548,0,0,1,15.943.172c.137-.048.267-.115.4-.173ZM16.089,12.954h.835q10.277,0,20.553,0c1.228,0,1.743.628,1.52,1.817q-1.413,7.509-2.823,15.018c-.381,2.038-.389,2.043-2.474,2.158a.762.762,0,0,0-.547.375,4.753,4.753,0,0,1-8.856.022.823.823,0,0,0-.6-.394c-.819-.045-1.643.006-2.462-.029a.668.668,0,0,0-.748.512,4.606,4.606,0,0,1-3.255,2.81c-.366.1-.749.127-1.1.184V48.34H36.17c.01-.137.021-.222.021-.307,0-1.945-.025-3.891.012-5.835A3.1,3.1,0,0,1,40.2,39.018c.638.14,1.25.4,1.924.621,0-.28,0-.535,0-.791,0-4.214-.02-8.429.025-12.643A3.788,3.788,0,0,1,45.5,22.363a14.261,14.261,0,0,1,2.013-.015c.006-.113.025-.3.025-.492q0-8.948,0-17.9a4.238,4.238,0,0,0-.022-.517.847.847,0,0,0-.846-.829C45.093,2.585,43.52,2.6,41.87,2.6c0,.5.015.95,0,1.4a3.941,3.941,0,0,1-4.006,3.914q-6.062.029-12.125,0a3.911,3.911,0,0,1-3.961-3.941c-.009-.445,0-.889,0-1.371-1.652,0-3.206-.018-4.759.009a.883.883,0,0,0-.921.967c-.011,3.09-.005,6.179-.005,9.377M8.662,15.579c.15.8.284,1.524.419,2.244Q10.123,23.36,11.17,28.9a1.669,1.669,0,0,0,.221.424,1.826,1.826,0,0,0,.34-.393,4.574,4.574,0,0,1,4.386-2.978,4.583,4.583,0,0,1,4.437,3,.756.756,0,0,0,.545.37c.884.039,1.773.039,2.657,0a.755.755,0,0,0,.543-.369,4.751,4.751,0,0,1,8.848.035,2.076,2.076,0,0,0,.294.391l.17-.048L36.2,15.579Zm7.425,35.442c0,.871,0,1.707,0,2.543,0,1.016.294,1.311,1.3,1.312q9.75.018,19.5.032c.224,0,.448-.021.792-.038a4.664,4.664,0,0,1-1.488-3.85ZM39.262,2.639H24.369c0,.447-.01.855,0,1.261A1.331,1.331,0,0,0,25.8,5.32q6.027.017,12.053,0a1.316,1.316,0,0,0,1.4-1.241,13.883,13.883,0,0,0,.009-1.439M28.7,28.528a2.121,2.121,0,0,0-2.1,2.165,2.132,2.132,0,0,0,4.263-.056A2.129,2.129,0,0,0,28.7,28.528m-12.562,0a2.118,2.118,0,0,0-2.124,2.14,2.131,2.131,0,1,0,2.124-2.14" transform="translate(0 0.001)" fill="#12263f"/>
        <path id="Trazado_219949" data-name="Trazado 219949" d="M404.367,491.052a1.292,1.292,0,1,1,.055,2.584,1.292,1.292,0,0,1-.055-2.584" transform="translate(-350.722 -427.232)" fill="#12263f"/>
        <path id="Trazado_219950" data-name="Trazado 219950" d="M162.626,145.371c0-.757-.011-1.513,0-2.27a1.294,1.294,0,1,1,2.583-.014q.028,2.3,0,4.6a1.3,1.3,0,1,1-2.586-.051c-.01-.757,0-1.513,0-2.27" transform="translate(-141.487 -123.306)" fill="#12263f"/>
        <path id="Trazado_219951" data-name="Trazado 219951" d="M116.887,144.032a11.282,11.282,0,0,1-.008,1.23,1.241,1.241,0,0,1-1.187,1.088,1.183,1.183,0,0,1-1.282-.959,15.443,15.443,0,0,1,0-2.709,1.172,1.172,0,0,1,1.28-.958,1.229,1.229,0,0,1,1.19,1.078,11.149,11.149,0,0,1,.009,1.23" transform="translate(-99.488 -123.303)" fill="#12263f"/>
        <path id="Trazado_219952" data-name="Trazado 219952" d="M213.643,144a11.829,11.829,0,0,1-.008,1.23,1.255,1.255,0,0,1-1.228,1.119,1.214,1.214,0,0,1-1.272-1.061,16.226,16.226,0,0,1,0-2.521,1.2,1.2,0,0,1,1.276-1.048,1.235,1.235,0,0,1,1.224,1.116,10.785,10.785,0,0,1,.007,1.165" transform="translate(-183.653 -123.304)" fill="#12263f"/>
      </g>
    </g>
  </g>
</svg>
