<svg xmlns="http://www.w3.org/2000/svg" xmlns:xlink="http://www.w3.org/1999/xlink" width="178.304" height="178.304" viewBox="0 0 178.304 178.304">
  <defs>
    <filter id="Trazado_150709" x="0" y="0" width="178.304" height="178.304" filterUnits="userSpaceOnUse">
      <feOffset dx="5" dy="5" input="SourceAlpha"/>
      <feGaussianBlur stdDeviation="12.5" result="blur"/>
      <feFlood flood-opacity="0.161"/>
      <feComposite operator="in" in2="blur"/>
      <feComposite in="SourceGraphic"/>
    </filter>
    <clipPath id="clip-path">
      <rect id="Rectángulo_54076" data-name="Rectángulo 54076" width="71.084" height="75.23" fill="#12263f"/>
    </clipPath>
    <linearGradient id="linear-gradient" x1="0.5" x2="0.5" y2="1" gradientUnits="objectBoundingBox">
      <stop offset="0" stop-color="#f5f5f5"/>
      <stop offset="0.25" stop-color="#f5f5f5"/>
      <stop offset="1" stop-color="#a7b3cf"/>
    </linearGradient>
  </defs>
  <g id="Grupo_179437" data-name="Grupo 179437" transform="translate(-309.48 -1943.759)">
    <g id="Grupo_145687" data-name="Grupo 145687" transform="translate(63 -3173.456)">
      <path id="Trazado_150708" data-name="Trazado 150708" d="M266.781,60.19A65.629,65.629,0,1,1,195.934.23a65.63,65.63,0,0,1,70.847,59.96" transform="translate(265 5402.744) rotate(-90)" fill="#eeac3a"/>
      <g transform="matrix(1, 0, 0, 1, 246.48, 5117.21)" filter="url(#Trazado_150709)">
        <path id="Trazado_150709-2" data-name="Trazado 150709" d="M252.248,60.747A51.649,51.649,0,1,1,196.492,13.56a51.649,51.649,0,0,1,55.755,47.188" transform="translate(19.12 284.93) rotate(-90)" fill="#fff"/>
      </g>
      <g id="Grupo_174790" data-name="Grupo 174790" transform="translate(295.712 5163.211)">
        <g id="Grupo_174789" data-name="Grupo 174789" clip-path="url(#clip-path)">
          <path id="Trazado_215112" data-name="Trazado 215112" d="M44.777,75.231H43.748c-.534-.413-1.1-.792-1.594-1.246a29.1,29.1,0,0,1-2.07-2.078,1.054,1.054,0,0,0-1.212-.324,29.87,29.87,0,0,1-14.795,0,1.173,1.173,0,0,0-1.268.369c-1.173,1.124-2.4,2.192-3.605,3.282H18.175a6.724,6.724,0,0,1-1.15-.755Q8.85,66.335.707,58.162a2.142,2.142,0,0,1,.023-3.2c.528-.545,1.049-1.1,1.617-1.6a.935.935,0,0,0,.28-1.2A30.21,30.21,0,0,1,1.581,35.1,30.661,30.661,0,0,1,39.389,12.264c1.194.324,2.365.732,3.586,1.114,0-.319,0-.586,0-.854a23.729,23.729,0,0,1,1.37-8.432,1.793,1.793,0,0,1,2.229-1.306A4.366,4.366,0,0,0,49.3,2.537c1.089-.436,2.172-.9,3.222-1.417A9.472,9.472,0,0,1,61.41,1.1c1.071.533,2.178,1,3.289,1.446a4.375,4.375,0,0,0,2.729.241,1.763,1.763,0,0,1,2.186,1.258A16.632,16.632,0,0,1,70.334,6.5c.3,1.632.506,3.281.75,4.922v1.764c-.217,1.424-.338,2.87-.667,4.268a21.834,21.834,0,0,1-9.6,13.39.783.783,0,0,0-.376,1.11,29.2,29.2,0,0,1,1.65,8.988,29.875,29.875,0,0,1-1.826,11.309.8.8,0,0,0,.232,1.014q.947.868,1.817,1.819a2.083,2.083,0,0,1,.033,2.93c-2.172,2.227-4.38,4.418-6.592,6.605a1.053,1.053,0,0,1-1.57-.013,1.119,1.119,0,0,1,.171-1.68q2.46-2.476,4.935-4.937c.463-.46.946-.9,1.389-1.319l-5.7-5.712L38.717,67.234l5.7,5.7c.355-.372.753-.8,1.166-1.219q2.411-2.421,4.832-4.832a1.118,1.118,0,0,1,1.68-.17c.5.474.448,1.123-.137,1.736-.118.124-.242.243-.363.364-1.749,1.75-3.485,3.513-5.256,5.24a15.048,15.048,0,0,1-1.557,1.18m-5.151-12.5L51.164,51.2l-1.64-1.755c-.609.639-1.193,1.3-1.828,1.9a1.057,1.057,0,0,1-1.575-.016,1.079,1.079,0,0,1,.025-1.525c.127-.149.274-.28.412-.419q3.559-3.561,7.116-7.124a4.246,4.246,0,0,0,.7-.84,2,2,0,0,0-.046-2.223,1.864,1.864,0,0,0-2.04-.845,4.173,4.173,0,0,0-1.213.632,1.062,1.062,0,0,1-1.464-.121,1.044,1.044,0,0,1-.084-1.41c.094-.143.219-.264.314-.406a2.027,2.027,0,0,0-1.531-3.2,3.635,3.635,0,0,0-1.656.614,1.144,1.144,0,0,1-1.534-.085,1.026,1.026,0,0,1-.042-1.462c.089-.117.187-.228.269-.349A2.059,2.059,0,0,0,42.5,29.682c-.182.123-.341.284-.53.393a.909.909,0,0,1-1.309-.209,2.33,2.33,0,0,1-.161-1.272c.012-.2.281-.386.412-.592a2.041,2.041,0,0,0-.325-2.616,1.9,1.9,0,0,0-2.553-.18c-1.294,1.22-2.475,2.559-3.725,3.871,1.326,1.307,2.956,2.548,2.716,4.836a4.283,4.283,0,0,1-3.687,3.949c.093,4.109-1.735,5.643-5.982,5.045A4.357,4.357,0,0,1,24.9,45.828a4.566,4.566,0,0,1-3.808-.119c-1.143,2.819-3.176,3.766-5.95,2.832-.159-.054-.428-.074-.523.018-.977.945-1.929,1.915-2.822,2.812L23.1,62.686c.138-.129.318-.288.487-.457C25.217,60.6,26.875,59,28.465,57.337a10.222,10.222,0,0,1,8.654-3.325,9.183,9.183,0,0,0,5.41-.963,1.049,1.049,0,0,1,1.5.45,1.062,1.062,0,0,1-.51,1.487,11.751,11.751,0,0,1-1.463.675,12.4,12.4,0,0,1-5.435.532,7.3,7.3,0,0,0-3.1.4l6.107,6.137m8.38-31.216a4.5,4.5,0,0,1,4.488,4.508c.019.015.036.041.057.045a1.638,1.638,0,0,0,.217.029,4.022,4.022,0,0,1,3.824,2.719,4.236,4.236,0,0,1-1.032,4.671c-.372.39-.76.764-1.141,1.145l-3.1,3.1,1.729,1.853c1.566-1.372,2.459-1.338,3.952.167.425.428.824.882,1.272,1.365,2.152-4.593,2.069-15.272-.069-18.639-1.032.463-1.377.51-2.091.133C49.526,29.13,44.9,24.088,43.382,16.583a1.009,1.009,0,0,0-.657-.853,27.841,27.841,0,0,0-22.477.015A28.314,28.314,0,0,0,3.5,46.954c.239,1.371.65,2.712.981,4.067l.254.049c.394-.433.772-.881,1.184-1.3,1.551-1.565,2.393-1.578,4.037-.09a.548.548,0,0,0,.124.08l3.019-3.01c-.949-.909-1.986-1.809-2.915-2.811a4.26,4.26,0,0,1,1.66-6.888l.62-.232a4.281,4.281,0,0,1,.5-4.1A4.413,4.413,0,0,1,16.647,30.9a4.386,4.386,0,0,1,1.285-3.233,4.627,4.627,0,0,1,3.173-1.27c.131-2.081,1.026-3.615,3.021-4.208a17.037,17.037,0,0,1,3.847-.638c1.831-.105,3.672-.024,5.508-.027a4.2,4.2,0,0,1,3.2,1.392c.1.1.2.192.306.287a4.24,4.24,0,0,1,4.376.029,4.382,4.382,0,0,1,2.125,3.831c2.955.407,3.855,1.308,4.517,4.46M46.374,5.031c-.062.166-.109.275-.145.388a21.274,21.274,0,0,0-.64,11.021c1.358,6.482,5.419,10.866,11.074,13.952a.891.891,0,0,0,.723-.031,23.26,23.26,0,0,0,6.078-4.569c4.615-4.91,6.068-10.757,5.032-17.308-.185-1.166-.532-2.306-.8-3.43A7.566,7.566,0,0,1,63.391,4.4a13.113,13.113,0,0,1-1.808-.8,8.718,8.718,0,0,0-9.319.043,8.761,8.761,0,0,1-5.89,1.391M8.01,51.015,2.43,56.566l16.242,16.26,5.585-5.558L8.01,51.015M25.238,69.6a28.238,28.238,0,0,0,12.5-.015c-.8-.789-1.73-1.521-1.345-2.615a13.22,13.22,0,0,1,1.558-2.526L31.313,57.8l-6.478,6.7c2.43,2.05,2.237,3.264.4,5.094M21.167,28.608a2.21,2.21,0,0,0-2.107,1.257,2.006,2.006,0,0,0,.459,2.363q4.041,4.06,8.1,8.1a2.043,2.043,0,0,0,2.963.031,2.064,2.064,0,0,0-.062-2.966Q26.494,33.32,22.415,29.3a4.673,4.673,0,0,0-1.248-.69M16.511,33a2.388,2.388,0,0,0-1.946,1.357,1.97,1.97,0,0,0,.46,2.356q3.28,3.309,6.588,6.589a2.071,2.071,0,1,0,2.914-2.934c-2.167-2.191-4.338-4.379-6.547-6.527A6.723,6.723,0,0,0,16.511,33m8.466-8.737a1.933,1.933,0,0,0-1.2,3.142c2.518,2.669,5.146,5.235,7.777,7.795a1.937,1.937,0,0,0,2.338.113,1.9,1.9,0,0,0,.888-2.091,3,3,0,0,0-.6-1.144A4.679,4.679,0,0,0,29.856,30a4.676,4.676,0,0,1-4.709-3.863,15.5,15.5,0,0,1-.17-1.876m-11.6,14.6a2.384,2.384,0,0,0-1.932,1.374,1.961,1.961,0,0,0,.431,2.3q1.713,1.759,3.469,3.477A2.071,2.071,0,1,0,18.281,43.1c-1.123-1.157-2.25-2.314-3.432-3.409a7.118,7.118,0,0,0-1.475-.83m21.9-14.145a1.852,1.852,0,0,0-1.6-.975c-1.91-.021-3.821-.029-5.73.009a.871.871,0,0,0-.666.495,3.061,3.061,0,0,0,.606,2.627,4.912,4.912,0,0,0,4.254.945.634.634,0,0,0,.174-.132c.982-.984,1.963-1.97,2.958-2.968" transform="translate(0 -0.001)" fill="#12263f"/>
          <path id="Trazado_215114" data-name="Trazado 215114" d="M65.679,108.92c-.662-3.152-1.562-4.053-4.517-4.46a4.382,4.382,0,0,0-2.125-3.831,4.24,4.24,0,0,0-4.376-.029c-.1-.1-.21-.185-.306-.287a4.2,4.2,0,0,0-3.2-1.392c-1.837,0-3.678-.078-5.508.027a17.044,17.044,0,0,0-3.847.638c-2,.592-2.89,2.127-3.021,4.208a4.627,4.627,0,0,0-3.173,1.27A4.386,4.386,0,0,0,34.32,108.3a4.413,4.413,0,0,0-3.683,1.827,4.281,4.281,0,0,0-.5,4.1l-.62.232a4.26,4.26,0,0,0-1.66,6.888c.929,1,1.966,1.9,2.915,2.811l-3.019,3.01a.542.542,0,0,1-.124-.08c-1.645-1.488-2.486-1.474-4.037.091-.412.415-.79.863-1.184,1.3l-.254-.049c-.331-1.355-.742-2.7-.981-4.067A28.314,28.314,0,0,1,37.921,93.145,27.841,27.841,0,0,1,60.4,93.13a1.009,1.009,0,0,1,.657.853c1.516,7.505,6.144,12.547,12.727,16.027.714.377,1.059.33,2.091-.133,2.138,3.367,2.221,14.046.069,18.639-.449-.483-.848-.937-1.272-1.365-1.493-1.5-2.386-1.539-3.952-.167l-1.729-1.853,3.1-3.1c.381-.381.769-.755,1.141-1.145a4.235,4.235,0,0,0,1.032-4.671,4.021,4.021,0,0,0-3.824-2.719,1.639,1.639,0,0,1-.217-.029c-.021,0-.038-.029-.057-.045a4.5,4.5,0,0,0-4.488-4.508" transform="translate(-17.673 -77.401)" fill="#d2c1eb"/>
          <path id="Trazado_215115" data-name="Trazado 215115" d="M307.763,18.155a8.761,8.761,0,0,0,5.89-1.391,8.718,8.718,0,0,1,9.319-.043,13.129,13.129,0,0,0,1.808.8,7.565,7.565,0,0,0,4.306.654c.266,1.124.613,2.264.8,3.43,1.037,6.551-.416,12.4-5.032,17.308a23.257,23.257,0,0,1-6.078,4.569.891.891,0,0,1-.723.031c-5.656-3.087-9.716-7.47-11.074-13.952a21.274,21.274,0,0,1,.64-11.021c.036-.113.082-.222.145-.388m1.905,10.563a8.245,8.245,0,0,0,5.038,7.167,8.36,8.36,0,0,0,9.173-1.108,7.937,7.937,0,0,0,2.579-3.509,1.032,1.032,0,0,0-.521-1.37,1.087,1.087,0,0,0-1.452.463c-.137.231-.236.483-.362.721a6.511,6.511,0,1,1,.269-5.6,5.693,5.693,0,0,0,.34.81,1.047,1.047,0,0,0,1.851-.054,1.911,1.911,0,0,0-.033-1.253,8.683,8.683,0,0,0-9.728-5.57c-4.085.7-7.147,4.367-7.154,9.3m8.2.046c-.8-.812-1.508-1.552-2.239-2.27a1.1,1.1,0,0,0-1.677-.134,1.123,1.123,0,0,0,.119,1.681q1.437,1.465,2.9,2.9a1.125,1.125,0,0,0,1.791.006c1.324-1.3,2.64-2.612,3.931-3.946a1.275,1.275,0,0,0,.411-.881,1.661,1.661,0,0,0-.607-.981c-.459-.336-.934-.1-1.31.272-1.085,1.088-2.165,2.182-3.322,3.351" transform="translate(-261.39 -13.126)" fill="url(#linear-gradient)"/>
          <path id="Trazado_215116" data-name="Trazado 215116" d="M22.076,346.4l16.247,16.253-5.585,5.558L16.5,351.956l5.58-5.551" transform="translate(-14.067 -295.391)" fill="#43a99b"/>
          <path id="Trazado_215122" data-name="Trazado 215122" d="M327.832,51.249c.007-4.937,3.069-8.606,7.154-9.3a8.683,8.683,0,0,1,9.728,5.57,1.91,1.91,0,0,1,.033,1.253,1.047,1.047,0,0,1-1.851.054,5.686,5.686,0,0,1-.34-.81,6.518,6.518,0,1,0-.269,5.6c.126-.237.226-.49.362-.721a1.087,1.087,0,0,1,1.452-.463,1.032,1.032,0,0,1,.521,1.37,7.934,7.934,0,0,1-2.579,3.509,8.361,8.361,0,0,1-9.173,1.108,8.246,8.246,0,0,1-5.038-7.167" transform="translate(-279.553 -35.656)" fill="#12263f"/>
          <path id="Trazado_215123" data-name="Trazado 215123" d="M358.93,84.278c1.158-1.168,2.237-2.262,3.323-3.351.375-.376.851-.607,1.309-.272a1.661,1.661,0,0,1,.607.981,1.274,1.274,0,0,1-.411.881c-1.291,1.334-2.607,2.644-3.931,3.946a1.125,1.125,0,0,1-1.791-.006q-1.466-1.436-2.9-2.9a1.123,1.123,0,0,1-.119-1.681,1.1,1.1,0,0,1,1.677.134c.731.718,1.441,1.458,2.239,2.27" transform="translate(-302.455 -68.64)" fill="#12263f"/>
        </g>
      </g>
    </g>
  </g>
</svg>
