<svg xmlns="http://www.w3.org/2000/svg" xmlns:xlink="http://www.w3.org/1999/xlink" width="178.305" height="178.305" viewBox="0 0 178.305 178.305">
  <defs>
    <filter id="Trazado_150707" x="0" y="0" width="178.305" height="178.305" filterUnits="userSpaceOnUse">
      <feOffset dx="5" dy="5" input="SourceAlpha"/>
      <feGaussianBlur stdDeviation="12.5" result="blur"/>
      <feFlood flood-opacity="0.161"/>
      <feComposite operator="in" in2="blur"/>
      <feComposite in="SourceGraphic"/>
    </filter>
    <clipPath id="clip-path">
      <rect id="Rectángulo_52520" data-name="Rectángulo 52520" width="66.653" height="66.71" fill="#12263f"/>
    </clipPath>
  </defs>
  <g id="Grupo_179439" data-name="Grupo 179439" transform="translate(-1123.213 -1943.758)">
    <g id="Grupo_145689" data-name="Grupo 145689" transform="translate(303.354 -3805.624)">
      <path id="Trazado_150705" data-name="Trazado 150705" d="M266.781,460.7a65.629,65.629,0,1,1-70.847-59.96,65.63,65.63,0,0,1,70.847,59.96" transform="translate(437.873 6034.912) rotate(-90)" fill="#60a2d8"/>
      <path id="Trazado_150706" data-name="Trazado 150706" d="M266.781,460.7a65.629,65.629,0,1,1-70.847-59.96,65.63,65.63,0,0,1,70.847,59.96" transform="translate(437.873 6034.912) rotate(-90)" fill="#eeac3a"/>
      <g transform="matrix(1, 0, 0, 1, 819.86, 5749.38)" filter="url(#Trazado_150707)">
        <path id="Trazado_150707-2" data-name="Trazado 150707" d="M252.231,461.058A51.649,51.649,0,1,1,196.3,414.084a51.649,51.649,0,0,1,55.935,46.975" transform="translate(-381.39 284.93) rotate(-90)" fill="#fff"/>
      </g>
      <g id="Grupo_171260" data-name="Grupo 171260" transform="translate(869.687 5799.28)">
        <g id="Grupo_171260-2" data-name="Grupo 171260" clip-path="url(#clip-path)">
          <path id="Trazado_212273" data-name="Trazado 212273" d="M150.962,66.794a10.881,10.881,0,0,1-1.165-.48,4.132,4.132,0,0,1-2.323-3.8c-.014-4.57-.005-9.14-.005-13.711v-.713l-5.153,5.174-.235-.113-.059-1.334-1.43-.074c.224-.242.376-.418.54-.582,1.931-1.934,3.85-3.881,5.808-5.788a1.626,1.626,0,0,0,.54-1.348c-.036-.982-.01-1.967-.01-2.954a16.343,16.343,0,0,1-1.644-.355,5.3,5.3,0,0,1-3.733-5.108c-.008-2.487-.045-4.974.007-7.46.116-5.552,2.771-9.482,7.736-11.895.153-.074.309-.14.488-.221a8.737,8.737,0,0,1-1.231-13.6,8.634,8.634,0,1,1,10.646,13.519l3.59,2.117,4.386-4.4.189.09v1.324l1.426.074-4.5,4.465c.161.246.236.378.328.5a12.763,12.763,0,0,1,2.746,8.1c-.017,2.263-.106,4.531.022,6.787a5.575,5.575,0,0,1-5.4,6.024v.783q0,10.115,0,20.23c0,2.527-.974,3.868-3.39,4.674-.039.013-.069.054-.1.083h-1.613L155,65.559l-2.424,1.234ZM162.525,38.8a3.232,3.232,0,0,0,3.224-3.288q.033-3.731,0-7.463a11.523,11.523,0,0,0-.193-1.935A10.807,10.807,0,0,0,153.6,17.4c-4.668.59-8.855,4.582-9.211,9.29-.228,3.009-.162,6.044-.124,9.066a3.117,3.117,0,0,0,3.211,3.024V24.891h2.139v.847q0,18.052,0,36.1c0,.246-.012.494.008.739a2.147,2.147,0,0,0,4.29.02c.02-.223.009-.448.009-.672q0-12.2,0-24.4v-.8h2.146v.843q0,12.169,0,24.338c0,.224-.01.449.007.672a2.147,2.147,0,0,0,4.29.031c.022-.245.01-.493.01-.739q0-18.085,0-36.171v-.809h2.148ZM154.987,2.252a6.511,6.511,0,0,0-6.445,6.477,6.453,6.453,0,0,0,12.906-.016,6.509,6.509,0,0,0-6.461-6.461" transform="translate(-121.648 -0.083)" fill="#12263f"/>
          <path id="Trazado_212274" data-name="Trazado 212274" d="M0,10.5c.173-.714.309-1.439.526-2.139A11.848,11.848,0,0,1,12.746.033a1.01,1.01,0,0,1,.2.09V.8c0,1.725.009,3.451-.007,5.176,0,.358.064.558.453.668a5.436,5.436,0,0,1,3.557,7.068.792.792,0,0,0,.228.691c1.376,1.076,2.781,2.113,4.176,3.165.193.145.377.3.593.476A11.863,11.863,0,0,1,.124,13.572,2.569,2.569,0,0,0,0,13.194V10.5M10.722,6.549V2.31c-3.484-.04-7.4,3.41-8.3,7.274A9.7,9.7,0,0,0,7.6,20.542c3.791,1.85,8.777.933,11.213-2.094L15.4,15.891a5.264,5.264,0,0,1-6.356.542,5.045,5.045,0,0,1-2.542-5.307,5.319,5.319,0,0,1,4.214-4.578m1.117,2.074a3.226,3.226,0,1,0,3.219,3.215,3.274,3.274,0,0,0-3.219-3.215" transform="translate(0 0)" fill="#12263f"/>
          <line id="Línea_1776" data-name="Línea 1776" x1="4.841" transform="translate(30.927 66.71)" fill="#fff"/>
          <path id="Trazado_212275" data-name="Trazado 212275" d="M326.159,301.292H328.3v12.848h2.164v-9.584h2.161v9.6h2.14V298.09H336.9v16.047h2.163V295.952h2.16v18.21h2.115v2.128H319.782V314.2h2.076v-10.72H324v10.651h2.164Z" transform="translate(-276.696 -256.077)" fill="#12263f"/>
          <rect id="Rectángulo_52512" data-name="Rectángulo 52512" width="19.29" height="2.051" transform="translate(43.071 62.464)" fill="#12263f"/>
          <rect id="Rectángulo_52513" data-name="Rectángulo 52513" width="11.823" height="2.142" transform="translate(50.551 4.324)" fill="#12263f"/>
          <rect id="Rectángulo_52514" data-name="Rectángulo 52514" width="11.818" height="2.137" transform="translate(4.31 60.275)" fill="#12263f"/>
          <rect id="Rectángulo_52515" data-name="Rectángulo 52515" width="7.512" height="2.134" transform="translate(50.567 8.643)" fill="#12263f"/>
          <rect id="Rectángulo_52516" data-name="Rectángulo 52516" width="7.51" height="2.132" transform="translate(8.604 55.963)" fill="#12263f"/>
          <rect id="Rectángulo_52517" data-name="Rectángulo 52517" width="2.142" height="2.147" transform="translate(60.235 8.624)" fill="#12263f"/>
          <rect id="Rectángulo_52518" data-name="Rectángulo 52518" width="2.166" height="2.118" transform="translate(4.29 55.964)" fill="#12263f"/>
          <rect id="Rectángulo_52519" data-name="Rectángulo 52519" width="2.058" height="2.087" transform="translate(64.595 62.437)" fill="#12263f"/>
          <path id="Trazado_212276" data-name="Trazado 212276" d="M24.645,21.379a5.319,5.319,0,0,0-4.214,4.578,5.045,5.045,0,0,0,2.542,5.307,5.264,5.264,0,0,0,6.356-.542l3.411,2.557C30.3,36.3,25.316,37.221,21.525,35.371a9.7,9.7,0,0,1-5.176-10.958c.9-3.864,4.812-7.314,8.3-7.274Z" transform="translate(-13.923 -14.83)" fill="#eeac3a"/>
          <path id="Trazado_212277" data-name="Trazado 212277" d="M67.11,64a3.226,3.226,0,1,1-3.232,3.2A3.276,3.276,0,0,1,67.11,64" transform="translate(-55.271 -55.377)" fill="#7f4fc7"/>
        </g>
      </g>
    </g>
  </g>
</svg>
