<svg xmlns="http://www.w3.org/2000/svg" xmlns:xlink="http://www.w3.org/1999/xlink" width="114.604" height="100.517" viewBox="0 0 114.604 100.517">
  <defs>
    <clipPath id="clip-path">
      <rect id="Rectángulo_56285" data-name="Rectángulo 56285" width="114.605" height="100.517" fill="#12263f"/>
    </clipPath>
    <linearGradient id="linear-gradient" x1="0.5" x2="0.5" y2="1" gradientUnits="objectBoundingBox">
      <stop offset="0" stop-color="#f5f5f5"/>
      <stop offset="0.25" stop-color="#f5f5f5"/>
      <stop offset="1" stop-color="#a7b3cf"/>
    </linearGradient>
    <linearGradient id="linear-gradient-2" x1="0.5" x2="0.5" y2="1" gradientUnits="objectBoundingBox">
      <stop offset="0" stop-color="#2a9d8d"/>
      <stop offset="1" stop-color="#43a99b"/>
    </linearGradient>
    <linearGradient id="linear-gradient-3" x1="0.5" x2="0.5" y2="1" gradientUnits="objectBoundingBox">
      <stop offset="0" stop-color="#fdbe41"/>
      <stop offset="1" stop-color="#d09f40"/>
    </linearGradient>
    <linearGradient id="linear-gradient-6" x1="0.5" x2="0.5" y2="1" gradientUnits="objectBoundingBox">
      <stop offset="0" stop-color="#7e53c5"/>
      <stop offset="1" stop-color="#080383"/>
    </linearGradient>
    <linearGradient id="linear-gradient-7" x1="0.5" x2="0.5" y2="1" gradientUnits="objectBoundingBox">
      <stop offset="0" stop-color="#116eb9"/>
      <stop offset="1" stop-color="#1894f6"/>
    </linearGradient>
  </defs>
  <g id="Grupo_179428" data-name="Grupo 179428" transform="translate(6446.083 9899.603)">
    <g id="Grupo_175628" data-name="Grupo 175628" transform="translate(-6446.083 -9899.603)">
      <g id="Grupo_175627" data-name="Grupo 175627" clip-path="url(#clip-path)">
        <path id="Trazado_217868" data-name="Trazado 217868" d="M101.915,69.478a27.979,27.979,0,0,1,9.467,14.982A27.187,27.187,0,0,1,90.219,117.3c-15.183,2.815-29.88-7.539-31.834-22.545-.329-2.525-.015-5.128-.141-7.688a2.872,2.872,0,0,0-.931-2.04c-6.372-4.141-12.828-8.152-19.2-12.292a2.05,2.05,0,0,0-2.483.126Q22.76,79.886,9.885,86.9a6.326,6.326,0,0,1-6.931-.1A6.145,6.145,0,0,1,.017,80.9,6.046,6.046,0,0,1,3.442,75.67C14.6,69.93,25.753,64.194,36.968,58.576A3.692,3.692,0,0,1,40,58.97c7.367,4.673,14.657,9.465,21.971,14.22.491.319.994.619,1.445.9,1.7-1.6,3.389-3.07,4.9-4.7a3.477,3.477,0,0,0,.532-2.173q.046-17.373.021-34.747c0-3.772.074-3.847,3.927-3.851,3.773,0,7.545-.016,11.317,0,2.33.013,2.78.466,2.783,2.815q.018,14.991.007,29.981v2.074c1.924.761,3.209.173,4.5-1.133,2.556-2.576,5.278-4.987,8.233-7.749a14.564,14.564,0,0,1-1.982-1.586c-1.216-1.392-.663-2.97,1.137-3.155q6.609-.681,13.236-1.19c2.091-.161,2.734.626,2.547,2.678-.359,3.951-.612,7.913-1.066,11.852-.114,1-.608,2.452-1.31,2.73-.678.269-1.878-.658-2.8-1.156a7.708,7.708,0,0,1-1.3-1.2l-6.186,5.9m6.562,21.261a23.457,23.457,0,0,0-46.914-.09,23.457,23.457,0,1,0,46.914.09m-35.859-58.4V66.265l10.517-2.951V32.337ZM61.442,77.348c-.108-.158-.158-.3-.259-.368-7.359-4.8-14.7-9.619-22.118-14.332a2.992,2.992,0,0,0-2.459.1c-5.965,2.969-11.88,6.04-17.809,9.081Q12.1,75.263,5.409,78.694c-1.319.673-2.233,1.785-1.714,3.167A4.362,4.362,0,0,0,6.059,84.14c.73.263,1.891-.305,2.726-.755,8.715-4.7,17.426-9.4,26.075-14.221a3.761,3.761,0,0,1,4.493.089c5.512,3.636,11.124,7.122,16.7,10.659,1.088.69,2.2,1.349,3.3,2.025l2.088-4.589m40.5-19.973-8.1,7.592c1.536.728,2.767,1.355,4.038,1.889.415.175,1.161.332,1.368.12,2-2.056,3.926-4.192,5.87-6.3l-3.179-3.3m8.928-4.974-7.511.668,6.83,6.915c.216-2.412.436-4.862.68-7.583" transform="translate(0 -17.244)" fill="#12263f"/>
        <path id="Trazado_217869" data-name="Trazado 217869" d="M21.012,25.815q0-11.508,0-23.016c0-2.309.476-2.774,2.779-2.778C28.027.014,32.26.065,36.492,0c1.8-.027,2.477.726,2.473,2.485q-.045,19.742,0,39.484a2.557,2.557,0,0,1-1.632,2.614c-4.382,2.149-8.714,4.4-13.081,6.582-2.1,1.049-3.23.3-3.236-2.135q-.026-11.607-.006-23.214m3.62,21.119c3.2-1.6,6.111-3.128,9.083-4.521A2.525,2.525,0,0,0,35.4,39.73c-.066-11.384-.035-22.769-.041-34.153,0-.632-.066-1.264-.1-1.836H24.632Z" transform="translate(-12.664 0)" fill="#12263f"/>
        <path id="Trazado_217870" data-name="Trazado 217870" d="M97.106,169.523c0-4.561-.054-9.123.048-13.682a3.381,3.381,0,0,1,1.081-2.479c.505-.329,1.768.1,2.469.544,4.343,2.764,8.664,5.57,12.886,8.514a3.886,3.886,0,0,1,1.474,2.693c.13,6.078.082,12.161.059,18.242-.008,2.156-.555,2.682-2.72,2.692-4.23.019-8.461-.018-12.691.017-1.85.015-2.628-.846-2.616-2.66.032-4.627.011-9.254.011-13.881m3.736-11.261V182.3h10.664c0-5.5.016-10.84-.03-16.181a1.817,1.817,0,0,0-.674-1.3c-3.218-2.174-6.48-4.281-9.959-6.559" transform="translate(-58.527 -92.376)" fill="#12263f"/>
        <path id="Trazado_217871" data-name="Trazado 217871" d="M38.934,176.114c0,4.031-.051,8.063.023,12.093.035,1.867-.728,2.651-2.572,2.633-4.295-.04-8.591-.022-12.886-.008-1.718.006-2.526-.764-2.514-2.529.037-5.419-.043-10.839.073-16.255a3.314,3.314,0,0,1,1.335-2.357c4.421-2.757,8.926-5.38,13.427-8.006,1.883-1.1,3.08-.428,3.1,1.742.042,4.229.012,8.458.013,12.688M24.576,187.066H35.212V166.218c-3.422,2.022-6.655,3.907-9.85,5.856a1.74,1.74,0,0,0-.753,1.225c-.054,4.548-.034,9.1-.034,13.768" transform="translate(-12.649 -97.149)" fill="#12263f"/>
        <path id="Trazado_217872" data-name="Trazado 217872" d="M115.089,69.554c0,3.238.029,6.476-.011,9.713-.031,2.509-1.282,3.2-3.434,1.887-4.339-2.641-8.7-5.253-12.937-8.049a4.114,4.114,0,0,1-1.571-2.832c-.188-3.492-.089-7-.064-10.5.014-2.114.6-2.7,2.711-2.707,4.229-.016,8.458.039,12.687-.025,1.87-.029,2.65.779,2.631,2.6-.035,3.3-.01,6.608-.011,9.912m-3.8,7.146V60.746H100.67c0,3-.017,5.89.024,8.78a1.342,1.342,0,0,0,.527.966c3.274,2.054,6.575,4.066,10.066,6.209" transform="translate(-58.486 -34.383)" fill="#12263f"/>
        <path id="Trazado_217873" data-name="Trazado 217873" d="M201.9,149.419a23.457,23.457,0,1,1-23.381-23.466A23.433,23.433,0,0,1,201.9,149.419m-21.86-.364c0-3.506.1-6.741-.073-9.963a2.715,2.715,0,0,0-1.57-1.987c-1.251-.328-1.918.674-1.928,1.9-.033,3.837-.021,7.674-.008,11.511.006,1.464.76,2.156,2.241,2.13,1.984-.034,3.97-.023,5.954,0,1.227.012,2.125-.4,2.114-1.764-.01-1.335-.9-1.813-2.113-1.82-1.449-.008-2.9,0-4.617,0m13.641-16.227c-1.563-.016-4.163,2.448-3.874,3.447a4.21,4.21,0,0,0,1.625,1.682,22.041,22.041,0,0,0,3.452-3.4c.146-.187-.889-1.294-1.2-1.732m4.4,18.385a6.878,6.878,0,0,0,2.251-.572c.98-.669,1.1-2.159.136-2.451a8.7,8.7,0,0,0-4.786,0c-.954.287-.847,1.785.139,2.454a6.923,6.923,0,0,0,2.26.568m-21.664-21.57c.39.98.54,2.054,1.155,2.637.358.338,2.108-.039,2.129-.218a20.952,20.952,0,0,0-.008-4.68,2.915,2.915,0,0,0-2.156-.177c-.6.469-.739,1.526-1.12,2.438m-9.147,32.206c-.419-.308-1.5-1.342-1.685-1.2a22.3,22.3,0,0,0-3.434,3.389,4.115,4.115,0,0,0,1.642,1.629c1.061.3,3.456-2.164,3.476-3.816m28.591,2.067a47.716,47.716,0,0,0-4.442-3.256c-.172-.1-1.109,1.106-1.691,1.706a35.522,35.522,0,0,0,3.549,3.284c.218.16,1.283-.839,2.584-1.734M181.017,169.1a16.648,16.648,0,0,0-2.092-2.952c-.249-.226-1.735.269-1.789.583a14.674,14.674,0,0,0-.114,4.238c.043.353,1.445.978,1.705.784a15.825,15.825,0,0,0,2.289-2.652m-22.26-18.028c2.406.012,3.419-.724,2.973-2.223-.485-1.628-1.893-1.321-3.118-1.37-1.208-.048-2.289.159-2.622,1.53s.61,2.052,2.768,2.062m8.489-14.2c.049-1.682-2.544-4.342-3.561-3.962a3.514,3.514,0,0,0-1.521,1.784,17.163,17.163,0,0,0,3.324,3.257c.247.177,1.319-.8,1.758-1.079" transform="translate(-93.427 -75.924)" fill="url(#linear-gradient)"/>
        <path id="Trazado_217874" data-name="Trazado 217874" d="M182.823,38H193.34V68.973l-10.517,2.951Z" transform="translate(-110.205 -22.904)" fill="url(#linear-gradient-2)"/>
        <path id="Trazado_217875" data-name="Trazado 217875" d="M66.826,128.672l-2.088,4.589c-1.1-.676-2.211-1.335-3.3-2.025-5.578-3.537-11.189-7.023-16.7-10.659a3.76,3.76,0,0,0-4.493-.089c-8.649,4.818-17.361,9.523-26.076,14.221-.834.45-2,1.018-2.726.755a4.361,4.361,0,0,1-2.364-2.278c-.519-1.383.4-2.494,1.714-3.168q6.7-3.422,13.388-6.862c5.929-3.041,11.844-6.111,17.809-9.08a2.991,2.991,0,0,1,2.458-.1c7.414,4.712,14.76,9.533,22.119,14.332.1.066.151.21.259.368" transform="translate(-5.384 -68.568)" fill="url(#linear-gradient-3)"/>
        <path id="Trazado_217876" data-name="Trazado 217876" d="M244.374,101.033l3.179,3.3c-1.944,2.113-3.866,4.249-5.87,6.3-.207.213-.952.056-1.368-.119-1.27-.535-2.5-1.162-4.038-1.89l8.1-7.592" transform="translate(-142.428 -60.902)" fill="url(#linear-gradient-3)"/>
        <path id="Trazado_217877" data-name="Trazado 217877" d="M267.741,88.51c-.244,2.721-.464,5.172-.68,7.583l-6.83-6.915,7.511-.668" transform="translate(-156.866 -53.354)" fill="url(#linear-gradient-3)"/>
        <path id="Trazado_217878" data-name="Trazado 217878" d="M30.13,52.613V9.42H40.756c.032.572.1,1.2.1,1.836.006,11.384-.025,22.769.041,34.153a2.525,2.525,0,0,1-1.682,2.682c-2.973,1.393-5.884,2.918-9.083,4.521" transform="translate(-18.162 -5.678)" fill="url(#linear-gradient-6)"/>
        <path id="Trazado_217879" data-name="Trazado 217879" d="M106.535,165.876c3.479,2.278,6.741,4.386,9.959,6.559a1.817,1.817,0,0,1,.674,1.3c.046,5.341.03,10.683.03,16.181H106.535Z" transform="translate(-64.219 -99.99)" fill="url(#linear-gradient-7)"/>
        <path id="Trazado_217880" data-name="Trazado 217880" d="M30.019,194.734c0-4.672-.02-9.22.034-13.768a1.74,1.74,0,0,1,.753-1.225c3.195-1.949,6.428-3.834,9.85-5.856v20.848Z" transform="translate(-18.093 -104.818)" fill="url(#linear-gradient-6)"/>
        <path id="Trazado_217881" data-name="Trazado 217881" d="M116.816,82.326c-3.491-2.143-6.792-4.155-10.066-6.209a1.342,1.342,0,0,1-.527-.966c-.041-2.89-.024-5.781-.024-8.78h10.617Z" transform="translate(-64.014 -40.008)" fill="url(#linear-gradient-7)"/>
        <path id="Trazado_217882" data-name="Trazado 217882" d="M212.615,165.883c1.72,0,3.168-.006,4.617,0,1.215.007,2.1.485,2.113,1.82.011,1.367-.887,1.776-2.114,1.764-1.984-.019-3.97-.03-5.954,0-1.482.025-2.236-.667-2.241-2.13-.014-3.837-.025-7.674.008-11.511.01-1.224.677-2.226,1.928-1.9a2.716,2.716,0,0,1,1.57,1.987c.169,3.222.073,6.457.073,9.963" transform="translate(-125.998 -92.752)" fill="#12263f"/>
        <path id="Trazado_217883" data-name="Trazado 217883" d="M246.5,143.261c.315.439,1.349,1.546,1.2,1.732a22.06,22.06,0,0,1-3.452,3.4,4.21,4.21,0,0,1-1.625-1.681c-.29-1,2.31-3.463,3.874-3.447" transform="translate(-146.24 -86.357)" fill="#12263f"/>
        <path id="Trazado_217884" data-name="Trazado 217884" d="M258.832,184.453a6.913,6.913,0,0,1-2.26-.568c-.985-.669-1.093-2.167-.139-2.454a8.7,8.7,0,0,1,4.786,0c.969.292.844,1.782-.136,2.451a6.877,6.877,0,0,1-2.251.571" transform="translate(-154.179 -109.164)" fill="#12263f"/>
        <path id="Trazado_217885" data-name="Trazado 217885" d="M208.934,131.322c.381-.912.521-1.969,1.12-2.438a2.914,2.914,0,0,1,2.156.177,20.971,20.971,0,0,1,.008,4.679c-.02.179-1.771.557-2.129.218-.616-.582-.766-1.656-1.156-2.636" transform="translate(-125.945 -77.603)" fill="#12263f"/>
        <path id="Trazado_217886" data-name="Trazado 217886" d="M178.135,214.482c-.019,1.653-2.415,4.117-3.476,3.816a4.115,4.115,0,0,1-1.642-1.628,22.286,22.286,0,0,1,3.434-3.389c.186-.141,1.265.893,1.684,1.2" transform="translate(-104.293 -128.557)" fill="#12263f"/>
        <path id="Trazado_217887" data-name="Trazado 217887" d="M248.579,216.58c-1.3.9-2.367,1.894-2.584,1.735a35.573,35.573,0,0,1-3.549-3.284c.583-.6,1.52-1.806,1.691-1.706a47.755,47.755,0,0,1,4.442,3.255" transform="translate(-146.145 -128.588)" fill="#12263f"/>
        <path id="Trazado_217888" data-name="Trazado 217888" d="M214.3,230.014a15.824,15.824,0,0,1-2.289,2.652c-.26.194-1.662-.431-1.705-.784a14.688,14.688,0,0,1,.114-4.238c.054-.314,1.54-.809,1.789-.583a16.668,16.668,0,0,1,2.092,2.953" transform="translate(-126.708 -136.837)" fill="#12263f"/>
        <path id="Trazado_217889" data-name="Trazado 217889" d="M160.173,183.732c-2.158-.01-3.1-.691-2.768-2.062s1.414-1.578,2.622-1.53c1.225.049,2.633-.259,3.118,1.37.447,1.5-.566,2.235-2.972,2.223" transform="translate(-94.844 -108.584)" fill="#12263f"/>
        <path id="Trazado_217890" data-name="Trazado 217890" d="M178.121,147.366c-.439.282-1.511,1.256-1.758,1.079a17.162,17.162,0,0,1-3.324-3.257,3.514,3.514,0,0,1,1.521-1.784c1.017-.38,3.61,2.28,3.561,3.962" transform="translate(-104.302 -86.422)" fill="#12263f"/>
      </g>
    </g>
  </g>
</svg>
