<svg xmlns="http://www.w3.org/2000/svg" xmlns:xlink="http://www.w3.org/1999/xlink" width="63.522" height="63.5" viewBox="0 0 63.522 63.5">
  <defs>
    <clipPath id="clip-path">
      <rect id="Rectángulo_52672" data-name="Rectángulo 52672" width="63.522" height="63.5" transform="translate(0 0)" fill="#12263f"/>
    </clipPath>
  </defs>
  <g id="Grupo_179443" data-name="Grupo 179443" transform="translate(0 0.003)">
    <g id="Grupo_171309" data-name="Grupo 171309" transform="translate(0 -0.003)" clip-path="url(#clip-path)">
      <path id="Trazado_212438" data-name="Trazado 212438" d="M61.532,30.752h1.99v1.981h-1.99a29.931,29.931,0,0,1-28.79,28.8V63.5H30.754V61.53A29.935,29.935,0,0,1,1.962,32.751H0V30.757H1.962a29.927,29.927,0,0,1,28.776-28.8V0h2V1.959a29.932,29.932,0,0,1,28.8,28.793m-9.8,11.961c1.309-1.67,3.078-7.984,2.772-9.974h-1.89v-2h1.949A22.938,22.938,0,0,0,32.738,8.925v1.953H30.745V8.969A22.828,22.828,0,0,0,8.934,30.76H10.88v1.992H8.969c-.176,2.4,1.637,8.76,2.8,9.953l2.459-1.112c-.081-.276-.182-.551-.241-.835a5.762,5.762,0,0,1-.113-.9,4.378,4.378,0,0,1,3.291-4.579.3.3,0,0,0,.186-.115,5.072,5.072,0,0,1,2.411-1.886c.469-.211.947-.4,1.385-.588-.1-.5-.24-.958-.295-1.429a4.454,4.454,0,0,1,2.824-4.793.358.358,0,0,0,.251-.312,3.11,3.11,0,0,1,1.255-1.89,19.2,19.2,0,0,1,1.934-1.09c.325-.17.679-.285,1.028-.428-.053-.157-.1-.284-.141-.414A4.8,4.8,0,0,1,28.665,18a3.654,3.654,0,0,1,5.494-.722,4.482,4.482,0,0,1,1.536,3.972,12.969,12.969,0,0,1-.294,1.5c.085.035.185.072.281.118.679.322,1.377.612,2.032.977a3.438,3.438,0,0,1,1.7,1.909,1.369,1.369,0,0,0,.838.9,4.464,4.464,0,0,1,2.391,4.584c-.063.478-.193.946-.295,1.433.383.161.783.317,1.174.494a5.563,5.563,0,0,1,2.6,1.979.4.4,0,0,0,.234.14,3.944,3.944,0,0,1,2.733,2.165,4.884,4.884,0,0,1,.177,4.112l2.471,1.149M32.737,54.533c.151,0,.258.006.363,0a23.821,23.821,0,0,0,4.311-.668c.227-.056.285-.151.284-.376-.008-2.426-.021-4.852.005-7.277a1.805,1.805,0,0,0-1.029-1.79c-.784-.394-1.592-.741-2.4-1.1a.351.351,0,0,0-.285.052,3.592,3.592,0,0,1-4.467.02.335.335,0,0,0-.259-.062c-.85.369-1.711.72-2.535,1.142a1.6,1.6,0,0,0-.926,1.49q0,3.8,0,7.6c0,.164.041.245.215.276,1.135.2,2.266.42,3.4.608.428.071.867.072,1.339.107V52.61h1.98Zm-2-50.577a27.493,27.493,0,0,0-19.244,8.8A27.373,27.373,0,0,0,3.965,30.736c.139.007.225.015.311.015H6.931A24.935,24.935,0,0,1,30.735,6.93Zm28.8,26.78A27.926,27.926,0,0,0,32.755,3.959V6.93A24.941,24.941,0,0,1,56.561,30.737Zm-2.971,2.021a24.939,24.939,0,0,1-23.8,23.8v2.98a27.563,27.563,0,0,0,20.034-9.7,27.3,27.3,0,0,0,6.725-17.08Zm-25.829,23.8a24.934,24.934,0,0,1-23.8-23.8H4.01a27.316,27.316,0,0,0,8.145,18.662A27.575,27.575,0,0,0,30.733,59.53ZM35.105,32.68a4.945,4.945,0,0,1-.076-3.647,4.185,4.185,0,0,1,2.532-2.575,1.659,1.659,0,0,0-.829-.867c-.814-.4-1.645-.766-2.475-1.135a.3.3,0,0,0-.254.051,3.621,3.621,0,0,1-4.49.017.283.283,0,0,0-.231-.056c-.907.407-1.822.8-2.706,1.254-.271.139-.455.446-.714.712a4.217,4.217,0,0,1,2.6,2.587,4.984,4.984,0,0,1-.058,3.638,9.848,9.848,0,0,1,3.345,1.87,9.564,9.564,0,0,1,3.359-1.85M23.791,53.147c.009-.11.018-.166.018-.223,0-2.258-.006-4.517,0-6.775A1.778,1.778,0,0,0,22.8,44.433c-.792-.4-1.61-.748-2.422-1.1a.35.35,0,0,0-.284.052,3.607,3.607,0,0,1-4.467.017.388.388,0,0,0-.311-.042c-.644.255-1.284.523-1.92.8-.2.087-.383.209-.593.325a23.114,23.114,0,0,0,10.99,8.668m15.893.008a23.076,23.076,0,0,0,11-8.658.881.881,0,0,0-.126-.1c-.8-.364-1.6-.73-2.4-1.081a.359.359,0,0,0-.281.071,3.593,3.593,0,0,1-4.44.01.335.335,0,0,0-.257-.068c-.817.349-1.638.69-2.436,1.078a1.867,1.867,0,0,0-1.059,1.869c.02,2.161.006,4.322.006,6.483v.394M28.127,41.625c-.774-2.452-.283-4.465,1.839-5.982a.944.944,0,0,0-.16-.118c-.832-.385-1.664-.77-2.5-1.14a.348.348,0,0,0-.275.067,3.6,3.6,0,0,1-4.44.02.422.422,0,0,0-.336-.043c-.592.227-1.181.465-1.761.722-.3.135-.589.317-.889.481A4.856,4.856,0,0,1,21.474,41.6a9.508,9.508,0,0,1,3.315,1.862,9.57,9.57,0,0,1,3.339-1.841m7.223-.031a9.777,9.777,0,0,1,3.341,1.866,9.723,9.723,0,0,1,3.339-1.838c-.784-2.451-.283-4.46,1.845-5.984a3.784,3.784,0,0,0-.4-.249c-.7-.323-1.408-.63-2.105-.958a.453.453,0,0,0-.523.067,3.524,3.524,0,0,1-3.792.322c-.565-.592-1.154-.366-1.759-.069s-1.2.558-1.872.87a4.439,4.439,0,0,1,2.1,2.653,5.017,5.017,0,0,1-.167,3.318m-1.618-20.73a2.976,2.976,0,0,0-.434-1.578,1.736,1.736,0,0,0-2.963-.2,2.909,2.909,0,0,0,.1,3.582,1.666,1.666,0,0,0,2.553.066,2.765,2.765,0,0,0,.743-1.874m-3.97,18.783a2.92,2.92,0,0,0,.519,1.688,1.693,1.693,0,0,0,2.637.337,2.856,2.856,0,0,0,.108-3.859,1.668,1.668,0,0,0-2.648.106,2.787,2.787,0,0,0-.617,1.727m17.892-.12a6.368,6.368,0,0,0-.3-1.067,1.874,1.874,0,0,0-1.611-1.24,1.8,1.8,0,0,0-1.691,1.019A2.9,2.9,0,0,0,44.39,41.6a1.634,1.634,0,0,0,2.134.3,2.768,2.768,0,0,0,1.13-2.365m-6.979-8.8a2.714,2.714,0,0,0-.513-1.622,1.69,1.69,0,0,0-2.679-.293,2.847,2.847,0,0,0,.036,3.921,1.655,1.655,0,0,0,2.392-.037,2.73,2.73,0,0,0,.764-1.969M22.82,30.585a2.937,2.937,0,0,0,.566,1.89,1.674,1.674,0,0,0,2.259.5,2.771,2.771,0,0,0,.048-4.422,1.583,1.583,0,0,0-1.979.142,2.532,2.532,0,0,0-.893,1.888m-2.992,9.1a2.84,2.84,0,0,0-.517-1.651,1.7,1.7,0,0,0-2.819-.14,2.885,2.885,0,0,0,.052,3.648,1.669,1.669,0,0,0,2.555.041,2.746,2.746,0,0,0,.728-1.9" transform="translate(0 0.003)" fill="#12263f"/>
    </g>
  </g>
</svg>
