<svg xmlns="http://www.w3.org/2000/svg" xmlns:xlink="http://www.w3.org/1999/xlink" width="132" height="132.02" viewBox="0 0 132 132.02">
  <defs>
    <clipPath id="clip-path">
      <rect id="Rectángulo_56297" data-name="Rectángulo 56297" width="132" height="132.019" fill="#12263f"/>
    </clipPath>
    <linearGradient id="linear-gradient" x1="0.5" x2="0.5" y2="1" gradientUnits="objectBoundingBox">
      <stop offset="0" stop-color="#278d7e"/>
      <stop offset="1" stop-color="#4fc1b1"/>
    </linearGradient>
    <linearGradient id="linear-gradient-2" x1="0.5" x2="0.5" y2="1" gradientUnits="objectBoundingBox">
      <stop offset="0" stop-color="#f5f5f5"/>
      <stop offset="0.25" stop-color="#f5f5f5"/>
      <stop offset="1" stop-color="#a7b3cf"/>
    </linearGradient>
  </defs>
  <g id="Grupo_179431" data-name="Grupo 179431" transform="translate(6451 9256.027)">
    <g id="Grupo_175632" data-name="Grupo 175632" transform="translate(-6451 -9256.027)">
      <g id="Grupo_175631" data-name="Grupo 175631" clip-path="url(#clip-path)">
        <path id="Trazado_217904" data-name="Trazado 217904" d="M155.085,0a12.706,12.706,0,0,1,6.079,2.875,11.308,11.308,0,0,1,3.553,7.3,29.77,29.77,0,0,1,2.751-2.7,16.714,16.714,0,0,1,4.181-2.636,8.11,8.11,0,0,1,9.358,3.353,8.347,8.347,0,0,1-.472,9.857,19.97,19.97,0,0,1-1.383,1.526c-4.522,4.532-9.063,9.045-13.559,13.6a2.617,2.617,0,0,0-.73,1.642q-.058,23.912-.029,47.823c0,.252.03.5.058.936h1.4q6.51,0,13.019,0c2.373,0,3.1.726,3.1,3.065q.006,7.605,0,15.211c0,3.315-.451,3.757-3.828,3.757H164.942c-.083,1.061-.175,2.068-.238,3.077a10.89,10.89,0,0,1-11.037,10.1c-11.429.071-22.859.022-34.289.018a5.139,5.139,0,0,1-.682-.1v-4.3h1.527q16.435,0,32.871,0c3.622,0,6.265-1.788,7.032-4.861a27.66,27.66,0,0,0,.406-3.838c-.712-.04-1.247-.1-1.781-.1q-23.718-.007-47.437,0a13.84,13.84,0,0,1-1.417-.026,2.206,2.206,0,0,1-2.258-2.442q-.031-8.572,0-17.144a2.2,2.2,0,0,1,2.178-2.391,11.978,11.978,0,0,1,1.416-.029H160.32V38.553c-.328.274-.616.478-.862.724-2.344,2.335-4.714,4.645-6.991,7.044a3.2,3.2,0,0,0-.811,2c-.053,9.152-.034,18.3-.036,27.456,0,2.847-.555,3.4-3.382,3.4H102.091c-2.669,0-3.256-.585-3.259-3.241,0-2.572,0-5.144,0-7.545a69.889,69.889,0,0,1-7.238-2.173,24.023,24.023,0,0,1-14.172-27.5c2.857-11.873,13.29-19.776,25.309-18.8,9.35.756,16.135,5.578,20.229,14.053a1.783,1.783,0,0,0,1.891,1.263c4.6-.066,9.2,0,13.792-.062a2.821,2.821,0,0,0,1.776-.737q9.663-9.569,19.229-19.235a3.1,3.1,0,0,0,.748-1.772,14.623,14.623,0,0,0-.075-3.083,6.508,6.508,0,0,0-6.237-5.933c-.171-.012-.344-.019-.515-.019q-37.125,0-74.249.007a6.535,6.535,0,0,0-6.635,4.872,12.306,12.306,0,0,0-.277,2.938q-.023,27.07-.011,54.14v1.758H68V66.656c0-18.218.043-36.437-.022-54.655C67.949,5.446,72.028.944,77.525.131,77.6.12,77.67.045,77.742,0Zm5.31,92.309V88.07h-4.382v4.211h-4.434V88.053h-4.385V92.3h-4.44V88.082H138.38v4.191h-4.419V88.092h-4.416v4.178h-4.395V88.093h-4.392v4.185h-4.382v-4.2h-4.305v13.044h65.87V88.088h-4.355v4.187h-4.4V88.05H164.82v4.259ZM147.128,51.939l-.293-.136c-1.408,1.442-2.771,2.932-4.246,4.3a4.756,4.756,0,0,1-2.091,1.116c-3.221.726-6.467,1.343-9.7,2-2.512.507-3.694-.7-3.183-3.233.576-2.86,1.2-5.711,1.69-8.586a6.428,6.428,0,0,1,2.132-3.968c1.26-1.112,2.4-2.364,3.727-3.7H124.834A24.213,24.213,0,0,1,103.327,68.09v6.626h43.8ZM118.554,35.206c-2.854-6.677-11.86-13.088-22.565-10.377A19.867,19.867,0,0,0,81.43,47.146c1.514,8.811,10.139,16.944,17.4,16.318v-1.4q0-11.785,0-23.569c0-2.725.576-3.292,3.347-3.294q6.44,0,12.879,0h3.5M172.5,19.782l-5.35-5.334-31.8,31.8,5.339,5.347L172.5,19.782M103.284,63.6a19.752,19.752,0,0,0,17.251-22.839c-.151-.907-.5-1.177-1.416-1.169-4.9.046-9.8.02-14.693.026-.368,0-.736.059-1.142.093ZM175.9,16.539c1.493-1.221,2.549-2.683,2.017-4.758A3.79,3.79,0,0,0,174.7,8.825c-1.969-.328-3.32.711-4.4,2.1l5.609,5.611M135.868,53.685l-2.739-2.819c-.23,1.169-.447,2.27-.695,3.526l3.434-.706" transform="translate(-50.414)" fill="#12263f"/>
        <path id="Trazado_217905" data-name="Trazado 217905" d="M0,231.416c1.491-1.844,2.636-1.908,4.327-.218Q37.861,264.729,71.4,298.257c.842.841,1.5,1.711,1,2.947s-1.6,1.376-2.783,1.376q-33.248-.017-66.5.012A3.167,3.167,0,0,1,0,301.025Zm4.492,6.527v60.13h60.13l-60.13-60.13" transform="translate(0 -170.573)" fill="#12263f"/>
        <rect id="Rectángulo_56294" data-name="Rectángulo 56294" width="4.234" height="4.222" transform="translate(26.465 8.847)" fill="#12263f"/>
        <rect id="Rectángulo_56295" data-name="Rectángulo 56295" width="4.224" height="4.262" transform="translate(35.3 8.853)" fill="#12263f"/>
        <rect id="Rectángulo_56296" data-name="Rectángulo 56296" width="4.26" height="4.228" transform="translate(44.086 8.857)" fill="#12263f"/>
        <path id="Trazado_217906" data-name="Trazado 217906" d="M287.013,345.122h4.425v-4.259H295.8v4.225h4.4V340.9h4.355v13.037h-65.87V340.894h4.305v4.2h4.382v-4.186h4.392v4.177h4.395v-4.177h4.416v4.182H265V340.9h4.374v4.221h4.44v-4.251H278.2v4.228h4.435v-4.211h4.382Z" transform="translate(-177.032 -252.814)" fill="url(#linear-gradient)"/>
        <path id="Trazado_217907" data-name="Trazado 217907" d="M248.639,166.025V188.8h-43.8v-6.626a24.213,24.213,0,0,0,21.506-28.357h10.324c-1.331,1.332-2.467,2.584-3.726,3.7a6.428,6.428,0,0,0-2.132,3.969c-.487,2.875-1.114,5.726-1.69,8.586-.51,2.533.672,3.74,3.183,3.233,3.238-.653,6.484-1.269,9.7-2a4.757,4.757,0,0,0,2.091-1.116c1.475-1.37,2.839-2.86,4.246-4.3l.293.136" transform="translate(-151.926 -114.085)" fill="url(#linear-gradient-2)"/>
        <path id="Trazado_217908" data-name="Trazado 217908" d="M156.414,104.668h-3.5q-6.439,0-12.879,0c-2.771,0-3.347.569-3.347,3.294q0,11.785,0,23.569v1.4c-7.264.625-15.889-7.507-17.4-16.318a19.866,19.866,0,0,1,14.559-22.317c10.706-2.711,19.711,3.7,22.565,10.377" transform="translate(-88.275 -69.462)" fill="#ece5f7"/>
        <path id="Trazado_217909" data-name="Trazado 217909" d="M365.958,61.264,334.144,93.079,328.8,87.732l31.8-31.8,5.35,5.334" transform="translate(-243.87 -41.482)" fill="#eeac3a"/>
        <path id="Trazado_217910" data-name="Trazado 217910" d="M204.673,177.286V153.4c.406-.035.774-.092,1.142-.093,4.9-.006,9.8.02,14.693-.026.915-.009,1.265.261,1.416,1.169a19.753,19.753,0,0,1-17.251,22.839" transform="translate(-151.803 -113.684)" fill="#7f4fc7"/>
        <path id="Trazado_217911" data-name="Trazado 217911" d="M469.689,41.7l-5.609-5.611c1.083-1.393,2.434-2.432,4.4-2.1a3.79,3.79,0,0,1,3.222,2.956c.532,2.075-.524,3.537-2.017,4.759" transform="translate(-344.202 -25.162)" fill="url(#linear-gradient)"/>
        <path id="Trazado_217913" data-name="Trazado 217913" d="M17.388,260.807l60.13,60.13H17.388Zm8.686,38.222c0,3.436-.01,6.872,0,10.308.008,2.085.815,2.913,2.876,2.917,6.915.012,13.83,0,20.745.009a2.319,2.319,0,0,0,1.74-4.2Q40.857,297.5,30.3,286.922c-.819-.821-1.7-1.363-2.864-.873s-1.374,1.528-1.369,2.671c.015,3.436.005,6.872.005,10.308" transform="translate(-12.896 -193.437)" fill="#b1daf6"/>
        <path id="Trazado_217914" data-name="Trazado 217914" d="M51,370.972c0-3.436.01-6.872-.006-10.308,0-1.144.2-2.179,1.369-2.671s2.045.051,2.864.873Q65.78,369.448,76.362,380a2.319,2.319,0,0,1-1.74,4.2c-6.915-.009-13.83,0-20.745-.009-2.061,0-2.868-.831-2.876-2.916-.014-3.436,0-6.872,0-10.308m18.288,8.786-13.77-13.764v13.764Z" transform="translate(-37.82 -265.38)" fill="#12263f"/>
        <path id="Trazado_217915" data-name="Trazado 217915" d="M82.274,403.266H68.5V389.5l13.77,13.764" transform="translate(-50.808 -288.888)" fill="url(#linear-gradient-2)"/>
      </g>
    </g>
  </g>
</svg>
