<svg xmlns="http://www.w3.org/2000/svg" xmlns:xlink="http://www.w3.org/1999/xlink" width="342.015" height="233.502" viewBox="0 0 342.015 233.502">
  <defs>
    <linearGradient id="linear-gradient" x1="0.5" x2="0.5" y2="1" gradientUnits="objectBoundingBox">
      <stop offset="0" stop-color="#fff"/>
      <stop offset="1" stop-color="#f1f7fa"/>
    </linearGradient>
    <linearGradient id="linear-gradient-2" x1="0.5" x2="0.5" y2="1" gradientUnits="objectBoundingBox">
      <stop offset="0" stop-color="#fff"/>
      <stop offset="1" stop-color="#d3d3d3"/>
    </linearGradient>
    <linearGradient id="linear-gradient-15" x1="0.5" x2="0.5" y2="1" gradientUnits="objectBoundingBox">
      <stop offset="0" stop-color="#2a9d8d"/>
      <stop offset="1" stop-color="#43a99b"/>
    </linearGradient>
  </defs>
  <g id="Grupo_179438" data-name="Grupo 179438" transform="translate(-285.254 -2533.177)">
    <g id="Grupo_176494" data-name="Grupo 176494" transform="translate(-58.359 1734.409)">
      <g id="Grupo_46739" data-name="Grupo 46739" transform="translate(343.613 802.095)">
        <g id="Grupo_46726" data-name="Grupo 46726" transform="translate(43.893 69.951)">
          <path id="Trazado_97178" data-name="Trazado 97178" d="M727.385,1473.615h35.427a7.94,7.94,0,0,1,7.941,7.94v16.515a7.94,7.94,0,0,1-7.941,7.94h-.263l2.843,9.526a.451.451,0,0,1-.706.488L751.56,1506.01H727.385a7.94,7.94,0,0,1-7.941-7.94v-16.515A7.94,7.94,0,0,1,727.385,1473.615Z" transform="translate(-719.445 -1473.615)" fill="#f1f1f1"/>
          <path id="Trazado_97179" data-name="Trazado 97179" d="M793.593,1521.7H759.579a3.93,3.93,0,0,1-3.93-3.931h0a3.93,3.93,0,0,1,3.93-3.93h34.014a3.93,3.93,0,0,1,3.93,3.93h0A3.93,3.93,0,0,1,793.593,1521.7Z" transform="translate(-750.241 -1507.828)" fill="#00223d" opacity="0.25"/>
          <path id="Trazado_97180" data-name="Trazado 97180" d="M793.593,1602.054H759.579a3.93,3.93,0,0,1-3.93-3.93h0a3.93,3.93,0,0,1,3.93-3.931h34.014a3.93,3.93,0,0,1,3.93,3.931h0A3.93,3.93,0,0,1,793.593,1602.054Z" transform="translate(-750.241 -1576.184)" fill="#00223d" opacity="0.25"/>
        </g>
        <g id="Grupo_46727" data-name="Grupo 46727" transform="translate(221.349 25.372)">
          <path id="Trazado_97181" data-name="Trazado 97181" d="M1954.812,1175.156h-38.636a8.659,8.659,0,0,0-8.659,8.659v18.011a8.659,8.659,0,0,0,8.659,8.659h.286l-3.1,10.389a.492.492,0,0,0,.77.533l14.316-10.921h26.364a8.66,8.66,0,0,0,8.66-8.659v-18.011A8.66,8.66,0,0,0,1954.812,1175.156Z" transform="translate(-1907.517 -1175.156)" fill="#f1f1f1"/>
          <rect id="Rectángulo_28254" data-name="Rectángulo 28254" width="45.888" height="7.861" rx="3.93" transform="translate(4.575 7.362)" fill="#00223d" opacity="0.25"/>
          <path id="Rectángulo_28255" data-name="Rectángulo 28255" d="M3.93,0H22.147a3.93,3.93,0,0,1,3.93,3.93v0a3.93,3.93,0,0,1-3.93,3.93H3.93A3.93,3.93,0,0,1,0,3.93v0A3.93,3.93,0,0,1,3.93,0Z" transform="translate(5.834 19.246)" fill="#00223d" opacity="0.25"/>
        </g>
        <g id="Grupo_46728" data-name="Grupo 46728" transform="translate(9.641 157.16)">
          <path id="Trazado_97182" data-name="Trazado 97182" d="M491.3,2059.141a8.5,8.5,0,0,1,5.272-1.66c4.426,0,6.769,2.408,6.769,5.793,0,1.952-.944,3.938-2.864,5.923-2.441,2.57-4.2,3.839-5.3,3.839a1.833,1.833,0,0,1-1.855-1.855c0-.911.846-1.822,2.311-3.156a1.389,1.389,0,0,1,.26-.228c1.66-1.53,2.18-2.375,2.18-3.417a1.933,1.933,0,0,0-2.148-2.018,6.985,6.985,0,0,0-2.083.391,6.718,6.718,0,0,1-1.758.391,2.03,2.03,0,0,1-1.953-2.083A2.461,2.461,0,0,1,491.3,2059.141Zm4.459,21.708a3.233,3.233,0,0,1-3.32-3.32,3.183,3.183,0,0,1,3.32-3.059,3.119,3.119,0,0,1,3.059,3.059A3.16,3.16,0,0,1,495.757,2080.848Z" transform="translate(-490.127 -2057.481)" fill="#26aab7"/>
        </g>
        <g id="Grupo_46729" data-name="Grupo 46729" transform="translate(275.925 84.698)">
          <path id="Trazado_97183" data-name="Trazado 97183" d="M2273.67,1573.439a5.586,5.586,0,0,1,3.467-1.091c2.91,0,4.452,1.584,4.452,3.809a5.7,5.7,0,0,1-1.884,3.9c-1.6,1.691-2.762,2.525-3.489,2.525a1.206,1.206,0,0,1-1.22-1.22c0-.6.557-1.2,1.52-2.076a.987.987,0,0,1,.171-.15c1.092-1.006,1.434-1.562,1.434-2.247a1.272,1.272,0,0,0-1.412-1.327,4.591,4.591,0,0,0-1.37.257,4.394,4.394,0,0,1-1.156.257,1.334,1.334,0,0,1-1.283-1.37A1.619,1.619,0,0,1,2273.67,1573.439Zm2.932,14.276a2.126,2.126,0,0,1-2.183-2.184,2.093,2.093,0,0,1,2.183-2.012,2.051,2.051,0,0,1,2.012,2.012A2.078,2.078,0,0,1,2276.6,1587.715Z" transform="translate(-2272.9 -1572.348)" fill="#3c4973"/>
        </g>
        <g id="Grupo_46735" data-name="Grupo 46735" transform="translate(298.778 127.308)">
          <g id="Grupo_46730" data-name="Grupo 46730">
            <path id="Trazado_97184" data-name="Trazado 97184" d="M2467.837,1895.2H2427.2a1.3,1.3,0,0,1-1.3-1.3v-34.979a1.3,1.3,0,0,1,2.6,0V1892.6h39.335a1.3,1.3,0,1,1,0,2.6Z" transform="translate(-2425.901 -1857.623)" fill="#3c4973"/>
          </g>
          <g id="Grupo_46734" data-name="Grupo 46734" transform="translate(3.076 5.611)">
            <g id="Grupo_46731" data-name="Grupo 46731" transform="translate(0 3.408)">
              <path id="Trazado_97185" data-name="Trazado 97185" d="M2447.8,1938.015a1.3,1.3,0,0,1-.935-2.2l13.134-13.586a1.3,1.3,0,0,1,1.643-.187l6.211,4.028,6.549-7.609a1.3,1.3,0,1,1,1.971,1.7l-7.29,8.471a1.3,1.3,0,0,1-1.694.242l-6.264-4.064-12.388,12.816A1.3,1.3,0,0,1,2447.8,1938.015Z" transform="translate(-2446.495 -1918.005)" fill="#f5ca56"/>
            </g>
            <g id="Grupo_46733" data-name="Grupo 46733" transform="translate(24.06)">
              <g id="Grupo_46732" data-name="Grupo 46732">
                <path id="Trazado_97186" data-name="Trazado 97186" d="M2613.42,1904.625l-1.853-3.754-3.989-1.273,8.88-4.41Z" transform="translate(-2607.578 -1895.188)" fill="#f5ca56"/>
              </g>
            </g>
          </g>
        </g>
        <g id="Grupo_46736" data-name="Grupo 46736" transform="translate(59.843 22.3)">
          <path id="Trazado_97187" data-name="Trazado 97187" d="M834.1,1170.336a7.872,7.872,0,1,1,7.872-7.871A7.88,7.88,0,0,1,834.1,1170.336Zm0-13.575a5.7,5.7,0,1,0,5.7,5.7A5.71,5.71,0,0,0,834.1,1156.761Z" transform="translate(-826.232 -1154.593)" fill="#00223d"/>
        </g>
        <g id="Grupo_46737" data-name="Grupo 46737" transform="translate(302.097 89.163)">
          <path id="Trazado_97188" data-name="Trazado 97188" d="M2453.887,1613.771a5.766,5.766,0,1,1,5.766-5.765A5.771,5.771,0,0,1,2453.887,1613.771Zm0-9.943a4.178,4.178,0,1,0,4.178,4.178A4.182,4.182,0,0,0,2453.887,1603.828Z" transform="translate(-2448.122 -1602.24)" fill="#ebf3fa" opacity="0.25"/>
        </g>
        <g id="Grupo_46738" data-name="Grupo 46738" transform="translate(0 121.947)">
          <path id="Trazado_97189" data-name="Trazado 97189" d="M430.758,1832.084a5.177,5.177,0,1,1,5.177-5.177A5.183,5.183,0,0,1,430.758,1832.084Zm0-8.928a3.751,3.751,0,1,0,3.751,3.751A3.755,3.755,0,0,0,430.758,1823.156Z" transform="translate(-425.581 -1821.73)" fill="#7d6eb2"/>
        </g>
        <path id="Trazado_97190" data-name="Trazado 97190" d="M2286.105,1090.233a2.817,2.817,0,1,1-2.816-2.816A2.816,2.816,0,0,1,2286.105,1090.233Z" transform="translate(-2003.416 -1075.15)" fill="#fff"/>
        <circle id="Elipse_3864" data-name="Elipse 3864" cx="5.538" cy="5.538" r="5.538" transform="translate(22.448 67.23) rotate(-45)" fill="#ebf3fa" opacity="0.25"/>
        <path id="Trazado_97191" data-name="Trazado 97191" d="M2383.441,1009.456a4.163,4.163,0,1,1-4.164-4.163A4.163,4.163,0,0,1,2383.441,1009.456Z" transform="translate(-2083.922 -1005.292)" fill="#ebf3fa" opacity="0.25"/>
        <path id="Trazado_97192" data-name="Trazado 97192" d="M2526.786,1682.222a3.554,3.554,0,1,1-3.554-3.554A3.554,3.554,0,0,1,2526.786,1682.222Z" transform="translate(-2206.893 -1578.089)" fill="#ebf3fa" opacity="0.25"/>
        <path id="Trazado_97193" data-name="Trazado 97193" d="M2310.85,1152.064a4.431,4.431,0,1,1-4.43-4.43A4.43,4.43,0,0,1,2310.85,1152.064Z" transform="translate(-2021.719 -1126.373)" fill="#fff"/>
        <circle id="Elipse_3865" data-name="Elipse 3865" cx="4.494" cy="4.494" r="4.494" transform="translate(74.996 15.213) rotate(-22.5)" fill="#00223d"/>
      </g>
      <path id="Trazado_97194" data-name="Trazado 97194" d="M896.077,2528.415H630.065a1.572,1.572,0,0,1-1.572-1.572h0a1.571,1.571,0,0,1,1.572-1.571H896.077a1.571,1.571,0,0,1,1.572,1.571h0A1.572,1.572,0,0,1,896.077,2528.415Z" transform="translate(-254.573 -1496.146)" fill="url(#linear-gradient)"/>
      <g id="Grupo_46788" data-name="Grupo 46788" transform="translate(359.728 864.683)">
        <g id="Grupo_46746" data-name="Grupo 46746" transform="translate(88.597 7.552)">
          <path id="v-2" d="M1200.592,1625.025h0l4.083.015.924,9.644-4.766,2.516-5.083-2.488.822-9.672Z" transform="translate(-1185.43 -1602.599)" fill="#e49963"/>
          <g id="Grupo_46745" data-name="Grupo 46745">
            <path id="Trazado_97195" data-name="Trazado 97195" d="M1146.8,1508.284c2.513,6.28,8.549,9.77,13.481,7.8s6.893-8.665,4.38-14.944-8.548-9.771-13.481-7.8S1144.287,1502,1146.8,1508.284Z" transform="translate(-1142.856 -1490.113)" fill="#e49963"/>
            <path id="Trazado_97196" data-name="Trazado 97196" d="M1257.308,1554.21a.924.924,0,1,0,.231-1.286A.924.924,0,0,0,1257.308,1554.21Z" transform="translate(-1237.648 -1541.126)"/>
            <path id="Trazado_97197" data-name="Trazado 97197" d="M1210.9,1572.436a1,1,0,1,0,.25-1.392A1,1,0,0,0,1210.9,1572.436Z" transform="translate(-1198.163 -1556.529)"/>
            <path id="Trazado_97198" data-name="Trazado 97198" d="M1248.857,1572.347c1.249.984,2.811,2.173,2.811,2.173a2.424,2.424,0,0,1-1.744,2.158c.637-.577,1.2-1.346.533-2.233S1248.857,1572.347,1248.857,1572.347Z" transform="translate(-1230.601 -1557.789)" fill="#d68d5d"/>
            <g id="Grupo_46740" data-name="Grupo 46740" transform="translate(10.458 12.775)">
              <path id="Trazado_97199" data-name="Trazado 97199" d="M1197.106,1562.941a.461.461,0,0,1-.449-.568,2.458,2.458,0,0,1,2.244-1.963.461.461,0,1,1,0,.922c-1.041.005-1.348,1.243-1.351,1.255A.461.461,0,0,1,1197.106,1562.941Z" transform="translate(-1196.645 -1560.41)" fill="#201d40"/>
            </g>
            <g id="Grupo_46741" data-name="Grupo 46741" transform="translate(18.308 9.679)">
              <path id="Trazado_97200" data-name="Trazado 97200" d="M1249.587,1541.134a.389.389,0,0,1-.194-.053.385.385,0,0,1-.137-.526,1.9,1.9,0,0,1,1.184-.846,1.97,1.97,0,0,1,1.6.507.384.384,0,1,1-.48.6,1.249,1.249,0,0,0-.981-.352,1.111,1.111,0,0,0-.661.479A.384.384,0,0,1,1249.587,1541.134Z" transform="translate(-1249.203 -1539.683)" fill="#201d40"/>
            </g>
            <path id="Trazado_97201" data-name="Trazado 97201" d="M1127.141,1488.36c-2.126-6.051,3.052-9.531,3.052-9.531s-1.389-.124-1.555-2.075a5.132,5.132,0,0,0,3.229-.07c6.9-2.5,11.653-2.465,11.653.488,0,1.051,4.558.331,4.176,7.4.027-.5-1.6-3.406-3.141-3.7s-.15,1.767-3.365,2.208c-3.245.446-5.631-.342-7.614,1.488-1.551,1.6-1.935,9.719-1.7,10.207C1131.336,1493.661,1128.075,1491.019,1127.141,1488.36Z" transform="translate(-1126.629 -1474.88)" fill="#3c4973"/>
            <path id="Trazado_97202" data-name="Trazado 97202" d="M1179.244,1572.347s.293,3.685-.238,4.824c-.553-1.478-1.74.088-2.855.236-2.695.356-7.555-.542-8.037,3.5-3.292,1.042-6.378-6.006-6.378-6.006-.189,7.874,5.573,12.346,13.865,11.036C1181.065,1585.073,1181.571,1577.466,1179.244,1572.347Z" transform="translate(-1156.489 -1557.789)" fill="#3c4973"/>
            <g id="Grupo_46742" data-name="Grupo 46742" transform="translate(15.25 19.927)">
              <path id="Trazado_97203" data-name="Trazado 97203" d="M1230.551,1610.472a7,7,0,0,1-1.664-.652.308.308,0,0,1,.29-.542,4.45,4.45,0,0,0,3.4.577,3.209,3.209,0,0,0,1.77-1.4.307.307,0,0,1,.544.285,3.781,3.781,0,0,1-2.123,1.7A4.156,4.156,0,0,1,1230.551,1610.472Z" transform="translate(-1228.725 -1608.291)" fill="#d68d5d"/>
            </g>
            <g id="Grupo_46744" data-name="Grupo 46744" transform="translate(1.252 16.726)">
              <path id="Trazado_97204" data-name="Trazado 97204" d="M1138.927,1587.3a2.4,2.4,0,1,1-3.665.644A2.658,2.658,0,0,1,1138.927,1587.3Z" transform="translate(-1135.008 -1586.858)" fill="#e49963"/>
              <g id="Grupo_46743" data-name="Grupo 46743" transform="translate(1.546 1.284)">
                <path id="Trazado_97205" data-name="Trazado 97205" d="M1147.522,1598.006a.353.353,0,0,0,.106-.119,1.572,1.572,0,0,0-.167-1.924,1.675,1.675,0,0,0-1.909-.35.348.348,0,1,0,.314.62.992.992,0,0,1,1.1.214.89.89,0,0,1,.053,1.108.348.348,0,0,0,.506.45Z" transform="translate(-1145.361 -1595.453)" fill="#d68d5d"/>
              </g>
            </g>
          </g>
        </g>
        <path id="Trazado_97206" data-name="Trazado 97206" d="M1235.981,2472.349a3.772,3.772,0,0,1,2.726-2.623c3.61,4.981,12.476,1.925,12.183,8.662-13.483-.087-19.086,0-19.086,0a49.389,49.389,0,0,1,.6-6.658l.7.129Z" transform="translate(-1127.498 -2313.578)"/>
        <path id="Trazado_97207" data-name="Trazado 97207" d="M1100.927,2473.223a3.771,3.771,0,0,1,2.726-2.622c3.61,4.981,12.476,1.924,12.183,8.661-13.483-.086-19.086,0-19.086,0a49.449,49.449,0,0,1,.595-6.657l.7.129Z" transform="translate(-1012.617 -2314.323)"/>
        <path id="Trazado_97208" data-name="Trazado 97208" d="M1220.746,1960.59s2.189,31.926,1.3,39.024-4.038,16.2-3.682,39.675c-4.4,1.1-10.763,0-10.763,0s-.944-26.547,3.7-38.4c-1.889-11.517-7.952-37.9-7.952-37.9Z" transform="translate(-1103.295 -1880.49)" fill="#213755"/>
        <path id="Trazado_97209" data-name="Trazado 97209" d="M1118.276,1966.432s-4.42,35.843-6.584,42.642-6.383,12.546-10.3,35.674c-4.516.226-8.723,0-8.723,0s.61-29.337,7.644-36.009c.238-11.68-1.137-42.077-1.137-42.077Z" transform="translate(-1009.145 -1885.459)" fill="#344966"/>
        <g id="v" transform="translate(87.742 38.516)">
          <path id="h-5" d="M1121.918,1683.961s7.677-2.688,10.237-1.455c7.954,3.83,9.779,0,9.779,0,2.542.219,10.215,1.455,10.215,1.455,0,8.569.572,17.167.416,23.652-.11,5.647.967,21.015.967,21.015a77.557,77.557,0,0,1-16.471,2.277,75.335,75.335,0,0,1-16.156-2.187s.427-15.565.783-21.35C1121.573,1700.883,1121.918,1692.507,1121.918,1683.961Z" transform="translate(-1120.905 -1682.183)" fill="#7d6eb2"/>
        </g>
        <g id="c" transform="translate(116.805 40.294)">
          <path id="c-2" data-name="c" d="M1331.309,1706.825c-3.169-7.56-12.572-12.369-13.646-12.736l-2.181,9.706a56.8,56.8,0,0,1,7.8,5.561c-.556,2.7-.463,5.353-2.028,8.771,0,0,1.359-1.875,3.035-.766,1.63,1.079,4.626-1.123,4.626-1.123A8.029,8.029,0,0,0,1331.309,1706.825Z" transform="translate(-1315.482 -1694.09)" fill="#6f5fa5"/>
        </g>
        <g id="c-3" data-name="c" transform="translate(77.498 40.294)">
          <g id="c-4" data-name="c" transform="translate(31.385 2.929)">
            <g id="c-5" data-name="c">
              <path id="c-6" data-name="c" d="M1289.043,1742.61a.818.818,0,0,0,.165.033h.18a.857.857,0,0,0,.729-.6l8.447-27.235a.828.828,0,0,0,.034-.165.9.9,0,0,0,0-.107c0-.022,0-.043,0-.065s-.008-.037-.01-.056a.856.856,0,0,0-.588-.68.9.9,0,0,0-.161-.034.936.936,0,0,0-.183,0h-21.266l-8.521,28.941h21.188Z" transform="translate(-1267.059 -1713.698)" fill="#8ec8c8"/>
              <path id="c-7" data-name="c" d="M1271.967,1713.736a.859.859,0,0,0-1.074.565l-8.394,27.168-.019.063a.858.858,0,0,0,.561,1.071h0a.858.858,0,0,0,1.074-.564l8.416-27.23A.858.858,0,0,0,1271.967,1713.736Z" transform="translate(-1262.441 -1713.698)" fill="#00223d"/>
            </g>
          </g>
          <path id="c-8" data-name="c" d="M1431.361,1797.4a.882.882,0,0,1,.254-.111c-.008-.013-.019-.026-.028-.039a1.55,1.55,0,0,1,.079-2.131.922.922,0,0,1,.305-.128,1.282,1.282,0,0,1,.393-1.426.966.966,0,0,1,.549-.153,1.281,1.281,0,0,1,.42-1.493,1.5,1.5,0,0,1,1.635,2.467,1.073,1.073,0,0,1-.475.171,1.459,1.459,0,0,1-.213,1.9.918.918,0,0,1-.306.128,1.282,1.282,0,0,1-.393,1.426.952.952,0,0,1-.507.153,1.1,1.1,0,0,1-.333,1.322,1.269,1.269,0,0,1-1.381-2.083Z" transform="translate(-1374.384 -1777.158)" fill="#e49963"/>
          <path id="Trazado_97210" data-name="Trazado 97210" d="M1258.746,1795.682l1.939-1.123a3.662,3.662,0,0,1,3.65-2.816c-.357,1.154-.87,2.816-.87,2.816s1.532,1.19,5.166-.846c3.552-.8,2.035,1.791,3.213,1.978,1.737.274-1.267,3.688-4.814,4.21-4.59.676-5.134-.263-5.134-.263l-2.6.908Z" transform="translate(-1227.913 -1777.157)" fill="#e49963"/>
          <path id="c-9" data-name="c" d="M1065.214,1715.552c6.479-.452,17.532-3.653,17.532-3.653a10.446,10.446,0,0,1,1.28,6.317c-10.062,8.822-25.2,11.674-29.852,9.55-4.242-1.938-1.247-27.761,9.4-33.676h0C1067.228,1700.268,1065.214,1715.552,1065.214,1715.552Z" transform="translate(-1052.319 -1694.09)" fill="#6f5fa5"/>
        </g>
        <g id="Grupo_46755" data-name="Grupo 46755" transform="translate(158.915 0)">
          <path id="Trazado_97211" data-name="Trazado 97211" d="M1768.357,2471.244c-3.611,4.815-12.476,1.86-12.183,8.374,13.482-.084,19.086,0,19.086,0a46.234,46.234,0,0,0-.6-6.437Z" transform="translate(-1732.455 -2314.87)" fill="#060f17"/>
          <path id="Trazado_97212" data-name="Trazado 97212" d="M1903.41,2472.088c-3.61,4.816-12.476,1.861-12.183,8.374,13.482-.083,19.086,0,19.086,0a46.2,46.2,0,0,0-.595-6.436Z" transform="translate(-1847.335 -2315.588)" fill="#060f17"/>
          <path id="Trazado_97213" data-name="Trazado 97213" d="M1787.38,1979.039s-2.189,30.865-1.3,37.726,4.038,15.659,3.681,38.356c4.4,1.064,10.763,0,10.763,0s.944-25.664-3.7-37.127c1.889-11.134,7.952-36.637,7.952-36.637Z" transform="translate(-1757.719 -1896.183)" fill="#060f17"/>
          <path id="Trazado_97214" data-name="Trazado 97214" d="M1851.69,1984.686s4.42,34.651,6.584,41.223,6.383,12.13,10.3,34.489a46.911,46.911,0,0,0,9.9-.894s-1.786-27.468-8.82-33.917c-.238-11.292,1.137-40.678,1.137-40.678Z" transform="translate(-1813.71 -1900.987)" fill="#060f17"/>
          <g id="Grupo_46752" data-name="Grupo 46752" transform="translate(36.207 7.961)">
            <g id="Grupo_46751" data-name="Grupo 46751">
              <g id="Grupo_46750" data-name="Grupo 46750">
                <path id="Trazado_97215" data-name="Trazado 97215" d="M1869.3,1521.019c-2.4,5.987-8.15,9.314-12.852,7.433s-6.572-8.26-4.176-14.247,8.15-9.315,12.852-7.433S1871.694,1515.032,1869.3,1521.019Z" transform="translate(-1849.523 -1501.97)" fill="#e49963"/>
                <path id="Trazado_97216" data-name="Trazado 97216" d="M1862.767,1564.805a.881.881,0,1,1-.22-1.226A.88.88,0,0,1,1862.767,1564.805Z" transform="translate(-1857.975 -1550.606)"/>
                <path id="Trazado_97217" data-name="Trazado 97217" d="M1906.182,1582.182a.954.954,0,1,1-.239-1.327A.954.954,0,0,1,1906.182,1582.182Z" transform="translate(-1894.793 -1565.289)"/>
                <path id="Trazado_97218" data-name="Trazado 97218" d="M1865.6,1582.1c-1.191.939-2.68,2.072-2.68,2.072a2.312,2.312,0,0,0,1.662,2.057c-.607-.55-1.14-1.283-.508-2.129S1865.6,1582.1,1865.6,1582.1Z" transform="translate(-1859.467 -1566.492)" fill="#d68d5d"/>
                <g id="Grupo_46747" data-name="Grupo 46747" transform="translate(10.972 13.905)">
                  <path id="Trazado_97219" data-name="Trazado 97219" d="M1915.43,1573.128a.44.44,0,0,1-.427-.338c-.012-.046-.307-1.192-1.288-1.2a.44.44,0,1,1,0-.879,2.344,2.344,0,0,1,2.139,1.872.439.439,0,0,1-.326.529A.421.421,0,0,1,1915.43,1573.128Z" transform="translate(-1913.277 -1570.715)"/>
                </g>
                <g id="Grupo_46748" data-name="Grupo 46748" transform="translate(3.238 10.954)">
                  <path id="Trazado_97220" data-name="Trazado 97220" d="M1863.974,1552.337a.366.366,0,0,1-.315-.179,1.068,1.068,0,0,0-.637-.46,1.2,1.2,0,0,0-.93.336.366.366,0,0,1-.458-.572,1.877,1.877,0,0,1,1.526-.483,1.8,1.8,0,0,1,1.128.807.366.366,0,0,1-.315.552Z" transform="translate(-1861.497 -1550.954)"/>
                </g>
                <path id="Trazado_97221" data-name="Trazado 97221" d="M1857.921,1497.294c-1.732-5.571.459-8.53.459-8.53-1.488-.3-2.066.217-2.066.217a3.3,3.3,0,0,1-.183-2.86c-3.074-1.2-4.606.792-7.38,1.464-3.8.918-8.491-.6-8.93-5.234a.792.792,0,0,1,1.235-.731,3.488,3.488,0,0,0,2.069.6,3.729,3.729,0,0,1-.837-2.139.791.791,0,0,1,1.307-.616c.79.658,2.255,1.279,4.867.789,1.738-.325,5.719-3.11,8.2-2.566a6.111,6.111,0,0,1,4.327,4.638,6.369,6.369,0,0,1,5.481,6c.491,5.386-5.749,9.52-5.749,9.52Z" transform="translate(-1839.818 -1477.62)" fill="#3c4973"/>
                <path id="Trazado_97222" data-name="Trazado 97222" d="M1947.785,1600.7a2.292,2.292,0,1,0,3.5.6A2.534,2.534,0,0,0,1947.785,1600.7Z" transform="translate(-1930.36 -1581.96)" fill="#e49963"/>
                <g id="Grupo_46749" data-name="Grupo 46749" transform="translate(17.297 19.546)">
                  <path id="Trazado_97223" data-name="Trazado 97223" d="M1955.964,1610.917a.331.331,0,0,1-.1-.113,1.5,1.5,0,0,1,.152-1.835,1.6,1.6,0,0,1,1.819-.34.332.332,0,0,1-.3.593.945.945,0,0,0-1.045.209.847.847,0,0,0-.047,1.056.331.331,0,0,1-.481.431Z" transform="translate(-1955.623 -1608.478)" fill="#d68d5d"/>
                </g>
                <path id="Trazado_97224" data-name="Trazado 97224" d="M1864.5,1620.112a.281.281,0,0,1,.3-.423,19.911,19.911,0,0,0,5.266.47.281.281,0,0,1,.217.468,3.5,3.5,0,0,1-5.779-.516Z" transform="translate(-1860.777 -1598.464)" fill="#fff"/>
              </g>
            </g>
          </g>
          <path id="Trazado_97225" data-name="Trazado 97225" d="M1683.538,1672.344s.225-.61-19.178-.453l-5.2,6.148c5.384,4.317,23.414,5.084,23.414,5.084Z" transform="translate(-1649.936 -1634.89)" fill="#060f17"/>
          <path id="Trazado_97226" data-name="Trazado 97226" d="M1869.579,1668.469l6.12-.571,5.921,1.651-6.671,6.865Z" transform="translate(-1828.927 -1631.515)" fill="#6451a8"/>
          <path id="Trazado_97227" data-name="Trazado 97227" d="M1883.782,1646.687c2.494,2.048,3,3.463,8.3.726l.8-8.146-8.625-.68Z" transform="translate(-1841.008 -1606.583)" fill="#e49963"/>
          <path id="Trazado_97228" data-name="Trazado 97228" d="M1823.1,1676.081h0l-1.814-.718.243-2.561-5.031,4.04-1.421.226-1.358-.475-4.231-4.871-.217,2.564-1.6.321h0l-5.77.934-.687,32.03-2.277,10.9a54.917,54.917,0,0,0,24.638,2.022l-.283-10.939,5.98-31.3Z" transform="translate(-1768.835 -1634.769)" fill="#7d6eb2"/>
          <path id="Trazado_97229" data-name="Trazado 97229" d="M1879,1729.174l-3.615,24.455,2,2.781,2.61-2,.888-25.028Z" transform="translate(-1833.869 -1683.639)" fill="#2e2d57"/>
          <path id="Trazado_97230" data-name="Trazado 97230" d="M1898.15,1707.86l1.321-.348,1.346.587-.569,2.9-1.9-.17Z" transform="translate(-1853.231 -1665.212)" fill="#2e2d57"/>
          <g id="Grupo_46753" data-name="Grupo 46753" transform="translate(25.769 37.158)">
            <path id="Trazado_97231" data-name="Trazado 97231" d="M1784.733,1673.094l-.907,29.541-3.91,19.023s-6.184-.624-9.983-4.239l4.869-14.32,1.664-29.926Z" transform="translate(-1769.933 -1673.094)" fill="#060f17"/>
            <path id="Trazado_97232" data-name="Trazado 97232" d="M1838.25,1673.094l-.9,29.145-4.5-22.336Z" transform="translate(-1823.45 -1673.094)" fill="#122739"/>
          </g>
          <g id="Grupo_46754" data-name="Grupo 46754" transform="translate(45.125 39.048)">
            <path id="Trazado_97233" data-name="Trazado 97233" d="M1907.555,1685.745l-8.03,47.892s10.656,1.309,15.037-1.573l-2.378-15.743,2.906-26.728Z" transform="translate(-1899.525 -1685.745)" fill="#060f17"/>
            <path id="Trazado_97234" data-name="Trazado 97234" d="M1926.559,1685.745l-4.693,28.07,8.4-21.178Z" transform="translate(-1918.529 -1685.745)" fill="#122739"/>
          </g>
          <path id="Trazado_97235" data-name="Trazado 97235" d="M1597.508,1435.2c.427,1.494.555,3.105,2.45,3.911,0,0-.28,4.958-.071,9.027,0,0,4.587-5.172,4.586-5.176a27.262,27.262,0,0,1-.223-6.5c.065-.457.155-.912.226-1.37a5.132,5.132,0,0,0-.153-3.592c-2.617-5.185-1.736-6.892-2.1-7.145-.586-.258-1.963.785-1.185,3.333a9.316,9.316,0,0,1,.568,3.676s-1.978-.374-2.681.318C1598.611,1432,1597.009,1433.454,1597.508,1435.2Z" transform="translate(-1597.412 -1424.318)" fill="#e49963"/>
          <path id="Trazado_97236" data-name="Trazado 97236" d="M1605.179,1536.617a17.611,17.611,0,0,1,6.159-1.292c4.914,14.645,8.417,20.163,6.957,24.367-1.218,3.505-5.072,3.225-6.957.6C1608.852,1556.826,1606.651,1543.663,1605.179,1536.617Z" transform="translate(-1604.019 -1518.745)" fill="#060f17"/>
          <path id="Trazado_97237" data-name="Trazado 97237" d="M1987.185,1711.507l15.482,24.223,18.388,10.383-5.668,5.643-18.448-8.087-12.661-17.865Z" transform="translate(-1926.495 -1668.611)" fill="#060f17"/>
          <path id="Trazado_97238" data-name="Trazado 97238" d="M1868,1677.068a12.733,12.733,0,0,1-4.372,2.888l-2.476-6.548,1.26-1.686Z" transform="translate(-1821.756 -1634.769)" fill="#fff"/>
          <path id="Trazado_97239" data-name="Trazado 97239" d="M1907,1683.217a10.969,10.969,0,0,0,3.788,3.62l3.6-5.984-.94-1.9Z" transform="translate(-1860.755 -1640.918)" fill="#fff"/>
        </g>
        <g id="с" transform="translate(81.07 103.513)">
          <path id="с-2" data-name="с" d="M1217.178,2125.084H1081.992c-3.177,0-5.753-1.733-5.753-3.871h0c0-2.138,2.576-3.871,5.753-3.871h135.186c3.177,0,5.753,1.733,5.753,3.871h0C1222.93,2123.351,1220.355,2125.084,1217.178,2125.084Z" transform="translate(-1076.239 -2117.342)" fill="url(#linear-gradient-2)"/>
          <g id="Grupo_46756" data-name="Grupo 46756" transform="translate(54.592 4.773)">
            <path id="Trazado_97240" data-name="Trazado 97240" d="M1443.56,2206.817h0a1.824,1.824,0,0,1-1.528-2.822l35.693-54.7,3.055,1.994-35.694,54.7A1.825,1.825,0,0,1,1443.56,2206.817Z" transform="translate(-1441.733 -2149.296)" fill="url(#linear-gradient-2)"/>
          </g>
          <g id="Grupo_46757" data-name="Grupo 46757" transform="translate(53.051 4.773)">
            <path id="Trazado_97241" data-name="Trazado 97241" d="M1468.634,2206.817h0a1.824,1.824,0,0,0,1.528-2.822l-35.693-54.7-3.055,1.994,35.693,54.7A1.826,1.826,0,0,0,1468.634,2206.817Z" transform="translate(-1431.413 -2149.296)" fill="url(#linear-gradient-2)"/>
          </g>
        </g>
        <g id="с-3" data-name="с" transform="translate(220.892 82.108)">
          <path id="с-4" data-name="с" d="M2045.9,2342.314h0a1.747,1.747,0,0,1-1.747-1.748V2309.6h3.494v30.961A1.747,1.747,0,0,1,2045.9,2342.314Z" transform="translate(-2039.402 -2259.482)" fill="url(#linear-gradient-2)"/>
          <path id="с-5" data-name="с" d="M2127.992,2342.314h0a1.747,1.747,0,0,1-1.747-1.748V2309.6h3.5v30.961A1.748,1.748,0,0,1,2127.992,2342.314Z" transform="translate(-2109.233 -2259.482)" fill="url(#linear-gradient-2)"/>
          <path id="с-6" data-name="с" d="M2235.715,2342.314h0a1.747,1.747,0,0,1-1.748-1.748V2309.6h3.495v30.961A1.747,1.747,0,0,1,2235.715,2342.314Z" transform="translate(-2200.865 -2259.482)" fill="url(#linear-gradient-2)"/>
          <path id="с-7" data-name="с" d="M2317.809,2342.314h0a1.747,1.747,0,0,1-1.748-1.748V2309.6h3.495v30.961A1.747,1.747,0,0,1,2317.809,2342.314Z" transform="translate(-2270.698 -2259.482)" fill="url(#linear-gradient-2)"/>
          <path id="с-8" data-name="с" d="M2040.125,1978.205v36.844a.759.759,0,0,1-.759.759h-22.844a4.173,4.173,0,0,0-4.173,4.173h0a4.173,4.173,0,0,0,4.173,4.173H2044.3a4.173,4.173,0,0,0,4.173-4.173v-41.776a4.173,4.173,0,0,0-4.173-4.173h0A4.173,4.173,0,0,0,2040.125,1978.205Z" transform="translate(-2012.349 -1974.032)" fill="#344966"/>
          <rect id="с-9" data-name="с" width="18.062" height="42.453" transform="translate(31.95 0)" fill="#344966"/>
          <path id="с-10" data-name="с" d="M2161.047,1978.205v36.844a.76.76,0,0,1-.759.759h-22.844a4.173,4.173,0,0,0-4.173,4.173h0a4.173,4.173,0,0,0,4.173,4.173h27.777a4.173,4.173,0,0,0,4.173-4.173v-41.776a4.173,4.173,0,0,0-4.173-4.173h0A4.173,4.173,0,0,0,2161.047,1978.205Z" transform="translate(-2115.209 -1974.032)" fill="url(#linear-gradient-2)"/>
        </g>
        <g id="с-11" data-name="с" transform="translate(32.044 82.108)">
          <path id="с-12" data-name="с" d="M1057.32,2342.314h0a1.747,1.747,0,0,0,1.748-1.748V2309.6h-3.495v30.961A1.748,1.748,0,0,0,1057.32,2342.314Z" transform="translate(-1009.634 -2259.482)" fill="url(#linear-gradient-2)"/>
          <path id="с-13" data-name="с" d="M975.226,2342.314h0a1.747,1.747,0,0,0,1.747-1.748V2309.6h-3.495v30.961A1.747,1.747,0,0,0,975.226,2342.314Z" transform="translate(-939.801 -2259.482)" fill="url(#linear-gradient-2)"/>
          <path id="с-14" data-name="с" d="M867.5,2342.314h0a1.747,1.747,0,0,0,1.747-1.748V2309.6h-3.495v30.961A1.747,1.747,0,0,0,867.5,2342.314Z" transform="translate(-848.17 -2259.482)" fill="url(#linear-gradient-2)"/>
          <path id="с-15" data-name="с" d="M785.41,2342.314h0a1.747,1.747,0,0,0,1.747-1.748V2309.6h-3.495v30.961A1.747,1.747,0,0,0,785.41,2342.314Z" transform="translate(-778.338 -2259.482)" fill="url(#linear-gradient-2)"/>
          <path id="с-16" data-name="с" d="M877.276,1978.205v36.844a.759.759,0,0,0,.759.759H900.88a4.173,4.173,0,0,1,4.173,4.173h0a4.173,4.173,0,0,1-4.173,4.173H873.1a4.173,4.173,0,0,1-4.173-4.173v-41.776a4.173,4.173,0,0,1,4.173-4.173h0A4.173,4.173,0,0,1,877.276,1978.205Z" transform="translate(-850.869 -1974.032)" fill="#344966"/>
          <rect id="с-17" data-name="с" width="18.061" height="42.453" transform="translate(22.235 42.453) rotate(180)" fill="#344966"/>
          <path id="с-18" data-name="с" d="M756.355,1978.205v36.844a.759.759,0,0,0,.759.759h22.844a4.173,4.173,0,0,1,4.173,4.173h0a4.173,4.173,0,0,1-4.173,4.173H752.182a4.173,4.173,0,0,1-4.173-4.173v-41.776a4.173,4.173,0,0,1,4.173-4.173h0A4.173,4.173,0,0,1,756.355,1978.205Z" transform="translate(-748.009 -1974.032)" fill="url(#linear-gradient-2)"/>
        </g>
        <g id="Grupo_46762" data-name="Grupo 46762" transform="translate(169.116 41.414)">
          <path id="Trazado_97242" data-name="Trazado 97242" d="M2095.33,1732.373c-3.854-1.39-9.808-4.43-5.851-9.985s3.855-3.131,2.431-9.878,3.374-12.056,7.948-10.713,5.741,5.045,11.348,4.108,10.267,4.307,8.156,8.854-3.012,6.737-1.039,9.254,10.865,5.229,7.156,11.26-5.408,5.66-4.12,8.751-1.683,6.611-6.838,6.13-9.822-2.429-11.712-8.185S2095.33,1732.373,2095.33,1732.373Z" transform="translate(-2025.074 -1701.588)" fill="#3c4973"/>
          <path id="Trazado_97243" data-name="Trazado 97243" d="M2012.385,2461.58l-3.045.91-2.294-2.344a11.332,11.332,0,0,0-.35-3.408l5.689-.944A49.3,49.3,0,0,1,2012.385,2461.58Z" transform="translate(-1955.764 -2343.142)" fill="#e49963"/>
          <path id="Trazado_97244" data-name="Trazado 97244" d="M1953.752,2484.925a3.117,3.117,0,0,0-2.272-2.112c-3.009,4.013-10.4,1.551-10.153,6.979,11.237-.07,15.906,0,15.906,0a38.563,38.563,0,0,0-.5-5.365l-.586.1Z" transform="translate(-1900.154 -2366.125)" fill="#aaa5a5"/>
          <path id="Trazado_97245" data-name="Trazado 97245" d="M1880.727,2464.294l-3.171.218-1.823-1.943a18.523,18.523,0,0,0,.51-4.251l5.345.238A49.271,49.271,0,0,1,1880.727,2464.294Z" transform="translate(-1844.363 -2345.289)" fill="#e49963"/>
          <path id="Trazado_97246" data-name="Trazado 97246" d="M1819.453,2484.925a3.118,3.118,0,0,0-2.272-2.112c-3.008,4.013-10.4,1.551-10.153,6.979,11.236-.07,15.906,0,15.906,0a38.489,38.489,0,0,0-.5-5.365l-.586.1Z" transform="translate(-1785.915 -2366.125)" fill="#aaa5a5"/>
          <path id="Trazado_97247" data-name="Trazado 97247" d="M1912.8,2141.951c-8.656,1.166-33.043,10.2-34.4,11.837-2.808,3.377-1.328,21.754-2.661,36.917l7.088.418c3.4-12.349,3.125-17.677,4.66-31.842,0,0,27.861,2.087,37.929-4.708C1935.79,2147.567,1919.8,2140.291,1912.8,2141.951Z" transform="translate(-1844.363 -2075.973)" fill="#213755"/>
          <path id="Trazado_97248" data-name="Trazado 97248" d="M1935.947,2022.791c2.046.349,2.834,1.99,3.327,5.013-7.794,4.592-19.374,4.919-19.374,4.919l-3.69-1.825S1925.5,2027.553,1935.947,2022.791Z" transform="translate(-1878.794 -1974.814)" fill="#d68d5d"/>
          <path id="Trazado_97249" data-name="Trazado 97249" d="M2069.948,1911.5c-3.411,4.957-16.477,15.615-18.64,15.951l-2.62-7.334s12.757-13.808,15.079-16.249C2067.78,1899.632,2075.533,1903.417,2069.948,1911.5Z" transform="translate(-1991.484 -1872.163)" fill="#d68d5d"/>
          <path id="Trazado_97250" data-name="Trazado 97250" d="M2094.825,1907.521c2.735-2.947,6.3-9.6,10.933-9.127s4.97,5.393,3.573,8.042-6.222,9.176-6.222,9.176Z" transform="translate(-2030.73 -1868.978)" fill="#9b9393"/>
          <path id="Trazado_97251" data-name="Trazado 97251" d="M1961.8,2043.109c1.965.677,3.086,6.866,2.535,7.34-8.424,3.336-25.95-.272-25.95-.272l-.931-3.174A138.072,138.072,0,0,0,1961.8,2043.109Z" transform="translate(-1896.863 -1992.098)" fill="#e49963"/>
          <path id="Trazado_97252" data-name="Trazado 97252" d="M2133.489,1931.21c-1.926-9.938-2.756-13.461-3.557-18.137-1.977-11.559,3.837-19.684-6.131-25.223l-7.265,1.171c-5.875,6.181-9.491,11.791-9.8,15.666-.427,5,4.534,7.711,4.534,7.711l-2,13.61s-.469,1.111,7.723,2.659S2133.489,1931.21,2133.489,1931.21Z" transform="translate(-2040.839 -1860.028)" fill="#aaa5a5"/>
          <path id="Trazado_97253" data-name="Trazado 97253" d="M2122.192,1920.32c-3.411,5.014-17.986,17.755-20.176,17.868l-1.568-7.6s13.24-15.516,15.563-17.985C2120.023,1908.316,2127.776,1912.145,2122.192,1920.32Z" transform="translate(-2035.514 -1879.574)" fill="#e49963"/>
          <path id="Trazado_97254" data-name="Trazado 97254" d="M2152.735,1917.174c2.545-3.7,7.679-10.536,12.315-10.063s4.97,5.392,3.573,8.041-6.223,9.177-6.223,9.177Z" transform="translate(-2079.99 -1876.393)" fill="#9b9393"/>
          <path id="Trazado_97255" data-name="Trazado 97255" d="M1875.653,2064.486c-2.679-.658-8.505-2.616-10.852,3.52.589,1.126,2.746-1.654,3.672-1.912,1.471-.409,2.732.364,3.846,1.428,1.6,1.525,4.265.138,4.265.138Z" transform="translate(-1835.063 -2009.581)" fill="#e49963"/>
          <g id="Grupo_46758" data-name="Grupo 46758" transform="translate(0 36.237)">
            <path id="Trazado_97256" data-name="Trazado 97256" d="M1780.14,2097.66h-25.172v-3.38h28.552A3.38,3.38,0,0,1,1780.14,2097.66Z" transform="translate(-1741.636 -2071.862)" fill="#3c4973"/>
            <path id="Trazado_97257" data-name="Trazado 97257" d="M1666.1,1948.759l12.943,21.232,2.992-1.572-14.516-24.225h0A3.38,3.38,0,0,0,1666.1,1948.759Z" transform="translate(-1665.708 -1944.195)" fill="#3c4973"/>
          </g>
          <path id="Trazado_97258" data-name="Trazado 97258" d="M2158.709,1760.9c-1.224,5.112-5.471,8.477-9.486,7.516s-6.278-5.885-5.053-11,5.471-8.477,9.485-7.516S2159.934,1755.783,2158.709,1760.9Z" transform="translate(-2072.422 -1742.543)" fill="#e49963"/>
          <path id="Trazado_97259" data-name="Trazado 97259" d="M2186.769,1842.481l-6.673,4.136s-.591,2.949-.888,3.906c-.61,1.974,1.727,2.837,3.7,1.608a5.781,5.781,0,0,0,2.478-2.873Z" transform="translate(-2102.426 -1821.436)" fill="#e49963"/>
          <path id="Trazado_97260" data-name="Trazado 97260" d="M2142.988,1748.286c1.9.164,6-.166,7.5-1.942,1.069,3.607,5.608,7.04,9.363,8.65.151-3.7.124-10.508-6.51-13.337C2148.132,1739.435,2142.988,1748.286,2142.988,1748.286Z" transform="translate(-2071.7 -1735.367)" fill="#3c4973"/>
          <path id="Trazado_97261" data-name="Trazado 97261" d="M2150.91,1804.225a.718.718,0,1,1-.323-.963A.718.718,0,0,1,2150.91,1804.225Z" transform="translate(-2077.28 -1788.011)"/>
          <path id="Trazado_97262" data-name="Trazado 97262" d="M2188.025,1813.051a.778.778,0,1,1-.349-1.042A.777.777,0,0,1,2188.025,1813.051Z" transform="translate(-2108.756 -1795.447)"/>
          <g id="Grupo_46759" data-name="Grupo 46759" transform="translate(78.32 15.289)">
            <path id="Trazado_97263" data-name="Trazado 97263" d="M2191.868,1805.623a.269.269,0,0,1-.125-.128,2.059,2.059,0,0,0-1.452-1.006.27.27,0,0,1,.076-.535,2.573,2.573,0,0,1,1.868,1.313.271.271,0,0,1-.133.359A.267.267,0,0,1,2191.868,1805.623Z" transform="translate(-2190.06 -1803.951)" fill="#2e2d57"/>
          </g>
          <g id="Grupo_46760" data-name="Grupo 46760" transform="translate(71.914 14.195)">
            <path id="Trazado_97264" data-name="Trazado 97264" d="M2147.323,1797.6a.273.273,0,0,1-.072-.052.27.27,0,0,1,0-.382,1.9,1.9,0,0,1,1.883-.462.27.27,0,0,1-.175.511,1.358,1.358,0,0,0-1.329.335A.27.27,0,0,1,2147.323,1797.6Z" transform="translate(-2147.173 -1796.623)" fill="#2e2d57"/>
          </g>
          <path id="Trazado_97265" data-name="Trazado 97265" d="M2154.656,1820.365a7.2,7.2,0,0,1-1.116,1.06.284.284,0,0,0-.094.379,3.914,3.914,0,0,0,1.735,1.213.076.076,0,0,0,.08-.127,3.7,3.7,0,0,1-.884-1.031.338.338,0,0,1,0-.307c.113-.222.337-.676.488-1.052A.127.127,0,0,0,2154.656,1820.365Z" transform="translate(-2080.563 -1802.59)" fill="#d68d5d"/>
          <path id="Trazado_97266" data-name="Trazado 97266" d="M2224.947,1821.547a1.868,1.868,0,1,0,2.891.071A2.066,2.066,0,0,0,2224.947,1821.547Z" transform="translate(-2140.591 -1803.162)" fill="#e49963"/>
          <g id="Grupo_46761" data-name="Grupo 46761" transform="translate(84.507 18.848)">
            <path id="Trazado_97267" data-name="Trazado 97267" d="M2231.89,1829.9a.263.263,0,0,1-.1-.079,1.222,1.222,0,0,1-.094-1.5,1.3,1.3,0,0,1,1.427-.49.27.27,0,1,1-.17.514.77.77,0,0,0-.818.292.691.691,0,0,0,.088.858.27.27,0,0,1-.337.4Z" transform="translate(-2231.486 -1827.777)" fill="#d68d5d"/>
          </g>
          <path id="Trazado_97268" data-name="Trazado 97268" d="M1988.528,2150.476c-8.656,1.165-33.081,9.081-34.44,10.716-2.808,3.377,3.443,17.84,5.442,36.459h8.356c-.087-13.267.972-25.47-3.11-29.8,0,0,23.41-1.562,35.08-1.562C2005.807,2166.293,2009.1,2146.19,1988.528,2150.476Z" transform="translate(-1910.408 -2082.918)" fill="#344966"/>
          <path id="Trazado_97269" data-name="Trazado 97269" d="M2159.054,1847.386a.22.22,0,0,1,.2-.351,15.647,15.647,0,0,0,4.145,0,.22.22,0,0,1,.2.351,2.747,2.747,0,0,1-4.549,0Z" transform="translate(-2085.328 -1825.309)" fill="#fff"/>
        </g>
        <g id="Grupo_46787" data-name="Grupo 46787" transform="translate(0 45.253)">
          <g id="Grupo_46763" data-name="Grupo 46763" transform="translate(56.042 30.043)">
            <path id="Trazado_97270" data-name="Trazado 97270" d="M1039.865,2047.6c-1.653,1.1-1.2,7.094-.571,7.4,8.6,1.05,23.115-6.071,23.115-6.071l.569-3.185A149.091,149.091,0,0,1,1039.865,2047.6Z" transform="translate(-1019.3 -2028.222)" fill="#e49963"/>
            <path id="Trazado_97271" data-name="Trazado 97271" d="M910.354,1937.41c3.073,4.914,16.524,17.621,18.611,17.809l1.778-7.2s-12.074-15.308-14.2-17.751C912.868,1926.025,905.322,1929.4,910.354,1937.41Z" transform="translate(-908.677 -1928.424)" fill="#e49963"/>
          </g>
          <path id="Trazado_97272" data-name="Trazado 97272" d="M799.713,1740.057c.37-5.031-1.085-9.476-5.1-11.74-4.066-2.294-9.16-.043-9.16-.043h0s-4.312-1.534-8.219,2.77-.952,8.092-2.551,11.231c-.946,1.859-5.76,2.242-4.517,8.3.359,1.746,2.459,2.922,4.238,3.039,3.126.205,6.036-1,7.3.205,4.175,3.981,13.427,2.542,14.722-1.1.4-1.129,8.724,1.056,7.894-6.635C803.905,1742.183,799.382,1744.553,799.713,1740.057Z" transform="translate(-734.642 -1727.286)" fill="#3c4973"/>
          <g id="Grupo_46766" data-name="Grupo 46766" transform="translate(48.359 27.816)">
            <g id="Grupo_46765" data-name="Grupo 46765">
              <g id="Grupo_46764" data-name="Grupo 46764">
                <path id="Trazado_97273" data-name="Trazado 97273" d="M866.321,1914.733l-6.608-1.22-2.478,3.3,5.266,10.8,7.745-6.575Z" transform="translate(-857.235 -1913.513)" fill="#e49963"/>
              </g>
            </g>
          </g>
          <g id="Grupo_46769" data-name="Grupo 46769" transform="translate(40.407 27.808)">
            <g id="Grupo_46768" data-name="Grupo 46768">
              <g id="Grupo_46767" data-name="Grupo 46767">
                <path id="Trazado_97274" data-name="Trazado 97274" d="M829.6,1940.718c-.113-2.054,3.207-10.49,1.46-14.736-1.273-3.416-3.4-9.15-6-10.106-1.229-.451-2.491-.766-4.022-1.189,0,0,.863,4.3-.936,4.448-3.464.278-5.672-5.668-5.672-5.668-1.868-.178-10.434,2.636-10.43,3.339.02,5.51,4.5,13.549,5.96,19.506.576,6.434-1.669,14.133-1.677,14.864,0,0,13.781,3.874,21.95-.623C830.4,1949.927,829.754,1943.555,829.6,1940.718Z" transform="translate(-803.995 -1913.459)" fill="url(#linear-gradient-15)"/>
              </g>
            </g>
          </g>
          <path id="Trazado_97275" data-name="Trazado 97275" d="M824.5,2121.723s-3.042,7.675-3.784,12.507,3.445,7.932,3.445,7.932h34.819s3.727-6.045,2.654-10.22-3.543-4.838-3.543-4.838Z" transform="translate(-777.738 -2062.809)" fill="url(#linear-gradient-15)"/>
          <path id="Trazado_97276" data-name="Trazado 97276" d="M950.4,2156.021c-4.445-.627-17.347,4.385-22.848,15.272h15.39Z" transform="translate(-868.687 -2091.939)" fill="#d68d5d"/>
          <g id="Grupo_46770" data-name="Grupo 46770" transform="translate(76.834 63.9)">
            <path id="Trazado_97277" data-name="Trazado 97277" d="M1047.879,2159.288a12.347,12.347,0,0,0,1.555-2.213,3.839,3.839,0,0,1,6.19-.726c6.417,7.075,20.1,23.2,23.147,25.211.862.567,5.89,3.461,10.669,2.889,0,0,2.359.9.787,2.772-.809.965-12.956,1.96-12.956,1.96l-.947-3.567c-7.071-5.232-15.873-4.856-23.336-14.424A28.755,28.755,0,0,1,1047.879,2159.288Z" transform="translate(-1047.879 -2155.098)" fill="#d68d5d"/>
            <path id="Trazado_97278" data-name="Trazado 97278" d="M1238.342,2348.122l4.888,3.172.672-.8-3.964-3.7c2.252-1.777,7.468-.295,7.468-.295,1.709-1.1,5.039-4.683,5.383-6.6-1.094-1.363-4.738,1.442-4.738,1.442a4.471,4.471,0,0,1-1.933,3.07c-3.98.859-7.947-.271-11.183-1.915C1234.935,2342.5,1232.23,2346.6,1238.342,2348.122Z" transform="translate(-1206.488 -2311.979)" fill="#c1507f"/>
          </g>
          <g id="Grupo_46771" data-name="Grupo 46771" transform="translate(74.114 68.977)">
            <path id="Trazado_97279" data-name="Trazado 97279" d="M1032.315,2189.164a2.3,2.3,0,0,0-1.683,1.9c-.348,2.469-2.146,7.469.286,12.707,5.972,12.856,9.5,21.327,10.123,24.645-1.56,2.922,4.66,10.9,4.753,11.423l4.476-1.4s-2.568-3.82-3.493-5.316c-2.2-3.562-2.562-7.935-2.92-11.323-1.528-14.467,1.1-23.6-9.369-32.089A2.444,2.444,0,0,0,1032.315,2189.164Z" transform="translate(-1029.666 -2189.091)" fill="#e49963"/>
            <path id="Trazado_97280" data-name="Trazado 97280" d="M1086.76,2458.484l.442,5.81,1.044.049.536-5.4c2.779.714,4.763,5.76,4.763,5.76,1.913.69,6.78,1.168,8.513.278.421-1.7-4.019-2.893-4.019-2.893a4.473,4.473,0,0,1-3.614.326,17.3,17.3,0,0,1-5.434-10.054S1084.267,2452.7,1086.76,2458.484Z" transform="translate(-1077.614 -2413.04)" fill="#c1507f"/>
          </g>
          <g id="Grupo_46774" data-name="Grupo 46774" transform="translate(50.409 22.835)">
            <g id="Grupo_46773" data-name="Grupo 46773">
              <g id="Grupo_46772" data-name="Grupo 46772">
                <path id="Trazado_97281" data-name="Trazado 97281" d="M876.328,1880.974l-5.365-.8.427,4.98s1.027,2.256,2.218,2.409l4.39-1.189Z" transform="translate(-870.963 -1880.17)" fill="#e49963"/>
              </g>
            </g>
          </g>
          <g id="Grupo_46778" data-name="Grupo 46778" transform="translate(43.989 3.809)">
            <path id="Trazado_97282" data-name="Trazado 97282" d="M835.585,1765.415c1.385,5.785,6.191,9.592,10.735,8.5s7.1-6.659,5.718-12.444-6.191-9.593-10.734-8.5S834.2,1759.63,835.585,1765.415Z" transform="translate(-834.128 -1752.785)" fill="#e49963"/>
            <path id="Trazado_97283" data-name="Trazado 97283" d="M933.138,1814.448a.812.812,0,1,0,.365-1.09A.812.812,0,0,0,933.138,1814.448Z" transform="translate(-917.358 -1804.238)"/>
            <path id="Trazado_97284" data-name="Trazado 97284" d="M890.374,1824.436a.88.88,0,1,0,.4-1.18A.879.879,0,0,0,890.374,1824.436Z" transform="translate(-880.976 -1812.651)"/>
            <g id="Grupo_46775" data-name="Grupo 46775" transform="translate(7.984 9.164)">
              <path id="Trazado_97285" data-name="Trazado 97285" d="M881.871,1816.029a.3.3,0,0,0,.141-.145,2.331,2.331,0,0,1,1.644-1.138.306.306,0,0,0-.086-.606,2.912,2.912,0,0,0-2.112,1.487.306.306,0,0,0,.414.4Z" transform="translate(-881.428 -1814.137)" fill="#2e2d57"/>
            </g>
            <g id="Grupo_46776" data-name="Grupo 46776" transform="translate(15.293 7.925)">
              <path id="Trazado_97286" data-name="Trazado 97286" d="M932.623,1806.951a.306.306,0,0,0,.079-.491,2.148,2.148,0,0,0-2.131-.523.306.306,0,0,0,.2.579,1.534,1.534,0,0,1,1.5.379A.305.305,0,0,0,932.623,1806.951Z" transform="translate(-930.364 -1805.844)" fill="#2e2d57"/>
            </g>
            <path id="Trazado_97287" data-name="Trazado 97287" d="M926.055,1832.712a8.147,8.147,0,0,0,1.262,1.2.322.322,0,0,1,.106.429,4.415,4.415,0,0,1-1.963,1.373.086.086,0,0,1-.09-.143,4.168,4.168,0,0,0,1-1.166.384.384,0,0,0,0-.348c-.127-.252-.381-.765-.553-1.19A.145.145,0,0,1,926.055,1832.712Z" transform="translate(-910.798 -1820.736)" fill="#d68d5d"/>
            <path id="Trazado_97288" data-name="Trazado 97288" d="M831.618,1834.049a2.114,2.114,0,1,1-3.271.081A2.337,2.337,0,0,1,831.618,1834.049Z" transform="translate(-827.976 -1821.382)" fill="#e49963"/>
            <g id="Grupo_46777" data-name="Grupo 46777" transform="translate(1.404 13.191)">
              <path id="Trazado_97289" data-name="Trazado 97289" d="M838.986,1843.5a.305.305,0,0,0,.108-.09,1.383,1.383,0,0,0,.107-1.7,1.474,1.474,0,0,0-1.614-.554.306.306,0,1,0,.192.581.872.872,0,0,1,.926.33.782.782,0,0,1-.1.97.306.306,0,0,0,.381.458Z" transform="translate(-837.376 -1841.099)" fill="#d68d5d"/>
            </g>
            <path id="Trazado_97290" data-name="Trazado 97290" d="M896.221,1861.625a.244.244,0,0,1,.224-.389,17.322,17.322,0,0,0,4.592,0,.244.244,0,0,1,.224.389,3.043,3.043,0,0,1-5.039,0Z" transform="translate(-885.985 -1845.036)" fill="#fff"/>
          </g>
          <path id="Trazado_97291" data-name="Trazado 97291" d="M832.346,1758.637c5.423-.726,13.01-6.252,13.633-9.087-1.049-3.406-6.638-5.118-9.794-3.54S830.049,1754.351,832.346,1758.637Z" transform="translate(-787.013 -1742.71)" fill="#3c4973"/>
          <path id="Trazado_97292" data-name="Trazado 97292" d="M1171.222,1947.159h0a1.375,1.375,0,0,1-.88-1.734l8.371-25.642a1.374,1.374,0,0,1,1.734-.88h0a1.374,1.374,0,0,1,.88,1.733l-8.37,25.642A1.375,1.375,0,0,1,1171.222,1947.159Z" transform="translate(-1075.158 -1890.224)" fill="#fff"/>
          <path id="Trazado_97293" data-name="Trazado 97293" d="M1199.672,2017.188l1.705-5.225a7.066,7.066,0,0,1,0,5.858c-1.478,2.853-2.885,2.98-2.885,2.98Z" transform="translate(-1099.161 -1969.442)" fill="#e49963"/>
          <path id="Trazado_97294" data-name="Trazado 97294" d="M1185.138,2017.419c-.432-1.014-1.447-3.552-.432-3.54s1.181,1.244,1.181,1.244Z" transform="translate(-1087.063 -1971.072)" fill="#e49963"/>
          <g id="Grupo_46786" data-name="Grupo 46786" transform="translate(0 23.274)">
            <g id="Grupo_46781" data-name="Grupo 46781" transform="translate(14.22 3.094)">
              <g id="Grupo_46780" data-name="Grupo 46780">
                <g id="Grupo_46779" data-name="Grupo 46779">
                  <path id="Trazado_97295" data-name="Trazado 97295" d="M628.678,1908.531a3.8,3.8,0,0,0,.792-4.7c1.263-.271,7.928,9.825,10.8,16.24,5.013-5.052,13.845-11.874,16.233-12.272,0,0,3.222-.866,4.38,3.029,1.033,3.477-3,5.941-3,5.941s-17.24,12.171-19.789,11.089C634.13,1926.17,630.54,1911.684,628.678,1908.531Z" transform="translate(-628.678 -1903.821)" fill="#e49963"/>
                </g>
              </g>
            </g>
            <g id="Grupo_46785" data-name="Grupo 46785">
              <g id="Grupo_46784" data-name="Grupo 46784">
                <g id="Grupo_46783" data-name="Grupo 46783">
                  <g id="Grupo_46782" data-name="Grupo 46782">
                    <path id="Trazado_97296" data-name="Trazado 97296" d="M544.093,1890.624c1.407.086,3.146-.609,3.688.652l2.776-1.353.168-1.674c-2.386-3.823-8.2-4.907-8.777-4.958-1.5-.131-2.191-.285-2.307-.085s-.483,1.531,1.687,1.793c2.724.327.916,2.5-4.611.432-1.383-.519-3.988.155-3.046,1.166C534.71,1887.708,537.692,1890.233,544.093,1890.624Z" transform="translate(-533.472 -1883.108)" fill="#e49963"/>
                  </g>
                </g>
              </g>
            </g>
          </g>
        </g>
      </g>
      <g id="Grupo_46790" data-name="Grupo 46790" transform="translate(441.008 798.768)">
        <path id="Trazado_97297" data-name="Trazado 97297" d="M1404.028,1412.273a8.629,8.629,0,0,1-.488,2.859c-1.592,4.572-6.908,7.929-13.221,7.929s-11.628-3.358-13.22-7.929a8.62,8.62,0,0,1-.488-2.859Z" transform="translate(-1339.13 -1337.319)" fill="#3c4973"/>
        <path id="Trazado_97298" data-name="Trazado 97298" d="M1404.028,1412.273a8.629,8.629,0,0,1-.488,2.859H1377.1a8.62,8.62,0,0,1-.488-2.859Z" transform="translate(-1339.13 -1337.319)" fill="#00223d"/>
        <path id="Trazado_97299" data-name="Trazado 97299" d="M1305.469,798.572a28.708,28.708,0,1,0-51.4,17.587,35.935,35.935,0,0,1,7.618,22.026v.141h30.144v-.141a36.039,36.039,0,0,1,7.638-22.053A28.577,28.577,0,0,0,1305.469,798.572Z" transform="translate(-1225.572 -769.865)" fill="#f5ca56"/>
        <g id="Grupo_46789" data-name="Grupo 46789" transform="translate(37.889 21.063)">
          <path id="Trazado_97300" data-name="Trazado 97300" d="M1397.751,994.541a.734.734,0,0,1-.693-.975c.034-.1,3.419-9.851,5.879-19.782,4.36-17.6,2.116-20.466.949-20.879-3.431-1.215-6.163.582-7.851,2.3a14.642,14.642,0,0,0-1.419,1.7,27.828,27.828,0,0,1,1.948,4.147c1.52,4.061,1.924,7.855,1.081,10.147a3.6,3.6,0,0,1-3.895,2.525,4.16,4.16,0,0,1-3.714-2.939c-.773-2.054-.673-5.074.274-8.285a22.124,22.124,0,0,1,2.577-5.66,14.233,14.233,0,0,0-3.456-3.907c-1.889-1.377-3.664-1.437-5.274-.178-3.325,2.6-3.452,10.415-.368,22.6a161.537,161.537,0,0,0,5.9,18.171.734.734,0,0,1-1.361.549,163.035,163.035,0,0,1-5.959-18.347c-3.287-12.986-2.99-21.105.883-24.133,2.128-1.664,4.629-1.611,7.042.148a15.209,15.209,0,0,1,3.489,3.82,15.572,15.572,0,0,1,1.2-1.389c2.808-2.865,6.142-3.809,9.389-2.66,2.021.716,2.85,3.436,2.535,8.316a86.194,86.194,0,0,1-2.552,14.307c-2.476,10-5.881,19.806-5.915,19.9A.734.734,0,0,1,1397.751,994.541Zm-4.029-36.26a20.842,20.842,0,0,0-2,4.638c-.847,2.869-.962,5.618-.308,7.353a2.715,2.715,0,0,0,2.451,1.993,2.136,2.136,0,0,0,2.407-1.568C1397.24,968.052,1396.059,962.652,1393.723,958.281Z" transform="translate(-1380.108 -950.391)" fill="#12263f"/>
        </g>
        <path id="Rectángulo_28256" data-name="Rectángulo 28256" d="M5.523,0H30.356a5.522,5.522,0,0,1,5.522,5.522v0a5.522,5.522,0,0,1-5.522,5.522H5.523A5.523,5.523,0,0,1,0,5.523v0A5.523,5.523,0,0,1,5.523,0Z" transform="translate(33.251 64.848)" fill="#3c4973"/>
        <path id="Trazado_97301" data-name="Trazado 97301" d="M1822.721,989.4h-9.387a2.419,2.419,0,0,1-2.419-2.419h0a2.419,2.419,0,0,1,2.419-2.419h9.387a2.419,2.419,0,0,1,2.419,2.419h0A2.419,2.419,0,0,1,1822.721,989.4Z" transform="translate(-1722.762 -959.51)" fill="#f5ca56"/>
        <path id="Trazado_97302" data-name="Trazado 97302" d="M1067.176,989.4h-9.386a2.419,2.419,0,0,1-2.419-2.419h0a2.419,2.419,0,0,1,2.419-2.419h9.386a2.419,2.419,0,0,1,2.419,2.419h0A2.419,2.419,0,0,1,1067.176,989.4Z" transform="translate(-1055.371 -959.51)" fill="#f5ca56"/>
        <path id="Trazado_97303" data-name="Trazado 97303" d="M1143.9,779.892l-7.47-5.684a2.419,2.419,0,0,1-.461-3.39h0a2.419,2.419,0,0,1,3.39-.46l7.47,5.684a2.42,2.42,0,0,1,.46,3.39h0A2.42,2.42,0,0,1,1143.9,779.892Z" transform="translate(-1126.132 -769.864)" fill="#f5ca56"/>
        <path id="Trazado_97304" data-name="Trazado 97304" d="M1747.016,779.892l7.469-5.684a2.419,2.419,0,0,0,.461-3.39h0a2.419,2.419,0,0,0-3.39-.46l-7.469,5.684a2.419,2.419,0,0,0-.461,3.39h0A2.42,2.42,0,0,0,1747.016,779.892Z" transform="translate(-1662.886 -769.864)" fill="#f5ca56"/>
        <path id="Trazado_97305" data-name="Trazado 97305" d="M1143.9,1176.741l-7.47,5.684a2.419,2.419,0,0,0-.461,3.39h0a2.42,2.42,0,0,0,3.39.46l7.47-5.684a2.42,2.42,0,0,0,.46-3.39h0A2.42,2.42,0,0,0,1143.9,1176.741Z" transform="translate(-1126.132 -1128.832)" fill="#f5ca56"/>
        <path id="Trazado_97306" data-name="Trazado 97306" d="M1747.016,1176.741l7.469,5.684a2.419,2.419,0,0,1,.461,3.39h0a2.42,2.42,0,0,1-3.39.46l-7.469-5.684a2.419,2.419,0,0,1-.461-3.39h0A2.42,2.42,0,0,1,1747.016,1176.741Z" transform="translate(-1662.886 -1128.832)" fill="#f5ca56"/>
      </g>
      <g id="Grupo_46794" data-name="Grupo 46794" transform="translate(480.096 954.082)">
        <g id="Grupo_46792" data-name="Grupo 46792" transform="translate(3.089 10.104)">
          <path id="Trazado_97307" data-name="Trazado 97307" d="M1383.344,2091.455v2.009h.547a.481.481,0,0,1,.481.481v.079a.481.481,0,0,1-.481.481h-23.312a.56.56,0,0,1-.559-.56v-2.893a.559.559,0,0,1,.559-.559h23.312a.48.48,0,0,1,.481.48h0a.481.481,0,0,1-.481.481Z" transform="translate(-1360.02 -2090.494)" fill="#f5ca56"/>
          <path id="Rectángulo_28257" data-name="Rectángulo 28257" d="M1,0H20.8a0,0,0,0,1,0,0V2.009a0,0,0,0,1,0,0H1A1,1,0,0,1,0,1V1A1,1,0,0,1,1,0Z" transform="translate(2.596 0.961)" fill="#fff"/>
        </g>
        <g id="Grupo_46793" data-name="Grupo 46793" transform="translate(0 5.665)">
          <path id="Trazado_97308" data-name="Trazado 97308" d="M1340.368,2061.833v2.223h-.548a.508.508,0,0,0-.48.532v.09a.508.508,0,0,0,.48.531h23.312a.592.592,0,0,0,.56-.619v-3.2a.591.591,0,0,0-.56-.619H1339.82a.508.508,0,0,0-.48.531h0a.508.508,0,0,0,.48.532Z" transform="translate(-1339.34 -2060.77)" fill="#b54273"/>
          <path id="Rectángulo_28258" data-name="Rectángulo 28258" d="M1.111,0H20.8a0,0,0,0,1,0,0V2.223a0,0,0,0,1,0,0H1.111A1.111,1.111,0,0,1,0,1.111v0A1.111,1.111,0,0,1,1.111,0Z" transform="translate(21.756 3.286) rotate(180)" fill="#fff"/>
        </g>
        <path id="Rectángulo_28259" data-name="Rectángulo 28259" d="M1.8,0H21.156a1.8,1.8,0,0,1,1.8,1.8v0a1.8,1.8,0,0,1-1.8,1.8H1.8A1.8,1.8,0,0,1,0,1.8v0A1.8,1.8,0,0,1,1.8,0Z" transform="translate(1.9 0)" fill="#f5ca56"/>
        <rect id="Rectángulo_28260" data-name="Rectángulo 28260" width="22.958" height="2.06" rx="1.03" transform="translate(3.4 3.605)" fill="#7d6eb2"/>
      </g>
    </g>
  </g>
</svg>
