<svg xmlns="http://www.w3.org/2000/svg" xmlns:xlink="http://www.w3.org/1999/xlink" width="109.207" height="137.678" viewBox="0 0 109.207 137.678">
  <defs>
    <clipPath id="clip-path">
      <rect id="Rectángulo_55937" data-name="Rectángulo 55937" width="109.207" height="137.678" fill="#12263f"/>
    </clipPath>
    <linearGradient id="linear-gradient" x1="0.5" x2="0.5" y2="1" gradientUnits="objectBoundingBox">
      <stop offset="0" stop-color="#f5f5f5"/>
      <stop offset="0.25" stop-color="#f5f5f5"/>
      <stop offset="1" stop-color="#a7b3cf"/>
    </linearGradient>
  </defs>
  <g id="Grupo_179446" data-name="Grupo 179446" transform="translate(-9241.182 8357.457)">
    <g id="Grupo_179413" data-name="Grupo 179413" transform="translate(9241.182 -8357.457)">
      <g id="Grupo_175112" data-name="Grupo 175112" clip-path="url(#clip-path)">
        <path id="Trazado_217342" data-name="Trazado 217342" d="M109.1,11.247c-.759-6.7-4.5-10.908-9.981-11.226C93.486-.305,89.328,3.183,87.834,9.5a.555.555,0,0,0-.053.549c-.074,1.056-.212,2.113-.212,3.17q-.017,47.382,0,94.763c0,.863.109,1.727.167,2.59.02.38.04.758.06,1.138,2.407,8.132,5.636,15.976,8.434,23.972.338.965.856,1.759,2,1.819,1.283.066,1.9-.763,2.291-1.83,1.333-3.619,2.768-7.2,3.962-10.868,1.548-4.75,3.856-9.256,4.619-14.259.035-1.159.1-2.319.1-3.477q.009-35.136,0-70.271c-.005-8.515-.062-17.03-.1-25.545M.091,21.118c-.03,1.063-.086,2.126-.086,3.189Q0,69.316.006,114.325c0,6.87.056,13.742.086,20.612.111,3.419,2.781,2.669,4.694,2.674q36.779.089,73.558.03a23.581,23.581,0,0,0,2.88-.218,1.746,1.746,0,0,0,1.741-1.9c.047-.867.133-1.736.133-2.6q.01-40.949,0-81.9c-.012-15.39-.083-30.779-.127-46.168a1.6,1.6,0,0,0-.75-1.823c-1.052-1.04-2.383-.583-3.582-.585Q48.761,2.4,18.886,2.434c-1.056,0-2.112.133-3.167.2a5.846,5.846,0,0,0-1.451.866Q7.726,10.7,1.261,17.958a3.859,3.859,0,0,0-1.17,3.16" transform="translate(0 0)" fill="#12263f"/>
        <path id="Trazado_217343" data-name="Trazado 217343" d="M83,137.422a1.746,1.746,0,0,1-1.741,1.9,23.687,23.687,0,0,1-2.88.218q-36.779.017-73.558-.03c-1.913,0-4.583.745-4.694-2.675.83-.912.474-2.031.475-3.056q.028-53.852,0-107.7c0-1.026.353-2.145-.476-3.057A3.86,3.86,0,0,1,1.3,19.857Q7.752,12.582,14.309,5.4a5.863,5.863,0,0,1,1.451-.866,2.436,2.436,0,0,0,1.91.448q32.294-.025,64.589-.054a1.6,1.6,0,0,1,.75,1.823c-.833.911-.476,2.031-.476,3.056q-.027,62.276,0,124.551c0,1.026-.351,2.145.472,3.059M78.456,9.037c-.766-.865-1.794-.555-2.72-.555q-26.621-.024-53.242,0c-.923,0-1.958-.322-2.7.584-.041,3.868-.092,7.734-.119,11.6-.031,4.729-.266,4.982-4.859,4.994-2.419.006-4.852.173-7.251-.047-2.445-.224-3.031.616-3.026,3.024q.123,51.525-.011,103.051c-.008,2.592.87,2.9,3.115,2.893q33.811-.106,67.623.044c2.716.015,3.531-.531,3.523-3.416Q78.624,71.7,78.7,12.195c0-1.053-.16-2.105-.246-3.158M15.408,14.5l-6.981,6.1c8.32-.027,6.5,1.662,6.667-6.4,0-.057-.115-.116.314.293" transform="translate(-0.04 -1.9)" fill="#12263f"/>
        <path id="Trazado_217344" data-name="Trazado 217344" d="M150.775,110.569c-.058-.863-.167-1.727-.167-2.59q-.013-47.382,0-94.764c0-1.056.138-2.113.212-3.169.068-.048.2-.108.194-.144a2.27,2.27,0,0,0-.141-.406c1.494-6.312,5.651-9.8,11.289-9.475,5.477.317,9.222,4.528,9.981,11.225-.826.913-.472,2.032-.473,3.058q-.029,46.587,0,93.175c0,1.027-.348,2.144.465,3.062-.763,5-3.072,9.509-4.619,14.259-1.194,3.664-2.629,7.25-3.962,10.868-.393,1.067-1.008,1.9-2.291,1.83-1.14-.059-1.658-.854-2-1.819-2.8-8-6.027-15.84-8.434-23.973.527-.408.488-.786-.06-1.137m15.659,2.883a18.74,18.74,0,0,0-9.865-.039c-.413,2.931.5,4.485,2.768,4.734,5.511.6,6.808-.255,7.1-4.695m-11.611-5.212c3.54.738,7.129.06,10.676.361,2.158.183,2.524-.776,2.52-2.689q-.075-43.224-.065-86.448c0-.885.687-2.445-1.093-2.426s-1.005,1.569-1.009,2.422c-.053,11.894-.035,23.788-.038,35.682a15.654,15.654,0,0,1-.075,2.6c-.2,1.166-.574,2.319-2.087,2.352-1.676.038-2.076-1.172-2.261-2.479a16.71,16.71,0,0,1-.056-2.317q0-16.1,0-32.2c0-6.351,0-6.351-6.441-6.054-1.07.794-.643,1.952-.644,2.954q-.033,42.617,0,85.234c0,1.014-.387,2.152.575,3m6.5-96.223c1.35,0,2.711-.107,4.049.023,2.64.256,2.646-1.127,1.974-2.98a6.278,6.278,0,0,0-6.209-4.272,6.47,6.47,0,0,0-5.85,4.786c-.533,1.683-.353,2.6,1.7,2.461,1.441-.1,2.893-.019,4.34-.018M159.6,123.461a17.53,17.53,0,0,0,1.976,4.97c.315-1.887,1.9-3.329,1.089-4.969-.333-.67-1.932-.344-3.065,0" transform="translate(-63.041 0)" fill="#12263f"/>
        <path id="Trazado_217345" data-name="Trazado 217345" d="M142.3,139.018c-.823-.915-.472-2.033-.472-3.059q-.028-62.276,0-124.552c0-1.025-.356-2.145.476-3.056.044,15.389.116,30.779.128,46.168q.031,40.947,0,81.9c0,.868-.087,1.736-.133,2.6" transform="translate(-59.337 -3.495)" fill="#12263f"/>
        <path id="Trazado_217346" data-name="Trazado 217346" d="M.091,36.322c.829.912.475,2.031.476,3.058q.028,53.851,0,107.7c0,1.026.355,2.145-.475,3.058-.03-6.87-.084-13.742-.086-20.612q-.015-45.01,0-90.018c0-1.063.056-2.126.086-3.189" transform="translate(0 -15.204)" fill="#12263f"/>
        <path id="Trazado_217347" data-name="Trazado 217347" d="M187.254,118.637c-.813-.918-.465-2.035-.466-3.062q-.028-46.587,0-93.175c0-1.026-.354-2.144.473-3.058.033,8.515.09,17.031.095,25.546q.02,35.136,0,70.271c0,1.159-.066,2.318-.1,3.477" transform="translate(-78.157 -8.097)" fill="#12263f"/>
        <path id="Trazado_217348" data-name="Trazado 217348" d="M93.536,4.724q-32.294.028-64.588.054a2.436,2.436,0,0,1-1.911-.448c1.055-.072,2.111-.2,3.167-.2q29.875-.018,59.75.013c1.2,0,2.53-.454,3.582.586" transform="translate(-11.318 -1.691)" fill="#12263f"/>
        <path id="Trazado_217349" data-name="Trazado 217349" d="M150.9,190.173c.549.351.588.729.06,1.137q-.031-.569-.06-1.137" transform="translate(-63.166 -79.605)" fill="#12263f"/>
        <path id="Trazado_217350" data-name="Trazado 217350" d="M151,16.333a2.272,2.272,0,0,1,.141.406c.006.036-.126.1-.194.144a.557.557,0,0,1,.053-.549" transform="translate(-63.164 -6.837)" fill="#12263f"/>
        <path id="Trazado_217351" data-name="Trazado 217351" d="M81.646,12.276c.085,1.052.245,2.1.245,3.157q.019,59.509.084,119.018c.008,2.884-.806,3.431-3.523,3.416q-33.811-.187-67.623-.044c-2.245.007-3.122-.3-3.115-2.892q.15-51.526.011-103.052c-.006-2.409.581-3.248,3.026-3.024,2.4.22,4.833.053,7.251.047,4.592-.012,4.827-.265,4.859-4.993.026-3.868.078-7.735.118-11.6l58.666-.028M61.295,46.07a153.275,153.275,0,0,0-15.635.027c-2.289,1.83-2.114,3.184.573,4.438H61.287c2.62-1.616,2.622-3.012.008-4.466m0,31.374c-5.211-.161-10.421-.253-15.631.049a2.09,2.09,0,0,0-1.472,2.893c.6,1.983,2.234,1.715,3.777,1.543h11c1.622.2,3.37.439,4.034-1.534a2.1,2.1,0,0,0-1.71-2.952M45.663,115.554a118.821,118.821,0,0,0,16.189,0c1.393-.54,1.544-1.685,1.189-2.865a2.328,2.328,0,0,0-2.481-1.61c-4.548.009-9.1,0-13.644.013a2.311,2.311,0,0,0-2.468,1.63c-.337,1.185-.2,2.326,1.215,2.837m1.156-28.216c-1.445.038-1.913.931-1.919,2.212s.5,2.154,1.912,2.244l23.773.009a2.243,2.243,0,0,0,.577-4.438l-24.343-.026M71.158,60.4a2.073,2.073,0,0,0,1.781-2.665,1.89,1.89,0,0,0-2.349-1.788l-23.773.009c-2.751.77-2.441,2.263-.951,4.033a3.793,3.793,0,0,0,1.272.516c8.007-.012,16.013-.063,24.02-.106m.569,65.041c1.508-.5,1.4-1.731,1.135-2.862a2.112,2.112,0,0,0-2.252-1.5q-11.749-.056-23.5.012a1.972,1.972,0,0,0-2.134,1.617c-.17,1.146-.307,2.376,1.26,2.777,8.5.333,16.994.41,25.49-.041M37.964,63.39q.01-9.85.02-19.7a1.915,1.915,0,0,0-1.676-2.218l-17.95-.034c-1.754.047-1.948,1.334-1.955,2.617-.034,6.16,0,12.321-.024,18.481-.006,1.885.759,2.821,2.755,2.8,5.388-.054,10.778-.019,16.167-.01,1.37,0,2.5-.287,2.663-1.936m.02,65.069q0-9.85,0-19.7c-.039-1.995-1.446-2.3-2.975-2.311-5.109-.031-10.219.017-15.328-.026-2.269-.019-3.366.923-3.346,3.272q.075,8.821-.005,17.645c-.019,2.273.909,3.387,3.252,3.366,5.109-.045,10.219.014,15.328-.032,1.472-.013,2.978-.189,3.069-2.215m.194-52.49c-.073-2.541-1.356-3.368-3.766-3.3-4.922.147-9.852.111-14.776.015-2.328-.045-3.424.912-3.424,3.206,0,5.893.013,11.786-.012,17.678-.01,2.293,1.049,3.317,3.356,3.291q7.532-.085,15.067,0c2.637.033,3.647-1.2,3.48-3.742-.1-1.539.106-3.1-.047-4.633-.337-3.369.31-6.264,3.113-8.51a2.722,2.722,0,0,0,.835-3.843c-1.124-1.777-2.459-.719-3.827-.164" transform="translate(-3.229 -5.139)" fill="#ece5f7"/>
        <path id="Trazado_217352" data-name="Trazado 217352" d="M92.637,11.837l-58.666.029c.745-.906,1.78-.583,2.7-.584q26.621-.026,53.243,0c.926,0,1.955-.31,2.72.555" transform="translate(-14.22 -4.699)" fill="#12263f"/>
        <path id="Trazado_217353" data-name="Trazado 217353" d="M21.4,21.439c-.428-.409-.313-.35-.314-.293-.164,8.058,1.653,6.369-6.667,6.4l6.981-6.1" transform="translate(-6.038 -8.835)" fill="#12263f"/>
        <path id="Trazado_217354" data-name="Trazado 217354" d="M157.934,29.253c6.44-.3,6.44-.3,6.44,6.054q0,16.1,0,32.2a16.625,16.625,0,0,0,.056,2.317c.184,1.306.585,2.516,2.261,2.479,1.513-.034,1.888-1.187,2.087-2.353a15.65,15.65,0,0,0,.075-2.6c0-11.894-.015-23.788.038-35.682,0-.854-.76-2.4,1.009-2.423s1.092,1.541,1.093,2.426q.055,43.224.065,86.448c0,1.912-.363,2.872-2.52,2.688-3.548-.3-7.137.377-10.677-.361q.036-45.6.072-91.191" transform="translate(-66.08 -12.205)" fill="url(#linear-gradient)"/>
        <path id="Trazado_217355" data-name="Trazado 217355" d="M164.513,15.455c-1.447,0-2.9-.078-4.34.019-2.05.137-2.229-.777-1.7-2.461a6.47,6.47,0,0,1,5.85-4.786,6.279,6.279,0,0,1,6.21,4.272c.672,1.852.666,3.235-1.974,2.979-1.338-.13-2.7-.023-4.049-.023" transform="translate(-66.23 -3.441)" fill="#eeac3a"/>
        <path id="Trazado_217356" data-name="Trazado 217356" d="M157.461,29.322q-.036,45.6-.072,91.191c-.961-.85-.574-1.988-.574-3q-.031-42.617,0-85.235c0-1-.426-2.16.644-2.954" transform="translate(-65.608 -12.274)" fill="#12263f"/>
        <path id="Trazado_217357" data-name="Trazado 217357" d="M170.66,195.1c-.29,4.44-1.587,5.3-7.1,4.695-2.272-.249-3.181-1.8-2.768-4.734l9.865.039" transform="translate(-67.267 -81.653)" fill="url(#linear-gradient)"/>
        <path id="Trazado_217358" data-name="Trazado 217358" d="M166.081,212.069c1.133-.343,2.732-.669,3.065,0,.816,1.64-.774,3.081-1.089,4.969a17.53,17.53,0,0,1-1.976-4.97" transform="translate(-69.52 -88.608)" fill="#7f4fc7"/>
        <path id="Trazado_217359" data-name="Trazado 217359" d="M170.73,194.642l-9.865-.039a18.739,18.739,0,0,1,9.865.039" transform="translate(-67.337 -81.191)" fill="#12263f"/>
        <path id="Trazado_217360" data-name="Trazado 217360" d="M44.287,119.45c1.368-.556,2.7-1.613,3.827.164.982,1.552.34,2.9-.835,3.842-2.8,2.247-3.449,5.141-3.113,8.511.153,1.53-.055,3.094.047,4.633.167,2.538-.842,3.776-3.48,3.743q-7.532-.094-15.067,0c-2.307.026-3.366-1-3.356-3.291.025-5.893.013-11.786.012-17.678,0-2.294,1.1-3.252,3.424-3.206,4.924.1,9.854.132,14.775-.015,2.41-.072,3.693.755,3.766,3.3m-17.522,1.969c-1.277,3.223-.367,6.577-.531,9.865-.067,1.333-.662,2.881.624,4.058h7.52c-1.318-1.535-2.361-2.748-3.4-3.962-1.237-1.445-3.193-3.045-1.151-4.875,2.008-1.8,3.122.6,4.418,1.729.5.433.878,1.739,1.708.874,1.574-1.64,3.6-3.05,4.028-5.5.2-1.116.318-2.576-1.437-2.526-3.926.112-7.875-.51-11.778.338" transform="translate(-9.339 -48.619)" fill="#12263f"/>
        <path id="Trazado_217361" data-name="Trazado 217361" d="M44.19,196.241c-.091,2.026-1.6,2.2-3.069,2.215-5.109.046-10.219-.013-15.328.032-2.343.021-3.272-1.094-3.252-3.366q.074-8.821.005-17.645c-.02-2.349,1.077-3.291,3.346-3.272,5.109.042,10.219-.006,15.328.026,1.529.009,2.936.316,2.975,2.311-1.095,2.6-.473,5.323-.432,7.966.062,3.909-.684,7.862.427,11.734m-4.367-9.851c0-1.734-.083-3.473.024-5.2.095-1.53-.484-2.018-1.987-1.968-2.886.095-5.785.157-8.664-.017-2.04-.123-2.425.748-2.317,2.511.123,2.015.028,4.044.028,6.067,0,5.629,0,5.629,5.716,5.665,7.2.046,7.2.046,7.2-7.058" transform="translate(-9.435 -72.921)" fill="#12263f"/>
        <path id="Trazado_217362" data-name="Trazado 217362" d="M42.545,62.467a1.916,1.916,0,0,1,1.676,2.219c-1.036,2.207-.479,4.55-.433,6.807.088,4.3-.626,8.629.413,12.894-.158,1.649-1.293,1.938-2.662,1.936-5.389-.008-10.779-.044-16.168.01-2,.02-2.761-.916-2.755-2.8.02-6.161-.01-12.321.024-18.481.007-1.284.2-2.571,1.955-2.617a70.421,70.421,0,0,0,17.95.033M39.71,74.255h.167c0-1.736-.04-3.473.013-5.207.039-1.262-.267-1.98-1.749-1.944-3.18.077-6.363.062-9.544,0-1.265-.023-1.689.465-1.653,1.7.069,2.312.019,4.628.019,6.943,0,5.76,0,5.819,5.608,5.733,2.378-.037,5.545,1.087,6.906-.517,1.136-1.338.233-4.408.233-6.712" transform="translate(-9.467 -26.134)" fill="#12263f"/>
        <path id="Trazado_217363" data-name="Trazado 217363" d="M72.992,203.787c-1.567-.4-1.431-1.631-1.26-2.777a1.973,1.973,0,0,1,2.134-1.618q11.749-.08,23.5-.012a2.112,2.112,0,0,1,2.252,1.5c.263,1.131.373,2.361-1.135,2.862-.641-.6-1.444-.436-2.2-.437q-10.554-.013-21.11,0c-.755,0-1.56-.162-2.181.478" transform="translate(-29.985 -83.448)" fill="#12263f"/>
        <path id="Trazado_217364" data-name="Trazado 217364" d="M97.247,87.36A1.89,1.89,0,0,1,99.6,89.149a2.073,2.073,0,0,1-1.781,2.665c-.629-.623-1.432-.462-2.186-.462q-11.553.016-23.106.051c-1.49-1.77-1.8-3.263.951-4.033.713.72,1.629.48,2.472.483q9.417.024,18.834,0c.844,0,1.759.235,2.468-.492" transform="translate(-29.887 -36.555)" fill="#12263f"/>
        <path id="Trazado_217365" data-name="Trazado 217365" d="M97.933,141.406a2.243,2.243,0,0,1-.577,4.439c-.806-.789-1.825-.484-2.758-.487q-9.127-.038-18.253,0c-.934,0-1.951-.3-2.762.478-1.41-.089-1.917-.955-1.912-2.244s.474-2.173,1.919-2.211c.916.809,2.029.456,3.052.462q8.823.051,17.647,0c1.215-.01,2.515.405,3.644-.432" transform="translate(-30.001 -59.181)" fill="#12263f"/>
        <path id="Trazado_217366" data-name="Trazado 217366" d="M72,186.685c-1.415-.511-1.552-1.651-1.216-2.837a2.313,2.313,0,0,1,2.469-1.63c4.548-.01,9.1,0,13.644-.013a2.328,2.328,0,0,1,2.481,1.61c.355,1.181.2,2.326-1.189,2.865a61.4,61.4,0,0,0-16.189,0" transform="translate(-29.565 -76.27)" fill="#12263f"/>
        <path id="Trazado_217367" data-name="Trazado 217367" d="M74.125,128.848c-1.542.172-3.176.44-3.777-1.543a2.091,2.091,0,0,1,1.473-2.893,52.889,52.889,0,0,0,15.631-.049,2.1,2.1,0,0,1,1.71,2.952c-.665,1.973-2.413,1.731-4.034,1.534a24.541,24.541,0,0,0-11,0" transform="translate(-29.385 -52.057)" fill="#12263f"/>
        <path id="Trazado_217368" data-name="Trazado 217368" d="M72.406,74.865c-2.687-1.255-2.862-2.608-.574-4.438A51.846,51.846,0,0,0,87.468,70.4c2.615,1.454,2.612,2.849-.008,4.466a47.685,47.685,0,0,0-15.054,0" transform="translate(-29.403 -29.469)" fill="#12263f"/>
        <path id="Trazado_217369" data-name="Trazado 217369" d="M73.971,206.621c.621-.64,1.426-.477,2.181-.478q10.555-.011,21.11,0c.755,0,1.558-.166,2.2.437-8.5.451-16.993.373-25.49.041" transform="translate(-30.964 -86.282)" fill="#12263f"/>
        <path id="Trazado_217370" data-name="Trazado 217370" d="M73.332,94.285q11.553-.028,23.106-.051c.754,0,1.558-.162,2.186.462-8.007.043-16.013.094-24.02.105a3.789,3.789,0,0,1-1.272-.516" transform="translate(-30.696 -39.438)" fill="#12263f"/>
        <path id="Trazado_217371" data-name="Trazado 217371" d="M99.315,141.406c-1.129.837-2.429.422-3.644.432q-8.823.07-17.647,0c-1.024-.006-2.137.347-3.052-.462l24.343.025" transform="translate(-31.383 -59.181)" fill="#12263f"/>
        <path id="Trazado_217372" data-name="Trazado 217372" d="M98.741,87.383c-.709.727-1.624.49-2.468.492q-9.416.024-18.834,0c-.843,0-1.758.237-2.472-.483Z" transform="translate(-31.381 -36.578)" fill="#12263f"/>
        <path id="Trazado_217373" data-name="Trazado 217373" d="M74.96,148.659c.812-.776,1.829-.474,2.762-.479q9.127-.037,18.253,0c.933,0,1.951-.3,2.758.487l-23.773-.009" transform="translate(-31.378 -62.005)" fill="#12263f"/>
        <path id="Trazado_217374" data-name="Trazado 217374" d="M59.316,197.924c-1.112-3.872-.366-7.825-.427-11.734-.042-2.642-.663-5.368.432-7.966q0,9.85,0,19.7" transform="translate(-24.561 -74.603)" fill="#12263f"/>
        <path id="Trazado_217375" data-name="Trazado 217375" d="M59.307,86.007c-1.038-4.266-.325-8.6-.413-12.894-.046-2.256-.6-4.6.433-6.807q-.01,9.85-.02,19.7" transform="translate(-24.573 -27.756)" fill="#12263f"/>
        <path id="Trazado_217376" data-name="Trazado 217376" d="M43.97,62.467a70.448,70.448,0,0,1-17.95-.033l17.95.033" transform="translate(-10.892 -26.134)" fill="#12263f"/>
        <path id="Trazado_217377" data-name="Trazado 217377" d="M72.985,189.523a61.4,61.4,0,0,1,16.189,0,118.822,118.822,0,0,1-16.189,0" transform="translate(-30.551 -79.108)" fill="#12263f"/>
        <path id="Trazado_217378" data-name="Trazado 217378" d="M88.618,124.255a52.908,52.908,0,0,1-15.631.049c5.209-.3,10.42-.211,15.631-.049" transform="translate(-30.552 -51.95)" fill="#12263f"/>
        <path id="Trazado_217379" data-name="Trazado 217379" d="M88.613,70.267a51.847,51.847,0,0,1-15.636.027,153.115,153.115,0,0,1,15.636-.027" transform="translate(-30.548 -29.335)" fill="#12263f"/>
        <path id="Trazado_217380" data-name="Trazado 217380" d="M73.964,77.65a47.685,47.685,0,0,1,15.054,0H73.964" transform="translate(-30.961 -32.254)" fill="#12263f"/>
        <path id="Trazado_217381" data-name="Trazado 217381" d="M76.951,131.628a24.54,24.54,0,0,1,11,0h-11" transform="translate(-32.211 -54.837)" fill="#12263f"/>
        <path id="Trazado_217382" data-name="Trazado 217382" d="M29.972,124.886c3.9-.848,7.852-.226,11.778-.338,1.755-.05,1.633,1.41,1.437,2.526-.431,2.451-2.454,3.861-4.028,5.5-.83.865-1.21-.441-1.708-.874-1.3-1.124-2.41-3.527-4.418-1.729-2.042,1.829-.085,3.43,1.151,4.875,1.04,1.215,2.083,2.427,3.4,3.962h-7.52l-.092-13.923" transform="translate(-12.546 -52.086)" fill="url(#linear-gradient)"/>
        <path id="Trazado_217383" data-name="Trazado 217383" d="M29.449,125.213l.092,13.923c-1.286-1.177-.691-2.725-.624-4.058.164-3.288-.745-6.642.531-9.865" transform="translate(-12.023 -52.413)" fill="#12263f"/>
        <path id="Trazado_217384" data-name="Trazado 217384" d="M42.935,189.981c0,7.1,0,7.1-7.2,7.058-5.717-.037-5.717-.037-5.717-5.665,0-2.023.094-4.052-.028-6.067-.108-1.763.278-2.634,2.317-2.511,2.879.174,5.778.112,8.664.017,1.5-.05,2.082.438,1.987,1.968-.107,1.727-.024,3.466-.024,5.2" transform="translate(-12.547 -76.512)" fill="url(#linear-gradient)"/>
        <path id="Trazado_217385" data-name="Trazado 217385" d="M42.824,77.615c0,2.3.9,5.373-.233,6.712-1.361,1.6-4.528.48-6.906.517-5.607.086-5.608.027-5.608-5.733,0-2.315.049-4.63-.019-6.943-.036-1.235.388-1.723,1.653-1.7,3.18.058,6.364.073,9.544,0,1.482-.036,1.788.682,1.749,1.944-.053,1.734-.013,3.471-.013,5.207h-.167" transform="translate(-12.581 -29.495)" fill="url(#linear-gradient)"/>
      </g>
    </g>
  </g>
</svg>
