<svg xmlns="http://www.w3.org/2000/svg" xmlns:xlink="http://www.w3.org/1999/xlink" width="133.363" height="133.331" viewBox="0 0 133.363 133.331">
  <defs>
    <clipPath id="clip-path">
      <rect id="Rectángulo_56913" data-name="Rectángulo 56913" width="133.363" height="133.331" fill="none"/>
    </clipPath>
    <linearGradient id="linear-gradient" x1="0.5" x2="0.5" y2="1" gradientUnits="objectBoundingBox">
      <stop offset="0" stop-color="#f5f5f5"/>
      <stop offset="0.25" stop-color="#f5f5f5"/>
      <stop offset="1" stop-color="#a7b3cf"/>
    </linearGradient>
    <linearGradient id="linear-gradient-3" x1="0.5" x2="0.5" y2="1" gradientUnits="objectBoundingBox">
      <stop offset="0" stop-color="#116eb9"/>
      <stop offset="1" stop-color="#1894f6"/>
    </linearGradient>
    <linearGradient id="linear-gradient-4" x1="0.5" x2="0.5" y2="1" gradientUnits="objectBoundingBox">
      <stop offset="0" stop-color="#278d7e"/>
      <stop offset="1" stop-color="#4fc1b1"/>
    </linearGradient>
  </defs>
  <g id="Grupo_179453" data-name="Grupo 179453" transform="translate(-5825.224 7816.563)">
    <g id="Grupo_176619" data-name="Grupo 176619" transform="translate(5825.224 -7816.563)">
      <g id="Grupo_176618" data-name="Grupo 176618" clip-path="url(#clip-path)">
        <path id="Trazado_219686" data-name="Trazado 219686" d="M0,39.757c.547-2.847.9-5.749,1.672-8.532a43.011,43.011,0,0,1,83.5,3.116,38.621,38.621,0,0,1,.68,12.157,9.584,9.584,0,0,0,0,1c2.88,0,5.7-.2,8.485.033a42.991,42.991,0,0,1,3.2,85.2c-1.316.224-2.641.4-3.962.6H87.121a4.347,4.347,0,0,0-.764-.208A42.994,42.994,0,0,1,47.378,87.929c.046-.695.112-1.388.174-2.133-2.923,0-5.706.2-8.453-.033A42.834,42.834,0,0,1,1.674,54.746C.9,51.962.547,49.059,0,46.21V39.757M51.628,90.271A38.719,38.719,0,1,0,90.416,51.589,38.789,38.789,0,0,0,51.628,90.271M50.071,51.416A24.929,24.929,0,0,0,52.71,52.98a14.229,14.229,0,0,0,2.218.5c2.8.733,5.62,1.407,8.374,2.288a1.733,1.733,0,0,0,1.768-.152c1.946-1.269,3.97-2.419,5.918-3.686a2.516,2.516,0,0,0,1.085-1.337,38.853,38.853,0,0,0,1-5.941A30.094,30.094,0,0,0,39.635,13.082C17.649,15.6,5.76,40.193,17.492,58.893c.264.421.57.815.919,1.311a11.237,11.237,0,0,1,8.548-5.912c1.984-.339,3.95-.775,5.926-1.161a3.891,3.891,0,0,0,2.956-2.008,23.519,23.519,0,0,1-2.1-2.834,1.767,1.767,0,0,0-1.767-1.035,6.373,6.373,0,0,1-5.524-9.1,2.708,2.708,0,0,0,.1-2.262A14.145,14.145,0,0,1,37.76,17.448a53.053,53.053,0,0,1,7.9-.264A14.3,14.3,0,0,1,59.393,36.326a2.215,2.215,0,0,0,.085,1.481A6.465,6.465,0,0,1,53.753,47.3a1.639,1.639,0,0,0-1.1.473c-.824,1.048-1.555,2.169-2.585,3.64m-.583,25.4c-10.3,1.7-19.581-.416-27.687-6.806a33.2,33.2,0,0,1-13.135-25.3A34.351,34.351,0,0,1,40.174,8.695,32.778,32.778,0,0,1,63.517,15.4c11.148,8.6,15.372,20.111,13.416,34.019,1.313-.357,2.5-.61,3.627-1.025a1.523,1.523,0,0,0,.867-1.058A61.912,61.912,0,0,0,81.5,39.3,38.676,38.676,0,1,0,47.361,81.385a1.728,1.728,0,0,0,1.1-.986c.414-1.079.651-2.225,1.024-3.581M43.022,65.935c-2.195-2.942-4.242-5.714-6.333-8.453-.247-.324-.779-.722-1.093-.658q-4.6.928-9.162,2.021a6.233,6.233,0,0,0-4.551,4.166,1.514,1.514,0,0,0,.489,1.882c8.1,7.23,17.421,9.744,28.017,7.222a3.211,3.211,0,0,0,1.647-1.3c1.826-2.647,3.506-5.395,5.363-8.019a43.305,43.305,0,0,1,3.253-3.654c-.81-.212-1.472-.411-2.146-.558-2.49-.542-5-.989-7.464-1.642a1.329,1.329,0,0,0-1.749.554c-2.017,2.785-4.1,5.524-6.27,8.436M55.4,34.378a2.923,2.923,0,0,0,.216-.5,9.814,9.814,0,0,0-7.569-12.088,46.226,46.226,0,0,0-8.158-.287,9.889,9.889,0,0,0-9.351,7.163,8.477,8.477,0,0,0,.111,5.753,7.027,7.027,0,0,0,5.087-1.351,4.277,4.277,0,0,1,4.688-.3,16.436,16.436,0,0,0,7.406,1.617c2.456,0,4.913,0,7.571,0m-5.947,4.3a24.412,24.412,0,0,1-10.123-1.663c-1.614-.65-2.695.024-2.75,1.777-.048,1.52-.063,3.046.01,4.564a6.439,6.439,0,0,0,12.845.178c.108-1.552.018-3.118.018-4.855M46.673,53.655c-2.4-.127-4.414-.24-6.432-.331-.23-.01-.591.037-.666.178a.82.82,0,0,0,.093.716c1.07,1.472,2.172,2.921,3.375,4.526,1.249-1.855,2.69-3.366,3.63-5.089M32.234,38.743c-1.494.319-2.177,1.076-2.105,2.218a1.941,1.941,0,0,0,2.105,1.869Zm21.648-.016v4.285c1.295-.315,2.055-.99,2.014-2.229a1.993,1.993,0,0,0-2.014-2.055" transform="translate(0 0)"/>
        <path id="Trazado_219687" data-name="Trazado 219687" d="M345.094,63.94l-3.93,1.394c-.209-.452-.412-.838-.571-1.243A56.186,56.186,0,0,0,315.653,35.2a1.466,1.466,0,0,0-1.975.147,6.238,6.238,0,0,1-7.827-.07,6.411,6.411,0,0,1-1.91-7.622,6.5,6.5,0,0,1,6.755-3.832,6.378,6.378,0,0,1,5.533,5.724,1.983,1.983,0,0,0,1.246,1.79,60.235,60.235,0,0,1,27.449,32.038c.046.122.076.25.17.568M311.988,30.331a2.142,2.142,0,1,0-2.245,2.036,2.174,2.174,0,0,0,2.245-2.036" transform="translate(-221.652 -17.36)"/>
        <path id="Trazado_219688" data-name="Trazado 219688" d="M448.046,190.571l4.155-1.109,1.055,4.507-4.174.814-1.036-4.213" transform="translate(-327.327 -138.414)"/>
        <path id="Trazado_219689" data-name="Trazado 219689" d="M191.619,230.154a38.719,38.719,0,1,1,38.715,38.757,38.778,38.778,0,0,1-38.715-38.757m28.11,5.38c-2.592-2.646-4.757-4.977-7.054-7.171a8.582,8.582,0,1,0-11.926,12.344c3.973,4.071,8.03,8.059,12.054,12.08,4.332,4.331,9.222,4.345,13.538.031q14.351-14.344,28.691-28.7a16.172,16.172,0,0,0,1.6-1.8,8.466,8.466,0,0,0-.2-10.355c-3.3-4.168-9.131-4.412-13.1-.471q-11.3,11.222-22.521,22.517a12.7,12.7,0,0,0-1.091,1.529" transform="translate(-139.99 -139.883)" fill="url(#linear-gradient)"/>
        <path id="Trazado_219690" data-name="Trazado 219690" d="M85.019,86.348c1.03-1.471,1.761-2.592,2.585-3.64a1.642,1.642,0,0,1,1.1-.474,6.465,6.465,0,0,0,5.724-9.494,2.214,2.214,0,0,1-.085-1.482A14.3,14.3,0,0,0,80.612,52.116a53.089,53.089,0,0,0-7.9.264A14.146,14.146,0,0,0,61.5,70.82a2.708,2.708,0,0,1-.1,2.262,6.372,6.372,0,0,0,5.524,9.1,1.767,1.767,0,0,1,1.768,1.035,23.515,23.515,0,0,0,2.1,2.834,3.891,3.891,0,0,1-2.956,2.008c-1.975.386-3.942.822-5.926,1.161a11.237,11.237,0,0,0-8.548,5.912c-.349-.5-.655-.89-.919-1.311-11.732-18.7.157-43.294,22.143-45.811a30.094,30.094,0,0,1,33.44,31.571,38.854,38.854,0,0,1-1,5.941,2.517,2.517,0,0,1-1.085,1.337c-1.948,1.267-3.972,2.417-5.918,3.686a1.734,1.734,0,0,1-1.768.152c-2.754-.881-5.574-1.555-8.374-2.288a14.2,14.2,0,0,1-2.218-.5,24.935,24.935,0,0,1-2.639-1.565" transform="translate(-34.948 -34.933)" fill="url(#linear-gradient)"/>
        <path id="Trazado_219691" data-name="Trazado 219691" d="M61.225,88.347c-.373,1.356-.611,2.5-1.024,3.581a1.729,1.729,0,0,1-1.1.986A38.688,38.688,0,1,1,93.24,50.831a62,62,0,0,1-.075,8.04,1.524,1.524,0,0,1-.867,1.058c-1.127.415-2.313.668-3.626,1.025C90.627,47.046,86.4,35.536,75.255,26.935a32.78,32.78,0,0,0-23.344-6.71A34.351,34.351,0,0,0,20.4,56.236a33.2,33.2,0,0,0,13.135,25.3c8.107,6.39,17.387,8.508,27.688,6.806" transform="translate(-11.737 -11.53)" fill="#653f9f"/>
        <path id="Trazado_219692" data-name="Trazado 219692" d="M101.972,219.993c2.172-2.911,4.253-5.651,6.27-8.436a1.329,1.329,0,0,1,1.749-.554c2.46.653,4.975,1.1,7.464,1.642.674.147,1.336.346,2.146.558a43.305,43.305,0,0,0-3.253,3.654c-1.856,2.624-3.537,5.372-5.363,8.019a3.21,3.21,0,0,1-1.646,1.3c-10.6,2.522-19.915.008-28.017-7.222a1.514,1.514,0,0,1-.489-1.882,6.232,6.232,0,0,1,4.551-4.166q4.564-1.084,9.162-2.021c.314-.063.846.334,1.094.658,2.09,2.739,4.138,5.511,6.333,8.453" transform="translate(-58.95 -154.058)" fill="url(#linear-gradient-3)"/>
        <path id="Trazado_219693" data-name="Trazado 219693" d="M137,92.561c-2.658,0-5.115,0-7.571,0a16.436,16.436,0,0,1-7.406-1.617,4.276,4.276,0,0,0-4.688.3,7.027,7.027,0,0,1-5.087,1.351,8.474,8.474,0,0,1-.111-5.753,9.888,9.888,0,0,1,9.351-7.163,46.171,46.171,0,0,1,8.158.287,9.813,9.813,0,0,1,7.569,12.088,2.926,2.926,0,0,1-.215.5" transform="translate(-81.597 -58.183)" fill="#eee6fa"/>
        <path id="Trazado_219694" data-name="Trazado 219694" d="M148.541,138.39c0,1.737.089,3.3-.018,4.855a6.439,6.439,0,0,1-12.845-.178c-.072-1.519-.058-3.044-.01-4.564.055-1.753,1.136-2.427,2.75-1.777a24.416,24.416,0,0,0,10.123,1.663" transform="translate(-99.085 -99.711)" fill="#fff"/>
        <path id="Trazado_219695" data-name="Trazado 219695" d="M153.851,198.238c-.94,1.723-2.381,3.234-3.63,5.089-1.2-1.6-2.306-3.054-3.375-4.526a.821.821,0,0,1-.093-.716c.075-.141.436-.189.666-.178,2.018.091,4.035.2,6.432.331" transform="translate(-107.178 -144.583)" fill="url(#linear-gradient-4)"/>
        <path id="Trazado_219696" data-name="Trazado 219696" d="M113.915,143.793v4.087a1.941,1.941,0,0,1-2.105-1.869c-.072-1.143.611-1.9,2.105-2.219" transform="translate(-81.681 -105.05)" fill="#fff"/>
        <path id="Trazado_219697" data-name="Trazado 219697" d="M199.982,143.736A1.993,1.993,0,0,1,202,145.791c.041,1.239-.72,1.915-2.014,2.229Z" transform="translate(-146.1 -105.009)" fill="#fff"/>
        <path id="Trazado_219698" data-name="Trazado 219698" d="M36.8,318.229l3.821-1.339c1.424,2.93,2.671,5.85,4.215,8.6A55.862,55.862,0,0,0,66.3,346.979a1.376,1.376,0,0,0,1.862-.11,6.228,6.228,0,0,1,7.824-.039A6.388,6.388,0,0,1,78,354.421a6.477,6.477,0,0,1-6.7,3.927,6.363,6.363,0,0,1-5.609-5.645,2.226,2.226,0,0,0-1.416-1.963,60.242,60.242,0,0,1-27.254-31.869c-.061-.161-.112-.326-.22-.642m35.311,35.845a2.141,2.141,0,1,0-2.192-2.088,2.17,2.17,0,0,0,2.192,2.088" transform="translate(-26.886 -231.509)"/>
        <path id="Trazado_219699" data-name="Trazado 219699" d="M27.617,286.363l4.217-.791.976,4.192L28.678,290.9l-1.061-4.538" transform="translate(-20.176 -208.629)"/>
        <path id="Trazado_219700" data-name="Trazado 219700" d="M323.669,42.049a2.142,2.142,0,1,1-2.035-2.245,2.177,2.177,0,0,1,2.035,2.245" transform="translate(-233.333 -29.078)" fill="#7f4fc7"/>
        <path id="Trazado_219701" data-name="Trazado 219701" d="M237.2,282.182a12.736,12.736,0,0,1,1.091-1.529q11.245-11.274,22.521-22.517c3.967-3.941,9.8-3.7,13.1.47a8.467,8.467,0,0,1,.2,10.356,16.221,16.221,0,0,1-1.6,1.8q-14.339,14.357-28.692,28.7c-4.316,4.314-9.206,4.3-13.538-.03-4.023-4.022-8.081-8.01-12.054-12.081a8.582,8.582,0,1,1,11.926-12.344c2.3,2.194,4.463,4.526,7.054,7.172m-.1,5.771c-.433-.411-.76-.708-1.073-1.019q-4.28-4.273-8.555-8.551a4.331,4.331,0,0,0-4.375-1.4,4.273,4.273,0,0,0-1.819,7.339c3.982,4.064,8.033,8.058,12.057,12.081,2.55,2.55,4.886,2.565,7.412.04q14.352-14.347,28.7-28.7a12.317,12.317,0,0,0,1.1-1.18,4.07,4.07,0,0,0,.793-3.666A4.274,4.274,0,0,0,264,261.051c-3.4,3.314-6.729,6.7-10.085,10.061-5.572,5.577-11.142,11.156-16.819,16.841" transform="translate(-157.458 -186.532)"/>
        <path id="Trazado_219702" data-name="Trazado 219702" d="M161.91,443.286A2.141,2.141,0,1,1,164,441.092a2.167,2.167,0,0,1-2.087,2.194" transform="translate(-116.683 -320.722)" fill="#7f4fc7"/>
        <path id="Trazado_219703" data-name="Trazado 219703" d="M248.843,299.692c5.678-5.685,11.247-11.264,16.819-16.841,3.356-3.359,6.684-6.748,10.085-10.061a4.274,4.274,0,0,1,7.331,1.843,4.07,4.07,0,0,1-.793,3.666,12.317,12.317,0,0,1-1.1,1.18q-14.347,14.353-28.7,28.7c-2.526,2.525-4.861,2.51-7.412-.04-4.024-4.023-8.075-8.018-12.057-12.081a4.273,4.273,0,0,1,1.82-7.339,4.331,4.331,0,0,1,4.375,1.4q4.273,4.28,8.555,8.551c.312.312.639.608,1.073,1.019" transform="translate(-169.208 -198.271)" fill="#eeac3a"/>
      </g>
    </g>
  </g>
</svg>
