<svg id="Grupo_179444" data-name="Grupo 179444" xmlns="http://www.w3.org/2000/svg" xmlns:xlink="http://www.w3.org/1999/xlink" width="58.063" height="58.068" viewBox="0 0 58.063 58.068">
  <defs>
    <clipPath id="clip-path">
      <rect id="Rectángulo_52680" data-name="Rectángulo 52680" width="58.063" height="58.068" fill="none"/>
    </clipPath>
  </defs>
  <g id="Grupo_171311" data-name="Grupo 171311" clip-path="url(#clip-path)">
    <path id="Trazado_212439" data-name="Trazado 212439" d="M102.086,0a5.336,5.336,0,0,1,3.127,1.788,5.291,5.291,0,0,1,1.108,3.43q0,16.447,0,32.894,0,7.438,0,14.875a4.836,4.836,0,0,1-3.569,4.875,5.6,5.6,0,0,1-1.431.189q-14.724.016-29.448.007c-.1,0-.2-.01-.341-.017V56.125h.7q14.452,0,28.9,0a2.942,2.942,0,0,0,3.173-2.3,4.656,4.656,0,0,0,.074-.961q.005-23.824,0-47.649a2.943,2.943,0,0,0-3.3-3.273q-16.054,0-32.108,0a2.939,2.939,0,0,0-3.3,3.275q0,10.068,0,20.136v.746H63.743v-.681c0-6.692.034-13.384-.017-20.075A5.014,5.014,0,0,1,67.87.055.384.384,0,0,0,67.976,0Z" transform="translate(-56.001)"/>
    <path id="Trazado_212440" data-name="Trazado 212440" d="M0,240.1a24.687,24.687,0,0,1,1.088-3.3,9.658,9.658,0,0,1,18.241,5.07,9.509,9.509,0,0,1-3.274,6.589c-.1.094-.213.184-.315.281a.516.516,0,0,0-.067.117,2.9,2.9,0,0,1,.155,3.8,10.284,10.284,0,0,1,.594,1.9,2.86,2.86,0,0,1-1.787,2.881,1.653,1.653,0,0,0-.7.655c-.487.879-.927,1.785-1.363,2.691a1.168,1.168,0,0,1-1.194.731c-1.148-.024-2.3-.022-3.445,0a1.138,1.138,0,0,1-1.144-.712q-.689-1.41-1.41-2.8a1.1,1.1,0,0,0-.412-.477c-2.174-1.088-2.63-2.635-1.372-4.72-.948-1.668-.929-2.5.074-3.922-.574-.622-1.188-1.205-1.706-1.866a9.114,9.114,0,0,1-1.85-4.4A1.938,1.938,0,0,0,0,242.278V240.1m12.774,7.765.145.2a7.354,7.354,0,0,0,1.186-.54,7.757,7.757,0,0,0,2.8-9.1,7.75,7.75,0,0,0-14.815,1.217,7.66,7.66,0,0,0,3.521,8.1,4.277,4.277,0,0,0,.994.3c-.264-1.6-.5-3.032-.737-4.46-.162-.956.205-1.416,1.179-1.42q2.629-.011,5.258,0c.973,0,1.34.465,1.178,1.422-.242,1.427-.473,2.856-.709,4.285m-3.131,3.968c1.229,0,2.458,0,3.686,0,.754,0,1.188-.38,1.178-.995-.01-.576-.444-.935-1.171-.937q-3.656-.008-7.312,0c-.728,0-1.166.357-1.178.93-.013.615.424,1,1.171,1,1.209.007,2.417,0,3.626,0m.035,3.871c1.209,0,2.417,0,3.626,0,.769,0,1.2-.355,1.2-.97.006-.6-.438-.961-1.206-.962q-3.626-.006-7.252,0c-.767,0-1.213.369-1.2.965.011.615.437.964,1.206.967,1.209.005,2.417,0,3.626,0M7.922,244.123l.636,3.806H10.8l.63-3.806Zm-.492,13.537c.741,1.916.741,1.916,2.641,1.916a4.179,4.179,0,0,0,.663-.01.569.569,0,0,0,.377-.212c.295-.539.556-1.1.852-1.694Z" transform="translate(0 -203.451)"/>
    <path id="Trazado_212441" data-name="Trazado 212441" d="M102.595,76.445c-.009-.181-.02-.3-.02-.415,0-.481,0-.961,0-1.507h26.093V33.917H97.756V54.152H95.8v-.671q0-10.068,0-20.136c0-1.146.269-1.412,1.429-1.412h31.988c1.15,0,1.418.27,1.418,1.426q0,20.832,0,41.663c0,1.147-.277,1.423-1.425,1.423H102.595Z" transform="translate(-84.188 -28.062)"/>
    <path id="Trazado_212442" data-name="Trazado 212442" d="M153.313,157.031c-1.154.412-1.686.038-1.687-1.146,0-1.733.014-3.466-.008-5.2a1.145,1.145,0,0,1,.765-1.227,4.6,4.6,0,0,0,2.093-1.775,9.575,9.575,0,0,1,14.419-1.362,17.294,17.294,0,0,1,1.946,2.594,5.156,5.156,0,0,1,.373.738c1.229-.371,1.7-.025,1.7,1.21,0,1.713-.014,3.426.007,5.138a1.194,1.194,0,0,1-.819,1.26,4.279,4.279,0,0,0-1.933,1.607,9.209,9.209,0,0,1-8.516,4.114,9.421,9.421,0,0,1-8.18-5.647c-.044-.09-.092-.177-.159-.306m17.665-5c-.283.119-.5.213-.719.3-.243.1-.484.2-.735.272a8.917,8.917,0,0,1-7.953-1.437,6.791,6.791,0,0,0-7.672-.279c-.138.075-.32.24-.322.367-.025,1.115-.015,2.231-.015,3.26a30.637,30.637,0,0,1,3.382-.752,9.268,9.268,0,0,1,6.26,1.913,6.676,6.676,0,0,0,7.514.1.577.577,0,0,0,.248-.412c.02-1.083.011-2.166.011-3.325m-15.933,4.106a7.774,7.774,0,0,0,6.827,4.93,6.951,6.951,0,0,0,5.753-2.243c-.622-.03-1.244-.022-1.857-.1a10.783,10.783,0,0,1-4.593-2,6.544,6.544,0,0,0-6.131-.589m1.815-8.3c.076.042.109.076.139.075a9.484,9.484,0,0,1,6.34,2.066,6.569,6.569,0,0,0,6.093.588c-1.74-5.1-8.847-6.633-12.573-2.729" transform="translate(-133.24 -126.252)"/>
    <path id="Trazado_212443" data-name="Trazado 212443" d="M436.907,84.177c0,5.685.006,11.369-.012,17.054a2.987,2.987,0,0,1-.284,1.207c-.516,1.113-1.093,2.2-1.634,3.3-.208.424-.47.757-.991.75a1.055,1.055,0,0,1-.944-.728c-.57-1.155-1.161-2.3-1.715-3.463a2.221,2.221,0,0,1-.216-.921q-.016-17.175-.007-34.35a2.939,2.939,0,0,1,1.967-2.951,2.891,2.891,0,0,1,3.281,1.05,3.279,3.279,0,0,1,.559,2.06q-.007,8.5,0,16.993m-3.871-12.5v.786c0,9.326.017,18.652-.023,27.978a6.9,6.9,0,0,0,.977,2.88,6.235,6.235,0,0,0,1-2.944c-.04-9.326-.023-18.652-.023-27.978v-.722Zm.009-1.99h1.926c0-.869,0-1.707,0-2.545a3.177,3.177,0,0,0-.013-.421.944.944,0,0,0-.985-.862.88.88,0,0,0-.915.862c-.043.976-.012,1.956-.012,2.966" transform="translate(-378.847 -56.175)"/>
    <path id="Trazado_212444" data-name="Trazado 212444" d="M215.568,410.063a2.9,2.9,0,1,1,2.877,2.909,2.936,2.936,0,0,1-2.877-2.909m3.862.038a.961.961,0,1,0-.991.931,1.007,1.007,0,0,0,.991-.931" transform="translate(-189.439 -357.817)"/>
    <path id="Trazado_212445" data-name="Trazado 212445" d="M129.691,118.513h-1.957V113.8c0-2,.029-2.03,2.015-2.03h4.726v1.9h-4.784Z" transform="translate(-112.251 -98.22)"/>
    <path id="Trazado_212446" data-name="Trazado 212446" d="M302.448,118.483h-1.913V113.7h-4.812V111.74h3.306c.8,0,1.61-.013,2.414.007a.913.913,0,0,1,1,.915c.023,1.927.009,3.854.009,5.821" transform="translate(-259.878 -98.193)"/>
    <path id="Trazado_212447" data-name="Trazado 212447" d="M300.581,284.519v-4.825h1.891c.011.154.033.326.033.5q0,2.474,0,4.949c0,.973-.326,1.292-1.307,1.294-1.79,0-3.579,0-5.417,0v-1.915Z" transform="translate(-259.93 -245.792)"/>
    <rect id="Rectángulo_52673" data-name="Rectángulo 52673" width="3.795" height="1.861" transform="translate(24.219 13.579)"/>
    <rect id="Rectángulo_52674" data-name="Rectángulo 52674" width="3.815" height="1.85" transform="translate(30.02 13.585)"/>
    <rect id="Rectángulo_52675" data-name="Rectángulo 52675" width="1.864" height="3.795" transform="translate(15.524 22.285)"/>
    <rect id="Rectángulo_52676" data-name="Rectángulo 52676" width="1.861" height="3.797" transform="translate(40.689 22.299)"/>
    <rect id="Rectángulo_52677" data-name="Rectángulo 52677" width="1.861" height="3.795" transform="translate(40.684 28.09)"/>
    <rect id="Rectángulo_52678" data-name="Rectángulo 52678" width="3.795" height="1.864" transform="translate(24.22 38.737)"/>
    <rect id="Rectángulo_52679" data-name="Rectángulo 52679" width="3.79" height="1.883" transform="translate(30.033 38.735)"/>
  </g>
</svg>
