<svg id="Grupo_179445" data-name="Grupo 179445" xmlns="http://www.w3.org/2000/svg" xmlns:xlink="http://www.w3.org/1999/xlink" width="64.925" height="57.163" viewBox="0 0 64.925 57.163">
  <defs>
    <clipPath id="clip-path">
      <rect id="Rectángulo_55929" data-name="Rectángulo 55929" width="64.925" height="57.163" fill="#12263f"/>
    </clipPath>
  </defs>
  <g id="Grupo_175081" data-name="Grupo 175081" clip-path="url(#clip-path)">
    <path id="Trazado_217334" data-name="Trazado 217334" d="M129.768,36.247a3.092,3.092,0,0,1-2.963.976c-.7-.068-1.042.115-1.147.918-.258,1.963-.651,3.909-.985,5.863-.445,2.6-1.872,3.834-4.5,3.853-2.409.017-4.818.012-7.227.029-1.5.01-1.932.447-1.94,1.981q-.016,2.915,0,5.829c0,.728-.072,1.477-.975,1.46-.877-.017-.984-.765-.982-1.492.006-1.985-.031-3.971.011-5.956.052-2.489,1.4-3.774,3.923-3.792,2.409-.018,4.818,0,7.227-.02,1.661-.012,2.207-.458,2.5-2.051.422-2.323.876-4.643,1.2-6.98a1.6,1.6,0,0,1,1.91-1.629c2.248.049,2.224,0,1.768-2.242a14.572,14.572,0,0,0-2.246-5.2,4.344,4.344,0,0,1-.735-2.971c.316-3.564.751-7.138-.423-10.668A17.672,17.672,0,0,0,100.02,3.571c-.777.333-.724.558-.105,1.059a20.728,20.728,0,0,1,4.8,5.515c.379.634.67,1.275-.125,1.74-.744.435-1.156-.131-1.5-.708a20.123,20.123,0,0,0-4.864-5.453,1.3,1.3,0,0,0-1.868,0A18.6,18.6,0,0,0,89.817,26.2c.217.728.43,1.456.649,2.182.2.65.106,1.229-.6,1.434-.648.187-1-.248-1.213-.823-3.456-9.188-1.366-17.941,5.764-24.164,1.014-.886,1.03-.887-.251-1.4-.7-.281-1.429-.511-2.146-.759-.6-.206-.966-.592-.782-1.238s.725-.77,1.324-.6a19.018,19.018,0,0,1,3.988,1.593,1.17,1.17,0,0,0,1.282.115A19.835,19.835,0,0,1,105.141.219c.1-.012.185-.143.278-.219h4.058c.162.361.5.225.773.272,7.355,1.3,12.518,5.346,15.367,12.272,1.579,3.839,1.409,7.83.973,11.84-.068.62-.321,1.285.071,1.85a21.46,21.46,0,0,1,3.107,7.225Z" transform="translate(-64.843)" fill="#12263f"/>
    <path id="Trazado_217335" data-name="Trazado 217335" d="M23.075,0c.446.366,1.018.693.718,1.41-.288.689-.93.606-1.523.615a17.453,17.453,0,0,0-17.1,13.68c-.7,3.03-.257,6.058-.011,9.075a4.5,4.5,0,0,1-.769,3.086,13.709,13.709,0,0,0-2.4,6.324c-.089.842.17,1.084,1.013,1.087,2.54.008,2.552.041,3,2.532.375,2.075.723,4.154,1.071,6.233a1.98,1.98,0,0,0,2.164,1.852c2.493.006,4.986.006,7.479.021,2.6.016,3.942,1.3,3.987,3.858.035,1.984,0,3.969.009,5.954,0,.744-.173,1.455-1.043,1.435-.8-.018-.922-.7-.917-1.4.016-1.943.012-3.885,0-5.828-.007-1.615-.424-2.041-2-2.05-2.408-.014-4.817-.008-7.225-.029A4.073,4.073,0,0,1,5.1,44.077c-.348-1.993-.729-3.983-1-5.987-.1-.736-.412-.921-1.065-.869a8.276,8.276,0,0,1-1.267,0A1.678,1.678,0,0,1,0,35.342a14.446,14.446,0,0,1,2.58-8.207,3.657,3.657,0,0,0,.611-2.729c-.757-5.444-.379-10.7,2.771-15.452A19.328,19.328,0,0,1,19.51.272c.27-.044.612.089.774-.272Z" transform="translate(0)" fill="#12263f"/>
    <path id="Trazado_217336" data-name="Trazado 217336" d="M65.236,122.126c-1.14,0-2.281.036-3.418-.012-.717-.03-.995.215-.931.935a1.826,1.826,0,0,1-.912,2.049c-.922.438-1.595-.085-2.263-.656-1.635-1.4-3.306-2.754-4.936-4.158-1.3-1.122-1.319-1.908-.052-3,1.757-1.516,3.551-2.987,5.324-4.485a1.718,1.718,0,0,1,1.87-.4,1.581,1.581,0,0,1,.962,1.758c-.117,1.01.264,1.294,1.258,1.257,2.023-.076,4.051-.034,6.078-.019,1.65.012,2.212.571,2.239,2.2.015.885.034,1.773-.008,2.657a1.718,1.718,0,0,1-1.917,1.87c-1.1.035-2.195.007-3.292.008m-6.595.565a.646.646,0,0,0,.285-.664c.083-1.737.2-1.854,1.924-1.856q2.912,0,5.824,0c1.9,0,1.869,0,1.851-1.9-.007-.716-.216-.945-.934-.93-1.941.042-3.883.014-5.824.014-2.568,0-2.568,0-3-2.624-1.549,1.3-3.021,2.525-4.491,3.757-.281.235-.144.43.072.611l4.3,3.59" transform="translate(-38.59 -83.657)" fill="#12263f"/>
    <path id="Trazado_217337" data-name="Trazado 217337" d="M147.768,45.412c.634,0,1.267,0,1.9,0a5.408,5.408,0,0,0,2-.077c.732-.323.213-1.2.366-1.816a1.552,1.552,0,0,1,2.466-.951Q157.586,45,160.53,47.6a1.445,1.445,0,0,1-.036,2.334c-1.941,1.69-3.9,3.363-5.931,4.947a1.492,1.492,0,0,1-2.5-1.335c.095-1.427-.511-1.564-1.667-1.519-1.982.077-3.97.033-5.955.017-1.444-.012-1.969-.539-2-1.99-.021-.97-.037-1.943.009-2.912a1.623,1.623,0,0,1,1.772-1.724c1.182-.014,2.365,0,3.548,0m6.265,7.445c1.548-1.285,2.973-2.462,4.39-3.648.246-.206.607-.407.159-.779-1.5-1.247-2.994-2.5-4.626-3.865-.046.41-.075.568-.08.727-.06,2.007-.117,2.067-2.077,2.069-2.15,0-4.3.055-6.45-.02-1.245-.043-.952.775-.942,1.428.009.635-.345,1.49.921,1.442,1.894-.073,3.794-.019,5.691-.019,2.605,0,2.605,0,3.013,2.665" transform="translate(-106.127 -31.473)" fill="#12263f"/>
    <path id="Trazado_217338" data-name="Trazado 217338" d="M141.807,142.991c0-1.518.111-3.045-.023-4.551a21.86,21.86,0,0,1,1.457-8.9c.218-.661.473-1.407,1.358-1.124s.715,1.074.457,1.706c-1.388,3.4-1.5,6.942-1.41,10.544.09,3.5.016,7,.022,10.5,0,.7,0,1.469-.923,1.5-.981.034-.935-.769-.936-1.455q0-4.11,0-8.221" transform="translate(-105.612 -95.65)" fill="#12263f"/>
    <path id="Trazado_217339" data-name="Trazado 217339" d="M107.275,166.89c0,2.236,0,4.472,0,6.707,0,.67.1,1.5-.881,1.507-1.027,0-.974-.837-.974-1.572q0-6.707,0-13.415c0-.725-.086-1.632.9-1.644,1.093-.014.956.957.958,1.708q.007,3.354,0,6.707" transform="translate(-78.554 -118.092)" fill="#12263f"/>
    <path id="Trazado_217340" data-name="Trazado 217340" d="M156.423,89.338a41.183,41.183,0,0,1-1.734,6.557.891.891,0,0,1-1.188.65.9.9,0,0,1-.609-1.207c.565-2.06,1.257-4.085,1.67-6.188a.853.853,0,0,1,1.064-.668.922.922,0,0,1,.8.856" transform="translate(-113.894 -65.92)" fill="#12263f"/>
  </g>
</svg>
