<svg xmlns="http://www.w3.org/2000/svg" xmlns:xlink="http://www.w3.org/1999/xlink" width="85.3" height="105.31" viewBox="0 0 85.3 105.31">
  <defs>
    <clipPath id="clip-path">
      <rect id="Rectángulo_56865" data-name="Rectángulo 56865" width="85.3" height="105.309" fill="none"/>
    </clipPath>
    <linearGradient id="linear-gradient" x1="0.5" x2="0.5" y2="1" gradientUnits="objectBoundingBox">
      <stop offset="0" stop-color="#2a9d8d"/>
      <stop offset="1" stop-color="#43a99b"/>
    </linearGradient>
    <linearGradient id="linear-gradient-3" x1="0.5" x2="0.5" y2="1" gradientUnits="objectBoundingBox">
      <stop offset="0" stop-color="#f5f5f5"/>
      <stop offset="0.25" stop-color="#f5f5f5"/>
      <stop offset="1" stop-color="#a7b3cf"/>
    </linearGradient>
    <linearGradient id="linear-gradient-4" x1="0.5" x2="0.5" y2="1" gradientUnits="objectBoundingBox">
      <stop offset="0" stop-color="#477fb5"/>
      <stop offset="1" stop-color="#2b3990"/>
    </linearGradient>
  </defs>
  <g id="Grupo_179448" data-name="Grupo 179448" transform="translate(-8599.938 7712.359)">
    <g id="Grupo_179401" data-name="Grupo 179401" transform="translate(8599.938 -7712.359)">
      <g id="Grupo_176588" data-name="Grupo 176588" clip-path="url(#clip-path)">
        <path id="Trazado_219571" data-name="Trazado 219571" d="M21.23,105.309V99.867c-.631,0-1.137.022-1.641,0a1.868,1.868,0,0,1-2.025-2.073c-.023-2.228-.02-4.455,0-6.683a1.866,1.866,0,0,1,2.06-2.131c.5-.02,1.007,0,1.592,0,0-3.736,0-7.329,0-10.922A19.182,19.182,0,0,1,23.041,69.8a19.854,19.854,0,0,1,11.2-10.438c.222-.086.446-.17.663-.268.056-.025.09-.1.134-.148-3.878-6.1-3.878-6.1-4.843-15.321a7.507,7.507,0,0,1-5.58-2.775,7.079,7.079,0,0,1-1.576-4.668c.066-3.856,2.5-6.316,7.411-7.264,0-2.1-.171-4.268.029-6.4A25.276,25.276,0,0,1,51.125.4a26.215,26.215,0,0,1,9.5.1,2.969,2.969,0,0,0,1.1-.031A25.337,25.337,0,0,1,91.95,25.083c.077,6.682.053,13.366.008,20.049A21.63,21.63,0,0,1,83.587,62.46c-.131.108-.256.223-.516.452.72.671,1.476,1.266,2.1,1.977A19.132,19.132,0,0,1,90.118,77.42c.072,3.426.024,6.854.03,10.281,0,.372,0,.743,0,1.281.656,0,1.228-.031,1.8.006A1.773,1.773,0,0,1,93.789,90.9q.042,3.5,0,6.991a1.806,1.806,0,0,1-1.9,1.969c-.538.037-1.08.006-1.786.006v5.447h-3.5V99.934h-7.4v5.375h-3.5a3.849,3.849,0,0,1-.042-.408q0-12.133,0-24.265a5.507,5.507,0,0,1,.089-.7H79.3v8.949h7.137c0-4.187.176-8.3-.047-12.395a15.113,15.113,0,0,0-5.856-11.015,1.507,1.507,0,0,0-1.224-.355A24.825,24.825,0,0,1,68.1,67.212a6.014,6.014,0,0,0-.819.108,3.447,3.447,0,0,0,.312.229c2.18,1.07,4.364,2.133,6.542,3.206,1.723.849,1.974,1.959.764,3.419-2.557,3.086-5.145,6.148-7.667,9.263a2.993,2.993,0,0,0-.626,1.731c-.044,6.374-.029,12.749-.024,19.124,0,.339.053.678.081,1.017h-3.7V77.963a14.932,14.932,0,0,1-14.557.026c0,3.331,0,6.483,0,9.635q-.015,8.842-.039,17.684H44.873c-.021-.409-.06-.818-.06-1.227,0-6.236-.019-12.472.016-18.708a3.013,3.013,0,0,0-.778-2.12c-2.548-3-5.056-6.041-7.575-9.069-1.207-1.451-.965-2.582.746-3.425,2.3-1.134,4.62-2.231,6.9-3.4a1.361,1.361,0,0,0,.632-.971c.013-.258-.388-.619-.686-.8-1.756-1.051-3.523-2.084-5.317-3.068a2.191,2.191,0,0,0-1.387-.3,16.176,16.176,0,0,0-12.443,14.7c-.187,3.829-.068,7.673-.079,11.51a1.8,1.8,0,0,0,.114.45h7.171V79.873a23.72,23.72,0,0,0,2.419-.016c.976-.1,1.191.286,1.187,1.208-.034,7.744-.018,15.487-.023,23.231,0,.338-.06.676-.093,1.014H32.127V99.95h-7.2v5.359ZM88.289,35.186h.059c0-2.708.05-5.416-.017-8.122a33.848,33.848,0,0,0-.424-5.827,21.682,21.682,0,0,0-24.9-17.316c-9.793,1.46-17.84,10.244-18.112,20.134q-.307,11.2,0,22.41A17.978,17.978,0,0,0,60.663,63.324a90.641,90.641,0,0,0,9.646.21A18.2,18.2,0,0,0,88.26,46.39c.183-3.726.03-7.469.03-11.2M53.045,3.876c-.563.042-.859.038-1.145.089A21.681,21.681,0,0,0,33.956,24.891q-.166,10.377,0,20.758a18.137,18.137,0,0,0,14.3,17.434c.732.163,1.487.224,2.231.333a1.883,1.883,0,0,0-.655-.756,21.437,21.437,0,0,1-8.648-17.376c-.068-6.816-.156-13.638.029-20.45.232-8.528,3.994-15.286,10.914-20.278.236-.17.467-.346.916-.679m-4.635,63.2c0,1.922-.019,3.938.022,5.953a1.342,1.342,0,0,0,.486.825,10.838,10.838,0,0,0,13.549-.009,1.228,1.228,0,0,0,.463-.728c.038-1.945.021-3.892.021-6.041ZM32.047,92.658H21.287v3.528h10.76ZM79.26,96.174H90.075V92.638H79.333c-.027.314-.067.579-.069.843-.008.881,0,1.762,0,2.692M30.231,32.736a3.583,3.583,0,0,0-3.591,3.652,3.523,3.523,0,0,0,3.591,3.472Zm10.18,40.513,4.328,5.177V71.131l-4.328,2.118m26.265,5.132,4.28-5.141-4.374-2.122c0,2.317,0,4.43,0,6.544,0,.159.039.319.091.719" transform="translate(-13.931 0)"/>
        <path id="Trazado_219572" data-name="Trazado 219572" d="M63.635,344.908c.032-.338.093-.676.093-1.013.005-7.744-.011-15.487.023-23.231,0-.921-.211-1.311-1.187-1.208a23.666,23.666,0,0,1-2.419.016v9.009H52.974a1.8,1.8,0,0,1-.114-.45c.011-3.837-.108-7.681.079-11.51a16.176,16.176,0,0,1,12.443-14.7,2.191,2.191,0,0,1,1.387.3c1.794.984,3.561,2.017,5.317,3.068.3.179.7.54.686.8a1.361,1.361,0,0,1-.632.971c-2.283,1.168-4.6,2.266-6.9,3.4-1.711.843-1.954,1.974-.747,3.425,2.519,3.028,5.027,6.065,7.575,9.069a3.013,3.013,0,0,1,.778,2.12c-.035,6.236-.02,12.472-.016,18.708,0,.409.039.818.06,1.227Z" transform="translate(-41.945 -239.598)" fill="url(#linear-gradient)"/>
        <path id="Trazado_219573" data-name="Trazado 219573" d="M255.552,356.041c-.028-.339-.08-.678-.081-1.017,0-6.375-.02-12.75.024-19.124a2.993,2.993,0,0,1,.626-1.731c2.522-3.115,5.11-6.177,7.667-9.263,1.211-1.461.959-2.57-.764-3.419-2.178-1.073-4.362-2.137-6.542-3.206a3.437,3.437,0,0,1-.312-.229,6.013,6.013,0,0,1,.819-.108,24.825,24.825,0,0,0,11.206-2.088,1.507,1.507,0,0,1,1.224.355,15.113,15.113,0,0,1,5.856,11.015c.224,4.093.047,8.208.047,12.395h-7.137v-8.949h-3.54a5.511,5.511,0,0,0-.089.7q-.006,12.133,0,24.265a3.8,3.8,0,0,0,.042.408Z" transform="translate(-202.819 -250.732)" fill="url(#linear-gradient)"/>
        <path id="Trazado_219574" data-name="Trazado 219574" d="M167.1,405.659q.02-8.842.039-17.684c.005-3.152,0-6.3,0-9.635a14.932,14.932,0,0,0,14.557-.027v27.346Z" transform="translate(-132.665 -300.349)" fill="#fff"/>
        <rect id="Rectángulo_56861" data-name="Rectángulo 56861" width="7.401" height="5.375" transform="translate(65.275 99.935)" fill="#fff"/>
        <rect id="Rectángulo_56862" data-name="Rectángulo 56862" width="7.196" height="5.359" transform="translate(11 99.951)" fill="#fff"/>
        <path id="Trazado_219575" data-name="Trazado 219575" d="M378.515,71.5l-3.505-.292v-2.16c0-6.544.02-13.089-.006-19.633A28.837,28.837,0,0,0,369.891,32.9c-.134-.2-.263-.4-.437-.66l2.9-2.117c.287.4.552.748.791,1.111a31.3,31.3,0,0,1,5.424,17.084c.086,7.16.025,14.321.022,21.482,0,.51-.045,1.019-.077,1.7" transform="translate(-293.316 -23.918)"/>
        <path id="Trazado_219576" data-name="Trazado 219576" d="M11.68,270.545l2.072,2.959c-8.476,6.144-10.915,14.771-10.017,24.741H.081c-.2-5.235-.191-10.425,1.857-15.4a27.584,27.584,0,0,1,9.742-12.3" transform="translate(0 -214.791)"/>
        <path id="Trazado_219577" data-name="Trazado 219577" d="M391.742,251.328l-3.359-1.292,1.066-3.574,3.552.8-1.26,4.069" transform="translate(-308.344 -195.671)"/>
        <path id="Trazado_219578" data-name="Trazado 219578" d="M193.059,49.286c0,3.735.153,7.478-.03,11.2a18.2,18.2,0,0,1-17.951,17.144,90.644,90.644,0,0,1-9.646-.21,17.978,17.978,0,0,1-15.766-16.859q-.3-11.2,0-22.41c.271-9.89,8.318-18.673,18.111-20.133a21.682,21.682,0,0,1,24.9,17.316,33.849,33.849,0,0,1,.424,5.827c.067,2.706.017,5.414.017,8.122h-.059M163.434,47.7c-.156-.358-.293-.665-.425-.975a9.068,9.068,0,1,1,13.884,3.585,8.664,8.664,0,0,1-5.215,1.884c-1.009.026-2,.365-2.053,1.455-.122,2.515-.039,5.04-.039,7.6h3.556c0-1.489.044-2.922-.016-4.35-.036-.847.178-1.212,1.093-1.422a12.69,12.69,0,1,0-15.493-10.879,10.555,10.555,0,0,0,1.675,4.872l3.034-1.772m6.17,20.8h3.455v-3.52H169.6Z" transform="translate(-118.701 -14.099)" fill="url(#linear-gradient-3)"/>
        <path id="Trazado_219580" data-name="Trazado 219580" d="M167.288,325.488h14.541c0,2.149.017,4.1-.021,6.041a1.23,1.23,0,0,1-.464.728,10.838,10.838,0,0,1-13.549.009,1.343,1.343,0,0,1-.486-.825c-.042-2.015-.022-4.032-.022-5.953" transform="translate(-132.809 -258.411)" fill="#fff"/>
        <rect id="Rectángulo_56863" data-name="Rectángulo 56863" width="10.76" height="3.528" transform="translate(7.356 92.658)" fill="#eeac3a"/>
        <path id="Trazado_219581" data-name="Trazado 219581" d="M317,453.058c0-.93-.005-1.811,0-2.692,0-.265.042-.529.07-.843h10.742v3.535Z" transform="translate(-251.671 -356.884)" fill="#eeac3a"/>
        <path id="Trazado_219582" data-name="Trazado 219582" d="M65.256,158.852v7.123a3.523,3.523,0,0,1-3.591-3.472,3.583,3.583,0,0,1,3.591-3.652" transform="translate(-48.956 -126.115)" fill="#fff"/>
        <path id="Trazado_219583" data-name="Trazado 219583" d="M128.492,347.277l4.328-2.118v7.295l-4.328-5.176" transform="translate(-102.012 -274.028)" fill="url(#linear-gradient-4)"/>
        <path id="Trazado_219584" data-name="Trazado 219584" d="M255.577,352.364c-.052-.4-.091-.559-.092-.719,0-2.114,0-4.227,0-6.544l4.374,2.122-4.28,5.141" transform="translate(-202.832 -273.983)" fill="url(#linear-gradient-4)"/>
        <path id="Trazado_219585" data-name="Trazado 219585" d="M198.6,96.5l-3.034,1.772a10.556,10.556,0,0,1-1.675-4.872,12.7,12.7,0,1,1,15.493,10.879c-.915.21-1.129.574-1.093,1.422.061,1.429.017,2.862.017,4.35h-3.556c0-2.562-.083-5.088.039-7.6.053-1.09,1.044-1.429,2.053-1.455a8.663,8.663,0,0,0,5.215-1.884,9.066,9.066,0,1,0-13.884-3.585c.132.309.269.617.425.975" transform="translate(-153.87 -62.891)"/>
        <rect id="Rectángulo_56864" data-name="Rectángulo 56864" width="3.455" height="3.52" transform="translate(50.903 50.886)"/>
      </g>
    </g>
  </g>
</svg>
