<svg xmlns="http://www.w3.org/2000/svg" width="384.511" height="202.711" viewBox="0 0 384.511 202.711">
  <g id="Grupo_179462" data-name="Grupo 179462" transform="translate(-11914.761 8173.05)">
    <g id="Grupo_54243" data-name="Grupo 54243" transform="translate(10792.25 -8831.193)">
      <g id="Grupo_54197" data-name="Grupo 54197" transform="translate(1396.77 785.265)" opacity="0.4">
        <g id="Grupo_54196" data-name="Grupo 54196" transform="translate(0 0)">
          <path id="Trazado_115944" data-name="Trazado 115944" d="M2776.289,1503.206l-1.313-.729a2.58,2.58,0,0,1-1.33-2.293c0-.107,0-.214,0-.321s0-.214,0-.321a2.58,2.58,0,0,1,1.33-2.293l1.313-.729a2.593,2.593,0,0,0,1.245-2.932c0-.012-.008-.027-.012-.039a2.589,2.589,0,0,0-2.541-1.916l-1.5.024a2.6,2.6,0,0,1-2.312-1.349c-.095-.166-.189-.331-.285-.494a2.608,2.608,0,0,1-.017-2.684l.771-1.281a2.589,2.589,0,0,0-.389-3.161l-.032-.032a2.589,2.589,0,0,0-3.161-.389l-1.281.771a2.608,2.608,0,0,1-2.684-.017c-.163-.095-.328-.19-.494-.285a2.6,2.6,0,0,1-1.35-2.312l.024-1.505a2.588,2.588,0,0,0-1.916-2.541c-.012,0-.027-.007-.039-.012a2.593,2.593,0,0,0-2.932,1.245l-.729,1.313a2.579,2.579,0,0,1-2.293,1.33c-.107,0-.214,0-.321,0s-.214,0-.321,0a2.579,2.579,0,0,1-2.293-1.33l-.729-1.313a2.593,2.593,0,0,0-2.932-1.245c-.012.005-.027.007-.039.012a2.589,2.589,0,0,0-1.916,2.541l.024,1.505a2.6,2.6,0,0,1-1.349,2.312c-.165.095-.331.19-.493.285a2.608,2.608,0,0,1-2.684.017l-1.281-.771a2.589,2.589,0,0,0-3.161.389l-.032.032a2.59,2.59,0,0,0-.389,3.161l.771,1.281a2.607,2.607,0,0,1-.017,2.684c-.095.163-.189.328-.284.494a2.6,2.6,0,0,1-2.312,1.349l-1.505-.024a2.589,2.589,0,0,0-2.541,1.916c0,.012-.007.027-.012.039a2.592,2.592,0,0,0,1.245,2.932l1.313.729a2.58,2.58,0,0,1,1.33,2.293c0,.107,0,.214,0,.321s0,.214,0,.321a2.581,2.581,0,0,1-1.33,2.293l-1.313.729a2.592,2.592,0,0,0-1.245,2.932c.005.012.007.027.012.039a2.588,2.588,0,0,0,2.541,1.916l1.505-.024a2.6,2.6,0,0,1,2.312,1.349c.095.165.19.331.284.494a2.607,2.607,0,0,1,.017,2.684l-.771,1.281a2.59,2.59,0,0,0,.389,3.161l.032.032a2.589,2.589,0,0,0,3.161.389l1.281-.771a2.607,2.607,0,0,1,2.684.017c.163.095.328.19.493.284a2.6,2.6,0,0,1,1.349,2.312l-.024,1.505a2.588,2.588,0,0,0,1.916,2.541c.012.005.027.007.039.012a2.592,2.592,0,0,0,2.932-1.245l.729-1.313a2.58,2.58,0,0,1,2.293-1.33c.107,0,.214,0,.321,0s.214,0,.321,0a2.579,2.579,0,0,1,2.293,1.33l.729,1.313a2.592,2.592,0,0,0,2.932,1.245c.012,0,.027-.007.039-.012a2.588,2.588,0,0,0,1.916-2.541l-.024-1.505a2.605,2.605,0,0,1,1.35-2.312c.165-.095.331-.19.494-.284a2.607,2.607,0,0,1,2.684-.017l1.281.771a2.589,2.589,0,0,0,3.161-.389l.032-.032a2.589,2.589,0,0,0,.389-3.161l-.771-1.281a2.608,2.608,0,0,1,.017-2.684c.1-.163.19-.328.285-.494a2.6,2.6,0,0,1,2.312-1.349l1.5.024a2.588,2.588,0,0,0,2.541-1.916c0-.012.007-.027.012-.039A2.593,2.593,0,0,0,2776.289,1503.206Zm-22.252,11.245a14.589,14.589,0,1,1,14.589-14.589A14.588,14.588,0,0,1,2754.036,1514.451Z" transform="translate(-2730.452 -1476.278)" fill="#dee4f0"/>
          <circle id="Elipse_4057" data-name="Elipse 4057" cx="6.585" cy="6.585" r="6.585" transform="translate(16.999 17.121)" fill="#dee4f0"/>
        </g>
      </g>
      <path id="Trazado_115945" data-name="Trazado 115945" d="M2275.391,1499.249l-.766-.426a1.505,1.505,0,0,1-.776-1.338c0-.062,0-.125,0-.187s0-.125,0-.187a1.506,1.506,0,0,1,.776-1.338l.766-.426a1.513,1.513,0,0,0,.727-1.712.229.229,0,0,0-.007-.022,1.511,1.511,0,0,0-1.483-1.119l-.878.014a1.522,1.522,0,0,1-1.35-.788c-.055-.1-.11-.193-.166-.288a1.522,1.522,0,0,1-.01-1.567l.45-.748a1.512,1.512,0,0,0-.227-1.845l-.019-.018a1.512,1.512,0,0,0-1.845-.227l-.748.45a1.522,1.522,0,0,1-1.567-.01l-.289-.166a1.521,1.521,0,0,1-.787-1.35l.014-.879a1.511,1.511,0,0,0-1.118-1.483l-.023-.007a1.513,1.513,0,0,0-1.711.727l-.426.766a1.506,1.506,0,0,1-1.339.776l-.187,0-.187,0a1.505,1.505,0,0,1-1.338-.776l-.426-.766a1.513,1.513,0,0,0-1.712-.727l-.022.007a1.511,1.511,0,0,0-1.118,1.483l.014.879a1.52,1.52,0,0,1-.788,1.35l-.288.166a1.522,1.522,0,0,1-1.567.01l-.748-.45a1.511,1.511,0,0,0-1.845.227l-.018.018a1.511,1.511,0,0,0-.227,1.845l.45.748a1.522,1.522,0,0,1-.01,1.567l-.166.288a1.52,1.52,0,0,1-1.35.788l-.879-.014a1.511,1.511,0,0,0-1.483,1.119c0,.007,0,.015-.007.022a1.513,1.513,0,0,0,.727,1.712l.766.426a1.506,1.506,0,0,1,.777,1.338c0,.063,0,.125,0,.187s0,.125,0,.187a1.506,1.506,0,0,1-.777,1.338l-.766.426a1.513,1.513,0,0,0-.727,1.712c0,.007,0,.016.007.023a1.511,1.511,0,0,0,1.483,1.118l.879-.014a1.52,1.52,0,0,1,1.35.788c.055.1.111.193.166.288a1.522,1.522,0,0,1,.01,1.567l-.45.748a1.511,1.511,0,0,0,.227,1.845l.018.019a1.511,1.511,0,0,0,1.845.227l.748-.45a1.522,1.522,0,0,1,1.567.01l.288.166a1.52,1.52,0,0,1,.788,1.35l-.014.879a1.511,1.511,0,0,0,1.118,1.483l.022.007a1.514,1.514,0,0,0,1.712-.727l.426-.766a1.505,1.505,0,0,1,1.338-.776l.187,0,.187,0a1.506,1.506,0,0,1,1.339.776l.426.766a1.513,1.513,0,0,0,1.711.727l.023-.007a1.51,1.51,0,0,0,1.118-1.483l-.014-.879a1.521,1.521,0,0,1,.787-1.35l.289-.166a1.522,1.522,0,0,1,1.567-.01l.748.45a1.512,1.512,0,0,0,1.845-.227l.019-.019a1.512,1.512,0,0,0,.227-1.845l-.45-.748a1.522,1.522,0,0,1,.01-1.567c.055-.095.111-.192.166-.288a1.521,1.521,0,0,1,1.35-.788l.878.014a1.511,1.511,0,0,0,1.483-1.118c0-.007,0-.016.007-.023A1.513,1.513,0,0,0,2275.391,1499.249Zm-12.989,6.564a8.516,8.516,0,1,1,8.516-8.516A8.515,8.515,0,0,1,2262.4,1505.813Z" transform="translate(-934.047 -697.028)" fill="#dee4f0" opacity="0.4"/>
      <path id="Trazado_115946" data-name="Trazado 115946" d="M1838.991,980.872l-197.914,3.653-4.649-3.653V865.312h202.563l4.649,3.653Z" transform="translate(-426.261 -184.256)" fill="#00223d"/>
      <path id="Trazado_115947" data-name="Trazado 115947" d="M1838.991,745.588l-197.914,3.653-4.649-3.653V730.977h202.563l4.649,3.653Z" transform="translate(-426.261 -72.834)" fill="#00223d"/>
      <rect id="Rectángulo_29290" data-name="Rectángulo 29290" width="202.563" height="115.56" transform="translate(1214.816 684.708)" fill="#efeaea"/>
      <rect id="Rectángulo_29291" data-name="Rectángulo 29291" width="54.935" height="28.279" transform="translate(1222.372 696.439)" fill="#b2e5e0"/>
      <g id="Grupo_54198" data-name="Grupo 54198" transform="translate(1338.996 766.081)">
        <rect id="Rectángulo_29292" data-name="Rectángulo 29292" width="57.556" height="2.297" transform="translate(8.925 0.722)" fill="#fff"/>
        <rect id="Rectángulo_29293" data-name="Rectángulo 29293" width="57.556" height="2.297" transform="translate(8.925 9.844)" fill="#fff"/>
        <rect id="Rectángulo_29294" data-name="Rectángulo 29294" width="57.556" height="2.297" transform="translate(8.925 19.068)" fill="#fff"/>
        <path id="Trazado_115948" data-name="Trazado 115948" d="M2393.736,1367.541h-.131a1.87,1.87,0,0,1-1.87-1.87h0a1.87,1.87,0,0,1,1.87-1.87h.131a1.871,1.871,0,0,1,1.871,1.87h0A1.871,1.871,0,0,1,2393.736,1367.541Z" transform="translate(-2391.735 -1363.8)" fill="#fff"/>
        <path id="Trazado_115949" data-name="Trazado 115949" d="M2393.736,1421.023h-.131a1.87,1.87,0,0,1-1.87-1.87h0a1.87,1.87,0,0,1,1.87-1.87h.131a1.871,1.871,0,0,1,1.871,1.87h0A1.871,1.871,0,0,1,2393.736,1421.023Z" transform="translate(-2391.735 -1408.16)" fill="#fff"/>
        <path id="Trazado_115950" data-name="Trazado 115950" d="M2393.736,1475.276h-.131a1.87,1.87,0,0,1-1.87-1.87h0a1.87,1.87,0,0,1,1.87-1.87h.131a1.87,1.87,0,0,1,1.871,1.87h0A1.871,1.871,0,0,1,2393.736,1475.276Z" transform="translate(-2391.735 -1453.159)" fill="#fff"/>
      </g>
      <g id="Grupo_54199" data-name="Grupo 54199" transform="translate(1222.218 732.411)">
        <rect id="Rectángulo_29295" data-name="Rectángulo 29295" width="57.556" height="2.297" transform="translate(8.925 0.722)" fill="#fff"/>
        <rect id="Rectángulo_29296" data-name="Rectángulo 29296" width="57.556" height="2.297" transform="translate(8.925 9.844)" fill="#fff"/>
        <path id="Trazado_115951" data-name="Trazado 115951" d="M1709.079,1170.14h-.131a1.871,1.871,0,0,1-1.871-1.871h0a1.871,1.871,0,0,1,1.871-1.87h.131a1.87,1.87,0,0,1,1.87,1.87h0A1.871,1.871,0,0,1,1709.079,1170.14Z" transform="translate(-1707.077 -1166.399)" fill="#fff"/>
        <rect id="Rectángulo_29297" data-name="Rectángulo 29297" width="3.872" height="3.741" rx="1.87" transform="translate(0 9.122)" fill="#fff"/>
      </g>
      <rect id="Rectángulo_29298" data-name="Rectángulo 29298" width="202.563" height="14.611" transform="translate(1214.816 661.796)" fill="#efeaea"/>
      <g id="Grupo_54205" data-name="Grupo 54205" transform="translate(1222.252 666.127)">
        <g id="Grupo_54204" data-name="Grupo 54204" transform="translate(0 0)">
          <g id="Grupo_54201" data-name="Grupo 54201" transform="translate(17.041)">
            <g id="Grupo_54200" data-name="Grupo 54200">
              <circle id="Elipse_4058" data-name="Elipse 4058" cx="2.103" cy="2.103" r="2.103" transform="translate(0 2.974) rotate(-45)" fill="#67b4d2"/>
            </g>
          </g>
          <g id="Grupo_54202" data-name="Grupo 54202" transform="translate(8.407)">
            <circle id="Elipse_4059" data-name="Elipse 4059" cx="2.103" cy="2.103" r="2.103" transform="translate(0 2.974) rotate(-45)" fill="#eb908b"/>
          </g>
          <g id="Grupo_54203" data-name="Grupo 54203" transform="translate(0 0.226)">
            <circle id="Elipse_4060" data-name="Elipse 4060" cx="2.103" cy="2.103" r="2.103" transform="translate(0 1.61) rotate(-22.5)" fill="#ffaa3f"/>
          </g>
        </g>
      </g>
      <g id="Grupo_54224" data-name="Grupo 54224" transform="translate(1329.48 696.581)">
        <rect id="Rectángulo_29299" data-name="Rectángulo 29299" width="96.663" height="57.433" rx="5" transform="translate(0 0)" fill="#b2e5e0"/>
        <rect id="Rectángulo_29300" data-name="Rectángulo 29300" width="96.663" height="57.433" rx="5" transform="translate(2.98 2.722)" fill="#3fb8a9"/>
        <g id="Grupo_54212" data-name="Grupo 54212" transform="translate(10.493 11.013)">
          <g id="Grupo_54206" data-name="Grupo 54206" transform="translate(29.586)">
            <rect id="Rectángulo_29301" data-name="Rectángulo 29301" width="2.679" height="41.104" fill="#fff"/>
          </g>
          <g id="Grupo_54207" data-name="Grupo 54207" transform="translate(23.669)">
            <rect id="Rectángulo_29302" data-name="Rectángulo 29302" width="2.679" height="41.104" fill="#fff"/>
          </g>
          <g id="Grupo_54208" data-name="Grupo 54208" transform="translate(17.751)">
            <rect id="Rectángulo_29303" data-name="Rectángulo 29303" width="2.679" height="41.104" fill="#fff"/>
          </g>
          <g id="Grupo_54209" data-name="Grupo 54209" transform="translate(11.834)">
            <rect id="Rectángulo_29304" data-name="Rectángulo 29304" width="2.679" height="41.104" fill="#fff"/>
          </g>
          <g id="Grupo_54210" data-name="Grupo 54210" transform="translate(5.917)">
            <rect id="Rectángulo_29305" data-name="Rectángulo 29305" width="2.679" height="41.104" fill="#fff"/>
          </g>
          <g id="Grupo_54211" data-name="Grupo 54211">
            <rect id="Rectángulo_29306" data-name="Rectángulo 29306" width="2.679" height="41.104" fill="#fff"/>
          </g>
        </g>
        <g id="Grupo_54213" data-name="Grupo 54213" transform="translate(40.078 39.244)">
          <rect id="Rectángulo_29307" data-name="Rectángulo 29307" width="2.679" height="12.874" fill="#c6e0dd"/>
        </g>
        <g id="Grupo_54214" data-name="Grupo 54214" transform="translate(34.161 25.404)">
          <rect id="Rectángulo_29308" data-name="Rectángulo 29308" width="2.679" height="26.713" fill="#c6e0dd"/>
        </g>
        <g id="Grupo_54216" data-name="Grupo 54216" transform="translate(28.244 18.484)">
          <g id="Grupo_54215" data-name="Grupo 54215">
            <rect id="Rectángulo_29309" data-name="Rectángulo 29309" width="2.679" height="33.633" fill="#c6e0dd"/>
          </g>
        </g>
        <g id="Grupo_54218" data-name="Grupo 54218" transform="translate(22.327 28.717)">
          <g id="Grupo_54217" data-name="Grupo 54217">
            <rect id="Rectángulo_29310" data-name="Rectángulo 29310" width="2.679" height="23.4" fill="#c6e0dd"/>
          </g>
        </g>
        <g id="Grupo_54219" data-name="Grupo 54219" transform="translate(16.41 35.379)">
          <rect id="Rectángulo_29311" data-name="Rectángulo 29311" width="2.679" height="16.738" fill="#c6e0dd"/>
        </g>
        <g id="Grupo_54221" data-name="Grupo 54221" transform="translate(10.493 40.642)">
          <g id="Grupo_54220" data-name="Grupo 54220">
            <rect id="Rectángulo_29312" data-name="Rectángulo 29312" width="2.679" height="11.475" fill="#c6e0dd"/>
          </g>
        </g>
        <circle id="Elipse_4061" data-name="Elipse 4061" cx="5.156" cy="5.156" r="5.156" transform="translate(52.323 20.002) rotate(-76.717)" fill="#fff"/>
        <g id="Grupo_54222" data-name="Grupo 54222" transform="translate(68.751 11.141)">
          <rect id="Rectángulo_29313" data-name="Rectángulo 29313" width="22.897" height="1.479" fill="#fff"/>
          <rect id="Rectángulo_29314" data-name="Rectángulo 29314" width="22.897" height="1.479" transform="translate(0 4.374)" fill="#fff"/>
          <rect id="Rectángulo_29315" data-name="Rectángulo 29315" width="12.67" height="1.479" transform="translate(0 8.704)" fill="#fff"/>
        </g>
        <circle id="Elipse_4062" data-name="Elipse 4062" cx="5.156" cy="5.156" r="5.156" transform="translate(53.369 29.799)" fill="#fff"/>
        <g id="Grupo_54223" data-name="Grupo 54223" transform="translate(68.751 29.927)">
          <rect id="Rectángulo_29316" data-name="Rectángulo 29316" width="22.897" height="1.479" fill="#fff"/>
          <rect id="Rectángulo_29317" data-name="Rectángulo 29317" width="22.897" height="1.479" transform="translate(0 4.374)" fill="#fff"/>
          <rect id="Rectángulo_29318" data-name="Rectángulo 29318" width="12.67" height="1.479" transform="translate(0 8.704)" fill="#fff"/>
        </g>
      </g>
      <rect id="Rectángulo_29319" data-name="Rectángulo 29319" width="357.999" height="4.366" transform="translate(1149.022 856.488)" fill="#12263f"/>
      <g id="Grupo_54225" data-name="Grupo 54225" transform="translate(1318.704 715.442)">
        <path id="Trazado_115952" data-name="Trazado 115952" d="M2281.776,1163.294s-5.336-6.549-8.15-7.374,2.183,3.493,1.989,4.269-3.008,3.2-1.261,5.142,4.948,2.232,4.948,2.232Z" transform="translate(-2272.765 -1140.652)" fill="#ffac95"/>
        <path id="Trazado_115953" data-name="Trazado 115953" d="M2516.874,1157.6h-8.246l-.891-2.815-1.243-3.929,4.13-2.2,1.982-1.054Z" transform="translate(-2466.628 -1133.841)" fill="#ffac95"/>
        <path id="Trazado_115954" data-name="Trazado 115954" d="M2510.624,1153.782a13.443,13.443,0,0,1-2.887,6.127l-1.243-3.93Z" transform="translate(-2466.628 -1138.965)" fill="#e9928b"/>
        <path id="Trazado_115955" data-name="Trazado 115955" d="M2632.517,1454.226l-.97.534a14.635,14.635,0,0,0-1.068,3.978c0,1.407-.824,3.881-.291,4.075s1.892-3.153,2.086-3.784.727,2.328.922,3.153-.437,3.978,0,4.124,2.522-2.183,2.813-3.25.1-2.64.29-2.4.462,2.421,1.069,2.106c.261-.136-.194-2.717-.776-4.318s-1.31-4.8-1.31-4.8Z" transform="translate(-2569.076 -1387.681)" fill="#ffac95"/>
        <path id="Trazado_115956" data-name="Trazado 115956" d="M2597.2,1259.261c-1.068,1.164-4.465.486-4.465.486s-1.551-15.136-2.329-16.591c-.51-.958-2.951-5.356-4.561-8.255-.838-1.511-1.452-2.611-1.452-2.611s-.349-1.65-.667-3.807c-.646-4.378-1.162-10.843,1.624-9.853h0c3.277,1.17,8.194,11.186,10.565,17.525a30.1,30.1,0,0,1,1.281,4.09C2598.071,1244.611,2597.2,1259.261,2597.2,1259.261Z" transform="translate(-2530.262 -1192.668)" fill="#7d6eb2"/>
        <path id="Trazado_115957" data-name="Trazado 115957" d="M2669.274,1757.452c-.547.387,1.385,6.654.7,7.411s-5.225,5.769-5.225,5.769a8.97,8.97,0,0,1-.094-4.5c.521-1.976.687-5.8-2.619-10.793a27.142,27.142,0,0,0-1.906-2.532l4.477-6.354a31.438,31.438,0,0,0,3.507,4.043,9.758,9.758,0,0,0,.9.737c1.976,1.4,6.771,7.213,6.771,7.213l-2.148,2.372S2669.823,1757.064,2669.274,1757.452Z" transform="translate(-2594.06 -1630.546)" fill="#7d6eb2"/>
        <path id="Trazado_115958" data-name="Trazado 115958" d="M2360.189,1804.551c.291,2.4-.8,9.858-.8,9.858h-3.2s.218-5.347-.437-5.492-4,5.492-5.021,5.492h-7.786a8.988,8.988,0,0,1,3.274-3.091c1.869-.967,4.934-3.531,6.368-9.71.187-.8.346-1.662.472-2.588l7.713-.946s-.361,1.691-.541,3.534A14.337,14.337,0,0,0,2360.189,1804.551Z" transform="translate(-2330.973 -1673.363)" fill="#7d6eb2"/>
        <path id="Trazado_115959" data-name="Trazado 115959" d="M2399.951,1799.02l7.713-.946s-.361,1.691-.541,3.534h-7.644C2399.666,1800.807,2399.826,1799.946,2399.951,1799.02Z" transform="translate(-2377.866 -1673.363)" fill="#e9928b"/>
        <path id="Trazado_115960" data-name="Trazado 115960" d="M2668.115,1750.495l-6.078,4.844a27.142,27.142,0,0,0-1.906-2.532l4.477-6.354A31.438,31.438,0,0,0,2668.115,1750.495Z" transform="translate(-2594.06 -1630.546)" fill="#e9928b"/>
        <path id="Trazado_115961" data-name="Trazado 115961" d="M2556.247,1444.306l-7.423,6.4s-5.323-5.565-10.581-11.483v0c-4.692-5.28-9.332-10.837-10.085-12.964a56.988,56.988,0,0,1-1.939-9.536c-.439-3.167-.681-5.746-.681-5.746l.367-7.839.943-20.1.414-.248,4.68-2.809h3.228s.2.341.527.923c1.49,2.637,5.665,10.214,6.142,13.194.582,3.638-2.329,28.379-.873,29.835S2556.247,1444.306,2556.247,1444.306Z" transform="translate(-2482.424 -1326.581)" fill="#aaa5a5"/>
        <path id="Trazado_115962" data-name="Trazado 115962" d="M2538.244,1513.534c-4.692-5.28-9.332-10.837-10.085-12.964-1.6-4.512-2.62-15.281-2.62-15.281l.367-7.839c4.261-4.084,8.287-7.879,8.287-7.879s2.62,13.971,0,19.21,2.777,6.01.582,12.08C2532.74,1506.487,2539.359,1506.185,2538.244,1513.534Z" transform="translate(-2482.424 -1400.891)" fill="#dbdada"/>
        <path id="Trazado_115963" data-name="Trazado 115963" d="M2418.647,1416.724c-.506.914-.9,1.6-1.118,1.968-1.456,2.474-11.934,34.2-11.934,34.2h-9.751s2.184-17.173,4.657-30.853c2.139-11.82,8.948-34.62,10.758-40.6.289-.94.449-1.464.449-1.464h12.662s.352.882.826,2.329a50.849,50.849,0,0,1,2.375,10.915C2428.066,1398.913,2421.517,1411.543,2418.647,1416.724Z" transform="translate(-2374.851 -1326.581)" fill="#aaa5a5"/>
        <path id="Trazado_115964" data-name="Trazado 115964" d="M2386.567,1821.4" transform="translate(-2367.156 -1692.707)" fill="none" stroke="#040707" stroke-miterlimit="10" stroke-width="1"/>
        <path id="Trazado_115965" data-name="Trazado 115965" d="M2503.086,1380.9a7.829,7.829,0,0,1-2.928,1.406,18.6,18.6,0,0,1-5.507.48,41.5,41.5,0,0,1-8.429-1.345l.448-1.464h15.89S2502.757,1380.32,2503.086,1380.9Z" transform="translate(-2449.813 -1326.581)" fill="#dbdada"/>
        <path id="Trazado_115966" data-name="Trazado 115966" d="M2358.194,1208.368a22.257,22.257,0,0,1-.83,4.733c-.1.3-.195.623-.294.964-1.24,4.2-2.835,11.165-2.835,11.165a12.687,12.687,0,0,1-3.8,1.193c-5.728.914-12.091-1.193-12.091-1.193s1.164-6.4-1.164-9.023a13.591,13.591,0,0,1-2.911-6.016s-9.8,3.784-12.225,3.3-14.65-13.875-14.65-14.749,3.106-4.27,3.106-4.27,12.03,10.769,12.417,10.769,12.033-7.178,15.442-9.023a34.407,34.407,0,0,1,8.761-2.62v0h.006c.69-.125,1.114-.189,1.114-.189s.274.093.728.265c1.662.632,5.74,2.294,7.606,4.121h0a3.7,3.7,0,0,1,.785,1.045C2358.214,1200.672,2358.49,1204.715,2358.194,1208.368Z" transform="translate(-2301.489 -1171.831)" fill="#7d6eb2"/>
        <path id="Trazado_115967" data-name="Trazado 115967" d="M2486.577,1100.825s-1.819,11.8.873,12.63,5.967-2.952,5.967-2.952.946-4.512,0-7.5S2490.07,1102.862,2486.577,1100.825Z" transform="translate(-2449.609 -1095.041)" fill="#ffac95"/>
        <path id="Trazado_115968" data-name="Trazado 115968" d="M2408.791,1462.833l-.863-.131c5.375-35.5,15.688-70.666,15.792-71.017l.837.247C2424.453,1392.282,2414.157,1427.4,2408.791,1462.833Z" transform="translate(-2384.873 -1336.29)" fill="#dbdada"/>
        <path id="Trazado_115969" data-name="Trazado 115969" d="M2527.411,1454.346l-.118-.006c-.157-.009-3.864-.314-4.457-9.333l-.031-.466h8.938l-.013.449c-.008.3-.247,7.267-4.215,9.3Zm-3.669-8.932c.554,6.882,2.985,7.9,3.5,8.033,2.866-1.6,3.469-6.518,3.587-8.033Z" transform="translate(-2480.157 -1380.131)" fill="#dbdada"/>
        <path id="Trazado_115970" data-name="Trazado 115970" d="M2481.124,1299.88c-5.728.914-12.091-1.193-12.091-1.193s1.164-6.4-1.164-9.023a13.591,13.591,0,0,1-2.911-6.016s5.257-3.007,4.87-.969-2.037,9.335,4.753,9.18C2480.536,1291.721,2477.093,1298.506,2481.124,1299.88Z" transform="translate(-2432.176 -1245.288)" fill="#64559b"/>
        <path id="Trazado_115971" data-name="Trazado 115971" d="M2557.142,1216.239c-1.659-1.086-4.195-.9-5.883-4.133a5.421,5.421,0,0,0-3.068-2.818,21.066,21.066,0,0,0-3.242-.722,9.546,9.546,0,0,1-5.7-3.01c-4.52-4.878-2.2-10.871-2.133-11.037v0h.006l1.842.076c1.662.632,5.74,2.294,7.606,4.122h0C2549.854,1199.883,2554.77,1209.9,2557.142,1216.239Z" transform="translate(-2491.487 -1172.751)" fill="#64559b"/>
        <path id="Trazado_115972" data-name="Trazado 115972" d="M2535.648,1105.113c-3,6.017-15.072,8.188-18.323,1.057-3.784-8.3-6.185-6.258-12.443-5.822s-10.7-2.911-10.187-10.042c.506-7.073-4.36-7.827-5.725-14.225-.023-.1-.035-.16-.035-.16a4.1,4.1,0,0,0-2.9-2.934s-1.6-1.092,0-3.638,11.861-4.657,14.263,2.11,2.183,10.188,9.9,9.824,12.734,2.547,13.244,9.751,12.371,2.547,12.88,10.842A6.293,6.293,0,0,1,2535.648,1105.113Z" transform="translate(-2449.068 -1066.912)" fill="#00223d"/>
      </g>
      <g id="Grupo_54228" data-name="Grupo 54228" transform="translate(1421.768 692.011)">
        <g id="Grupo_54227" data-name="Grupo 54227">
          <path id="Trazado_115973" data-name="Trazado 115973" d="M3138.645,1043.348l-1.915-4.548s-3.543-3.734-1.532-6.75,10.533-3.734,12.4,7.277a3.762,3.762,0,0,1,3.543,3.016c.527,2.92-2.106,4.835-2.92,6.99a5.339,5.339,0,0,1-2.633,2.921l-3.4.526Z" transform="translate(-3090.648 -1012.967)" fill="#0c1b3c"/>
          <path id="Trazado_115974" data-name="Trazado 115974" d="M3264.006,1466.667a27.524,27.524,0,0,0-2.489,4.931c-.479,1.723-.91,2.25-.527,2.585s1.341-1.389,2.011-2.25.766,2.3.766,3.447-.552,3.208.07,3.256,2.228-2.633,2.8-3.734.316-8.235.316-8.235Z" transform="translate(-3195.375 -1375.052)" fill="#e9928b"/>
          <path id="Trazado_115975" data-name="Trazado 115975" d="M3238.506,1842.935l-1.437,1.077s-1.077,4.164-.574,5.781h17.021a10.2,10.2,0,0,0-5.027-3.429c-3.375-1.059-4.381-1.418-4.884-2.352S3238.506,1842.935,3238.506,1842.935Z" transform="translate(-3175.07 -1687.142)" fill="#7dc4be"/>
          <path id="Trazado_115976" data-name="Trazado 115976" d="M3031.183,1839.567l1.221,1.652s1.508,3.661.862,5.781h-14.219a4.444,4.444,0,0,1,2.585-3.429,42.213,42.213,0,0,0,4.452-2.352Z" transform="translate(-2994.821 -1684.348)" fill="#7dc4be"/>
          <rect id="Rectángulo_29320" data-name="Rectángulo 29320" width="17.02" height="1.688" transform="translate(61.426 162.651)" fill="#fff"/>
          <rect id="Rectángulo_29321" data-name="Rectángulo 29321" width="14.219" height="1.688" transform="translate(24.226 162.651)" fill="#fff"/>
          <path id="Trazado_115977" data-name="Trazado 115977" d="M3242.516,1813.982h-6.537l-.454-3.053-.478-3.2,6.966-1,.291,4.2Z" transform="translate(-3173.979 -1657.111)" fill="#e9928b"/>
          <path id="Trazado_115978" data-name="Trazado 115978" d="M3067.5,1813.469l-.43,3.051-.431,3.053h-6.319l.4-3.053.393-3.051Z" transform="translate(-3029.052 -1662.702)" fill="#e9928b"/>
          <path id="Trazado_115979" data-name="Trazado 115979" d="M3063.031,1813.469h6.392l-.431,3.051h-6.354Z" transform="translate(-3030.977 -1662.702)" fill="#de6667"/>
          <path id="Trazado_115980" data-name="Trazado 115980" d="M3242.3,1810.929h-6.779l-.478-3.2,6.966-1Z" transform="translate(-3173.979 -1657.111)" fill="#de6667"/>
          <path id="Trazado_115981" data-name="Trazado 115981" d="M3095.461,1492.52h-10.2s-7.9-28.153-8.761-32.175-3.83-12.877-3.83-12.877l-7.661,45.052h-8.994s-.378-21.688,0-28.872c.3-5.734,1.828-24.022,3.382-33.13a22.633,22.633,0,0,1,1.162-4.788c1.866-3.877,24.7,4.453,24.7,4.453s.157.885.428,2.419c.873,4.943,2.942,16.611,4.84,27.026C3093.02,1473.272,3095.461,1492.52,3095.461,1492.52Z" transform="translate(-3025.347 -1340.245)" fill="#00223d"/>
          <path id="Trazado_115982" data-name="Trazado 115982" d="M3119.589,1499.27l-3.423-12.113s-3.52,6.7-2.513,12.113-3.079,7.4-.181,13.166-1.273,10.17,1.536,13.775Z" transform="translate(-3072.262 -1392.047)" fill="#011526"/>
          <path id="Trazado_115983" data-name="Trazado 115983" d="M3102.958,1432.6a20.852,20.852,0,0,1-10.036-.536c-9.122-2.529-13.945-2.157-16.256-1.548a22.611,22.611,0,0,1,1.161-4.788c1.866-3.877,24.7,4.453,24.7,4.453S3102.688,1431.069,3102.958,1432.6Z" transform="translate(-3042.613 -1340.245)" fill="#011526"/>
          <path id="Trazado_115984" data-name="Trazado 115984" d="M3022.641,1118.29s-.573-2.978.718-4.515,4.37.855,4.37.855,1.993,2.144.966,4.159S3022.641,1118.29,3022.641,1118.29Z" transform="translate(-2997.697 -1081.925)" fill="#e9928b"/>
          <path id="Trazado_115985" data-name="Trazado 115985" d="M3052.6,1176.813c-1.251,7.25-3.3,15.319-3.045,18.908.478,6.7.766,9.192,1.15,10.438s-5.649,2.3-12.161,0a53.224,53.224,0,0,0-10.409-2.206c-3.53-.439-6.252-.568-6.252-.568s1.819-9.675,2.393-14.749a59,59,0,0,0-.036-10.915l-.009.009c-.279.215-7.4,5.661-11.069,2.133a5.188,5.188,0,0,1-1.228-2.078c-2.4-6.974,2.192-23.812,2.192-23.812l5.458.765s-.766,13.118-.286,13.215,5.65-4.6,8.139-6.415a13.671,13.671,0,0,1,6.217-1.886,28.515,28.515,0,0,1,5.656-.029,33.178,33.178,0,0,1,5.544.707,18.791,18.791,0,0,1,7.19,2.931C3054.175,1164.861,3053.689,1170.528,3052.6,1176.813Z" transform="translate(-2988.342 -1115.692)" fill="#7dc4be"/>
          <path id="Trazado_115986" data-name="Trazado 115986" d="M3132.871,1301.389c.381,1.246-5.65,2.3-12.161,0a53.238,53.238,0,0,0-10.408-2.206c1.2-1.5,3.263-3.021,7.535-4.285,10.485-3.106.478-8.441,6.494-11.934s6.526-14.178,6.526-14.178l3.909,3.257c-1.252,7.251-3.3,15.319-3.045,18.908C3132.2,1297.654,3132.486,1300.143,3132.871,1301.389Z" transform="translate(-3070.511 -1210.923)" fill="#379690" opacity="0.65"/>
          <path id="Trazado_115987" data-name="Trazado 115987" d="M3153.475,1187.188c-2.655,4.966-10.172,9.308-10.172,9.308a27.23,27.23,0,0,1-1.028-9.986,28.5,28.5,0,0,1,5.656-.029A33.159,33.159,0,0,1,3153.475,1187.188Z" transform="translate(-3096.965 -1142.551)" fill="#fff"/>
          <path id="Trazado_115988" data-name="Trazado 115988" d="M3223.033,1203.42c1.311-1.456,4.021-.192,7.373,4.692s6.224,15.7,6.8,19.438-.287,16.565-2.106,22.119l-4.891-.383s-1.237-18.385-1.429-19.629-4.117-11.107-5.745-16.47S3221.309,1205.335,3223.033,1203.42Z" transform="translate(-3162.971 -1156.235)" fill="#7dc4be"/>
          <path id="Trazado_115989" data-name="Trazado 115989" d="M3157.279,1146.143c0,.719-1.054,1.962-3.638,2.442s-5.746-1.388-4.789-2.634a5.579,5.579,0,0,0,.708-2.375,27.6,27.6,0,0,0,.2-3.417s5.6-5.219,5.553-2.538a2.914,2.914,0,0,0,1.962,3.161A13.051,13.051,0,0,0,3157.279,1146.143Z" transform="translate(-3102.341 -1101.494)" fill="#e9928b"/>
          <path id="Trazado_115990" data-name="Trazado 115990" d="M3159.608,1137.62c-1.493,3.766-3.842,5.327-5.757,5.955a27.543,27.543,0,0,0,.2-3.417S3159.655,1134.939,3159.608,1137.62Z" transform="translate(-3106.632 -1101.494)" fill="#de6667"/>
          <g id="Grupo_54226" data-name="Grupo 54226">
            <path id="Trazado_115991" data-name="Trazado 115991" d="M3005.528,1112.279l-9.973,12.838a.819.819,0,0,1-1.148.144,3.382,3.382,0,0,1-.6-4.746l8.4-10.813Z" transform="translate(-2973.299 -1078.973)" fill="#8fb9cf"/>
            <path id="Trazado_115992" data-name="Trazado 115992" d="M3012.55,1117.734l-9.973,12.837a.816.816,0,0,1-.544.31,3.38,3.38,0,0,1,.244-3.789l8.4-10.813Z" transform="translate(-2980.321 -1084.428)" fill="#7a9db0"/>
            <path id="Trazado_115993" data-name="Trazado 115993" d="M3074.122,1099.122c-1.466,1.888-3.058,3.105-3.555,2.719s.29-2.229,1.756-4.117,3.058-3.106,3.555-2.72S3075.588,1097.234,3074.122,1099.122Z" transform="translate(-3037.43 -1066.724)" fill="#8fb9cf"/>
            <rect id="Rectángulo_29322" data-name="Rectángulo 29322" width="8.674" height="7.83" transform="matrix(0.613, -0.79, 0.79, 0.613, 26.954, 30.315)" fill="#8fb9cf"/>
            <path id="Trazado_115994" data-name="Trazado 115994" d="M3064.639,1098.15l-3.614-2.807a.463.463,0,0,1-.082-.65h0a.463.463,0,0,1,.65-.082l3.613,2.807a.463.463,0,0,1,.082.65h0A.463.463,0,0,1,3064.639,1098.15Z" transform="translate(-3029.491 -1066.376)" fill="#7a9db0"/>
            <path id="Trazado_115995" data-name="Trazado 115995" d="M3072.5,1086.3l-3.613-2.807a.463.463,0,0,1-.082-.65h0a.463.463,0,0,1,.65-.081l3.613,2.807a.464.464,0,0,1,.082.65h0A.463.463,0,0,1,3072.5,1086.3Z" transform="translate(-3036.01 -1056.548)" fill="#7a9db0"/>
            <path id="Trazado_115996" data-name="Trazado 115996" d="M3055.232,1108.527l-3.613-2.807a.463.463,0,0,1-.082-.65h0a.464.464,0,0,1,.65-.082l3.613,2.807a.463.463,0,0,1,.082.65h0A.463.463,0,0,1,3055.232,1108.527Z" transform="translate(-3021.689 -1074.983)" fill="#7a9db0"/>
            <path id="Trazado_115997" data-name="Trazado 115997" d="M2909.673,958.169l-.007.009c-.212.272-.425.529-.637.771-.245.277-.487.531-.722.76-.983.949-1.846,1.445-2.187,1.18l-.011.014-26.5-9.812,15.773-20.3,16.06,23.252-.01.014c.3.231.135.986-.36,1.961-.1.2-.221.417-.352.638s-.288.467-.454.708C2910.082,957.624,2909.885,957.9,2909.673,958.169Z" transform="translate(-2879.165 -930.573)" fill="#b2d3e4"/>
            <path id="Trazado_115998" data-name="Trazado 115998" d="M2950.716,995.668l-.007.009-21.62-16.234,2.677-3.446,19.539,18.863C2951.125,995.124,2950.927,995.4,2950.716,995.668Z" transform="translate(-2920.207 -968.073)" fill="#fff" opacity="0.15"/>
            <path id="Trazado_115999" data-name="Trazado 115999" d="M2925.12,1023.444c-.245.276-.487.531-.722.759l-25.391-12.818,3.957-2.842Z" transform="translate(-2895.256 -995.069)" fill="#fff" opacity="0.15"/>
            <path id="Trazado_116000" data-name="Trazado 116000" d="M2969.59,977.149l-19-20.494,1.267-1.156,18.089,21.012C2969.841,976.714,2969.721,976.927,2969.59,977.149Z" transform="translate(-2938.038 -951.072)" fill="#fff" opacity="0.15"/>
            <path id="Trazado_116001" data-name="Trazado 116001" d="M2888.013,941.982a44.823,44.823,0,0,1-3.688,4.2h0c-3.072,3.065-5.808,4.7-6.867,3.874-1.475-1.146.859-6.619,5.215-12.226s9.083-9.224,10.558-8.078c1.06.823.154,3.878-2.056,7.612A44.521,44.521,0,0,1,2888.013,941.982Z" transform="translate(-2877.014 -929.543)" fill="#8fb9cf"/>
            <path id="Trazado_116002" data-name="Trazado 116002" d="M2939.662,998.761a.437.437,0,0,1,.536-.689c.373.29,1.958-.24,4.621-2.9l.213-.212a33.768,33.768,0,0,0,2.543-2.926,33.1,33.1,0,0,0,2.361-3.447c1.916-3.237,2.037-4.9,1.664-5.194a.436.436,0,0,1,.536-.689c1.42,1.1-.54,4.793-1.448,6.328a35.772,35.772,0,0,1-5.25,6.76l-.276.269C2943.77,997.409,2940.988,999.791,2939.662,998.761Z" transform="translate(-2928.837 -973.563)" fill="#8fb9cf"/>
            <path id="Trazado_116003" data-name="Trazado 116003" d="M2917.717,977.74a44.757,44.757,0,0,1-3.688,4.2h0a5.766,5.766,0,0,1,6.85-8.817A44.4,44.4,0,0,1,2917.717,977.74Z" transform="translate(-2906.718 -965.3)" fill="#12263f"/>
            <path id="Trazado_116004" data-name="Trazado 116004" d="M2930.329,985.946c-.437.563-1.1.78-1.481.484s-.335-.992.1-1.555,1.1-.78,1.481-.484S2930.766,985.382,2930.329,985.946Z" transform="translate(-2919.792 -974.926)" fill="#fff" opacity="0.15"/>
          </g>
          <path id="Trazado_116005" data-name="Trazado 116005" d="M3043.74,1127.633s-.189-4.034-1.375-5.4-2.181-1.12-1.976,0,1.11,3.087.232,4.952Z" transform="translate(-3012.5 -1088.587)" fill="#e9928b"/>
          <path id="Trazado_116006" data-name="Trazado 116006" d="M3051.981,1801.285v3.966h10.042l.91-3.966Z" transform="translate(-3022.138 -1652.596)" fill="#011526"/>
          <path id="Trazado_116007" data-name="Trazado 116007" d="M3219.78,1805.251h11.352l-.328-3.966h-12.225Z" transform="translate(-3160.32 -1652.596)" fill="#011526"/>
          <path id="Trazado_116008" data-name="Trazado 116008" d="M3267.678,1853.111l-.276-.094c.013-.039.338-.947,2.271-1.658l.1.273C3267.99,1852.288,3267.681,1853.1,3267.678,1853.111Z" transform="translate(-3200.816 -1694.129)" fill="#fff"/>
          <path id="Trazado_116009" data-name="Trazado 116009" d="M3280.466,1858.411l-.281-.074a2.874,2.874,0,0,1,2.006-1.909l.077.281A2.583,2.583,0,0,0,3280.466,1858.411Z" transform="translate(-3211.417 -1698.333)" fill="#fff"/>
          <path id="Trazado_116010" data-name="Trazado 116010" d="M3296.053,1860.957l-.29-.026a2.593,2.593,0,0,1,.609-1.405l.211.2A2.335,2.335,0,0,0,3296.053,1860.957Z" transform="translate(-3224.339 -1700.903)" fill="#fff"/>
          <path id="Trazado_116011" data-name="Trazado 116011" d="M3058.791,1851.856a8.572,8.572,0,0,0-2.958-.526l-.009-.291a8.714,8.714,0,0,1,3.072.546Z" transform="translate(-3025.325 -1693.863)" fill="#fff"/>
          <path id="Trazado_116012" data-name="Trazado 116012" d="M3049.856,1856.93a9.084,9.084,0,0,0-2.779-.779l.018-.291a9.207,9.207,0,0,1,2.878.8Z" transform="translate(-3018.071 -1697.862)" fill="#fff"/>
          <path id="Trazado_116013" data-name="Trazado 116013" d="M3040.379,1860.927a4.321,4.321,0,0,0-1.67-.591l.044-.288a4.48,4.48,0,0,1,1.821.663Z" transform="translate(-3011.13 -1701.336)" fill="#fff"/>
          <path id="Trazado_116014" data-name="Trazado 116014" d="M3028.962,1249.229a33.7,33.7,0,0,0-1.339,7.5l-.008.009c-.28.215-7.4,5.661-11.069,2.134a5.193,5.193,0,0,1-1.229-2.078c2.029.28,3.76,2.416,6.162-.064C3025.208,1252.879,3028.962,1249.229,3028.962,1249.229Z" transform="translate(-2991.727 -1194.702)" fill="#379690" opacity="0.65"/>
          <path id="Trazado_116015" data-name="Trazado 116015" d="M3137.03,1080.995s-3.974,10.916-.958,13.118,7.852-2.825,7.852-2.825a3.818,3.818,0,0,0,3.16-1.58c1.1-1.676-.813-2.41-1.675-1.875s-1.867-.279-1.2-2.338.287-2.154-1.005-1.867S3137.173,1081.57,3137.03,1080.995Z" transform="translate(-3090.948 -1055.162)" fill="#e9928b"/>
        </g>
        <path id="Trazado_116016" data-name="Trazado 116016" d="M3221.324,1528.627a420.165,420.165,0,0,0-11.305-55.893l.838-.246a421.063,421.063,0,0,1,11.333,56.024Z" transform="translate(-3153.22 -1379.88)" fill="#011526"/>
      </g>
      <g id="Grupo_54233" data-name="Grupo 54233" transform="translate(1122.511 686.993)">
        <path id="Trazado_116017" data-name="Trazado 116017" d="M1582.836,1039a37.911,37.911,0,0,1-1.359-5.978c0-1.449,1.329-5.525,2.068-5.616s2.189,7.88,2.823,8.967-.544,2.627-.544,2.627Z" transform="translate(-1503.193 -1005.698)" fill="#91415c"/>
        <g id="Grupo_54230" data-name="Grupo 54230" transform="translate(0 122.654)">
          <g id="Grupo_54229" data-name="Grupo 54229" transform="translate(0.674)">
            <path id="Trazado_116018" data-name="Trazado 116018" d="M1169.507,1630.258l-4.816-5.3,1.848-1.894,3.738-3.832,4.61,5.078-3.6,3.983Z" transform="translate(-1158.171 -1619.228)" fill="#91415c"/>
            <path id="Trazado_116019" data-name="Trazado 116019" d="M1180.27,1628.289l-4.747-5.229,3.738-3.832,4.61,5.078Z" transform="translate(-1167.155 -1619.228)" fill="#75354a"/>
            <path id="Trazado_116020" data-name="Trazado 116020" d="M1135.279,1652.8l4.815,5.3s-.264,4.586,1.792,7.393,2.606,4.767,1.667,6.849l-14.322-15.776Z" transform="translate(-1128.759 -1647.07)" fill="#aaa5a5"/>
            <path id="Trazado_116021" data-name="Trazado 116021" d="M1126.464,1677.4" transform="translate(-1126.464 -1667.481)" fill="#fff"/>
            <path id="Trazado_116022" data-name="Trazado 116022" d="M1210.434,1769.9" transform="translate(-1196.112 -1744.201)" fill="#fff"/>
            <path id="Trazado_116023" data-name="Trazado 116023" d="M1174.374,1686.184a15.87,15.87,0,0,0-3.757-1.54l.077-.281a15.807,15.807,0,0,1,3.85,1.585Z" transform="translate(-1163.086 -1673.253)" fill="#fff"/>
            <path id="Trazado_116024" data-name="Trazado 116024" d="M1177.166,1700.768a8.358,8.358,0,0,0-3.409-.332l-.032-.289a8.5,8.5,0,0,1,3.554.353Z" transform="translate(-1165.664 -1686.304)" fill="#fff"/>
            <path id="Trazado_116025" data-name="Trazado 116025" d="M1180.409,1712.024l-.106-.271a10.332,10.332,0,0,1,2.71-.629l.018.291A10.2,10.2,0,0,0,1180.409,1712.024Z" transform="translate(-1171.12 -1695.449)" fill="#fff"/>
          </g>
          <rect id="Rectángulo_29323" data-name="Rectángulo 29323" width="1.548" height="21.308" transform="translate(0 10.535) rotate(-42.234)" fill="#fff"/>
        </g>
        <path id="Trazado_116026" data-name="Trazado 116026" d="M1206.068,1304.924s-.09.5-.255,1.348c-.35,1.807-1.043,5.218-1.935,8.872-1.15,4.7-2.631,9.8-4.152,12.424-1.761,3.035-9.008,9.437-15.3,14.682-5.348,4.459-10.005,8.081-10.005,8.081l-9.736-9.992s20.147-18.16,20.69-18.886,2.935-11.277,3.843-19.611a49.689,49.689,0,0,1,2.625-10.655,74.519,74.519,0,0,1,2.989-7.28l9.421,3.443.092.883.913,8.856Z" transform="translate(-1157.494 -1218.448)" fill="#00223d"/>
        <path id="Trazado_116027" data-name="Trazado 116027" d="M1301.815,1376.533c-.351,1.807-1.043,5.217-1.935,8.872-1.149,4.7-2.63,9.8-4.152,12.424-1.761,3.035-9.008,9.438-15.3,14.682,1.508-8.2,11.206-7.462,9.771-13.459-1.494-6.25,4.756-8.7,2.264-16.848s1.541-13.587,1.541-13.587S1297.663,1372.272,1301.815,1376.533Z" transform="translate(-1253.496 -1288.708)" fill="#011526"/>
        <path id="Trazado_116028" data-name="Trazado 116028" d="M1456.379,1014.754a10.7,10.7,0,0,0-2.823,3.9,13.284,13.284,0,0,0-1.038,3.709c-.68,5.163-9.647-.407-9.647-.407l4.348-9.1,3.562-1.9,2.775,1.886Z" transform="translate(-1388.229 -992.047)" fill="#91415c"/>
        <path id="Trazado_116029" data-name="Trazado 116029" d="M1442.871,1056.718s.71-2.215,1.714-2.3,8.341.989,8.681,2.7a6.146,6.146,0,0,1,0,2.793Z" transform="translate(-1388.229 -1028.1)" fill="#dbdada"/>
        <path id="Trazado_116030" data-name="Trazado 116030" d="M1575.073,1094.139l.725-3.352a19.874,19.874,0,0,0-4.62-.707c-1.268.164-2.446,4.059-2.446,4.059Z" transform="translate(-1492.622 -1057.663)" fill="#dbdada"/>
        <path id="Trazado_116031" data-name="Trazado 116031" d="M1495.446,1149.7s4.7,1.262,14.619-7.653-8.233-5.391-8.233-5.391Z" transform="translate(-1431.836 -1095.743)" fill="#dbdada"/>
        <rect id="Rectángulo_29324" data-name="Rectángulo 29324" width="30.245" height="0.873" transform="translate(50.487 136.158)" fill="#040707"/>
        <path id="Trazado_116032" data-name="Trazado 116032" d="M1393.714,1674.613l-9.209-42.333-9.209,42.333-.853-.186,9.635-44.294a.436.436,0,0,1,.853,0l9.635,44.294Z" transform="translate(-1331.472 -1505.333)" fill="#040707"/>
        <g id="Grupo_54232" data-name="Grupo 54232" transform="translate(54.032 136.246)">
          <g id="Grupo_54231" data-name="Grupo 54231" transform="translate(0)">
            <path id="Trazado_116033" data-name="Trazado 116033" d="M1451.575,1706.9h-7.165l-.16-2.641-.324-5.343h6.858l.528,5.343Z" transform="translate(-1443.136 -1698.912)" fill="#91415c"/>
            <path id="Trazado_116034" data-name="Trazado 116034" d="M1451.313,1704.256h-7.063l-.324-5.343h6.858Z" transform="translate(-1443.136 -1698.912)" fill="#75354a"/>
            <path id="Trazado_116035" data-name="Trazado 116035" d="M1440.567,1745.722h7.163s3.217,3.278,6.678,3.642,5.282,1.275,6.192,3.369h-21.308Z" transform="translate(-1439.292 -1737.738)" fill="#aaa5a5"/>
            <path id="Trazado_116036" data-name="Trazado 116036" d="M1439.292,1790.568" transform="translate(-1439.292 -1774.935)" fill="#fff"/>
            <path id="Trazado_116037" data-name="Trazado 116037" d="M1564.218,1790.568" transform="translate(-1542.91 -1774.935)" fill="#fff"/>
            <path id="Trazado_116038" data-name="Trazado 116038" d="M1474.582,1753.781l-.156-.246a15.815,15.815,0,0,1,3.762-1.786l.06.285A15.885,15.885,0,0,0,1474.582,1753.781Z" transform="translate(-1468.433 -1742.738)" fill="#fff"/>
            <path id="Trazado_116039" data-name="Trazado 116039" d="M1488.315,1759.554l-.236-.171a8.505,8.505,0,0,1,2.65-2.394l.123.264A8.36,8.36,0,0,0,1488.315,1759.554Z" transform="translate(-1479.758 -1747.083)" fill="#fff"/>
            <path id="Trazado_116040" data-name="Trazado 116040" d="M1503.451,1764.14l-.272-.1a10.34,10.34,0,0,1,1.355-2.429l.227.182A10.228,10.228,0,0,0,1503.451,1764.14Z" transform="translate(-1492.282 -1750.913)" fill="#fff"/>
          </g>
          <rect id="Rectángulo_29325" data-name="Rectángulo 29325" width="21.308" height="1.548" transform="translate(0 14.996)" fill="#fff"/>
        </g>
        <path id="Trazado_116041" data-name="Trazado 116041" d="M1571.532,1674.613l-9.209-42.333-9.209,42.333-.853-.186,9.635-44.294a.437.437,0,0,1,.853,0l9.635,44.294Z" transform="translate(-1478.961 -1505.333)" fill="#040707"/>
        <rect id="Rectángulo_29326" data-name="Rectángulo 29326" width="30.33" height="0.873" transform="translate(46.964 152.353)" fill="#040707"/>
        <path id="Trazado_116042" data-name="Trazado 116042" d="M1378.789,1375.639h-14.674s.285-24.446.285-28.794c0-3.092-2.932-8.2-5.995-14.959a95.957,95.957,0,0,1-3.608-9.043,81.23,81.23,0,0,1-3-11.579,45.5,45.5,0,0,1-.807-7.171l7.883.883,11.5,1.291s1.261,4.457,2.826,10.207c2.495,9.187,5.758,21.679,5.869,24.576C1379.254,1345.759,1378.789,1375.639,1378.789,1375.639Z" transform="translate(-1312.022 -1235.19)" fill="#00223d"/>
        <path id="Trazado_116043" data-name="Trazado 116043" d="M1350.741,1299.731c-3.182-1.34-6.457-2.625-9.709-2.462a19.482,19.482,0,0,1-3.707-.179,26.61,26.61,0,0,1-7.989-2.568,35.241,35.241,0,0,1-5.427-3.334,74.559,74.559,0,0,1,2.989-7.28l9.421,3.443.092.883,11.5,1.291S1349.175,1293.981,1350.741,1299.731Z" transform="translate(-1289.557 -1218.448)" fill="#011526"/>
        <path id="Trazado_116044" data-name="Trazado 116044" d="M1390.652,1071.387s-12.228,11.957-15.761,12.772-16.576-3.4-18.75-3.261c-.984.063-3.057,6.973-5.024,14.522-2.384,9.122-4.622,19.174-4.622,19.174a57.787,57.787,0,0,0-16.033-3.125,22.72,22.72,0,0,1-3.973-.617c-6.91-1.731-9.478-6.177-9.478-6.177,9.783-13.995,9.918-26.223,11.956-33.832s10.19-8.152,16.3-6.25c2.709.843,8.56,1.9,11.277,2.853s16.712,6.386,17.663,6.386,12.5-6.522,12.5-6.522C1390.381,1067.311,1390.652,1071.387,1390.652,1071.387Z" transform="translate(-1283.836 -1035.771)" fill="#aaa5a5"/>
        <path id="Trazado_116045" data-name="Trazado 116045" d="M1726.986,1066.953a19.489,19.489,0,0,1,4.348-2.9c1.993-.815,4.71-2.488,4.71-1.606s-2.446,2.126-2.446,2.126l7.45-.677s-3.284,3.328-5.91,3.962-5.978,1.811-5.978,1.811Z" transform="translate(-1623.883 -1034.557)" fill="#91415c"/>
        <rect id="Rectángulo_29327" data-name="Rectángulo 29327" width="45.015" height="26.087" transform="translate(79.817 6.281) rotate(-4.767)" fill="#8ec8c8"/>
        <rect id="Rectángulo_29328" data-name="Rectángulo 29328" width="39.58" height="20.652" transform="translate(82.751 8.763) rotate(-4.767)" fill="#fff"/>
        <path id="Trazado_116046" data-name="Trazado 116046" d="M1642.264,992.679l7.672-16.279,10.262,14.783Z" transform="translate(-1553.613 -963.39)" fill="#8ec8c8"/>
        <path id="Trazado_116047" data-name="Trazado 116047" d="M1742.627,1002.425l5.933-12.591,7.937,11.434Z" transform="translate(-1636.857 -974.533)" fill="#8ec8c8"/>
        <path id="Trazado_116048" data-name="Trazado 116048" d="M1723.073,957.58a2.677,2.677,0,1,1-2.891-2.446A2.678,2.678,0,0,1,1723.073,957.58Z" transform="translate(-1616.204 -945.744)" fill="#8ec8c8"/>
        <path id="Trazado_116049" data-name="Trazado 116049" d="M1433.979,1411.135h-.873c0-.262.034-26.25-.116-32.512-.149-6.184-10.933-31.266-11.042-31.518l.8-.346c.447,1.038,10.96,25.491,11.113,31.843C1434.013,1384.873,1433.979,1410.873,1433.979,1411.135Z" transform="translate(-1370.874 -1270.577)" fill="#011526"/>
        <path id="Trazado_116050" data-name="Trazado 116050" d="M1397.209,1249.83c-2.383,9.122-4.622,19.174-4.622,19.174a57.785,57.785,0,0,0-16.033-3.125,22.706,22.706,0,0,1-3.973-.617,9.149,9.149,0,0,1,.745-.742c8.185-7.337,11.244-2.446,15.25-7.745C1391.567,1252.817,1394.472,1252.6,1397.209,1249.83Z" transform="translate(-1329.928 -1190.182)" fill="#dbdada"/>
        <path id="Trazado_116051" data-name="Trazado 116051" d="M1438,910.331l1.495-1.562s.136-2.785-2.672-6.409-4.438-2.264-3.17,0-2.538,1.087-5.934.634-6.2.028-4.528,2.233.226,2.3-3.94,4.017-3.533,4.257,0,4.529,1.182,2.355-1.538,5.254-.636,4.529,2.353,2.9,3.623.181,2.626,2.717,2.536.362,4.167-1.449,1.178,1.359,3.669-2.627S1438,910.331,1438,910.331Z" transform="translate(-1366.237 -900.124)" fill="#0c1b3c"/>
        <path id="Trazado_116052" data-name="Trazado 116052" d="M1502.647,1023.925a10.7,10.7,0,0,0-2.823,3.9c-1.984-2.109-.845-5.728-.845-5.728l.845-.09Z" transform="translate(-1434.497 -1001.218)" fill="#75354a"/>
        <path id="Trazado_116053" data-name="Trazado 116053" d="M1494.738,948.834s-.453,4.6.408,6.952,1.721,2.446.679,3.351-1.721.724-1.948,1.766.227,4.62-2.4,4.529-5.435-3.85-5.707-4.8c0,0-2.763-.906-2.808-3.216s2.219-3.08,3.125-1.993,1.9-.317,1.948-2.038,1.132-4.167,2.989-4.031S1493.742,947.634,1494.738,948.834Z" transform="translate(-1421.482 -940.189)" fill="#91415c"/>
      </g>
      <path id="Trazado_116054" data-name="Trazado 116054" d="M2553.376,1149.706c-3,6.017-15.072,8.188-18.323,1.057-3.784-8.3-6.185-6.258-12.444-5.821s-10.7-2.911-10.187-10.042c.506-7.073-4.36-7.827-5.725-14.224.2.847,1.324,4.776,5.035,5.993,4.171,1.365,7.955,5.274,5.917,9.725s5.682,3.772,11.232-1.13,9.725,3.057,8.852,10.042C2536.922,1151.8,2547.173,1155.641,2553.376,1149.706Z" transform="translate(-1148.092 -396.063)" fill="#011526"/>
      <path id="Trazado_116059" data-name="Trazado 116059" d="M1707.982,1321.364v-23.14s8.058,2.038,10.216,9.314,9.64,10.333,13.525,8,3.663-8.587,8.81-10.77,8.312,3.2,14.355,9.169,14.1,7.131,20.432,1.746,12.446-6.84,17.23-1.892,6.943,5.385,12.41,4.366a10.04,10.04,0,0,1,9.005,3.2Z" transform="translate(-485.61 -543.329)" fill="#b2e5e0"/>
      <rect id="Rectángulo_29329" data-name="Rectángulo 29329" width="97.864" height="2.135" transform="translate(1230.491 785.191)" fill="#fff"/>
      <path id="Trazado_116060" data-name="Trazado 116060" d="M1713.349,1468.875h0a2.256,2.256,0,0,0-2.256,2.256h0a2.256,2.256,0,0,0,2.256,2.256h0a2.256,2.256,0,0,0,2.256-2.256h0A2.256,2.256,0,0,0,1713.349,1468.875Z" transform="translate(-488.19 -684.872)" fill="#fff"/>
      <path id="Trazado_116061" data-name="Trazado 116061" d="M1707.96,1309.875h105.983s-2.242-12.807-10.444-12.807-6.182,11.29-16.76,8.41-11.729-20.2-23.1-21.072-14.1,15.281-20,15.281-7.05-6.719-14.532-7.143-7.05,10.636-12.518,11.218S1707.816,1307.837,1707.96,1309.875Z" transform="translate(-485.588 -531.839)" fill="#3fb8a9" opacity="0.38"/>
      <rect id="Rectángulo_29330" data-name="Rectángulo 29330" width="28.234" height="28.234" rx="14.117" transform="translate(1288.699 696.439)" fill="#b2e5e0"/>
      <rect id="Rectángulo_29331" data-name="Rectángulo 29331" width="28.234" height="28.234" rx="14.117" transform="translate(1291.609 699.303)" fill="#fff"/>
      <path id="Trazado_116062" data-name="Trazado 116062" d="M2164.636,1024.346l11.354-7.951-11.354-7.951Z" transform="translate(-864.375 -302.976)" fill="#344966"/>
    </g>
  </g>
</svg>
