<svg xmlns="http://www.w3.org/2000/svg" xmlns:xlink="http://www.w3.org/1999/xlink" width="103.108" height="103.107" viewBox="0 0 103.108 103.107">
  <defs>
    <clipPath id="clip-path">
      <rect id="Rectángulo_52564" data-name="Rectángulo 52564" width="103.108" height="103.107" fill="#12263f"/>
    </clipPath>
    <linearGradient id="linear-gradient" x1="0.5" x2="0.5" y2="1" gradientUnits="objectBoundingBox">
      <stop offset="0" stop-color="#278d7e"/>
      <stop offset="1" stop-color="#4fc1b1"/>
    </linearGradient>
    <linearGradient id="linear-gradient-2" x1="0.5" x2="0.5" y2="1" gradientUnits="objectBoundingBox">
      <stop offset="0" stop-color="#7e53c5"/>
      <stop offset="1" stop-color="#080383"/>
    </linearGradient>
  </defs>
  <g id="Grupo_179430" data-name="Grupo 179430" transform="translate(-785.141 -1741.807)">
    <g id="Grupo_174732" data-name="Grupo 174732" transform="translate(785.141 1741.807)">
      <g id="Grupo_171273" data-name="Grupo 171273" clip-path="url(#clip-path)">
        <path id="Trazado_212301" data-name="Trazado 212301" d="M108.763,0a2.479,2.479,0,0,1,1.089,2.375c-.052,3.042-.017,6.085-.02,9.128,0,1.707-.532,2.241-2.235,2.241H34.249V34.305H30.834V29.211c-.888,0-1.665.038-2.437-.011s-1.1.235-1.066,1.043c.049,1.32.013,2.643.013,4.043h-3.4c0-1.78-.114-3.566.032-5.331a3.706,3.706,0,0,1,3.652-3.168c1-.023,2,0,3.158,0V24.6c0-7.41.015-14.82-.018-22.23A2.5,2.5,0,0,1,31.859,0h64.23V3.463h-61.8v6.777h72.032V3.388H99.526V0Z" transform="translate(-18.759)" fill="#12263f"/>
        <path id="Trazado_212302" data-name="Trazado 212302" d="M137.366,0V3.388h6.791v6.851H72.125V3.463h61.8V0ZM75.526,8.519h3.328V5.248H75.526Zm6.924-.012h3.3v-3.3h-3.3Zm6.824.012H92.6V5.248H89.274Zm51.479-3.283h-3.3V8.53h3.3Z" transform="translate(-56.599)" fill="url(#linear-gradient)"/>
        <path id="Trazado_212303" data-name="Trazado 212303" d="M353.594,102.766a2.513,2.513,0,0,1-2.373,1.089c-7.623-.034-15.247-.017-22.871-.019-1.715,0-2.245-.527-2.248-2.226,0-2.255-.033-4.51.018-6.764a1.134,1.134,0,0,0-.891-1.319c-1.556-.521-3.089-1.114-4.616-1.717-1.687-.666-1.9-2.191-.463-3.288,1.734-1.325,3.474-2.643,5.244-3.919a1.542,1.542,0,0,0,.723-1.412c-.005-3.354.064-3.405,3.415-3.405,7.23,0,14.46.016,21.689-.018a2.5,2.5,0,0,1,2.373,1.088Zm-3.471-19.474H329.451a3.329,3.329,0,0,1-1.815,3.987c-1.057.646-2,1.476-3.085,2.291l3.1,1.178c1.733.659,1.877.871,1.877,2.752q0,3.414,0,6.836h20.592Z" transform="translate(-250.486 -62.596)" fill="#12263f"/>
        <path id="Trazado_212304" data-name="Trazado 212304" d="M60.036,249.1H37.747v-3.429h74.066c1.5,0,1.5,0,1.5-1.448,0-1.753,0-3.506,0-5.346H27.39c0,2.056-.026,4.152.043,6.245.006.194.611.517.944.525,1.922.051,3.846.025,5.82.025v3.358c-2.424,0-4.852.144-7.253-.05a3.509,3.509,0,0,1-2.981-3.457c-.031-5.619-.012-11.239-.012-16.947h3.4V235.3h85.9V207.937h3.488V209.1q0,17.827,0,35.654c0,2.856-1.5,4.344-4.371,4.344H80.555a30.1,30.1,0,0,0,.392,4.585,4.253,4.253,0,0,0,3.463,3.151c.695.161,1.412.231,2.1.415a5.9,5.9,0,0,1,4.452,5.739c.033,3.1-.156,3.3-3.223,3.3H52.085c-1.864,0-2.357-.488-2.36-2.331-.007-4.182,1.636-6.18,5.713-6.953,3.262-.618,4.6-2.225,4.6-5.538,0-.745,0-1.49,0-2.363m3.429,0c0,1.146-.012,2.144,0,3.141a7.877,7.877,0,0,1-1.741,5.065,8.636,8.636,0,0,1-5.992,3.17c-1.587.215-2.275.9-2.445,2.3H87.45a2.5,2.5,0,0,0-2.5-2.3c-5.456-.646-8.089-4.933-7.742-8.986.066-.768.009-1.548.009-2.392H63.465Z" transform="translate(-18.791 -163.176)" fill="#12263f"/>
        <path id="Trazado_212305" data-name="Trazado 212305" d="M151.691,114.682a18.9,18.9,0,1,1,18.942,18.936,18.856,18.856,0,0,1-18.942-18.936m20.668-10.2c5.473,1.591,8.529,5.255,8.538,10.185.009,5.024-3.023,8.7-8.537,10.295v4.979c6.759.276,13.725-7.4,13.684-15.164-.051-9.717-8.09-15.108-13.685-15.278Zm-1.815,3.364a6.875,6.875,0,1,0,6.919,6.776,6.952,6.952,0,0,0-6.919-6.776m-15.2,8.64c.452,6.913,6.745,13.056,13.471,13.475v-5.022a10.567,10.567,0,0,1-8.448-8.453Zm5.022-3.526a10.565,10.565,0,0,1,8.45-8.455V99.485c-7.523.457-13.428,7.711-13.38,13.473Z" transform="translate(-119.038 -75.194)" fill="#12263f"/>
        <path id="Trazado_212306" data-name="Trazado 212306" d="M131.539,228.442V207.834H134.9c.016.345.047.689.047,1.032q0,10.364,0,20.728c0,1.7-.533,2.237-2.24,2.237H58.922c-2.855,0-3.173-.35-2.965-3.39Z" transform="translate(-43.871 -163.095)" fill="#12263f"/>
        <path id="Trazado_212307" data-name="Trazado 212307" d="M13.772,175.649q5.8,0,11.593,0c1.557,0,2.119.569,2.123,2.134.005,2.326.025,4.652-.014,6.977a1.015,1.015,0,0,0,.8,1.156c1.584.547,3.152,1.145,4.711,1.762,1.678.665,1.884,2.192.446,3.3-1.731,1.327-3.471,2.644-5.241,3.919a1.536,1.536,0,0,0-.718,1.413c.006,3.336-.071,3.395-3.428,3.395q-10.9,0-21.791,0C.537,199.7,0,199.174,0,197.481q0-9.822,0-19.644c0-1.642.542-2.185,2.177-2.186q5.8-.005,11.593,0m10.255,20.585a4.689,4.689,0,0,0,.028-.737,2.779,2.779,0,0,1,1.461-2.949c1.2-.766,2.288-1.7,3.537-2.638-1.215-.459-2.29-.909-3.395-1.272a2.088,2.088,0,0,1-1.616-2.308c.062-2.384.018-4.771.018-7.19H3.5v17.094Z" transform="translate(0 -137.838)" fill="#12263f"/>
        <path id="Trazado_212308" data-name="Trazado 212308" d="M111.021,83.714l-2.572,2.539c-.769-.823-1.5-1.688-2.331-2.454a2.118,2.118,0,0,0-1.288-.533c-2.892-.047-5.785-.024-8.738-.024v-3.35a7.809,7.809,0,0,1,.784-.075c3.043-.006,6.087-.043,9.129.03a3.1,3.1,0,0,1,1.789.725c1.111.948,2.1,2.033,3.227,3.142" transform="translate(-75.408 -62.623)" fill="#12263f"/>
        <path id="Trazado_212309" data-name="Trazado 212309" d="M313.359,260.269l2.642-2.51c.731.772,1.473,1.633,2.3,2.4a2.131,2.131,0,0,0,1.29.528c2.891.046,5.782.024,8.732.024v3.351c-.254.025-.526.074-.8.074-3.043.005-6.087.043-9.128-.03a3.14,3.14,0,0,1-1.785-.733c-1.119-.938-2.128-2.009-3.258-3.1" transform="translate(-245.904 -202.273)" fill="#12263f"/>
        <rect id="Rectángulo_52555" data-name="Rectángulo 52555" width="8.448" height="3.3" transform="translate(20.71 24.137)" fill="#12263f"/>
        <rect id="Rectángulo_52556" data-name="Rectángulo 52556" width="8.409" height="3.337" transform="translate(73.982 51.632)" fill="#12263f"/>
        <rect id="Rectángulo_52557" data-name="Rectángulo 52557" width="3.328" height="3.272" transform="translate(18.927 5.248)" fill="#12263f"/>
        <rect id="Rectángulo_52558" data-name="Rectángulo 52558" width="3.304" height="3.296" transform="translate(25.851 5.211)" fill="#12263f"/>
        <rect id="Rectángulo_52559" data-name="Rectángulo 52559" width="3.328" height="3.272" transform="translate(32.675 5.248)" fill="#12263f"/>
        <rect id="Rectángulo_52560" data-name="Rectángulo 52560" width="3.296" height="3.293" transform="translate(80.858 5.237)" fill="#12263f"/>
        <path id="Trazado_212310" data-name="Trazado 212310" d="M369.638,96.147v17.044H349.046q0-3.427,0-6.836c0-1.881-.145-2.093-1.877-2.752l-3.1-1.179c1.083-.814,2.027-1.645,3.085-2.291a3.329,3.329,0,0,0,1.815-3.987Zm-8.841,7.7c-.707-.783-1.268-1.481-1.91-2.094a1.623,1.623,0,0,0-2.407-.063c-1.742,1.691-3.428,3.44-5.178,5.206l2.539,2.442,3.845-4.063c.742.8,1.342,1.51,2,2.156a1.742,1.742,0,0,0,2.918-.2c1.027-1.331,2.022-2.687,3.029-4.033.656-.876,1.308-1.754,1.994-2.673l-2.766-2.065-4.066,5.385" transform="translate(-270.001 -75.45)" fill="url(#linear-gradient-2)"/>
        <path id="Trazado_212311" data-name="Trazado 212311" d="M170.436,399.15h13.756c0,.844.056,1.624-.009,2.392-.347,4.053,2.287,8.34,7.742,8.986a2.5,2.5,0,0,1,2.5,2.3H160.26c.17-1.4.858-2.087,2.445-2.3a8.636,8.636,0,0,0,5.992-3.17,7.877,7.877,0,0,0,1.741-5.065c-.014-1,0-1.994,0-3.141" transform="translate(-125.762 -313.228)" fill="#d2e1f1"/>
        <path id="Trazado_212312" data-name="Trazado 212312" d="M247.7,117.877v-4.983c5.6.17,13.634,5.56,13.685,15.278.041,7.767-6.925,15.44-13.684,15.164v-4.979c5.514-1.6,8.546-5.27,8.537-10.295-.008-4.93-3.065-8.594-8.538-10.185" transform="translate(-194.383 -88.592)" fill="#d8dbf7"/>
        <path id="Trazado_212313" data-name="Trazado 212313" d="M214.375,151.672a6.875,6.875,0,1,1-6.829,6.863,6.956,6.956,0,0,1,6.829-6.863" transform="translate(-162.869 -119.022)" fill="#12263f"/>
        <path id="Trazado_212314" data-name="Trazado 212314" d="M168.674,191.81H173.7a10.568,10.568,0,0,0,8.448,8.453v5.022c-6.727-.42-13.019-6.562-13.471-13.475" transform="translate(-132.365 -150.52)" fill="#d8dbf7"/>
        <path id="Trazado_212315" data-name="Trazado 212315" d="M174.031,126.315H169.1c-.048-5.761,5.857-13.015,13.38-13.473v5.018a10.565,10.565,0,0,0-8.45,8.455" transform="translate(-132.7 -88.551)" fill="#d8dbf7"/>
        <path id="Trazado_212316" data-name="Trazado 212316" d="M36.781,208.966H16.252V191.872H36.814c0,2.419.044,4.806-.018,7.19a2.089,2.089,0,0,0,1.616,2.308c1.1.362,2.18.812,3.394,1.272-1.248.942-2.34,1.872-3.536,2.638a2.779,2.779,0,0,0-1.461,2.949,4.689,4.689,0,0,1-.028.737m-8.621-13.644h-3.3V205.51h3.3Zm5.135,3.456H30v6.73h3.3Zm-13.606,6.709h3.291v-5.025H19.688Z" transform="translate(-12.754 -150.569)" fill="#eeac3a"/>
        <path id="Trazado_212317" data-name="Trazado 212317" d="M387.178,112.291l4.066-5.385,2.766,2.065c-.686.919-1.339,1.8-1.994,2.673-1.007,1.346-2,2.7-3.029,4.033a1.742,1.742,0,0,1-2.919.2c-.66-.646-1.26-1.352-2-2.156l-3.845,4.063-2.539-2.442c1.749-1.766,3.436-3.515,5.177-5.206a1.623,1.623,0,0,1,2.407.063c.642.613,1.2,1.311,1.91,2.094" transform="translate(-296.382 -83.893)" fill="#12263f"/>
        <rect id="Rectángulo_52561" data-name="Rectángulo 52561" width="3.302" height="10.188" transform="translate(12.103 44.753)" fill="#12263f"/>
        <rect id="Rectángulo_52562" data-name="Rectángulo 52562" width="3.298" height="6.73" transform="translate(17.242 48.209)" fill="#12263f"/>
        <rect id="Rectángulo_52563" data-name="Rectángulo 52563" width="3.291" height="5.025" transform="translate(6.935 49.893)" fill="#12263f"/>
      </g>
    </g>
  </g>
</svg>
