<svg xmlns="http://www.w3.org/2000/svg" xmlns:xlink="http://www.w3.org/1999/xlink" width="390.075" height="198.947" viewBox="0 0 390.075 198.947">
  <defs>
    <clipPath id="clip-path">
      <rect id="Rectángulo_56442" data-name="Rectángulo 56442" width="390.075" height="198.947" transform="translate(0 0)" fill="none"/>
    </clipPath>
    <linearGradient id="linear-gradient" x1="0.5" x2="0.5" y2="1" gradientUnits="objectBoundingBox">
      <stop offset="0" stop-color="#278d7e"/>
      <stop offset="1" stop-color="#4fc1b1"/>
    </linearGradient>
    <linearGradient id="linear-gradient-2" x1="0.5" x2="0.5" y2="1" gradientUnits="objectBoundingBox">
      <stop offset="0" stop-color="#fdbe41"/>
      <stop offset="1" stop-color="#d09f40"/>
    </linearGradient>
  </defs>
  <g id="Grupo_179438" data-name="Grupo 179438" transform="translate(-973 -3001.546)">
    <g id="Grupo_175748" data-name="Grupo 175748" transform="translate(973 3001.543)">
      <g id="Grupo_175747" data-name="Grupo 175747" transform="translate(0 0.003)" clip-path="url(#clip-path)">
        <path id="Trazado_218004" data-name="Trazado 218004" d="M826.711,152.021h-9.72V130.338l-.45-.259h-2.9v-.01h-16.86v.01h-.014v3.25h.014v2.235h-.014v3.249h.014v2.243h-.014v3.25h.014v.012L795,144.308v-17H776.077v2.154h-.009v3.249h.009v2.856h-.009v3.249h.009v2.243h-.009v3.25h.009v2.076h-.009v3.25h.009v2.075h-.009v3.25h.009v1.954h-.009v2.064h.009v.225H754.752v18.6h-7.967v4.685H738.2V174.42H722.743V152.5h-2.417v-2.184h-.346V152.5h-2v0H707.954v-2.181h-.346v2.181H705v11.025l-12.98-.061v6.8H681.012V128.2h-32.6v45.063h-9.957V148.894h-32.6V306.54l222.794-.849Z" transform="translate(-514.953 -108.207)" fill="#dfebfa"/>
        <path id="Trazado_218005" data-name="Trazado 218005" d="M448.681,462.532V590.4H420.9V462.532Z" transform="translate(-357.756 -393.139)" fill="#dfebfa"/>
        <rect id="Rectángulo_56365" data-name="Rectángulo 56365" width="24.216" height="7.13" transform="translate(141.844 19.992)" fill="#eef6ff"/>
        <rect id="Rectángulo_56366" data-name="Rectángulo 56366" width="24.216" height="7.13" transform="translate(141.844 30.966)" fill="#eef6ff"/>
        <rect id="Rectángulo_56367" data-name="Rectángulo 56367" width="24.216" height="7.13" transform="translate(141.844 42.17)" fill="#eef6ff"/>
        <rect id="Rectángulo_56368" data-name="Rectángulo 56368" width="24.216" height="7.13" transform="translate(141.844 53.552)" fill="#eef6ff"/>
        <rect id="Rectángulo_56369" data-name="Rectángulo 56369" width="24.216" height="7.13" transform="translate(141.844 64.534)" fill="#eef6ff"/>
        <rect id="Rectángulo_56370" data-name="Rectángulo 56370" width="12.108" height="4.33" transform="translate(261.129 19.099)" fill="#eef6ff"/>
        <rect id="Rectángulo_56371" data-name="Rectángulo 56371" width="12.108" height="4.33" transform="translate(261.129 25.764)" fill="#eef6ff"/>
        <rect id="Rectángulo_56372" data-name="Rectángulo 56372" width="12.108" height="4.33" transform="translate(261.129 32.568)" fill="#eef6ff"/>
        <rect id="Rectángulo_56373" data-name="Rectángulo 56373" width="12.108" height="4.33" transform="translate(261.129 39.48)" fill="#eef6ff"/>
        <rect id="Rectángulo_56374" data-name="Rectángulo 56374" width="12.108" height="4.33" transform="translate(261.129 46.15)" fill="#eef6ff"/>
        <rect id="Rectángulo_56375" data-name="Rectángulo 56375" width="12.108" height="4.33" transform="translate(261.129 53.491)" fill="#eef6ff"/>
        <rect id="Rectángulo_56376" data-name="Rectángulo 56376" width="12.108" height="4.33" transform="translate(261.129 60.156)" fill="#eef6ff"/>
        <rect id="Rectángulo_56377" data-name="Rectángulo 56377" width="12.108" height="4.33" transform="translate(261.129 66.96)" fill="#eef6ff"/>
        <rect id="Rectángulo_56378" data-name="Rectángulo 56378" width="12.108" height="4.33" transform="translate(261.129 73.872)" fill="#eef6ff"/>
        <rect id="Rectángulo_56379" data-name="Rectángulo 56379" width="12.108" height="4.33" transform="translate(261.129 80.542)" fill="#eef6ff"/>
        <rect id="Rectángulo_56380" data-name="Rectángulo 56380" width="12.108" height="4.33" transform="translate(281.854 21.939)" fill="#eef6ff"/>
        <rect id="Rectángulo_56381" data-name="Rectángulo 56381" width="12.108" height="4.33" transform="translate(281.854 28.604)" fill="#eef6ff"/>
        <rect id="Rectángulo_56382" data-name="Rectángulo 56382" width="12.108" height="4.33" transform="translate(281.854 35.408)" fill="#eef6ff"/>
        <rect id="Rectángulo_56383" data-name="Rectángulo 56383" width="12.108" height="4.33" transform="translate(281.854 42.32)" fill="#eef6ff"/>
        <rect id="Rectángulo_56384" data-name="Rectángulo 56384" width="12.108" height="4.33" transform="translate(281.854 48.99)" fill="#eef6ff"/>
        <rect id="Rectángulo_56385" data-name="Rectángulo 56385" width="12.108" height="4.33" transform="translate(281.854 55.943)" fill="#eef6ff"/>
        <rect id="Rectángulo_56386" data-name="Rectángulo 56386" width="12.108" height="4.33" transform="translate(281.854 62.608)" fill="#eef6ff"/>
        <rect id="Rectángulo_56387" data-name="Rectángulo 56387" width="12.108" height="4.33" transform="translate(281.854 69.412)" fill="#eef6ff"/>
        <rect id="Rectángulo_56388" data-name="Rectángulo 56388" width="12.108" height="4.33" transform="translate(281.854 76.325)" fill="#eef6ff"/>
        <rect id="Rectángulo_56389" data-name="Rectángulo 56389" width="12.108" height="4.33" transform="translate(281.854 82.994)" fill="#eef6ff"/>
        <rect id="Rectángulo_56390" data-name="Rectángulo 56390" width="12.108" height="4.33" transform="translate(281.854 90.644)" fill="#eef6ff"/>
        <rect id="Rectángulo_56391" data-name="Rectángulo 56391" width="12.108" height="4.33" transform="translate(281.854 97.309)" fill="#eef6ff"/>
        <rect id="Rectángulo_56392" data-name="Rectángulo 56392" width="12.108" height="4.33" transform="translate(281.854 104.113)" fill="#eef6ff"/>
        <rect id="Rectángulo_56393" data-name="Rectángulo 56393" width="12.108" height="4.33" transform="translate(281.854 111.025)" fill="#eef6ff"/>
        <rect id="Rectángulo_56394" data-name="Rectángulo 56394" width="12.108" height="4.33" transform="translate(281.854 117.695)" fill="#eef6ff"/>
        <rect id="Rectángulo_56395" data-name="Rectángulo 56395" width="0.601" height="8.835" transform="translate(243.771 42.32)" fill="#dfebfa"/>
        <rect id="Rectángulo_56396" data-name="Rectángulo 56396" width="0.934" height="17.109" transform="translate(253.893 34.733)" fill="#dfebfa"/>
        <rect id="Rectángulo_56397" data-name="Rectángulo 56397" width="0.389" height="3.15" transform="translate(135.62 16.841)" fill="#dfebfa"/>
        <rect id="Rectángulo_56398" data-name="Rectángulo 56398" width="0.389" height="3.15" transform="translate(143.873 16.841)" fill="#dfebfa"/>
        <rect id="Rectángulo_56399" data-name="Rectángulo 56399" width="0.389" height="3.15" transform="translate(162.794 16.841)" fill="#dfebfa"/>
        <rect id="Rectángulo_56400" data-name="Rectángulo 56400" width="0.301" height="2.432" transform="translate(263.002 16.668)" fill="#dfebfa"/>
        <rect id="Rectángulo_56401" data-name="Rectángulo 56401" width="0.301" height="2.432" transform="translate(277.206 16.668)" fill="#dfebfa"/>
        <rect id="Rectángulo_56402" data-name="Rectángulo 56402" width="0.389" height="3.15" transform="translate(155.397 16.841)" fill="#dfebfa"/>
        <path id="Trazado_218006" data-name="Trazado 218006" d="M1006.5,205.062H914.78a10.436,10.436,0,0,1-10.436-10.436V19.17A10.436,10.436,0,0,1,914.78,8.734H1006.5a10.436,10.436,0,0,1,10.436,10.436V194.625a10.436,10.436,0,0,1-10.436,10.436" transform="translate(-768.667 -7.424)" fill="#fff"/>
        <path id="Trazado_218007" data-name="Trazado 218007" d="M999.078,198.95H907.359A11.759,11.759,0,0,1,895.613,187.2V11.749A11.759,11.759,0,0,1,907.359,0h91.719a11.759,11.759,0,0,1,11.746,11.746V187.2a11.759,11.759,0,0,1-11.746,11.746M907.359,2.623a9.137,9.137,0,0,0-9.126,9.126V187.2a9.137,9.137,0,0,0,9.126,9.126h91.719a9.137,9.137,0,0,0,9.126-9.126V11.749a9.137,9.137,0,0,0-9.126-9.126Z" transform="translate(-761.246 -0.003)" fill="#2b478b"/>
        <rect id="Rectángulo_56403" data-name="Rectángulo 56403" width="37.67" height="15.988" transform="translate(140.901 23.745)" fill="#dceaff"/>
        <rect id="Rectángulo_56404" data-name="Rectángulo 56404" width="37.67" height="15.988" transform="translate(140.901 44.993)" fill="#dceaff"/>
        <rect id="Rectángulo_56405" data-name="Rectángulo 56405" width="17.196" height="37.67" transform="translate(187.76 23.528)" fill="#dceaff"/>
        <path id="Trazado_218008" data-name="Trazado 218008" d="M1046.015,659.833a17.912,17.912,0,1,1,17.912,17.912,17.912,17.912,0,0,1-17.912-17.912" transform="translate(-889.083 -545.615)" fill="#dceaff"/>
        <rect id="Rectángulo_56406" data-name="Rectángulo 56406" width="102.619" height="2.782" transform="translate(140.901 114.218)" fill="#dceaff"/>
        <rect id="Rectángulo_56407" data-name="Rectángulo 56407" width="99.838" height="2.782" transform="translate(140.901 65.392)" fill="#dceaff"/>
        <rect id="Rectángulo_56408" data-name="Rectángulo 56408" width="2.782" height="95.114" transform="translate(174.451 68.052)" fill="#dceaff"/>
        <rect id="Rectángulo_56409" data-name="Rectángulo 56409" width="2.782" height="95.114" transform="translate(240.738 21.809)" fill="#dceaff"/>
        <rect id="Rectángulo_56410" data-name="Rectángulo 56410" width="2.782" height="139.421" transform="translate(209.346 23.745)" fill="#dceaff"/>
        <path id="Trazado_218009" data-name="Trazado 218009" d="M1085,692.97a12.063,12.063,0,1,1,12.063,12.063A12.063,12.063,0,0,1,1085,692.97" transform="translate(-922.219 -578.752)" fill="#fff"/>
        <rect id="Rectángulo_56411" data-name="Rectángulo 56411" width="13.759" height="21.366" transform="translate(180.881 71.578)" fill="#dceaff"/>
        <rect id="Rectángulo_56412" data-name="Rectángulo 56412" width="13.411" height="15.353" transform="translate(140.9 87.658)" fill="#dceaff"/>
        <rect id="Rectángulo_56413" data-name="Rectángulo 56413" width="26.986" height="13.411" transform="translate(140.901 71.578)" fill="#dceaff"/>
        <rect id="Rectángulo_56414" data-name="Rectángulo 56414" width="9.624" height="13.281" transform="translate(196.962 71.578)" fill="#dceaff"/>
        <rect id="Rectángulo_56415" data-name="Rectángulo 56415" width="9.624" height="22.194" transform="translate(196.962 87.658)" fill="#dceaff"/>
        <rect id="Rectángulo_56416" data-name="Rectángulo 56416" width="9.624" height="13.141" transform="translate(196.962 119.633)" fill="#dceaff"/>
        <rect id="Rectángulo_56417" data-name="Rectángulo 56417" width="7.765" height="38.274" transform="translate(218.309 71.578)" fill="#dceaff"/>
        <rect id="Rectángulo_56418" data-name="Rectángulo 56418" width="9.624" height="38.274" transform="translate(228.594 71.578)" fill="#dceaff"/>
        <rect id="Rectángulo_56419" data-name="Rectángulo 56419" width="13.696" height="38.274" transform="translate(223.748 23.226)" fill="#dceaff"/>
        <rect id="Rectángulo_56420" data-name="Rectángulo 56420" width="26.685" height="42.133" transform="translate(216.835 121.033)" fill="#dceaff"/>
        <rect id="Rectángulo_56421" data-name="Rectángulo 56421" width="26.558" height="15.935" transform="translate(180.027 147.231)" fill="#dceaff"/>
        <rect id="Rectángulo_56422" data-name="Rectángulo 56422" width="26.558" height="8.446" transform="translate(180.027 135.78)" fill="#dceaff"/>
        <rect id="Rectángulo_56423" data-name="Rectángulo 56423" width="23.856" height="27.386" transform="translate(140.901 135.78)" fill="#dceaff"/>
        <rect id="Rectángulo_56424" data-name="Rectángulo 56424" width="10.044" height="14.757" transform="translate(140.901 118.488)" fill="#dceaff"/>
        <path id="Trazado_218010" data-name="Trazado 218010" d="M1028.574,1127.378a17.059,17.059,0,0,1-14.62-8.316,23.758,23.758,0,0,0-20.427-11.461H939.161v20.322a6.333,6.333,0,0,0,6.4,6.266h91.047a5.122,5.122,0,0,0,5.174-5.068v-1.743Z" transform="translate(-798.26 -941.43)" fill="url(#linear-gradient)"/>
        <path id="Trazado_218011" data-name="Trazado 218011" d="M1487.19,1124.093a7.291,7.291,0,1,1,7.291,7.291,7.291,7.291,0,0,1-7.291-7.291" transform="translate(-1264.07 -949.251)" fill="url(#linear-gradient-2)"/>
        <path id="Trazado_218012" data-name="Trazado 218012" d="M1507.154,1147.7l7.037-3.518-2.167,7.756-1.733-2.965Z" transform="translate(-1281.038 -972.527)" fill="#fff"/>
        <rect id="Rectángulo_56425" data-name="Rectángulo 56425" width="39.9" height="1.705" transform="translate(162.726 181.047)" fill="#fff"/>
        <rect id="Rectángulo_56426" data-name="Rectángulo 56426" width="18.186" height="1.705" transform="translate(144.54 181.047)" fill="url(#linear-gradient-2)"/>
        <path id="Trazado_218013" data-name="Trazado 218013" d="M1062.686,1173.315l13.616,6-13.906,6.21,2.224-6.1Z" transform="translate(-903.007 -997.285)" fill="#233862"/>
        <path id="Trazado_218014" data-name="Trazado 218014" d="M1366.842,1196.375a2.836,2.836,0,1,1,2.836,2.836,2.836,2.836,0,0,1-2.836-2.836" transform="translate(-1161.777 -1014.475)" fill="#fff"/>
        <path id="Trazado_218015" data-name="Trazado 218015" d="M1023.214,32.5H913.293V26.713a8.756,8.756,0,0,1,8.756-8.756h92.318a8.846,8.846,0,0,1,8.846,8.846Z" transform="translate(-776.273 -15.263)" fill="#afcdfb"/>
        <path id="Trazado_218016" data-name="Trazado 218016" d="M2341.359,515.343c-.637,1.714-1.742,3.7-2.9,4.2a4.49,4.49,0,0,0-1.863,1.353l-1.062-.616-1.268-.737s.03-.141.092-.37.156-.546.285-.9a1.228,1.228,0,0,0,.151-1.128,2.619,2.619,0,0,1,.216-2.189c.407-.591.8-2.047,1.044-2,.593.1-.291,2.1-.038,2.475a.438.438,0,0,0,.57.2l.01-.006c1.664-.731,3.681-4.674,4.574-4.142.333.2.463,3.139.191,3.87" transform="translate(-1984.059 -434.697)" fill="#ffb27d"/>
        <path id="Trazado_218017" data-name="Trazado 218017" d="M2342.411,507.057l2.084,1.464a.328.328,0,0,0,.456-.08l5.338-7.6a.328.328,0,0,0-.08-.456l-2.084-1.464a.328.328,0,0,0-.456.08l-5.338,7.6a.328.328,0,0,0,.08.456" transform="translate(-1990.866 -424.023)" fill="#2b478b"/>
        <path id="Trazado_218018" data-name="Trazado 218018" d="M2355.314,516.072l1.221.858a.25.25,0,0,0,.347-.061l5.427-7.723a.25.25,0,0,0-.061-.347l-1.221-.858a.25.25,0,0,0-.347.06l-5.428,7.723a.25.25,0,0,0,.061.347" transform="translate(-2001.861 -431.698)" fill="#233862"/>
        <path id="Trazado_218019" data-name="Trazado 218019" d="M2111.258,480.809s10.6,18.493,14.449,21.9l14.1-10.515a5.148,5.148,0,0,1,2.943,2.682s-8.564,17.45-17,18.19-20.269-20.915-20.269-20.915Z" transform="translate(-1789.606 -408.675)" fill="#f3f9ff"/>
        <path id="Trazado_218020" data-name="Trazado 218020" d="M1922.528,1248.751H1916.4a3.713,3.713,0,0,1-1.676-2.807c-.3-1.974-2.511-3.05-2.99-4.665s1.974-3.885,1.974-3.885l.41-.529.427-.548,4.066.957s.1.969.162,2.2c.044.89.067,1.918.018,2.82-.12,2.152.6,4.47,2.515,4.889,1.414.309,1.351,1.148,1.221,1.565" transform="translate(-1624.87 -1050.835)" fill="#233862"/>
        <path id="Trazado_218021" data-name="Trazado 218021" d="M2139.056,1278.607h-14.01c-.674-.822-.426-3.856-.324-4.847.021-.2.036-.316.036-.316s4.784-3.827,5.441-.9c.02.092.044.182.071.27.828,2.741,4.542,3.986,6.686,4.333a2.429,2.429,0,0,1,2.1,1.456" transform="translate(-1805.844 -1080.691)" fill="#233862"/>
        <path id="Trazado_218022" data-name="Trazado 218022" d="M2088.212,790.83s-.727,9.063-1.58,19.958c-1.161,14.8-2.556,32.979-2.694,36.423-.238,5.98-1.2,15.546-1.2,15.546s-2.271,2.273-6.816,1.315a156.471,156.471,0,0,1-5.207-28.1c-.018-.237-.036-.475-.054-.714-1.076-14.708-2.75-45.68-2.75-45.68Z" transform="translate(-1757.67 -671.116)" fill="#727997"/>
        <path id="Trazado_218023" data-name="Trazado 218023" d="M2088.212,790.83s-.727,9.063-1.58,19.958l-15.914,25.18c-.018-.237-.036-.475-.054-.714-1.076-14.708-2.75-45.68-2.75-45.68Z" transform="translate(-1757.67 -671.116)" fill="#b0c0d2"/>
        <path id="Trazado_218024" data-name="Trazado 218024" d="M1963.625,771.583s-13.094,32.825-21.7,48.25-11.3,19.731-11.3,19.731-4.933-1.973-5.381-3.318c0,0,3.292-29.78,9.058-37.04,3.258-4.1,7.085-16.412,7.264-20.717s1.166-12.825,1.166-12.825Z" transform="translate(-1636.4 -650.793)" fill="#727997"/>
        <path id="Trazado_218025" data-name="Trazado 218025" d="M2080.22,408.861c-5.117,1.615-13.97-2.743-13.97-2.743a13.325,13.325,0,0,0,4.471-10.9l3.956,3.188,2.688,2.166a32.188,32.188,0,0,1-.3,3.514c-.078.589-.174,1.244-.3,1.962a12.25,12.25,0,0,1,3.457,2.816" transform="translate(-1756.254 -335.923)" fill="#ffb27d"/>
        <path id="Trazado_218026" data-name="Trazado 218026" d="M2102.6,418.2a32.267,32.267,0,0,1-.3,3.514c-2.978-.511-6.356-5.324-6.356-5.324a9.492,9.492,0,0,1,3.973-.356Z" transform="translate(-1781.488 -353.55)" fill="#ed975d"/>
        <path id="Trazado_218027" data-name="Trazado 218027" d="M2093.487,350.876s-8.452,1.4-9.245-3.873-2.418-8.649,2.944-9.769,6.717.736,7.409,2.433,1.07,10.708-1.108,11.209" transform="translate(-1770.812 -286.351)" fill="#ffb27d"/>
        <path id="Trazado_218028" data-name="Trazado 218028" d="M2060.931,506.621a.828.828,0,0,1-.538.2c-1.921-.026-7.525,1.041-12.266.554a35.322,35.322,0,0,1-11.333-3.271c-.5-.226-1.666-.846-1.64-1.41.017-.617.079-1.513.155-2.64a141.232,141.232,0,0,0,.281-18.447c-.083-1.449-.125-2.886-.131-4.3-.039-10.546,2.052-19.821,6.254-22.961.359-.257,2.563.82,4.587,1.818a8.381,8.381,0,0,0,5.509.667l1.767,1.562a17.662,17.662,0,0,1,5.535,8.84c.872,3.51,1.384,9.839,1.666,16.4.128,2.972.231,5.971.257,8.815v.1c.025.282.025.59.025.872.1,7.3,0,13.092-.128,13.2" transform="translate(-1729.824 -386.153)" fill="#f3f9ff"/>
        <path id="Trazado_218029" data-name="Trazado 218029" d="M2036.193,588.859a141.25,141.25,0,0,0,.281-18.447c-.082-1.449-.125-2.886-.13-4.3,1.75-4.246,3.181-7.325,3.181-7.325h4.412s3.235,22.094-7.743,30.074" transform="translate(-1730.707 -474.952)" fill="#dee4f0"/>
        <path id="Trazado_218030" data-name="Trazado 218030" d="M1863.666,829.234l18.817,2.681a4.511,4.511,0,0,0,5.087-3.818l1.162-8.155a4.511,4.511,0,0,0-3.818-5.087l-18.817-2.681a4.511,4.511,0,0,0-5.087,3.818l-1.162,8.155a4.511,4.511,0,0,0,3.818,5.087" transform="translate(-1580.78 -690.287)" fill="#233862"/>
        <path id="Trazado_218031" data-name="Trazado 218031" d="M1871.851,803.432h0a4.531,4.531,0,0,0-3.117-2.723h0c-.142-.034-.286-.063-.435-.084l-3.747-.533.251-1.76a1.491,1.491,0,0,0-1.264-1.685l-.977-.14-3.934-.561-.709-.1a1.491,1.491,0,0,0-1.684,1.264l-.251,1.76-6.467-.922a4.529,4.529,0,0,0-5.107,3.832l-1.175,8.249a4.527,4.527,0,0,0,3.832,5.106l18.783,2.677a4.412,4.412,0,0,0,.98.031h0a4.442,4.442,0,0,0,1.466-.37,4.523,4.523,0,0,0,2.657-3.494l1.176-8.248a4.475,4.475,0,0,0-.276-2.3m-14.7-6.192a.557.557,0,0,1,.462-.47.574.574,0,0,1,.167,0l.836.119,3.1.442,1.688.24a.557.557,0,0,1,.472.628l-.25,1.76L1856.9,799Z" transform="translate(-1566.654 -676.433)" fill="#2b478b"/>
        <path id="Trazado_218032" data-name="Trazado 218032" d="M1948.562,757.011a6.531,6.531,0,0,0-1.027,1.842c-.266,3.565,1.363,4.058-2.854,6.038,0,0-1.8.687-1.831-.711s1.25-1.421,1.016-3.378c-.27-2.257-.243-2.278,1.239-3.457l.981-1.621Z" transform="translate(-1651.366 -642.345)" fill="#ffb27d"/>
        <path id="Trazado_218033" data-name="Trazado 218033" d="M1951.8,506.019a14.463,14.463,0,0,0,3.311.184s4.717-14.571,5.324-15.9,14.01-17.085,14.01-17.085l-5.583-13.973s-14.5,24.215-15.969,27.618c-2.433,5.623-3.277,18.229-3.277,18.229a6.071,6.071,0,0,0,2.184.929" transform="translate(-1657.122 -390.344)" fill="#f3f9ff"/>
        <path id="Trazado_218034" data-name="Trazado 218034" d="M2077.442,324.936s.867-.145.728-1.34-.138-2.756.833-2.465,1.02,1.069,1.418.615.406-2.367,3.3-2.5,4.064.873,5.408.282,1.415-2.625,1.415-2.625a2.313,2.313,0,0,1-.96.957s2.242-3.067-.354-5.169-5.243-.726-6.745-.635c-3.31.2-5.448.4-6.529,2.574s-.635,8.214,1.489,10.307" transform="translate(-1764.02 -264.791)" fill="#2b478b"/>
        <path id="Trazado_218035" data-name="Trazado 218035" d="M1970.056,774.748s.951.992,1.011,1.4c.193,1.325.635,1.9.414,2.041-.461.3-1.071-.681-1.362-1.561a4.022,4.022,0,0,1-.063-1.884" transform="translate(-1674.42 -658.514)" fill="#ffb27d"/>
        <path id="Trazado_218036" data-name="Trazado 218036" d="M181.443,174.326c-8.557,0-15.494,7.277-15.494,16.253s15.494,26.632,15.494,26.632,15.494-17.656,15.494-26.632S190,174.326,181.443,174.326m0,22.888a7.8,7.8,0,1,1,7.8-7.8,7.8,7.8,0,0,1-7.8,7.8" transform="translate(-141.052 -148.173)" fill="url(#linear-gradient-2)"/>
        <path id="Trazado_218037" data-name="Trazado 218037" d="M453.427,858.458a2.472,2.472,0,1,1,3.073,1.665,2.472,2.472,0,0,1-3.073-1.665" transform="translate(-385.313 -726.966)" fill="#12263f"/>
        <path id="Trazado_218038" data-name="Trazado 218038" d="M274.247,602.613c-.017-.229-.288-2.7-4.064-2.687,0,0,1.863.151,2.214.955,0,0-1.3-.96-2.317-.6s-1.553,2.187-1.537,2.78.659,2.482,1.318,2.62a2,2,0,0,0,.791-.029,8.9,8.9,0,0,0-.473.923c-1.389,3.146.276,6.107,1.538,5.726.809-.245,1.093,1.141,1.093,1.141l7.7-6.725s-3.142-5.924-6.261-4.107" transform="translate(-228.254 -509.92)" fill="#2c3a64"/>
        <path id="Trazado_218039" data-name="Trazado 218039" d="M235.857,888.649s1.418,2.95,3.21,7.038a151.187,151.187,0,0,1,5.967,15.491,25,25,0,0,1,1.284,6.439c0,.542-2.09,2.744-2.693,3.583-3.809,5.3-9.012,12.38-9.012,12.38l-1.42-.356s1.989-8.854,4.887-13.274c.57-.869,2.175-1.927,2.1-2.023l0,0c-.25-.313-.874-1.1-1.725-2.22a107.491,107.491,0,0,1-9.159-13.965q-.255-.491-.494-.976c-1.44-2.925-2.39-5.666-2.3-7.7Z" transform="translate(-192.515 -755.327)" fill="#ed975d"/>
        <path id="Trazado_218040" data-name="Trazado 218040" d="M259.349,1169.28l.977.618c.36.156.662.214,1.025.382a1.073,1.073,0,0,1,.671.691.123.123,0,0,1,0,.016l4.151,2.627c.2-.083.317-.492.38-.808a.7.7,0,0,0-.164-.6,5.3,5.3,0,0,1-1.5-2.291c-.192-.687-1.219-2.852-1.219-2.852l-.008-.008c-.038-.023-.252-.081-1.447.083-.617.084-.786-1.168-.786-1.168a1.156,1.156,0,0,0-.418.163,1.22,1.22,0,0,0-.493.581,4.89,4.89,0,0,1-1.271,1.351c-.277.224-.486.374-.486.374s-.2.205.579.842" transform="translate(-219.928 -991.041)" fill="#233862"/>
        <path id="Trazado_218041" data-name="Trazado 218041" d="M273.892,1166.131a3.665,3.665,0,0,0,.717,1.2c.4.337,1.941-.267,1.941-.267l-.008-.008c-.038-.023-.252-.081-1.447.083-.617.085-.786-1.168-.786-1.168a1.156,1.156,0,0,0-.418.163" transform="translate(-232.8 -991.04)" fill="#233862"/>
        <path id="Trazado_218042" data-name="Trazado 218042" d="M259.349,1181.148l.977.618c.36.156.662.214,1.025.382a1.073,1.073,0,0,1,.671.691.131.131,0,0,1,0,.016l4.151,2.627c.2-.083.317-.492.38-.808-.055-.192-.47.385-.6.436a21.914,21.914,0,0,1-3.512-2.368,2.371,2.371,0,0,0-1.446-1.183,4.468,4.468,0,0,1-1.742-1.626c-.277.224-.486.374-.486.374s-.2.205.579.842" transform="translate(-219.928 -1002.909)" fill="#233862"/>
        <rect id="Rectángulo_56427" data-name="Rectángulo 56427" width="1.974" height="36.615" transform="translate(33.388 145.976) rotate(-17.73)" fill="#12263f"/>
        <path id="Trazado_218043" data-name="Trazado 218043" d="M141.524,1006.19l-26.317-2.288,48.808-33-2.792,5.717-40.3,25.8,20.769,1.806Z" transform="translate(-97.922 -825.24)" fill="#f99746"/>
        <path id="Trazado_218044" data-name="Trazado 218044" d="M304.867,1005.965l-1.659-1.07,20.25-32.439,2.358,2.44Z" transform="translate(-257.718 -826.56)" fill="#f99746"/>
        <path id="Trazado_218045" data-name="Trazado 218045" d="M324.931,1164.287l3.7,2.139a.914.914,0,0,1-.914,1.583l-3.7-2.139a.914.914,0,0,1,.914-1.583" transform="translate(-275.018 -989.508)" fill="#415da5"/>
        <path id="Trazado_218046" data-name="Trazado 218046" d="M308.685,1172.052l-4.671,5.168-.431-.375,4.671-5.168Z" transform="translate(-258.037 -995.893)" fill="#415da5"/>
        <path id="Trazado_218047" data-name="Trazado 218047" d="M90.393,1024.078a.988.988,0,0,1-.838-.086c-8.877-5.364-21.159-3.348-24.712-2.6h-.006a.315.315,0,0,1-.38-.308v-.694a1.071,1.071,0,0,1,.913-1.059,80.251,80.251,0,0,1,8.921-.911h.2a32.233,32.233,0,0,1,14.46,2.993,3.365,3.365,0,0,0,2.616.161l1.094-.385a1.2,1.2,0,0,1,1.529.734.775.775,0,0,1-.474.988Z" transform="translate(-54.787 -865.626)" fill="#f99746"/>
        <path id="Trazado_218048" data-name="Trazado 218048" d="M181.989,956.213s-.357-1.618.658-1.727,4.716.686,5.7.576,6.142-.959,7.047-.082.521,1.645-1.289,1.81-4.222.466-4.908,1.042-5.648,2.276-7.211-1.618" transform="translate(-154.634 -811.277)" fill="#12263f"/>
        <path id="Trazado_218049" data-name="Trazado 218049" d="M270.236,1175.494a4.935,4.935,0,1,1,4.935,4.935,4.935,4.935,0,0,1-4.935-4.935" transform="translate(-229.693 -994.943)" fill="#12263f"/>
        <rect id="Rectángulo_56428" data-name="Rectángulo 56428" width="0.439" height="16.235" transform="translate(13.137 162.53) rotate(-19.74)" fill="#afcdfb"/>
        <path id="Trazado_218050" data-name="Trazado 218050" d="M22.258,1109.488l-.173-.4,15.516-6.665,10.2-14.572.359.251-10.272,14.674-.057.025Z" transform="translate(-18.771 -924.64)" fill="#afcdfb"/>
        <path id="Trazado_218051" data-name="Trazado 218051" d="M83.1,1200.237l-.416-.139c.11-.329,6.109-16.117,6.364-16.788l.156-.41,9.666,15.286-.371.235-9.2-14.545c-2.2,5.782-6.118,16.11-6.2,16.361" transform="translate(-70.275 -1005.432)" fill="#afcdfb"/>
        <rect id="Rectángulo_56429" data-name="Rectángulo 56429" width="0.439" height="17.471" transform="translate(1.718 174.114) rotate(-80.242)" fill="#afcdfb"/>
        <rect id="Rectángulo_56430" data-name="Rectángulo 56430" width="15.953" height="0.439" transform="matrix(0.317, -0.949, 0.949, 0.317, 19.859, 176.679)" fill="#afcdfb"/>
        <path id="Trazado_218052" data-name="Trazado 218052" d="M36.4,1139.915l-.064-.033-15.793-8.006.2-.391,15.728,7.974,16.928-2.84.073.433Z" transform="translate(-17.457 -961.73)" fill="#afcdfb"/>
        <path id="Trazado_218053" data-name="Trazado 218053" d="M80.839,1199.755c-.094-.275-4.146-10.248-6.415-15.824l-8.765,13.789-.37-.236,9.221-14.506.16.394c.264.65,6.475,15.913,6.585,16.245Z" transform="translate(-55.493 -1005.498)" fill="#afcdfb"/>
        <rect id="Rectángulo_56431" data-name="Rectángulo 56431" width="17.185" height="0.439" transform="translate(1.942 180.263) rotate(-8.454)" fill="#afcdfb"/>
        <rect id="Rectángulo_56432" data-name="Rectángulo 56432" width="0.439" height="14.382" transform="translate(8.498 164.829) rotate(-40.98)" fill="#afcdfb"/>
        <rect id="Rectángulo_56433" data-name="Rectángulo 56433" width="15.957" height="0.439" transform="translate(17.987 195.047) rotate(-85.272)" fill="#afcdfb"/>
        <rect id="Rectángulo_56434" data-name="Rectángulo 56434" width="0.439" height="18.284" transform="translate(18.081 177.259) rotate(-55.261)" fill="#afcdfb"/>
        <path id="Trazado_218054" data-name="Trazado 218054" d="M41.672,1097.9l-.311-.309,12.549-12.658v-16.47h.439v16.651Z" transform="translate(-35.155 -908.162)" fill="#afcdfb"/>
        <path id="Trazado_218055" data-name="Trazado 218055" d="M104.9,1167.824a3.235,3.235,0,1,1,3.235,3.235,3.235,3.235,0,0,1-3.235-3.235" transform="translate(-89.162 -989.868)" fill="#699dee"/>
        <path id="Trazado_218056" data-name="Trazado 218056" d="M18.973,1097.635a18.966,18.966,0,1,1,9.6-2.6,18.995,18.995,0,0,1-9.6,2.6m0-35.314a16.346,16.346,0,1,0,16.341,16.341,16.36,16.36,0,0,0-16.341-16.341" transform="translate(0 -900.705)" fill="#12263f"/>
        <path id="Trazado_218057" data-name="Trazado 218057" d="M32.751,1108.931a16.712,16.712,0,1,1,16.712-16.712,16.731,16.731,0,0,1-16.712,16.712m0-32.75a16.037,16.037,0,1,0,16.037,16.037,16.056,16.056,0,0,0-16.037-16.037" transform="translate(-13.633 -914.151)" fill="#f99746"/>
        <rect id="Rectángulo_56435" data-name="Rectángulo 56435" width="0.439" height="16.235" transform="translate(75.01 162.53) rotate(-19.74)" fill="#afcdfb"/>
        <path id="Trazado_218058" data-name="Trazado 218058" d="M434.667,1109.488l-.173-.4,15.516-6.665,10.2-14.572.359.251L450.3,1102.773l-.057.025Z" transform="translate(-369.308 -924.64)" fill="#afcdfb"/>
        <path id="Trazado_218059" data-name="Trazado 218059" d="M495.5,1200.237l-.416-.139c.11-.329,6.109-16.117,6.364-16.788l.156-.41,9.666,15.286-.371.235-9.2-14.545c-2.2,5.782-6.118,16.11-6.2,16.361" transform="translate(-420.811 -1005.432)" fill="#afcdfb"/>
        <rect id="Rectángulo_56436" data-name="Rectángulo 56436" width="0.439" height="17.471" transform="translate(63.59 174.114) rotate(-80.242)" fill="#afcdfb"/>
        <rect id="Rectángulo_56437" data-name="Rectángulo 56437" width="15.953" height="0.439" transform="translate(81.732 176.679) rotate(-71.541)" fill="#afcdfb"/>
        <path id="Trazado_218060" data-name="Trazado 218060" d="M448.8,1139.915l-.064-.033-15.793-8.006.2-.391,15.728,7.974,16.928-2.84.073.433Z" transform="translate(-367.993 -961.73)" fill="#afcdfb"/>
        <path id="Trazado_218061" data-name="Trazado 218061" d="M493.248,1199.755c-.094-.275-4.146-10.248-6.415-15.824l-8.765,13.789-.37-.236,9.221-14.506.16.394c.264.65,6.475,15.913,6.585,16.245Z" transform="translate(-406.029 -1005.498)" fill="#afcdfb"/>
        <rect id="Rectángulo_56438" data-name="Rectángulo 56438" width="17.185" height="0.439" transform="translate(63.815 180.263) rotate(-8.455)" fill="#afcdfb"/>
        <rect id="Rectángulo_56439" data-name="Rectángulo 56439" width="0.439" height="14.382" transform="translate(70.371 164.829) rotate(-40.98)" fill="#afcdfb"/>
        <rect id="Rectángulo_56440" data-name="Rectángulo 56440" width="15.957" height="0.439" transform="translate(79.86 195.047) rotate(-85.272)" fill="#afcdfb"/>
        <rect id="Rectángulo_56441" data-name="Rectángulo 56441" width="0.439" height="18.284" transform="translate(79.954 177.259) rotate(-55.261)" fill="#afcdfb"/>
        <path id="Trazado_218062" data-name="Trazado 218062" d="M454.081,1097.9l-.311-.309,12.549-12.658v-16.47h.439v16.651Z" transform="translate(-385.691 -908.162)" fill="#afcdfb"/>
        <path id="Trazado_218063" data-name="Trazado 218063" d="M431.382,1097.635a18.966,18.966,0,1,1,9.6-2.6,18.995,18.995,0,0,1-9.6,2.6m0-35.314a16.346,16.346,0,1,0,16.341,16.341,16.36,16.36,0,0,0-16.341-16.341" transform="translate(-350.536 -900.705)" fill="#12263f"/>
        <path id="Trazado_218064" data-name="Trazado 218064" d="M445.16,1108.931a16.712,16.712,0,1,1,16.712-16.712,16.731,16.731,0,0,1-16.712,16.712m0-32.75a16.037,16.037,0,1,0,16.037,16.037,16.055,16.055,0,0,0-16.037-16.037" transform="translate(-364.169 -914.151)" fill="#f99746"/>
        <path id="Trazado_218065" data-name="Trazado 218065" d="M323.6,736.4a5.5,5.5,0,0,0-2.366,5.331c.315,3.822,3.823,9.847,6.49,11.342a64.614,64.614,0,0,0,8.221,3.033l.22-1.659a66.733,66.733,0,0,1-6.046-4.354c-2.307-2.378-4.5-14.618-6.518-13.694" transform="translate(-273.022 -625.876)" fill="#ed975d"/>
        <path id="Trazado_218066" data-name="Trazado 218066" d="M230.861,701.425a9.867,9.867,0,0,1-.629,2.308c-.233.591-.5,1.154-.782,1.74-.814,1.724-2.733,2.573-2.8,5.886-.022,1.141-.974,3.711-.435,5.573,2.653,9.179-14.707.833-13.767-1.606,1.869-4.846,4.537-7.647,4.481-11.639a.165.165,0,0,0,0-.031c-.017-.193-.043-.711-.073-1.4-.072-1.675-.167-4.347-.2-5.7,0-.032,0-.063,0-.093-.014-.579-.032-1-.054-1.109,1.291-5.492,4.26-5.516,5.274-5.5.376.006.77.031,1.094.058.637-.362,1.739-2.052,2.31-4.83l.232.1,3.892,1.655s-.36,1.259-.615,2.462a4.843,4.843,0,0,0-.183,2.094c.306.111.489.181.489.181v0c.069.155,2.391,5.473,1.769,9.84" transform="translate(-180.544 -582.309)" fill="#ffb27d"/>
        <path id="Trazado_218067" data-name="Trazado 218067" d="M255.4,801.01c-.234.59-.5,1.154-.782,1.74-.814,1.724-2.733,2.572-2.8,5.886l-.179.016c-7.119.556-9.545-7.719-9.545-7.719-.017-.193-.043-.711-.073-1.4l12.846.021a13.016,13.016,0,0,1,.53,1.451" transform="translate(-205.713 -679.585)" fill="#ed975d"/>
        <path id="Trazado_218068" data-name="Trazado 218068" d="M256.054,726.571c-.036.106-.076.212-.12.319-1.234,2.942-2.366,5.4-2.366,5.4l-.1-.057a11.977,11.977,0,0,0-2.871-1.064,23.283,23.283,0,0,0-2.745-.5,42.737,42.737,0,0,0-6.9-.225c0-.01,0-.02,0-.031-.059-.667-.225-5.19-.274-7.1,0-.032,0-.063,0-.093.284-.227.559-.437.814-.637.817-.644,1.426-1.191,1.44-1.864a5.175,5.175,0,0,0-.051-.807c-.017-.128-.039-.255-.063-.382a10.957,10.957,0,0,0-.864-2.536,9.934,9.934,0,0,1,3.942-.381s0,.141.009.37a13.711,13.711,0,0,0,.437,3.734c.391.545,7.258,2.741,7.588,1.968s-.772-4.218-.813-4.35v0a10.682,10.682,0,0,1,3.142,1.522c-1.334.939.759,3.865-.194,6.709" transform="translate(-204.56 -609.067)" fill="#fff"/>
        <path id="Trazado_218069" data-name="Trazado 218069" d="M303.589,687.4s-.36,1.259-.615,2.462c-2.259-.54-3.026-2.865-3.277-4.116Z" transform="translate(-254.734 -582.868)" fill="#ed975d"/>
        <path id="Trazado_218070" data-name="Trazado 218070" d="M302.142,650.609s-5.395-1.037-4.7-4.387.471-5.74,3.945-5.219,3.875,1.938,3.914,3.112-1.741,6.677-3.162,6.494" transform="translate(-252.767 -544.774)" fill="#ffb27d"/>
        <path id="Trazado_218071" data-name="Trazado 218071" d="M297.4,638.639c-.62-1.181-1.294-1.092-1.71-.863a3.839,3.839,0,0,0-4.994-.239,6.536,6.536,0,0,1-2.884,3.341s.853.81,3.234.7a3.923,3.923,0,0,0,2.094-.879,12.812,12.812,0,0,1-2.711,2.185c2.96-.682,4.829-4.208,5.021-4.583a4.3,4.3,0,0,1,.845,1.808c.089.909-.158,2.69.367,2.737,0,0,1.668-2.438.738-4.21" transform="translate(-244.631 -541.193)" fill="#2c3a64"/>
        <path id="Trazado_218072" data-name="Trazado 218072" d="M257.968,741.481l-.388,1.655s-9.052-1.236-12.011-2.958-7.439-11.846-7.792-16.126q-.029-.34-.036-.65c-.108-3.7,1.713-4.271,1.713-4.271.729-.334,1.634.915,2.593,2.867,2.012,4.094,4.26,11.279,5.6,13.407,1.026,1.634,10.326,6.077,10.326,6.077" transform="translate(-202.069 -611.195)" fill="#ffb27d"/>
        <path id="Trazado_218073" data-name="Trazado 218073" d="M242.046,722a4.8,4.8,0,0,0-4.306,1.4c-.108-3.7,1.713-4.271,1.713-4.271.729-.334,1.634.915,2.593,2.867" transform="translate(-202.068 -611.196)" fill="#fff"/>
        <path id="Trazado_218074" data-name="Trazado 218074" d="M340.472,738.5s1.042,2.188,1.256,2.758a2.321,2.321,0,0,0-1.968,1.319s-.082-3.724.712-4.077" transform="translate(-288.784 -627.704)" fill="#fff"/>
        <path id="Trazado_218075" data-name="Trazado 218075" d="M202.809,888.388s-4.013,6.361.946,9.86,21.655,5.172,20.836,5.851c-2.5,2.076-4.779,5.269-4.659,24.385l1.237.638s11.906-25.9,11.108-28.987c-.529-2.043-17.894-13.1-29.468-11.748" transform="translate(-171.079 -755.007)" fill="#ffb27d"/>
        <path id="Trazado_218076" data-name="Trazado 218076" d="M209.94,877.426s-10.117-1.676-11.16-5.247c-.78-2.668-1.01-3.756,3.574-12.376,0,0,1.916,3.64,11.915,2.8,0,0-.051.472-.051,1.111.013,1.06.179,2.567,1.009,3,.013.013.038.013.051.026,1.315.6,3.353,1.811,3.659,1.926.013,0-6.137,1.177-9,8.763" transform="translate(-168.583 -730.808)" fill="#7f4fc7"/>
        <path id="Trazado_218077" data-name="Trazado 218077" d="M310.561,1142.47l1.042.5c.376.113.682.135,1.063.261a1.072,1.072,0,0,1,.747.608c0,.01,0,.015,0,.015l4.428,2.127c.188-.105.258-.525.283-.847a.7.7,0,0,0-.233-.578,5.3,5.3,0,0,1-1.751-2.1c-.27-.66-1.542-2.691-1.542-2.691l-.009-.007c-.041-.018-.26-.052-1.427.251-.6.156-.916-1.069-.916-1.069a1.155,1.155,0,0,0-.4.21,1.222,1.222,0,0,0-.422.634,4.892,4.892,0,0,1-1.106,1.49c-.249.254-.44.428-.44.428s-.17.226.673.769" transform="translate(-263.385 -968.067)" fill="#233862"/>
        <path id="Trazado_218078" data-name="Trazado 218078" d="M323.081,1139.149a3.663,3.663,0,0,0,.851,1.105c.441.288,1.9-.49,1.9-.49l-.008-.007c-.041-.018-.26-.052-1.427.251-.6.156-.916-1.069-.916-1.069a1.154,1.154,0,0,0-.4.21" transform="translate(-274.61 -968.067)" fill="#233862"/>
        <path id="Trazado_218079" data-name="Trazado 218079" d="M310.561,1155.693l1.042.5c.376.113.682.135,1.063.261a1.072,1.072,0,0,1,.747.608c0,.01,0,.015,0,.015l4.428,2.127c.188-.105.258-.525.283-.847-.077-.184-.422.436-.545.5a21.877,21.877,0,0,1-3.763-1.945,2.372,2.372,0,0,0-1.574-1.007,4.468,4.468,0,0,1-1.919-1.413c-.249.254-.44.428-.44.428s-.17.226.673.769" transform="translate(-263.385 -981.289)" fill="#233862"/>
        <path id="Trazado_218080" data-name="Trazado 218080" d="M418.491,906.973a1.907,1.907,0,0,0-1.657-1.2c-8.191-18.817-8.279-18.964-8.4-19.166l-1.184,2.346c-.063-.1,4.472,9.978,7.708,17.367l-.462.185,11.278,24.135,1.828-.746Z" transform="translate(-346.148 -753.594)" fill="#12263f"/>
        <path id="Trazado_218081" data-name="Trazado 218081" d="M383.393,871.061,369,874.672l-.25-2.907,14.391-3.612Z" transform="translate(-313.429 -737.907)" fill="#12263f"/>
        <path id="Trazado_218082" data-name="Trazado 218082" d="M370.393,868.412a5.19,5.19,0,0,0,2.313.847,7.491,7.491,0,0,1,2.175.359,2.118,2.118,0,0,1,1.4,1.9s-.006.44-2.015-.18c-.439-.135-1.5.12-1.856,0s-1.45-1.3-2.4-1.268Z" transform="translate(-314.494 -738.126)" fill="#ffb27d"/>
        <path id="Trazado_218083" data-name="Trazado 218083" d="M417.657,856.973a5.19,5.19,0,0,0,2.313.847,7.493,7.493,0,0,1,2.175.359,2.118,2.118,0,0,1,1.4,1.9s-.028.624-2.015-.18c-.545-.22-1.5.12-1.856,0a19.461,19.461,0,0,0-2.587-1.38Z" transform="translate(-354.51 -728.403)" fill="#ed975d"/>
        <path id="Trazado_218084" data-name="Trazado 218084" d="M351.429,887.294a2.472,2.472,0,1,1,3.073,1.665,2.472,2.472,0,0,1-3.073-1.665" transform="translate(-298.617 -751.476)" fill="#12263f"/>
        <path id="Trazado_218085" data-name="Trazado 218085" d="M517.309,1167.824a3.235,3.235,0,1,1,3.235,3.235,3.235,3.235,0,0,1-3.235-3.235" transform="translate(-439.698 -989.868)" fill="#699dee"/>
        <path id="Trazado_218086" data-name="Trazado 218086" d="M1356.109,280.687a9.266,9.266,0,0,0-9.037,9.48c0,5.236,9.037,15.534,9.037,15.534s9.037-10.3,9.037-15.534a9.266,9.266,0,0,0-9.037-9.48m0,13.35a4.55,4.55,0,1,1,4.55-4.55,4.55,4.55,0,0,1-4.55,4.55" transform="translate(-1144.973 -238.577)" fill="url(#linear-gradient-2)"/>
        <path id="Trazado_218087" data-name="Trazado 218087" d="M440.521,545.623H417.9l.023-1.005a22.112,22.112,0,0,0-1.634-8.072c-2.211-5.206-6.275-7.938-12.077-8.118-4.717-.148-8.436,1.124-11.05,3.778-4.641,4.711-4.349,12.312-4.345,12.388l.047,1.028H348.478L300.966,509.3H268.718v-1.965h32.913l47.512,36.326h37.712c.071-2.418.686-8.534,4.9-12.82,3.015-3.067,7.228-4.537,12.522-4.373,8.295.258,12.11,5.24,13.849,9.373a23.982,23.982,0,0,1,1.742,7.82h18.689V504.244h1.965Z" transform="translate(-228.403 -428.594)" fill="#12263f"/>
        <path id="Trazado_218088" data-name="Trazado 218088" d="M1380.054,466.446a4.089,4.089,0,1,1,4.089,4.089,4.089,4.089,0,0,1-4.089-4.089" transform="translate(-1173.007 -392.991)" fill="#fff"/>
        <path id="Trazado_218089" data-name="Trazado 218089" d="M1379.814,466.97a4.853,4.853,0,1,1,4.853-4.853,4.858,4.858,0,0,1-4.853,4.853m0-8.178a3.325,3.325,0,1,0,3.325,3.325,3.328,3.328,0,0,0-3.325-3.325" transform="translate(-1168.678 -388.662)" fill="#12263f"/>
        <path id="Trazado_218090" data-name="Trazado 218090" d="M241.967,508.334a4.089,4.089,0,1,1,4.089,4.089,4.089,4.089,0,0,1-4.089-4.089" transform="translate(-205.665 -428.594)" fill="#fff"/>
        <path id="Trazado_218091" data-name="Trazado 218091" d="M241.727,508.858A4.853,4.853,0,1,1,246.58,504a4.858,4.858,0,0,1-4.853,4.853m0-8.178A3.325,3.325,0,1,0,245.052,504a3.329,3.329,0,0,0-3.325-3.325" transform="translate(-201.336 -424.266)" fill="#12263f"/>
        <path id="Trazado_218092" data-name="Trazado 218092" d="M1037.095,747.42a4.089,4.089,0,1,1,4.089,4.089,4.089,4.089,0,0,1-4.089-4.089" transform="translate(-881.502 -631.811)" fill="#fff"/>
        <path id="Trazado_218093" data-name="Trazado 218093" d="M1036.854,747.944a4.853,4.853,0,1,1,4.853-4.853,4.858,4.858,0,0,1-4.853,4.853m0-8.178a3.325,3.325,0,1,0,3.325,3.325,3.328,3.328,0,0,0-3.325-3.325" transform="translate(-877.172 -627.482)" fill="#12263f"/>
        <path id="Trazado_218094" data-name="Trazado 218094" d="M999.921,84.343l-1.345.965-1.352-.955a1.655,1.655,0,0,1,2.7-.01" transform="translate(-847.612 -71.103)" fill="#fff"/>
        <path id="Trazado_218095" data-name="Trazado 218095" d="M987.7,67.978a4,4,0,0,0-3.272,1.7l.854.6a2.956,2.956,0,0,1,4.822-.017l.85-.61a4,4,0,0,0-3.254-1.672" transform="translate(-836.736 -57.78)" fill="#fff"/>
        <path id="Trazado_218096" data-name="Trazado 218096" d="M967.013,38.182a8.457,8.457,0,0,0-6.923,3.6l.854.6a7.423,7.423,0,0,1,12.107-.045l.847-.61a8.458,8.458,0,0,0-6.885-3.54" transform="translate(-816.05 -32.454)" fill="#fff"/>
        <path id="Trazado_218097" data-name="Trazado 218097" d="M978.265,54.485a6.05,6.05,0,0,0-4.937,2.55l.854.6a5.016,5.016,0,0,1,8.146-.031l.847-.606a6.049,6.049,0,0,0-4.909-2.512" transform="translate(-827.301 -46.311)" fill="#fff"/>
        <path id="Trazado_218098" data-name="Trazado 218098" d="M2300.182,139.11a11.163,11.163,0,0,0-10.887,11.42c0,6.307,10.887,18.713,10.887,18.713s10.887-12.406,10.887-18.713a11.163,11.163,0,0,0-10.887-11.42m0,16.082a5.482,5.482,0,1,1,5.482-5.482,5.482,5.482,0,0,1-5.482,5.482" transform="translate(-1945.836 -118.24)" fill="#727997"/>
        <path id="Trazado_218099" data-name="Trazado 218099" d="M2399.733,465.588l-1.41-.6,10.458-24.645V407.137l-13.992-.457V386.391l-13.151-13.151,1.082-1.083,13.6,13.6V405.2l13.992.457v35l-.061.143Z" transform="translate(-2024.326 -316.324)" fill="#727997"/>
        <path id="Trazado_218100" data-name="Trazado 218100" d="M2470.3,973.925a4.089,4.089,0,1,1,4.089,4.089,4.089,4.089,0,0,1-4.089-4.089" transform="translate(-2099.682 -824.334)" fill="#fff"/>
        <path id="Trazado_218101" data-name="Trazado 218101" d="M2470.048,974.443a4.854,4.854,0,1,1,4.854-4.854,4.86,4.86,0,0,1-4.854,4.854m0-8.177a3.323,3.323,0,1,0,3.323,3.323,3.327,3.327,0,0,0-3.323-3.323" transform="translate(-2095.345 -819.998)" fill="#727997"/>
        <path id="Trazado_218102" data-name="Trazado 218102" d="M2540.406,577.21a4.089,4.089,0,1,1,4.089,4.089,4.088,4.088,0,0,1-4.089-4.089" transform="translate(-2159.274 -487.137)" fill="#fff"/>
        <path id="Trazado_218103" data-name="Trazado 218103" d="M2540.156,577.727a4.854,4.854,0,1,1,4.854-4.854,4.86,4.86,0,0,1-4.854,4.854m0-8.177a3.323,3.323,0,1,0,3.323,3.323,3.327,3.327,0,0,0-3.323-3.323" transform="translate(-2154.935 -482.8)" fill="#727997"/>
        <path id="Trazado_218104" data-name="Trazado 218104" d="M2373.732,365.979a1.727,1.727,0,1,1,1.727,1.727,1.727,1.727,0,0,1-1.727-1.727" transform="translate(-2017.605 -309.604)" fill="#727997"/>
        <path id="Trazado_218105" data-name="Trazado 218105" d="M1374.567,313.922a4.912,4.912,0,1,1,4.912,4.912,4.912,4.912,0,0,1-4.912-4.912" transform="translate(-1168.343 -262.65)" fill="#fff"/>
      </g>
    </g>
  </g>
</svg>
