<svg xmlns="http://www.w3.org/2000/svg" xmlns:xlink="http://www.w3.org/1999/xlink" width="112.609" height="152.368" viewBox="0 0 112.609 152.368">
  <defs>
    <clipPath id="clip-path">
      <rect id="Rectángulo_56860" data-name="Rectángulo 56860" width="112.609" height="152.368" fill="none"/>
    </clipPath>
  </defs>
  <g id="Grupo_179444" data-name="Grupo 179444" transform="translate(-9589.51 8897.718)">
    <g id="Grupo_179392" data-name="Grupo 179392" transform="translate(9589.51 -8897.718)">
      <g id="Grupo_176586" data-name="Grupo 176586" clip-path="url(#clip-path)">
        <path id="Trazado_219554" data-name="Trazado 219554" d="M87.252,0A3.743,3.743,0,0,1,88.62,3.379c-.047,5.349-.019,10.7-.019,16.187,8.207,1,14.785,4.708,19.47,11.508a25.8,25.8,0,0,1,4.485,16.608A26.637,26.637,0,0,1,88.6,72.136c0,2.387,0,4.8,0,7.215,0,1.438.025,2.877-.011,4.314-.041,1.641-.892,2.617-2.214,2.625s-2.211-.967-2.224-2.6c-.03-3.814-.01-7.629-.01-11.57-1.161-.221-2.262-.412-3.356-.641A26.569,26.569,0,0,1,68.856,65.44a3.7,3.7,0,0,0-2.2-.826c-11.1-.052-22.206-.035-33.309-.037a7.409,7.409,0,0,1-1.336-.031,2.214,2.214,0,0,1-.152-4.359,6.131,6.131,0,0,1,1.48-.07q14.573,0,29.146,0h1.236c-1.1-3.36-2.144-6.681-3.308-9.959-.115-.325-.941-.559-1.439-.561-8.426-.034-16.853-.024-25.279-.027a11.527,11.527,0,0,1-1.631-.063,2.188,2.188,0,0,1,.047-4.355,12.9,12.9,0,0,1,1.485-.041q12.342,0,24.685,0h1.632l1.338-7.585H59.65q-13.086,0-26.172,0a9.361,9.361,0,0,1-1.485-.038,2.2,2.2,0,0,1-.268-4.312,5.843,5.843,0,0,1,1.621-.109c9.517-.005,19.034-.027,28.551.026a2.408,2.408,0,0,0,2.332-1.326A25.794,25.794,0,0,1,82.28,19.884c.582-.1,1.161-.211,1.759-.32v-6.1H82.346c-4.511,0-9.023.073-13.531-.041a2.318,2.318,0,0,0-2.706,1.814,21.93,21.93,0,0,1-1.2,2.713,8.206,8.206,0,0,1-7.85,5.144q-12.788.074-25.577,0a8.15,8.15,0,0,1-7.751-5.058c-.021-.045-.049-.087-.07-.131-.677-1.429-1-3.461-2.125-4.127-1.264-.747-3.258-.293-4.934-.3-3.957-.021-7.914-.007-12.032-.007-.032.732-.083,1.353-.083,1.974q-.006,24.695-.009,49.39a8.243,8.243,0,0,1-.149,1.915,2.005,2.005,0,0,1-2.181,1.638A2.051,2.051,0,0,1,.061,66.446a10.622,10.622,0,0,1-.04-1.337Q.019,34.166,0,3.224C0,1.823.226.671,1.58,0Zm7.341,48.539c5.826,1.038,8.741,4.482,9.04,10.264,5.488-6.21,7.124-19.273-1.732-28.259a21.766,21.766,0,0,0-30.754-.331c-9.117,8.919-7.687,22.133-2.013,28.653a10.483,10.483,0,0,1,2.391-6.943,10.134,10.134,0,0,1,6.707-3.342c-2.038-3.548-1.472-7.234-1.3-10.8a9.348,9.348,0,0,1,8.758-8.6,9.233,9.233,0,0,1,9.873,7.44c.641,3.941.892,7.98-.966,11.917M84.051,9V4.568H4.6V9h1.73c5.2,0,10.4.067,15.6-.035a3.386,3.386,0,0,1,3.723,2.442c.6,1.62,1.409,3.162,2.116,4.743a3.842,3.842,0,0,0,3.714,2.485q12.781.026,25.562,0A3.843,3.843,0,0,0,60.79,16.2c.793-1.759,1.631-3.5,2.38-5.276a2.877,2.877,0,0,1,2.989-1.938c5.4.041,10.8.016,16.2.016Zm2.361,44.07c-2.427,0-4.855-.03-7.282.007-3.412.052-5.433,2.091-5.488,5.488-.02,1.239.071,2.484-.027,3.715a1.937,1.937,0,0,0,1.159,2c7.078,4.179,14.285,4.424,21.7.883,1.955-.934,3.08-2.132,2.643-4.427a12.093,12.093,0,0,1-.021-2.078c-.044-3.5-2.054-5.539-5.545-5.586-2.377-.032-4.756-.006-7.134-.006m4.994-11.9c0-.89.037-1.781-.007-2.669a5.043,5.043,0,0,0-10.082.049c-.055,1.728-.06,3.462,0,5.19a5.043,5.043,0,0,0,10.074.1c.054-.887.008-1.779.012-2.669" transform="translate(0)"/>
        <path id="Trazado_219555" data-name="Trazado 219555" d="M84.185,314.071v-1.92q0-20.452,0-40.9a10.477,10.477,0,0,1,.1-1.925,2.166,2.166,0,0,1,4.237-.037,7.566,7.566,0,0,1,.115,1.625q.008,26.7,0,53.4c0,2.719-.616,3.331-3.313,3.331H3.408c-2.744,0-3.341-.58-3.341-3.273q0-35.7,0-71.4a10.5,10.5,0,0,1,.043-1.336,2.041,2.041,0,0,1,1.96-1.9,1.984,1.984,0,0,1,2.262,1.514A7.68,7.68,0,0,1,4.52,253.3q.013,29.377.007,58.754v2.016Zm-.1,4.666H4.623v4.356H84.086Z" transform="translate(-0.046 -175.272)"/>
        <path id="Trazado_219556" data-name="Trazado 219556" d="M125.832,292.424h21.255a8.624,8.624,0,0,1,1.336.03,2.081,2.081,0,0,1,1.954,2.071,2.105,2.105,0,0,1-1.855,2.313,6.027,6.027,0,0,1-1.333.047q-21.552,0-43.1,0a5.305,5.305,0,0,1-1.476-.088,2.214,2.214,0,0,1,.188-4.331,6.773,6.773,0,0,1,1.334-.041q10.85,0,21.7,0" transform="translate(-70.847 -205.239)"/>
        <path id="Trazado_219557" data-name="Trazado 219557" d="M125.516,387.6q-10.7,0-21.4-.006a5.511,5.511,0,0,1-1.614-.144,2.2,2.2,0,0,1,.41-4.29,7.888,7.888,0,0,1,1.039-.024q21.7,0,43.4,0c.4,0,.917-.139,1.165.058a5.147,5.147,0,0,1,1.79,1.875,1.805,1.805,0,0,1-1.338,2.314,5.473,5.473,0,0,1-1.748.208q-10.85.019-21.7.008" transform="translate(-70.843 -268.887)"/>
        <path id="Trazado_219558" data-name="Trazado 219558" d="M46.668,119.021c0,1.933.03,3.867-.008,5.8-.033,1.7-.763,2.5-2.445,2.52q-5.8.076-11.593,0c-1.64-.024-2.39-.887-2.4-2.574q-.032-5.65,0-11.3c.01-1.74.818-2.585,2.53-2.6q5.722-.046,11.444,0a2.222,2.222,0,0,1,2.462,2.507c.038,1.883.009,3.767.009,5.65m-11.918,3.8h7.34v-7.4H34.75Z" transform="translate(-21.202 -77.796)"/>
        <path id="Trazado_219559" data-name="Trazado 219559" d="M38.552,383.236c1.833,0,3.666-.016,5.5,0,1.781.019,2.591.756,2.606,2.489q.051,5.723,0,11.447c-.016,1.747-.8,2.486-2.592,2.5q-5.647.032-11.294,0a2.234,2.234,0,0,1-2.548-2.556q-.034-5.649,0-11.3c.01-1.752.8-2.549,2.535-2.573,1.931-.027,3.864-.006,5.8-.006m-3.785,11.9h7.359v-7.347H34.767Z" transform="translate(-21.201 -268.982)"/>
        <path id="Trazado_219560" data-name="Trazado 219560" d="M46.669,209.805c0,1.933.029,3.866-.01,5.8-.034,1.685-.775,2.473-2.464,2.493q-5.721.069-11.443,0c-1.746-.02-2.521-.849-2.53-2.59q-.031-5.65,0-11.3a2.26,2.26,0,0,1,2.549-2.576q5.647-.044,11.295,0c1.806.012,2.57.815,2.6,2.675.026,1.833.006,3.667.005,5.5m-4.527-3.6H34.776v7.337h7.365Z" transform="translate(-21.201 -141.507)"/>
        <path id="Trazado_219561" data-name="Trazado 219561" d="M38.4,308.878c-1.882,0-3.765.024-5.647-.007-1.737-.028-2.522-.818-2.532-2.57q-.031-5.649,0-11.3a2.248,2.248,0,0,1,2.55-2.566q5.721-.037,11.442,0a2.161,2.161,0,0,1,2.437,2.362q.059,5.871,0,11.744c-.018,1.572-.826,2.3-2.453,2.326-1.931.033-3.864.008-5.8.008m-3.619-4.564h7.338v-7.352H34.781Z" transform="translate(-21.201 -205.243)"/>
        <path id="Trazado_219562" data-name="Trazado 219562" d="M118.066,427.884c-4.854,0-9.707.011-14.561-.007-1.773-.007-2.748-.985-2.574-2.489.14-1.208,1.037-1.938,2.553-1.957,2.575-.032,5.151-.01,7.726-.01q10.4,0,20.8,0a7.074,7.074,0,0,1,1.479.071,2.1,2.1,0,0,1,1.856,2.317,2.031,2.031,0,0,1-2.127,2.048c-1.782.044-3.565.023-5.348.024q-4.9,0-9.807,0" transform="translate(-70.828 -297.187)"/>
        <path id="Trazado_219563" data-name="Trazado 219563" d="M118.1,246.428q-6.908,0-13.816-.005a7.129,7.129,0,0,1-1.769-.134,2.18,2.18,0,0,1-.042-4.174,6.062,6.062,0,0,1,1.617-.145q14.039-.012,28.077,0c.541,0,1.248-.121,1.587.162a4.266,4.266,0,0,1,1.572,2.056,1.852,1.852,0,0,1-1.637,2.126,7.764,7.764,0,0,1-1.625.11q-6.982.011-13.964,0" transform="translate(-70.853 -169.816)"/>
        <path id="Trazado_219564" data-name="Trazado 219564" d="M118.02,337.116c-4.853,0-9.706.014-14.559-.007-1.818-.008-2.849-1.107-2.522-2.651a2.268,2.268,0,0,1,2.546-1.8c2.179-.019,4.358-.007,6.537-.007h21.542c.4,0,.793-.014,1.189.005,1.6.078,2.612.964,2.6,2.266-.007,1.32-1,2.18-2.628,2.186-4.9.016-9.805.006-14.708.006" transform="translate(-70.805 -233.481)"/>
        <path id="Trazado_219565" data-name="Trazado 219565" d="M246.669,105.079c1.858-3.937,1.607-7.976.966-11.917a9.233,9.233,0,0,0-9.873-7.439,9.349,9.349,0,0,0-8.758,8.6c-.168,3.565-.734,7.251,1.3,10.8a10.135,10.135,0,0,0-6.707,3.342,10.484,10.484,0,0,0-2.391,6.943c-5.673-6.52-7.1-19.734,2.013-28.653a21.767,21.767,0,0,1,30.755.331c8.855,8.986,7.219,22.049,1.732,28.259-.3-5.782-3.214-9.226-9.041-10.264" transform="translate(-152.075 -56.54)" fill="#43a99b"/>
        <path id="Trazado_219566" data-name="Trazado 219566" d="M94.875,19.757H93.182c-5.4,0-10.8.025-16.2-.016a2.877,2.877,0,0,0-2.989,1.938c-.749,1.778-1.587,3.517-2.38,5.276a3.843,3.843,0,0,1-3.743,2.44q-12.781.02-25.562,0a3.842,3.842,0,0,1-3.714-2.485c-.708-1.581-1.516-3.123-2.116-4.743a3.386,3.386,0,0,0-3.723-2.442c-5.2.1-10.4.035-15.6.035h-1.73V15.323H94.875ZM60.608,23.6c1.926,0,3.853.028,5.778-.009a2.208,2.208,0,1,0,.128-4.413q-5.85-.094-11.7,0a2.2,2.2,0,0,0-2.218,2.3,2.223,2.223,0,0,0,2.386,2.111c1.876.035,3.753.009,5.629.007M49.662,21.449a2.9,2.9,0,0,0-2.957-3.007,2.988,2.988,0,0,0-3.009,3,3.081,3.081,0,0,0,2.926,2.97,2.964,2.964,0,0,0,3.04-2.959" transform="translate(-10.824 -10.755)" fill="#d2c1eb"/>
        <path id="Trazado_219567" data-name="Trazado 219567" d="M259.707,178c2.378,0,4.756-.026,7.133.006,3.491.047,5.5,2.091,5.545,5.586a12.124,12.124,0,0,0,.021,2.078c.437,2.295-.688,3.493-2.643,4.427-7.41,3.541-14.617,3.3-21.7-.883a1.937,1.937,0,0,1-1.159-2c.1-1.231.007-2.476.027-3.715.055-3.4,2.077-5.436,5.489-5.488,2.427-.037,4.855-.007,7.282-.008" transform="translate(-173.295 -124.926)" fill="#eeac3a"/>
        <path id="Trazado_219568" data-name="Trazado 219568" d="M282.758,120.348c0,.89.044,1.782-.01,2.669a5.043,5.043,0,0,1-10.074-.1c-.062-1.728-.058-3.461,0-5.19a5.043,5.043,0,0,1,10.082-.049c.044.887.007,1.779.005,2.669" transform="translate(-191.353 -79.177)" fill="#eeac3a"/>
        <rect id="Rectángulo_56855" data-name="Rectángulo 56855" width="79.463" height="4.355" transform="translate(4.578 143.465)" fill="#135989"/>
        <rect id="Rectángulo_56856" data-name="Rectángulo 56856" width="7.34" height="7.4" transform="translate(13.548 37.621)" fill="#43a99b"/>
        <rect id="Rectángulo_56857" data-name="Rectángulo 56857" width="7.359" height="7.347" transform="translate(13.566 118.803)" fill="#43a99b"/>
        <rect id="Rectángulo_56858" data-name="Rectángulo 56858" width="7.365" height="7.337" transform="translate(13.575 64.698)" fill="#43a99b"/>
        <rect id="Rectángulo_56859" data-name="Rectángulo 56859" width="7.338" height="7.352" transform="translate(13.58 91.719)" fill="#43a99b"/>
        <path id="Trazado_219569" data-name="Trazado 219569" d="M148.121,32.571c-1.877,0-3.754.027-5.629-.008a2.223,2.223,0,0,1-2.386-2.111,2.2,2.2,0,0,1,2.218-2.3q5.85-.1,11.7,0a2.208,2.208,0,1,1-.128,4.413c-1.925.038-3.852.01-5.778.01" transform="translate(-98.337 -19.724)"/>
        <path id="Trazado_219570" data-name="Trazado 219570" d="M116.233,28.791a2.964,2.964,0,0,1-3.04,2.959,3.081,3.081,0,0,1-2.926-2.97,2.988,2.988,0,0,1,3.009-3,2.9,2.9,0,0,1,2.957,3.007" transform="translate(-77.395 -18.097)"/>
      </g>
    </g>
  </g>
</svg>
