<svg xmlns="http://www.w3.org/2000/svg" xmlns:xlink="http://www.w3.org/1999/xlink" width="108.419" height="108.419" viewBox="0 0 108.419 108.419">
  <defs>
    <linearGradient id="linear-gradient" x1="0.5" x2="0.5" y2="1" gradientUnits="objectBoundingBox">
      <stop offset="0" stop-color="#fdbe41"/>
      <stop offset="1" stop-color="#d09f40"/>
    </linearGradient>
  </defs>
  <g id="Grupo_179442" data-name="Grupo 179442" transform="translate(-61.701 -2317.208)">
    <circle id="Elipse_6020" data-name="Elipse 6020" cx="54.209" cy="54.209" r="54.209" transform="translate(61.701 2317.208)" fill="url(#linear-gradient)"/>
    <g id="UrxfkU" transform="translate(-48.598 3704.535)">
      <g id="Grupo_155825" data-name="Grupo 155825" transform="translate(128.878 -1362.488)">
        <path id="Trazado_196197" data-name="Trazado 196197" d="M198.308-1304.581h-67.6a9.051,9.051,0,0,1-1.033-.531,2.341,2.341,0,0,1-.8-1.3v-.768a2.817,2.817,0,0,1,.939-1.46c2.194-1.794,4.372-3.609,6.566-5.4a.709.709,0,0,0,.3-.63q-.014-13.865-.006-27.731a2.2,2.2,0,0,1,2.257-2.263c.62-.005,1.24,0,1.861,0,.1,0,.206-.013.329-.021v-.443q0-6.984,0-13.969a3.34,3.34,0,0,1,2.317-3.224c.186-.06.376-.108.565-.161h41.008a.492.492,0,0,0,.108.045,3.422,3.422,0,0,1,2.785,3.519c-.033,4.607-.011,9.214-.011,13.821v.434h.36c.64,0,1.28-.008,1.92.005a2.136,2.136,0,0,1,1.84,1.052,2.276,2.276,0,0,1,.332,1.266q-.008,13.954,0,27.907a.352.352,0,0,0,.114.24c2.131,1.763,4.259,3.528,6.405,5.273a3.206,3.206,0,0,1,1.278,1.745v.768c-.033.09-.069.18-.1.271a2.209,2.209,0,0,1-1.215,1.364C198.657-1304.7,198.48-1304.646,198.308-1304.581Zm-8.192-10.041v-.447q0-13.4,0-26.8a2.51,2.51,0,0,0-.006-.412c-.01-.061-.1-.155-.15-.156-.677-.011-1.354-.007-2.065-.007v.351q0,11.906,0,23.812c0,.138.006.276-.006.413a1.107,1.107,0,0,1-.977,1.025,1.123,1.123,0,0,1-1.247-1.23q0-16.426,0-32.853v-.4H143.357v.429q0,16.293,0,32.587c0,.148.006.3-.006.443a1.115,1.115,0,0,1-1.066,1.035,1.1,1.1,0,0,1-1.136-.916,3.1,3.1,0,0,1-.026-.529q0-11.906,0-23.812v-.33h-2.2v27.794Zm7.762,7.794c-.17-.144-.274-.234-.379-.321q-3.03-2.5-6.057-5a.926.926,0,0,0-.638-.229q-26.322.008-52.644.013a.894.894,0,0,0-.524.188q-3.088,2.523-6.158,5.067c-.094.078-.183.161-.325.287Zm-12.213-46.77v-.307q0-2.54,0-5.08a1.131,1.131,0,0,0-1.276-1.268H144.6a1.12,1.12,0,0,0-1.246,1.237q0,2.555,0,5.11v.309Z" transform="translate(-128.878 1362.488)" fill="#12263f"/>
        <path id="Trazado_196198" data-name="Trazado 196198" d="M668.247-1117.522q5.241,0,10.483,0a1.113,1.113,0,0,1,1.209,1.125,1.1,1.1,0,0,1-.966,1.091,2.134,2.134,0,0,1-.324.018H657.83a1.131,1.131,0,0,1-1.267-1.16,1.094,1.094,0,0,1,1.112-1.072c.915-.008,1.831,0,2.746,0Z" transform="translate(-625.383 1131.999)" fill="#12263f"/>
        <path id="Trazado_196199" data-name="Trazado 196199" d="M668.292-740.56q5.227,0,10.453,0a1.108,1.108,0,0,1,1.2,1.13,1.09,1.09,0,0,1-.916,1.075,2.092,2.092,0,0,1-.353.023H657.772a1.114,1.114,0,0,1-1.19-.958,1.094,1.094,0,0,1,.818-1.233,1.667,1.667,0,0,1,.409-.037Q663.05-740.561,668.292-740.56Z" transform="translate(-625.39 777.309)" fill="#12263f"/>
        <path id="Trazado_196200" data-name="Trazado 196200" d="M667.959-851.389q-5.095,0-10.19,0a1.106,1.106,0,0,1-1.2-1.245,1.1,1.1,0,0,1,.99-.976c.088-.007.177,0,.266,0h20.32a1.125,1.125,0,0,1,1.179.749,1.109,1.109,0,0,1-.913,1.465,2.728,2.728,0,0,1-.354.013Z" transform="translate(-625.383 883.685)" fill="#12263f"/>
        <path id="Trazado_196201" data-name="Trazado 196201" d="M665.45-663.016h-7.678a1.121,1.121,0,0,1-1.235-1.129,1.122,1.122,0,0,1,1.235-1.1q7.589,0,15.178,0a2.838,2.838,0,0,1,.5.029,1.093,1.093,0,0,1,.9,1.176,1.1,1.1,0,0,1-1.041,1.022c-.275.013-.551,0-.827,0Z" transform="translate(-625.358 706.447)" fill="#12263f"/>
        <path id="Trazado_196202" data-name="Trazado 196202" d="M413.776-1134.164c0,.142,0,.248,0,.353q0,2.585,0,5.17a1.065,1.065,0,0,1-.665,1.056,1.063,1.063,0,0,1-1.185-.186,1.022,1.022,0,0,1-.369-.807c0-2.245-.008-4.49,0-6.736a1.066,1.066,0,0,1,1.1-1.082q3.9-.012,7.8,0a1.084,1.084,0,0,1,1.112,1.13,1.1,1.1,0,0,1-1.15,1.1c-2.068.008-4.136,0-6.2,0Z" transform="translate(-394.85 1149.761)" fill="#12263f"/>
        <path id="Trazado_196203" data-name="Trazado 196203" d="M413.785-757.228v.378q0,2.583,0,5.166a1.051,1.051,0,0,1-.653,1.032,1.064,1.064,0,0,1-1.186-.172,1.017,1.017,0,0,1-.378-.8c0-2.253-.008-4.507,0-6.76a1.057,1.057,0,0,1,1.078-1.069q3.926-.013,7.853,0a1.083,1.083,0,0,1,1.078,1.1,1.1,1.1,0,0,1-1.093,1.119c-.541.015-1.082,0-1.624,0h-5.077Z" transform="translate(-394.86 795.093)" fill="#12263f"/>
        <path id="Trazado_196204" data-name="Trazado 196204" d="M413.788-945.61v.4q0,2.57,0,5.14a1.064,1.064,0,0,1-.621,1.026,1.061,1.061,0,0,1-1.146-.1,1.016,1.016,0,0,1-.451-.854c0-2.255-.009-4.51,0-6.764a1.054,1.054,0,0,1,1.08-1.065q3.914-.013,7.828,0a1.082,1.082,0,0,1,1.1,1.079,1.1,1.1,0,0,1-1.075,1.138c-.108.007-.217,0-.325,0h-6.394Z" transform="translate(-394.862 972.339)" fill="#12263f"/>
        <path id="Trazado_196205" data-name="Trazado 196205" d="M662.531-926.854q-2.495,0-4.99,0a1.054,1.054,0,0,1-1.032-.654,1.066,1.066,0,0,1,.171-1.188,1.185,1.185,0,0,1,.979-.386q4.1.007,8.208,0c.531,0,1.063,0,1.594,0a1.122,1.122,0,0,1,1.195,1.115,1.116,1.116,0,0,1-1.195,1.112Q665-926.852,662.531-926.854Z" transform="translate(-625.23 954.693)" fill="#12263f"/>
        <path id="Trazado_196206" data-name="Trazado 196206" d="M471.3-1104.13c.6-.61,1.148-1.173,1.7-1.73.666-.67,1.327-1.346,2.011-2a1.086,1.086,0,0,1,1.412-.077,1.1,1.1,0,0,1,.359,1.32,1.4,1.4,0,0,1-.284.407q-2.186,2.2-4.383,4.388a1.1,1.1,0,0,1-1.61.007q-1.12-1.093-2.214-2.213a1.1,1.1,0,0,1-.01-1.569,1.11,1.11,0,0,1,1.591.007C470.346-1105.128,470.8-1104.648,471.3-1104.13Z" transform="translate(-447.926 1123.187)" fill="#12263f"/>
        <path id="Trazado_196207" data-name="Trazado 196207" d="M471.351-915.64c.541-.551,1.047-1.071,1.559-1.587.7-.705,1.4-1.411,2.111-2.107a1.056,1.056,0,0,1,1.117-.27,1.06,1.06,0,0,1,.762.86,1.047,1.047,0,0,1-.3.977q-2.23,2.239-4.47,4.468a1.086,1.086,0,0,1-1.587-.026q-1.091-1.08-2.172-2.172a1.109,1.109,0,0,1-.034-1.611,1.123,1.123,0,0,1,1.614.041C470.413-916.61,470.861-916.141,471.351-915.64Z" transform="translate(-447.969 945.828)" fill="#12263f"/>
        <path id="Trazado_196208" data-name="Trazado 196208" d="M471.369-727.174c.211-.238.4-.475.615-.69.977-.986,1.961-1.965,2.941-2.948a1.118,1.118,0,0,1,1.185-.33,1.057,1.057,0,0,1,.754.834,1.05,1.05,0,0,1-.294,1.006q-2.24,2.25-4.491,4.488a1.071,1.071,0,0,1-1.522-.008q-1.143-1.112-2.257-2.253a1.1,1.1,0,0,1,.011-1.569,1.108,1.108,0,0,1,1.569,0c.419.4.823.819,1.235,1.229C471.176-727.351,471.242-727.293,471.369-727.174Z" transform="translate(-447.94 768.499)" fill="#12263f"/>
        <path id="Trazado_196209" data-name="Trazado 196209" d="M661.761-1039.946c-1.387,0-2.775,0-4.162,0a1.087,1.087,0,0,1-1.061-.747,1.053,1.053,0,0,1,.33-1.2,1.359,1.359,0,0,1,.724-.27q4.177-.028,8.353-.008a1.1,1.1,0,0,1,1.112,1.138,1.112,1.112,0,0,1-1.134,1.087c-1.387.009-2.775,0-4.162,0Z" transform="translate(-625.299 1061.106)" fill="#12263f"/>
        <path id="Trazado_196210" data-name="Trazado 196210" d="M875.677-1039.969c-.442,0-.885.006-1.328,0a1.117,1.117,0,0,1-1.177-1.132,1.119,1.119,0,0,1,1.182-1.1q1.328-.01,2.655,0a1.113,1.113,0,0,1,1.174,1.133,1.111,1.111,0,0,1-1.179,1.1C876.563-1039.966,876.12-1039.97,875.677-1039.969Z" transform="translate(-829.193 1061.13)" fill="#12263f"/>
        <path id="Trazado_196211" data-name="Trazado 196211" d="M904.028-926.937c-.452,0-.9.005-1.357,0a1.1,1.1,0,0,1-1.131-1.079,1.088,1.088,0,0,1,1.1-1.142c.934-.018,1.868-.015,2.8,0a1.092,1.092,0,0,1,1.1,1.138,1.1,1.1,0,0,1-1.128,1.083c-.236,0-.472,0-.708,0Z" transform="translate(-855.883 954.775)" fill="#12263f"/>
        <path id="Trazado_196212" data-name="Trazado 196212" d="M866.054-1285c-.374,0-.748.009-1.122,0a1.1,1.1,0,0,1-1.111-1.132,1.1,1.1,0,0,1,1.123-1.095c.728-.01,1.457-.009,2.185,0a1.105,1.105,0,0,1,1.14,1.106,1.1,1.1,0,0,1-1.122,1.123C866.782-1284.993,866.418-1285,866.054-1285Z" transform="translate(-820.393 1291.684)" fill="#12263f"/>
        <path id="Trazado_196213" data-name="Trazado 196213" d="M979.088-1284.974c-.364,0-.729.008-1.093,0a1.108,1.108,0,0,1-1.127-1.12,1.1,1.1,0,0,1,1.138-1.107c.718-.007,1.437-.01,2.155,0a1.1,1.1,0,0,1,1.155,1.091,1.1,1.1,0,0,1-1.135,1.138C979.817-1284.966,979.453-1284.974,979.088-1284.974Z" transform="translate(-926.761 1291.657)" fill="#12263f"/>
      </g>
    </g>
  </g>
</svg>
