<svg xmlns="http://www.w3.org/2000/svg" xmlns:xlink="http://www.w3.org/1999/xlink" width="112" height="112" viewBox="0 0 112 112">
  <defs>
    <clipPath id="clip-path">
      <rect id="Rectángulo_56210" data-name="Rectángulo 56210" width="62.54" height="62.537" fill="#fff"/>
    </clipPath>
  </defs>
  <g id="Grupo_179432" data-name="Grupo 179432" transform="translate(5147.95 8567.362)">
    <circle id="Elipse_6196" data-name="Elipse 6196" cx="56" cy="56" r="56" transform="translate(-5147.95 -8567.362)" fill="#12263f"/>
    <g id="Grupo_175594" data-name="Grupo 175594" transform="translate(-5121.854 -8539.891)">
      <g id="Grupo_175593" data-name="Grupo 175593" transform="translate(0 0.005)" clip-path="url(#clip-path)">
        <path id="Trazado_217760" data-name="Trazado 217760" d="M33.635,54.711a5.61,5.61,0,0,1-1.179,2.471,5.231,5.231,0,0,1-3.394,1.871,5.157,5.157,0,0,1-2.962-.437,5.265,5.265,0,0,1-2.963-3.59.352.352,0,0,0-.417-.322c-3.181.01-6.363,0-9.544.009a14.825,14.825,0,0,1-4.213-.437,12.305,12.305,0,0,1-4.7-2.534A12.167,12.167,0,0,1,.078,41.28,11.9,11.9,0,0,1,2.23,35.5a12.246,12.246,0,0,1,10.168-5.2c.7.008,1.4,0,2.1.005a.258.258,0,0,0,.307-.237,5.363,5.363,0,0,1,10.438-.082c.06.254.156.322.411.322q5.623-.014,11.247-.008h.281c.113-.336.209-.659.328-.974a5.369,5.369,0,0,1,10.223.731c.036.137.054.25.24.246A29.66,29.66,0,0,0,52,30.153a9.859,9.859,0,0,0,3.2-1.1,10.1,10.1,0,0,0,3.534-3.177,10.262,10.262,0,0,0,.823-10.247,10.158,10.158,0,0,0-6.055-5.32,9.75,9.75,0,0,0-3.174-.51q-5.255.01-10.51,0h-.329a5.386,5.386,0,0,1-2.116,3.357,5.229,5.229,0,0,1-3.608,1.012A5.393,5.393,0,0,1,28.908,9.8h-.32q-5.34,0-10.68-.005c-.258,0-.358.042-.406.336a8.494,8.494,0,0,1-3.27,5.59A8.52,8.52,0,0,1,5.56,16.973a8.229,8.229,0,0,1-4.1-3.351A8.522,8.522,0,0,1,.574,5.779,8.488,8.488,0,0,1,5.325.749,8.483,8.483,0,0,1,11.8.552a8.794,8.794,0,0,1,5.734,7.117c.006.046.016.091.031.168H27.9c.273,0,.546,0,.818,0,.15.005.205-.044.241-.2a5.3,5.3,0,0,1,2.088-3.178,5.1,5.1,0,0,1,4.06-.933,5.254,5.254,0,0,1,4.331,4.089c.049.176.108.223.28.222q4.829-.009,9.658-.009a15.772,15.772,0,0,1,3.474.259,12.231,12.231,0,0,1,5.485,2.757A12.084,12.084,0,0,1,61.8,15.919a12.212,12.212,0,0,1-1.4,11A12.29,12.29,0,0,1,57,30.256a11.728,11.728,0,0,1-5.085,1.887c-.86.1-1.736.084-2.6.11-.435.013-.871.008-1.307,0-.162,0-.224.057-.267.215a5.356,5.356,0,0,1-9.751,1.7,16.883,16.883,0,0,1-.85-1.84l.071-.066H36.9q-5.651,0-11.3-.008c-.208,0-.295.057-.343.262a5.175,5.175,0,0,1-2.574,3.443,5.3,5.3,0,0,1-5.9-.41,5.432,5.432,0,0,1-2-3.08c-.021-.082-.132-.2-.2-.2-1.342.034-2.688.025-4.023.147a8.494,8.494,0,0,0-3.52,1.261,9.973,9.973,0,0,0-4.148,4.6A9.925,9.925,0,0,0,2.981,46.9,10.005,10.005,0,0,0,9.1,52.26a9.838,9.838,0,0,0,3.153.493q5.241-.011,10.481,0h.324a5.364,5.364,0,0,1,2.073-3.329,5.23,5.23,0,0,1,3.261-1.057,5.4,5.4,0,0,1,5.247,4.369H44.945c.133-.543.223-1.1.4-1.619a8.53,8.53,0,0,1,7.224-6.08,8.217,8.217,0,0,1,7.545,2.692,8.463,8.463,0,0,1,1.855,9.029A8.194,8.194,0,0,1,58.668,61a8.789,8.789,0,0,1-12.142-2.229,8.473,8.473,0,0,1-1.5-3.842c-.029-.225-.154-.218-.313-.218q-3.082,0-6.164,0h-4.91M8.814,1.995a6.824,6.824,0,1,0,6.822,6.883A6.822,6.822,0,0,0,8.814,1.995M60.548,53.741A6.821,6.821,0,1,0,53.7,60.553a6.812,6.812,0,0,0,6.846-6.812M42.465,34.682a3.408,3.408,0,1,0-3.384-3.469,3.423,3.423,0,0,0,3.384,3.469M20.049,27.866a3.409,3.409,0,1,0,3.41,3.472,3.418,3.418,0,0,0-3.41-3.472m4.887,25.87a3.4,3.4,0,1,0,3.431-3.422,3.395,3.395,0,0,0-3.431,3.422m12.669-44.9a3.4,3.4,0,1,0-3.452,3.4,3.4,3.4,0,0,0,3.452-3.4" transform="translate(0.001 -0.005)" fill="#fff"/>
        <path id="Trazado_217761" data-name="Trazado 217761" d="M90.281,73.884v-2.91l.077-.042c.141.128.287.25.421.385q1.866,1.863,3.729,3.729c.147.147.281.307.434.447.194.178.13.32-.028.476-.511.5-1.016,1.015-1.524,1.523Q92,78.885,90.6,80.277c-.076.076-.16.145-.24.217l-.078-.03V77.549H88.932c-.738,0-1.476,0-2.214,0-.239,0-.345-.1-.344-.339,0-.994.007-1.987,0-2.981,0-.26.108-.351.359-.349,1.05.006,2.1,0,3.149,0h.4" transform="translate(-81.467 -66.902)" fill="#fff"/>
        <path id="Trazado_217762" data-name="Trazado 217762" d="M860.645,855.468a5.131,5.131,0,1,1-5.126,5.227,5.152,5.152,0,0,1,5.126-5.227m-3.163,5.086a3.164,3.164,0,1,0,3.363-3.115,3.132,3.132,0,0,0-3.363,3.115" transform="translate(-806.915 -806.867)" fill="#fff"/>
        <path id="Trazado_217763" data-name="Trazado 217763" d="M920.18,921.588a1.445,1.445,0,0,0,1.431,1.479,1.463,1.463,0,0,0,1.491-1.458,1.434,1.434,0,0,0-1.441-1.464,1.411,1.411,0,0,0-1.48,1.444" transform="translate(-867.903 -867.869)" fill="#fff"/>
        <path id="Trazado_217764" data-name="Trazado 217764" d="M920.18,921.588a1.411,1.411,0,0,1,1.48-1.444,1.434,1.434,0,0,1,1.441,1.464,1.463,1.463,0,0,1-1.491,1.458,1.445,1.445,0,0,1-1.431-1.479" transform="translate(-867.903 -867.869)" fill="#fff"/>
      </g>
    </g>
  </g>
</svg>
