<svg xmlns="http://www.w3.org/2000/svg" xmlns:xlink="http://www.w3.org/1999/xlink" width="112" height="112" viewBox="0 0 112 112">
  <defs>
    <clipPath id="clip-path">
      <rect id="Rectángulo_56229" data-name="Rectángulo 56229" width="64.959" height="64.931" fill="#fff"/>
    </clipPath>
  </defs>
  <g id="Grupo_179433" data-name="Grupo 179433" transform="translate(4822.95 8567.362)">
    <circle id="Elipse_6197" data-name="Elipse 6197" cx="56" cy="56" r="56" transform="translate(-4822.95 -8567.362)" fill="#12263f"/>
    <g id="Grupo_175596" data-name="Grupo 175596" transform="translate(-4798.225 -8542.279)">
      <g id="Grupo_175595" data-name="Grupo 175595" clip-path="url(#clip-path)">
        <path id="Trazado_217765" data-name="Trazado 217765" d="M32.464,24.889h2.111v2.154H32.464v.863q0,10.75,0,21.5c0,1.128-.324,1.457-1.435,1.458q-5.443,0-10.886,0h-.629v5.38H21.6v2.174H19.48c0,.713,0,1.379,0,2.044a4.33,4.33,0,1,1-8.657.053c-.01-2.952,0-5.9,0-8.856v-.8H8.415q-3.516,0-7.032,0C.362,50.866,0,50.5,0,49.487Q0,27.616,0,5.744c0-1.063.345-1.4,1.421-1.4,2.385,0,4.77,0,7.235,0,0-.288,0-.527,0-.767,0-1.058.348-1.4,1.428-1.4a1.781,1.781,0,0,1,.27,0c1.324.209,2.338-.062,2.771-1.541a1.3,1.3,0,0,1,1.005-.6c1.394-.069,2.794-.026,4.191-.029A1.07,1.07,0,0,1,19.455.8c.338,1.216,1.122,1.473,2.3,1.408C23.7,2.1,23.723,2.2,23.835,4.34h.7c2.186,0,4.373-.005,6.559,0,1.018,0,1.363.361,1.368,1.392,0,.721,0,1.442,0,2.163a2.385,2.385,0,0,0,.044.251c.21-.2.379-.351.54-.512Q36.591,4.1,40.129.561c.751-.751,1.239-.747,1.993.007.956.957,1.915,1.909,2.868,2.869A1.1,1.1,0,0,1,45,5.236C44.232,6,43.455,6.747,42.583,7.6c.812.784,1.573,1.508,2.322,2.246s.745,1.229-.017,1.991L39.77,16.955l-1.513-1.533,4.58-4.543L40.99,9.1c-.211.256-.429.568-.693.834q-3.674,3.688-7.371,7.354a1.479,1.479,0,0,0-.472,1.181c.023,2.114.01,4.228.01,6.419m-2.2-4.762-.167-.14a7.115,7.115,0,0,1-.882,1,4.057,4.057,0,0,1-1.308.742c-1.206.356-2.437.626-3.659.923-1.034.252-1.7-.4-1.455-1.414.32-1.31.636-2.621,1-3.92a2.317,2.317,0,0,1,.551-.962c1.847-1.883,3.72-3.739,5.58-5.608.139-.139.346-.308.35-.467.029-1.25.016-2.5.016-3.739H23.809c0,.664,0,1.291,0,1.917,0,.891-.383,1.287-1.265,1.288q-6.323.009-12.646,0A1.1,1.1,0,0,1,8.656,8.5c-.008-.647,0-1.294,0-1.952H2.218V48.676h8.527a6.841,6.841,0,0,1,.406-.892,5.361,5.361,0,0,0,.781-3.211,1.025,1.025,0,0,0-.726-1.068,9.722,9.722,0,0,1,7.055-18.1,9.785,9.785,0,0,1,6.629,8.9,9.687,9.687,0,0,1-6.032,9.3.654.654,0,0,0-.474.682,5.471,5.471,0,0,0,.793,3.542,5,5,0,0,1,.376.83H30.269ZM7.579,34.56a7.573,7.573,0,1,0,7.681-7.5,7.586,7.586,0,0,0-7.681,7.5M14.069,44.4a5.349,5.349,0,0,0,0,.588,5.41,5.41,0,0,1-.84,3.528,1.942,1.942,0,0,0-.236.954q-.024,5.468-.009,10.937a2.17,2.17,0,1,0,4.325.027q.008-5.5-.005-11a1.5,1.5,0,0,0-.161-.771,5.973,5.973,0,0,1-.918-3.981,1.25,1.25,0,0,0-.038-.278ZM21.611,4.344c-.611,0-1.192-.026-1.77.007a1.267,1.267,0,0,1-1.471-.9c-.321-1.088-1.019-1.3-2.1-1.323-1.158-.024-1.857.257-2.2,1.381a1.2,1.2,0,0,1-1.372.84c-.6-.029-1.2-.006-1.831-.006v3.2H21.611Zm8.617,12.392L39.374,7.6,37.879,6.067l-9.166,9.175,1.515,1.493m-1.6,1.748-1.582-1.691c-1.262.707-1.481,1.94-1.658,3.279,1.34-.178,2.573-.4,3.24-1.588M40.922,5.955l1.716-1.624-1.5-1.595L39.456,4.365c.152.162.289.306.424.452.377.411.754.822,1.042,1.137" transform="translate(0 0)" fill="#fff"/>
        <path id="Trazado_217766" data-name="Trazado 217766" d="M340.664,50.941c-.351-1.274.355-2.2,1.043-3.124.284-.38.01-.572-.165-.811a4.3,4.3,0,0,1,.31-5.671,4.362,4.362,0,0,1,5.887-.3,4.241,4.241,0,0,1,.817,5.657,1.2,1.2,0,0,0,.028,1.722c.639.819.592.856.743,2.55a4.372,4.372,0,0,1,3.221.489,4.244,4.244,0,0,1,1.3,6.242c-.362.489-.415.829-.022,1.264a3.62,3.62,0,0,1,.883,2.863c-.075.986-.006,1.982-.018,2.974a1.065,1.065,0,0,1-1.209,1.2q-3.111.012-6.221,0c-.839,0-1.215-.4-1.222-1.26-.008-.969.053-1.942-.016-2.906a3.808,3.808,0,0,1,.861-2.877,1.046,1.046,0,0,0,.243-.849,1.013,1.013,0,0,0-1.093-.776,9.583,9.583,0,0,1-2.025,0,1.091,1.091,0,0,0-1.177.662.716.716,0,0,0-.02.632,4.986,4.986,0,0,1,1.068,4.03c-.04.719.006,1.442-.01,2.163a1.057,1.057,0,0,1-1.165,1.18q-3.144.022-6.289,0a1.073,1.073,0,0,1-1.2-1.219,35.373,35.373,0,0,1,.04-4.052,4.984,4.984,0,0,1,.922-1.887.732.732,0,0,0-.014-1,4.168,4.168,0,0,1-.27-4.97,4.283,4.283,0,0,1,4.478-1.932,2.7,2.7,0,0,0,.295,0m5.229,4.212a8.847,8.847,0,0,1,.693-1.959,4.453,4.453,0,0,0,.556-2.275,3.027,3.027,0,0,0-1.006-2.184c-.163-.2-.77-.043-1.173-.049a.622.622,0,0,1-.2,0c-.852-.328-1.257.174-1.581.838-.049.1-.178.182-.183.277a10.567,10.567,0,0,0-.057,2.672,13.965,13.965,0,0,0,1.191,2.681ZM341.7,63.8a14.632,14.632,0,0,0-.041-2.667,4.144,4.144,0,0,0-.961-1.647c-.113-.14-.575.016-.876.01-.335-.007-.67-.048-1-.066-.151-.008-.393-.055-.44.016a5.136,5.136,0,0,0-.961,1.657,14.849,14.849,0,0,0-.042,2.7Zm10.821,0a14.667,14.667,0,0,0-.041-2.673,4.135,4.135,0,0,0-.964-1.646c-.113-.14-.576.019-.878.013-.335-.007-.669-.049-1-.066-.149-.007-.385-.049-.437.025a4.7,4.7,0,0,0-.959,1.587,15.764,15.764,0,0,0-.042,2.76ZM345.007,42.2a2.18,2.18,0,0,0-2.219,2.153,2.164,2.164,0,0,0,4.328.044,2.2,2.2,0,0,0-2.109-2.2m-5.534,10.819a2.192,2.192,0,0,0-2.1,2.2,2.165,2.165,0,1,0,2.1-2.2m13.05,2.172a2.18,2.18,0,0,0-2.125-2.169,2.162,2.162,0,1,0,2.125,2.169" transform="translate(-289.763 -34.609)" fill="#fff"/>
        <path id="Trazado_217767" data-name="Trazado 217767" d="M308.08,317.187v-2.112h2.154v2.076h2.176c0-.636-.006-1.28,0-1.923.011-.9.375-1.275,1.269-1.284.989-.01,1.978,0,3.04,0v-2.126h2.151v2.092c.288.014.5.033.721.033,1.533,0,3.066-.006,4.6,0a1.052,1.052,0,0,1,1.2,1.144q.014,7.505,0,15.011c0,.778-.432,1.151-1.261,1.153-1.711,0-3.421,0-5.228,0,0,.68,0,1.324,0,1.968-.007.893-.381,1.275-1.276,1.276q-5.207.007-10.415,0c-.923,0-1.292-.388-1.293-1.327,0-1.688,0-3.376,0-5.142h-2.126V325.87h2.09c.015-.292.035-.509.035-.727q0-3.212,0-6.423c0-1.222.3-1.53,1.5-1.532h.667m.05,15.094H316.7v-12.9H308.13Zm10.81-10.76v2.172h2.08v2.175h-2.07v3.168H323.2V316.145h-8.568v1.042c.973,0,1.894,0,2.815,0,1.118,0,1.462.334,1.461,1.431,0,.236,0,.471,0,.756h2.121v2.148Z" transform="translate(-262.633 -269.569)" fill="#fff"/>
        <rect id="Rectángulo_56211" data-name="Rectángulo 56211" width="2.1" height="3.166" transform="translate(54.133 0.059)" fill="#fff"/>
        <path id="Trazado_217768" data-name="Trazado 217768" d="M444.684,27.372l1.4,1.364-2.114,2.057-1.345-1.378,2.056-2.042" transform="translate(-382.659 -23.664)" fill="#fff"/>
        <path id="Trazado_217769" data-name="Trazado 217769" d="M348.5,30.464,346.471,28.5l1.41-1.411,1.98,2.052L348.5,30.464" transform="translate(-299.53 -23.421)" fill="#fff"/>
        <rect id="Rectángulo_56212" data-name="Rectángulo 56212" width="2.082" height="2.079" transform="translate(36.847 29.274)" fill="#fff"/>
        <rect id="Rectángulo_56213" data-name="Rectángulo 56213" width="2.086" height="2.097" transform="translate(36.839 33.591)" fill="#fff"/>
        <rect id="Rectángulo_56214" data-name="Rectángulo 56214" width="2.08" height="2.09" transform="translate(54.144 33.584)" fill="#fff"/>
        <rect id="Rectángulo_56215" data-name="Rectángulo 56215" width="2.083" height="2.082" transform="translate(36.828 37.933)" fill="#fff"/>
        <rect id="Rectángulo_56216" data-name="Rectángulo 56216" width="2.108" height="2.07" transform="translate(41.155 37.932)" fill="#fff"/>
        <rect id="Rectángulo_56217" data-name="Rectángulo 56217" width="2.106" height="2.057" transform="translate(45.463 37.931)" fill="#fff"/>
        <rect id="Rectángulo_56218" data-name="Rectángulo 56218" width="2.085" height="2.087" transform="translate(54.136 37.913)" fill="#fff"/>
        <rect id="Rectángulo_56219" data-name="Rectángulo 56219" width="2.083" height="2.085" transform="translate(45.48 42.243)" fill="#fff"/>
        <rect id="Rectángulo_56220" data-name="Rectángulo 56220" width="2.104" height="2.068" transform="translate(23.82 56.328)" fill="#fff"/>
        <rect id="Rectángulo_56221" data-name="Rectángulo 56221" width="2.083" height="2.086" transform="translate(28.166 56.307)" fill="#fff"/>
        <rect id="Rectángulo_56222" data-name="Rectángulo 56222" width="2.084" height="2.083" transform="translate(32.511 56.303)" fill="#fff"/>
        <rect id="Rectángulo_56223" data-name="Rectángulo 56223" width="2.078" height="2.09" transform="translate(36.842 56.316)" fill="#fff"/>
        <rect id="Rectángulo_56224" data-name="Rectángulo 56224" width="2.06" height="2.106" transform="translate(36.843 24.943)" fill="#fff"/>
        <path id="Trazado_217770" data-name="Trazado 217770" d="M90.195,237.288c.757.742,1.469,1.462,2.206,2.154a.959.959,0,0,0,1.4.039c1.488-1.437,2.935-2.917,4.374-4.357L96.6,233.486l-3.615,3.7-1.215-1.493-1.578,1.594" transform="translate(-77.975 -201.852)" fill="#fff"/>
        <rect id="Rectángulo_56225" data-name="Rectángulo 56225" width="16.141" height="2.092" transform="translate(6.531 13.025)" fill="#fff"/>
        <rect id="Rectángulo_56226" data-name="Rectángulo 56226" width="13.987" height="2.086" transform="translate(6.546 20.614)" fill="#fff"/>
        <path id="Trazado_217771" data-name="Trazado 217771" d="M90.195,237.288l1.578-1.594,1.215,1.493,3.615-3.7,1.575,1.639c-1.439,1.44-2.886,2.92-4.374,4.357a.959.959,0,0,1-1.4-.039c-.738-.692-1.449-1.412-2.206-2.154" transform="translate(-77.975 -201.852)" fill="#fff"/>
        <rect id="Rectángulo_56227" data-name="Rectángulo 56227" width="4.247" height="2.097" transform="translate(47.649 57.383)" fill="#fff"/>
        <rect id="Rectángulo_56228" data-name="Rectángulo 56228" width="4.247" height="2.099" transform="translate(47.649 53.055)" fill="#fff"/>
      </g>
    </g>
  </g>
</svg>
