<svg xmlns="http://www.w3.org/2000/svg" xmlns:xlink="http://www.w3.org/1999/xlink" width="112" height="112" viewBox="0 0 112 112">
  <defs>
    <clipPath id="clip-path">
      <rect id="Rectángulo_56206" data-name="Rectángulo 56206" width="63.324" height="63.637" fill="#fff"/>
    </clipPath>
  </defs>
  <g id="Grupo_179427" data-name="Grupo 179427" transform="translate(-1104.05 -3132.638)">
    <circle id="Elipse_6191" data-name="Elipse 6191" cx="56" cy="56" r="56" transform="translate(1104.05 3132.638)" fill="#12263f"/>
    <g id="Grupo_175587" data-name="Grupo 175587" transform="translate(1130.656 3153.758)">
      <g id="Grupo_175586" data-name="Grupo 175586" clip-path="url(#clip-path)">
        <path id="Trazado_217749" data-name="Trazado 217749" d="M264.894,10.687c-.228.265-.44.545-.686.791-2.281,2.288-4.584,4.553-6.844,6.861a3.983,3.983,0,0,1-3.533,1.248c-1.191-.141-2.391-.226-3.59-.276a1.207,1.207,0,0,0-.772.375c-4.725,4.7-9.46,9.4-14.135,14.154-1.189,1.209-2.571,1.057-3.974.908a1.493,1.493,0,0,1-1.125-1.537,4.747,4.747,0,0,1,1.453-3.766c4.577-4.441,9.044-8.994,13.563-13.5a1.1,1.1,0,0,0,.369-.978c-.126-1.3-.192-2.6-.335-3.9A4.131,4.131,0,0,1,246.6,7.441c2.315-2.253,4.579-4.558,6.864-6.841.2-.2.413-.4.62-.6h.5a3.274,3.274,0,0,1,.434.9c.111.8.131,1.607.194,2.411.061.777.129,1.553.208,2.5.7-.718,1.288-1.327,1.888-1.918a1.738,1.738,0,0,1,1.981-.519,4.651,4.651,0,0,1,2.522,2.588,1.816,1.816,0,0,1-.6,1.965c-.494.505-1,1-1.59,1.6,1.5.111,2.816.179,4.128.325a4.52,4.52,0,0,1,1.147.464Z" transform="translate(-201.57 -0.001)" fill="#fff"/>
        <path id="Trazado_217750" data-name="Trazado 217750" d="M39.661,62.255A20.319,20.319,0,0,0,33.144,59.6,20.643,20.643,0,0,0,16.29,63.095a20.964,20.964,0,0,0-5.879,27.543,20.629,20.629,0,0,0,11.759,9.479,19.726,19.726,0,0,0,9.808.713c7.5-1.371,12.914-5.545,15.916-12.526a20.242,20.242,0,0,0-1.031-18.513c-.311-.565-.366-.9.163-1.343.6-.5,1.1-1.125,1.692-1.643a1.364,1.364,0,0,1,.856-.323c1.323.04,2.645.128,3.964.233a.725.725,0,0,1,.475.361,27.851,27.851,0,0,1,3,10.166,27.259,27.259,0,0,1-2.069,13.906c-4.127,9.323-11.193,15.17-21.243,17.047a27.423,27.423,0,0,1-23.823-6.485A27.48,27.48,0,0,1,.2,83.455,28.511,28.511,0,0,1,21.639,52.376a28.129,28.129,0,0,1,19.627,2.132.789.789,0,0,1,.418.5c.119,1.443.214,2.889.261,4.336a1.438,1.438,0,0,1-.337.908c-.612.7-1.287,1.336-1.947,2.006" transform="translate(0 -45.09)" fill="#fff"/>
        <path id="Trazado_217751" data-name="Trazado 217751" d="M136.494,169.618c-.145.154-.278.3-.42.444-1.492,1.494-2.974,3-4.491,4.468a1.542,1.542,0,0,1-.95.4,7.4,7.4,0,1,0,7.372,7.365,1.45,1.45,0,0,1,.37-.9c1.615-1.661,3.262-3.291,4.908-4.939a13.877,13.877,0,0,1-3.3,16.371,14.068,14.068,0,0,1-20.918-18.537,13.956,13.956,0,0,1,17.432-4.672" transform="translate(-102.026 -147.324)" fill="#fff"/>
      </g>
    </g>
  </g>
</svg>
