<svg xmlns="http://www.w3.org/2000/svg" xmlns:xlink="http://www.w3.org/1999/xlink" width="112" height="112" viewBox="0 0 112 112">
  <defs>
    <clipPath id="clip-path">
      <rect id="Rectángulo_56208" data-name="Rectángulo 56208" width="63.255" height="68.074" fill="#fff"/>
    </clipPath>
  </defs>
  <g id="Grupo_179429" data-name="Grupo 179429" transform="translate(6108.95 8567.362)">
    <circle id="Elipse_6193" data-name="Elipse 6193" cx="56" cy="56" r="56" transform="translate(-6108.95 -8567.362)" fill="#12263f"/>
    <g id="Grupo_175590" data-name="Grupo 175590" transform="translate(-6090.281 -8544)">
      <g id="Grupo_175589" data-name="Grupo 175589" clip-path="url(#clip-path)">
        <path id="Trazado_217753" data-name="Trazado 217753" d="M43.053,68.073a9.292,9.292,0,0,1-1.434-1.221c-1.452-1.844-2.851-3.73-4.25-5.616a1.087,1.087,0,0,0-.988-.5c-2.281.023-4.563.014-6.845.01A5.44,5.44,0,0,1,23.773,55c0-1.628,0-3.256-.136-4.931q-1.01,1.338-2.02,2.677c-1.221,1.611-2.538,1.6-3.762-.023-.253-.336-.516-.665-.756-1.01A.991.991,0,1,1,18.661,50.5c.362.441.7.9,1.088,1.415l2.873-3.8c.614-.813,1.236-1.62,1.837-2.443a2.493,2.493,0,0,1,2.161-1.078c2.326.012,4.652.009,6.978,0,2.553-.007,3.884-1.346,3.885-3.9q0-7.645,0-15.289a3.475,3.475,0,0,0-3.822-3.836q-13.922,0-27.844,0A3.494,3.494,0,0,0,1.992,25.42q0,7.678,0,15.355a3.453,3.453,0,0,0,3.775,3.809c2.3,0,4.607,0,6.911,0a3.522,3.522,0,0,1,3.259,2.465,1.162,1.162,0,0,1-.334,1.019,1.861,1.861,0,0,1-1.149.036c-.151-.022-.3-.255-.394-.424a2.1,2.1,0,0,0-2.223-1.13c-2.034.087-4.075.036-6.113.023A5.431,5.431,0,0,1,0,40.8Q0,33.091,0,25.38a5.458,5.458,0,0,1,5.786-5.789q4.652-.006,9.3,0h.866c0-1.228,0-2.395,0-3.562,0-.443-.013-.887,0-1.329a1.032,1.032,0,0,1,1-1.1,1,1,0,0,1,.979,1.108c.012,1.4,0,2.792,0,4.188v.644H32V17.153c-.195,0-.365,0-.535,0-1.225-.011-1.645-.422-1.653-1.631q-.009-1.429,0-2.858c.006-1.239.4-1.633,1.621-1.65.174,0,.347,0,.45,0A21.852,21.852,0,0,1,32.573,8.2a7.419,7.419,0,0,1,7.989-4.651,1.193,1.193,0,0,1,1.122,1.265q.046,1.76,0,3.523a1.279,1.279,0,0,1-1.343,1.343c-.309.017-.621-.006-.93.011-.758.04-1.111.413-1.182,1.323.26,0,.513,0,.766,0A1.246,1.246,0,0,1,40.4,12.4q.018,1.662,0,3.324a1.275,1.275,0,0,1-1.439,1.428c-.238,0-.476,0-.778,0,0,1.437,0,2.806.006,4.175a.646.646,0,0,0,.143.358,5.873,5.873,0,0,1,1.143,4.064,4.61,4.61,0,0,0,.125,1.414c.248-.325.511-.64.74-.978a2.609,2.609,0,0,1,2.37-1.193c2.348.028,4.7.013,7.044.008a3.423,3.423,0,0,0,3.683-3.693q.008-7.811,0-15.621a3.418,3.418,0,0,0-3.684-3.692q-14.055-.006-28.11,0a3.452,3.452,0,0,0-3.695,3.7c-.005,1.307,0,2.615,0,3.922,0,.763-.339,1.17-.949,1.19-.634.02-1.028-.415-1.034-1.187-.011-1.374-.02-2.748,0-4.121A5.423,5.423,0,0,1,21.508.006c4.94-.013,9.88,0,14.819,0q6.679,0,13.357,0a5.411,5.411,0,0,1,5.742,5.746q.007,7.744,0,15.488a5.413,5.413,0,0,1-5.734,5.754c-2.282,0-4.563.013-6.845-.01a1.057,1.057,0,0,0-1,.494A7.97,7.97,0,0,1,40.77,28.9c-1.444,1.334-1.467,3.007-1.216,4.854H57.369c3.145,0,5.03,1.488,5.79,4.563a1.817,1.817,0,0,0,.1.24v1.728c-.335.432-.7.833-1.32.618-.648-.225-.688-.773-.688-1.36a3.442,3.442,0,0,0-3.779-3.8q-8.638-.006-17.277,0c-.216,0-.432.018-.669.028v3.162h.771c2.3,0,4.607-.011,6.911,0a4.512,4.512,0,0,1,4.7,4.494c.074,2.612.078,5.23,0,7.842A4.478,4.478,0,0,1,47.3,55.728c-2.613.037-5.228.039-7.84-.012a4.323,4.323,0,0,1-4.246-3.693,43.077,43.077,0,0,1-.133-4.707c-.005-.255,0-.511,0-.737-2.779,0-5.458,0-8.137,0-.859,0-1.183.327-1.184,1.2q0,3.623,0,7.245a3.452,3.452,0,0,0,3.728,3.728c2.37.006,4.74.017,7.11-.006a2.541,2.541,0,0,1,2.21,1.1c1.427,1.919,2.878,3.821,4.321,5.728.114.151.241.292.388.47,1.584-2.1,3.139-4.142,4.673-6.2a2.541,2.541,0,0,1,2.211-1.1c2.348.025,4.7.011,7.044.007a3.494,3.494,0,0,0,3.8-3.8q0-4.885,0-9.771c0-.561.035-1.091.659-1.306.652-.224,1.04.151,1.347.662V55.974c-.026.035-.066.066-.076.105-.791,3.2-2.666,4.664-5.981,4.664-2.212,0-4.424-.016-6.635.019a1.259,1.259,0,0,0-.86.429c-1.439,1.85-2.817,3.748-4.265,5.59a10.555,10.555,0,0,1-1.455,1.291ZM39.492,40.918A5.589,5.589,0,0,1,37.3,45.51a.9.9,0,0,0-.22.632q-.027,2.458-.007,4.917a2.561,2.561,0,0,0,2.673,2.683q3.753.026,7.507,0a2.531,2.531,0,0,0,2.663-2.556q.068-3.853,0-7.708a2.543,2.543,0,0,0-2.665-2.557c-.642-.014-1.284,0-1.926,0H39.492M38.376,12.991a2.873,2.873,0,0,1-1.008-.023c-.4-.166-.968-.429-1.045-.751-.44-1.837.127-3.928,2.487-4.477a6.767,6.767,0,0,1,.863-.088V5.587a.864.864,0,0,0-.213-.074,5.369,5.369,0,0,0-5.3,4.254,13.683,13.683,0,0,0-.136,1.915,1.2,1.2,0,0,1-1.265,1.312c-.3.017-.6,0-.92,0v2.137c.2.012.349.027.5.029,1.37.019,1.68.329,1.681,1.687,0,.9,0,1.8,0,2.674l2.121.4a4.14,4.14,0,0,0,.051-.454c.005-.974-.009-1.949.007-2.923.017-.958.444-1.371,1.387-1.386.258,0,.515,0,.79,0Z" transform="translate(0 0.001)" fill="#fff"/>
        <path id="Trazado_217754" data-name="Trazado 217754" d="M55.214,192.965c-.085-.155-.167-.286-.232-.426a1.15,1.15,0,0,1,1.06-1.761,3.242,3.242,0,0,0,2.669-1.095,5.547,5.547,0,0,1,9.035,2.171c.068.185.136.37.224.612a7.258,7.258,0,0,0,4.161-2.768c.4-.538.751-1.143,1.553-1.049.821.1,1.074.768,1.33,1.413a9.369,9.369,0,0,1-.392,8.083l-.37.719c.492-.109.873-.162,1.233-.28a1.345,1.345,0,0,1,1.628.352,1.365,1.365,0,0,1-.042,1.721,9.526,9.526,0,0,1-17.1-1.322,4.375,4.375,0,0,0-.729-.955c-.614-.742-1.228-1.484-1.86-2.211a2.259,2.259,0,0,0-.614-.5c-.367-.2-.783-.309-1.141-.519-.967-.568-1.088-1.2-.414-2.185m18.1-1.73a3.507,3.507,0,0,1-.325.525,9.5,9.5,0,0,1-5.242,2.787c-1.087.2-1.518-.109-1.668-1.206a3.662,3.662,0,0,0-2.739-3.084,3.564,3.564,0,0,0-3.841,1.483c-.415.651-.858,1.121-1.682,1.011v1.029a1.382,1.382,0,0,1,1.22,1.131,3.183,3.183,0,0,0,1.577,1.971,2.315,2.315,0,0,1,1.135,1.457A7.51,7.51,0,0,0,73.9,201.473c.18-.164.34-.349.592-.611-.7,0-1.228,0-1.759,0a1.263,1.263,0,0,1-1.316-.7,1.229,1.229,0,0,1,.383-1.433,7.2,7.2,0,0,0,1.664-2.987,7.281,7.281,0,0,0-.147-4.506" transform="translate(-47.493 -163.094)" fill="#fff"/>
        <path id="Trazado_217755" data-name="Trazado 217755" d="M302.157,334.835a3.738,3.738,0,1,1,3.781-3.724,3.75,3.75,0,0,1-3.781,3.724m.062-5.482a1.745,1.745,0,1,0,1.727,1.744,1.755,1.755,0,0,0-1.727-1.744" transform="translate(-258.687 -283.764)" fill="#fff"/>
        <path id="Trazado_217756" data-name="Trazado 217756" d="M349.385,316.439a1.12,1.12,0,0,1,1.149,1.107,1.117,1.117,0,1,1-2.234,0,1.112,1.112,0,0,1,1.085-1.1" transform="translate(-301.915 -274.296)" fill="#fff"/>
        <path id="Trazado_217757" data-name="Trazado 217757" d="M101.131,220.386a1.1,1.1,0,0,1-1.118,1.077,1.1,1.1,0,1,1,1.118-1.077" transform="translate(-85.729 -190.061)" fill="#fff"/>
      </g>
    </g>
  </g>
</svg>
