<svg xmlns="http://www.w3.org/2000/svg" xmlns:xlink="http://www.w3.org/1999/xlink" width="116.27" height="122.461" viewBox="0 0 116.27 122.461">
  <defs>
    <clipPath id="clip-path">
      <rect id="Rectángulo_56912" data-name="Rectángulo 56912" width="116.27" height="122.461" fill="none"/>
    </clipPath>
    <linearGradient id="linear-gradient" x1="0.5" x2="0.5" y2="1" gradientUnits="objectBoundingBox">
      <stop offset="0" stop-color="#f5f5f5"/>
      <stop offset="0.25" stop-color="#f5f5f5"/>
      <stop offset="1" stop-color="#a7b3cf"/>
    </linearGradient>
    <linearGradient id="linear-gradient-3" x1="0.5" x2="0.5" y2="1" gradientUnits="objectBoundingBox">
      <stop offset="0" stop-color="#278d7e"/>
      <stop offset="1" stop-color="#4fc1b1"/>
    </linearGradient>
    <linearGradient id="linear-gradient-4" x1="0.5" x2="0.5" y2="1" gradientUnits="objectBoundingBox">
      <stop offset="0" stop-color="#477fb5"/>
      <stop offset="1" stop-color="#2b3990"/>
    </linearGradient>
    <linearGradient id="linear-gradient-5" x1="0.5" x2="0.5" y2="1" gradientUnits="objectBoundingBox">
      <stop offset="0" stop-color="#fdbe41"/>
      <stop offset="1" stop-color="#d09f40"/>
    </linearGradient>
  </defs>
  <g id="Grupo_179454" data-name="Grupo 179454" transform="translate(-553.73 -3891.307)">
    <g id="Grupo_176617" data-name="Grupo 176617" transform="translate(553.73 3891.307)">
      <g id="Grupo_176616" data-name="Grupo 176616" clip-path="url(#clip-path)">
        <path id="Trazado_219666" data-name="Trazado 219666" d="M93.323,249.238a13.516,13.516,0,0,1,1.079.91,4.685,4.685,0,0,1,.044,6.835q-4.523,4.623-9.148,9.145a4.649,4.649,0,0,1-6.828-.065c-2.2-2.149-4.357-4.344-6.7-6.69a18.3,18.3,0,0,1,.66,2.25,6.58,6.58,0,0,1-3.76,6.633,5.669,5.669,0,0,1-6.755-1.3q-5.2-5.169-10.368-10.364c-2.466-2.469-2.895-5.293-1.18-7.742,2.142-3.058,5.075-3.859,8.485-2.242.168-.3.36-.6.51-.916q9.219-19.532,18.447-39.059a1.254,1.254,0,0,0-.311-1.682c-2.56-2.622-2.421-5.907.3-8.588,2.582-2.546,6.041-2.62,8.546-.119q17.784,17.757,35.54,35.541c2.648,2.652,2.617,5.919-.02,8.606-2.727,2.778-5.92,2.879-8.686.251-.411-.39-.706-.659-1.355-.349-6.034,2.881-12.089,5.719-18.136,8.573-.067.032-.111.112-.356.368m-24.545,7.206L109.4,237.281,80.944,208.832c-.126.248-.317.6-.488.965q-2.7,5.733-5.4,11.468-6.406,13.58-12.815,27.16c-.238.505-.576.924.026,1.507,2.181,2.112,4.3,4.288,6.515,6.512m51.305-20.625a6.451,6.451,0,0,0-.847-1.326Q101.5,216.713,83.728,198.97c-1.132-1.131-2.123-1.082-3.287.071-1.255,1.244-1.333,2.216-.179,3.372q17.747,17.769,35.506,35.526a1.913,1.913,0,0,0,2.316.63,3.249,3.249,0,0,0,2-2.75M75.268,257.553c1.945,1.94,3.771,3.709,5.533,5.538.817.848,1.447.819,2.258-.014,2.378-2.441,4.813-4.827,7.217-7.242,2.455-2.465,2.527-1.95-.09-4.576-.029-.029-.055-.078-.088-.084-.318-.059-.7-.255-.947-.143-4.575,2.122-9.133,4.28-13.883,6.52M55.475,249.2a15.427,15.427,0,0,0-2.13,2.1,1.7,1.7,0,0,0,.443,2.222c3.629,3.622,7.243,7.26,10.887,10.867,1.028,1.017,2,.927,3.1-.166,1.208-1.2,1.329-2.121.285-3.177q-5.409-5.468-10.882-10.872a8.77,8.77,0,0,0-1.7-.977" transform="translate(-37.146 -146.403)"/>
        <path id="Trazado_219667" data-name="Trazado 219667" d="M226.2,45.838c0-3.62-.029-6.985.019-10.35a1.759,1.759,0,0,0-1.1-1.9,20.859,20.859,0,0,1-7.236-5.812,14,14,0,0,1,.152-18.228A25.009,25.009,0,0,1,231.7,1.3c9.052-2.308,17.856-1.659,26.125,2.909a23.937,23.937,0,0,1,5.693,4.436c5.841,6.162,5.713,14.3-.188,20.4-4.3,4.454-9.729,6.762-15.728,7.759a50.116,50.116,0,0,1-7.228.535,5.752,5.752,0,0,0-3.512,1.1c-3.117,2.27-6.313,4.432-9.48,6.633-.324.225-.664.429-1.189.768m3.747-7.143c2.339-1.627,4.41-3.106,6.528-4.512a3.63,3.63,0,0,1,1.688-.529c2.945-.21,5.929-.124,8.834-.572,5.428-.836,10.381-2.857,14.118-7.107,3.918-4.456,3.892-10.054.014-14.54a18.851,18.851,0,0,0-6.846-4.922,32.529,32.529,0,0,0-22.638-1.319,20.358,20.358,0,0,0-10.859,6.857,10.306,10.306,0,0,0,.05,13.385,19.38,19.38,0,0,0,8.117,5.819,1.373,1.373,0,0,1,1.016,1.541c-.069,1.873-.022,3.75-.022,5.9" transform="translate(-161.588 0)"/>
        <path id="Trazado_219668" data-name="Trazado 219668" d="M0,16.1c.02-1.4.818-1.9,1.917-2.17Q10.928,11.681,19.93,9.4,24.163,8.337,28.4,7.266c1.96-.493,2.739-.041,3.225,1.888q2,7.93,3.988,15.864c.466,1.857.035,2.6-1.786,3.062q-13.3,3.349-26.6,6.684c-1.8.452-2.555-.024-3.015-1.856Q2.215,24.976.219,17.044C.129,16.688.053,16.328,0,16.1m4.489,2.513L7.567,30.792l24.091-6.068L28.615,12.643c-.423.509-.665.83-.937,1.123-2.514,2.71-5.08,5.373-7.532,8.138a2.9,2.9,0,0,1-3.667.935c-3.87-1.464-7.8-2.765-11.99-4.23M9.17,16l-.038.232c2.581.91,5.158,1.831,7.748,2.714a1.025,1.025,0,0,0,.876-.1c1.99-2.077,3.942-4.191,6.149-6.557L9.17,16" transform="translate(0 -5.333)"/>
        <path id="Trazado_219669" data-name="Trazado 219669" d="M33.693,178.008a8.809,8.809,0,0,1-1.113-5.942,8.264,8.264,0,1,1,15.968,4.115,8.17,8.17,0,0,1-11.063,4.949,1.463,1.463,0,0,0-2.067.372c-.8.932-1.719,1.761-2.594,2.627-1.138,1.125-2.257,1.26-3.1.384s-.708-1.908.479-3.088c1.133-1.127,2.284-2.237,3.493-3.418m2.532-4.357a4.483,4.483,0,0,0,8.964-.127,4.482,4.482,0,1,0-8.964.127" transform="translate(-21.972 -124.495)"/>
        <path id="Trazado_219670" data-name="Trazado 219670" d="M149.628,126.493a2.1,2.1,0,0,1-2.182-1.871c-.875-4.592-1.779-9.179-2.673-13.767a7.744,7.744,0,0,1-.365-2.047,2.914,2.914,0,0,1,.774-1.89,2.141,2.141,0,0,1,1.906-.138c3.868,1.977,7.694,4.04,11.5,6.129a1.767,1.767,0,0,1,.547,2.83q-4.125,5.053-8.355,10.02a4.138,4.138,0,0,1-1.157.734m5.158-11.371-5.966-3.2,1.633,8.4,4.332-5.2" transform="translate(-108.741 -80.29)"/>
        <path id="Trazado_219671" data-name="Trazado 219671" d="M408.5,291.79c-2.913.874-5.524,2.057-5.676,5.515-.095,2.143,2.833,5.226,5.128,5.747,2.122.481,4.171-.767,5.823-3.6l-2.65-2.46-1.838,2.4-1.779-1.848,4.547-4.361c1.552,1.556,3.315,3.3,5.038,5.089a.978.978,0,0,1,.038.864,13.075,13.075,0,0,1-5.737,6.384,6.839,6.839,0,0,1-6.729-.091c-3.655-1.958-5.734-5.813-4.822-9.243.916-3.445,3.3-5.563,6.617-6.723.865-.3,1.3-.048,1.5.816a14.569,14.569,0,0,0,.536,1.51" transform="translate(-300.94 -217.889)"/>
        <path id="Trazado_219672" data-name="Trazado 219672" d="M408.273,173.055l-1,1.921a8.875,8.875,0,0,0-2.505-.39c-.459.06-.831.788-1.344,1.323l2.192,1.3-1.138,2.187-2.127-1.039-4.111,7.868-3.006-1.551,4.051-7.88-1.857-1.041,1.14-2.22,1.8.872c2.847-3.767,5.7-4.239,7.906-1.347" transform="translate(-297.63 -128.911)"/>
        <path id="Trazado_219673" data-name="Trazado 219673" d="M264.911,200.467l-3.48-1.444,5.419-13.075,3.474,1.434-5.413,13.085" transform="translate(-196.871 -140.028)" fill="#7f4fc7"/>
        <path id="Trazado_219674" data-name="Trazado 219674" d="M313.6,247.835l1.446,3.475-13.078,5.425-1.448-3.472,13.08-5.428" transform="translate(-226.31 -186.632)" fill="#7f4fc7"/>
        <path id="Trazado_219675" data-name="Trazado 219675" d="M301.262,216.127l2.464,2.286-6.213,6.2-2.345-2.431,6.094-6.056" transform="translate(-222.276 -162.755)" fill="#7f4fc7"/>
        <path id="Trazado_219676" data-name="Trazado 219676" d="M107.2,300.412c-2.214-2.224-4.333-4.4-6.515-6.512-.6-.582-.264-1-.025-1.507q6.408-13.579,12.815-27.16,2.7-5.733,5.4-11.468c.171-.363.362-.717.488-.965l28.454,28.449L107.2,300.412m8.637-34.592L108.378,282.3l3.429,1.552,7.456-16.484-3.428-1.551" transform="translate(-75.566 -190.372)" fill="url(#linear-gradient)"/>
        <path id="Trazado_219677" data-name="Trazado 219677" d="M211.931,247.208a3.25,3.25,0,0,1-2,2.75,1.913,1.913,0,0,1-2.316-.63q-17.748-17.767-35.505-35.526c-1.154-1.155-1.075-2.128.179-3.372,1.164-1.154,2.154-1.2,3.287-.071q17.768,17.747,35.509,35.522a6.464,6.464,0,0,1,.847,1.326" transform="translate(-128.992 -157.792)" fill="#7f4fc7"/>
        <path id="Trazado_219679" data-name="Trazado 219679" d="M66.945,416.248a8.769,8.769,0,0,1,1.7.977q5.472,5.4,10.882,10.872c1.045,1.056.923,1.976-.285,3.177-1.1,1.093-2.071,1.183-3.1.166-3.644-3.607-7.258-7.244-10.887-10.867a1.7,1.7,0,0,1-.443-2.222,15.424,15.424,0,0,1,2.13-2.1" transform="translate(-48.616 -313.456)" fill="#eeac3a"/>
        <path id="Trazado_219680" data-name="Trazado 219680" d="M241.413,50.192c0-2.149-.047-4.027.022-5.9a1.373,1.373,0,0,0-1.016-1.542,19.376,19.376,0,0,1-8.116-5.819,10.306,10.306,0,0,1-.051-13.385,20.358,20.358,0,0,1,10.859-6.857,32.528,32.528,0,0,1,22.638,1.319,18.849,18.849,0,0,1,6.846,4.922c3.878,4.486,3.9,10.084-.014,14.54-3.737,4.251-8.689,6.271-14.118,7.107-2.9.448-5.889.362-8.834.572a3.63,3.63,0,0,0-1.688.529c-2.119,1.405-4.189,2.884-6.528,4.512m-.285-23.143h23.1V23.4h-23.1ZM264.242,33.4H241.154v3.57h23.088Z" transform="translate(-173.058 -11.497)" fill="url(#linear-gradient)"/>
        <path id="Trazado_219681" data-name="Trazado 219681" d="M18.177,35.566c4.189,1.465,8.12,2.767,11.989,4.231a2.9,2.9,0,0,0,3.667-.935c2.452-2.765,5.017-5.429,7.532-8.138.272-.294.515-.615.938-1.124l3.043,12.081L21.255,47.749,18.177,35.566" transform="translate(-13.688 -22.29)" fill="url(#linear-gradient-3)"/>
        <path id="Trazado_219682" data-name="Trazado 219682" d="M37.02,31.876l14.736-3.711c-2.206,2.366-4.158,4.48-6.149,6.557a1.025,1.025,0,0,1-.876.1c-2.59-.883-5.167-1.8-7.748-2.714l.038-.232" transform="translate(-27.849 -21.21)" fill="url(#linear-gradient-4)"/>
        <path id="Trazado_219683" data-name="Trazado 219683" d="M57.717,185.142a4.482,4.482,0,1,1,8.964-.127,4.483,4.483,0,0,1-8.964.127" transform="translate(-43.464 -135.987)" fill="#ece5f7"/>
        <path id="Trazado_219684" data-name="Trazado 219684" d="M168.263,131.287l-4.332,5.2-1.633-8.4,5.966,3.2" transform="translate(-122.218 -96.455)" fill="url(#linear-gradient-5)"/>
        <path id="Trazado_219685" data-name="Trazado 219685" d="M140.329,305.52l3.428,1.551L136.3,323.555,132.873,322l7.456-16.484" transform="translate(-100.06 -230.072)"/>
        <rect id="Rectángulo_56910" data-name="Rectángulo 56910" width="23.102" height="3.644" transform="translate(68.071 11.908)"/>
        <rect id="Rectángulo_56911" data-name="Rectángulo 56911" width="23.088" height="3.57" transform="translate(68.097 21.906)"/>
      </g>
    </g>
  </g>
</svg>
