<svg xmlns="http://www.w3.org/2000/svg" xmlns:xlink="http://www.w3.org/1999/xlink" width="126" height="126" viewBox="0 0 126 126">
  <defs>
    <filter id="Elipse_6215" x="0" y="0" width="126" height="126" filterUnits="userSpaceOnUse">
      <feOffset dy="3" input="SourceAlpha"/>
      <feGaussianBlur stdDeviation="3" result="blur"/>
      <feFlood flood-opacity="0.161"/>
      <feComposite operator="in" in2="blur"/>
      <feComposite in="SourceGraphic"/>
    </filter>
    <clipPath id="clip-path">
      <rect id="Rectángulo_56907" data-name="Rectángulo 56907" width="64.146" height="64.157" fill="#1a76b7"/>
    </clipPath>
  </defs>
  <g id="Grupo_179457" data-name="Grupo 179457" transform="translate(-802 -4245.475)">
    <g transform="matrix(1, 0, 0, 1, 802, 4245.48)" filter="url(#Elipse_6215)">
      <circle id="Elipse_6215-2" data-name="Elipse 6215" cx="54" cy="54" r="54" transform="translate(9 6)" fill="#fff"/>
    </g>
    <g id="Grupo_179360" data-name="Grupo 179360" transform="translate(833.938 4271.827)">
      <g id="Grupo_176611" data-name="Grupo 176611" clip-path="url(#clip-path)">
        <path id="Trazado_219662" data-name="Trazado 219662" d="M17.459,0c.325.1.655.183.976.292a6.111,6.111,0,0,1,3.77,3.4.654.654,0,0,0,.717.455c1.616-.018,3.232-.014,4.848-.006a5.172,5.172,0,0,1,5.335,5.351c.009,2.134,0,4.267,0,6.4v.677h6.548A6.257,6.257,0,0,1,43.7,12.7a6.146,6.146,0,0,1,7.438,3.344.737.737,0,0,0,.8.529c1.616-.03,3.232-.02,4.848-.01a5.161,5.161,0,0,1,5.281,5.273q.022,6.11,0,12.22a5.1,5.1,0,0,1-5.287,5.243,4.865,4.865,0,0,0-3.091.973c-1.821,1.3-3.714,2.5-5.578,3.744-.138.092-.284.171-.5.3V39.387a3.818,3.818,0,0,0-.469-.063c-1.853,0-3.707.008-5.56-.011-.392,0-.53.11-.641.505C39.132,46.3,34.942,50.28,28.308,51.52a14.663,14.663,0,0,1-10.2-1.884c-.221-.126-.439-.26-.636-.377l-1.431,1.509.916.965c-.171.183-.323.357-.486.52-2.7,2.7-5.461,5.332-8.072,8.11A4.753,4.753,0,0,1,.083,58.3c-.006-.034-.055-.061-.083-.092V56.654a7.008,7.008,0,0,1,2.193-3.415c2.57-2.519,5.1-5.082,7.642-7.626.163-.163.336-.316.517-.485l1.014.963,1.458-1.481a15.382,15.382,0,0,1-2.47-8.913,15.664,15.664,0,0,1,3.1-8.794c-2.859,0-5.573.013-8.287,0A5.152,5.152,0,0,1,.311,23.48C.2,23.16.1,22.831,0,22.507V8.537a.7.7,0,0,0,.094-.164A5.165,5.165,0,0,1,5.482,4.14c1.593,0,3.185-.009,4.777.006a.619.619,0,0,0,.624-.4,12.221,12.221,0,0,1,1.3-1.906A6.622,6.622,0,0,1,15.648,0ZM39.314,36.193A13.449,13.449,0,1,0,25.888,49.669,13.474,13.474,0,0,0,39.314,36.193m10.373,1.058v3.224c.935-.625,1.833-1.138,2.631-1.777a6.273,6.273,0,0,1,4.619-1.486A2.945,2.945,0,0,0,60,34.207q.035-6.269,0-12.539A2.934,2.934,0,0,0,57.38,18.69c-1.859-.128-3.734-.031-5.632-.031A6.388,6.388,0,0,1,49.356,23.5a10.587,10.587,0,0,1,5.276,4.727,12.181,12.181,0,0,1,1.187,6.987H41.394v2.036ZM18.036,22.729H6.25c-.438-5.337,1.5-9.318,6.45-11.672A6.359,6.359,0,0,1,10.32,6.21c-1.747,0-3.446-.015-5.144,0a3.073,3.073,0,0,0-3.1,3.135q-.021,6.174,0,12.348a3.068,3.068,0,0,0,3.1,3.132c3.253.019,6.507.008,9.76,0a.963.963,0,0,0,.541-.128c.823-.612,1.626-1.25,2.556-1.973m11-1.742a5.485,5.485,0,0,1,1.752-3.178.9.9,0,0,0,.241-.608c.016-2.629.022-5.257,0-7.886A2.954,2.954,0,0,0,28.41,6.273c-1.859-.13-3.734-.031-5.631-.031a6.378,6.378,0,0,1-2.364,4.823,10.565,10.565,0,0,1,6.521,9.673l2.1.249M10.32,48.128c-2.547,2.53-5.108,5.049-7.633,7.6a2.29,2.29,0,0,0-.549,2.227,2.517,2.517,0,0,0,1.8,1.935,2.513,2.513,0,0,0,2.66-.7q3.569-3.554,7.123-7.121c.1-.1.188-.219.256-.3L10.32,48.128M20.689,6.3a4.136,4.136,0,1,0-4.245,4.044A4.148,4.148,0,0,0,20.689,6.3M49.658,18.6a4.136,4.136,0,1,0-4.124,4.167A4.149,4.149,0,0,0,49.658,18.6M37.739,26.053l3.8-2.677a6.3,6.3,0,0,1-2.255-4.736c-1.854,0-3.661-.051-5.464.017A3.02,3.02,0,0,0,31.135,21c-.118.442-.02.624.4.821a19.626,19.626,0,0,1,3.01,1.6c1.153.808,2.183,1.792,3.191,2.637M14.153,12.828c-3.374.872-6.16,4.671-5.815,7.816h5.2l.618-7.816m4.8.026.618,7.8H24.8c.1-3.462-2.681-7.194-5.846-7.8m28.966,12.4.627,7.857h5.2a8.144,8.144,0,0,0-5.83-7.857m-4.8-.031A7.842,7.842,0,0,0,39.2,27.832a.625.625,0,0,0,.016.5q.874,2.211,1.787,4.407a.647.647,0,0,0,.4.356,7.526,7.526,0,0,0,1.1.017l.624-7.887m3.343,7.854c-.206-2.613-.4-5.166-.621-7.717-.016-.182-.2-.349-.308-.522-.118.187-.321.365-.339.561-.154,1.628-.277,3.26-.4,4.891-.072.916-.135,1.833-.2,2.787Zm-28.973-12.4c-.057-.745-.107-1.428-.161-2.111-.149-1.888-.295-3.777-.458-5.664a.963.963,0,0,0-.233-.463.312.312,0,0,0-.286.043,1.265,1.265,0,0,0-.132.483q-.295,3.637-.574,7.274a3.16,3.16,0,0,0,.027.438ZM13.045,47.521l1.44,1.534,1.192-1.033-1.56-1.593-1.072,1.092" fill="#1a76b7"/>
        <path id="Trazado_219663" data-name="Trazado 219663" d="M315.808,370.02q-4.492,0-8.984,0a3.128,3.128,0,0,1-3.4-3.425q0-5.915,0-11.83a3.118,3.118,0,0,1,3.392-3.37q9.016,0,18.033,0a3.123,3.123,0,0,1,3.4,3.423q0,5.915,0,11.83a3.123,3.123,0,0,1-3.392,3.371q-4.525,0-9.049,0m.026-2.07q4.493,0,8.987,0c1.013,0,1.358-.345,1.359-1.358q0-5.885,0-11.77c0-1.014-.344-1.357-1.357-1.358q-8.987,0-17.975,0c-1.015,0-1.357.343-1.358,1.357q0,5.885,0,11.77c0,1.014.344,1.358,1.357,1.359q4.494,0,8.988,0" transform="translate(-264.105 -305.864)" fill="#1a76b7"/>
        <path id="Trazado_219664" data-name="Trazado 219664" d="M111.793,203.024a11.38,11.38,0,1,1,11.362,11.416,11.4,11.4,0,0,1-11.362-11.416m11.4-9.278a9.312,9.312,0,1,0,9.29,9.365,9.328,9.328,0,0,0-9.29-9.365" transform="translate(-97.308 -166.841)" fill="#1a76b7"/>
        <rect id="Rectángulo_56903" data-name="Rectángulo 56903" width="2" height="1.989" transform="translate(55.908 20.73)" fill="#1a76b7"/>
        <rect id="Rectángulo_56904" data-name="Rectángulo 56904" width="1.966" height="2.012" transform="translate(55.917 24.878)" fill="#1a76b7"/>
        <rect id="Rectángulo_56905" data-name="Rectángulo 56905" width="1.989" height="1.991" transform="translate(4.189 8.323)" fill="#1a76b7"/>
        <rect id="Rectángulo_56906" data-name="Rectángulo 56906" width="1.982" height="1.994" transform="translate(4.176 12.45)" fill="#1a76b7"/>
        <path id="Trazado_219665" data-name="Trazado 219665" d="M352.179,393.914H335.7V383.63H337.7v8.2h2.077v-1.973h2.078v1.982h2.055v-4.061h2.078v4.046h2.077V385.7h2.054v6.161h2.064Z" transform="translate(-292.207 -333.923)" fill="#1a76b7"/>
      </g>
    </g>
  </g>
</svg>
