<svg xmlns="http://www.w3.org/2000/svg" xmlns:xlink="http://www.w3.org/1999/xlink" width="433.742" height="233.075" viewBox="0 0 433.742 233.075">
  <defs>
    <filter id="Trazado_228306" x="0" y="0" width="433.742" height="233.075" filterUnits="userSpaceOnUse">
      <feOffset dy="3" input="SourceAlpha"/>
      <feGaussianBlur stdDeviation="5" result="blur"/>
      <feFlood flood-opacity="0.161"/>
      <feComposite operator="in" in2="blur"/>
      <feComposite in="SourceGraphic"/>
    </filter>
    <clipPath id="clip-path">
      <rect id="Rectángulo_56247" data-name="Rectángulo 56247" width="105.814" height="90.467" fill="#12263f"/>
    </clipPath>
  </defs>
  <g id="Grupo_179426" data-name="Grupo 179426" transform="translate(-584.212 -4194.489)">
    <g transform="matrix(1, 0, 0, 1, 584.21, 4194.49)" filter="url(#Trazado_228306)">
      <path id="Trazado_228306-2" data-name="Trazado 228306" d="M0,0H341.742a62,62,0,0,1,62,62V203.075H62a62,62,0,0,1-62-62Z" transform="translate(15 12)" fill="#f6f6f6"/>
    </g>
    <path id="Trazado_228307" data-name="Trazado 228307" d="M47.66,2.051q-42,0-42-58.98,0-30.6,11.361-46.635T49.957-119.6q41.016,0,41.016,59.965,0,29.859-11.2,45.773T47.66,2.051ZM48.809-99.832q-16.816,0-16.816,42.246Q31.992-17.8,48.48-17.8q16.078,0,16.078-41.016T48.809-99.832Zm83.016,78.34H181.7V0H103.441V-8.859a41.236,41.236,0,0,1,3.035-16.2,53.763,53.763,0,0,1,7.629-12.879,66.174,66.174,0,0,1,10.049-10.09q5.455-4.389,10.377-7.916Q139.7-59.637,143.6-63a51.652,51.652,0,0,0,6.563-6.686,25.417,25.417,0,0,0,3.979-6.727,20,20,0,0,0,1.313-7.26q0-7.547-4.266-11.4T138.141-98.93q-15.176,0-29.039,12.059v-22.8a62.336,62.336,0,0,1,34.617-9.926,51.125,51.125,0,0,1,16.037,2.338,33.929,33.929,0,0,1,12.018,6.686,28.514,28.514,0,0,1,7.506,10.541,35.574,35.574,0,0,1,2.584,13.822,38.974,38.974,0,0,1-2.5,14.438,44.363,44.363,0,0,1-6.645,11.484,60.272,60.272,0,0,1-9.557,9.475q-5.414,4.307-11.238,8.326-3.937,2.789-7.588,5.537a71.936,71.936,0,0,0-6.439,5.414,29.39,29.39,0,0,0-4.43,5.209A8.992,8.992,0,0,0,131.824-21.492Z" transform="translate(800.878 4390.076)" fill="#e2e5e8"/>
    <g id="Grupo_157315" data-name="Grupo 157315" transform="translate(418.878 2014.076)">
      <text id="Objetivos" transform="translate(225.257 2324.299)" fill="#12263f" font-size="16" font-family="SegoeUI, Segoe UI"><tspan x="0" y="17">Objetivos</tspan></text>
    </g>
    <g id="Grupo_175601" data-name="Grupo 175601" transform="translate(636.357 4228.8)">
      <g id="Grupo_175600" data-name="Grupo 175600" clip-path="url(#clip-path)">
        <path id="Trazado_217788" data-name="Trazado 217788" d="M0,2.894C.768.742,2.335-.006,4.56,0,20.331.042,36.1.024,51.872.028,54.855.029,56.22,1.4,56.22,4.38q0,13.946,0,27.892v1.186A28.757,28.757,0,0,1,88.327,60.248a2.162,2.162,0,0,0,2.463-.758c.872-1.146,1.949-2.134,2.884-3.236a3.28,3.28,0,0,1,2.713-1.217c2.031.026,4.065.059,6.094-.009a3.05,3.05,0,0,1,3.332,2.014v1.24c-.545.985-1.14,1.948-1.608,2.968a1.728,1.728,0,0,0,.017,1.281c.466,1.024,1.052,1.993,1.59,2.984v1.24a3.117,3.117,0,0,1-3.383,1.958c-1.959-.089-3.926-.064-5.889-.015a3.473,3.473,0,0,1-2.981-1.314c-.855-1.035-1.851-1.955-2.67-3.015a2.167,2.167,0,0,0-2.571-.825,29.841,29.841,0,0,1-1.92,8.688,28.59,28.59,0,0,1-42.38,13.493,3.883,3.883,0,0,0-2.292-.709c-6.441.028-12.882.016-19.323.013a7.543,7.543,0,0,1-1.235-.061,1.355,1.355,0,0,1-1.188-1.359,1.381,1.381,0,0,1,1.061-1.562,4.68,4.68,0,0,1,1.228-.109q7.8-.01,15.6,0h1.477a29.889,29.889,0,0,1-6.759-11.059H24.826a9.164,9.164,0,0,1-.929-.013,1.6,1.6,0,0,1-1.517-1.541,1.513,1.513,0,0,1,1.6-1.532c2.17-.032,4.34-.017,6.51-.02h1.119c-.193-2.195-.376-4.272-.568-6.457h-4.43c-.861,0-1.724.035-2.583-.009a1.585,1.585,0,0,1-1.649-1.614,1.523,1.523,0,0,1,1.673-1.454c2.407-.028,4.815-.009,7.2-.009l1.6-6.454c-.381-.018-.742-.05-1.1-.05-2.48,0-4.96.007-7.44,0-1.228,0-1.932-.574-1.932-1.52s.718-1.568,1.915-1.575c3.065-.018,6.131-.027,9.2.009a1.4,1.4,0,0,0,1.38-.779c1.217-1.9,2.529-3.736,3.861-5.68H37.674c-4.478,0-8.955-.012-13.433,0a1.616,1.616,0,0,1-1.807-1.2c-.282-1.01.49-1.893,1.707-1.9,2.445-.023,4.891-.006,7.336-.006,3.41,0,6.82.006,10.23-.016a2.115,2.115,0,0,0,1.163-.271,29.6,29.6,0,0,1,10.189-4.724v-20.3q-1.467,0-2.936,0c-1.136,0-2.273.022-3.41,0-1.275-.02-2.017-.666-2.025-1.717-.007-.861.806-1.5,1.994-1.5,2.063-.015,4.126,0,6.364,0,0-.782,0-1.456,0-2.129,0-1.343-.038-2.689.024-4.029.043-.929-.357-1.2-1.218-1.2-9.644.017-19.288.007-28.931.019-5.992.008-11.984.039-17.976.064C3.2,3.276,3.182,3.3,3.18,5.077c0,1.481.036,2.963-.012,4.443-.025.777.257,1,1.016,1q12.967-.022,25.935,0c2.928,0,5.856-.007,8.783.027a1.63,1.63,0,0,1,1.759,1.525,1.7,1.7,0,0,1-1.749,1.67c-.171.014-.344.011-.516.011q-5.787,0-11.573.007l-22.629,0H3.187v68.1c.345.018.708.053,1.07.054,3.031.006,6.062,0,9.093.011a6.991,6.991,0,0,1,1.233.079,1.36,1.36,0,0,1,1.194,1.455,1.39,1.39,0,0,1-1.249,1.518,6.139,6.139,0,0,1-1.029.056c-3.41,0-6.82-.048-10.229.011A3.084,3.084,0,0,1,0,83.083Zm80.969,60.6c-.054.31-.116.574-.145.843C79.562,76.235,68.006,85.007,56.266,82.8c-8.512-1.6-14.343-6.6-16.811-14.928s-.286-15.686,6.02-21.649a20.98,20.98,0,0,1,25.6-2.248c.489.318,1.064,1.169.953,1.609-.236.934.219,1.312.762,1.8.486.435.9.957,1.406,1.363a1.27,1.27,0,0,0,.944.28,1.769,1.769,0,0,1,2.109.855,21.18,21.18,0,0,1,3.591,9.559c.036.315.353.838.568.852,1.224.082,2.456.04,3.684.04-.278-11.5-10.335-23.892-25.366-23.945a25.484,25.484,0,1,0,4.3,50.609,24.843,24.843,0,0,0,16.69-10.645A24.532,24.532,0,0,0,85.167,63.49Zm-10.72-3.165c-.172-4.892-5.382-9.314-10.646-9.2a10.732,10.732,0,0,0,.024,21.464c5.3.088,10.485-4.327,10.616-9.1h-4.2c-.134.353-.241.679-.379.99a6.461,6.461,0,0,1-12.177-1,6.469,6.469,0,0,1,12.278-4c.136.323.461.78.724.8,1.229.085,2.467.038,3.757.038" transform="translate(0 0)" fill="#12263f"/>
        <path id="Trazado_217789" data-name="Trazado 217789" d="M120.674,142.923c3.51,0,7.019-.008,10.529,0,1.245,0,2.04.8,1.8,1.818s-1,1.286-1.956,1.285q-9.393-.016-18.787-.005c-.757,0-1.515.023-2.27-.012a1.614,1.614,0,0,1-1.688-1.584,1.549,1.549,0,0,1,1.738-1.5c3.544-.013,7.088,0,10.632-.005" transform="translate(-85.921 -113.383)" fill="#12263f"/>
        <path id="Trazado_217790" data-name="Trazado 217790" d="M120.744,96.545q4.955,0,9.911,0c.378,0,.853-.107,1.112.077.485.344,1.131.837,1.178,1.319s-.476,1.114-.9,1.521c-.237.228-.783.178-1.19.178q-10.118.01-20.235,0a6.275,6.275,0,0,1-.926-.038,1.49,1.49,0,0,1-1.392-1.527,1.468,1.468,0,0,1,1.5-1.509c.823-.047,1.651-.018,2.477-.018l8.466,0" transform="translate(-85.918 -76.569)" fill="#12263f"/>
        <path id="Trazado_217791" data-name="Trazado 217791" d="M47.866,322.164c.95-1.042,1.709-1.927,2.525-2.756a1.583,1.583,0,0,1,2.359-.21,1.535,1.535,0,0,1-.149,2.361c-1.149,1.182-2.313,2.351-3.5,3.492a1.54,1.54,0,0,1-2.44.035c-.727-.68-1.437-1.38-2.121-2.1a1.555,1.555,0,1,1,2.18-2.2,17.022,17.022,0,0,1,1.149,1.386" transform="translate(-34.881 -252.884)" fill="#12263f"/>
        <path id="Trazado_217792" data-name="Trazado 217792" d="M47.921,137.026c.891-.968,1.637-1.821,2.43-2.626A1.618,1.618,0,0,1,52.8,134.2c.663.684.6,1.519-.23,2.365-1.131,1.157-2.268,2.31-3.435,3.431a1.566,1.566,0,0,1-2.521,0c-.65-.615-1.283-1.249-1.91-1.888-.868-.887-.951-1.731-.261-2.439s1.576-.632,2.438.211c.294.288.556.61,1.042,1.148" transform="translate(-34.891 -106.089)" fill="#12263f"/>
        <path id="Trazado_217793" data-name="Trazado 217793" d="M47.848,90.7c.984-1.029,1.751-1.863,2.553-2.66.822-.818,1.691-.886,2.371-.238.711.677.649,1.576-.2,2.442q-1.665,1.7-3.36,3.361a1.6,1.6,0,0,1-2.594.03c-.691-.672-1.38-1.348-2.039-2.051a1.527,1.527,0,0,1-.1-2.289,1.585,1.585,0,0,1,2.3.138,16,16,0,0,1,1.07,1.266" transform="translate(-34.913 -69.307)" fill="#12263f"/>
        <path id="Trazado_217794" data-name="Trazado 217794" d="M47.974,275.619c.85-.894,1.612-1.732,2.414-2.53a1.577,1.577,0,0,1,2.372-.24c.718.678.656,1.567-.2,2.437q-1.666,1.694-3.359,3.362c-.954.934-1.7.915-2.661-.039-.686-.678-1.387-1.343-2.037-2.054a1.5,1.5,0,0,1-.039-2.211,1.562,1.562,0,0,1,2.223.061c.388.338.749.705,1.285,1.212" transform="translate(-34.907 -216.115)" fill="#12263f"/>
        <path id="Trazado_217795" data-name="Trazado 217795" d="M47.787,229.543c1.037-1.106,1.812-1.971,2.631-2.793a1.562,1.562,0,1,1,2.191,2.18c-1.151,1.179-2.312,2.349-3.495,3.5a1.579,1.579,0,0,1-2.446.012c-.747-.708-1.489-1.425-2.191-2.178a1.546,1.546,0,1,1,2.181-2.189,12.7,12.7,0,0,1,1.129,1.472" transform="translate(-34.893 -179.372)" fill="#12263f"/>
        <path id="Trazado_217796" data-name="Trazado 217796" d="M47.868,183.382c.979-1.064,1.747-1.939,2.559-2.771a1.578,1.578,0,0,1,2.353-.234,1.541,1.541,0,0,1-.133,2.364c-1.148,1.184-2.308,2.356-3.494,3.5a1.592,1.592,0,0,1-2.521-.04c-.69-.67-1.379-1.342-2.043-2.037a1.543,1.543,0,1,1,2.158-2.186,16.081,16.081,0,0,1,1.123,1.4" transform="translate(-34.917 -142.76)" fill="#12263f"/>
      </g>
    </g>
  </g>
</svg>
