<svg xmlns="http://www.w3.org/2000/svg" xmlns:xlink="http://www.w3.org/1999/xlink" width="408.266" height="728" viewBox="0 0 408.266 728">
  <defs>
    <linearGradient id="linear-gradient" x1="0.5" x2="0.5" y2="1" gradientUnits="objectBoundingBox">
      <stop offset="0" stop-color="#fdbe41"/>
      <stop offset="1" stop-color="#d09f40"/>
    </linearGradient>
  </defs>
  <g id="Grupo_179426" data-name="Grupo 179426" transform="translate(-824.032 -5867.227)">
    <path id="Trazado_228304" data-name="Trazado 228304" d="M10,0H351a10,10,0,0,1,10,10V54a10,10,0,0,1-10,10H10A10,10,0,0,1,0,54V10A10,10,0,0,1,10,0Z" transform="translate(871.298 5867.227)" fill="url(#linear-gradient)"/>
    <path id="Trazado_228306" data-name="Trazado 228306" d="M10,0H117.75a10,10,0,0,1,10,10V54a10,10,0,0,1-10,10H10A10,10,0,0,1,0,54V10A10,10,0,0,1,10,0Z" transform="translate(871.298 5950.227)" fill="url(#linear-gradient)"/>
    <path id="Trazado_228310" data-name="Trazado 228310" d="M10,0H150a10,10,0,0,1,10,10V54a10,10,0,0,1-10,10H10A10,10,0,0,1,0,54V10A10,10,0,0,1,10,0Z" transform="translate(871.298 6116.227)" fill="url(#linear-gradient)"/>
    <path id="Trazado_228316" data-name="Trazado 228316" d="M10,0H296a10,10,0,0,1,10,10V54a10,10,0,0,1-10,10H10A10,10,0,0,1,0,54V10A10,10,0,0,1,10,0Z" transform="translate(871.298 6365.227)" fill="url(#linear-gradient)"/>
    <path id="Trazado_228314" data-name="Trazado 228314" d="M10,0H222a10,10,0,0,1,10,10V54a10,10,0,0,1-10,10H10A10,10,0,0,1,0,54V10A10,10,0,0,1,10,0Z" transform="translate(871.298 6282.227)" fill="url(#linear-gradient)"/>
    <path id="Trazado_228320" data-name="Trazado 228320" d="M10,0H140a10,10,0,0,1,10,10V54a10,10,0,0,1-10,10H10A10,10,0,0,1,0,54V10A10,10,0,0,1,10,0Z" transform="translate(871.298 6531.227)" fill="url(#linear-gradient)"/>
    <path id="Trazado_228308" data-name="Trazado 228308" d="M10,0H222a10,10,0,0,1,10,10V54a10,10,0,0,1-10,10H10A10,10,0,0,1,0,54V10A10,10,0,0,1,10,0Z" transform="translate(871.298 6033.227)" fill="url(#linear-gradient)"/>
    <path id="Trazado_228312" data-name="Trazado 228312" d="M10,0H245.5a10,10,0,0,1,10,10V54a10,10,0,0,1-10,10H10A10,10,0,0,1,0,54V10A10,10,0,0,1,10,0Z" transform="translate(871.298 6199.227)" fill="url(#linear-gradient)"/>
    <path id="Trazado_228318" data-name="Trazado 228318" d="M10,0H160.5a10,10,0,0,1,10,10V54a10,10,0,0,1-10,10H10A10,10,0,0,1,0,54V10A10,10,0,0,1,10,0Z" transform="translate(871.298 6448.227)" fill="url(#linear-gradient)"/>
    <path id="Trazado_228305" data-name="Trazado 228305" d="M11.338,11.039a4.163,4.163,0,0,1-1.465,3.428A6.454,6.454,0,0,1,5.7,15.658H4.219V21H1.885V6.723H6A6.22,6.22,0,0,1,10,7.816,3.926,3.926,0,0,1,11.338,11.039ZM4.219,13.7h1.24A4.444,4.444,0,0,0,8.1,13.07a2.275,2.275,0,0,0,.84-1.953,2.216,2.216,0,0,0-.752-1.836A3.714,3.714,0,0,0,5.84,8.676H4.219ZM19.424,10a5.524,5.524,0,0,1,1.143.1l-.225,2.139a4.338,4.338,0,0,0-1.016-.117,2.939,2.939,0,0,0-2.231.9,3.247,3.247,0,0,0-.854,2.334V21H13.945V10.2h1.8l.3,1.9h.117a4.279,4.279,0,0,1,1.4-1.533A3.331,3.331,0,0,1,19.424,10ZM32.148,15.58a5.9,5.9,0,0,1-1.357,4.131A4.864,4.864,0,0,1,27.012,21.2a5.178,5.178,0,0,1-2.676-.684,4.513,4.513,0,0,1-1.787-1.963,6.685,6.685,0,0,1-.625-2.969,5.855,5.855,0,0,1,1.348-4.1A4.886,4.886,0,0,1,27.07,10a4.758,4.758,0,0,1,3.711,1.509A5.828,5.828,0,0,1,32.148,15.58Zm-7.861,0q0,3.74,2.764,3.74,2.734,0,2.734-3.74,0-3.7-2.754-3.7a2.348,2.348,0,0,0-2.095.957A4.87,4.87,0,0,0,24.287,15.58ZM39.141,21.2a4.729,4.729,0,0,1-3.726-1.431,5.977,5.977,0,0,1-1.274-4.106,6.011,6.011,0,0,1,1.333-4.189A4.945,4.945,0,0,1,39.326,10a7.22,7.22,0,0,1,3.076.635l-.693,1.846a6.95,6.95,0,0,0-2.4-.566q-2.8,0-2.8,3.721a4.456,4.456,0,0,0,.7,2.729,2.417,2.417,0,0,0,2.046.913,5.87,5.87,0,0,0,2.9-.762v2a4.532,4.532,0,0,1-1.313.518A7.882,7.882,0,0,1,39.141,21.2Zm10.264,0a5.225,5.225,0,0,1-3.94-1.47,5.579,5.579,0,0,1-1.421-4.048,6.121,6.121,0,0,1,1.318-4.16A4.554,4.554,0,0,1,48.984,10a4.451,4.451,0,0,1,3.379,1.3,4.963,4.963,0,0,1,1.24,3.574v1.24h-7.2a3.548,3.548,0,0,0,.85,2.417,2.959,2.959,0,0,0,2.256.845,8.328,8.328,0,0,0,1.782-.181,9.342,9.342,0,0,0,1.772-.6v1.865a7.046,7.046,0,0,1-1.7.566A10.419,10.419,0,0,1,49.4,21.2Zm-.42-9.453a2.306,2.306,0,0,0-1.753.693,3.3,3.3,0,0,0-.786,2.021h4.9a2.99,2.99,0,0,0-.645-2.026A2.2,2.2,0,0,0,48.984,11.742Zm14.482,6.182a2.826,2.826,0,0,1-1.152,2.427,5.518,5.518,0,0,1-3.3.845,7.8,7.8,0,0,1-3.467-.654V18.559a8.511,8.511,0,0,0,3.545.879q2.119,0,2.119-1.279a1.013,1.013,0,0,0-.234-.684,2.774,2.774,0,0,0-.771-.566,13.277,13.277,0,0,0-1.494-.664A6.912,6.912,0,0,1,56.187,14.8a2.674,2.674,0,0,1-.659-1.875,2.463,2.463,0,0,1,1.118-2.153A5.306,5.306,0,0,1,59.688,10a8.616,8.616,0,0,1,3.6.771L62.549,12.5a8.015,8.015,0,0,0-2.939-.723q-1.816,0-1.816,1.035a1.041,1.041,0,0,0,.474.859,10.416,10.416,0,0,0,2.065.967,9.441,9.441,0,0,1,1.943.947,2.831,2.831,0,0,1,.9.991A2.869,2.869,0,0,1,63.467,17.924ZM75.527,15.58a5.9,5.9,0,0,1-1.357,4.131A4.864,4.864,0,0,1,70.391,21.2a5.178,5.178,0,0,1-2.676-.684,4.513,4.513,0,0,1-1.787-1.963A6.685,6.685,0,0,1,65.3,15.58a5.855,5.855,0,0,1,1.348-4.1A4.886,4.886,0,0,1,70.449,10a4.758,4.758,0,0,1,3.711,1.509A5.828,5.828,0,0,1,75.527,15.58Zm-7.861,0q0,3.74,2.764,3.74,2.734,0,2.734-3.74,0-3.7-2.754-3.7a2.348,2.348,0,0,0-2.095.957A4.87,4.87,0,0,0,67.666,15.58ZM87,21.2a3.762,3.762,0,0,1-3.154-1.465,6.584,6.584,0,0,1-1.133-4.111,6.605,6.605,0,0,1,1.147-4.136A3.8,3.8,0,0,1,87.041,10a3.723,3.723,0,0,1,3.242,1.572H90.4a13.756,13.756,0,0,1-.166-1.836V5.8h2.3V21h-1.8l-.4-1.416h-.107A3.669,3.669,0,0,1,87,21.2Zm.615-1.855a2.5,2.5,0,0,0,2.061-.8,4.19,4.19,0,0,0,.664-2.583v-.322a4.841,4.841,0,0,0-.664-2.9,2.463,2.463,0,0,0-2.08-.859,2.11,2.11,0,0,0-1.865.981,5.03,5.03,0,0,0-.654,2.8,4.9,4.9,0,0,0,.635,2.739A2.143,2.143,0,0,0,87.617,19.34Zm12.92,1.855a5.225,5.225,0,0,1-3.94-1.47,5.579,5.579,0,0,1-1.421-4.048,6.121,6.121,0,0,1,1.318-4.16A4.554,4.554,0,0,1,100.117,10a4.451,4.451,0,0,1,3.379,1.3,4.963,4.963,0,0,1,1.24,3.574v1.24h-7.2a3.548,3.548,0,0,0,.85,2.417,2.959,2.959,0,0,0,2.256.845,8.328,8.328,0,0,0,1.782-.181,9.342,9.342,0,0,0,1.772-.6v1.865a7.046,7.046,0,0,1-1.7.566A10.419,10.419,0,0,1,100.537,21.2Zm-.42-9.453a2.306,2.306,0,0,0-1.753.693,3.3,3.3,0,0,0-.786,2.021h4.9a2.99,2.99,0,0,0-.645-2.026A2.2,2.2,0,0,0,100.117,11.742ZM119.3,21l-.459-1.5h-.078a4.425,4.425,0,0,1-1.572,1.343,4.972,4.972,0,0,1-2.031.356,3.438,3.438,0,0,1-2.485-.859,3.216,3.216,0,0,1-.894-2.432,2.855,2.855,0,0,1,1.24-2.52,7.151,7.151,0,0,1,3.779-.928l1.865-.059v-.576a2.184,2.184,0,0,0-.483-1.548,1.971,1.971,0,0,0-1.5-.513,5.183,5.183,0,0,0-1.592.244,12.012,12.012,0,0,0-1.465.576l-.742-1.641a7.987,7.987,0,0,1,1.924-.7A8.854,8.854,0,0,1,116.777,10a4.672,4.672,0,0,1,3.11.9,3.518,3.518,0,0,1,1.05,2.822V21Zm-3.418-1.562a2.843,2.843,0,0,0,2.007-.7,2.531,2.531,0,0,0,.757-1.958v-.937l-1.387.059a4.745,4.745,0,0,0-2.358.542,1.647,1.647,0,0,0-.737,1.479,1.444,1.444,0,0,0,.43,1.118A1.846,1.846,0,0,0,115.879,19.438Zm12.285-.1a5.581,5.581,0,0,0,1.68-.264V20.8a4.633,4.633,0,0,1-.981.278,6.762,6.762,0,0,1-1.245.112q-3.262,0-3.262-3.437v-5.82h-1.475V10.922l1.582-.84.781-2.285h1.416v2.4h3.076v1.738H126.66v5.781a1.622,1.622,0,0,0,.415,1.226A1.513,1.513,0,0,0,128.164,19.34ZM137.48,10a5.524,5.524,0,0,1,1.143.1L138.4,12.24a4.337,4.337,0,0,0-1.016-.117,2.939,2.939,0,0,0-2.231.9,3.248,3.248,0,0,0-.854,2.334V21H132V10.2h1.8l.3,1.9h.117a4.279,4.279,0,0,1,1.4-1.533A3.331,3.331,0,0,1,137.48,10Zm9.9,11-.459-1.5h-.078a4.425,4.425,0,0,1-1.572,1.343,4.972,4.972,0,0,1-2.031.356,3.438,3.438,0,0,1-2.485-.859,3.216,3.216,0,0,1-.894-2.432,2.855,2.855,0,0,1,1.24-2.52,7.151,7.151,0,0,1,3.779-.928l1.865-.059v-.576a2.184,2.184,0,0,0-.483-1.548,1.971,1.971,0,0,0-1.5-.513,5.183,5.183,0,0,0-1.592.244,12.012,12.012,0,0,0-1.465.576l-.742-1.641a7.988,7.988,0,0,1,1.924-.7A8.854,8.854,0,0,1,144.863,10a4.672,4.672,0,0,1,3.11.9,3.518,3.518,0,0,1,1.05,2.822V21Zm-3.418-1.562a2.843,2.843,0,0,0,2.007-.7,2.531,2.531,0,0,0,.757-1.958v-.937l-1.387.059a4.745,4.745,0,0,0-2.358.542,1.647,1.647,0,0,0-.737,1.479,1.444,1.444,0,0,0,.43,1.118A1.846,1.846,0,0,0,143.965,19.438ZM156.582,21.2a4.729,4.729,0,0,1-3.726-1.431,5.977,5.977,0,0,1-1.274-4.106,6.011,6.011,0,0,1,1.333-4.189A4.945,4.945,0,0,1,156.768,10a7.22,7.22,0,0,1,3.076.635l-.693,1.846a6.95,6.95,0,0,0-2.4-.566q-2.8,0-2.8,3.721a4.456,4.456,0,0,0,.7,2.729,2.417,2.417,0,0,0,2.046.913,5.87,5.87,0,0,0,2.9-.762v2a4.532,4.532,0,0,1-1.313.518A7.882,7.882,0,0,1,156.582,21.2Zm9.9,0a4.729,4.729,0,0,1-3.726-1.431,5.977,5.977,0,0,1-1.274-4.106,6.011,6.011,0,0,1,1.333-4.189A4.945,4.945,0,0,1,166.67,10a7.22,7.22,0,0,1,3.076.635l-.693,1.846a6.95,6.95,0,0,0-2.4-.566q-2.8,0-2.8,3.721a4.456,4.456,0,0,0,.7,2.729,2.417,2.417,0,0,0,2.046.913,5.87,5.87,0,0,0,2.9-.762v2a4.532,4.532,0,0,1-1.313.518A7.882,7.882,0,0,1,166.484,21.2Zm7.842-.2h-2.295V10.2h2.295ZM171.895,7.338a1.271,1.271,0,0,1,.337-.947,1.313,1.313,0,0,1,.962-.332,1.285,1.285,0,0,1,.942.332,1.271,1.271,0,0,1,.337.947,1.247,1.247,0,0,1-.337.923,1.274,1.274,0,0,1-.942.337,1.3,1.3,0,0,1-.962-.337A1.247,1.247,0,0,1,171.895,7.338Zm15.293,8.242a5.9,5.9,0,0,1-1.357,4.131,4.864,4.864,0,0,1-3.779,1.484,5.178,5.178,0,0,1-2.676-.684,4.513,4.513,0,0,1-1.787-1.963,6.685,6.685,0,0,1-.625-2.969,5.855,5.855,0,0,1,1.348-4.1,4.886,4.886,0,0,1,3.8-1.475,4.758,4.758,0,0,1,3.711,1.509A5.828,5.828,0,0,1,187.188,15.58Zm-7.861,0q0,3.74,2.764,3.74,2.734,0,2.734-3.74,0-3.7-2.754-3.7a2.348,2.348,0,0,0-2.095.957A4.87,4.87,0,0,0,179.326,15.58Zm1.26-6.7V8.637q.557-.684,1.147-1.523t.933-1.436h2.666v.205a20.054,20.054,0,0,1-1.519,1.538,21.412,21.412,0,0,1-1.7,1.46ZM199.326,21h-2.3V14.359a2.906,2.906,0,0,0-.5-1.865,1.944,1.944,0,0,0-1.6-.615,2.539,2.539,0,0,0-2.129.859,4.745,4.745,0,0,0-.674,2.881V21h-2.295V10.2h1.8l.322,1.416h.117a3.2,3.2,0,0,1,1.387-1.191,4.647,4.647,0,0,1,1.992-.42q3.887,0,3.887,3.955Zm12.031.2A3.762,3.762,0,0,1,208.2,19.73a6.584,6.584,0,0,1-1.133-4.111,6.606,6.606,0,0,1,1.147-4.136A3.8,3.8,0,0,1,211.4,10a3.723,3.723,0,0,1,3.242,1.572h.117a13.758,13.758,0,0,1-.166-1.836V5.8h2.3V21h-1.8l-.4-1.416h-.107A3.669,3.669,0,0,1,211.357,21.2Zm.615-1.855a2.5,2.5,0,0,0,2.061-.8,4.19,4.19,0,0,0,.664-2.583v-.322a4.841,4.841,0,0,0-.664-2.9,2.463,2.463,0,0,0-2.08-.859,2.11,2.11,0,0,0-1.865.981,5.03,5.03,0,0,0-.654,2.8,4.9,4.9,0,0,0,.635,2.739A2.143,2.143,0,0,0,211.973,19.34Zm12.92,1.855a5.225,5.225,0,0,1-3.94-1.47,5.579,5.579,0,0,1-1.421-4.048,6.121,6.121,0,0,1,1.318-4.16A4.554,4.554,0,0,1,224.473,10a4.451,4.451,0,0,1,3.379,1.3,4.963,4.963,0,0,1,1.24,3.574v1.24h-7.2a3.547,3.547,0,0,0,.85,2.417,2.959,2.959,0,0,0,2.256.845,8.328,8.328,0,0,0,1.782-.181,9.342,9.342,0,0,0,1.772-.6v1.865a7.046,7.046,0,0,1-1.7.566A10.42,10.42,0,0,1,224.893,21.2Zm-.42-9.453a2.306,2.306,0,0,0-1.753.693,3.3,3.3,0,0,0-.786,2.021h4.9a2.99,2.99,0,0,0-.645-2.026A2.2,2.2,0,0,0,224.473,11.742ZM241.25,21.2a4.729,4.729,0,0,1-3.726-1.431,5.977,5.977,0,0,1-1.274-4.106,6.011,6.011,0,0,1,1.333-4.189A4.945,4.945,0,0,1,241.436,10a7.22,7.22,0,0,1,3.076.635l-.693,1.846a6.95,6.95,0,0,0-2.4-.566q-2.8,0-2.8,3.721a4.456,4.456,0,0,0,.7,2.729,2.417,2.417,0,0,0,2.046.913,5.87,5.87,0,0,0,2.9-.762v2a4.532,4.532,0,0,1-1.313.518A7.882,7.882,0,0,1,241.25,21.2Zm7.842-.2H246.8V5.8h2.295Zm5.576,0h-2.295V10.2h2.295ZM252.236,7.338a1.271,1.271,0,0,1,.337-.947,1.313,1.313,0,0,1,.962-.332,1.285,1.285,0,0,1,.942.332,1.271,1.271,0,0,1,.337.947,1.247,1.247,0,0,1-.337.923,1.274,1.274,0,0,1-.942.337,1.3,1.3,0,0,1-.962-.337A1.247,1.247,0,0,1,252.236,7.338ZM262.666,21.2a5.225,5.225,0,0,1-3.94-1.47,5.579,5.579,0,0,1-1.421-4.048,6.121,6.121,0,0,1,1.318-4.16A4.554,4.554,0,0,1,262.246,10a4.451,4.451,0,0,1,3.379,1.3,4.963,4.963,0,0,1,1.24,3.574v1.24h-7.2a3.548,3.548,0,0,0,.85,2.417,2.959,2.959,0,0,0,2.256.845,8.328,8.328,0,0,0,1.782-.181,9.342,9.342,0,0,0,1.772-.6v1.865a7.046,7.046,0,0,1-1.7.566A10.419,10.419,0,0,1,262.666,21.2Zm-.42-9.453a2.306,2.306,0,0,0-1.753.693,3.3,3.3,0,0,0-.786,2.021h4.9a2.99,2.99,0,0,0-.645-2.026A2.2,2.2,0,0,0,262.246,11.742ZM278.975,21h-2.3V14.359a2.906,2.906,0,0,0-.5-1.865,1.944,1.944,0,0,0-1.6-.615,2.539,2.539,0,0,0-2.129.859,4.745,4.745,0,0,0-.674,2.881V21h-2.295V10.2h1.8l.322,1.416h.117a3.2,3.2,0,0,1,1.387-1.191,4.647,4.647,0,0,1,1.992-.42q3.887,0,3.887,3.955Zm7.217-1.66a5.581,5.581,0,0,0,1.68-.264V20.8a4.633,4.633,0,0,1-.981.278,6.762,6.762,0,0,1-1.245.112q-3.262,0-3.262-3.437v-5.82h-1.475V10.922l1.582-.84.781-2.285h1.416v2.4h3.076v1.738h-3.076v5.781a1.622,1.622,0,0,0,.415,1.226A1.513,1.513,0,0,0,286.191,19.34Zm8.555,1.855a5.225,5.225,0,0,1-3.94-1.47,5.579,5.579,0,0,1-1.421-4.048,6.121,6.121,0,0,1,1.318-4.16A4.554,4.554,0,0,1,294.326,10a4.451,4.451,0,0,1,3.379,1.3,4.963,4.963,0,0,1,1.24,3.574v1.24h-7.2a3.548,3.548,0,0,0,.85,2.417,2.959,2.959,0,0,0,2.256.845,8.328,8.328,0,0,0,1.782-.181,9.342,9.342,0,0,0,1.772-.6v1.865a7.046,7.046,0,0,1-1.7.566A10.419,10.419,0,0,1,294.746,21.2Zm-.42-9.453a2.306,2.306,0,0,0-1.753.693,3.3,3.3,0,0,0-.786,2.021h4.9a2.99,2.99,0,0,0-.645-2.026A2.2,2.2,0,0,0,294.326,11.742Zm14.482,6.182a2.826,2.826,0,0,1-1.152,2.427,5.518,5.518,0,0,1-3.3.845,7.8,7.8,0,0,1-3.467-.654V18.559a8.511,8.511,0,0,0,3.545.879q2.119,0,2.119-1.279a1.013,1.013,0,0,0-.234-.684,2.774,2.774,0,0,0-.771-.566,13.275,13.275,0,0,0-1.494-.664,6.911,6.911,0,0,1-2.524-1.445,2.674,2.674,0,0,1-.659-1.875,2.463,2.463,0,0,1,1.118-2.153A5.306,5.306,0,0,1,305.029,10a8.616,8.616,0,0,1,3.6.771l-.742,1.729a8.015,8.015,0,0,0-2.939-.723q-1.816,0-1.816,1.035a1.041,1.041,0,0,0,.474.859,10.416,10.416,0,0,0,2.065.967,9.441,9.441,0,0,1,1.943.947,2.831,2.831,0,0,1,.9.991A2.869,2.869,0,0,1,308.809,17.924Zm2.139,1.855a1.5,1.5,0,0,1,.371-1.094,1.432,1.432,0,0,1,1.074-.381,1.415,1.415,0,0,1,1.084.4,1.514,1.514,0,0,1,.371,1.079,1.552,1.552,0,0,1-.376,1.1,1.64,1.64,0,0,1-2.153,0A1.561,1.561,0,0,1,310.947,19.779Z" transform="translate(900.298 5885.227)" fill="#12263f"/>
    <path id="Trazado_228307" data-name="Trazado 228307" d="M11.338,11.039a4.163,4.163,0,0,1-1.465,3.428A6.454,6.454,0,0,1,5.7,15.658H4.219V21H1.885V6.723H6A6.22,6.22,0,0,1,10,7.816,3.926,3.926,0,0,1,11.338,11.039ZM4.219,13.7h1.24A4.444,4.444,0,0,0,8.1,13.07a2.275,2.275,0,0,0,.84-1.953,2.216,2.216,0,0,0-.752-1.836A3.714,3.714,0,0,0,5.84,8.676H4.219ZM19.424,10a5.524,5.524,0,0,1,1.143.1l-.225,2.139a4.338,4.338,0,0,0-1.016-.117,2.939,2.939,0,0,0-2.231.9,3.247,3.247,0,0,0-.854,2.334V21H13.945V10.2h1.8l.3,1.9h.117a4.279,4.279,0,0,1,1.4-1.533A3.331,3.331,0,0,1,19.424,10ZM27.285,21.2a5.225,5.225,0,0,1-3.94-1.47,5.579,5.579,0,0,1-1.421-4.048,6.121,6.121,0,0,1,1.318-4.16A4.554,4.554,0,0,1,26.865,10a4.451,4.451,0,0,1,3.379,1.3,4.963,4.963,0,0,1,1.24,3.574v1.24h-7.2a3.548,3.548,0,0,0,.85,2.417,2.959,2.959,0,0,0,2.256.845,8.328,8.328,0,0,0,1.782-.181,9.342,9.342,0,0,0,1.772-.6v1.865a7.046,7.046,0,0,1-1.7.566A10.419,10.419,0,0,1,27.285,21.2Zm-.42-9.453a2.306,2.306,0,0,0-1.753.693,3.3,3.3,0,0,0-.786,2.021h4.9a2.99,2.99,0,0,0-.645-2.026A2.2,2.2,0,0,0,26.865,11.742ZM38.447,21.2a4.729,4.729,0,0,1-3.726-1.431,5.977,5.977,0,0,1-1.274-4.106,6.011,6.011,0,0,1,1.333-4.189A4.945,4.945,0,0,1,38.633,10a7.22,7.22,0,0,1,3.076.635l-.693,1.846a6.95,6.95,0,0,0-2.4-.566q-2.8,0-2.8,3.721a4.456,4.456,0,0,0,.7,2.729,2.417,2.417,0,0,0,2.046.913,5.87,5.87,0,0,0,2.9-.762v2a4.532,4.532,0,0,1-1.313.518A7.882,7.882,0,0,1,38.447,21.2Zm7.842-.2H43.994V10.2h2.295ZM43.857,7.338a1.271,1.271,0,0,1,.337-.947,1.313,1.313,0,0,1,.962-.332,1.285,1.285,0,0,1,.942.332,1.271,1.271,0,0,1,.337.947,1.247,1.247,0,0,1-.337.923,1.274,1.274,0,0,1-.942.337,1.3,1.3,0,0,1-.962-.337A1.247,1.247,0,0,1,43.857,7.338ZM59.15,15.58a5.9,5.9,0,0,1-1.357,4.131A4.864,4.864,0,0,1,54.014,21.2a5.178,5.178,0,0,1-2.676-.684,4.513,4.513,0,0,1-1.787-1.963,6.685,6.685,0,0,1-.625-2.969,5.855,5.855,0,0,1,1.348-4.1A4.886,4.886,0,0,1,54.072,10a4.758,4.758,0,0,1,3.711,1.509A5.828,5.828,0,0,1,59.15,15.58Zm-7.861,0q0,3.74,2.764,3.74,2.734,0,2.734-3.74,0-3.7-2.754-3.7a2.348,2.348,0,0,0-2.095.957A4.87,4.87,0,0,0,51.289,15.58Zm17.754,2.344a2.826,2.826,0,0,1-1.152,2.427,5.518,5.518,0,0,1-3.3.845,7.8,7.8,0,0,1-3.467-.654V18.559a8.511,8.511,0,0,0,3.545.879q2.119,0,2.119-1.279a1.013,1.013,0,0,0-.234-.684,2.774,2.774,0,0,0-.771-.566,13.276,13.276,0,0,0-1.494-.664A6.912,6.912,0,0,1,61.763,14.8a2.674,2.674,0,0,1-.659-1.875,2.463,2.463,0,0,1,1.118-2.153A5.306,5.306,0,0,1,65.264,10a8.616,8.616,0,0,1,3.6.771L68.125,12.5a8.015,8.015,0,0,0-2.939-.723q-1.816,0-1.816,1.035a1.041,1.041,0,0,0,.474.859,10.416,10.416,0,0,0,2.065.967,9.441,9.441,0,0,1,1.943.947,2.831,2.831,0,0,1,.9.991A2.869,2.869,0,0,1,69.043,17.924Zm2.139,1.855a1.5,1.5,0,0,1,.371-1.094,1.432,1.432,0,0,1,1.074-.381,1.415,1.415,0,0,1,1.084.4,1.514,1.514,0,0,1,.371,1.079,1.552,1.552,0,0,1-.376,1.1,1.64,1.64,0,0,1-2.153,0A1.561,1.561,0,0,1,71.182,19.779Z" transform="translate(900.298 5968.227)" fill="#12263f"/>
    <path id="Trazado_228311" data-name="Trazado 228311" d="M13.5,13.725a7.115,7.115,0,0,1-1.963,5.405A7.884,7.884,0,0,1,5.879,21H1.885V6.723H6.3a7.3,7.3,0,0,1,5.3,1.836A6.86,6.86,0,0,1,13.5,13.725Zm-2.461.078q0-5.127-4.795-5.127H4.219V19.037h1.66Q11.035,19.037,11.035,13.8Zm10,7.393a5.225,5.225,0,0,1-3.94-1.47,5.579,5.579,0,0,1-1.421-4.048,6.121,6.121,0,0,1,1.318-4.16A4.554,4.554,0,0,1,20.615,10a4.451,4.451,0,0,1,3.379,1.3,4.963,4.963,0,0,1,1.24,3.574v1.24h-7.2a3.548,3.548,0,0,0,.85,2.417,2.959,2.959,0,0,0,2.256.845,8.328,8.328,0,0,0,1.782-.181,9.342,9.342,0,0,0,1.772-.6v1.865a7.046,7.046,0,0,1-1.7.566A10.419,10.419,0,0,1,21.035,21.2Zm-.42-9.453a2.306,2.306,0,0,0-1.753.693,3.3,3.3,0,0,0-.786,2.021h4.9a2.99,2.99,0,0,0-.645-2.026A2.2,2.2,0,0,0,20.615,11.742ZM35.332,21H33.037V10.2h2.295ZM32.9,7.338a1.271,1.271,0,0,1,.337-.947,1.313,1.313,0,0,1,.962-.332,1.285,1.285,0,0,1,.942.332,1.271,1.271,0,0,1,.337.947,1.247,1.247,0,0,1-.337.923A1.274,1.274,0,0,1,34.2,8.6a1.3,1.3,0,0,1-.962-.337A1.247,1.247,0,0,1,32.9,7.338ZM47.715,21h-2.3V14.34a3.02,3.02,0,0,0-.469-1.851,1.73,1.73,0,0,0-1.465-.61,2.234,2.234,0,0,0-1.948.864,5.071,5.071,0,0,0-.62,2.876V21H38.613V10.2h1.8l.322,1.416h.117a2.992,2.992,0,0,1,1.3-1.191,4.2,4.2,0,0,1,1.88-.42q2.49,0,3.3,1.7h.156a3.293,3.293,0,0,1,1.348-1.25A4.277,4.277,0,0,1,50.83,10a3.628,3.628,0,0,1,2.817.977,4.325,4.325,0,0,1,.884,2.979V21H52.236V14.34a3,3,0,0,0-.474-1.851,1.744,1.744,0,0,0-1.47-.61,2.278,2.278,0,0,0-1.958.835,4.3,4.3,0,0,0-.62,2.563Zm16.777,0-.459-1.5h-.078a4.425,4.425,0,0,1-1.572,1.343,4.972,4.972,0,0,1-2.031.356,3.438,3.438,0,0,1-2.485-.859,3.216,3.216,0,0,1-.894-2.432,2.855,2.855,0,0,1,1.24-2.52,7.151,7.151,0,0,1,3.779-.928l1.865-.059v-.576a2.184,2.184,0,0,0-.483-1.548,1.971,1.971,0,0,0-1.5-.513,5.183,5.183,0,0,0-1.592.244,12.012,12.012,0,0,0-1.465.576l-.742-1.641a7.988,7.988,0,0,1,1.924-.7A8.854,8.854,0,0,1,61.973,10a4.672,4.672,0,0,1,3.11.9,3.518,3.518,0,0,1,1.05,2.822V21Zm-3.418-1.562a2.843,2.843,0,0,0,2.007-.7,2.531,2.531,0,0,0,.757-1.958v-.937l-1.387.059a4.745,4.745,0,0,0-2.358.542,1.647,1.647,0,0,0-.737,1.479,1.444,1.444,0,0,0,.43,1.118A1.846,1.846,0,0,0,61.074,19.438ZM78.457,10.2v1.26l-1.846.342a2.979,2.979,0,0,1,.42.84A3.313,3.313,0,0,1,77.2,13.7a3.231,3.231,0,0,1-1.152,2.627,4.822,4.822,0,0,1-3.174.957,5.146,5.146,0,0,1-.937-.078,1.293,1.293,0,0,0-.742,1.074.6.6,0,0,0,.347.557,3,3,0,0,0,1.274.186H74.7a4.191,4.191,0,0,1,2.715.762,2.68,2.68,0,0,1,.928,2.2,3.2,3.2,0,0,1-1.514,2.832,7.97,7.97,0,0,1-4.375,1,6.038,6.038,0,0,1-3.369-.781A2.525,2.525,0,0,1,67.92,22.8a2.369,2.369,0,0,1,.63-1.675,3.375,3.375,0,0,1,1.763-.942,1.725,1.725,0,0,1-.757-.63,1.59,1.59,0,0,1-.3-.913,1.572,1.572,0,0,1,.342-1.025,3.944,3.944,0,0,1,1.016-.83A3.008,3.008,0,0,1,69.253,15.6,3.461,3.461,0,0,1,68.73,13.7a3.423,3.423,0,0,1,1.108-2.725A4.66,4.66,0,0,1,73,10a7.69,7.69,0,0,1,.962.063,6.056,6.056,0,0,1,.757.132ZM69.971,22.68a1.262,1.262,0,0,0,.669,1.143,3.677,3.677,0,0,0,1.88.4,5.68,5.68,0,0,0,2.793-.537,1.61,1.61,0,0,0,.918-1.426,1.07,1.07,0,0,0-.5-1,4.039,4.039,0,0,0-1.87-.3H72.119a2.442,2.442,0,0,0-1.567.464A1.521,1.521,0,0,0,69.971,22.68Zm.986-8.984a2.174,2.174,0,0,0,.522,1.563,1.976,1.976,0,0,0,1.5.547q1.992,0,1.992-2.129a2.415,2.415,0,0,0-.493-1.626,1.874,1.874,0,0,0-1.5-.571,1.932,1.932,0,0,0-1.509.566A2.381,2.381,0,0,0,70.957,13.7Zm14.219,7.5a5.225,5.225,0,0,1-3.94-1.47,5.579,5.579,0,0,1-1.421-4.048,6.121,6.121,0,0,1,1.318-4.16A4.554,4.554,0,0,1,84.756,10a4.451,4.451,0,0,1,3.379,1.3,4.963,4.963,0,0,1,1.24,3.574v1.24h-7.2a3.548,3.548,0,0,0,.85,2.417,2.959,2.959,0,0,0,2.256.845,8.328,8.328,0,0,0,1.782-.181,9.342,9.342,0,0,0,1.772-.6v1.865a7.046,7.046,0,0,1-1.7.566A10.419,10.419,0,0,1,85.176,21.2Zm-.42-9.453A2.306,2.306,0,0,0,83,12.436a3.3,3.3,0,0,0-.786,2.021h4.9a2.99,2.99,0,0,0-.645-2.026A2.2,2.2,0,0,0,84.756,11.742ZM101.484,21h-2.3V14.359a2.906,2.906,0,0,0-.5-1.865,1.944,1.944,0,0,0-1.6-.615,2.539,2.539,0,0,0-2.129.859,4.745,4.745,0,0,0-.674,2.881V21H91.982V10.2h1.8l.322,1.416h.117a3.2,3.2,0,0,1,1.387-1.191A4.647,4.647,0,0,1,97.6,10q3.887,0,3.887,3.955Zm2.852-1.221a1.5,1.5,0,0,1,.371-1.094,1.432,1.432,0,0,1,1.074-.381,1.415,1.415,0,0,1,1.084.4,1.514,1.514,0,0,1,.371,1.079,1.552,1.552,0,0,1-.376,1.1,1.64,1.64,0,0,1-2.153,0A1.561,1.561,0,0,1,104.336,19.779Z" transform="translate(900.298 6134.227)" fill="#12263f"/>
    <path id="Trazado_228317" data-name="Trazado 228317" d="M9.961,21H1.885V6.723H9.961V8.7H4.219v3.887H9.6v1.953H4.219v4.482H9.961Zm10.1-3.076a2.826,2.826,0,0,1-1.152,2.427,5.518,5.518,0,0,1-3.3.845,7.8,7.8,0,0,1-3.467-.654V18.559a8.511,8.511,0,0,0,3.545.879q2.119,0,2.119-1.279a1.013,1.013,0,0,0-.234-.684,2.774,2.774,0,0,0-.771-.566,13.276,13.276,0,0,0-1.494-.664A6.912,6.912,0,0,1,12.778,14.8a2.674,2.674,0,0,1-.659-1.875,2.463,2.463,0,0,1,1.118-2.153A5.306,5.306,0,0,1,16.279,10a8.616,8.616,0,0,1,3.6.771L19.141,12.5a8.015,8.015,0,0,0-2.939-.723q-1.816,0-1.816,1.035a1.041,1.041,0,0,0,.474.859,10.416,10.416,0,0,0,2.065.967,9.441,9.441,0,0,1,1.943.947,2.831,2.831,0,0,1,.9.991A2.869,2.869,0,0,1,20.059,17.924Zm6.5,1.416a5.581,5.581,0,0,0,1.68-.264V20.8a4.633,4.633,0,0,1-.981.278,6.762,6.762,0,0,1-1.245.112q-3.262,0-3.262-3.437v-5.82H21.279V10.922l1.582-.84L23.643,7.8h1.416v2.4h3.076v1.738H25.059v5.781a1.622,1.622,0,0,0,.415,1.226A1.513,1.513,0,0,0,26.563,19.34ZM35.879,10a5.524,5.524,0,0,1,1.143.1L36.8,12.24a4.338,4.338,0,0,0-1.016-.117,2.939,2.939,0,0,0-2.231.9,3.248,3.248,0,0,0-.854,2.334V21H30.4V10.2h1.8l.3,1.9h.117a4.279,4.279,0,0,1,1.4-1.533A3.331,3.331,0,0,1,35.879,10ZM46.641,21l-.322-1.416H46.2a3.256,3.256,0,0,1-1.362,1.182,4.555,4.555,0,0,1-2.017.43,3.959,3.959,0,0,1-2.93-.977,4.048,4.048,0,0,1-.967-2.959V10.2H41.24v6.66a2.889,2.889,0,0,0,.508,1.86,1.939,1.939,0,0,0,1.592.62,2.534,2.534,0,0,0,2.124-.864,4.762,4.762,0,0,0,.679-2.9V10.2h2.3V21Zm9.434.2a4.729,4.729,0,0,1-3.726-1.431,5.977,5.977,0,0,1-1.274-4.106,6.011,6.011,0,0,1,1.333-4.189A4.945,4.945,0,0,1,56.26,10a7.22,7.22,0,0,1,3.076.635l-.693,1.846a6.95,6.95,0,0,0-2.4-.566q-2.8,0-2.8,3.721a4.456,4.456,0,0,0,.7,2.729,2.417,2.417,0,0,0,2.046.913,5.87,5.87,0,0,0,2.9-.762v2a4.532,4.532,0,0,1-1.313.518A7.882,7.882,0,0,1,56.074,21.2Zm9.57-1.855a5.581,5.581,0,0,0,1.68-.264V20.8a4.633,4.633,0,0,1-.981.278A6.762,6.762,0,0,1,65.1,21.2q-3.262,0-3.262-3.437v-5.82H60.361V10.922l1.582-.84L62.725,7.8h1.416v2.4h3.076v1.738H64.141v5.781a1.622,1.622,0,0,0,.415,1.226A1.513,1.513,0,0,0,65.645,19.34ZM77.1,21l-.322-1.416H76.66A3.256,3.256,0,0,1,75.3,20.766a4.555,4.555,0,0,1-2.017.43,3.959,3.959,0,0,1-2.93-.977,4.048,4.048,0,0,1-.967-2.959V10.2H71.7v6.66a2.889,2.889,0,0,0,.508,1.86,1.939,1.939,0,0,0,1.592.62,2.534,2.534,0,0,0,2.124-.864,4.762,4.762,0,0,0,.679-2.9V10.2h2.3V21ZM87.656,10a5.524,5.524,0,0,1,1.143.1l-.225,2.139a4.338,4.338,0,0,0-1.016-.117,2.939,2.939,0,0,0-2.231.9,3.247,3.247,0,0,0-.854,2.334V21H82.178V10.2h1.8l.3,1.9h.117a4.279,4.279,0,0,1,1.4-1.533A3.331,3.331,0,0,1,87.656,10Zm9.9,11L97.1,19.5h-.078a4.425,4.425,0,0,1-1.572,1.343,4.972,4.972,0,0,1-2.031.356,3.438,3.438,0,0,1-2.485-.859,3.216,3.216,0,0,1-.894-2.432,2.855,2.855,0,0,1,1.24-2.52,7.151,7.151,0,0,1,3.779-.928l1.865-.059v-.576a2.184,2.184,0,0,0-.483-1.548,1.971,1.971,0,0,0-1.5-.513,5.183,5.183,0,0,0-1.592.244,12.012,12.012,0,0,0-1.465.576l-.742-1.641a7.987,7.987,0,0,1,1.924-.7A8.854,8.854,0,0,1,95.039,10a4.672,4.672,0,0,1,3.11.9,3.518,3.518,0,0,1,1.05,2.822V21Zm-3.418-1.562a2.843,2.843,0,0,0,2.007-.7,2.531,2.531,0,0,0,.757-1.958v-.937l-1.387.059a4.745,4.745,0,0,0-2.358.542,1.647,1.647,0,0,0-.737,1.479,1.444,1.444,0,0,0,.43,1.118A1.846,1.846,0,0,0,94.141,19.438Zm23.037-3.857a5.9,5.9,0,0,1-1.357,4.131,4.864,4.864,0,0,1-3.779,1.484,5.178,5.178,0,0,1-2.676-.684,4.513,4.513,0,0,1-1.787-1.963,6.685,6.685,0,0,1-.625-2.969,5.855,5.855,0,0,1,1.348-4.1A4.886,4.886,0,0,1,112.1,10a4.758,4.758,0,0,1,3.711,1.509A5.828,5.828,0,0,1,117.178,15.58Zm-7.861,0q0,3.74,2.764,3.74,2.734,0,2.734-3.74,0-3.7-2.754-3.7a2.348,2.348,0,0,0-2.095.957A4.87,4.87,0,0,0,109.316,15.58ZM125.293,10a5.524,5.524,0,0,1,1.143.1l-.225,2.139a4.338,4.338,0,0,0-1.016-.117,2.939,2.939,0,0,0-2.231.9,3.247,3.247,0,0,0-.854,2.334V21h-2.295V10.2h1.8l.3,1.9h.117a4.279,4.279,0,0,1,1.4-1.533A3.331,3.331,0,0,1,125.293,10Zm12.266.2v1.26l-1.846.342a2.979,2.979,0,0,1,.42.84A3.314,3.314,0,0,1,136.3,13.7a3.231,3.231,0,0,1-1.152,2.627,4.822,4.822,0,0,1-3.174.957,5.146,5.146,0,0,1-.937-.078,1.293,1.293,0,0,0-.742,1.074.6.6,0,0,0,.347.557,3,3,0,0,0,1.274.186H133.8a4.191,4.191,0,0,1,2.715.762,2.68,2.68,0,0,1,.928,2.2,3.2,3.2,0,0,1-1.514,2.832,7.97,7.97,0,0,1-4.375,1,6.038,6.038,0,0,1-3.369-.781,2.525,2.525,0,0,1-1.162-2.227,2.369,2.369,0,0,1,.63-1.675,3.375,3.375,0,0,1,1.763-.942,1.725,1.725,0,0,1-.757-.63,1.59,1.59,0,0,1-.3-.913,1.572,1.572,0,0,1,.342-1.025,3.943,3.943,0,0,1,1.016-.83,3.008,3.008,0,0,1-1.362-1.177,3.461,3.461,0,0,1-.522-1.909,3.423,3.423,0,0,1,1.108-2.725A4.66,4.66,0,0,1,132.1,10a7.69,7.69,0,0,1,.962.063,6.056,6.056,0,0,1,.757.132Zm-8.486,12.48a1.262,1.262,0,0,0,.669,1.143,3.677,3.677,0,0,0,1.88.4,5.68,5.68,0,0,0,2.793-.537,1.61,1.61,0,0,0,.918-1.426,1.07,1.07,0,0,0-.5-1,4.039,4.039,0,0,0-1.87-.3h-1.738a2.443,2.443,0,0,0-1.567.464A1.521,1.521,0,0,0,129.072,22.68Zm.986-8.984a2.173,2.173,0,0,0,.522,1.563,1.976,1.976,0,0,0,1.5.547q1.992,0,1.992-2.129a2.415,2.415,0,0,0-.493-1.626,1.874,1.874,0,0,0-1.5-.571,1.932,1.932,0,0,0-1.509.566A2.381,2.381,0,0,0,130.059,13.7Zm16.26,7.3-.459-1.5h-.078a4.425,4.425,0,0,1-1.572,1.343,4.972,4.972,0,0,1-2.031.356,3.438,3.438,0,0,1-2.485-.859A3.216,3.216,0,0,1,138.8,17.9a2.855,2.855,0,0,1,1.24-2.52,7.151,7.151,0,0,1,3.779-.928l1.865-.059v-.576a2.184,2.184,0,0,0-.483-1.548,1.971,1.971,0,0,0-1.5-.513,5.183,5.183,0,0,0-1.592.244,12.012,12.012,0,0,0-1.465.576l-.742-1.641a7.988,7.988,0,0,1,1.924-.7A8.854,8.854,0,0,1,143.8,10a4.672,4.672,0,0,1,3.11.9,3.518,3.518,0,0,1,1.05,2.822V21ZM142.9,19.438a2.843,2.843,0,0,0,2.007-.7,2.531,2.531,0,0,0,.757-1.958v-.937l-1.387.059a4.745,4.745,0,0,0-2.358.542,1.647,1.647,0,0,0-.737,1.479,1.444,1.444,0,0,0,.43,1.118A1.846,1.846,0,0,0,142.9,19.438ZM160.664,21h-2.3V14.359a2.906,2.906,0,0,0-.5-1.865,1.944,1.944,0,0,0-1.6-.615,2.539,2.539,0,0,0-2.129.859,4.745,4.745,0,0,0-.674,2.881V21h-2.295V10.2h1.8l.322,1.416h.117a3.2,3.2,0,0,1,1.387-1.191,4.647,4.647,0,0,1,1.992-.42q3.887,0,3.887,3.955Zm5.488,0h-2.295V10.2h2.295ZM163.721,7.338a1.271,1.271,0,0,1,.337-.947,1.313,1.313,0,0,1,.962-.332,1.285,1.285,0,0,1,.942.332,1.271,1.271,0,0,1,.337.947,1.247,1.247,0,0,1-.337.923,1.274,1.274,0,0,1-.942.337,1.3,1.3,0,0,1-.962-.337A1.247,1.247,0,0,1,163.721,7.338ZM176.65,21h-8.193V19.584l5.459-7.627h-5.127V10.2h7.705v1.6l-5.342,7.441h5.5Zm9.1,0-.459-1.5h-.078a4.425,4.425,0,0,1-1.572,1.343,4.972,4.972,0,0,1-2.031.356,3.438,3.438,0,0,1-2.485-.859,3.216,3.216,0,0,1-.894-2.432,2.855,2.855,0,0,1,1.24-2.52,7.151,7.151,0,0,1,3.779-.928l1.865-.059v-.576a2.184,2.184,0,0,0-.483-1.548,1.971,1.971,0,0,0-1.5-.513,5.183,5.183,0,0,0-1.592.244,12.012,12.012,0,0,0-1.465.576l-.742-1.641a7.988,7.988,0,0,1,1.924-.7A8.854,8.854,0,0,1,183.232,10a4.672,4.672,0,0,1,3.11.9,3.518,3.518,0,0,1,1.05,2.822V21Zm-3.418-1.562a2.843,2.843,0,0,0,2.007-.7,2.531,2.531,0,0,0,.757-1.958v-.937l-1.387.059a4.745,4.745,0,0,0-2.358.542,1.647,1.647,0,0,0-.737,1.479,1.444,1.444,0,0,0,.43,1.118A1.846,1.846,0,0,0,182.334,19.438ZM194.951,21.2a4.729,4.729,0,0,1-3.726-1.431,5.977,5.977,0,0,1-1.274-4.106,6.011,6.011,0,0,1,1.333-4.189A4.945,4.945,0,0,1,195.137,10a7.22,7.22,0,0,1,3.076.635l-.693,1.846a6.95,6.95,0,0,0-2.4-.566q-2.8,0-2.8,3.721a4.456,4.456,0,0,0,.7,2.729,2.417,2.417,0,0,0,2.046.913,5.87,5.87,0,0,0,2.9-.762v2a4.532,4.532,0,0,1-1.313.518A7.882,7.882,0,0,1,194.951,21.2Zm7.842-.2H200.5V10.2h2.295ZM200.361,7.338a1.271,1.271,0,0,1,.337-.947,1.313,1.313,0,0,1,.962-.332,1.285,1.285,0,0,1,.942.332,1.271,1.271,0,0,1,.337.947,1.247,1.247,0,0,1-.337.923,1.274,1.274,0,0,1-.942.337,1.3,1.3,0,0,1-.962-.337A1.247,1.247,0,0,1,200.361,7.338Zm15.293,8.242a5.9,5.9,0,0,1-1.357,4.131,4.864,4.864,0,0,1-3.779,1.484,5.178,5.178,0,0,1-2.676-.684,4.513,4.513,0,0,1-1.787-1.963,6.685,6.685,0,0,1-.625-2.969,5.855,5.855,0,0,1,1.348-4.1,4.886,4.886,0,0,1,3.8-1.475,4.758,4.758,0,0,1,3.711,1.509A5.828,5.828,0,0,1,215.654,15.58Zm-7.861,0q0,3.74,2.764,3.74,2.734,0,2.734-3.74,0-3.7-2.754-3.7a2.348,2.348,0,0,0-2.095.957A4.87,4.87,0,0,0,207.793,15.58Zm20,5.42h-2.3V14.359a2.906,2.906,0,0,0-.5-1.865,1.944,1.944,0,0,0-1.6-.615,2.539,2.539,0,0,0-2.129.859,4.745,4.745,0,0,0-.674,2.881V21h-2.295V10.2h1.8l.322,1.416h.117a3.2,3.2,0,0,1,1.387-1.191,4.647,4.647,0,0,1,1.992-.42q3.887,0,3.887,3.955Zm9.951,0-.459-1.5h-.078a4.425,4.425,0,0,1-1.572,1.343,4.972,4.972,0,0,1-2.031.356,3.438,3.438,0,0,1-2.485-.859,3.216,3.216,0,0,1-.894-2.432,2.855,2.855,0,0,1,1.24-2.52,7.151,7.151,0,0,1,3.779-.928l1.865-.059v-.576a2.184,2.184,0,0,0-.483-1.548,1.971,1.971,0,0,0-1.5-.513,5.183,5.183,0,0,0-1.592.244,12.012,12.012,0,0,0-1.465.576l-.742-1.641a7.988,7.988,0,0,1,1.924-.7A8.854,8.854,0,0,1,235.225,10a4.672,4.672,0,0,1,3.11.9,3.518,3.518,0,0,1,1.05,2.822V21Zm-3.418-1.562a2.843,2.843,0,0,0,2.007-.7,2.531,2.531,0,0,0,.757-1.958v-.937L235.7,15.9a4.745,4.745,0,0,0-2.358.542,1.647,1.647,0,0,0-.737,1.479,1.444,1.444,0,0,0,.43,1.118A1.846,1.846,0,0,0,234.326,19.438ZM244.883,21h-2.295V5.8h2.295Zm2.939-1.221a1.5,1.5,0,0,1,.371-1.094,1.432,1.432,0,0,1,1.074-.381,1.415,1.415,0,0,1,1.084.4,1.514,1.514,0,0,1,.371,1.079,1.552,1.552,0,0,1-.376,1.1,1.64,1.64,0,0,1-2.153,0A1.561,1.561,0,0,1,247.822,19.779Z" transform="translate(900.298 6383.227)" fill="#12263f"/>
    <path id="Trazado_228315" data-name="Trazado 228315" d="M13.5,13.725a7.115,7.115,0,0,1-1.963,5.405A7.884,7.884,0,0,1,5.879,21H1.885V6.723H6.3a7.3,7.3,0,0,1,5.3,1.836A6.86,6.86,0,0,1,13.5,13.725Zm-2.461.078q0-5.127-4.795-5.127H4.219V19.037h1.66Q11.035,19.037,11.035,13.8Zm10,7.393a5.225,5.225,0,0,1-3.94-1.47,5.579,5.579,0,0,1-1.421-4.048,6.121,6.121,0,0,1,1.318-4.16A4.554,4.554,0,0,1,20.615,10a4.451,4.451,0,0,1,3.379,1.3,4.963,4.963,0,0,1,1.24,3.574v1.24h-7.2a3.548,3.548,0,0,0,.85,2.417,2.959,2.959,0,0,0,2.256.845,8.328,8.328,0,0,0,1.782-.181,9.342,9.342,0,0,0,1.772-.6v1.865a7.046,7.046,0,0,1-1.7.566A10.419,10.419,0,0,1,21.035,21.2Zm-.42-9.453a2.306,2.306,0,0,0-1.753.693,3.3,3.3,0,0,0-.786,2.021h4.9a2.99,2.99,0,0,0-.645-2.026A2.2,2.2,0,0,0,20.615,11.742ZM37.393,21.2a4.729,4.729,0,0,1-3.726-1.431,5.977,5.977,0,0,1-1.274-4.106,6.011,6.011,0,0,1,1.333-4.189A4.945,4.945,0,0,1,37.578,10a7.22,7.22,0,0,1,3.076.635l-.693,1.846a6.95,6.95,0,0,0-2.4-.566q-2.8,0-2.8,3.721a4.456,4.456,0,0,0,.7,2.729,2.417,2.417,0,0,0,2.046.913,5.87,5.87,0,0,0,2.9-.762v2a4.532,4.532,0,0,1-1.313.518A7.882,7.882,0,0,1,37.393,21.2ZM52.52,15.58a5.9,5.9,0,0,1-1.357,4.131A4.864,4.864,0,0,1,47.383,21.2a5.178,5.178,0,0,1-2.676-.684,4.513,4.513,0,0,1-1.787-1.963,6.685,6.685,0,0,1-.625-2.969,5.855,5.855,0,0,1,1.348-4.1A4.886,4.886,0,0,1,47.441,10a4.758,4.758,0,0,1,3.711,1.509A5.828,5.828,0,0,1,52.52,15.58Zm-7.861,0q0,3.74,2.764,3.74,2.734,0,2.734-3.74,0-3.7-2.754-3.7a2.348,2.348,0,0,0-2.095.957A4.87,4.87,0,0,0,44.658,15.58ZM64.258,21h-2.3V14.34a3.02,3.02,0,0,0-.469-1.851,1.73,1.73,0,0,0-1.465-.61,2.234,2.234,0,0,0-1.948.864,5.071,5.071,0,0,0-.62,2.876V21H55.156V10.2h1.8l.322,1.416h.117a2.992,2.992,0,0,1,1.3-1.191,4.2,4.2,0,0,1,1.88-.42q2.49,0,3.3,1.7h.156a3.293,3.293,0,0,1,1.348-1.25A4.277,4.277,0,0,1,67.373,10a3.628,3.628,0,0,1,2.817.977,4.325,4.325,0,0,1,.884,2.979V21H68.779V14.34a3,3,0,0,0-.474-1.851,1.744,1.744,0,0,0-1.47-.61,2.278,2.278,0,0,0-1.958.835,4.3,4.3,0,0,0-.62,2.563Zm17.637,0-.322-1.416h-.117a3.256,3.256,0,0,1-1.362,1.182,4.555,4.555,0,0,1-2.017.43,3.959,3.959,0,0,1-2.93-.977,4.048,4.048,0,0,1-.967-2.959V10.2h2.314v6.66A2.889,2.889,0,0,0,77,18.72a1.939,1.939,0,0,0,1.592.62,2.534,2.534,0,0,0,2.124-.864,4.762,4.762,0,0,0,.679-2.9V10.2h2.3V21Zm14.58,0h-2.3V14.359a2.906,2.906,0,0,0-.5-1.865,1.944,1.944,0,0,0-1.6-.615,2.539,2.539,0,0,0-2.129.859,4.745,4.745,0,0,0-.674,2.881V21H86.973V10.2h1.8l.322,1.416h.117A3.2,3.2,0,0,1,90.6,10.424,4.647,4.647,0,0,1,92.588,10q3.887,0,3.887,3.955Zm5.488,0H99.668V10.2h2.295ZM99.531,7.338a1.271,1.271,0,0,1,.337-.947,1.313,1.313,0,0,1,.962-.332,1.285,1.285,0,0,1,.942.332,1.271,1.271,0,0,1,.337.947,1.247,1.247,0,0,1-.337.923,1.274,1.274,0,0,1-.942.337,1.3,1.3,0,0,1-.962-.337A1.247,1.247,0,0,1,99.531,7.338ZM109.6,21.2a4.729,4.729,0,0,1-3.726-1.431,5.977,5.977,0,0,1-1.274-4.106,6.011,6.011,0,0,1,1.333-4.189A4.945,4.945,0,0,1,109.785,10a7.22,7.22,0,0,1,3.076.635l-.693,1.846a6.95,6.95,0,0,0-2.4-.566q-2.8,0-2.8,3.721a4.456,4.456,0,0,0,.7,2.729,2.417,2.417,0,0,0,2.046.913,5.87,5.87,0,0,0,2.9-.762v2a4.532,4.532,0,0,1-1.313.518A7.882,7.882,0,0,1,109.6,21.2Zm12.3-.2-.459-1.5h-.078a4.425,4.425,0,0,1-1.572,1.343,4.972,4.972,0,0,1-2.031.356,3.438,3.438,0,0,1-2.485-.859,3.216,3.216,0,0,1-.894-2.432,2.855,2.855,0,0,1,1.24-2.52,7.151,7.151,0,0,1,3.779-.928l1.865-.059v-.576a2.184,2.184,0,0,0-.483-1.548,1.971,1.971,0,0,0-1.5-.513,5.183,5.183,0,0,0-1.592.244,12.012,12.012,0,0,0-1.465.576l-.742-1.641a7.987,7.987,0,0,1,1.924-.7A8.854,8.854,0,0,1,119.385,10a4.672,4.672,0,0,1,3.11.9,3.518,3.518,0,0,1,1.05,2.822V21Zm-3.418-1.562a2.843,2.843,0,0,0,2.007-.7,2.531,2.531,0,0,0,.757-1.958v-.937l-1.387.059a4.745,4.745,0,0,0-2.358.542,1.647,1.647,0,0,0-.737,1.479,1.444,1.444,0,0,0,.43,1.118A1.846,1.846,0,0,0,118.486,19.438ZM131.1,21.2a4.729,4.729,0,0,1-3.726-1.431,5.977,5.977,0,0,1-1.274-4.106,6.011,6.011,0,0,1,1.333-4.189A4.945,4.945,0,0,1,131.289,10a7.22,7.22,0,0,1,3.076.635l-.693,1.846a6.95,6.95,0,0,0-2.4-.566q-2.8,0-2.8,3.721a4.456,4.456,0,0,0,.7,2.729,2.417,2.417,0,0,0,2.046.913,5.87,5.87,0,0,0,2.9-.762v2a4.532,4.532,0,0,1-1.313.518A7.882,7.882,0,0,1,131.1,21.2Zm7.842-.2H136.65V10.2h2.295ZM136.514,7.338a1.271,1.271,0,0,1,.337-.947,1.313,1.313,0,0,1,.962-.332,1.285,1.285,0,0,1,.942.332,1.271,1.271,0,0,1,.337.947,1.247,1.247,0,0,1-.337.923,1.274,1.274,0,0,1-.942.337,1.3,1.3,0,0,1-.962-.337A1.247,1.247,0,0,1,136.514,7.338Zm15.293,8.242a5.9,5.9,0,0,1-1.357,4.131A4.864,4.864,0,0,1,146.67,21.2a5.178,5.178,0,0,1-2.676-.684,4.513,4.513,0,0,1-1.787-1.963,6.685,6.685,0,0,1-.625-2.969,5.855,5.855,0,0,1,1.348-4.1,4.886,4.886,0,0,1,3.8-1.475,4.758,4.758,0,0,1,3.711,1.509A5.828,5.828,0,0,1,151.807,15.58Zm-7.861,0q0,3.74,2.764,3.74,2.734,0,2.734-3.74,0-3.7-2.754-3.7a2.348,2.348,0,0,0-2.095.957A4.87,4.87,0,0,0,143.945,15.58Zm1.26-6.7V8.637q.557-.684,1.147-1.523t.933-1.436h2.666v.205a20.054,20.054,0,0,1-1.519,1.538,21.412,21.412,0,0,1-1.7,1.46ZM163.945,21h-2.3V14.359a2.906,2.906,0,0,0-.5-1.865,1.944,1.944,0,0,0-1.6-.615,2.539,2.539,0,0,0-2.129.859,4.745,4.745,0,0,0-.674,2.881V21h-2.295V10.2h1.8l.322,1.416h.117a3.2,3.2,0,0,1,1.387-1.191,4.647,4.647,0,0,1,1.992-.42q3.887,0,3.887,3.955Zm2.852-1.221a1.5,1.5,0,0,1,.371-1.094,1.432,1.432,0,0,1,1.074-.381,1.415,1.415,0,0,1,1.084.4,1.514,1.514,0,0,1,.371,1.079,1.552,1.552,0,0,1-.376,1.1,1.64,1.64,0,0,1-2.153,0A1.561,1.561,0,0,1,166.8,19.779Z" transform="translate(900.298 6300.227)" fill="#12263f"/>
    <path id="Trazado_228321" data-name="Trazado 228321" d="M11.338,11.039a4.163,4.163,0,0,1-1.465,3.428A6.454,6.454,0,0,1,5.7,15.658H4.219V21H1.885V6.723H6A6.22,6.22,0,0,1,10,7.816,3.926,3.926,0,0,1,11.338,11.039ZM4.219,13.7h1.24A4.444,4.444,0,0,0,8.1,13.07a2.275,2.275,0,0,0,.84-1.953,2.216,2.216,0,0,0-.752-1.836A3.714,3.714,0,0,0,5.84,8.676H4.219ZM19.424,10a5.524,5.524,0,0,1,1.143.1l-.225,2.139a4.338,4.338,0,0,0-1.016-.117,2.939,2.939,0,0,0-2.231.9,3.247,3.247,0,0,0-.854,2.334V21H13.945V10.2h1.8l.3,1.9h.117a4.279,4.279,0,0,1,1.4-1.533A3.331,3.331,0,0,1,19.424,10ZM32.148,15.58a5.9,5.9,0,0,1-1.357,4.131A4.864,4.864,0,0,1,27.012,21.2a5.178,5.178,0,0,1-2.676-.684,4.513,4.513,0,0,1-1.787-1.963,6.685,6.685,0,0,1-.625-2.969,5.855,5.855,0,0,1,1.348-4.1A4.886,4.886,0,0,1,27.07,10a4.758,4.758,0,0,1,3.711,1.509A5.828,5.828,0,0,1,32.148,15.58Zm-7.861,0q0,3.74,2.764,3.74,2.734,0,2.734-3.74,0-3.7-2.754-3.7a2.348,2.348,0,0,0-2.095.957A4.87,4.87,0,0,0,24.287,15.58ZM38.428,21.2a3.762,3.762,0,0,1-3.154-1.465,6.584,6.584,0,0,1-1.133-4.111,6.605,6.605,0,0,1,1.147-4.136A3.8,3.8,0,0,1,38.467,10a3.723,3.723,0,0,1,3.242,1.572h.117A13.757,13.757,0,0,1,41.66,9.74V5.8h2.3V21h-1.8l-.4-1.416H41.66A3.669,3.669,0,0,1,38.428,21.2Zm.615-1.855a2.5,2.5,0,0,0,2.061-.8,4.19,4.19,0,0,0,.664-2.583v-.322a4.841,4.841,0,0,0-.664-2.9,2.463,2.463,0,0,0-2.08-.859,2.11,2.11,0,0,0-1.865.981,5.03,5.03,0,0,0-.654,2.8,4.9,4.9,0,0,0,.635,2.739A2.143,2.143,0,0,0,39.043,19.34ZM54.863,21l-.322-1.416h-.117a3.256,3.256,0,0,1-1.362,1.182,4.555,4.555,0,0,1-2.017.43,3.959,3.959,0,0,1-2.93-.977,4.048,4.048,0,0,1-.967-2.959V10.2h2.314v6.66a2.889,2.889,0,0,0,.508,1.86,1.939,1.939,0,0,0,1.592.62,2.534,2.534,0,0,0,2.124-.864,4.762,4.762,0,0,0,.679-2.9V10.2h2.3V21Zm9.434.2a4.729,4.729,0,0,1-3.726-1.431A5.977,5.977,0,0,1,59.3,15.658a6.011,6.011,0,0,1,1.333-4.189A4.945,4.945,0,0,1,64.482,10a7.22,7.22,0,0,1,3.076.635l-.693,1.846a6.95,6.95,0,0,0-2.4-.566q-2.8,0-2.8,3.721a4.456,4.456,0,0,0,.7,2.729,2.417,2.417,0,0,0,2.046.913,5.87,5.87,0,0,0,2.9-.762v2a4.532,4.532,0,0,1-1.313.518A7.882,7.882,0,0,1,64.3,21.2Zm9.57-1.855a5.581,5.581,0,0,0,1.68-.264V20.8a4.633,4.633,0,0,1-.981.278,6.762,6.762,0,0,1-1.245.112q-3.262,0-3.262-3.437v-5.82H68.584V10.922l1.582-.84L70.947,7.8h1.416v2.4h3.076v1.738H72.363v5.781a1.622,1.622,0,0,0,.415,1.226A1.513,1.513,0,0,0,73.867,19.34Zm13.418-3.76a5.9,5.9,0,0,1-1.357,4.131A4.864,4.864,0,0,1,82.148,21.2a5.178,5.178,0,0,1-2.676-.684,4.513,4.513,0,0,1-1.787-1.963,6.685,6.685,0,0,1-.625-2.969,5.855,5.855,0,0,1,1.348-4.1A4.886,4.886,0,0,1,82.207,10a4.758,4.758,0,0,1,3.711,1.509A5.828,5.828,0,0,1,87.285,15.58Zm-7.861,0q0,3.74,2.764,3.74,2.734,0,2.734-3.74,0-3.7-2.754-3.7a2.348,2.348,0,0,0-2.095.957A4.87,4.87,0,0,0,79.424,15.58Zm10.156,4.2a1.5,1.5,0,0,1,.371-1.094,1.432,1.432,0,0,1,1.074-.381,1.415,1.415,0,0,1,1.084.4,1.514,1.514,0,0,1,.371,1.079,1.552,1.552,0,0,1-.376,1.1,1.64,1.64,0,0,1-2.153,0A1.561,1.561,0,0,1,89.58,19.779Z" transform="translate(900.298 6549.227)" fill="#12263f"/>
    <path id="Trazado_228309" data-name="Trazado 228309" d="M10.742,21,9.316,17.035H3.857L2.461,21H0L5.342,6.664H7.881L13.223,21ZM8.7,15.023,7.363,11.137q-.146-.391-.405-1.23T6.6,8.676A21.886,21.886,0,0,1,5.83,11.3L4.541,15.023ZM24.365,21h-2.3V14.359a2.906,2.906,0,0,0-.5-1.865,1.944,1.944,0,0,0-1.6-.615,2.539,2.539,0,0,0-2.129.859,4.745,4.745,0,0,0-.674,2.881V21H14.863V10.2h1.8l.322,1.416H17.1a3.2,3.2,0,0,1,1.387-1.191A4.647,4.647,0,0,1,20.479,10q3.887,0,3.887,3.955Zm9.951,0-.459-1.5h-.078a4.425,4.425,0,0,1-1.572,1.343,4.972,4.972,0,0,1-2.031.356,3.438,3.438,0,0,1-2.485-.859A3.216,3.216,0,0,1,26.8,17.9a2.855,2.855,0,0,1,1.24-2.52,7.151,7.151,0,0,1,3.779-.928l1.865-.059v-.576a2.184,2.184,0,0,0-.483-1.548,1.971,1.971,0,0,0-1.5-.513,5.183,5.183,0,0,0-1.592.244,12.012,12.012,0,0,0-1.465.576L27.9,10.941a7.988,7.988,0,0,1,1.924-.7A8.854,8.854,0,0,1,31.8,10a4.672,4.672,0,0,1,3.11.9,3.518,3.518,0,0,1,1.05,2.822V21ZM30.9,19.438a2.843,2.843,0,0,0,2.007-.7,2.531,2.531,0,0,0,.757-1.958v-.937l-1.387.059a4.745,4.745,0,0,0-2.358.542,1.647,1.647,0,0,0-.737,1.479,1.444,1.444,0,0,0,.43,1.118A1.846,1.846,0,0,0,30.9,19.438ZM30.2,8.881V8.637q.557-.684,1.147-1.523t.933-1.436h2.666v.205a20.053,20.053,0,0,1-1.519,1.538,21.411,21.411,0,0,1-1.7,1.46ZM41.455,21H39.16V5.8h2.295Zm5.576,0H44.736V10.2h2.295ZM44.6,7.338a1.271,1.271,0,0,1,.337-.947,1.313,1.313,0,0,1,.962-.332,1.285,1.285,0,0,1,.942.332,1.271,1.271,0,0,1,.337.947,1.247,1.247,0,0,1-.337.923A1.274,1.274,0,0,1,45.9,8.6a1.3,1.3,0,0,1-.962-.337A1.247,1.247,0,0,1,44.6,7.338ZM57.568,17.924a2.826,2.826,0,0,1-1.152,2.427,5.518,5.518,0,0,1-3.3.845,7.8,7.8,0,0,1-3.467-.654V18.559a8.511,8.511,0,0,0,3.545.879q2.119,0,2.119-1.279a1.013,1.013,0,0,0-.234-.684,2.774,2.774,0,0,0-.771-.566,13.277,13.277,0,0,0-1.494-.664A6.912,6.912,0,0,1,50.288,14.8a2.674,2.674,0,0,1-.659-1.875,2.463,2.463,0,0,1,1.118-2.153A5.306,5.306,0,0,1,53.789,10a8.616,8.616,0,0,1,3.6.771L56.65,12.5a8.015,8.015,0,0,0-2.939-.723q-1.816,0-1.816,1.035a1.041,1.041,0,0,0,.474.859,10.416,10.416,0,0,0,2.065.967,9.441,9.441,0,0,1,1.943.947,2.831,2.831,0,0,1,.9.991A2.869,2.869,0,0,1,57.568,17.924ZM62.344,21H60.049V10.2h2.295ZM59.912,7.338a1.271,1.271,0,0,1,.337-.947,1.313,1.313,0,0,1,.962-.332,1.285,1.285,0,0,1,.942.332,1.271,1.271,0,0,1,.337.947,1.247,1.247,0,0,1-.337.923,1.274,1.274,0,0,1-.942.337,1.3,1.3,0,0,1-.962-.337A1.247,1.247,0,0,1,59.912,7.338ZM72.881,17.924a2.826,2.826,0,0,1-1.152,2.427,5.518,5.518,0,0,1-3.3.845,7.8,7.8,0,0,1-3.467-.654V18.559a8.511,8.511,0,0,0,3.545.879q2.119,0,2.119-1.279a1.013,1.013,0,0,0-.234-.684,2.774,2.774,0,0,0-.771-.566,13.276,13.276,0,0,0-1.494-.664A6.912,6.912,0,0,1,65.6,14.8a2.674,2.674,0,0,1-.659-1.875,2.463,2.463,0,0,1,1.118-2.153A5.306,5.306,0,0,1,69.1,10a8.616,8.616,0,0,1,3.6.771L71.963,12.5a8.015,8.015,0,0,0-2.939-.723q-1.816,0-1.816,1.035a1.041,1.041,0,0,0,.474.859,10.416,10.416,0,0,0,2.065.967,9.441,9.441,0,0,1,1.943.947,2.831,2.831,0,0,1,.9.991A2.869,2.869,0,0,1,72.881,17.924Zm13.1-5.986H83.34V21h-2.3V11.938H79.258V10.863l1.777-.7v-.7a3.93,3.93,0,0,1,.9-2.837A3.673,3.673,0,0,1,84.678,5.7a7.323,7.323,0,0,1,2.383.4l-.605,1.738a5.291,5.291,0,0,0-1.621-.273,1.319,1.319,0,0,0-1.138.483A2.436,2.436,0,0,0,83.34,9.5v.7h2.637ZM90.107,21H87.813V10.2h2.295ZM87.676,7.338a1.271,1.271,0,0,1,.337-.947,1.313,1.313,0,0,1,.962-.332,1.285,1.285,0,0,1,.942.332,1.271,1.271,0,0,1,.337.947,1.247,1.247,0,0,1-.337.923,1.274,1.274,0,0,1-.942.337,1.3,1.3,0,0,1-.962-.337A1.247,1.247,0,0,1,87.676,7.338ZM102.9,21h-2.3V14.359a2.906,2.906,0,0,0-.5-1.865,1.944,1.944,0,0,0-1.6-.615,2.539,2.539,0,0,0-2.129.859,4.745,4.745,0,0,0-.674,2.881V21H93.4V10.2h1.8l.322,1.416h.117a3.2,3.2,0,0,1,1.387-1.191A4.647,4.647,0,0,1,99.014,10q3.887,0,3.887,3.955Zm9.951,0-.459-1.5h-.078a4.425,4.425,0,0,1-1.572,1.343,4.972,4.972,0,0,1-2.031.356,3.438,3.438,0,0,1-2.485-.859,3.216,3.216,0,0,1-.894-2.432,2.855,2.855,0,0,1,1.24-2.52,7.151,7.151,0,0,1,3.779-.928l1.865-.059v-.576a2.184,2.184,0,0,0-.483-1.548,1.971,1.971,0,0,0-1.5-.513,5.183,5.183,0,0,0-1.592.244,12.012,12.012,0,0,0-1.465.576l-.742-1.641a7.987,7.987,0,0,1,1.924-.7A8.854,8.854,0,0,1,110.332,10a4.672,4.672,0,0,1,3.11.9,3.518,3.518,0,0,1,1.05,2.822V21Zm-3.418-1.562a2.843,2.843,0,0,0,2.007-.7,2.531,2.531,0,0,0,.757-1.958v-.937l-1.387.059a4.745,4.745,0,0,0-2.358.542,1.647,1.647,0,0,0-.737,1.479,1.444,1.444,0,0,0,.43,1.118A1.846,1.846,0,0,0,109.434,19.438ZM127.2,21h-2.3V14.359a2.906,2.906,0,0,0-.5-1.865,1.944,1.944,0,0,0-1.6-.615,2.539,2.539,0,0,0-2.129.859,4.745,4.745,0,0,0-.674,2.881V21H117.7V10.2h1.8l.322,1.416h.117a3.2,3.2,0,0,1,1.387-1.191,4.647,4.647,0,0,1,1.992-.42q3.887,0,3.887,3.955Zm7.549.2a4.729,4.729,0,0,1-3.726-1.431,5.977,5.977,0,0,1-1.274-4.106,6.011,6.011,0,0,1,1.333-4.189A4.945,4.945,0,0,1,134.932,10a7.22,7.22,0,0,1,3.076.635l-.693,1.846a6.95,6.95,0,0,0-2.4-.566q-2.8,0-2.8,3.721a4.456,4.456,0,0,0,.7,2.729,2.417,2.417,0,0,0,2.046.913,5.87,5.87,0,0,0,2.9-.762v2a4.532,4.532,0,0,1-1.313.518A7.882,7.882,0,0,1,134.746,21.2Zm7.842-.2h-2.295V10.2h2.295ZM140.156,7.338a1.271,1.271,0,0,1,.337-.947,1.313,1.313,0,0,1,.962-.332,1.285,1.285,0,0,1,.942.332,1.271,1.271,0,0,1,.337.947,1.247,1.247,0,0,1-.337.923,1.274,1.274,0,0,1-.942.337,1.3,1.3,0,0,1-.962-.337A1.247,1.247,0,0,1,140.156,7.338ZM150.586,21.2a5.225,5.225,0,0,1-3.94-1.47,5.579,5.579,0,0,1-1.421-4.048,6.121,6.121,0,0,1,1.318-4.16A4.554,4.554,0,0,1,150.166,10a4.451,4.451,0,0,1,3.379,1.3,4.963,4.963,0,0,1,1.24,3.574v1.24h-7.2a3.547,3.547,0,0,0,.85,2.417,2.959,2.959,0,0,0,2.256.845,8.328,8.328,0,0,0,1.782-.181,9.342,9.342,0,0,0,1.772-.6v1.865a7.046,7.046,0,0,1-1.7.566A10.42,10.42,0,0,1,150.586,21.2Zm-.42-9.453a2.306,2.306,0,0,0-1.753.693,3.3,3.3,0,0,0-.786,2.021h4.9a2.99,2.99,0,0,0-.645-2.026A2.2,2.2,0,0,0,150.166,11.742ZM162.871,10a5.524,5.524,0,0,1,1.143.1l-.225,2.139a4.337,4.337,0,0,0-1.016-.117,2.939,2.939,0,0,0-2.231.9,3.248,3.248,0,0,0-.854,2.334V21h-2.295V10.2h1.8l.3,1.9h.117a4.279,4.279,0,0,1,1.4-1.533A3.331,3.331,0,0,1,162.871,10ZM175.6,15.58a5.9,5.9,0,0,1-1.357,4.131,4.864,4.864,0,0,1-3.779,1.484,5.178,5.178,0,0,1-2.676-.684A4.513,4.513,0,0,1,166,18.549a6.685,6.685,0,0,1-.625-2.969,5.855,5.855,0,0,1,1.348-4.1,4.886,4.886,0,0,1,3.8-1.475,4.758,4.758,0,0,1,3.711,1.509A5.828,5.828,0,0,1,175.6,15.58Zm-7.861,0q0,3.74,2.764,3.74,2.734,0,2.734-3.74,0-3.7-2.754-3.7a2.348,2.348,0,0,0-2.095.957A4.87,4.87,0,0,0,167.734,15.58Zm10.156,4.2a1.5,1.5,0,0,1,.371-1.094,1.432,1.432,0,0,1,1.074-.381,1.415,1.415,0,0,1,1.084.4,1.514,1.514,0,0,1,.371,1.079,1.552,1.552,0,0,1-.376,1.1,1.64,1.64,0,0,1-2.153,0A1.561,1.561,0,0,1,177.891,19.779Z" transform="translate(900.298 6051.227)" fill="#12263f"/>
    <path id="Trazado_228313" data-name="Trazado 228313" d="M4.219,13.363H5.84A3.7,3.7,0,0,0,8.2,12.758a2.2,2.2,0,0,0,.732-1.8,1.934,1.934,0,0,0-.791-1.738A4.337,4.337,0,0,0,5.762,8.7H4.219Zm0,1.934V21H1.885V6.723H5.918A6.627,6.627,0,0,1,10.01,7.758a3.717,3.717,0,0,1,1.328,3.125,3.906,3.906,0,0,1-2.773,3.8L12.6,21H9.941L6.523,15.3Zm14.922,5.9a5.225,5.225,0,0,1-3.94-1.47,5.579,5.579,0,0,1-1.421-4.048,6.121,6.121,0,0,1,1.318-4.16A4.554,4.554,0,0,1,18.721,10,4.451,4.451,0,0,1,22.1,11.3a4.963,4.963,0,0,1,1.24,3.574v1.24h-7.2a3.548,3.548,0,0,0,.85,2.417,2.959,2.959,0,0,0,2.256.845A8.328,8.328,0,0,0,21.03,19.2a9.342,9.342,0,0,0,1.772-.6v1.865a7.046,7.046,0,0,1-1.7.566A10.419,10.419,0,0,1,19.141,21.2Zm-.42-9.453a2.306,2.306,0,0,0-1.753.693,3.3,3.3,0,0,0-.786,2.021h4.9a2.99,2.99,0,0,0-.645-2.026A2.2,2.2,0,0,0,18.721,11.742ZM30.3,21.2a4.729,4.729,0,0,1-3.726-1.431A5.977,5.977,0,0,1,25.3,15.658a6.011,6.011,0,0,1,1.333-4.189A4.945,4.945,0,0,1,30.488,10a7.22,7.22,0,0,1,3.076.635l-.693,1.846a6.95,6.95,0,0,0-2.4-.566q-2.8,0-2.8,3.721a4.456,4.456,0,0,0,.7,2.729,2.417,2.417,0,0,0,2.046.913,5.87,5.87,0,0,0,2.9-.762v2A4.532,4.532,0,0,1,32,21.039,7.882,7.882,0,0,1,30.3,21.2ZM43.467,21l-.322-1.416h-.117a3.256,3.256,0,0,1-1.362,1.182,4.555,4.555,0,0,1-2.017.43,3.959,3.959,0,0,1-2.93-.977,4.048,4.048,0,0,1-.967-2.959V10.2h2.314v6.66a2.889,2.889,0,0,0,.508,1.86,1.939,1.939,0,0,0,1.592.62,2.534,2.534,0,0,0,2.124-.864,4.762,4.762,0,0,0,.679-2.9V10.2h2.3V21ZM54.023,10a5.524,5.524,0,0,1,1.143.1l-.225,2.139a4.338,4.338,0,0,0-1.016-.117,2.939,2.939,0,0,0-2.231.9,3.248,3.248,0,0,0-.854,2.334V21H48.545V10.2h1.8l.3,1.9h.117a4.279,4.279,0,0,1,1.4-1.533A3.331,3.331,0,0,1,54.023,10Zm10.4,7.92a2.826,2.826,0,0,1-1.152,2.427,5.518,5.518,0,0,1-3.3.845,7.8,7.8,0,0,1-3.467-.654V18.559a8.511,8.511,0,0,0,3.545.879q2.119,0,2.119-1.279a1.013,1.013,0,0,0-.234-.684,2.774,2.774,0,0,0-.771-.566,13.277,13.277,0,0,0-1.494-.664A6.912,6.912,0,0,1,57.144,14.8a2.674,2.674,0,0,1-.659-1.875A2.463,2.463,0,0,1,57.6,10.771,5.306,5.306,0,0,1,60.645,10a8.616,8.616,0,0,1,3.6.771L63.506,12.5a8.015,8.015,0,0,0-2.939-.723q-1.816,0-1.816,1.035a1.041,1.041,0,0,0,.474.859,10.416,10.416,0,0,0,2.065.967,9.441,9.441,0,0,1,1.943.947,2.831,2.831,0,0,1,.9.991A2.869,2.869,0,0,1,64.424,17.924ZM76.484,15.58a5.9,5.9,0,0,1-1.357,4.131A4.864,4.864,0,0,1,71.348,21.2a5.178,5.178,0,0,1-2.676-.684,4.513,4.513,0,0,1-1.787-1.963,6.685,6.685,0,0,1-.625-2.969,5.855,5.855,0,0,1,1.348-4.1A4.886,4.886,0,0,1,71.406,10a4.758,4.758,0,0,1,3.711,1.509A5.828,5.828,0,0,1,76.484,15.58Zm-7.861,0q0,3.74,2.764,3.74,2.734,0,2.734-3.74,0-3.7-2.754-3.7a2.348,2.348,0,0,0-2.095.957A4.87,4.87,0,0,0,68.623,15.58Zm17.754,2.344a2.826,2.826,0,0,1-1.152,2.427,5.518,5.518,0,0,1-3.3.845,7.8,7.8,0,0,1-3.467-.654V18.559A8.511,8.511,0,0,0,82,19.438q2.119,0,2.119-1.279a1.013,1.013,0,0,0-.234-.684,2.774,2.774,0,0,0-.771-.566,13.276,13.276,0,0,0-1.494-.664A6.912,6.912,0,0,1,79.1,14.8a2.674,2.674,0,0,1-.659-1.875,2.463,2.463,0,0,1,1.118-2.153A5.306,5.306,0,0,1,82.6,10a8.616,8.616,0,0,1,3.6.771L85.459,12.5a8.015,8.015,0,0,0-2.939-.723q-1.816,0-1.816,1.035a1.041,1.041,0,0,0,.474.859,10.416,10.416,0,0,0,2.065.967,9.441,9.441,0,0,1,1.943.947,2.831,2.831,0,0,1,.9.991A2.869,2.869,0,0,1,86.377,17.924ZM103.555,21h-2.3V14.359a2.906,2.906,0,0,0-.5-1.865,1.944,1.944,0,0,0-1.6-.615,2.534,2.534,0,0,0-2.124.864,4.762,4.762,0,0,0-.679,2.9V21H94.053V5.8h2.295V9.662a18,18,0,0,1-.117,1.982h.146a3.187,3.187,0,0,1,1.3-1.211A4.2,4.2,0,0,1,99.629,10q3.926,0,3.926,3.955Zm10.811,0-.322-1.416h-.117a3.256,3.256,0,0,1-1.362,1.182,4.555,4.555,0,0,1-2.017.43,3.959,3.959,0,0,1-2.93-.977,4.048,4.048,0,0,1-.967-2.959V10.2h2.314v6.66a2.889,2.889,0,0,0,.508,1.86,1.939,1.939,0,0,0,1.592.62,2.534,2.534,0,0,0,2.124-.864,4.762,4.762,0,0,0,.679-2.9V10.2h2.3V21Zm14.18,0h-2.3V14.34a3.02,3.02,0,0,0-.469-1.851,1.73,1.73,0,0,0-1.465-.61,2.234,2.234,0,0,0-1.948.864,5.071,5.071,0,0,0-.62,2.876V21h-2.295V10.2h1.8l.322,1.416h.117a2.992,2.992,0,0,1,1.3-1.191,4.2,4.2,0,0,1,1.88-.42q2.49,0,3.3,1.7h.156a3.293,3.293,0,0,1,1.348-1.25A4.277,4.277,0,0,1,131.66,10a3.628,3.628,0,0,1,2.817.977,4.325,4.325,0,0,1,.884,2.979V21h-2.295V14.34a3,3,0,0,0-.474-1.851,1.744,1.744,0,0,0-1.47-.61,2.278,2.278,0,0,0-1.958.835,4.3,4.3,0,0,0-.62,2.563Zm16.777,0-.459-1.5h-.078a4.425,4.425,0,0,1-1.572,1.343,4.972,4.972,0,0,1-2.031.356,3.438,3.438,0,0,1-2.485-.859A3.216,3.216,0,0,1,137.8,17.9a2.855,2.855,0,0,1,1.24-2.52,7.151,7.151,0,0,1,3.779-.928l1.865-.059v-.576a2.184,2.184,0,0,0-.483-1.548,1.971,1.971,0,0,0-1.5-.513,5.183,5.183,0,0,0-1.592.244,12.012,12.012,0,0,0-1.465.576l-.742-1.641a7.988,7.988,0,0,1,1.924-.7A8.854,8.854,0,0,1,142.8,10a4.672,4.672,0,0,1,3.11.9,3.518,3.518,0,0,1,1.05,2.822V21ZM141.9,19.438a2.843,2.843,0,0,0,2.007-.7,2.531,2.531,0,0,0,.757-1.958v-.937l-1.387.059a4.745,4.745,0,0,0-2.358.542,1.647,1.647,0,0,0-.737,1.479,1.444,1.444,0,0,0,.43,1.118A1.846,1.846,0,0,0,141.9,19.438ZM159.668,21h-2.3V14.359a2.906,2.906,0,0,0-.5-1.865,1.944,1.944,0,0,0-1.6-.615,2.539,2.539,0,0,0-2.129.859,4.745,4.745,0,0,0-.674,2.881V21h-2.295V10.2h1.8l.322,1.416h.117a3.2,3.2,0,0,1,1.387-1.191,4.647,4.647,0,0,1,1.992-.42q3.887,0,3.887,3.955Zm12.773-5.42a5.9,5.9,0,0,1-1.357,4.131A4.864,4.864,0,0,1,167.3,21.2a5.178,5.178,0,0,1-2.676-.684,4.513,4.513,0,0,1-1.787-1.963,6.685,6.685,0,0,1-.625-2.969,5.855,5.855,0,0,1,1.348-4.1,4.886,4.886,0,0,1,3.8-1.475,4.758,4.758,0,0,1,3.711,1.509A5.828,5.828,0,0,1,172.441,15.58Zm-7.861,0q0,3.74,2.764,3.74,2.734,0,2.734-3.74,0-3.7-2.754-3.7a2.348,2.348,0,0,0-2.095.957A4.87,4.87,0,0,0,164.58,15.58Zm17.754,2.344a2.826,2.826,0,0,1-1.152,2.427,5.518,5.518,0,0,1-3.3.845,7.8,7.8,0,0,1-3.467-.654V18.559a8.511,8.511,0,0,0,3.545.879q2.119,0,2.119-1.279a1.013,1.013,0,0,0-.234-.684,2.774,2.774,0,0,0-.771-.566,13.277,13.277,0,0,0-1.494-.664,6.912,6.912,0,0,1-2.524-1.445,2.674,2.674,0,0,1-.659-1.875,2.463,2.463,0,0,1,1.118-2.153A5.306,5.306,0,0,1,178.555,10a8.616,8.616,0,0,1,3.6.771l-.742,1.729a8.015,8.015,0,0,0-2.939-.723q-1.816,0-1.816,1.035a1.041,1.041,0,0,0,.474.859,10.415,10.415,0,0,0,2.065.967,9.441,9.441,0,0,1,1.943.947,2.831,2.831,0,0,1,.9.991A2.869,2.869,0,0,1,182.334,17.924Zm2.139,1.855a1.5,1.5,0,0,1,.371-1.094,1.432,1.432,0,0,1,1.074-.381,1.415,1.415,0,0,1,1.084.4,1.514,1.514,0,0,1,.371,1.079,1.552,1.552,0,0,1-.376,1.1,1.64,1.64,0,0,1-2.153,0A1.561,1.561,0,0,1,184.473,19.779Z" transform="translate(900.298 6217.227)" fill="#12263f"/>
    <path id="Trazado_228319" data-name="Trazado 228319" d="M4.2,21H1.885V6.723H9.941V8.7H4.2v4.463H9.58v1.982H4.2Zm14.844,0-.459-1.5h-.078a4.425,4.425,0,0,1-1.572,1.343A4.972,4.972,0,0,1,14.9,21.2a3.438,3.438,0,0,1-2.485-.859,3.216,3.216,0,0,1-.894-2.432,2.855,2.855,0,0,1,1.24-2.52,7.151,7.151,0,0,1,3.779-.928l1.865-.059v-.576a2.184,2.184,0,0,0-.483-1.548,1.971,1.971,0,0,0-1.5-.513,5.183,5.183,0,0,0-1.592.244,12.012,12.012,0,0,0-1.465.576l-.742-1.641a7.988,7.988,0,0,1,1.924-.7A8.854,8.854,0,0,1,16.523,10a4.672,4.672,0,0,1,3.11.9,3.518,3.518,0,0,1,1.05,2.822V21Zm-3.418-1.562a2.843,2.843,0,0,0,2.007-.7,2.531,2.531,0,0,0,.757-1.958v-.937L17,15.9a4.745,4.745,0,0,0-2.358.542,1.647,1.647,0,0,0-.737,1.479,1.444,1.444,0,0,0,.43,1.118A1.846,1.846,0,0,0,15.625,19.438ZM28.242,21.2a4.729,4.729,0,0,1-3.726-1.431,5.977,5.977,0,0,1-1.274-4.106,6.011,6.011,0,0,1,1.333-4.189A4.945,4.945,0,0,1,28.428,10a7.22,7.22,0,0,1,3.076.635l-.693,1.846a6.95,6.95,0,0,0-2.4-.566q-2.8,0-2.8,3.721a4.456,4.456,0,0,0,.7,2.729,2.417,2.417,0,0,0,2.046.913,5.87,5.87,0,0,0,2.9-.762v2a4.532,4.532,0,0,1-1.313.518A7.882,7.882,0,0,1,28.242,21.2Zm9.57-1.855a5.581,5.581,0,0,0,1.68-.264V20.8a4.633,4.633,0,0,1-.981.278,6.762,6.762,0,0,1-1.245.112Q34,21.2,34,17.758v-5.82H32.529V10.922l1.582-.84L34.893,7.8h1.416v2.4h3.076v1.738H36.309v5.781a1.622,1.622,0,0,0,.415,1.226A1.513,1.513,0,0,0,37.813,19.34ZM49.268,21l-.322-1.416h-.117a3.256,3.256,0,0,1-1.362,1.182,4.555,4.555,0,0,1-2.017.43,3.959,3.959,0,0,1-2.93-.977,4.048,4.048,0,0,1-.967-2.959V10.2h2.314v6.66a2.889,2.889,0,0,0,.508,1.86,1.939,1.939,0,0,0,1.592.62,2.534,2.534,0,0,0,2.124-.864,4.762,4.762,0,0,0,.679-2.9V10.2h2.3V21ZM59.824,10a5.524,5.524,0,0,1,1.143.1l-.225,2.139a4.338,4.338,0,0,0-1.016-.117,2.939,2.939,0,0,0-2.231.9,3.248,3.248,0,0,0-.854,2.334V21H54.346V10.2h1.8l.3,1.9h.117a4.279,4.279,0,0,1,1.4-1.533A3.331,3.331,0,0,1,59.824,10Zm9.9,11-.459-1.5h-.078a4.425,4.425,0,0,1-1.572,1.343,4.972,4.972,0,0,1-2.031.356,3.438,3.438,0,0,1-2.485-.859,3.216,3.216,0,0,1-.894-2.432,2.855,2.855,0,0,1,1.24-2.52,7.151,7.151,0,0,1,3.779-.928l1.865-.059v-.576a2.184,2.184,0,0,0-.483-1.548,1.971,1.971,0,0,0-1.5-.513,5.183,5.183,0,0,0-1.592.244,12.012,12.012,0,0,0-1.465.576l-.742-1.641a7.987,7.987,0,0,1,1.924-.7A8.854,8.854,0,0,1,67.207,10a4.672,4.672,0,0,1,3.11.9,3.518,3.518,0,0,1,1.05,2.822V21Zm-3.418-1.562a2.843,2.843,0,0,0,2.007-.7,2.531,2.531,0,0,0,.757-1.958v-.937l-1.387.059a4.745,4.745,0,0,0-2.358.542,1.647,1.647,0,0,0-.737,1.479,1.444,1.444,0,0,0,.43,1.118A1.846,1.846,0,0,0,66.309,19.438ZM78.926,21.2A4.729,4.729,0,0,1,75.2,19.765a5.977,5.977,0,0,1-1.274-4.106,6.011,6.011,0,0,1,1.333-4.189A4.945,4.945,0,0,1,79.111,10a7.22,7.22,0,0,1,3.076.635l-.693,1.846a6.95,6.95,0,0,0-2.4-.566q-2.8,0-2.8,3.721a4.456,4.456,0,0,0,.7,2.729,2.417,2.417,0,0,0,2.046.913,5.87,5.87,0,0,0,2.9-.762v2a4.532,4.532,0,0,1-1.313.518A7.882,7.882,0,0,1,78.926,21.2Zm7.842-.2H84.473V10.2h2.295ZM84.336,7.338a1.271,1.271,0,0,1,.337-.947,1.313,1.313,0,0,1,.962-.332,1.285,1.285,0,0,1,.942.332,1.271,1.271,0,0,1,.337.947,1.247,1.247,0,0,1-.337.923,1.274,1.274,0,0,1-.942.337,1.3,1.3,0,0,1-.962-.337A1.247,1.247,0,0,1,84.336,7.338ZM99.629,15.58a5.9,5.9,0,0,1-1.357,4.131A4.864,4.864,0,0,1,94.492,21.2a5.178,5.178,0,0,1-2.676-.684,4.513,4.513,0,0,1-1.787-1.963A6.685,6.685,0,0,1,89.4,15.58a5.855,5.855,0,0,1,1.348-4.1A4.886,4.886,0,0,1,94.551,10a4.758,4.758,0,0,1,3.711,1.509A5.828,5.828,0,0,1,99.629,15.58Zm-7.861,0q0,3.74,2.764,3.74,2.734,0,2.734-3.74,0-3.7-2.754-3.7a2.348,2.348,0,0,0-2.095.957A4.87,4.87,0,0,0,91.768,15.58Zm1.26-6.7V8.637q.557-.684,1.147-1.523t.933-1.436h2.666v.205a20.053,20.053,0,0,1-1.519,1.538,21.411,21.411,0,0,1-1.7,1.46ZM111.768,21h-2.3V14.359a2.906,2.906,0,0,0-.5-1.865,1.944,1.944,0,0,0-1.6-.615,2.539,2.539,0,0,0-2.129.859,4.745,4.745,0,0,0-.674,2.881V21h-2.295V10.2h1.8l.322,1.416h.117a3.2,3.2,0,0,1,1.387-1.191,4.647,4.647,0,0,1,1.992-.42q3.887,0,3.887,3.955Zm2.852-1.221a1.5,1.5,0,0,1,.371-1.094,1.432,1.432,0,0,1,1.074-.381,1.415,1.415,0,0,1,1.084.4,1.514,1.514,0,0,1,.371,1.079,1.552,1.552,0,0,1-.376,1.1,1.64,1.64,0,0,1-2.153,0A1.561,1.561,0,0,1,114.619,19.779Z" transform="translate(900.298 6466.227)" fill="#12263f"/>
    <path id="Trazado_210922" data-name="Trazado 210922" d="M-3726.242-5895h-34.023v663.5h34.023" transform="translate(4586.298 11794.227)" fill="none" stroke="#12263f" stroke-width="4" stroke-dasharray="4"/>
    <path id="Trazado_210923" data-name="Trazado 210923" d="M-3726.242-5812h-32.3" transform="translate(4586.298 11794.227)" fill="none" stroke="#12263f" stroke-width="4" stroke-dasharray="4"/>
    <path id="Trazado_210924" data-name="Trazado 210924" d="M-3726.242-5812h-32.3" transform="translate(4586.298 11876.727)" fill="none" stroke="#12263f" stroke-width="4" stroke-dasharray="4"/>
    <path id="Trazado_210925" data-name="Trazado 210925" d="M-3726.242-5812h-32.3" transform="translate(4586.298 11959.227)" fill="none" stroke="#12263f" stroke-width="4" stroke-dasharray="4"/>
    <path id="Trazado_210926" data-name="Trazado 210926" d="M-3726.242-5812h-32.3" transform="translate(4586.298 12041.727)" fill="none" stroke="#12263f" stroke-width="4" stroke-dasharray="4"/>
    <path id="Trazado_217845" data-name="Trazado 217845" d="M-3726.242-5812h-32.3" transform="translate(4586.298 12124.227)" fill="none" stroke="#12263f" stroke-width="4" stroke-dasharray="4"/>
    <path id="Trazado_217846" data-name="Trazado 217846" d="M-3726.242-5812h-32.3" transform="translate(4586.298 12206.727)" fill="none" stroke="#12263f" stroke-width="4" stroke-dasharray="4"/>
    <path id="Trazado_217847" data-name="Trazado 217847" d="M-3726.242-5812h-32.3" transform="translate(4586.298 12289.227)" fill="none" stroke="#12263f" stroke-width="4" stroke-dasharray="4"/>
  </g>
</svg>
