<svg xmlns="http://www.w3.org/2000/svg" xmlns:xlink="http://www.w3.org/1999/xlink" width="126" height="126" viewBox="0 0 126 126">
  <defs>
    <filter id="Elipse_6218" x="0" y="0" width="126" height="126" filterUnits="userSpaceOnUse">
      <feOffset dy="3" input="SourceAlpha"/>
      <feGaussianBlur stdDeviation="3" result="blur"/>
      <feFlood flood-opacity="0.161"/>
      <feComposite operator="in" in2="blur"/>
      <feComposite in="SourceGraphic"/>
    </filter>
    <clipPath id="clip-path">
      <rect id="Rectángulo_56332" data-name="Rectángulo 56332" width="54.829" height="69.107" fill="#1a76b7"/>
    </clipPath>
  </defs>
  <g id="Grupo_179435" data-name="Grupo 179435" transform="translate(-200 -10128.152)">
    <g transform="matrix(1, 0, 0, 1, 200, 10128.15)" filter="url(#Elipse_6218)">
      <circle id="Elipse_6218-2" data-name="Elipse 6218" cx="54" cy="54" r="54" transform="translate(9 6)" fill="#fff"/>
    </g>
    <g id="Grupo_177180" data-name="Grupo 177180" transform="translate(238.051 10153.268)">
      <g id="Grupo_175656" data-name="Grupo 175656" clip-path="url(#clip-path)">
        <path id="Trazado_217958" data-name="Trazado 217958" d="M27.559,0h7.4a2.02,2.02,0,0,1,1.247,2.128q-.058,4.455,0,8.911a2.316,2.316,0,0,1-1.1,2.119c-2.062,1.433-4.1,2.907-6.131,4.377-.184.133-.423.356-.429.544-.038,1.269-.02,2.539-.02,3.859.652,0,1.105-.011,1.558,0a1.643,1.643,0,1,1,.028,3.283c-.426.015-.852,0-1.44,0l1.51,14.8c1.217-.3,1.464-.252,2.287.382a8.022,8.022,0,0,1,.646.508c.277.263.592.407.9.14a1.75,1.75,0,0,0,.512-.764,10.264,10.264,0,0,0,.171-1.218A1.579,1.579,0,0,1,36.259,37.7q2.843-.033,5.686,0A1.536,1.536,0,0,1,43.493,39c.1.443.137.9.2,1.353a.813.813,0,0,0,1.391.578c.253-.195.5-.4.756-.59a1.7,1.7,0,0,1,2.552.141c1.009.994,2.005,2,3.005,3,1.668,1.674,1.685,1.954.224,3.834-.225.29-.418.528-.232.968.2.463.508.514.912.536,1.052.058,2.046.235,2.524,1.362v6.307a2,2,0,0,1-2.048,1.39,5.465,5.465,0,0,0-.677.1.811.811,0,0,0-.563,1.357c.193.255.392.505.585.76a1.717,1.717,0,0,1-.185,2.653q-1.425,1.434-2.857,2.86c-1.755,1.755-1.987,1.771-3.934.282-.7-.537-1.332-.286-1.459.585-.056.384-.083.773-.156,1.153a1.613,1.613,0,0,1-1.644,1.454q-2.773.045-5.548,0a1.624,1.624,0,0,1-1.659-1.511c-.056-.384-.1-.77-.143-1.155a.839.839,0,0,0-1.362-.626,3.606,3.606,0,0,0-1.393,2.03A1.7,1.7,0,0,1,29.917,69.1q-11.816,0-23.633.007a1.8,1.8,0,0,1-1.848-1.23Q2.321,62.571.194,57.269a1.924,1.924,0,0,1,.353-2.028A20.812,20.812,0,0,0,2.584,52.1a32.478,32.478,0,0,0,2.748-9.216c.7-4.392,1.227-8.812,1.781-13.226.181-1.441.214-2.9.32-4.428-.477,0-.882.009-1.287,0A1.645,1.645,0,1,1,6.14,21.94c.469-.012.939,0,1.541,0,0-1.219-.021-2.337.01-3.454a1.046,1.046,0,0,0-.5-1.012c-2.059-1.437-4.082-2.926-6.142-4.36A2.2,2.2,0,0,1,0,11.106C.036,8.114.041,5.121,0,2.129A2.023,2.023,0,0,1,1.248,0h7.4A1.989,1.989,0,0,1,9.894,2.12c-.049,1.47-.013,2.943-.013,4.413H13.17c0-1.5.038-2.959-.013-4.412A1.991,1.991,0,0,1,14.4,0h7.4A1.989,1.989,0,0,1,23.05,2.12c-.049,1.47-.013,2.943-.013,4.413h3.289c0-1.5.038-2.959-.013-4.412A1.991,1.991,0,0,1,27.559,0M10.727,25.261c-.016.208-.03.364-.04.521A134.527,134.527,0,0,1,8.646,43.253,43.249,43.249,0,0,1,5.381,53.884c-.145.3-.286.6-.458.959h.838q6.131,0,12.263,0a1.708,1.708,0,0,1,1.689.94,1.649,1.649,0,0,1-1.656,2.352q-6.577.012-13.153,0H4.112c.1.268.164.457.238.643C5.2,60.917,6.07,63.051,6.9,65.2a.838.838,0,0,0,.943.624c6.851-.02,13.7-.013,20.552-.015.218,0,.435-.021.814-.041-.222-.267-.346-.441-.493-.592-.577-.586-1.162-1.164-1.743-1.745-1.861-1.862-1.872-2.007-.293-4.088a.807.807,0,0,0-.548-1.368c-.339-.047-.679-.087-1.019-.129a1.681,1.681,0,0,1-1.676-1.859c-.009-1.439,0-2.879,0-4.318,0-2.342.224-2.6,2.559-2.848a.836.836,0,0,0,.835-.544.768.768,0,0,0-.187-.913,11.057,11.057,0,0,1-.712-.921,1.626,1.626,0,0,1,.125-2.187,9.5,9.5,0,0,1,.968-.969,1.088,1.088,0,0,0,.345-1.144c-.508-3.731-1.009-7.463-1.448-11.2-.22-1.875-.3-3.767-.453-5.681Zm18.7,20.324c.194.253.374.513.578.751a1.828,1.828,0,0,1,.3,2.1c-.334.75-.647,1.509-.945,2.274a1.766,1.766,0,0,1-1.526,1.2c-.356.045-.712.1-1.073.144v2.656a8.382,8.382,0,0,0,.844.127,1.858,1.858,0,0,1,1.8,1.324c.27.726.572,1.442.89,2.148a1.859,1.859,0,0,1-.316,2.157c-.2.233-.377.49-.487.635l1.889,1.93c.275-.211.58-.449.89-.682a1.607,1.607,0,0,1,1.676-.232c.885.365,1.772.725,2.652,1.1a1.583,1.583,0,0,1,1,1.291c.063.422.129.843.192,1.247h2.643a7.779,7.779,0,0,0,.129-.856,1.865,1.865,0,0,1,1.384-1.827,8.5,8.5,0,0,0,1.449-.605,2.412,2.412,0,0,1,3.274.43.41.41,0,0,0,.169.1L48.8,61.181c-.177-.231-.329-.46-.511-.662a1.922,1.922,0,0,1-.31-2.335,14.9,14.9,0,0,0,.76-1.832,1.986,1.986,0,0,1,2.013-1.532,4.592,4.592,0,0,0,.726-.123V51.954c-2.134.367-2.56-1.2-3.231-2.652-.631-1.364-.7-2.515.452-3.586.042-.039.053-.113.032-.067l-1.882-1.9a5.741,5.741,0,0,0-.553.417,1.98,1.98,0,0,1-2.453.32,19.349,19.349,0,0,0-1.9-.783,1.89,1.89,0,0,1-1.382-1.833,6.362,6.362,0,0,0-.136-.832H37.685c.295,1.891-.942,2.475-2.361,3.1-1.468.643-2.752.923-3.961-.387-.011-.012-.042-.007.021,0l-1.958,1.838M16.459,3.319c0,1.639.011,3.212,0,4.784a1.624,1.624,0,0,1-1.684,1.76q-3.252.031-6.505,0A1.616,1.616,0,0,1,6.6,8.157c-.019-1.324-.006-2.649-.006-3.974V3.324H3.343a2.436,2.436,0,0,0-.036.287c0,2.215-.013,4.431.012,6.646a.944.944,0,0,0,.348.653q2.932,2.137,5.9,4.218a1.391,1.391,0,0,0,.754.218q7.772.019,15.545,0a1.623,1.623,0,0,0,.871-.281q2.887-2.023,5.732-4.106a1.183,1.183,0,0,0,.412-.822c.034-2.1.02-4.2.016-6.3,0-.173-.032-.345-.048-.5H29.615c0,1.56,0,3.085,0,4.609A1.7,1.7,0,0,1,27.683,9.87c-1.917.005-3.835,0-5.752,0-1.635,0-2.182-.543-2.182-2.164,0-1.454,0-2.908,0-4.389ZM10.948,21.877h14.3v-3.2h-14.3Z" transform="translate(0)" fill="#1a76b7"/>
        <path id="Trazado_217959" data-name="Trazado 217959" d="M242.5,353.124a6.7,6.7,0,1,1,6.719-6.668,6.7,6.7,0,0,1-6.719,6.668m.058-3.3a3.406,3.406,0,0,0-.058-6.812,3.406,3.406,0,1,0,.058,6.812" transform="translate(-203.418 -293.048)" fill="#1a76b7"/>
      </g>
    </g>
  </g>
</svg>
