<svg xmlns="http://www.w3.org/2000/svg" xmlns:xlink="http://www.w3.org/1999/xlink" width="122" height="116.609" viewBox="0 0 122 116.609">
  <defs>
    <filter id="Trazado_228315" x="0" y="0" width="122" height="116.609" filterUnits="userSpaceOnUse">
      <feOffset dy="3" input="SourceAlpha"/>
      <feGaussianBlur stdDeviation="3" result="blur"/>
      <feFlood flood-opacity="0.161"/>
      <feComposite operator="in" in2="blur"/>
      <feComposite in="SourceGraphic"/>
    </filter>
  </defs>
  <g id="Grupo_179433" data-name="Grupo 179433" transform="translate(-236 -9269.136)">
    <g transform="matrix(1, 0, 0, 1, 236, 9269.14)" filter="url(#Trazado_228315)">
      <path id="Trazado_228315-2" data-name="Trazado 228315" d="M10,0H94a10,10,0,0,1,10,10V88.609a10,10,0,0,1-10,10H10a10,10,0,0,1-10-10V10A10,10,0,0,1,10,0Z" transform="translate(9 6)" fill="#e8e8e8"/>
    </g>
    <path id="Trazado_228316" data-name="Trazado 228316" d="M54.319-54.319H35.347V0H20.317V-54.319H1.438v-12.2H54.319Z" transform="translate(266 9357.137)" fill="#12263f" opacity="0.23"/>
  </g>
</svg>
