<svg xmlns="http://www.w3.org/2000/svg" xmlns:xlink="http://www.w3.org/1999/xlink" width="87.339" height="87.339" viewBox="0 0 87.339 87.339">
  <defs>
    <radialGradient id="radial-gradient" cx="0.076" cy="0.019" r="1.465" gradientTransform="translate(0.001)" gradientUnits="objectBoundingBox">
      <stop offset="0" stop-color="#f6f6f7"/>
      <stop offset="0.477" stop-color="#f9f9fa"/>
      <stop offset="0.715" stop-color="#fff"/>
    </radialGradient>
    <clipPath id="clip-path">
      <rect id="Rectángulo_56331" data-name="Rectángulo 56331" width="29.801" height="39.125" fill="#12263f"/>
    </clipPath>
  </defs>
  <g id="Grupo_179436" data-name="Grupo 179436" transform="translate(-662.643 -9843.068)">
    <g id="Grupo_175644" data-name="Grupo 175644" transform="translate(662.643 9843.068)">
      <g id="Grupo_18423" data-name="Grupo 18423" transform="translate(0 0)">
        <g id="Grupo_18421" data-name="Grupo 18421">
          <g id="Grupo_18420" data-name="Grupo 18420">
            <g id="Grupo_18419" data-name="Grupo 18419">
              <path id="Trazado_40936" data-name="Trazado 40936" d="M281.962,2189.389a43.669,43.669,0,1,1-43.669-43.668A43.669,43.669,0,0,1,281.962,2189.389Z" transform="translate(-194.623 -2145.721)" fill="#fff"/>
            </g>
          </g>
        </g>
        <path id="Trazado_40937" data-name="Trazado 40937" d="M281.7,2189.1a43.669,43.669,0,1,0-43.669,43.67A43.5,43.5,0,0,0,281.7,2189.1Z" transform="translate(-194.361 -2145.436)" fill="url(#radial-gradient)"/>
        <path id="Trazado_40938" data-name="Trazado 40938" d="M269.1,2186.859a33.332,33.332,0,1,0-33.333,33.333A33.209,33.209,0,0,0,269.1,2186.859Z" transform="translate(-191.968 -2143.046)" fill="none" stroke="#7f4fc7" stroke-miterlimit="10" stroke-width="4"/>
        <g id="Grupo_18422" data-name="Grupo 18422" transform="translate(7.736 24.517)">
          <path id="Trazado_40939" data-name="Trazado 40939" d="M275.732,2164.488a43.675,43.675,0,0,1-75.187,43.488,43.536,43.536,0,0,0,75.187-43.488Z" transform="translate(-200.545 -2164.488)" fill="#eceef0"/>
        </g>
      </g>
      <g id="Grupo_175655" data-name="Grupo 175655" transform="translate(28.769 24.107)">
        <g id="Grupo_175654" data-name="Grupo 175654" clip-path="url(#clip-path)">
          <path id="Trazado_217954" data-name="Trazado 217954" d="M7.645,0h14.51a.9.9,0,0,0,.132.069A1.887,1.887,0,0,1,23.7,1.933c0,.11.015.221.025.359h1.7a4.185,4.185,0,0,1,4.383,4.4q-.006,14.019-.02,28.039a4.211,4.211,0,0,1-4.4,4.394q-10.5,0-21,0A4.183,4.183,0,0,1,0,34.763Q0,20.705.02,6.647A4.21,4.21,0,0,1,4.383,2.293c.57,0,1.14,0,1.659,0a9.611,9.611,0,0,1,.316-1.245A2.066,2.066,0,0,1,7.645,0M6.1,4.585c-.573,0-1.142,0-1.712,0A1.926,1.926,0,0,0,2.31,6.652Q2.3,20.709,2.29,34.765a1.9,1.9,0,0,0,2.069,2.066q10.517,0,21.034,0a2.745,2.745,0,0,0,.531-.036A1.944,1.944,0,0,0,27.49,34.7q.011-14,.02-28c0-.1,0-.2,0-.305a1.77,1.77,0,0,0-1.373-1.719,21.277,21.277,0,0,0-2.44-.13c0,.2,0,.315,0,.428a1.88,1.88,0,0,1-1.9,1.893q-6.89.012-13.781,0A1.866,1.866,0,0,1,6.175,5.3c-.04-.222-.048-.45-.074-.714M21.387,2.312H8.447V4.559h12.94Z" fill="#12263f"/>
          <path id="Trazado_217955" data-name="Trazado 217955" d="M62.785,133.93c-.195.216-.377.444-.586.646a1.146,1.146,0,1,1-1.617-1.619q1.289-1.3,2.592-2.593a1.14,1.14,0,0,1,1.725.006q1.3,1.288,2.592,2.594a1.147,1.147,0,1,1-1.629,1.605c-.2-.195-.379-.4-.633-.675-.02.188-.036.269-.036.35,0,1.184-.009,2.369,0,3.553a3.423,3.423,0,0,0,2.308,3.311q3.135,1.191,6.272,2.379a5.72,5.72,0,0,1,3.918,4.742,10.915,10.915,0,0,1,.052,1.6q.01,1.738,0,3.477a1.146,1.146,0,0,1-1.147,1.252,1.17,1.17,0,0,1-1.142-1.267c0-1.4,0-2.8,0-4.2a3.422,3.422,0,0,0-2.313-3.384q-3.2-1.232-6.412-2.442a5.728,5.728,0,0,1-3.827-5.482c-.011-1.258,0-2.516,0-3.774l-.116-.077" transform="translate(-55.582 -120.021)" fill="#12263f"/>
          <path id="Trazado_217956" data-name="Trazado 217956" d="M59.848,345.538a4.2,4.2,0,1,1,4.183,4.212,4.2,4.2,0,0,1-4.183-4.212m2.291-.024a1.9,1.9,0,0,0,1.878,1.943,1.909,1.909,0,0,0,.067-3.818,1.9,1.9,0,0,0-1.945,1.875" transform="translate(-55.266 -315.212)" fill="#12263f"/>
          <path id="Trazado_217957" data-name="Trazado 217957" d="M231.316,129.211c-.65-.646-1.272-1.246-1.872-1.866a1.146,1.146,0,1,1,1.637-1.6c.6.6,1.2,1.209,1.834,1.849.613-.615,1.192-1.22,1.8-1.792a1.669,1.669,0,0,1,.71-.4,1.055,1.055,0,0,1,1.188.556,1.118,1.118,0,0,1-.2,1.369c-.606.618-1.228,1.219-1.868,1.851.09.1.157.191.233.268.512.515,1.027,1.025,1.537,1.541a1.156,1.156,0,1,1-1.614,1.631c-.586-.582-1.167-1.169-1.792-1.8-.608.614-1.182,1.222-1.791,1.793a1.691,1.691,0,0,1-.746.411,1.066,1.066,0,0,1-1.172-.593,1.152,1.152,0,0,1,.22-1.339c.607-.617,1.228-1.219,1.893-1.877" transform="translate(-211.539 -115.763)" fill="#12263f"/>
        </g>
      </g>
    </g>
  </g>
</svg>
