<svg xmlns="http://www.w3.org/2000/svg" xmlns:xlink="http://www.w3.org/1999/xlink" width="122" height="116.609" viewBox="0 0 122 116.609">
  <defs>
    <filter id="Trazado_228313" x="0" y="0" width="122" height="116.609" filterUnits="userSpaceOnUse">
      <feOffset dy="3" input="SourceAlpha"/>
      <feGaussianBlur stdDeviation="3" result="blur"/>
      <feFlood flood-opacity="0.161"/>
      <feComposite operator="in" in2="blur"/>
      <feComposite in="SourceGraphic"/>
    </filter>
  </defs>
  <g id="Grupo_179432" data-name="Grupo 179432" transform="translate(-236 -9146.136)">
    <g transform="matrix(1, 0, 0, 1, 236, 9146.14)" filter="url(#Trazado_228313)">
      <path id="Trazado_228313-2" data-name="Trazado 228313" d="M10,0H94a10,10,0,0,1,10,10V88.609a10,10,0,0,1-10,10H10a10,10,0,0,1-10-10V10A10,10,0,0,1,10,0Z" transform="translate(9 6)" fill="#e8e8e8"/>
    </g>
    <path id="Trazado_228314" data-name="Trazado 228314" d="M63.411,0H46.2L35.857-17.117Q34.7-19.065,33.63-20.6a19.329,19.329,0,0,0-2.157-2.621,8.578,8.578,0,0,0-2.273-1.67,5.769,5.769,0,0,0-2.574-.58H22.59V0H7.607V-66.519h23.75q24.214,0,24.214,18.091A18.734,18.734,0,0,1,54.5-42a17.847,17.847,0,0,1-3.015,5.311,19.113,19.113,0,0,1-4.708,4.082,24.281,24.281,0,0,1-6.146,2.69v.186a9.533,9.533,0,0,1,2.876,1.508,20.594,20.594,0,0,1,2.69,2.435A33.977,33.977,0,0,1,48.683-22.8q1.183,1.6,2.157,3.131ZM22.59-55.293v18.508h6.494a10.767,10.767,0,0,0,7.747-2.783,9.288,9.288,0,0,0,2.969-7q0-8.721-10.437-8.721Z" transform="translate(266 9234.137)" fill="#12263f" opacity="0.23"/>
  </g>
</svg>
