<svg xmlns="http://www.w3.org/2000/svg" xmlns:xlink="http://www.w3.org/1999/xlink" width="126" height="126" viewBox="0 0 126 126">
  <defs>
    <filter id="Elipse_6217" x="0" y="0" width="126" height="126" filterUnits="userSpaceOnUse">
      <feOffset dy="3" input="SourceAlpha"/>
      <feGaussianBlur stdDeviation="3" result="blur"/>
      <feFlood flood-opacity="0.161"/>
      <feComposite operator="in" in2="blur"/>
      <feComposite in="SourceGraphic"/>
    </filter>
    <clipPath id="clip-path">
      <rect id="Rectángulo_56333" data-name="Rectángulo 56333" width="52.473" height="70.769" fill="#1a76b7"/>
    </clipPath>
  </defs>
  <g id="Grupo_179435" data-name="Grupo 179435" transform="translate(-802 -10128.152)">
    <g transform="matrix(1, 0, 0, 1, 802, 10128.15)" filter="url(#Elipse_6217)">
      <circle id="Elipse_6217-2" data-name="Elipse 6217" cx="54" cy="54" r="54" transform="translate(9 6)" fill="#fff"/>
    </g>
    <g id="Grupo_177181" data-name="Grupo 177181" transform="translate(839.764 10153.268)">
      <g id="Grupo_175658" data-name="Grupo 175658" clip-path="url(#clip-path)">
        <path id="Trazado_217960" data-name="Trazado 217960" d="M0,70.044V0H51.749a1.8,1.8,0,0,1,.725,1.654q-.022,33.73-.012,67.459c0,1.31-.332,1.643-1.638,1.643q-24.585,0-49.17.013A1.793,1.793,0,0,1,0,70.044M5.728,65H46.706V5.735H38.838c-.489,2.475-1.616,3.4-4.131,3.4q-8.586,0-17.172,0a4.821,4.821,0,0,1-1.062-.067,3.476,3.476,0,0,1-2.826-3.309H5.728ZM38.808,3.424h.827q3.955,0,7.91,0c1.116,0,1.494.38,1.494,1.5q0,30.452,0,60.9c0,1.121-.379,1.5-1.491,1.5q-21.309,0-42.618,0c-1.125,0-1.507-.376-1.507-1.486q0-30.452,0-60.9c0-1.156.37-1.517,1.546-1.518q3.955,0,7.91,0h.755V2.318H2.323v66.11H50.128V2.318H38.808ZM15.967,2.315c0,.94,0,1.837,0,2.734,0,1.517.276,1.8,1.764,1.8H28.126c2.326,0,4.652,0,6.977,0,.829,0,1.342-.349,1.369-1.031.047-1.154.013-2.312.013-3.5Z" transform="translate(-0.001)" fill="#1a76b7"/>
        <path id="Trazado_217961" data-name="Trazado 217961" d="M95.684,155.951a5.194,5.194,0,0,1-.144.617,1.07,1.07,0,0,1-1.153.765,1.026,1.026,0,0,1-1.03-1c-.049-1.21-.057-2.426,0-3.636a1.06,1.06,0,0,1,1.138-1.048q1.674-.031,3.35,0a1.125,1.125,0,0,1,1.183,1.157,1.146,1.146,0,0,1-1.16,1.113c-.25.016-.5,0-.91,0,.869,1.018,1.632,1.915,2.4,2.81.881,1.029,1.768,2.053,2.645,3.085a1.209,1.209,0,0,1-.038,1.936Q95.9,168.383,89.827,175a1.25,1.25,0,0,1-1.932.269c-1.486-.89-2.968-1.786-4.526-2.724l-5.709,7.613a3.653,3.653,0,0,1,.724,3.2,3.431,3.431,0,0,1-6.733-1.216,3.384,3.384,0,0,1,3.338-3.086,1.213,1.213,0,0,0,1.1-.583c1.951-2.634,3.924-5.254,5.893-7.875.6-.8,1.07-.893,1.945-.373,1.529.909,3.053,1.826,4.637,2.774l11.228-12.254-4.107-4.8M76.22,182.431a1.136,1.136,0,1,0-1.094,1.162,1.148,1.148,0,0,0,1.094-1.162" transform="translate(-61.4 -129.96)" fill="#1a76b7"/>
        <path id="Trazado_217962" data-name="Trazado 217962" d="M134.178,109.029c.869-.6,1.411-1.878,2.593-.875.633.537.441,1.054-.844,2.495.265.272.548.542.808.834a1.126,1.126,0,0,1,.035,1.653,1.105,1.105,0,0,1-1.646-.053,7.159,7.159,0,0,1-.681-.888c-.94.656-1.587,2.039-2.68.888-1.012-1.066.284-1.675.981-2.622a6.707,6.707,0,0,1-.928-.692,1.132,1.132,0,1,1,1.576-1.623,10.675,10.675,0,0,1,.786.884" transform="translate(-112.609 -92.375)" fill="#1a76b7"/>
        <path id="Trazado_217963" data-name="Trazado 217963" d="M94.3,220.583c1.432-1.268,1.933-1.457,2.468-.827,1,1.181-.261,1.731-.8,2.493.51.761,1.873,1.382.8,2.467s-1.71-.247-2.459-.787c-.79.515-1.423,1.937-2.526.8-1.058-1.09.317-1.7.836-2.475-.512-.772-1.916-1.411-.75-2.511,1.072-1.01,1.67.312,2.434.838" transform="translate(-78.329 -188.017)" fill="#1a76b7"/>
        <path id="Trazado_217964" data-name="Trazado 217964" d="M254.037,292.656c.864-.6,1.406-1.878,2.59-.873.633.537.442,1.048-.844,2.5.267.273.552.544.812.836a1.139,1.139,0,1,1-1.627,1.59c-.259-.242-.471-.533-.77-.876-.357.351-.628.636-.918.9a1.142,1.142,0,1,1-1.588-1.629c.245-.257.531-.473.876-.774-.346-.353-.632-.623-.893-.914a1.138,1.138,0,1,1,1.621-1.594c.259.241.473.531.742.838" transform="translate(-215.359 -249.755)" fill="#1a76b7"/>
        <path id="Trazado_217965" data-name="Trazado 217965" d="M123.781,23.931c.879,0,1.758-.011,2.637,0a1.145,1.145,0,1,1-.02,2.275q-2.708.017-5.416,0a1.145,1.145,0,1,1,.02-2.275c.926-.013,1.853,0,2.779,0" transform="translate(-102.602 -20.506)" fill="#1a76b7"/>
        <path id="Trazado_217966" data-name="Trazado 217966" d="M185.867,23.929c.356,0,.713-.017,1.069,0a1.137,1.137,0,0,1,1.155,1.116,1.117,1.117,0,0,1-1.117,1.149c-.782.031-1.568.033-2.35,0a1.108,1.108,0,0,1-1.083-1.108,1.125,1.125,0,0,1,1.116-1.151c.4-.026.807,0,1.211-.006" transform="translate(-157.305 -20.502)" fill="#1a76b7"/>
      </g>
    </g>
  </g>
</svg>
