<svg xmlns="http://www.w3.org/2000/svg" xmlns:xlink="http://www.w3.org/1999/xlink" width="122" height="116.609" viewBox="0 0 122 116.609">
  <defs>
    <filter id="Trazado_228309" x="0" y="0" width="122" height="116.609" filterUnits="userSpaceOnUse">
      <feOffset dy="3" input="SourceAlpha"/>
      <feGaussianBlur stdDeviation="3" result="blur"/>
      <feFlood flood-opacity="0.161"/>
      <feComposite operator="in" in2="blur"/>
      <feComposite in="SourceGraphic"/>
    </filter>
  </defs>
  <g id="Grupo_179430" data-name="Grupo 179430" transform="translate(-236 -8779.136)">
    <g transform="matrix(1, 0, 0, 1, 236, 8779.14)" filter="url(#Trazado_228309)">
      <path id="Trazado_228309-2" data-name="Trazado 228309" d="M10,0H94a10,10,0,0,1,10,10V88.609a10,10,0,0,1-10,10H10a10,10,0,0,1-10-10V10A10,10,0,0,1,10,0Z" transform="translate(9 6)" fill="#e8e8e8"/>
    </g>
    <path id="Trazado_228310" data-name="Trazado 228310" d="M4.546-2.551V-17.4a28.523,28.523,0,0,0,8.767,5.079,28.181,28.181,0,0,0,9.556,1.693,21.19,21.19,0,0,0,4.94-.51,11.572,11.572,0,0,0,3.525-1.415,6.17,6.17,0,0,0,2.111-2.134,5.324,5.324,0,0,0,.7-2.667,5.766,5.766,0,0,0-1.113-3.479,11.98,11.98,0,0,0-3.038-2.83,31.747,31.747,0,0,0-4.569-2.5q-2.644-1.206-5.706-2.458-7.793-3.247-11.62-7.932A17.317,17.317,0,0,1,4.268-47.871,18.027,18.027,0,0,1,6.355-56.8a17.728,17.728,0,0,1,5.682-6.146A25.479,25.479,0,0,1,20.364-66.5a42.784,42.784,0,0,1,10.02-1.136,60.264,60.264,0,0,1,9.208.626,36.212,36.212,0,0,1,7.4,1.925v13.87a22.372,22.372,0,0,0-3.641-2.041,28.85,28.85,0,0,0-4.059-1.461,30.959,30.959,0,0,0-4.152-.858,29.383,29.383,0,0,0-3.92-.278,20.441,20.441,0,0,0-4.639.487,11.9,11.9,0,0,0-3.525,1.368,6.808,6.808,0,0,0-2.227,2.111,5,5,0,0,0-.789,2.76,5.271,5.271,0,0,0,.881,2.992,10.11,10.11,0,0,0,2.5,2.5,26.582,26.582,0,0,0,3.943,2.319q2.319,1.136,5.242,2.343a58.408,58.408,0,0,1,7.167,3.549,25.478,25.478,0,0,1,5.45,4.244,16.534,16.534,0,0,1,3.479,5.4,19.1,19.1,0,0,1,1.206,7.074A18.949,18.949,0,0,1,47.8-9.347a17.135,17.135,0,0,1-5.729,6.123A24.842,24.842,0,0,1,33.654.139,48.657,48.657,0,0,1,23.518,1.16,56.358,56.358,0,0,1,13.1.232,31.436,31.436,0,0,1,4.546-2.551Z" transform="translate(266 8867.137)" fill="#12263f" opacity="0.23"/>
  </g>
</svg>
