<svg xmlns="http://www.w3.org/2000/svg" xmlns:xlink="http://www.w3.org/1999/xlink" width="122" height="116.609" viewBox="0 0 122 116.609">
  <defs>
    <filter id="Trazado_228311" x="0" y="0" width="122" height="116.609" filterUnits="userSpaceOnUse">
      <feOffset dy="3" input="SourceAlpha"/>
      <feGaussianBlur stdDeviation="3" result="blur"/>
      <feFlood flood-opacity="0.161"/>
      <feComposite operator="in" in2="blur"/>
      <feComposite in="SourceGraphic"/>
    </filter>
  </defs>
  <g id="Grupo_179431" data-name="Grupo 179431" transform="translate(-236 -9017.136)">
    <g transform="matrix(1, 0, 0, 1, 236, 9017.14)" filter="url(#Trazado_228311)">
      <path id="Trazado_228311-2" data-name="Trazado 228311" d="M10,0H94a10,10,0,0,1,10,10V88.609a10,10,0,0,1-10,10H10a10,10,0,0,1-10-10V10A10,10,0,0,1,10,0Z" transform="translate(9 6)" fill="#e8e8e8"/>
    </g>
    <path id="Trazado_228312" data-name="Trazado 228312" d="M66.1,0H49.773L45.042-14.8H21.384L16.7,0H.464L24.678-66.519H42.444ZM41.609-26.3,34.465-48.66a29.136,29.136,0,0,1-1.113-5.984h-.371a25.372,25.372,0,0,1-1.16,5.8L24.585-26.3Z" transform="translate(266 9105.137)" fill="#12263f" opacity="0.23"/>
  </g>
</svg>
