<svg xmlns="http://www.w3.org/2000/svg" xmlns:xlink="http://www.w3.org/1999/xlink" width="302.559" height="250.698" viewBox="0 0 302.559 250.698">
  <defs>
    <linearGradient id="linear-gradient" x1="0.5" x2="0.5" y2="1" gradientUnits="objectBoundingBox">
      <stop offset="0" stop-color="#fff"/>
      <stop offset="1" stop-color="#d2e6ee"/>
    </linearGradient>
  </defs>
  <g id="Grupo_179438" data-name="Grupo 179438" transform="translate(9316.776 -865.988)">
    <g id="Grupo_175681" data-name="Grupo 175681" transform="translate(-9466.035 806.988)">
      <g id="Grupo_47578" data-name="Grupo 47578" transform="translate(385.983 125.704)">
        <g id="Grupo_47575" data-name="Grupo 47575" transform="translate(0)">
          <g id="Grupo_47574" data-name="Grupo 47574">
            <path id="Trazado_97681" data-name="Trazado 97681" d="M775.1,234.5a1.224,1.224,0,0,1,.272.216c.684.8.56,1.629,1,2.585.195.426,1.387.6.861,1.425-.194.3-.775.985-1.195,1.63a6.906,6.906,0,0,0-.755,3.775c.253,4.995,1.86,9.782,3.6,14.467a1.8,1.8,0,0,0,.417.736,1.882,1.882,0,0,0,1.461.26,38.211,38.211,0,0,1,7.086.011,14.273,14.273,0,0,1,6.05,1.678,6.42,6.42,0,0,1,3.3,5.091,5.012,5.012,0,0,1-2.01,4.094c-3.161,2.319-8.073-.624-11.228-1.777a68.018,68.018,0,0,1-8.7-3.889,2.929,2.929,0,0,1-.946-.687,2.97,2.97,0,0,1-.478-1.149,148.508,148.508,0,0,1-2.992-15.871c-.212-1.47.376-2.865.167-4.223-.133-.867-.86-1.451-1.167-2.241a8.178,8.178,0,0,1-.5-2.722c.013-1.652,1.395-2.651,2.517-3.643a1.77,1.77,0,0,1,.807-.5,2.563,2.563,0,0,1,1.566.291A4.955,4.955,0,0,1,775.1,234.5Z" transform="translate(-769.346 -233.727)" fill="#e2bd9c"/>
          </g>
        </g>
        <g id="Grupo_47577" data-name="Grupo 47577" transform="translate(15.933 24.7)">
          <g id="Grupo_47576" data-name="Grupo 47576">
            <path id="Trazado_97682" data-name="Trazado 97682" d="M811.205,308.227q.192-4.751.384-9.5c-.008.2,14.406-.3,15.265-.3,3.279,0,6.676.021,9.656,1.388,6.363,2.92,6,12.13-1,14a39.024,39.024,0,0,1-23.865-1.642.99.99,0,0,1-.427-.269,1.009,1.009,0,0,1-.132-.674Q811.145,309.727,811.205,308.227Z" transform="translate(-811.081 -298.426)" fill="#f9c869"/>
          </g>
        </g>
      </g>
      <g id="Grupo_47605" data-name="Grupo 47605" transform="translate(385.153 117.16)">
        <g id="Grupo_47586" data-name="Grupo 47586" transform="translate(0 82.079)">
          <g id="Grupo_47584" data-name="Grupo 47584" transform="translate(0 64.169)">
            <g id="Grupo_47583" data-name="Grupo 47583">
              <g id="Grupo_47580" data-name="Grupo 47580" transform="translate(8.45)">
                <g id="Grupo_47579" data-name="Grupo 47579">
                  <path id="Trazado_97683" data-name="Trazado 97683" d="M792.42,626.984a25.245,25.245,0,0,1-3.115-.766c.99-10.533,3.585-21.343,5.555-31.783l7.993,1.612a94.865,94.865,0,0,0-6.519,16.684C796.073,613.642,792.574,627,792.42,626.984Z" transform="translate(-789.305 -594.435)" fill="#e2bd9c"/>
                </g>
              </g>
              <g id="Grupo_47582" data-name="Grupo 47582" transform="translate(0 29.626)">
                <g id="Grupo_47581" data-name="Grupo 47581">
                  <path id="Trazado_97684" data-name="Trazado 97684" d="M775.593,672.121a1.639,1.639,0,0,0-1.581.361,4.336,4.336,0,0,1-.848.626,2.469,2.469,0,0,1-1.016.094c-1.966-.089-6.417-.825-4.515,2.764,1.727,3.259,7.634,2.929,11.064,2.616a1.151,1.151,0,0,0,.645-.165,1.576,1.576,0,0,0,.432-.608c.581-1.329,1.351-2.982-.266-3.812-.69-.354-1.429.029-2.158-.351C776.751,673.334,776.238,672.336,775.593,672.121Z" transform="translate(-767.17 -672.038)" fill="#f5ca56"/>
                </g>
              </g>
            </g>
          </g>
          <g id="Grupo_47585" data-name="Grupo 47585" transform="translate(8.371)">
            <path id="Trazado_97685" data-name="Trazado 97685" d="M789.1,498.464l16.476,2.092c7.524-20.439,19-37.1,21.027-61.856.138-1.683,1.009-3.291.769-4.962-.455-3.161-3.445-5.366-6.467-6.4-4.695-1.61-13.748-1.656-16.96,3-3.394,4.92-4.345,14.458-5.84,20.226A360.034,360.034,0,0,0,789.1,498.464Z" transform="translate(-789.096 -426.349)" fill="#00223d"/>
          </g>
        </g>
        <g id="Grupo_47594" data-name="Grupo 47594" transform="translate(35.63 78.327)">
          <g id="Grupo_47592" data-name="Grupo 47592" transform="translate(9.418 69.218)">
            <g id="Grupo_47591" data-name="Grupo 47591">
              <g id="Grupo_47588" data-name="Grupo 47588" transform="translate(3.34)">
                <g id="Grupo_47587" data-name="Grupo 47587">
                  <path id="Trazado_97686" data-name="Trazado 97686" d="M901.781,630.481a25.214,25.214,0,0,1-3.2.247c-2.354-10.314-3.27-21.394-4.664-31.927l8.1-.969a94.85,94.85,0,0,0-.975,17.886C901.078,616.666,901.933,630.449,901.781,630.481Z" transform="translate(-893.919 -597.833)" fill="#e2bd9c"/>
                </g>
              </g>
              <g id="Grupo_47590" data-name="Grupo 47590" transform="translate(0 30.933)">
                <g id="Grupo_47589" data-name="Grupo 47589">
                  <path id="Trazado_97687" data-name="Trazado 97687" d="M892.5,678.859a1.639,1.639,0,0,0-1.389.838,4.358,4.358,0,0,1-.61.859,2.464,2.464,0,0,1-.936.407c-1.9.529-6.353,1.223-3.424,4.037,2.66,2.556,8.167.4,11.327-.975a1.155,1.155,0,0,0,.561-.358,1.577,1.577,0,0,0,.219-.713c.137-1.444.352-3.255-1.444-3.537-.766-.121-1.348.474-2.16.342C893.978,679.65,893.178,678.862,892.5,678.859Z" transform="translate(-885.169 -678.859)" fill="#f5ca56"/>
                </g>
              </g>
            </g>
          </g>
          <g id="Grupo_47593" data-name="Grupo 47593">
            <path id="Trazado_97688" data-name="Trazado 97688" d="M868.356,494.029l16.3-3.166q1.133-32.65.628-65.33a11.437,11.437,0,0,0-.822-4.954c-1.421-2.861-4.951-4.019-8.144-4.058-4.963-.061-13.576,2.727-15.171,8.153-1.685,5.735.394,15.091.778,21.037A360.039,360.039,0,0,0,868.356,494.029Z" transform="translate(-860.5 -416.52)" fill="#00223d"/>
          </g>
        </g>
        <g id="Grupo_47596" data-name="Grupo 47596" transform="translate(17.313 30.566)">
          <g id="Grupo_47595" data-name="Grupo 47595">
            <path id="Trazado_97689" data-name="Trazado 97689" d="M845.742,298.215a39.567,39.567,0,0,1,9.764,15.268c3.545,9.952,3.614,20.577,3.646,30.989q.016,5.2.032,10.4c.011,3.409-.29,4.143-4,3.694-6.866-.833-14-2.249-20.226-5.3-2.961-1.452-5.727-3.286-8.831-4.429-4.515-1.663-9.144-.91-13.611-1.992,1.133-3.425,2.827-6.553,3.615-10.146a74.475,74.475,0,0,0,1.409-10.946c.434-6.419,1.233-12.8,1.714-19.195.345-4.58-.258-8.332,4.613-11.336,2.652-1.635,7.477-4.434,11.219-3.677C839.061,292.344,843.262,295.855,845.742,298.215Z" transform="translate(-812.52 -291.414)" fill="#f9c869"/>
          </g>
        </g>
        <g id="Grupo_47604" data-name="Grupo 47604" transform="translate(33.763 0)">
          <g id="Grupo_47599" data-name="Grupo 47599" transform="translate(0 4.196)">
            <g id="Grupo_47598" data-name="Grupo 47598">
              <g id="Grupo_47597" data-name="Grupo 47597">
                <path id="Trazado_97690" data-name="Trazado 97690" d="M856.439,239.778a41.4,41.4,0,0,0,3.621,5.482,12.3,12.3,0,0,1,1.925,5.44c.227,1.487.759,2.648,2.549,2.9,3.377.48,2.412-2.31,3.179-4.341.877-2.32,2.747-4.154,4.054-6.225,3.776-5.985,2.7-17.814-5.15-20.338C858.034,219.939,853.669,233.725,856.439,239.778Z" transform="translate(-855.61 -222.339)" fill="#e2bd9c"/>
              </g>
            </g>
          </g>
          <g id="Grupo_47601" data-name="Grupo 47601" transform="translate(9.026 6.582)">
            <g id="Grupo_47600" data-name="Grupo 47600">
              <path id="Trazado_97691" data-name="Trazado 97691" d="M884.735,237.851a4.292,4.292,0,0,1,2.768.771c.723.654.644,2.082-.309,2.236-.865.14-1.985-.762-2.513-.1-.309.385-.038.948.2,1.4a8.219,8.219,0,0,1,.749,5.571c.355.329.91-.013,1.223-.356a17.933,17.933,0,0,0,3.557-5.842,3.583,3.583,0,0,0,1.308,1.266,4.138,4.138,0,0,1,.081-2.515c.733-3.027,1.232-6.574-.882-9.048a7.866,7.866,0,0,0-4.581-2.405,23.013,23.013,0,0,0-5.236-.163c-.746.034-1.665.195-1.844.885a8.309,8.309,0,0,1,4.147,3.482C883.652,233.5,884.636,237.848,884.735,237.851Z" transform="translate(-879.253 -228.59)" fill="#2b3444"/>
            </g>
          </g>
          <g id="Grupo_47603" data-name="Grupo 47603" transform="translate(1.362)">
            <g id="Grupo_47602" data-name="Grupo 47602">
              <path id="Trazado_97692" data-name="Trazado 97692" d="M868.866,219.918l.176.131a7.43,7.43,0,0,0,2.334,1.5c1.293.361,2.683-.263,3.956.178,1.423.492,2.359,2.194,3.4,3.2a15.256,15.256,0,0,0,9.651,4.194,6.315,6.315,0,0,0,1.816-.009c.717-.193.693-.519-.071-.764-2.4-.768-3.147-4.133-2.966-6.364.143-1.761.75-3.6.079-5.235a6.215,6.215,0,0,0-2.68-2.607c-1.174-.788-2.448-.575-3.781-.954-1.391-.4-2.525-1.49-3.943-1.77-1.5-.3-3,.369-4.5.66a9.306,9.306,0,0,1-3.76-.046,15.058,15.058,0,0,0-3.313-.68,5.422,5.422,0,0,0-4.175,2.41,11.082,11.082,0,0,0-1.781,7.716c-.075-.391,1.242-1.809,1.513-2.114a3.566,3.566,0,0,1,2.136-1.351A9.178,9.178,0,0,1,868.866,219.918Z" transform="translate(-859.176 -211.347)" fill="#292949"/>
            </g>
          </g>
        </g>
      </g>
      <g id="Grupo_47608" data-name="Grupo 47608" transform="translate(289.467 129.776)">
        <g id="Grupo_47606" data-name="Grupo 47606" transform="translate(0 0)">
          <path id="Trazado_97693" data-name="Trazado 97693" d="M523.259,244.395l-5.81.081a10.542,10.542,0,0,1-.923,3.314q5.345,2.839,10.394,6.193a17.935,17.935,0,0,1,2.81-.577C529.13,252.275,523.955,244.384,523.259,244.395Z" transform="translate(-516.526 -244.395)" fill="#e2bd9c"/>
        </g>
        <g id="Grupo_47607" data-name="Grupo 47607" transform="translate(5.299 4.129)">
          <path id="Trazado_97694" data-name="Trazado 97694" d="M551.253,270.373c-.713-.729-1.455-1.595-2.331-2.56-3.731-4.114-7.789-8.015-11.689-11.973a1.516,1.516,0,0,0-1.992-.449l-4.833,1.571c.4-.131,7.478,13.275,8.2,14.538,1.372,2.386,3.031,4.738,4.244,7.2,1.03,2.089,1.46,4.04,3.692,5.266a15.33,15.33,0,0,0,6.241,1.449,135.494,135.494,0,0,0,20.908.043,5.583,5.583,0,0,0,2.11-.445,4.753,4.753,0,0,0,1.638-1.564,14.378,14.378,0,0,0,2.6-8.632c-.047-2.1-.269-6.546-2.782-7.14a7.063,7.063,0,0,0-3.7.489c-4.676,1.487-9.4,2.815-14.127,4.133C555.2,273.482,553.354,272.522,551.253,270.373Z" transform="translate(-530.407 -255.212)" fill="#167377"/>
        </g>
      </g>
      <g id="Grupo_47629" data-name="Grupo 47629" transform="translate(317.598 116.977)">
        <g id="Grupo_47628" data-name="Grupo 47628">
          <g id="Grupo_47627" data-name="Grupo 47627">
            <g id="Grupo_47613" data-name="Grupo 47613" transform="translate(0 78.185)">
              <g id="Grupo_47611" data-name="Grupo 47611" transform="translate(0 86.15)">
                <g id="Grupo_47609" data-name="Grupo 47609" transform="translate(4.922)">
                  <path id="Trazado_97695" data-name="Trazado 97695" d="M606.531,653.36a18.432,18.432,0,0,1-3.366-.267,57.737,57.737,0,0,1,.677-11.759c1.855,1.839,3.262.629,3.408,4.274C607.3,646.788,606.2,651.579,606.531,653.36Z" transform="translate(-603.108 -641.334)" fill="#e2bd9c"/>
                </g>
                <g id="Grupo_47610" data-name="Grupo 47610" transform="translate(0 9.766)">
                  <path id="Trazado_97696" data-name="Trazado 97696" d="M594.828,666.95c-1.344-.4-1.463,2.766-1.432,3.506a5.491,5.491,0,0,1,.009,1.331,3.556,3.556,0,0,1-.67,1.3l-1.777,2.513a4.19,4.19,0,0,0-.666,1.205,2.459,2.459,0,0,0,1.429,2.8c3.637,1.586,6.621-2.921,7.225-5.819.093-.444.153-.895.213-1.344.125-.93.708-2.977.292-3.855-.486-1.025-1.734-.192-2.6-.539C596.044,667.717,595.371,667.112,594.828,666.95Z" transform="translate(-590.214 -666.916)" fill="#167377"/>
                </g>
              </g>
              <g id="Grupo_47612" data-name="Grupo 47612" transform="translate(1.732)">
                <path id="Trazado_97697" data-name="Trazado 97697" d="M619.189,447.288c-2.788,9.159-6.095,18.151-7.732,27.667-2.023,11.755-5.7,23.315-7.262,35.069a28.75,28.75,0,0,1-4.3.06c-1.643-.1-4.258-.394-4.948-2.143a10.805,10.805,0,0,1-.125-3.342c-.024-3.039.021-6.078.073-9.116.146-8.6.088-17.285,1.185-25.814,1.154-8.971,2.236-17.969,3.191-26.927.494-4.63,1.164-9.242,2.05-13.814.228-1.178,2.613-13.321,3.219-13.259a56.231,56.231,0,0,1,20.427,6.049,2.872,2.872,0,0,1,1.477,1.343,2.651,2.651,0,0,1-.075,1.775c-1.545,5.622-3.727,10.937-5.4,16.545C620.39,443.333,619.8,445.284,619.189,447.288Z" transform="translate(-594.751 -415.669)" fill="#aeb3b7"/>
              </g>
            </g>
            <g id="Grupo_47618" data-name="Grupo 47618" transform="translate(20.719 79.172)">
              <g id="Grupo_47616" data-name="Grupo 47616" transform="translate(7.353 85.947)">
                <g id="Grupo_47614" data-name="Grupo 47614" transform="translate(0.521)">
                  <path id="Trazado_97698" data-name="Trazado 97698" d="M665.11,654.7a18.447,18.447,0,0,0,3.356.37,57.746,57.746,0,0,0,1.544-11.677c-2.168,1.458-3.322.006-4.151,3.558C665.592,648.1,665.767,653.008,665.11,654.7Z" transform="translate(-665.11 -643.389)" fill="#e2bd9c"/>
                </g>
                <g id="Grupo_47615" data-name="Grupo 47615" transform="translate(0 9.066)">
                  <path id="Trazado_97699" data-name="Trazado 97699" d="M668.692,668.539c.124,2.15,1.948,4.37,2.993,6.25a1.326,1.326,0,0,1-.117,1.742,2.763,2.763,0,0,1-1.063,1.12,2.633,2.633,0,0,1-1.514.069q-1.271-.2-2.52-.525a1.73,1.73,0,0,1-.592-.236,1.787,1.787,0,0,1-.462-.6,6.494,6.494,0,0,1-1.223-3.224,19.839,19.839,0,0,0-.273-4.047c-.157-.636-.364-1.449.167-1.833.41-.3,1.212.035,1.679.084a6.317,6.317,0,0,1,2.357.381,1.094,1.094,0,0,1,.417.319A.915.915,0,0,1,668.692,668.539Z" transform="translate(-663.746 -667.138)" fill="#167377"/>
                </g>
              </g>
              <g id="Grupo_47617" data-name="Grupo 47617">
                <path id="Trazado_97700" data-name="Trazado 97700" d="M647.352,446.789c1.018,9.52,2.577,18.973,2.4,28.627-.221,11.925,1.222,23.97.545,35.809a28.764,28.764,0,0,0,4.214.867c1.632.21,4.256.413,5.262-1.175a10.816,10.816,0,0,0,.75-3.259c.594-2.98,1.121-5.974,1.641-8.968,1.471-8.47,3.16-16.994,3.684-25.576.551-9.028,1.179-18.069,1.923-27.048.385-4.641.593-9.3.582-13.953,0-1.2-.064-13.575-.672-13.628a56.232,56.232,0,0,0-21.2,2.105,2.868,2.868,0,0,0-1.7,1.042,2.652,2.652,0,0,0-.26,1.758c.461,5.813,1.607,11.443,2.192,17.264C646.915,442.679,647.129,444.707,647.352,446.789Z" transform="translate(-644.485 -418.256)" fill="#bcbec0"/>
              </g>
            </g>
            <g id="Grupo_47619" data-name="Grupo 47619" transform="translate(1.342 29.95)">
              <path id="Trazado_97701" data-name="Trazado 97701" d="M607.622,290.69c-.114.046-.227.094-.339.144a19.526,19.526,0,0,0-4.96,3.62c-2.289,2.073-3.422,2.989-4.186,5.911a69.867,69.867,0,0,0-1.467,8.369c-1.915,14.31-1.642,28.438-2.785,42.811-.311,3.913-.462,8.5,2.56,11,4.87-4.253,11.261-4.845,17.44-5.2,4.339-.249,8.5-1.895,12.879-1.656,4.183.228,7.755-1.017,11.989-.981,1.021.008,2.316-.076,2.664-1.036-1.707-4.294-1.949-9-2.539-13.584-1.528-11.854-6.117-23.052-8.377-34.784-.768-3.987-1.434-10.641-4.718-13.506-3.569-3.114-11.286-2.745-15.6-1.852A15.028,15.028,0,0,0,607.622,290.69Z" transform="translate(-593.728 -289.32)" fill="#167377"/>
            </g>
            <g id="Grupo_47624" data-name="Grupo 47624" transform="translate(13.26 10.408)">
              <g id="Grupo_47623" data-name="Grupo 47623">
                <g id="Grupo_47622" data-name="Grupo 47622">
                  <g id="Grupo_47621" data-name="Grupo 47621">
                    <g id="Grupo_47620" data-name="Grupo 47620">
                      <path id="Trazado_97702" data-name="Trazado 97702" d="M630.7,260.939a1.484,1.484,0,0,0,.3.365,3.243,3.243,0,0,0,1.862.738,8.049,8.049,0,0,0,2.621-.334c1.159-.29,1.079-.974,1.189-2.048.06-.587.085-1.176.1-1.765.006-.323-.184-1.468.008-1.705.131-.161.7-.142.941-.285a2.742,2.742,0,0,0,.905-1.006,7.688,7.688,0,0,0,.686-2q.437-1.79.873-3.58a18.647,18.647,0,0,0,.643-3.7c.071-1.89-.383-4.528-1.88-5.822a8.5,8.5,0,0,0-5.024-1.637,10.258,10.258,0,0,0-6.577,1.721A5.49,5.49,0,0,0,625.426,242a8.883,8.883,0,0,0-.334,4.65q.232,2.178.464,4.356c.178,1.67.5,3.588,1.8,4.425.694.445,1.571.5,2.176,1.085a4.345,4.345,0,0,1,.863,2.879A3.591,3.591,0,0,0,630.7,260.939Z" transform="translate(-624.948 -238.132)" fill="#e2bd9c"/>
                    </g>
                  </g>
                </g>
              </g>
            </g>
            <g id="Grupo_47625" data-name="Grupo 47625" transform="translate(15.607 1.534)">
              <path id="Trazado_97703" data-name="Trazado 97703" d="M644.491,233.936c-.049.333-.092.674-.115,1.025-.2,2.991.265,5.868-.335,8.868a18.936,18.936,0,0,0,6.992-6.007,4.882,4.882,0,0,0,.8-1.49,5.926,5.926,0,0,0,.151-1.685,50.081,50.081,0,0,0-1.306-10.8,15.606,15.606,0,0,0-1.4-4.016c-2.038-3.674-6.129-4.9-9.812-4.942a9.089,9.089,0,0,0-6.088,1.731c-1.861,1.552-2.365,4.234-2.274,6.524a3.476,3.476,0,0,0,.347,1.633c.588,1.009,1.938,1.2,3.1,1.262a29.621,29.621,0,0,1,4.892.458,7.8,7.8,0,0,1,4.256,2.3C645.217,230.524,644.76,232.108,644.491,233.936Z" transform="translate(-631.095 -214.886)" fill="#00223d"/>
            </g>
            <g id="Grupo_47626" data-name="Grupo 47626" transform="translate(7.06)">
              <path id="Trazado_97704" data-name="Trazado 97704" d="M611.6,217.783a17.429,17.429,0,0,0-1.2,3.2c-1.085,3.972-2.1,7.731-1.518,11.941a7.219,7.219,0,0,0,.406,1.713,6.95,6.95,0,0,0,1.258,1.885,34.511,34.511,0,0,0,6.466,5.86c-.99-5.072-1.963-10.509-.381-15.3a17.012,17.012,0,0,1,6.614-8.393c1.572-1.134,5.806-3.429,4.72-5.96-1.495-3.487-9.688-1.267-11.958.137A11.87,11.87,0,0,0,611.6,217.783Z" transform="translate(-608.707 -210.869)" fill="#00223d"/>
            </g>
          </g>
        </g>
      </g>
      <g id="Grupo_47632" data-name="Grupo 47632" transform="translate(233.323 153.301)">
        <g id="Grupo_47630" data-name="Grupo 47630" transform="translate(36.548 12.734)">
          <path id="Trazado_97705" data-name="Trazado 97705" d="M470.63,342.621c.739-.661,1.387-1.431,2.107-2.115a5.394,5.394,0,0,1,1.27-1.066.908.908,0,0,1,.829.07c.253.23.11.444.206.713-.5.387-1.007.763-1.484,1.182a.187.187,0,0,0-.073.1.185.185,0,0,0,.038.121c.431.707.769.572,1.471.208l3.7-1.923a1.6,1.6,0,0,1,1.36-.219l1.7.324a.549.549,0,0,1,.553.566l.307,1.713a1.193,1.193,0,0,1,.009.568,1.127,1.127,0,0,1-.3.428c-.468.473-.978.9-1.477,1.343a7.583,7.583,0,0,1-1.143.9,6.5,6.5,0,0,1-.957.435,53.394,53.394,0,0,1-12.5,3.17.771.771,0,0,1-.375-.015c-.256-.1-.326-.422-.36-.695-.067-.54-.462-1.763-.247-2.261.195-.452,1.279-.732,1.7-.961A16.18,16.18,0,0,0,470.63,342.621Z" transform="translate(-465.196 -339.373)" fill="#e2bd9c"/>
        </g>
        <g id="Grupo_47631" data-name="Grupo 47631" transform="translate(0 0)">
          <path id="Trazado_97706" data-name="Trazado 97706" d="M390.424,326.533q7.217-1.4,14.342-3.225c1.7-.435,3.971-1.69,5.288-.545,1.12.977,3.166,6.255,2.323,7.583-.8,1.26-4.918,1.761-6.332,2.288q-9.446,3.524-19.006,6.73a8,8,0,0,1-2.473.544,6.625,6.625,0,0,1-3.166-1c-4.3-2.376-7.667-8.3-9.855-12.589-3.358-6.58-2.846-12.842,2.908-17.691a10.752,10.752,0,0,1,5.961-2.591c3.257-.243,3.638,1.373,4.833,4.061A76.468,76.468,0,0,1,390.424,326.533Z" transform="translate(-369.459 -306.016)" fill="#b5d6ca"/>
        </g>
      </g>
      <g id="Grupo_47652" data-name="Grupo 47652" transform="translate(214.98 114.927)">
        <g id="Grupo_47641" data-name="Grupo 47641" transform="translate(0 0)">
          <g id="Grupo_47634" data-name="Grupo 47634" transform="translate(11.556 15.185)">
            <g id="Grupo_47633" data-name="Grupo 47633">
              <path id="Trazado_97707" data-name="Trazado 97707" d="M354.594,253.46a26.254,26.254,0,0,0,5.529,4.225,44.666,44.666,0,0,1-4.1-11.5,1.173,1.173,0,0,0-.41-.809,1.1,1.1,0,0,0-.848-.026C349.736,246.63,351.727,250.592,354.594,253.46Z" transform="translate(-351.681 -245.275)" fill="#00223d"/>
            </g>
          </g>
          <g id="Grupo_47635" data-name="Grupo 47635" transform="translate(12.557 5.528)">
            <path id="Trazado_97708" data-name="Trazado 97708" d="M370.751,242.866a7.6,7.6,0,0,0,.786-1.082c3.04-5.069,2.9-24.082-10.689-21.581-12.34,2.271-4.381,16.837.81,21.978a9.028,9.028,0,0,0,3.692,2.384c.393.114.275,3.935.623,4.511a2.852,2.852,0,0,0,3.517.956,4.745,4.745,0,0,0,2.233-2.941C371.885,246.318,370.466,243.192,370.751,242.866Z" transform="translate(-354.304 -219.978)" fill="#e2bd9c"/>
          </g>
          <g id="Grupo_47640" data-name="Grupo 47640">
            <g id="Grupo_47637" data-name="Grupo 47637" transform="translate(23.958 2.386)">
              <g id="Grupo_47636" data-name="Grupo 47636">
                <path id="Trazado_97709" data-name="Trazado 97709" d="M389.363,232.287c1.241.662,2.7-.41,3.543-1.535a13.677,13.677,0,0,0-.155-16.125c-2.97-3.813-9.9-4.329-8.363,1.463.545,2.054,2.965,4.069,3.736,6.265C389.224,225.493,389.255,229,389.363,232.287Z" transform="translate(-384.169 -211.748)" fill="#00223d"/>
              </g>
            </g>
            <g id="Grupo_47639" data-name="Grupo 47639">
              <g id="Grupo_47638" data-name="Grupo 47638">
                <path id="Trazado_97710" data-name="Trazado 97710" d="M327.05,211.5c-3.754,5.742-2.708,13.459-5.638,19.662a20.348,20.348,0,0,0,14.18-7.055c3.445-4.057,13.244-10.595,8.688-15.932C339.643,202.741,330.339,206.468,327.05,211.5Z" transform="translate(-321.412 -205.499)" fill="#00223d"/>
              </g>
            </g>
          </g>
        </g>
        <g id="Grupo_47649" data-name="Grupo 47649" transform="translate(12.966 92.886)">
          <g id="Grupo_47642" data-name="Grupo 47642" transform="translate(18.235 91.855)">
            <path id="Trazado_97711" data-name="Trazado 97711" d="M404.651,689.418l-1.037,1.2-.474,1.308,2.879,4.64,2.813,1.175,3.2-.181s1.381-.462.592-1.578a6.505,6.505,0,0,0-2.958-1.726l.424-3.668Z" transform="translate(-403.14 -689.418)" fill="#7d6eb2"/>
          </g>
          <g id="Grupo_47643" data-name="Grupo 47643" transform="translate(5.039 89.225)">
            <path id="Trazado_97712" data-name="Trazado 97712" d="M371.391,684.954l-.475,2.265-2.343,3.806.966,1.258,3.743-.211,2.37-3.168.183-6.375-4.292.287Z" transform="translate(-368.573 -682.53)" fill="#7d6eb2"/>
          </g>
          <g id="Grupo_47648" data-name="Grupo 47648">
            <g id="Grupo_47645" data-name="Grupo 47645" transform="translate(0 2.032)">
              <g id="Grupo_47644" data-name="Grupo 47644">
                <path id="Trazado_97713" data-name="Trazado 97713" d="M357.6,454.132l-2.228,12.209,6.285,78,6.579-1.38,10.914-86.222Z" transform="translate(-355.375 -454.132)" fill="#00223d"/>
              </g>
            </g>
            <g id="Grupo_47647" data-name="Grupo 47647" transform="translate(17.691)">
              <g id="Grupo_47646" data-name="Grupo 47646">
                <path id="Trazado_97714" data-name="Trazado 97714" d="M420.659,449.238l1.271,50.28-12.77,43.4-7.444-2.768,6.269-38.706-5.756-52.637Z" transform="translate(-401.716 -448.809)" fill="#00223d"/>
              </g>
            </g>
          </g>
        </g>
        <g id="Grupo_47651" data-name="Grupo 47651" transform="translate(8.476 29.413)">
          <g id="Grupo_47650" data-name="Grupo 47650">
            <path id="Trazado_97715" data-name="Trazado 97715" d="M346.536,295.882c-1.193,2.593-1.413,5.461-1.807,8.586a146.907,146.907,0,0,0-1.1,16.3c-.089,6.328.178,12.653.678,18.956.25,3.153.559,6.3.91,9.444.182,1.628-.536,5.808,1.226,6.665a6.088,6.088,0,0,0,3.271.255l29.3-3.076a11.862,11.862,0,0,0,4.543-1.1c2.427-1.346,2.006-3.989,2.39-6.217a47.011,47.011,0,0,0,.562-8.927c-.124-6.125-1.063-12.191-1.5-18.294-.475-6.562-1.526-15.362-4.015-21.6a20.632,20.632,0,0,0-4.85-7.092c-2.69-2.513-5.166-3.147-8.79-3.8a.934.934,0,0,1-.426-.152.818.818,0,0,1-.229-.406L366,283.31a1.088,1.088,0,0,0-.457-.691,1.271,1.271,0,0,0-.844,0l-7.279,1.655a4.453,4.453,0,0,1,.182,1.688,1.654,1.654,0,0,1-1.009,1.337,23.723,23.723,0,0,0-7.082,4.617A11.815,11.815,0,0,0,346.536,295.882Z" transform="translate(-343.615 -282.543)" fill="#7d6eb2"/>
          </g>
        </g>
      </g>
      <g id="Grupo_47676" data-name="Grupo 47676" transform="translate(245.861 158.364)">
        <g id="Grupo_47653" data-name="Grupo 47653" transform="translate(3.553 2.837)">
          <rect id="Rectángulo_28558" data-name="Rectángulo 28558" width="94.301" height="127.477" transform="translate(2.547 0) rotate(1.145)" fill="#00223d"/>
        </g>
        <g id="Grupo_47654" data-name="Grupo 47654" transform="translate(1.183 0)">
          <rect id="Rectángulo_28559" data-name="Rectángulo 28559" width="94.301" height="127.477" transform="translate(2.547 0) rotate(1.145)" fill="#bcbec0"/>
        </g>
        <g id="Grupo_47655" data-name="Grupo 47655" transform="translate(0 0.017)">
          <rect id="Rectángulo_28560" data-name="Rectángulo 28560" width="94.301" height="127.477" fill="#f2f2f2"/>
        </g>
        <g id="Grupo_47660" data-name="Grupo 47660" transform="translate(14.464 7.762)">
          <g id="Grupo_47656" data-name="Grupo 47656" transform="translate(0 0.254)">
            <path id="Trazado_97716" data-name="Trazado 97716" d="M454.683,356.59h-3.946l-6.6-10.015V356.59h-3.946V340.275h3.946l6.6,10.107V340.275h3.946Z" transform="translate(-440.191 -340.275)" fill="#00223d"/>
          </g>
          <g id="Grupo_47657" data-name="Grupo 47657" transform="translate(17.215 0.254)">
            <path id="Trazado_97717" data-name="Trazado 97717" d="M489.23,343.413v3.415h5.515v2.977H489.23v3.623h6.207v3.162H485.284V340.275h10.153v3.138Z" transform="translate(-485.284 -340.275)" fill="#00223d"/>
          </g>
          <g id="Grupo_47658" data-name="Grupo 47658" transform="translate(28.96 0.254)">
            <path id="Trazado_97718" data-name="Trazado 97718" d="M538.872,340.275l-3.9,16.315H530.08l-2.608-10.915-2.631,10.915H519.95l-3.9-16.315h4.292l2.1,11.815,2.861-11.815h4.315l2.861,11.815,2.123-11.815Z" transform="translate(-516.05 -340.275)" fill="#00223d"/>
          </g>
          <g id="Grupo_47659" data-name="Grupo 47659" transform="translate(53.374)">
            <path id="Trazado_97719" data-name="Trazado 97719" d="M591.552,353.963a4.631,4.631,0,0,1-1.939,1.73,6.826,6.826,0,0,1-3.1.646A7.307,7.307,0,0,1,581.987,355a4.847,4.847,0,0,1-1.939-3.738h4.2a2.214,2.214,0,0,0,.658,1.454,2.022,2.022,0,0,0,1.442.531,1.676,1.676,0,0,0,1.2-.415,1.455,1.455,0,0,0,.438-1.107,1.431,1.431,0,0,0-.4-1.039,3.172,3.172,0,0,0-1-.681q-.6-.265-1.661-.634a20.351,20.351,0,0,1-2.527-1.027,4.647,4.647,0,0,1-1.685-1.477,4.807,4.807,0,0,1,.035-5.066,4.7,4.7,0,0,1,2.042-1.627,7.449,7.449,0,0,1,2.988-.565A6.7,6.7,0,0,1,590.1,340.9a4.932,4.932,0,0,1,1.811,3.554H587.64a2.194,2.194,0,0,0-.588-1.281,1.733,1.733,0,0,0-1.281-.473,1.652,1.652,0,0,0-1.119.369,1.356,1.356,0,0,0-.427,1.085,1.377,1.377,0,0,0,.381.981,2.9,2.9,0,0,0,.958.658q.577.254,1.661.646a18.325,18.325,0,0,1,2.562,1.05A4.905,4.905,0,0,1,591.494,349a4.318,4.318,0,0,1,.715,2.585A4.5,4.5,0,0,1,591.552,353.963Z" transform="translate(-580.002 -339.61)" fill="#00223d"/>
          </g>
        </g>
        <g id="Grupo_47661" data-name="Grupo 47661" transform="translate(6.083 30.686)" opacity="0.1">
          <rect id="Rectángulo_28561" data-name="Rectángulo 28561" width="82.134" height="15.677" fill="#00223d"/>
        </g>
        <g id="Grupo_47662" data-name="Grupo 47662" transform="translate(6.083 56.823)" opacity="0.1">
          <rect id="Rectángulo_28562" data-name="Rectángulo 28562" width="38.563" height="27.565" fill="#00223d"/>
        </g>
        <g id="Grupo_47663" data-name="Grupo 47663" transform="translate(49.598 90.683)" opacity="0.1">
          <rect id="Rectángulo_28563" data-name="Rectángulo 28563" width="38.563" height="27.565" fill="#00223d"/>
        </g>
        <g id="Grupo_47664" data-name="Grupo 47664" transform="translate(49.598 55.63)" opacity="0.1">
          <rect id="Rectángulo_28564" data-name="Rectángulo 28564" width="38.313" height="2.386" fill="#00223d"/>
        </g>
        <g id="Grupo_47665" data-name="Grupo 47665" transform="translate(49.598 60.92)" opacity="0.1">
          <rect id="Rectángulo_28565" data-name="Rectángulo 28565" width="38.313" height="2.386" fill="#00223d"/>
        </g>
        <g id="Grupo_47666" data-name="Grupo 47666" transform="translate(49.598 66.21)" opacity="0.1">
          <rect id="Rectángulo_28566" data-name="Rectángulo 28566" width="38.313" height="2.386" fill="#00223d"/>
        </g>
        <g id="Grupo_47667" data-name="Grupo 47667" transform="translate(49.598 71.5)" opacity="0.1">
          <rect id="Rectángulo_28567" data-name="Rectángulo 28567" width="38.313" height="2.386" fill="#00223d"/>
        </g>
        <g id="Grupo_47668" data-name="Grupo 47668" transform="translate(49.598 76.331)" opacity="0.1">
          <rect id="Rectángulo_28568" data-name="Rectángulo 28568" width="38.313" height="2.386" fill="#00223d"/>
        </g>
        <g id="Grupo_47669" data-name="Grupo 47669" transform="translate(49.598 81.621)" opacity="0.1">
          <rect id="Rectángulo_28569" data-name="Rectángulo 28569" width="38.313" height="2.386" fill="#00223d"/>
        </g>
        <g id="Grupo_47670" data-name="Grupo 47670" transform="translate(6.208 89.49)" opacity="0.1">
          <rect id="Rectángulo_28570" data-name="Rectángulo 28570" width="38.313" height="2.386" fill="#00223d"/>
        </g>
        <g id="Grupo_47671" data-name="Grupo 47671" transform="translate(6.208 94.78)" opacity="0.1">
          <rect id="Rectángulo_28571" data-name="Rectángulo 28571" width="38.313" height="2.386" fill="#00223d"/>
        </g>
        <g id="Grupo_47672" data-name="Grupo 47672" transform="translate(6.208 100.07)" opacity="0.1">
          <rect id="Rectángulo_28572" data-name="Rectángulo 28572" width="38.313" height="2.386" fill="#00223d"/>
        </g>
        <g id="Grupo_47673" data-name="Grupo 47673" transform="translate(6.208 105.36)" opacity="0.1">
          <rect id="Rectángulo_28573" data-name="Rectángulo 28573" width="38.313" height="2.386" fill="#00223d"/>
        </g>
        <g id="Grupo_47674" data-name="Grupo 47674" transform="translate(6.208 110.191)" opacity="0.1">
          <rect id="Rectángulo_28574" data-name="Rectángulo 28574" width="38.313" height="2.386" fill="#00223d"/>
        </g>
        <g id="Grupo_47675" data-name="Grupo 47675" transform="translate(6.208 115.481)" opacity="0.1">
          <rect id="Rectángulo_28575" data-name="Rectángulo 28575" width="38.313" height="2.386" fill="#00223d"/>
        </g>
      </g>
      <g id="Grupo_47679" data-name="Grupo 47679" transform="translate(221.991 155.769)">
        <g id="Grupo_47677" data-name="Grupo 47677" transform="translate(25.433 33.832)">
          <path id="Trazado_97720" data-name="Trazado 97720" d="M415.633,402.383c.478-.333,1.19-1.386,1.885-1.272a1.856,1.856,0,0,1,.716.607c.315.452.181.253.054.756a1.687,1.687,0,0,0,.046,1.377c1.094,1.729,3.65-1.835,5.021-1.842,3.369-.014-.464,5.006-1.177,5.915a3.276,3.276,0,0,1-1.292,1.121,3.542,3.542,0,0,1-1.09.181l-4.049.245c-3.069.186-11.648,1.645-8.769-3.962a.731.731,0,0,1,.4-.41.785.785,0,0,1,.362.012,11.16,11.16,0,0,0,2.287.457,8.047,8.047,0,0,0,2.72-.838C414.04,404.133,414.485,403.183,415.633,402.383Z" transform="translate(-406.396 -401.102)" fill="#e2bd9c"/>
        </g>
        <g id="Grupo_47678" data-name="Grupo 47678" transform="translate(0 0)">
          <path id="Trazado_97721" data-name="Trazado 97721" d="M339.869,347.145c.314,1.587,1.4,2.635,2.863,3.876,3.679,3.111,6.769,5.305,11.765,5.647a82.78,82.78,0,0,0,17.347-.64c-.162.023-1.377-5.547-1.588-6.059-.66-1.6-.66-1.8-2.3-2.412-3.55-1.33-8.928-.879-12.7-1.041q1.591-12.9,3.182-25.8c.352-2.856.355-6.437-2.186-7.79a4.865,4.865,0,0,0-4.444.221c-2.766,1.44-4.271,4.468-5.454,7.353a97.69,97.69,0,0,0-6.527,24.8A5.759,5.759,0,0,0,339.869,347.145Z" transform="translate(-339.776 -312.48)" fill="#7d6eb2"/>
        </g>
      </g>
      <g id="Grupo_47684" data-name="Grupo 47684" transform="translate(183.629 145.742)">
        <g id="Grupo_47681" data-name="Grupo 47681" transform="translate(14.115)">
          <g id="Grupo_47680" data-name="Grupo 47680">
            <path id="Trazado_97722" data-name="Trazado 97722" d="M276.265,295.95l1.43-2.937-.954-2.729.465-.5.627.56-.155-2.493,1.172-1.636,2.653.03,2.149,1.738-.3,2.676-1.876,2.568-1.786,4.107Z" transform="translate(-276.265 -286.217)" fill="#ad7b59"/>
          </g>
        </g>
        <g id="Grupo_47683" data-name="Grupo 47683" transform="translate(0 8.042)">
          <g id="Grupo_47682" data-name="Grupo 47682">
            <path id="Trazado_97723" data-name="Trazado 97723" d="M252.04,307.283c-3.536,7.949-16.936,25.453-11.445,34.449,4.582,7.507,13.106,1.637,14.4-4.715,1.857-9.142,2.627-18.856,4.494-28.153Z" transform="translate(-239.291 -307.283)" fill="#8ec8c8"/>
          </g>
        </g>
      </g>
      <g id="Grupo_47713" data-name="Grupo 47713" transform="translate(149.259 115.909)">
        <g id="Grupo_47702" data-name="Grupo 47702" transform="translate(0 30.404)">
          <g id="Grupo_47686" data-name="Grupo 47686" transform="translate(32.707 156.332)">
            <g id="Grupo_47685" data-name="Grupo 47685" transform="translate(0 0)">
              <path id="Trazado_97724" data-name="Trazado 97724" d="M234.976,697.89l-.042,2.747,6.992,3.63L245.5,700.8l-3.469-3.576-.454-.007-.125.774Z" transform="translate(-234.934 -697.215)" fill="#8ec8c8"/>
            </g>
          </g>
          <g id="Grupo_47688" data-name="Grupo 47688" transform="translate(11.348 155.96)">
            <g id="Grupo_47687" data-name="Grupo 47687">
              <path id="Trazado_97725" data-name="Trazado 97725" d="M183.046,696.248l-.486-.007-3.576,3.469,3.469,3.576,7.1-3.415.042-2.747-6.478-.1Z" transform="translate(-178.983 -696.241)" fill="#8ec8c8"/>
            </g>
          </g>
          <g id="Grupo_47701" data-name="Grupo 47701">
            <g id="Grupo_47690" data-name="Grupo 47690">
              <g id="Grupo_47689" data-name="Grupo 47689">
                <path id="Trazado_97726" data-name="Trazado 97726" d="M166.345,340.191a85.91,85.91,0,0,0,1.892-11.346c.307-7.061,1.551-30.379,1.551-30.379l4.448-8.858.8.02-.171-.023c.187.025-.064-1.726-.128-1.881a14.884,14.884,0,0,0-11.02,4.766,27.537,27.537,0,0,0-3.917,7.406c-2.966,7.329-4.364,14.14-5.906,21.87-.983,4.929-1.9,9.836-2.631,14.734a153.877,153.877,0,0,0-1.643,16.219c-.026.6-.169,2.259-.265,4.247-.2,4.165-.2,9.741,1.524,9.975a1.682,1.682,0,0,0,.923-.233,60.7,60.7,0,0,0,5.983-3.689l.436-21.737Z" transform="translate(-149.259 -287.712)" fill="#8ec8c8"/>
              </g>
            </g>
            <g id="Grupo_47692" data-name="Grupo 47692" transform="translate(30.393 0.335)">
              <g id="Grupo_47691" data-name="Grupo 47691">
                <path id="Trazado_97727" data-name="Trazado 97727" d="M254.881,363.679c-.371-4.633-.759-9.265-1.248-13.887a173.638,173.638,0,0,0-4.791-27.367c-.93-3.418-2.012-6.79-3.094-10.162L241.8,299.948c-1.637-5.1-4.475-8.722-9.514-10.576a18.853,18.853,0,0,0-2.827-.784,3.129,3.129,0,0,0-.064.323,2.664,2.664,0,0,1-.52,1.374l3.324.083s8.873,33.48,9.13,39.232c.1,2.186.461,6.961.869,11.991l5.082.841-.074,19.216q.425.132.847.253c1.609.461,2.906,1.679,4.234,2.639C254.247,365.955,255.108,366.518,254.881,363.679Z" transform="translate(-228.872 -288.588)" fill="#8ec8c8"/>
              </g>
            </g>
            <g id="Grupo_47694" data-name="Grupo 47694" transform="translate(35.038 53.337)">
              <g id="Grupo_47693" data-name="Grupo 47693">
                <path id="Trazado_97728" data-name="Trazado 97728" d="M249.718,427.424c.646,7.961,1.406,16.562,1.406,16.562s-4.12.036-10.085.4c.441,0,.882-.009,1.322-.006,4.144.026,8.415,1.881,12.365,3.1l.074-19.216Z" transform="translate(-241.039 -427.424)" fill="#3ababa"/>
              </g>
            </g>
            <g id="Grupo_47696" data-name="Grupo 47696" transform="translate(8.519 52.479)">
              <g id="Grupo_47695" data-name="Grupo 47695">
                <path id="Trazado_97729" data-name="Trazado 97729" d="M178.669,445.117c-2.843.107-3.188-.433-3.188-.433s2.722-10.428,4.66-19.506l-8.131,1.091-.436,21.737a21.153,21.153,0,0,1,2.19-1.2A27.376,27.376,0,0,1,178.669,445.117Z" transform="translate(-171.574 -425.178)" fill="#8ec8c8"/>
              </g>
            </g>
            <g id="Grupo_47698" data-name="Grupo 47698" transform="translate(8.428 70.289)">
              <g id="Grupo_47697" data-name="Grupo 47697">
                <path id="Trazado_97730" data-name="Trazado 97730" d="M211.633,474.934c-3.95-1.221-8.22-3.077-12.365-3.1-.44,0-.881,0-1.322.006l-1.128.071c-2.78.181-5.9.432-9.168.778l-.481.051a56.476,56.476,0,0,1-8.648,1.223,27.387,27.387,0,0,0-4.905,1.692,21.085,21.085,0,0,0-2.19,1.2l-.091,4.527,6.772,77.01,6.512.1-.012.783h.037l7.946-51.465.034-.29,3.133,51.924h.037l.012-.783,6.544.1,9.179-57.628Z" transform="translate(-171.336 -471.831)" fill="#00223d"/>
              </g>
            </g>
            <g id="Grupo_47700" data-name="Grupo 47700" transform="translate(12.426 1.896)">
              <g id="Grupo_47699" data-name="Grupo 47699">
                <path id="Trazado_97731" data-name="Trazado 97731" d="M213.1,344.119c-.408-5.03-.772-9.8-.869-11.991-.257-5.751-9.13-39.232-9.13-39.232l-3.324-.083a1.234,1.234,0,0,1-.118.119,1.026,1.026,0,0,1-.361.2,1.942,1.942,0,0,1-.851.011l-3.292-.447-.8-.02-4.448,8.858s-1.244,23.317-1.551,30.379a85.909,85.909,0,0,1-1.892,11.346c-1.938,9.078-4.66,19.506-4.66,19.506s.345.541,3.188.433a56.513,56.513,0,0,0,8.648-1.223l.481-.051c3.263-.346,6.388-.6,9.168-.778l1.128-.071c5.964-.361,10.084-.4,10.084-.4S213.745,352.08,213.1,344.119Z" transform="translate(-181.808 -292.679)" fill="#fff"/>
              </g>
            </g>
          </g>
        </g>
        <g id="Grupo_47712" data-name="Grupo 47712" transform="translate(18.431)">
          <g id="Grupo_47704" data-name="Grupo 47704" transform="translate(15.561 5.082)">
            <g id="Grupo_47703" data-name="Grupo 47703">
              <path id="Trazado_97732" data-name="Trazado 97732" d="M241.4,226.146a13.1,13.1,0,0,1,1.17,5.925,1.871,1.871,0,0,0,.391,1.513c.436.372-.016,1.092.363.66a9.962,9.962,0,0,0,1.76-2.506,21.7,21.7,0,0,0,.261-4.054,5.9,5.9,0,0,0-.884-3.363,6.538,6.538,0,0,0-1.548-1.373,8.3,8.3,0,0,0-2.626-1.42c-1.665-.434-2.74.111-1.331,1.408A10.458,10.458,0,0,1,241.4,226.146Z" transform="translate(-238.3 -221.381)" fill="#292949"/>
            </g>
          </g>
          <g id="Grupo_47707" data-name="Grupo 47707" transform="translate(1.781 5.112)">
            <g id="Grupo_47706" data-name="Grupo 47706">
              <g id="Grupo_47705" data-name="Grupo 47705">
                <path id="Trazado_97733" data-name="Trazado 97733" d="M207.085,248.5,214,249.627a43.536,43.536,0,0,0,1.026-6.142c2.044-.216,4.464-.72,5.3-2.825a7.186,7.186,0,0,0,.371-2.121l.654-8.942a8.8,8.8,0,0,0-.136-3.074,6.164,6.164,0,0,0-3.458-3.559,13.032,13.032,0,0,0-12.016-.067,6.588,6.588,0,0,0-2.56,2.291c-.953,1.581-.98,3.61-.973,5.51q.009,2.629.018,5.258c.007,2.016.151,4.346,1.614,5.51.776.618,1.821.792,2.474,1.568C207.463,244.4,206.747,246.649,207.085,248.5Z" transform="translate(-202.204 -221.461)" fill="#ad7b59"/>
              </g>
            </g>
          </g>
          <g id="Grupo_47709" data-name="Grupo 47709" transform="translate(1.187 19.205)">
            <g id="Grupo_47708" data-name="Grupo 47708">
              <path id="Trazado_97734" data-name="Trazado 97734" d="M220.521,260.22c0-.555-.127-2.191-1.012-1.228a1.691,1.691,0,0,0-.345.978,3.835,3.835,0,0,1-.176,1.046,1.823,1.823,0,0,1-1.9.978,1.765,1.765,0,0,1-.844-.264,2.708,2.708,0,0,1-.611-.654l-1.32-1.766c-.756-1.012-2.409-.708-3.523-.636a7.01,7.01,0,0,0-3.679,1.168c-.111.079-.219.163-.328.245a3.807,3.807,0,0,1-.832.528,2.436,2.436,0,0,1-2.827-1.127c-.289-.439-.547-1-1.033-1.1a1.006,1.006,0,0,0-.993.526,2.974,2.974,0,0,0-.357,1.2,9.148,9.148,0,0,0,.472,4.547c1.228,3.059,3.957,3.609,6.727,3.729l3.285.143c2,.087,4.12.146,5.882-.922a7.325,7.325,0,0,0,3.038-4.487A11.723,11.723,0,0,0,220.521,260.22Zm-7.59,3.7a3.78,3.78,0,0,1-3.413.17c-.489-.186-.221-1.023.269-.836a3.039,3.039,0,0,0,2.787-.122C213.035,262.864,213.389,263.654,212.931,263.924Z" transform="translate(-200.646 -258.376)" fill="#00223d"/>
            </g>
          </g>
          <g id="Grupo_47711" data-name="Grupo 47711">
            <g id="Grupo_47710" data-name="Grupo 47710">
              <path id="Trazado_97735" data-name="Trazado 97735" d="M220.082,212.989a16.1,16.1,0,0,0,.572-2.173,4.231,4.231,0,0,1-2.133.041l.08-1.287c.02-.357-4.707-.927-5.091-.986-3.589-.545-6.87-1.055-10.263.694a10,10,0,0,0-5.494,7.127,15.535,15.535,0,0,0,1.727,9.958c.045-.832-.3-2.826-.052-3.6a7.144,7.144,0,0,1,.907-2.21,9.255,9.255,0,0,1,3.443-3.221,17.634,17.634,0,0,1,7.189-1.933,18.983,18.983,0,0,1,7.216.482c1.049.363,1.209.648,1.928-.405a18.828,18.828,0,0,0,1.092-2.39Z" transform="translate(-197.538 -208.07)" fill="#00223d"/>
            </g>
          </g>
        </g>
      </g>
      <g id="Grupo_47730" data-name="Grupo 47730" transform="translate(158.115 186.665)">
        <g id="Grupo_47724" data-name="Grupo 47724" transform="translate(0 0)">
          <g id="Grupo_47718" data-name="Grupo 47718" transform="translate(4.771)">
            <g id="Grupo_47717" data-name="Grupo 47717">
              <g id="Grupo_47715" data-name="Grupo 47715">
                <g id="Grupo_47714" data-name="Grupo 47714">
                  <path id="Rectángulo_28576" data-name="Rectángulo 28576" d="M4.869,0H73.278a4.869,4.869,0,0,1,4.869,4.869v47.3a0,0,0,0,1,0,0H0a0,0,0,0,1,0,0V4.869A4.869,4.869,0,0,1,4.869,0Z" fill="#00223d"/>
                </g>
              </g>
              <g id="Grupo_47716" data-name="Grupo 47716" transform="translate(3.115 3.614)">
                <rect id="Rectángulo_28577" data-name="Rectángulo 28577" width="71.937" height="45.677" fill="url(#linear-gradient)"/>
              </g>
            </g>
          </g>
          <g id="Grupo_47723" data-name="Grupo 47723" transform="translate(0 52.043)">
            <g id="Grupo_47721" data-name="Grupo 47721">
              <g id="Grupo_47719" data-name="Grupo 47719" transform="translate(0.114 4.008)">
                <path id="Trazado_97736" data-name="Trazado 97736" d="M255.552,543.1l-78.148-.234a5.454,5.454,0,0,1-4.649-2.628h0l87.461.261h0A5.454,5.454,0,0,1,255.552,543.1Z" transform="translate(-172.755 -540.234)" fill="#babcbc"/>
              </g>
              <g id="Grupo_47720" data-name="Grupo 47720">
                <rect id="Rectángulo_28578" data-name="Rectángulo 28578" width="87.689" height="4.704" rx="1.768" fill="#c6cac9"/>
              </g>
            </g>
            <g id="Grupo_47722" data-name="Grupo 47722" transform="translate(36.612 1.383)" opacity="0.14">
              <rect id="Rectángulo_28579" data-name="Rectángulo 28579" width="14.465" height="1.664" rx="0.832" fill="#000100"/>
            </g>
          </g>
        </g>
        <g id="Grupo_47725" data-name="Grupo 47725" transform="translate(38.466 13.879)">
          <path id="Trazado_97737" data-name="Trazado 97737" d="M273.215,429.767v19.191l14.076-9.762Z" transform="translate(-273.215 -429.767)" fill="#00223d"/>
        </g>
        <g id="Grupo_47729" data-name="Grupo 47729" transform="translate(10.801 43.33)">
          <g id="Grupo_47726" data-name="Grupo 47726" opacity="0.69">
            <rect id="Rectángulo_28580" data-name="Rectángulo 28580" width="66.087" height="2.05" fill="#fff"/>
          </g>
          <g id="Grupo_47727" data-name="Grupo 47727" transform="translate(0.001)">
            <rect id="Rectángulo_28581" data-name="Rectángulo 28581" width="0.994" height="2.05" fill="#b5d6ca"/>
          </g>
          <g id="Grupo_47728" data-name="Grupo 47728" transform="translate(0.995)">
            <rect id="Rectángulo_28582" data-name="Rectángulo 28582" width="15.713" height="2.05" fill="#00223d"/>
          </g>
        </g>
      </g>
      <path id="Trazado_97738" data-name="Trazado 97738" d="M500.62,81.614a37.144,37.144,0,1,0,2.911,14.413A36.9,36.9,0,0,0,500.62,81.614ZM448.506,94.886a36.735,36.735,0,0,1,.984-8.49h15.15v17.612H449.61A38.311,38.311,0,0,1,448.506,94.886Zm27.3-24.345a39.149,39.149,0,0,1,6.328,10.123c.281.662.539,1.331.779,2.007H468.366v-19A42.9,42.9,0,0,1,475.8,70.541Zm-11.162-6.5V82.67H450.59c.231-.649.478-1.293.747-1.93a39.1,39.1,0,0,1,6.273-10.1A43.293,43.293,0,0,1,464.64,64.04Zm0,43.7v19.994a51.951,51.951,0,0,1-6.887-7.288,46.053,46.053,0,0,1-6.371-10.946q-.354-.876-.665-1.76Zm3.726,20.412V107.736h14.415q-.3.85-.636,1.691a46,46,0,0,1-6.325,10.918A51.768,51.768,0,0,1,468.366,128.148Zm0-24.139V86.4h15.643a36.73,36.73,0,0,1,.984,8.49,38.332,38.332,0,0,1-1.1,9.123ZM487.829,86.4H498.4a33.636,33.636,0,0,1,.448,17.612H487.717a42.009,42.009,0,0,0,1-9.123A40.55,40.55,0,0,0,487.829,86.4Zm2.222-13.917a33.278,33.278,0,0,1,6.966,10.19H486.84q-.559-1.757-1.281-3.463a42.867,42.867,0,0,0-6.926-11.088,47.337,47.337,0,0,0-4.386-4.485A33.078,33.078,0,0,1,490.051,72.48Zm-47.1,0a33.07,33.07,0,0,1,16.461-8.993,47.347,47.347,0,0,0-4.55,4.632,42.846,42.846,0,0,0-6.926,11.088q-.724,1.7-1.281,3.463h-10.67A33.27,33.27,0,0,1,442.955,72.48ZM434.61,86.4h11.06a40.548,40.548,0,0,0-.891,8.49,42.012,42.012,0,0,0,1,9.123h-11.62A33.638,33.638,0,0,1,434.61,86.4Zm8.345,33.179a33.2,33.2,0,0,1-7.638-11.84H446.79q.506,1.591,1.137,3.157a49.777,49.777,0,0,0,6.883,11.835,56.231,56.231,0,0,0,5.405,6.007A33.059,33.059,0,0,1,442.955,119.575Zm47.1,0a33.063,33.063,0,0,1-16.636,9.032,56.179,56.179,0,0,0,5.274-5.881,49.788,49.788,0,0,0,6.882-11.835q.633-1.566,1.138-3.157h10.98A33.2,33.2,0,0,1,490.051,119.575Z" transform="translate(-173.241 0)" fill="#00223d"/>
      <g id="Grupo_47737" data-name="Grupo 47737" transform="translate(351.719 99.905)">
        <g id="Grupo_47735" data-name="Grupo 47735" transform="translate(0 0.005)">
          <g id="Grupo_47731" data-name="Grupo 47731">
            <path id="Trazado_97739" data-name="Trazado 97739" d="M717.981,189.341l5.143,7.965-1.786-12.192-41.747-18.952Z" transform="translate(-679.592 -166.162)" fill="#01101c"/>
          </g>
          <g id="Grupo_47732" data-name="Grupo 47732" transform="translate(0.103 0.111)">
            <path id="Trazado_97740" data-name="Trazado 97740" d="M723.29,197.487l-5.007-7.853-38.423-23.18Z" transform="translate(-679.861 -166.454)" fill="#01101c"/>
          </g>
          <g id="Grupo_47733" data-name="Grupo 47733" transform="translate(0.103 0.111)">
            <path id="Trazado_97741" data-name="Trazado 97741" d="M679.861,166.454l.394.18,38.011,22.948.043.018-9.354,12.268Z" transform="translate(-679.861 -166.454)" fill="#f6c343"/>
          </g>
          <g id="Grupo_47734" data-name="Grupo 47734">
            <path id="Trazado_97742" data-name="Trazado 97742" d="M679.592,166.162l49.789,8.519L721.4,185.148l-41.31-18.695Z" transform="translate(-679.592 -166.162)" fill="#f6c343"/>
          </g>
        </g>
        <g id="Grupo_47736" data-name="Grupo 47736">
          <path id="Trazado_97743" data-name="Trazado 97743" d="M679.591,168.051h0v0Zm0-1.892v-.01h0Z" transform="translate(-679.591 -166.149)" fill="#a4a6a9"/>
        </g>
      </g>
      <g id="Grupo_47741" data-name="Grupo 47741" transform="translate(332.93 150.579)">
        <g id="Grupo_47739" data-name="Grupo 47739" transform="translate(0 23.824)">
          <g id="Grupo_47738" data-name="Grupo 47738">
            <path id="Trazado_97744" data-name="Trazado 97744" d="M636.1,362.365c-.37-.279-.9-1.139-1.46-1.07a1.482,1.482,0,0,0-.588.461c-.265.35-.152.2-.066.6.105.5.041,1.239-.689,1.141a2.476,2.476,0,0,1-.91-.457,1,1,0,0,0-.968-.144,1.019,1.019,0,0,0-.3.282,3.24,3.24,0,0,0-.733,2.279c.285,2.638,3.508,2.357,5.4,2.545,2.436.242,9.217,1.668,7.1-2.882a.581.581,0,0,0-.3-.339.628.628,0,0,0-.288,0,8.869,8.869,0,0,1-1.833.292,6.4,6.4,0,0,1-2.139-.75C637.315,363.807,636.99,363.038,636.1,362.365Z" transform="translate(-630.376 -361.291)" fill="#e2bd9c"/>
          </g>
        </g>
        <g id="Grupo_47740" data-name="Grupo 47740" transform="translate(7.121)">
          <path id="Trazado_97745" data-name="Trazado 97745" d="M666.071,304.035c1.528,3.131,1.945,6.675,2.229,10.148a164.229,164.229,0,0,1,.387,20.623,105.369,105.369,0,0,1-18.839-2.414,65.665,65.665,0,0,1-.811-11.182,57.561,57.561,0,0,1,8.535.591l-2.246-8.924c-.666-2.644-1.336-5.371-.943-8.069C655.606,296.416,662.964,297.668,666.071,304.035Z" transform="translate(-649.03 -298.885)" fill="#167377"/>
        </g>
      </g>
      <g id="Grupo_47746" data-name="Grupo 47746" transform="translate(158.184 152.512)">
        <g id="Grupo_47743" data-name="Grupo 47743" transform="translate(27.643 36.65)">
          <g id="Grupo_47742" data-name="Grupo 47742">
            <path id="Trazado_97746" data-name="Trazado 97746" d="M246.292,399.951l2.938,1.381,2.651-1.037.505.461-.529.651,2.447-.219,1.65,1.151.062,2.7-1.636,2.225-2.642-.239-2.59-1.842-4.1-1.713Z" transform="translate(-245.047 -399.951)" fill="#ad7b59"/>
          </g>
        </g>
        <g id="Grupo_47745" data-name="Grupo 47745" transform="translate(0 0)">
          <g id="Grupo_47744" data-name="Grupo 47744">
            <path id="Trazado_97747" data-name="Trazado 97747" d="M203.753,340.035l-15.737-8.156-6.835-27.93-8.543,13.119,1.725,18.523,4.036,6.3,24.806,4.863Z" transform="translate(-172.639 -303.949)" fill="#8ec8c8"/>
          </g>
        </g>
      </g>
      <g id="Grupo_47770" data-name="Grupo 47770" transform="translate(359.198 173.771)">
        <g id="Grupo_47762" data-name="Grupo 47762" transform="translate(0)">
          <g id="Grupo_47751" data-name="Grupo 47751">
            <g id="Grupo_47750" data-name="Grupo 47750">
              <g id="Grupo_47747" data-name="Grupo 47747">
                <path id="Trazado_97748" data-name="Trazado 97748" d="M760,443.241l-59.794-.214a1.028,1.028,0,0,1-1.025-1.032l.291-81.334a1.029,1.029,0,0,1,1.032-1.025l59.794.214a1.029,1.029,0,0,1,1.025,1.032l-.291,81.334A1.029,1.029,0,0,1,760,443.241Z" transform="translate(-699.184 -359.636)" fill="#00223d"/>
              </g>
              <g id="Grupo_47748" data-name="Grupo 47748" transform="translate(3.275 3.647)">
                <rect id="Rectángulo_28583" data-name="Rectángulo 28583" width="55.349" height="72.187" transform="matrix(1, 0.004, -0.004, 1, 0.258, 0)" fill="#f2f2f2"/>
              </g>
              <g id="Grupo_47749" data-name="Grupo 47749" transform="translate(29.023 77.65)">
                <path id="Trazado_97749" data-name="Trazado 97749" d="M779.033,565.062a1.915,1.915,0,1,1-1.905-2.025A1.967,1.967,0,0,1,779.033,565.062Z" transform="translate(-775.209 -563.037)" fill="#fff"/>
              </g>
            </g>
          </g>
          <g id="Grupo_47755" data-name="Grupo 47755" transform="translate(6.654 38.376)">
            <g id="Grupo_47752" data-name="Grupo 47752" transform="translate(7.977)">
              <rect id="Rectángulo_28584" data-name="Rectángulo 28584" width="14.35" height="14.35" fill="#00223d"/>
            </g>
            <g id="Grupo_47753" data-name="Grupo 47753" transform="translate(0 16.511)">
              <rect id="Rectángulo_28585" data-name="Rectángulo 28585" width="22.327" height="6.525" fill="#707070" opacity="0.226"/>
            </g>
            <g id="Grupo_47754" data-name="Grupo 47754" transform="translate(0 24.754)">
              <rect id="Rectángulo_28586" data-name="Rectángulo 28586" width="22.327" height="6.525" fill="#707070" opacity="0.226"/>
            </g>
          </g>
          <g id="Grupo_47760" data-name="Grupo 47760" transform="translate(33.042 38.154)">
            <g id="Grupo_47756" data-name="Grupo 47756">
              <rect id="Rectángulo_28587" data-name="Rectángulo 28587" width="22.327" height="6.525" fill="#707070" opacity="0.226"/>
            </g>
            <g id="Grupo_47757" data-name="Grupo 47757" transform="translate(0.104 8.552)">
              <rect id="Rectángulo_28588" data-name="Rectángulo 28588" width="22.327" height="6.525" fill="#707070" opacity="0.226"/>
            </g>
            <g id="Grupo_47758" data-name="Grupo 47758" transform="translate(0 16.733)">
              <rect id="Rectángulo_28589" data-name="Rectángulo 28589" width="22.327" height="6.525" fill="#707070" opacity="0.226"/>
            </g>
            <g id="Grupo_47759" data-name="Grupo 47759" transform="translate(0.104 25.201)">
              <rect id="Rectángulo_28590" data-name="Rectángulo 28590" width="22.327" height="6.525" fill="#707070" opacity="0.226"/>
            </g>
          </g>
          <g id="Grupo_47761" data-name="Grupo 47761" transform="translate(6.437 9.311)">
            <rect id="Rectángulo_28591" data-name="Rectángulo 28591" width="49.269" height="24.81" fill="#00223d"/>
          </g>
        </g>
        <g id="Grupo_47768" data-name="Grupo 47768" transform="translate(14.631 17.232)">
          <g id="Grupo_47767" data-name="Grupo 47767">
            <g id="Grupo_47763" data-name="Grupo 47763" transform="translate(0 0.126)">
              <path id="Trazado_97750" data-name="Trazado 97750" d="M744.714,413.216h-1.962l-3.282-4.98v4.98h-1.962V405.1h1.962l3.282,5.026V405.1h1.962Z" transform="translate(-737.508 -405.104)" fill="#fff"/>
            </g>
            <g id="Grupo_47764" data-name="Grupo 47764" transform="translate(8.56 0.126)">
              <path id="Trazado_97751" data-name="Trazado 97751" d="M761.892,406.665v1.7h2.742v1.48h-2.742v1.8h3.087v1.572H759.93V405.1h5.049v1.561Z" transform="translate(-759.93 -405.104)" fill="#fff"/>
            </g>
            <g id="Grupo_47765" data-name="Grupo 47765" transform="translate(14.4 0.126)">
              <path id="Trazado_97752" data-name="Trazado 97752" d="M786.576,405.1l-1.939,8.112H782.2l-1.3-5.427-1.308,5.427h-2.433l-1.939-8.112h2.134l1.044,5.875,1.423-5.875h2.146l1.423,5.875,1.056-5.875Z" transform="translate(-775.228 -405.104)" fill="#fff"/>
            </g>
            <g id="Grupo_47766" data-name="Grupo 47766" transform="translate(26.54)">
              <path id="Trazado_97753" data-name="Trazado 97753" d="M812.771,411.911a2.305,2.305,0,0,1-.964.86,3.4,3.4,0,0,1-1.543.322,3.632,3.632,0,0,1-2.249-.666,2.411,2.411,0,0,1-.964-1.859h2.089a1.1,1.1,0,0,0,.327.723,1,1,0,0,0,.717.264.832.832,0,0,0,.6-.207A.724.724,0,0,0,811,410.8a.711.711,0,0,0-.2-.516,1.58,1.58,0,0,0-.5-.339q-.3-.132-.826-.316a10.077,10.077,0,0,1-1.256-.51,2.312,2.312,0,0,1-.838-.734,2.39,2.39,0,0,1,.017-2.518,2.336,2.336,0,0,1,1.016-.809,3.7,3.7,0,0,1,1.486-.281,3.332,3.332,0,0,1,2.152.643,2.452,2.452,0,0,1,.9,1.767h-2.123a1.089,1.089,0,0,0-.293-.637.861.861,0,0,0-.637-.235.821.821,0,0,0-.556.184.674.674,0,0,0-.212.539.684.684,0,0,0,.189.488,1.441,1.441,0,0,0,.476.327q.286.126.826.321a9.085,9.085,0,0,1,1.274.522,2.437,2.437,0,0,1,.849.752,2.146,2.146,0,0,1,.356,1.285A2.237,2.237,0,0,1,812.771,411.911Z" transform="translate(-807.028 -404.774)" fill="#fff"/>
            </g>
          </g>
        </g>
        <g id="Grupo_47769" data-name="Grupo 47769" transform="translate(6.664 38.154)">
          <rect id="Rectángulo_28592" data-name="Rectángulo 28592" width="6.562" height="14.572" fill="#707070" opacity="0.226"/>
        </g>
      </g>
      <g id="Grupo_47775" data-name="Grupo 47775" transform="translate(398.521 156.791)">
        <g id="Grupo_47772" data-name="Grupo 47772" transform="translate(0 12.168)">
          <g id="Grupo_47771" data-name="Grupo 47771">
            <path id="Trazado_97754" data-name="Trazado 97754" d="M803.546,361.293a1.281,1.281,0,0,1,.29-.223c.991-.5,1.8-.16,2.89-.364.484-.091.964-1.264,1.673-.518.261.275.808,1.04,1.361,1.632a7.267,7.267,0,0,0,3.662,1.726,37.356,37.356,0,0,0,5.425.743,63.358,63.358,0,0,0,11.644-.634,17.122,17.122,0,0,1,7.708-15.9,3.969,3.969,0,0,1,1.787-.714,3.423,3.423,0,0,1,1.592.345c5.311,2.328,2.877,7.261,1.083,11.317a56.732,56.732,0,0,1-3.9,7.371c-2.075,3.277-5.313,4.1-9.092,4.214a56.4,56.4,0,0,1-12.019-.565,42.9,42.9,0,0,1-5.479-1.651c-1.819-.592-1.982.251-3.707.141a15.58,15.58,0,0,1-2.894-.182c-1.682-.431-2.353-2.094-3.081-3.49a1.861,1.861,0,0,1-.3-.949,2.693,2.693,0,0,1,.693-1.524A5.222,5.222,0,0,1,803.546,361.293Z" transform="translate(-802.186 -347.032)" fill="#e2bd9c"/>
          </g>
        </g>
        <g id="Grupo_47774" data-name="Grupo 47774" transform="translate(25.765 0)">
          <g id="Grupo_47773" data-name="Grupo 47773">
            <path id="Trazado_97755" data-name="Trazado 97755" d="M879.284,343.294a14.9,14.9,0,0,0-2.533-.889c-.587-.156-7.122-2.059-7.074-2.157.757-1.578.56-3.866.987-5.613a25.873,25.873,0,0,1,2.279-5.989c1.657-3.119,2.586-6.731,3.762-10.066,1.484-4.207,5.608-4.6,7.96-.81,2.008,3.236,2.166,7.5,2.5,11.191a32.033,32.033,0,0,1-.1,8.942,12.075,12.075,0,0,1-4.409,7.571A17.852,17.852,0,0,0,879.284,343.294Z" transform="translate(-869.676 -315.159)" fill="#f9c869"/>
          </g>
        </g>
      </g>
    </g>
  </g>
</svg>
