<svg xmlns="http://www.w3.org/2000/svg" width="310.456" height="268.984" viewBox="0 0 310.456 268.984">
  <g id="Grupo_179444" data-name="Grupo 179444" transform="translate(8933.084 -1650.555)">
    <path id="Trazado_228350" data-name="Trazado 228350" d="M50.781,2.185q-44.75,0-44.75-62.842,0-32.6,12.105-49.688t35.092-17.087q43.7,0,43.7,63.891,0,31.814-11.93,48.771T50.781,2.185ZM52-106.369q-17.917,0-17.917,45.012,0,42.39,17.568,42.39,17.131,0,17.131-43.7T52-106.369Zm134.163-18.966v79.012H201.2V-25.7H186.167V0H161V-25.7H106.369V-47.285q7.254-8.128,15.033-17.786t15.033-19.884q7.254-10.226,13.5-20.583a206.331,206.331,0,0,0,10.619-19.8ZM131.1-46.323H161V-90.112q-3.059,5.681-6.643,11.493t-7.517,11.45q-3.933,5.637-7.954,10.925T131.1-46.323Z" transform="translate(-8939.114 1777.988)" fill="#12263f" opacity="0.089"/>
    <path id="Trazado_228351" data-name="Trazado 228351" d="M0,0H227.962V35.234H0Z" transform="translate(-8850.59 1884.305)" fill="#ece5f7"/>
  </g>
</svg>
