<svg xmlns="http://www.w3.org/2000/svg" width="310.456" height="288.984" viewBox="0 0 310.456 288.984">
  <g id="Grupo_179442" data-name="Grupo 179442" transform="translate(8933.084 -834.681)">
    <path id="Trazado_228346" data-name="Trazado 228346" d="M50.781,2.185q-44.75,0-44.75-62.842,0-32.6,12.105-49.688t35.092-17.087q43.7,0,43.7,63.891,0,31.814-11.93,48.771T50.781,2.185ZM52-106.369q-17.917,0-17.917,45.012,0,42.39,17.568,42.39,17.131,0,17.131-43.7T52-106.369ZM140.456-22.9H193.6V0H110.214V-9.439A43.936,43.936,0,0,1,113.448-26.7a57.283,57.283,0,0,1,8.128-13.722,70.507,70.507,0,0,1,10.707-10.75q5.812-4.676,11.056-8.434,5.506-3.933,9.658-7.517a55.035,55.035,0,0,0,6.992-7.123,27.082,27.082,0,0,0,4.239-7.167,21.315,21.315,0,0,0,1.4-7.735q0-8.041-4.545-12.149t-13.9-4.108q-16.169,0-30.94,12.848v-24.3a66.418,66.418,0,0,1,36.884-10.576,54.472,54.472,0,0,1,17.087,2.491,36.15,36.15,0,0,1,12.8,7.123,30.381,30.381,0,0,1,8,11.231,37.9,37.9,0,0,1,2.753,14.727,41.526,41.526,0,0,1-2.666,15.383,47.268,47.268,0,0,1-7.08,12.236,64.219,64.219,0,0,1-10.182,10.095q-5.769,4.589-11.974,8.871-4.2,2.972-8.085,5.9a76.645,76.645,0,0,0-6.861,5.769,31.314,31.314,0,0,0-4.72,5.55A9.58,9.58,0,0,0,140.456-22.9Z" transform="translate(-8939.114 962.113)" fill="#12263f" opacity="0.089"/>
    <path id="Trazado_228347" data-name="Trazado 228347" d="M0,0H227.962V35.234H0Z" transform="translate(-8850.59 1088.43)" fill="#ece5f7"/>
  </g>
</svg>
