<svg xmlns="http://www.w3.org/2000/svg" width="506.843" height="242.318" viewBox="0 0 506.843 242.318">
  <g id="Grupo_179449" data-name="Grupo 179449" transform="translate(9310.746 -3698.595)">
    <path id="Trazado_228360" data-name="Trazado 228360" d="M50.781,2.185q-44.75,0-44.75-62.842,0-32.6,12.105-49.688t35.092-17.087q43.7,0,43.7,63.891,0,31.814-11.93,48.771T50.781,2.185ZM52-106.369q-17.917,0-17.917,45.012,0,42.39,17.568,42.39,17.131,0,17.131-43.7T52-106.369ZM197.966-68.7A111.175,111.175,0,0,1,194.3-38.85a64.027,64.027,0,0,1-10.707,22.244A47.285,47.285,0,0,1,166.414-2.666a52.613,52.613,0,0,1-22.987,4.851q-15.383,0-26.483-4.895V-25.434q9.876,6.468,23.773,6.468,14.247,0,22.288-9.7t8.128-28.056l-.524-.175q-8.3,12.324-25.259,12.324a34.674,34.674,0,0,1-14.2-2.884,34.122,34.122,0,0,1-11.275-8,36.55,36.55,0,0,1-7.429-12.193,43.822,43.822,0,0,1-2.666-15.558,48.3,48.3,0,0,1,3.234-18,41.219,41.219,0,0,1,9.046-13.984A39.916,39.916,0,0,1,136-124.242a48.893,48.893,0,0,1,18-3.19,41.22,41.22,0,0,1,18.354,3.977,38.566,38.566,0,0,1,13.853,11.493,53.657,53.657,0,0,1,8.74,18.442A93.442,93.442,0,0,1,197.966-68.7ZM170.085-83.382a32.476,32.476,0,0,0-1.224-9.046,23.8,23.8,0,0,0-3.409-7.3,16.593,16.593,0,0,0-5.332-4.851,13.711,13.711,0,0,0-6.9-1.792,14.049,14.049,0,0,0-6.6,1.573,16.089,16.089,0,0,0-5.2,4.326,20.491,20.491,0,0,0-3.409,6.6,27.243,27.243,0,0,0-1.224,8.3,28.369,28.369,0,0,0,1.224,8.7,18.571,18.571,0,0,0,3.452,6.424,14.483,14.483,0,0,0,5.375,3.977,17.5,17.5,0,0,0,6.992,1.355,15.015,15.015,0,0,0,6.643-1.442,16,16,0,0,0,5.113-3.889,17.6,17.6,0,0,0,3.321-5.769A21.258,21.258,0,0,0,170.085-83.382Z" transform="translate(-9316.776 3826.027)" fill="#12263f" opacity="0.089"/>
    <path id="Trazado_228361" data-name="Trazado 228361" d="M0,0H384.472V38.848H0Z" transform="translate(-9188.375 3902.065)" fill="#ece5f7"/>
  </g>
</svg>
