<svg xmlns="http://www.w3.org/2000/svg" width="267.957" height="219.683" viewBox="0 0 267.957 219.683">
  <g id="Grupo_179452" data-name="Grupo 179452" transform="translate(8920.585 -4943.354)">
    <path id="Trazado_228366" data-name="Trazado 228366" d="M72.719-128.132V0H45.187V-97.017a32.97,32.97,0,0,1-5.375,3.8,55.492,55.492,0,0,1-6.6,3.234,58.922,58.922,0,0,1-7.254,2.447,52.985,52.985,0,0,1-7.429,1.442V-109.34a114.847,114.847,0,0,0,20.277-8.041,115.4,115.4,0,0,0,17.218-10.75ZM140.456-22.9H193.6V0H110.214V-9.439A43.936,43.936,0,0,1,113.448-26.7a57.283,57.283,0,0,1,8.128-13.722,70.507,70.507,0,0,1,10.707-10.75q5.812-4.676,11.056-8.434,5.506-3.933,9.658-7.517a55.035,55.035,0,0,0,6.992-7.123,27.082,27.082,0,0,0,4.239-7.167,21.315,21.315,0,0,0,1.4-7.735q0-8.041-4.545-12.149t-13.9-4.108q-16.169,0-30.94,12.848v-24.3a66.418,66.418,0,0,1,36.884-10.576,54.472,54.472,0,0,1,17.087,2.491,36.15,36.15,0,0,1,12.8,7.123,30.381,30.381,0,0,1,8,11.231,37.9,37.9,0,0,1,2.753,14.727,41.526,41.526,0,0,1-2.666,15.383,47.268,47.268,0,0,1-7.08,12.236,64.219,64.219,0,0,1-10.182,10.095q-5.769,4.589-11.974,8.871-4.2,2.972-8.085,5.9a76.645,76.645,0,0,0-6.861,5.769,31.314,31.314,0,0,0-4.72,5.55A9.58,9.58,0,0,0,140.456-22.9Z" transform="translate(-8939.114 5071.485)" fill="#12263f" opacity="0.089"/>
    <path id="Trazado_228367" data-name="Trazado 228367" d="M0,0H167.962V35.234H0Z" transform="translate(-8820.59 5127.803)" fill="#ece5f7"/>
  </g>
</svg>
