<svg xmlns="http://www.w3.org/2000/svg" width="477.372" height="236.018" viewBox="0 0 477.372 236.018">
  <g id="Grupo_179451" data-name="Grupo 179451" transform="translate(9298.247 -4523.77)">
    <path id="Trazado_228364" data-name="Trazado 228364" d="M72.719-128.132V0H45.187V-97.017a32.97,32.97,0,0,1-5.375,3.8,55.492,55.492,0,0,1-6.6,3.234,58.922,58.922,0,0,1-7.254,2.447,52.985,52.985,0,0,1-7.429,1.442V-109.34a114.847,114.847,0,0,0,20.277-8.041,115.4,115.4,0,0,0,17.218-10.75Zm102.96,0V0H148.147V-97.017a32.97,32.97,0,0,1-5.375,3.8,55.491,55.491,0,0,1-6.6,3.234,58.922,58.922,0,0,1-7.254,2.447,52.985,52.985,0,0,1-7.429,1.442V-109.34a114.847,114.847,0,0,0,20.277-8.041,115.4,115.4,0,0,0,17.218-10.75Z" transform="translate(-9316.776 4651.901)" fill="#12263f" opacity="0.089"/>
    <path id="Trazado_228365" data-name="Trazado 228365" d="M0,0H364.5V38.848H0Z" transform="translate(-9185.375 4720.939)" fill="#ece5f7"/>
  </g>
</svg>
