<svg xmlns="http://www.w3.org/2000/svg" width="395.843" height="236.318" viewBox="0 0 395.843 236.318">
  <g id="Grupo_179447" data-name="Grupo 179447" transform="translate(9310.746 -2902.72)">
    <path id="Trazado_228356" data-name="Trazado 228356" d="M50.781,2.185q-44.75,0-44.75-62.842,0-32.6,12.105-49.688t35.092-17.087q43.7,0,43.7,63.891,0,31.814-11.93,48.771T50.781,2.185ZM52-106.369q-17.917,0-17.917,45.012,0,42.39,17.568,42.39,17.131,0,17.131-43.7T52-106.369Zm146.574-3.059q-8.391,15.121-15.033,28.362T171.833-54.932a246.452,246.452,0,0,0-8.653,26.221A253.267,253.267,0,0,0,157.324,0H128.481a235.994,235.994,0,0,1,6.468-28.144,263.938,263.938,0,0,1,9.308-26.264q5.288-12.717,11.712-24.779t13.591-23.6h-58.21v-22.55h87.228Z" transform="translate(-9316.776 3030.153)" fill="#12263f" opacity="0.089"/>
    <path id="Trazado_228357" data-name="Trazado 228357" d="M0,0H283.472V38.848H0Z" transform="translate(-9198.375 3100.19)" fill="#ece5f7"/>
  </g>
</svg>
