<svg xmlns="http://www.w3.org/2000/svg" xmlns:xlink="http://www.w3.org/1999/xlink" width="383.165" height="252.296" viewBox="0 0 383.165 252.296">
  <defs>
    <clipPath id="clip-path">
      <rect id="Rectángulo_57307" data-name="Rectángulo 57307" width="383.165" height="252.297" fill="none"/>
    </clipPath>
    <clipPath id="clip-path-7">
      <rect id="Rectángulo_57291" data-name="Rectángulo 57291" width="24.723" height="13.74" fill="none"/>
    </clipPath>
    <clipPath id="clip-path-8">
      <rect id="Rectángulo_57292" data-name="Rectángulo 57292" width="27.259" height="2.209" fill="none"/>
    </clipPath>
    <clipPath id="clip-path-9">
      <rect id="Rectángulo_57293" data-name="Rectángulo 57293" width="14.383" height="7.901" fill="none"/>
    </clipPath>
    <clipPath id="clip-path-10">
      <rect id="Rectángulo_57294" data-name="Rectángulo 57294" width="3.695" height="7.078" fill="none"/>
    </clipPath>
    <clipPath id="clip-path-12">
      <rect id="Rectángulo_57297" data-name="Rectángulo 57297" width="43.909" height="40.203" fill="none"/>
    </clipPath>
  </defs>
  <g id="Grupo_179461" data-name="Grupo 179461" transform="translate(9337 -4944.561)">
    <g id="Grupo_177796" data-name="Grupo 177796" transform="translate(-9337 4944.561)">
      <g id="Grupo_177790" data-name="Grupo 177790" clip-path="url(#clip-path)">
        <rect id="Rectángulo_57279" data-name="Rectángulo 57279" width="63.437" height="58.851" transform="matrix(0.992, -0.126, 0.126, 0.992, 305.059, 25.947)" fill="#f5f5f5"/>
        <g id="Grupo_177764" data-name="Grupo 177764">
          <g id="Grupo_177763" data-name="Grupo 177763" clip-path="url(#clip-path)">
            <path id="Trazado_220935" data-name="Trazado 220935" d="M598.986,59.809a4.381,4.381,0,1,0,5.08,3.768,4.474,4.474,0,0,0-5.08-3.768" transform="translate(-254.192 -25.536)" fill="#e0e0e0"/>
            <path id="Trazado_220936" data-name="Trazado 220936" d="M595.071,40.424,541.9,47.131c.05-.072-.5.621-.268.334l0,.013,0,.026.006.052.013.1.027.208.053.416.106.832.21,1.658q.21,1.656.419,3.3.417,3.282.827,6.5l1.6,12.58c1.048,8.175,2.038,15.9,2.95,23.014l.032.252.261-.034,38.6-5.027,10.777-1.434,2.822-.388.715-.105a1.3,1.3,0,0,0,.231-.044,2.012,2.012,0,0,0-.264.019l-.747.08-2.88.336-10.852,1.31L574.657,92.6l26.6-3.375a1.18,1.18,0,0,0,.032.161,1.037,1.037,0,0,0-.013-.214c-.018-.168-.04-.383-.068-.656q-.107-.916-.3-2.584c-.277-2.3-.676-5.637-1.185-9.868-1.055-8.57-2.557-20.773-4.362-35.425l-.03-.247Zm-9.35,29.394-7.358,11.3-16.676-17.4L548.3,95.485c-.872-6.944-1.817-14.463-2.815-22.407Q544.7,66.942,543.89,60.5q-.406-3.218-.822-6.5-.209-1.641-.418-3.3l-.21-1.658-.105-.832-.053-.416-.016-.125,52.612-6.717,4.573,34.988c.568,4.248,1.016,7.593,1.325,9.907q.235,1.692.364,2.624c.041.282.075.5.1.679,0,.025.006.036.01.057Z" transform="translate(-231.377 -17.257)" fill="#e0e0e0"/>
            <rect id="Rectángulo_57280" data-name="Rectángulo 57280" width="41.86" height="45.122" transform="matrix(0.161, -0.987, 0.987, 0.161, 0, 218.763)" fill="#f5f5f5"/>
            <path id="Trazado_220937" data-name="Trazado 220937" d="M53.362,333.721a3.116,3.116,0,1,0,2.7,3.6,3.183,3.183,0,0,0-2.7-3.6" transform="translate(-21.198 -142.557)" fill="#e0e0e0"/>
            <path id="Trazado_220938" data-name="Trazado 220938" d="M50.133,322.594l-37.616-6.178c.049-.038-.469.322-.25.174l0,.009,0,.018-.006.037-.012.073-.024.148-.048.294-.1.589-.192,1.173q-.192,1.172-.381,2.333-.379,2.321-.751,4.6-.741,4.554-1.449,8.9c-.939,5.787-1.826,11.258-2.642,16.291l-.029.179.185.029,27.338,4.376,7.638,1.2,2,.306.509.073a.989.989,0,0,0,.166.017,1.4,1.4,0,0,0-.184-.041l-.526-.1-2.032-.353-7.665-1.3-8.4-1.4,18.819,3.076a.9.9,0,0,0-.011.117.706.706,0,0,0,.035-.148c.022-.119.05-.269.086-.461q.113-.646.32-1.823c.277-1.627.678-3.98,1.187-6.969l4.189-25.04.029-.174ZM37.814,340.748l-7.3,6.215-7.855-15.234L7.1,350.684c.809-4.911,1.686-10.23,2.611-15.85q.712-4.34,1.461-8.9.373-2.276.753-4.6L12.307,319l.192-1.173.1-.589.048-.294.014-.088,37.237,6.056c-1.635,10.245-3,18.781-3.956,24.785-.472,3.012-.843,5.383-1.1,7.023q-.182,1.2-.283,1.863c-.029.2-.05.359-.069.483,0,.018,0,.026,0,.041Z" transform="translate(-2.833 -135.182)" fill="#e0e0e0"/>
            <path id="Trazado_220939" data-name="Trazado 220939" d="M591.175,222.814H501.928a4.506,4.506,0,0,1-4.506-4.506V166.421a4.506,4.506,0,0,1,4.506-4.506h89.247a4.505,4.505,0,0,1,4.505,4.506v51.887a4.505,4.505,0,0,1-4.505,4.506" transform="translate(-212.515 -69.175)" fill="#e0e0e0"/>
            <path id="Trazado_220940" data-name="Trazado 220940" d="M585.1,210.94a7.485,7.485,0,1,1-7.485-7.485,7.485,7.485,0,0,1,7.485,7.485" transform="translate(-243.578 -86.923)" fill="#ebebeb"/>
            <path id="Trazado_220941" data-name="Trazado 220941" d="M580.048,216.842v-4.417a.281.281,0,0,1,.419-.245l3.947,2.225a.281.281,0,0,1,0,.49l-3.947,2.191a.281.281,0,0,1-.418-.246" transform="translate(-247.815 -90.635)" fill="#fff"/>
            <path id="Trazado_220942" data-name="Trazado 220942" d="M506.648,255.383v.158h-.74v-.125l.4-.379c.1-.093.115-.152.115-.207,0-.092-.064-.145-.187-.145a.282.282,0,0,0-.235.1l-.131-.1a.463.463,0,0,1,.382-.166c.218,0,.359.11.359.288a.4.4,0,0,1-.166.317l-.269.255Z" transform="translate(-216.124 -108.741)" fill="#fff"/>
            <path id="Trazado_220943" data-name="Trazado 220943" d="M507.4,255.067a.117.117,0,1,1,.235,0,.117.117,0,1,1-.235,0m0,.546a.117.117,0,1,1,.235,0,.117.117,0,1,1-.235,0" transform="translate(-216.78 -108.922)" fill="#fff"/>
            <path id="Trazado_220944" data-name="Trazado 220944" d="M508.332,254.548v1h-.186V254.7h-.213v-.156Z" transform="translate(-217.006 -108.751)" fill="#fff"/>
            <path id="Trazado_220945" data-name="Trazado 220945" d="M509.859,255.323h-.178v.228H509.5v-.228h-.551v-.129l.495-.647h.2l-.466.618h.329v-.2h.175v.2h.178Z" transform="translate(-217.44 -108.751)" fill="#fff"/>
            <rect id="Rectángulo_57281" data-name="Rectángulo 57281" width="76.099" height="0.403" transform="translate(294.058 146.144)" fill="#fff"/>
            <rect id="Rectángulo_57282" data-name="Rectángulo 57282" width="23.781" height="1.075" transform="translate(294 145.723)" fill="#ebebeb"/>
            <path id="Trazado_220946" data-name="Trazado 220946" d="M554.431,254.643a1.158,1.158,0,1,1-1.158-1.158,1.157,1.157,0,0,1,1.158,1.158" transform="translate(-235.882 -108.297)" fill="#ebebeb"/>
            <path id="Trazado_220947" data-name="Trazado 220947" d="M649.009,254.959a.335.335,0,0,1-.367.325c-.274,0-.435-.176-.435-.5a.475.475,0,0,1,.492-.533.5.5,0,0,1,.263.064l-.069.141a.339.339,0,0,0-.191-.049c-.19,0-.308.117-.308.345h0a.34.34,0,0,1,.267-.1.313.313,0,0,1,.346.308m-.18.009c0-.1-.079-.171-.2-.171a.183.183,0,0,0-.2.172c0,.095.074.169.208.169a.175.175,0,0,0,.2-.171" transform="translate(-276.935 -108.625)" fill="#fff"/>
            <path id="Trazado_220948" data-name="Trazado 220948" d="M649.763,254.8a.118.118,0,1,1,.118.119.117.117,0,0,1-.118-.119m0,.546a.118.118,0,1,1,.235,0,.118.118,0,1,1-.235,0" transform="translate(-277.6 -108.806)" fill="#fff"/>
            <path id="Trazado_220949" data-name="Trazado 220949" d="M650.383,254.768c0-.33.181-.516.419-.516s.42.186.42.516-.181.516-.42.516-.419-.186-.419-.516m.652,0c0-.242-.1-.354-.233-.354s-.231.112-.231.354.095.354.231.354.233-.112.233-.354" transform="translate(-277.865 -108.625)" fill="#fff"/>
            <path id="Trazado_220950" data-name="Trazado 220950" d="M652.065,254.768c0-.33.181-.516.419-.516s.42.186.42.516-.181.516-.42.516-.419-.186-.419-.516m.652,0c0-.242-.1-.354-.233-.354s-.231.112-.231.354.094.354.231.354.233-.112.233-.354" transform="translate(-278.583 -108.625)" fill="#fff"/>
            <path id="Trazado_220951" data-name="Trazado 220951" d="M656.106,254.278h-.4V253.25h1.026v.4h-.623Z" transform="translate(-280.138 -108.197)" fill="#fff"/>
            <path id="Trazado_220952" data-name="Trazado 220952" d="M656.73,256.608H655.7v-1.026h.4v.623h.625Z" transform="translate(-280.137 -109.193)" fill="#fff"/>
            <path id="Trazado_220953" data-name="Trazado 220953" d="M659.561,256.606h-1.026v-.4h.624v-.625h.4Z" transform="translate(-281.348 -109.191)" fill="#fff"/>
            <path id="Trazado_220954" data-name="Trazado 220954" d="M659.562,254.276h-.4v-.623h-.625v-.4h1.028Z" transform="translate(-281.347 -108.196)" fill="#fff"/>
            <path id="Trazado_220955" data-name="Trazado 220955" d="M637.576,172.165a16.017,16.017,0,0,1,2.07-.113l.111,0v.115c.008.785.017,1.672.027,2.63l0,.34-.241-.241-.276-.276-.7-.705.189.005-1.1.967-.208.183,0-.274c.012-.814.04-1.487.062-1.944a3.19,3.19,0,0,1,.06-.686,5.339,5.339,0,0,1,.06.763c.023.465.05,1.106.062,1.866l-.2-.091,1.081-.99.1-.088.093.093.705.7.276.276-.238.1c.01-.958.019-1.845.027-2.63l.113.112a20.162,20.162,0,0,1-2.07-.112" transform="translate(-272.339 -73.505)" fill="#fff"/>
            <path id="Trazado_220956" data-name="Trazado 220956" d="M648.481,172.709a7.22,7.22,0,0,1-.5.64c-.34.421-.848,1.05-1.469,1.75l-.231.261,0-.351c0-.411,0-.849-.006-1.3v-.128l.043.1-.917-.893-.239-.233.332,0c.909.013,1.69.06,2.211.092a6.83,6.83,0,0,1,.78.059c-.027.012-.368.023-.9.049s-1.254.064-2.088.066l.093-.228.927.882.043.041v.188c0,.454,0,.892-.006,1.3l-.233-.089c.581-.635,1.107-1.156,1.5-1.552s.639-.647.667-.659" transform="translate(-275.633 -73.721)" fill="#fff"/>
            <path id="Trazado_220957" data-name="Trazado 220957" d="M649.414,172.81c.03.072-.409.324-.981.564s-1.06.377-1.089.305.41-.324.981-.563a2.39,2.39,0,0,1,1.089-.306" transform="translate(-276.566 -73.822)" fill="#fff"/>
            <path id="Trazado_220958" data-name="Trazado 220958" d="M656.254,172.231c0-.014.131-.047.371-.007a1.459,1.459,0,0,1,.872.526,1.556,1.556,0,0,1,.254,1.49,1.587,1.587,0,0,1-3,0,1.556,1.556,0,0,1,.254-1.49,1.458,1.458,0,0,1,.872-.526c.24-.04.372-.007.371.007s-.13.03-.345.1a1.47,1.47,0,0,0-.742.54,1.374,1.374,0,0,0-.169,1.282,1.341,1.341,0,0,0,2.511,0,1.374,1.374,0,0,0-.169-1.282,1.469,1.469,0,0,0-.742-.54c-.215-.069-.345-.075-.345-.1" transform="translate(-279.696 -73.572)" fill="#fff"/>
            <path id="Trazado_220959" data-name="Trazado 220959" d="M657.738,174.763c-.054.054-.377-.18-.723-.525l-.041-.041v-.066c0-.492.062-.891.14-.891s.14.4.14.891v.009l-.041-.1c.345.346.58.669.525.723" transform="translate(-280.681 -74.013)" fill="#fff"/>
            <path id="Trazado_220960" data-name="Trazado 220960" d="M561.653,175.628c0,.077-10.1.14-22.553.14s-22.554-.062-22.554-.14,10.1-.14,22.554-.14,22.553.062,22.553.14" transform="translate(-220.685 -74.974)" fill="#fff"/>
            <path id="Trazado_220961" data-name="Trazado 220961" d="M510.175,174.405a1.779,1.779,0,1,1-1.778-1.778,1.778,1.778,0,0,1,1.778,1.778" transform="translate(-216.444 -73.752)" fill="#fff"/>
          </g>
        </g>
        <rect id="Rectángulo_57284" data-name="Rectángulo 57284" width="289.697" height="208.534" transform="translate(37.208 0.148)" fill="#fff"/>
        <rect id="Rectángulo_57285" data-name="Rectángulo 57285" width="289.697" height="15.413" transform="translate(36.852 0.147)" fill="#e0e0e0"/>
        <g id="Grupo_177766" data-name="Grupo 177766">
          <g id="Grupo_177765" data-name="Grupo 177765" clip-path="url(#clip-path)">
            <path id="Trazado_220962" data-name="Trazado 220962" d="M79.422,12.7a1.894,1.894,0,1,1-1.89-2,1.948,1.948,0,0,1,1.89,2" transform="translate(-32.316 -4.568)" fill="#263238"/>
            <path id="Trazado_220963" data-name="Trazado 220963" d="M91.7,12.7a1.894,1.894,0,1,1-1.89-2,1.949,1.949,0,0,1,1.89,2" transform="translate(-37.562 -4.568)" fill="#263238"/>
            <path id="Trazado_220964" data-name="Trazado 220964" d="M103.979,12.7a1.894,1.894,0,1,1-1.89-2,1.949,1.949,0,0,1,1.89,2" transform="translate(-42.808 -4.568)" fill="#263238"/>
            <path id="Trazado_220965" data-name="Trazado 220965" d="M261.326,55.992c0,.109-6.327.2-14.13.2s-14.131-.089-14.131-.2,6.326-.2,14.131-.2,14.13.089,14.13.2" transform="translate(-99.573 -23.837)" fill="#263238"/>
            <path id="Trazado_220966" data-name="Trazado 220966" d="M326.956,55.992c0,.109-6.327.2-14.13.2s-14.131-.089-14.131-.2,6.326-.2,14.131-.2,14.13.089,14.13.2" transform="translate(-127.612 -23.837)" fill="#263238"/>
            <path id="Trazado_220967" data-name="Trazado 220967" d="M392.587,55.992c0,.109-6.327.2-14.13.2s-14.131-.089-14.131-.2,6.326-.2,14.131-.2,14.13.089,14.13.2" transform="translate(-155.652 -23.837)" fill="#263238"/>
            <path id="Trazado_220968" data-name="Trazado 220968" d="M458.8,55.992c0,.109-6.327.2-14.13.2s-14.131-.089-14.131-.2,6.326-.2,14.131-.2,14.13.089,14.13.2" transform="translate(-183.94 -23.837)" fill="#263238"/>
            <path id="Trazado_220969" data-name="Trazado 220969" d="M519.027,57.2c0-.023.239-.012.674-.12a3.125,3.125,0,0,0,1.626-1.056,3.26,3.26,0,0,0,.646-1.288,6.811,6.811,0,0,0,.1-1.76c-.077-1.255.281-2.887-.792-4.078a2.949,2.949,0,0,0-2.011-1.05c-.813-.022-1.7,0-2.6,0l-5.753.018-13.181.015a2.97,2.97,0,0,0-2.64,1.713,3.443,3.443,0,0,0-.327,1.648q0,.891,0,1.767a6.675,6.675,0,0,0,.1,1.675,3.188,3.188,0,0,0,.74,1.38,3.016,3.016,0,0,0,1.254.813,4.54,4.54,0,0,0,1.473.141l10.766.042,7.258.063,1.973.037.513.02a.573.573,0,0,1,.175.02.573.573,0,0,1-.175.02l-.513.02-1.973.037-7.258.063-10.766.042a4.835,4.835,0,0,1-1.576-.151,3.367,3.367,0,0,1-1.406-.9,3.576,3.576,0,0,1-.835-1.545,3.805,3.805,0,0,1-.119-.9q0-.435,0-.873,0-.876,0-1.767a3.855,3.855,0,0,1,.365-1.827,3.339,3.339,0,0,1,2.972-1.93l13.181.015,5.753.018c.906.01,1.76-.007,2.618.025a3.22,3.22,0,0,1,2.186,1.17,3.556,3.556,0,0,1,.813,2.195q-.005,1.1-.009,2.069a6.918,6.918,0,0,1-.138,1.811,3.387,3.387,0,0,1-.709,1.34,3.093,3.093,0,0,1-1.718,1.032,2.123,2.123,0,0,1-.691.042" transform="translate(-211.224 -20.287)" fill="#263238"/>
            <path id="Trazado_220970" data-name="Trazado 220970" d="M186.128,169.356H108.253a4.93,4.93,0,0,1-4.929-4.93v-8.134a4.93,4.93,0,0,1,4.929-4.93h77.875a4.93,4.93,0,0,1,4.929,4.93v8.134a4.93,4.93,0,0,1-4.929,4.93" transform="translate(-44.143 -64.667)" fill="#e0e0e0"/>
            <path id="Trazado_220971" data-name="Trazado 220971" d="M64.242.147,353.939,0h.147V.147c0,62.922.01,133.8.015,208.511v.186h-.162l-289.7-.03H64.11v-.132c.08-126.567.131-207.448.132-208.535,0,1.085.052,81.968.132,208.535l-.132-.132,289.7-.03-.162.162v-.024c.005-74.713.01-145.588.015-208.511l.147.147L64.242.147" transform="translate(-27.39)" fill="#263238"/>
            <path id="Trazado_220972" data-name="Trazado 220972" d="M449.425,172.45s-.008-.364-.012-1.061-.007-1.734-.013-3.086c-.007-2.709-.017-6.692-.029-11.807-.014-10.222-.035-24.968-.061-43.085l.115.115-103.829.034h-.007l.149-.149c0,20.886-.007,40.852-.01,59.039l-.139-.139,74.691.068,21.448.038,5.715.017,1.477.008c.332,0,.506.009.506.009s-.162.006-.489.008l-1.461.009-5.688.017-21.416.038-74.783.068h-.139v-.139c0-18.187-.007-38.153-.01-59.039v-.149h.157l103.829.034h.115v.115c-.026,18.146-.046,32.916-.061,43.156-.013,5.1-.022,9.078-.029,11.781-.005,1.343-.01,2.369-.013,3.065s-.012,1.037-.012,1.037" transform="translate(-147.583 -48.39)" fill="#12263f"/>
            <path id="Trazado_220973" data-name="Trazado 220973" d="M447.659,113.388s-.081.062-.249.171l-.745.474-2.88,1.8c-2.5,1.557-6.14,3.786-10.648,6.518-9.014,5.466-21.537,12.9-35.5,20.889s-26.724,15.017-36,20.028c-4.638,2.505-8.4,4.516-11.008,5.888l-3.006,1.576-.785.4c-.178.089-.272.128-.272.128s.085-.057.258-.155l.772-.43,2.979-1.626,10.962-5.971c9.247-5.058,21.987-12.114,35.951-20.1s26.5-15.392,35.537-20.81l10.7-6.436,2.91-1.749.76-.448c.172-.1.265-.145.265-.145" transform="translate(-148.066 -48.443)" fill="#12263f"/>
            <path id="Trazado_220974" data-name="Trazado 220974" d="M449.1,172.941c-.041.072-22.823-12.974-50.877-29.134s-50.774-29.324-50.733-29.4,22.817,12.971,50.882,29.137,50.769,29.321,50.728,29.392" transform="translate(-148.461 -48.88)" fill="#12263f"/>
            <path id="Trazado_220975" data-name="Trazado 220975" d="M447.694,267.7c0,.115-22.691.209-50.676.209s-50.68-.094-50.68-.209,22.686-.208,50.68-.208,50.676.094,50.676.208" transform="translate(-147.967 -114.28)" fill="#263238"/>
            <path id="Trazado_220976" data-name="Trazado 220976" d="M447.694,278.424c0,.115-22.691.208-50.676.208s-50.68-.093-50.68-.208,22.686-.208,50.68-.208,50.676.093,50.676.208" transform="translate(-147.967 -118.863)" fill="#263238"/>
            <path id="Trazado_220977" data-name="Trazado 220977" d="M392.125,305.142c0,.106-9.947.191-22.215.191s-22.216-.085-22.216-.191,9.945-.191,22.216-.191,22.215.085,22.215.191" transform="translate(-148.546 -130.285)" fill="#263238"/>
            <path id="Trazado_220978" data-name="Trazado 220978" d="M435.427,292.209c0,.106-19.642.191-43.865.191s-43.869-.085-43.869-.191,19.637-.191,43.869-.191,43.865.086,43.865.191" transform="translate(-148.546 -124.76)" fill="#263238"/>
            <path id="Trazado_220979" data-name="Trazado 220979" d="M452.389,289.976s-.007-.283-.01-.828-.006-1.355-.011-2.414c-.006-2.124-.014-5.254-.025-9.3-.013-8.082-.032-19.811-.056-34.428l.1.1-126.147.047h-.009l.149-.149c0,16.394,0,32.255-.006,46.967l-.144-.144,90.387.068,26.284.04,7.039.018,1.821.009c.411,0,.624.009.624.009s-.2.006-.607.01l-1.8.009-7.01.018-26.25.04-90.485.068h-.143v-.144c0-14.712,0-30.573-.006-46.967v-.149h.158l126.147.048h.1v.1c-.023,14.643-.042,26.394-.056,34.489-.011,4.034-.019,7.156-.025,9.275,0,1.051-.008,1.853-.011,2.4s-.01.807-.01.807" transform="translate(-139.314 -103.757)" fill="#263238"/>
            <path id="Trazado_220980" data-name="Trazado 220980" d="M112.982,52.452a6.426,6.426,0,1,1-6.419-6.132,6.281,6.281,0,0,1,6.419,6.132" transform="translate(-42.785 -19.789)" fill="#7f4fc7"/>
            <rect id="Rectángulo_57286" data-name="Rectángulo 57286" width="45.367" height="31.562" transform="translate(16.182 106.966)" fill="#d2c1eb"/>
            <path id="Trazado_220981" data-name="Trazado 220981" d="M73.673,186.753c.048.068-10.054,7.25-22.561,16.041s-22.687,15.866-22.734,15.8,10.053-7.249,22.563-16.043,22.684-15.865,22.732-15.8" transform="translate(-12.124 -79.787)" fill="#263238"/>
            <path id="Trazado_220982" data-name="Trazado 220982" d="M74.169,218.212a.527.527,0,0,1-.124-.069l-.347-.228-1.316-.9-4.81-3.358-15.8-11.171L36.013,191.24,31.259,187.8l-1.284-.946-.33-.252a.517.517,0,0,1-.106-.094.521.521,0,0,1,.124.069l.347.228,1.317.9,4.81,3.358,15.806,11.173,15.752,11.242,4.755,3.435,1.285.947.329.252a.524.524,0,0,1,.107.095" transform="translate(-12.62 -79.684)" fill="#263238"/>
          </g>
        </g>
        <rect id="Rectángulo_57288" data-name="Rectángulo 57288" width="120.782" height="68.634" transform="translate(53.787 176.793)" fill="#fafafa"/>
        <g id="Grupo_177768" data-name="Grupo 177768">
          <g id="Grupo_177767" data-name="Grupo 177767" clip-path="url(#clip-path)">
            <path id="Trazado_220983" data-name="Trazado 220983" d="M214.578,377.187s-.008-.422-.012-1.231-.007-2.014-.013-3.586c-.007-3.147-.017-7.777-.029-13.724-.014-11.884-.035-29.028-.061-50.094l.115.115L93.805,308.7H93.8l.149-.149c0,24.28-.007,47.492-.01,68.634l-.139-.139,86.888.068,24.946.038,6.646.017,1.716.009c.386,0,.587.008.587.008s-.19.006-.57.009l-1.7.008-6.618.017-24.914.038-86.98.068h-.139v-.139c0-21.143-.007-44.354-.01-68.634V308.4h.158l120.773.034h.115v.115c-.026,21.1-.046,38.264-.061,50.164-.013,5.936-.022,10.556-.029,13.7-.005,1.563-.01,2.757-.013,3.564s-.012,1.208-.012,1.208" transform="translate(-40.009 -131.76)" fill="#263238"/>
            <path id="Trazado_220984" data-name="Trazado 220984" d="M152.121,328.1c0,.082-8.207.149-18.329.149s-18.33-.067-18.33-.149,8.205-.149,18.33-.149,18.329.066,18.329.149" transform="translate(-49.329 -140.112)" fill="#ebebeb"/>
            <path id="Trazado_220985" data-name="Trazado 220985" d="M185.62,339.587c0,.082-8.207.149-18.329.149s-18.33-.066-18.33-.149,8.205-.149,18.33-.149,18.329.066,18.329.149" transform="translate(-63.641 -145.019)" fill="#ebebeb"/>
            <path id="Trazado_220986" data-name="Trazado 220986" d="M255.326,328.1c0,.082-8.207.149-18.329.149s-18.33-.067-18.33-.149,8.205-.149,18.33-.149,18.329.066,18.329.149" transform="translate(-93.422 -140.112)" fill="#ebebeb"/>
            <path id="Trazado_220987" data-name="Trazado 220987" d="M199.274,328.093a41.187,41.187,0,0,1-4.949.149,41.179,41.179,0,0,1-4.949-.149,41.187,41.187,0,0,1,4.949-.149,41.194,41.194,0,0,1,4.949.149" transform="translate(-80.908 -140.108)" fill="#ebebeb"/>
            <path id="Trazado_220988" data-name="Trazado 220988" d="M127.237,339.587a41.2,41.2,0,0,1-4.949.149,41.181,41.181,0,0,1-4.948-.149,41.173,41.173,0,0,1,4.948-.149,41.193,41.193,0,0,1,4.949.149" transform="translate(-50.131 -145.019)" fill="#ebebeb"/>
            <path id="Trazado_220989" data-name="Trazado 220989" d="M230.768,339.1a38.154,38.154,0,0,1-4.762.149,38.152,38.152,0,0,1-4.763-.149,38.145,38.145,0,0,1,4.763-.149,38.147,38.147,0,0,1,4.762.149" transform="translate(-94.522 -144.812)" fill="#ebebeb"/>
            <path id="Trazado_220990" data-name="Trazado 220990" d="M152.121,354.4c0,.082-8.207.149-18.329.149s-18.33-.066-18.33-.149,8.205-.149,18.33-.149,18.329.066,18.329.149" transform="translate(-49.329 -151.348)" fill="#ebebeb"/>
            <path id="Trazado_220991" data-name="Trazado 220991" d="M185.62,365.885c0,.083-8.207.149-18.329.149s-18.33-.066-18.33-.149,8.205-.148,18.33-.148,18.329.066,18.329.148" transform="translate(-63.641 -156.255)" fill="#ebebeb"/>
            <path id="Trazado_220992" data-name="Trazado 220992" d="M255.326,354.4c0,.082-8.207.149-18.329.149s-18.33-.066-18.33-.149,8.205-.149,18.33-.149,18.329.066,18.329.149" transform="translate(-93.422 -151.348)" fill="#ebebeb"/>
            <path id="Trazado_220993" data-name="Trazado 220993" d="M199.274,354.392a41.187,41.187,0,0,1-4.949.149,41.179,41.179,0,0,1-4.949-.149,41.187,41.187,0,0,1,4.949-.149,41.194,41.194,0,0,1,4.949.149" transform="translate(-80.908 -151.344)" fill="#ebebeb"/>
            <path id="Trazado_220994" data-name="Trazado 220994" d="M127.237,365.885a40.982,40.982,0,0,1-4.949.149,40.962,40.962,0,0,1-4.948-.149,41.4,41.4,0,0,1,4.948-.148,41.418,41.418,0,0,1,4.949.148" transform="translate(-50.131 -156.255)" fill="#ebebeb"/>
            <path id="Trazado_220995" data-name="Trazado 220995" d="M230.768,365.4a38.154,38.154,0,0,1-4.762.149,38.152,38.152,0,0,1-4.763-.149,38.152,38.152,0,0,1,4.763-.149,38.154,38.154,0,0,1,4.762.149" transform="translate(-94.522 -156.047)" fill="#ebebeb"/>
            <path id="Trazado_220996" data-name="Trazado 220996" d="M152.716,400c0,.082-8.207.149-18.329.149s-18.33-.066-18.33-.149,8.205-.149,18.33-.149,18.329.066,18.329.149" transform="translate(-49.583 -170.828)" fill="#ebebeb"/>
            <path id="Trazado_220997" data-name="Trazado 220997" d="M186.215,411.482c0,.082-8.207.149-18.329.149s-18.33-.066-18.33-.149,8.205-.149,18.33-.149,18.329.066,18.329.149" transform="translate(-63.895 -175.735)" fill="#ebebeb"/>
            <path id="Trazado_220998" data-name="Trazado 220998" d="M255.921,400c0,.082-8.207.149-18.329.149s-18.33-.066-18.33-.149,8.205-.149,18.33-.149,18.329.066,18.329.149" transform="translate(-93.676 -170.828)" fill="#ebebeb"/>
            <path id="Trazado_220999" data-name="Trazado 220999" d="M199.869,399.988a41.194,41.194,0,0,1-4.949.149,41.187,41.187,0,0,1-4.949-.149,41.179,41.179,0,0,1,4.949-.149,41.187,41.187,0,0,1,4.949.149" transform="translate(-81.162 -170.824)" fill="#ebebeb"/>
            <path id="Trazado_221000" data-name="Trazado 221000" d="M127.832,411.482a41.187,41.187,0,0,1-4.949.149,41.179,41.179,0,0,1-4.949-.149,41.183,41.183,0,0,1,4.949-.149,41.191,41.191,0,0,1,4.949.149" transform="translate(-50.386 -175.735)" fill="#ebebeb"/>
            <path id="Trazado_221001" data-name="Trazado 221001" d="M231.363,411a38.14,38.14,0,0,1-4.762.149,38.138,38.138,0,0,1-4.763-.149,38.152,38.152,0,0,1,4.763-.149,38.154,38.154,0,0,1,4.762.149" transform="translate(-94.776 -175.528)" fill="#ebebeb"/>
            <path id="Trazado_221002" data-name="Trazado 221002" d="M152.121,379.129c0,.082-8.207.149-18.329.149s-18.33-.066-18.33-.149,8.205-.149,18.33-.149,18.329.066,18.329.149" transform="translate(-49.329 -161.913)" fill="#ebebeb"/>
            <path id="Trazado_221003" data-name="Trazado 221003" d="M185.62,390.613c0,.082-8.207.149-18.329.149s-18.33-.067-18.33-.149,8.205-.148,18.33-.148,18.329.066,18.329.148" transform="translate(-63.641 -166.819)" fill="#ebebeb"/>
            <path id="Trazado_221004" data-name="Trazado 221004" d="M255.326,379.129c0,.082-8.207.149-18.329.149s-18.33-.066-18.33-.149,8.205-.149,18.33-.149,18.329.066,18.329.149" transform="translate(-93.422 -161.913)" fill="#ebebeb"/>
            <path id="Trazado_221005" data-name="Trazado 221005" d="M199.274,379.119a40.964,40.964,0,0,1-4.949.15,40.957,40.957,0,0,1-4.949-.15,41.408,41.408,0,0,1,4.949-.148,41.416,41.416,0,0,1,4.949.148" transform="translate(-80.908 -161.909)" fill="#ebebeb"/>
            <path id="Trazado_221006" data-name="Trazado 221006" d="M127.237,390.613a41.125,41.125,0,0,1-4.949.149,41.106,41.106,0,0,1-4.948-.149,41.394,41.394,0,0,1,4.948-.148,41.414,41.414,0,0,1,4.949.148" transform="translate(-50.131 -166.819)" fill="#ebebeb"/>
            <path id="Trazado_221007" data-name="Trazado 221007" d="M230.768,390.128a38.158,38.158,0,0,1-4.762.149,38.156,38.156,0,0,1-4.763-.149,38.145,38.145,0,0,1,4.763-.149,38.147,38.147,0,0,1,4.762.149" transform="translate(-94.522 -166.612)" fill="#ebebeb"/>
            <path id="Trazado_221008" data-name="Trazado 221008" d="M159.576,355.42v12.517h-2.325v-5.365h-6.473v5.365h-2.324V355.42h2.324v5.168h6.473V355.42Z" transform="translate(-63.424 -151.847)" fill="#263238"/>
            <path id="Trazado_221009" data-name="Trazado 221009" d="M175.074,357.386h-4.149v-1.967h10.622v1.967H177.4v10.55h-2.325Z" transform="translate(-73.025 -151.847)" fill="#263238"/>
            <path id="Trazado_221010" data-name="Trazado 221010" d="M204.023,367.936l-.018-8.3-4.113,6.866h-1.037l-4.112-6.759v8.19h-2.217V355.419h1.913l4.971,8.3,4.882-8.3H206.2l.018,12.517Z" transform="translate(-82.253 -151.847)" fill="#263238"/>
            <path id="Trazado_221011" data-name="Trazado 221011" d="M222.333,355.42h2.325v10.55H231.2v1.967h-8.869Z" transform="translate(-94.988 -151.847)" fill="#263238"/>
          </g>
        </g>
        <g id="Grupo_177770" data-name="Grupo 177770">
          <g id="Grupo_177769" data-name="Grupo 177769" clip-path="url(#clip-path)">
            <path id="Trazado_221012" data-name="Trazado 221012" d="M132.077,96.857l-6.414-3.265a16.773,16.773,0,1,0-.889,5.942v.01Z" transform="translate(-39.383 -33.064)" fill="#fff"/>
            <path id="Trazado_221013" data-name="Trazado 221013" d="M131.968,96.762l-7.278,2.756a.073.073,0,0,1-.1-.042.071.071,0,0,1,0-.032v-.01l.144.029a16.736,16.736,0,0,1-4.839,7.274,15.036,15.036,0,0,1-2.142,1.579c-.4.231-.79.478-1.2.7l-1.3.6a16.928,16.928,0,0,1-12.465.168,16.732,16.732,0,0,1-5.945-3.847A17.123,17.123,0,0,1,92.887,99.6a16.564,16.564,0,0,1-.8-7.747,16.861,16.861,0,0,1,2.854-7.422,17.127,17.127,0,0,1,5.644-5.113,16.564,16.564,0,0,1,6.891-2.1,17.024,17.024,0,0,1,12.052,3.8,18.124,18.124,0,0,1,3.614,4.155,16.691,16.691,0,0,1,2.488,8.326l-.039-.061,6.381,3.329-6.446-3.2a.073.073,0,0,1-.039-.061,16.641,16.641,0,0,0-2.52-8.222,17.972,17.972,0,0,0-3.587-4.084,16.817,16.817,0,0,0-11.882-3.7,16.312,16.312,0,0,0-6.772,2.08A16.859,16.859,0,0,0,95.18,84.6a16.6,16.6,0,0,0-2.8,7.292,16.3,16.3,0,0,0,.787,7.611,16.852,16.852,0,0,0,3.879,6.237,16.492,16.492,0,0,0,5.839,3.793,16.717,16.717,0,0,0,12.277-.13l1.286-.59c.408-.221.8-.464,1.19-.69a14.963,14.963,0,0,0,2.122-1.548,16.672,16.672,0,0,0,4.836-7.163.074.074,0,0,1,.094-.047.076.076,0,0,1,.051.076v.009l-.1-.075,7.329-2.617" transform="translate(-39.275 -32.97)" fill="#263238"/>
            <path id="Trazado_221014" data-name="Trazado 221014" d="M128.039,107.963a1.705,1.705,0,0,1,.258-.293l.748-.751c.637-.629,1.525-1.49,2.514-2.433l.022-.021v.127c-1-.925-1.89-1.769-2.53-2.385l-.753-.737a1.685,1.685,0,0,1-.26-.288,1.644,1.644,0,0,1,.305.238l.79.7c.662.593,1.569,1.423,2.565,2.348l.068.063-.068.064-.022.021c-.988.943-1.89,1.789-2.549,2.4l-.786.711a1.7,1.7,0,0,1-.3.244" transform="translate(-54.702 -43.228)" fill="#263238"/>
            <path id="Trazado_221015" data-name="Trazado 221015" d="M127.979,107.984a.066.066,0,0,1-.049-.026l0,0c-.053-.058-.036-.084.259-.391l.749-.753c.647-.639,1.5-1.466,2.415-2.339-.9-.839-1.754-1.642-2.408-2.271l-.753-.737c-.285-.288-.319-.326-.262-.388s.093-.033.4.233l.791.7c.674.6,1.543,1.4,2.459,2.249l.011-.011v.022l.1.089.124.115-.144.138-.073.069v.023l-.013-.011c-.933.889-1.805,1.708-2.464,2.315l-.787.712c-.225.2-.306.267-.355.267m3.478-3.413c-.7.669-1.367,1.312-1.931,1.863.571-.532,1.245-1.167,1.954-1.842l0,0-.019-.018m.139-.108v.019l.01-.01Zm-2.053-1.886c.565.537,1.224,1.157,1.914,1.8l.022-.021c-.694-.644-1.361-1.256-1.936-1.777" transform="translate(-54.645 -43.172)" fill="#263238"/>
            <path id="Trazado_221016" data-name="Trazado 221016" d="M111.836,101.182a1.707,1.707,0,0,1-.258.293l-.748.751c-.637.629-1.525,1.49-2.513,2.433l-.023.022v-.127c1,.925,1.89,1.769,2.53,2.385l.753.737a1.686,1.686,0,0,1,.26.288,1.675,1.675,0,0,1-.305-.238l-.79-.7c-.662-.593-1.569-1.423-2.565-2.348l-.068-.063.068-.064.022-.021c.988-.943,1.89-1.789,2.548-2.4l.786-.711a1.7,1.7,0,0,1,.3-.244" transform="translate(-46.187 -43.228)" fill="#263238"/>
            <path id="Trazado_221017" data-name="Trazado 221017" d="M111.763,107.983c-.048,0-.128-.065-.356-.259l-.791-.7c-.663-.594-1.532-1.388-2.457-2.247l-.013.012v-.023l-.1-.09-.124-.116.144-.137.073-.069v-.024l.013.012c.933-.889,1.805-1.708,2.465-2.315l.787-.712c.31-.273.347-.3.4-.24s.023.1-.258.392l-.749.753c-.642.633-1.5,1.461-2.415,2.339.914.849,1.765,1.651,2.408,2.271l.753.737c.289.291.318.325.263.387a.066.066,0,0,1-.049.027m-3.5-3.3c.7.648,1.365,1.26,1.935,1.775-.559-.532-1.218-1.151-1.912-1.8Zm-.128-.119.01.009v-.019Zm.126-.121,0,0,.019.018c.7-.673,1.371-1.316,1.933-1.864-.572.532-1.246,1.167-1.955,1.843" transform="translate(-46.109 -43.172)" fill="#263238"/>
            <path id="Trazado_221018" data-name="Trazado 221018" d="M118.062,108.3c-.045-.017.762-2.285,1.8-5.065s1.92-5.021,1.965-5-.762,2.284-1.8,5.066-1.919,5.021-1.965,5" transform="translate(-50.439 -41.967)" fill="#263238"/>
            <path id="Trazado_221019" data-name="Trazado 221019" d="M118.018,108.318a.08.08,0,0,1-.032-.008h0c-.086-.033-.1-.038.452-1.587.34-.957.805-2.225,1.308-3.57s.985-2.606,1.356-3.552c.6-1.529.614-1.526.7-1.494s.1.038-.451,1.588c-.341.957-.805,2.225-1.309,3.571s-.983,2.6-1.356,3.552c-.524,1.333-.6,1.5-.669,1.5m2.949-7.975c-.3.78-.671,1.749-1.087,2.86s-.773,2.084-1.058,2.871c.3-.78.671-1.749,1.087-2.86s.774-2.084,1.058-2.871" transform="translate(-50.388 -41.911)" fill="#263238"/>
          </g>
        </g>
        <g id="Grupo_177784" data-name="Grupo 177784">
          <g id="Grupo_177783" data-name="Grupo 177783" clip-path="url(#clip-path)">
            <path id="Trazado_221020" data-name="Trazado 221020" d="M195.8,76.909a7,7,0,0,1,6.168-5.868,9.084,9.084,0,0,0,2.388-.269,13.624,13.624,0,0,0,1.714-.979,4.678,4.678,0,0,1,5.714,1.193c1.226,1.567,1.725-.613,4.619,1.107,2.4,1.425,1.147,3.407,1.147,3.407a5.369,5.369,0,0,1,5.325,4.246c.285,1.546-.03,3.429,1.175,4.438.584.489,1.4.624,2,1.09,1.121.865,1.16,2.536.907,3.93s-.688,2.865-.17,4.183c.848,2.161,3.925,3.02,4.306,5.31.179,1.081-.276,2.378.478,3.175a3.722,3.722,0,0,0,1.133.664,4.9,4.9,0,0,1,.183,8.7c-.438.238-.958.457-1.125.926-.187.523.16,1.066.409,1.563a4.707,4.707,0,0,1-6.7,6.1,7.362,7.362,0,0,1-4.326,3.436,4.465,4.465,0,0,1-2.571.068,5.118,5.118,0,0,1-1.766-1.089c-2.5-2.181-6.016-5.519-6.247-8.832" transform="translate(-83.65 -29.601)" fill="#263238"/>
            <path id="Trazado_221021" data-name="Trazado 221021" d="M264.384,150.515l-15,13.738c-1.863-.43-24.71-14.087-24.71-14.087l-3.611,17.574s23.383,10.75,29.818,9.446c1.05-.213,2.778-.347,3.862-1.74,5.147-6.615,16.068-22.982,16.068-22.982Z" transform="translate(-94.443 -64.156)" fill="#ffbe9d"/>
            <path id="Trazado_221022" data-name="Trazado 221022" d="M303.333,124.237c-.99.4-4.529,6.37-4.529,6.37l-.887.048a2.821,2.821,0,0,0-2.646,3.154c.295,2.488.811,5.554.811,5.554l4.953,2.257,1.469-.309c1.364-.072,2.692-2.844,3.532-4.8s-.537-2.343-.537-2.343c.015-1.944-1.643-1.557-1.643-1.557a1.693,1.693,0,0,0-1.772-1.684,51.032,51.032,0,0,0,2.627-5.435c.428-1.415-.387-1.658-1.378-1.253" transform="translate(-126.141 -53.003)" fill="#ffbe9d"/>
            <path id="Trazado_221023" data-name="Trazado 221023" d="M307.536,137.794a9.174,9.174,0,0,1-.516,1.25,4.823,4.823,0,0,1-.308.621,2.61,2.61,0,0,1-.541.6,1.87,1.87,0,0,1-.8.412,1.212,1.212,0,0,1-.957-.228.876.876,0,0,1-.284-.44,1.189,1.189,0,0,1-.015-.495,5.118,5.118,0,0,1,.255-.846,10.333,10.333,0,0,1,.609-1.344,8.584,8.584,0,0,1,.521-.845,1.2,1.2,0,0,1,.231-.283c.027.018-.262.448-.628,1.193a12.351,12.351,0,0,0-.562,1.341,5.321,5.321,0,0,0-.235.813.771.771,0,0,0,.234.753,1.028,1.028,0,0,0,.8.19,1.725,1.725,0,0,0,.723-.364,2.516,2.516,0,0,0,.519-.548,5.135,5.135,0,0,0,.318-.59,9.137,9.137,0,0,1,.642-1.191" transform="translate(-129.918 -58.187)" fill="#eb996e"/>
            <path id="Trazado_221024" data-name="Trazado 221024" d="M310.738,140.27a1.187,1.187,0,0,1-.08.343,8.8,8.8,0,0,1-.325.9,4.428,4.428,0,0,1-.75,1.221,1.949,1.949,0,0,1-.688.529.865.865,0,0,1-1.237-1,4.181,4.181,0,0,1,.226-.822c.177-.5.364-.949.535-1.315s.325-.654.439-.849a1.129,1.129,0,0,1,.2-.292c.027.014-.2.457-.508,1.2-.154.37-.325.815-.49,1.317a4.141,4.141,0,0,0-.206.787.677.677,0,0,0,.973.8,1.809,1.809,0,0,0,.627-.473,4.623,4.623,0,0,0,.757-1.156c.338-.723.5-1.2.533-1.185" transform="translate(-131.435 -59.38)" fill="#eb996e"/>
            <path id="Trazado_221025" data-name="Trazado 221025" d="M312.944,143.433a2.359,2.359,0,0,1-.195.925,4.707,4.707,0,0,1-.454.927,2.582,2.582,0,0,1-.38.493.767.767,0,0,1-.675.223.651.651,0,0,1-.469-.541,1.663,1.663,0,0,1,.036-.633,4.155,4.155,0,0,1,.367-.967,7.859,7.859,0,0,1,.442-.828,3.1,3.1,0,0,1-.315.887,4.713,4.713,0,0,0-.316.945,1.537,1.537,0,0,0-.025.56.464.464,0,0,0,.322.385.584.584,0,0,0,.5-.173,2.607,2.607,0,0,0,.359-.45,5.424,5.424,0,0,0,.477-.879c.224-.526.292-.881.324-.874" transform="translate(-132.764 -61.108)" fill="#eb996e"/>
            <path id="Trazado_221026" data-name="Trazado 221026" d="M299.906,135.547c1.272-.05,3.151-.054,4.374.039a1.6,1.6,0,0,1-.869,1.889,4.453,4.453,0,0,1-2.234.321,2.858,2.858,0,0,1-.061,4.242" transform="translate(-128.13 -57.895)" fill="#ffbe9d"/>
            <path id="Trazado_221027" data-name="Trazado 221027" d="M301.116,141.984a3.778,3.778,0,0,0,.713-1.115,2.8,2.8,0,0,0,.147-1.45,2.849,2.849,0,0,0-.863-1.609l-.182-.168.249.006a4.88,4.88,0,0,0,2-.231,1.547,1.547,0,0,0,1.011-1.849l.078.056c-1.273-.094-2.368-.1-3.14-.1l-.9-.007a1.368,1.368,0,0,1-.324-.019,1.284,1.284,0,0,1,.322-.041c.21-.017.516-.033.9-.046.774-.022,1.87-.046,3.156.034l.055,0,.023.053a1.41,1.41,0,0,1-.113,1.232,1.976,1.976,0,0,1-.992.871,4.946,4.946,0,0,1-2.086.237l.067-.163a2.978,2.978,0,0,1,.894,1.722,2.855,2.855,0,0,1-.2,1.518,2.763,2.763,0,0,1-.548.84,1.034,1.034,0,0,1-.274.231" transform="translate(-128.13 -57.841)" fill="#eb996e"/>
            <path id="Trazado_221028" data-name="Trazado 221028" d="M249.3,407.415a1.2,1.2,0,0,0,.225-.494,3.592,3.592,0,0,0,.117-1.481,1.928,1.928,0,0,0-.117-.5.621.621,0,0,0-.49-.4.441.441,0,0,0-.364.125.6.6,0,0,0-.151.336,3.727,3.727,0,0,0,.012.624c.033.416.033.814.1,1.3a.785.785,0,0,0,.509.616,1.565,1.565,0,0,0,.77.031,6.114,6.114,0,0,0,1.349-.4,6.366,6.366,0,0,0,.6-.3,1.754,1.754,0,0,0,.545-.412.579.579,0,0,0,.014-.734.693.693,0,0,0-.654-.157,4.029,4.029,0,0,0-.966.4,5.253,5.253,0,0,0-1.189.88c-.245.249-.354.409-.339.422a10.416,10.416,0,0,1,1.633-1.1,4.15,4.15,0,0,1,.906-.337.437.437,0,0,1,.395.08.292.292,0,0,1-.037.363,1.526,1.526,0,0,1-.458.324,6.158,6.158,0,0,1-.573.274,6.006,6.006,0,0,1-1.28.372,1.266,1.266,0,0,1-.608-.015.458.458,0,0,1-.307-.378c-.058-.4-.073-.856-.112-1.252a3.854,3.854,0,0,1-.027-.564c.019-.164.09-.24.207-.231.268.018.361.376.407.664a5.2,5.2,0,0,1-.116,1.942" transform="translate(-106.169 -172.832)" fill="#263238"/>
            <path id="Trazado_221029" data-name="Trazado 221029" d="M291.11,367.183a1.207,1.207,0,0,0-.016-.543,3.6,3.6,0,0,0-.549-1.381,1.942,1.942,0,0,0-.327-.4.62.62,0,0,0-.615-.139.438.438,0,0,0-.271.273.585.585,0,0,0,.013.368,3.714,3.714,0,0,0,.286.554c.213.359.389.716.661,1.12a.784.784,0,0,0,.729.328,1.566,1.566,0,0,0,.7-.312,6.064,6.064,0,0,0,1.442-1.485,1.749,1.749,0,0,0,.307-.609.578.578,0,0,0-.311-.665.692.692,0,0,0-.656.148,4.045,4.045,0,0,0-.691.783,5.235,5.235,0,0,0-.678,1.315,1.349,1.349,0,0,0-.118.529,10.4,10.4,0,0,1,.98-1.707,4.13,4.13,0,0,1,.664-.7.437.437,0,0,1,.389-.1.293.293,0,0,1,.127.342,1.535,1.535,0,0,1-.268.493,6.181,6.181,0,0,1-.393.5,6.044,6.044,0,0,1-.984.9,1.284,1.284,0,0,1-.552.255.459.459,0,0,1-.442-.2c-.226-.329-.443-.735-.652-1.073a3.873,3.873,0,0,1-.274-.495c-.055-.155-.025-.255.084-.3.248-.1.49.178.658.416a5.2,5.2,0,0,1,.753,1.793" transform="translate(-123.601 -155.623)" fill="#263238"/>
            <path id="Trazado_221030" data-name="Trazado 221030" d="M249.181,372.553,242.192,387.7l-11.278-5.21,7.229-18.747Z" transform="translate(-98.654 -155.403)" fill="#ffbe9d"/>
            <path id="Trazado_221031" data-name="Trazado 221031" d="M238.6,399.039l-4.083,7.787s10.452,10.808,9.471,13.223l-24.572-11.781,6.751-15.619Z" transform="translate(-93.742 -167.752)" fill="#43a99b"/>
            <path id="Trazado_221032" data-name="Trazado 221032" d="M232.463,409.169a1.113,1.113,0,0,0-1.243.812,1.07,1.07,0,0,0,.794,1.239,1.174,1.174,0,0,0,1.312-.868,1.11,1.11,0,0,0-.969-1.2" transform="translate(-98.775 -174.804)" fill="#e0e0e0"/>
            <g id="Grupo_177773" data-name="Grupo 177773" transform="translate(125.675 238.557)" opacity="0.6">
              <g id="Grupo_177772" data-name="Grupo 177772">
                <g id="Grupo_177771" data-name="Grupo 177771" clip-path="url(#clip-path-7)">
                  <path id="Trazado_221033" data-name="Trazado 221033" d="M219.417,418.457l1.022-1.958,23.176,12.028s.866,1,.373,1.711Z" transform="translate(-219.417 -416.499)" fill="#fff"/>
                </g>
              </g>
            </g>
            <path id="Trazado_221034" data-name="Trazado 221034" d="M244.422,417.15c-.061.118-.687-.115-1.463-.012-.778.082-1.332.456-1.419.356-.1-.077.424-.708,1.364-.816s1.6.375,1.518.472" transform="translate(-103.189 -178.011)" fill="#263238"/>
            <path id="Trazado_221035" data-name="Trazado 221035" d="M248.348,421.373c-.028.129-.646.084-1.3.4-.66.293-1.026.793-1.143.73-.122-.035.132-.777.949-1.15s1.543-.092,1.491.024" transform="translate(-105.048 -179.933)" fill="#263238"/>
            <path id="Trazado_221036" data-name="Trazado 221036" d="M250.131,426.9c-.121-.027,0-.706.623-1.215s1.309-.5,1.312-.378c.021.131-.513.309-1.018.735s-.792.9-.917.858" transform="translate(-106.846 -181.675)" fill="#263238"/>
            <path id="Trazado_221037" data-name="Trazado 221037" d="M246.674,411.352c-.1.085-.574-.344-1.274-.623s-1.331-.319-1.344-.452.7-.317,1.52.023,1.2.986,1.1,1.052" transform="translate(-104.268 -175.212)" fill="#263238"/>
            <path id="Trazado_221038" data-name="Trazado 221038" d="M218.213,333.886l17.8-44.3s-.414-7.866-1.863-10.351-45.336-16.975-45.336-16.975-11.179-2.691-18.631,0-13.042,12.006-12.006,17.182,5.4,8.977,5.4,8.977l32.273.959,17.59,6.417L201.6,329.746s6.055,6.625,16.613,4.141" transform="translate(-67.527 -111.535)" fill="#263238"/>
            <path id="Trazado_221039" data-name="Trazado 221039" d="M280.321,334.089l.415,16.677-12.419.3-1.789-20.012Z" transform="translate(-113.869 -141.438)" fill="#ffbe9d"/>
            <path id="Trazado_221040" data-name="Trazado 221040" d="M282.2,362.683l-.227,8.79s14.15,5.083,14.336,7.684l-27.249.276-.838-16.995Z" transform="translate(-114.593 -154.845)" fill="#43a99b"/>
            <path id="Trazado_221041" data-name="Trazado 221041" d="M276.915,376.263a1.113,1.113,0,0,0-.757,1.278,1.07,1.07,0,0,0,1.26.761,1.173,1.173,0,0,0,.794-1.357,1.11,1.11,0,0,0-1.4-.647" transform="translate(-117.973 -160.731)" fill="#e0e0e0"/>
            <g id="Grupo_177776" data-name="Grupo 177776" transform="translate(154.467 222.379)" opacity="0.6">
              <g id="Grupo_177775" data-name="Grupo 177775">
                <g id="Grupo_177774" data-name="Grupo 177774" clip-path="url(#clip-path-8)">
                  <path id="Trazado_221042" data-name="Trazado 221042" d="M269.685,390.462l.053-2.209,26.106.561s1.218.515,1.09,1.371Z" transform="translate(-269.685 -388.253)" fill="#fff"/>
                </g>
              </g>
            </g>
            <path id="Trazado_221043" data-name="Trazado 221043" d="M291.158,377.872c0,.133-.668.2-1.318.635-.662.418-.994,1-1.116.946-.123-.025.068-.822.864-1.334s1.6-.369,1.571-.246" transform="translate(-123.337 -161.389)" fill="#263238"/>
            <path id="Trazado_221044" data-name="Trazado 221044" d="M296.675,379.935c.031.128-.542.361-.989.928-.463.554-.57,1.164-.7,1.16-.125.022-.225-.757.344-1.451s1.344-.763,1.348-.636" transform="translate(-125.985 -162.298)" fill="#263238"/>
            <path id="Trazado_221045" data-name="Trazado 221045" d="M300.781,384.2c-.12.03-.313-.633.022-1.365s.954-1.029,1.011-.918c.077.109-.324.5-.589,1.109s-.312,1.16-.444,1.174" transform="translate(-128.433 -163.157)" fill="#263238"/>
            <path id="Trazado_221046" data-name="Trazado 221046" d="M290.411,372.011c-.054.122-.667-.056-1.418,0-.753.043-1.336.3-1.406.188-.078-.1.489-.593,1.375-.65s1.514.353,1.45.459" transform="translate(-122.863 -158.736)" fill="#263238"/>
            <path id="Trazado_221047" data-name="Trazado 221047" d="M249.671,255.418s7.441-.6,8.269,7.479,1.641,45.75,1.641,45.75L242.193,310.1l-2.691-38.5-27.739-11.8s32.941-5.409,37.909-4.374" transform="translate(-90.472 -109.067)" fill="#263238"/>
            <path id="Trazado_221048" data-name="Trazado 221048" d="M193.921,236.495s4.516,12.662,3.656,14.073-12.473,7.217-12.473,7.217l-29.059,11.16a24.352,24.352,0,0,1-2.985-12.04c0-7.292,10.108-20.411,10.108-20.411Z" transform="translate(-65.392 -101.038)" fill="#263238"/>
            <path id="Trazado_221049" data-name="Trazado 221049" d="M209.361,262.025a.628.628,0,0,0,.136.073l.413.191,1.609.716,6.04,2.632,20.854,8.977-.094-.132c.263,3.8.549,7.911.843,12.161.707,9.934,1.359,19.094,1.874,26.341l.01.131.13-.011,12.668-1.112,3.488-.326.912-.095a1.821,1.821,0,0,0,.31-.046,1.971,1.971,0,0,0-.314.007l-.915.057-3.494.256-12.677,1,.14.12c-.5-7.248-1.127-16.41-1.809-26.346-.3-4.249-.588-8.357-.856-12.16l-.006-.1-.088-.037-20.9-8.872-6.076-2.548-1.63-.669-.423-.166a.681.681,0,0,0-.147-.048" transform="translate(-89.446 -111.945)" fill="#455a64"/>
            <path id="Trazado_221050" data-name="Trazado 221050" d="M169.013,261.728a4.238,4.238,0,0,0,.816-.223l2.188-.706a47.808,47.808,0,0,1,7.322-1.85,21.476,21.476,0,0,1,7.5.1,30.038,30.038,0,0,1,3,.871,3.582,3.582,0,0,0-.755-.383,13.42,13.42,0,0,0-2.2-.712,20.153,20.153,0,0,0-7.594-.193,40.734,40.734,0,0,0-7.347,1.954c-.916.325-1.651.6-2.156.8a4.19,4.19,0,0,0-.774.342" transform="translate(-72.208 -110.382)" fill="#455a64"/>
            <path id="Trazado_221051" data-name="Trazado 221051" d="M176.184,252.4a21.274,21.274,0,0,1,2.541-.014c.782.054,1.713.175,2.75.294s2.171.262,3.348.485a15.576,15.576,0,0,1,5.694,2.112,17.594,17.594,0,0,1,1.974,1.591,2.192,2.192,0,0,0-.422-.547,8.724,8.724,0,0,0-1.424-1.234,14.577,14.577,0,0,0-5.761-2.241c-1.191-.226-2.337-.357-3.376-.464s-1.976-.2-2.772-.226a10.416,10.416,0,0,0-1.88.084,2.182,2.182,0,0,0-.672.16" transform="translate(-75.272 -107.724)" fill="#455a64"/>
            <path id="Trazado_221052" data-name="Trazado 221052" d="M225.653,149.4a9.42,9.42,0,0,1,4.826,4.194c1.812,3.209,1.328,4.794.855,6.689s-1.309,5.661-1.356,5.418-4.325-16.3-4.325-16.3" transform="translate(-96.406 -63.828)" fill="#ffbe9d"/>
            <path id="Trazado_221053" data-name="Trazado 221053" d="M206.437,147.289l-3.811-2.262-21.476-.566,7.23,23.727,13.083,8.238,7.752-3.879.776-8.623Z" transform="translate(-77.393 -61.718)" fill="#ffbe9d"/>
            <path id="Trazado_221054" data-name="Trazado 221054" d="M196.764,147.151S201.7,163,201.59,167.533s-1.995,17.421-1.779,19.962-.668,9.542-3.765,9.542H165.294s-6.945-1.92-7.247-6.094,5.343-39.871,5.343-39.871,3.922-5.925,6.463-6.469,7.259-1.589,8.96,3.673,2.257,7.962,5.886,11.591,8.8,7.706,8.8,7.706,4.173-3.488,4.355-8.206S196.271,147,196.271,147Z" transform="translate(-67.518 -61.58)" fill="#43a99b"/>
            <path id="Trazado_221055" data-name="Trazado 221055" d="M217.7,231.319a2.891,2.891,0,0,0,1.217-.643,7.355,7.355,0,0,0,2.056-2.606,14.179,14.179,0,0,0,1.047-3.14,5.319,5.319,0,0,0,.212-1.351,6.2,6.2,0,0,0-.434,1.293,19.447,19.447,0,0,1-1.116,3.055,8.268,8.268,0,0,1-1.911,2.571c-.621.546-1.1.771-1.071.82" transform="translate(-93.006 -95.521)" fill="#263238"/>
            <path id="Trazado_221056" data-name="Trazado 221056" d="M189.286,200.578a2.391,2.391,0,0,0,.516.436,9.733,9.733,0,0,0,4.216,1.715,9.03,9.03,0,0,0,3.356-.145,11.058,11.058,0,0,0,5.221-3.029,12.9,12.9,0,0,0,1.2-1.394,2.564,2.564,0,0,0,.361-.57c-.047-.037-.6.747-1.72,1.8a11.514,11.514,0,0,1-5.135,2.878,9.4,9.4,0,0,1-5.814-.536c-1.409-.6-2.163-1.208-2.2-1.154" transform="translate(-80.869 -84.416)" fill="#263238"/>
            <path id="Trazado_221057" data-name="Trazado 221057" d="M218.35,234.214c.066.054.489-.431.635-1.186a1.678,1.678,0,0,0-.139-1.339,10.013,10.013,0,0,0-.179,1.276c-.129.683-.4,1.2-.316,1.249" transform="translate(-93.28 -98.985)" fill="#263238"/>
            <g id="Grupo_177779" data-name="Grupo 177779" transform="translate(108.537 113.712)" opacity="0.3">
              <g id="Grupo_177778" data-name="Grupo 177778">
                <g id="Grupo_177777" data-name="Grupo 177777" clip-path="url(#clip-path-9)">
                  <path id="Trazado_221058" data-name="Trazado 221058" d="M203.731,198.7a8.958,8.958,0,0,1-3.159,6.043,7.433,7.433,0,0,1-6.581,1.434,6.366,6.366,0,0,1-4.495-4.883A18.841,18.841,0,0,0,194.4,203a9.636,9.636,0,0,0,9.476-4.473l-.25.265" transform="translate(-189.496 -198.53)"/>
                </g>
              </g>
            </g>
            <g id="Grupo_177782" data-name="Grupo 177782" transform="translate(125.659 128.401)" opacity="0.3">
              <g id="Grupo_177781" data-name="Grupo 177781">
                <g id="Grupo_177780" data-name="Grupo 177780" clip-path="url(#clip-path-10)">
                  <path id="Trazado_221059" data-name="Trazado 221059" d="M222.961,224.318a6.89,6.89,0,0,1-2.191,6.42,1.478,1.478,0,0,1-1.38.467,16.425,16.425,0,0,0,3.536-7.028" transform="translate(-219.39 -224.177)"/>
                </g>
              </g>
            </g>
            <path id="Trazado_221060" data-name="Trazado 221060" d="M153.061,169.437l15.5,7.266s6.318-13.976,6.861-15.886,2.248-4.936.5-8.919-6.148-6.2-9.071-5.177c-6.833,2.4-13.787,22.717-13.787,22.717" transform="translate(-65.393 -62.577)" fill="#43a99b"/>
            <path id="Trazado_221061" data-name="Trazado 221061" d="M228.033,170.045c.723,0,9.032,4.346,9.032,4.346L241.8,158.72c-7.064-4.708-14.282-9.6-18.416-10.712l3.592,12.467Z" transform="translate(-95.435 -63.234)" fill="#43a99b"/>
            <path id="Trazado_221062" data-name="Trazado 221062" d="M163.816,193.32c-2.935,4.822-4.982,7.6-4.982,7.6l26.32,16.029-3.067,7.124L147.95,210.019s-3.364-3.463-2.177-7.322l5.443-15.022Z" transform="translate(-62.17 -80.181)" fill="#ffbe9d"/>
            <path id="Trazado_221063" data-name="Trazado 221063" d="M157.584,213.2a23.079,23.079,0,0,1,3.15-1.636,23.055,23.055,0,0,1,3.456-.814,8.517,8.517,0,0,0-6.606,2.451" transform="translate(-67.324 -90.011)" fill="#eb996e"/>
            <path id="Trazado_221064" data-name="Trazado 221064" d="M153.061,182.094a1.346,1.346,0,0,1,.308.108l.858.365,3.132,1.39,10.286,4.689,1.254.579-.2.07c1.788-3.686,3.356-6.983,4.466-9.364.536-1.164.974-2.115,1.3-2.815l.349-.762a1.169,1.169,0,0,1,.139-.258,1.136,1.136,0,0,1-.086.28c-.066.18-.163.446-.3.784-.271.678-.683,1.652-1.213,2.855-1.062,2.4-2.6,5.719-4.382,9.41l-.064.131-.132-.061-1.255-.577-10.249-4.769-3.092-1.476-.835-.415a1.375,1.375,0,0,1-.282-.163" transform="translate(-65.393 -75.234)" fill="#263238"/>
            <path id="Trazado_221065" data-name="Trazado 221065" d="M229.834,161.736a4.241,4.241,0,0,1,.363.736,15.944,15.944,0,0,1,.7,2.126,38.772,38.772,0,0,1,1.064,7.29,51.4,51.4,0,0,1-.073,7.367c-.08.94-.188,1.7-.279,2.217a4.33,4.33,0,0,1-.182.8,4.355,4.355,0,0,1,.066-.816c.055-.522.131-1.279.184-2.217a62.951,62.951,0,0,0-.015-7.333,44.965,44.965,0,0,0-.971-7.258,21.4,21.4,0,0,0-.6-2.135,4.329,4.329,0,0,1-.254-.778" transform="translate(-98.192 -69.099)" fill="#263238"/>
            <path id="Trazado_221066" data-name="Trazado 221066" d="M232.849,243.66l-6.564-3.14L213.473,239.5l-1.045-.725-3.068,7.124a21.324,21.324,0,0,0,5.117,1.749l10.771-.326,5.631.592Z" transform="translate(-89.446 -102.014)" fill="#ffbe9d"/>
            <path id="Trazado_221067" data-name="Trazado 221067" d="M236,100.714a2.755,2.755,0,0,0,1.159-.015,6.828,6.828,0,0,0,4.607-2.978,2.757,2.757,0,0,0,.49-1.051,9.361,9.361,0,0,0-.671.923,7.8,7.8,0,0,1-4.468,2.888,9.393,9.393,0,0,0-1.117.233" transform="translate(-100.828 -41.3)" fill="#455a64"/>
            <path id="Trazado_221068" data-name="Trazado 221068" d="M233.073,90.441c-.025.025.227.349.752.751a6.64,6.64,0,0,0,4.883,1.244,2.458,2.458,0,0,0,1.019-.3,8.49,8.49,0,0,1-6.654-1.7" transform="translate(-99.576 -38.638)" fill="#455a64"/>
            <path id="Trazado_221069" data-name="Trazado 221069" d="M247.759,133.812c0,.005.037,0,.1-.015a2.167,2.167,0,0,0,.3-.086,3.745,3.745,0,0,0,1.039-.572,4.043,4.043,0,0,0,1.182-1.461,3.926,3.926,0,0,0,.287-2.469,4.07,4.07,0,0,0-.537-1.365,5.293,5.293,0,0,0-1.057-1.178,5.375,5.375,0,0,1-1.094-1.188,1.627,1.627,0,0,1-.049-1.56A7.86,7.86,0,0,1,249,122.455a5.405,5.405,0,0,0,.565-.806,3.145,3.145,0,0,0,.322-.975,3.428,3.428,0,0,0-1.866-3.533,11.163,11.163,0,0,0-2.035-.471,2.328,2.328,0,0,1-.864-.368,1.406,1.406,0,0,1-.5-.725,2.861,2.861,0,0,1,.2-1.79c.231-.566.555-1.108.77-1.69a2.717,2.717,0,0,0,.123-1.817,2.889,2.889,0,0,0-1.03-1.376,7.98,7.98,0,0,0-2.776-1.172,6.084,6.084,0,0,1-2.192-1,2.725,2.725,0,0,1-.918-1.522,1.762,1.762,0,0,1,.109-1.12c.113-.239.223-.336.207-.349a.969.969,0,0,0-.263.321,1.762,1.762,0,0,0-.172,1.171,2.815,2.815,0,0,0,.923,1.634,6.144,6.144,0,0,0,2.242,1.077,7.871,7.871,0,0,1,2.681,1.166,2.626,2.626,0,0,1,.926,1.253,2.442,2.442,0,0,1-.129,1.634c-.207.552-.527,1.077-.778,1.68a3.133,3.133,0,0,0-.218,1.988,1.716,1.716,0,0,0,.608.884,2.632,2.632,0,0,0,.979.425,11.344,11.344,0,0,1,1.978.452,3.13,3.13,0,0,1,1.691,3.2,2.852,2.852,0,0,1-.284.872,5.173,5.173,0,0,1-.531.763,7.968,7.968,0,0,0-1.1,1.529,1.912,1.912,0,0,0,.073,1.82,5.539,5.539,0,0,0,1.159,1.243,5.094,5.094,0,0,1,1.026,1.113,3.883,3.883,0,0,1,.525,1.281,3.775,3.775,0,0,1-.23,2.35,4,4,0,0,1-1.1,1.439,5.1,5.1,0,0,1-1.362.77" transform="translate(-101.96 -44.322)" fill="#455a64"/>
            <path id="Trazado_221070" data-name="Trazado 221070" d="M194.378,88.157l.049-2.356,14.25-2.116c4.379-.284,8.917,4.277,9.015,8.664.109,4.874.05,10.83-.673,14.434-1.454,7.247-7.083,7.949-7.083,7.949l-.325,7.24-16.14-.452Z" transform="translate(-82.658 -35.747)" fill="#ffbe9d"/>
            <path id="Trazado_221071" data-name="Trazado 221071" d="M231.149,107.51a.936.936,0,0,1-.94.907.9.9,0,0,1-.93-.883.936.936,0,0,1,.939-.908.9.9,0,0,1,.931.883" transform="translate(-97.955 -45.554)" fill="#263238"/>
            <path id="Trazado_221072" data-name="Trazado 221072" d="M230.091,103.331c-.121.117-.808-.436-1.815-.474s-1.765.435-1.869.308c-.052-.057.076-.272.407-.493a2.567,2.567,0,0,1,1.5-.4,2.471,2.471,0,0,1,1.439.53c.3.25.4.475.336.528" transform="translate(-96.724 -43.694)" fill="#263238"/>
            <path id="Trazado_221073" data-name="Trazado 221073" d="M214.891,106.867a.936.936,0,0,1-.94.907.9.9,0,0,1-.93-.883.937.937,0,0,1,.939-.908.9.9,0,0,1,.931.883" transform="translate(-91.009 -45.28)" fill="#263238"/>
            <path id="Trazado_221074" data-name="Trazado 221074" d="M212.8,102.959c-.121.117-.809-.436-1.815-.474s-1.765.435-1.87.308c-.051-.057.074-.272.407-.493a2.562,2.562,0,0,1,1.5-.4,2.47,2.47,0,0,1,1.439.529c.3.25.4.475.337.528" transform="translate(-89.336 -43.535)" fill="#263238"/>
            <path id="Trazado_221075" data-name="Trazado 221075" d="M221.308,110.772a6.7,6.7,0,0,1,1.647-.229c.258-.016.5-.057.554-.231a1.308,1.308,0,0,0-.141-.769q-.325-.948-.681-1.988a33.775,33.775,0,0,1-1.5-5.189,33.667,33.667,0,0,1,1.914,5.056q.339,1.046.648,2a1.488,1.488,0,0,1,.093,1.014.644.644,0,0,1-.438.359,1.74,1.74,0,0,1-.439.043,6.557,6.557,0,0,1-1.658-.065" transform="translate(-94.493 -43.734)" fill="#263238"/>
            <path id="Trazado_221076" data-name="Trazado 221076" d="M214.818,135.675a19.332,19.332,0,0,1-9.912-3.027s2.257,5.207,9.833,4.846Z" transform="translate(-87.543 -56.672)" fill="#eb996e"/>
            <path id="Trazado_221077" data-name="Trazado 221077" d="M218.232,120.693a1.815,1.815,0,0,0-1.6-.739,1.655,1.655,0,0,0-1.168.567,1.05,1.05,0,0,0-.129,1.2,1.219,1.219,0,0,0,1.306.387,3.811,3.811,0,0,0,1.318-.715,1.125,1.125,0,0,0,.3-.286.337.337,0,0,0,.013-.375" transform="translate(-91.942 -51.246)" fill="#eb996e"/>
            <path id="Trazado_221078" data-name="Trazado 221078" d="M216.045,118.048c.164,0,.122,1.09,1.026,1.9s2.072.741,2.074.894c.013.069-.268.2-.76.2a2.724,2.724,0,0,1-1.734-.684,2.374,2.374,0,0,1-.79-1.593c-.023-.459.11-.724.184-.715" transform="translate(-92.222 -50.434)" fill="#263238"/>
            <path id="Trazado_221079" data-name="Trazado 221079" d="M212.851,96.256c-.111.27-1.11.1-2.3.194-1.189.07-2.155.377-2.3.126-.065-.12.111-.371.507-.621a4.009,4.009,0,0,1,3.5-.243c.427.192.636.416.588.545" transform="translate(-88.966 -40.766)" fill="#263238"/>
            <path id="Trazado_221080" data-name="Trazado 221080" d="M229.856,98.177c-.187.222-.87-.044-1.7-.089-.832-.074-1.546.092-1.7-.154-.066-.12.054-.344.371-.548a2.471,2.471,0,0,1,2.742.2c.285.247.373.486.29.595" transform="translate(-96.74 -41.468)" fill="#263238"/>
            <path id="Trazado_221081" data-name="Trazado 221081" d="M219.622,81.668c-1.173,2.552-3.807,6.351-6.6,6.625a8.25,8.25,0,0,1-7.341-3.305c-.47,2.069-2.8,3.12-4.9,3.416a8.341,8.341,0,0,1-4.427-.4,4.419,4.419,0,0,1-2.736-3.318c-.191-1.488,2-5.083,3.483-5.326" transform="translate(-82.713 -33.905)" fill="#263238"/>
            <path id="Trazado_221082" data-name="Trazado 221082" d="M183.768,118.843a5.748,5.748,0,0,1-4.209,5.1,4.074,4.074,0,0,1-7.886,1.585,4.885,4.885,0,0,0-.584-1.38c-.714-.9-2.108-.726-3.2-1.08-1.975-.64-2.831-3.061-2.608-5.125a4.854,4.854,0,0,0,.058-1.223,5.438,5.438,0,0,0-1.253-2.146c-1.988-2.816-1.159-6.906,1.044-9.556.735-.884,1.661-1.807,1.594-2.954a6.177,6.177,0,0,0-.624-1.811,5.209,5.209,0,0,1,1.4-5.684,1.636,1.636,0,0,0,.6-.725,1.587,1.587,0,0,0,0-.6,6.091,6.091,0,0,1,5.149-6.5,1.518,1.518,0,0,0,.538-.121c.469-.245.483-.89.545-1.415a9.738,9.738,0,0,1,2.3-4.886c2.944-2.515,5.8-.468,6.816.489,0,0,2.016,9.993,1.626,11.853s-1.758,6.5-1.216,8.609,1.43,6.424.578,8.324-.664,9.252-.664,9.252" transform="translate(-69.62 -33.798)" fill="#263238"/>
            <path id="Trazado_221083" data-name="Trazado 221083" d="M180.06,92.356c-.012.018.127.129.389.315a10.05,10.05,0,0,0,1.167.7,14.294,14.294,0,0,0,8.754,1.436,9.926,9.926,0,0,0,1.331-.292,1.542,1.542,0,0,0,.469-.174c-.013-.053-.7.12-1.829.247a16.114,16.114,0,0,1-8.626-1.415c-1.029-.481-1.625-.864-1.655-.818" transform="translate(-76.927 -39.456)" fill="#455a64"/>
            <path id="Trazado_221084" data-name="Trazado 221084" d="M178.383,93.594a2.416,2.416,0,0,0,.214.594,5.309,5.309,0,0,0,.318.669,9.021,9.021,0,0,0,.491.851,13.04,13.04,0,0,0,1.576,2.016,13.876,13.876,0,0,0,5.2,3.43,13.022,13.022,0,0,0,2.473.654,8.88,8.88,0,0,0,.975.116,5.274,5.274,0,0,0,.74.029,2.406,2.406,0,0,0,.63-.038c0-.063-.9-.049-2.306-.325a14.423,14.423,0,0,1-2.41-.706,14.6,14.6,0,0,1-5.1-3.361,14.43,14.43,0,0,1-1.6-1.937c-.809-1.185-1.15-2.018-1.207-1.992" transform="translate(-76.21 -39.986)" fill="#455a64"/>
            <path id="Trazado_221085" data-name="Trazado 221085" d="M184.325,136.677c0-.017-.126,0-.351-.039a1.572,1.572,0,0,1-.84-.5,2.148,2.148,0,0,1-.546-1.432,6.992,6.992,0,0,1,.378-2.075,4.508,4.508,0,0,0,.157-2.626,7.671,7.671,0,0,0-1.75-2.457,4.8,4.8,0,0,1-.87-1.29,1.81,1.81,0,0,1,.046-1.509,3.412,3.412,0,0,1,1.131-1.2c.47-.341.99-.643,1.487-1.012a3.241,3.241,0,0,0,1.2-1.426,2.206,2.206,0,0,0-.188-1.805c-.565-1.039-1.446-1.792-1.655-2.788a3.385,3.385,0,0,1,.742-2.68,11.859,11.859,0,0,1,1.756-1.877,12.112,12.112,0,0,0,1.473-1.582,4.773,4.773,0,0,0,.762-1.45,2.97,2.97,0,0,0,.119-1.028,1.369,1.369,0,0,0-.066-.354,3.8,3.8,0,0,1-.168,1.345,7.407,7.407,0,0,1-2.268,2.9,11.757,11.757,0,0,0-1.818,1.889,4.992,4.992,0,0,0-.7,1.306,2.881,2.881,0,0,0-.109,1.588c.239,1.118,1.156,1.9,1.664,2.867a1.9,1.9,0,0,1,.166,1.56,2.952,2.952,0,0,1-1.088,1.278c-.478.355-1,.658-1.483,1.01a3.705,3.705,0,0,0-1.226,1.32,2.116,2.116,0,0,0-.047,1.753,5.049,5.049,0,0,0,.931,1.37,7.559,7.559,0,0,1,1.72,2.347,4.328,4.328,0,0,1-.124,2.487,6.974,6.974,0,0,0-.339,2.14,2.259,2.259,0,0,0,.633,1.509,1.561,1.561,0,0,0,.918.479.841.841,0,0,0,.361-.023" transform="translate(-76.926 -45.947)" fill="#455a64"/>
            <path id="Trazado_221086" data-name="Trazado 221086" d="M267.388,203.153l-36.931.3a2.318,2.318,0,0,0-2.522,1.76L223.9,232.13H204.876a1.109,1.109,0,1,0,0,2.218h60.755l4.153-28.409a2.423,2.423,0,0,0-2.4-2.787" transform="translate(-87.056 -86.794)" fill="#e0e0e0"/>
            <path id="Trazado_221087" data-name="Trazado 221087" d="M267.277,203.142a1.949,1.949,0,0,1,.582.054,2.443,2.443,0,0,1,1.867,2.115,6.82,6.82,0,0,1-.136,1.519c-.155,1.088-.333,2.34-.533,3.749-.813,5.643-1.984,13.776-3.425,23.775l-.014.1h-.1l-58.942.035h-1.586a1.534,1.534,0,0,1-.839-.159,1.259,1.259,0,0,1,.005-2.2,1.537,1.537,0,0,1,.832-.156h6.955l11.843,0-.142.122c1.453-9.64,2.808-18.632,4.024-26.7a2.092,2.092,0,0,1,.683-1.406,2.748,2.748,0,0,1,1.412-.623,12.282,12.282,0,0,1,1.489-.053l1.45-.01,5.56-.037,9.881-.063,14.067-.072,3.764-.006.971,0c.218,0,.33.01.33.01s-.111.009-.33.015l-.971.02-3.763.054-14.067.156-9.881.1-5.56.053-1.45.014a12.046,12.046,0,0,0-1.453.053,2.511,2.511,0,0,0-1.288.568,1.838,1.838,0,0,0-.6,1.261c-1.2,8.069-2.545,17.064-3.984,26.706l-.018.123h-.124l-11.843,0H204.99a1.236,1.236,0,0,0-.688.119.96.96,0,0,0,0,1.679,1.242,1.242,0,0,0,.694.122h1.586l58.942.036-.112.1,3.523-23.761.562-3.744a6.856,6.856,0,0,0,.151-1.5,2.365,2.365,0,0,0-.428-1.148,2.415,2.415,0,0,0-1.365-.941,4.809,4.809,0,0,0-.574-.088" transform="translate(-86.944 -86.783)" fill="#263238"/>
            <path id="Trazado_221088" data-name="Trazado 221088" d="M275.833,228.062a2.312,2.312,0,1,0,2.312-2.312,2.312,2.312,0,0,0-2.312,2.312" transform="translate(-117.845 -96.448)" fill="#fff"/>
            <path id="Trazado_221089" data-name="Trazado 221089" d="M241.528,234.322c.052.009,1.228-6.845,2.625-15.307s2.489-15.331,2.437-15.34-1.227,6.845-2.626,15.309-2.488,15.329-2.436,15.338" transform="translate(-103.188 -87.017)" fill="#263238"/>
          </g>
        </g>
        <g id="Grupo_177789" data-name="Grupo 177789">
          <g id="Grupo_177788" data-name="Grupo 177788" clip-path="url(#clip-path)">
            <path id="Trazado_221090" data-name="Trazado 221090" d="M371.394,130.559s-.009-.344-.014-1-.008-1.623-.014-2.88c-.007-2.522-.019-6.212-.033-10.912-.016-9.393-.038-22.818-.065-38.975l.127.127-60.193.022H311.2l.149-.149c-.006,19.558-.013,37.963-.018,53.763l-.131-.131,43.542.066,12.28.035,3.25.015.838.007c.188,0,.288.007.288.007s-.089.005-.273.007l-.824.007-3.225.015-12.25.034-43.627.066h-.131v-.132c-.005-15.8-.011-34.206-.018-53.763v-.149h.155l60.193.022h.127V76.8c-.027,16.19-.049,29.642-.065,39.055-.014,4.688-.025,8.368-.033,10.883-.006,1.246-.011,2.2-.014,2.856s-.014.969-.014.969" transform="translate(-132.889 -32.746)" fill="#263238"/>
            <path id="Trazado_221093" data-name="Trazado 221093" d="M0,0H51.364V47.651H0Z" transform="translate(182.234 47.106)" fill="#eeac3a"/>
            <g id="Grupo_177787" data-name="Grupo 177787" transform="translate(185.917 50.814)" opacity="0.3">
              <g id="Grupo_177786" data-name="Grupo 177786">
                <g id="Grupo_177785" data-name="Grupo 177785" clip-path="url(#clip-path-12)">
                  <path id="Trazado_221091" data-name="Trazado 221091" d="M369.648,100.991a3.548,3.548,0,1,0,3.7,3.544,3.622,3.622,0,0,0-3.7-3.544" transform="translate(-342.264 -93.96)"/>
                  <path id="Trazado_221092" data-name="Trazado 221092" d="M368.292,88.752,324.9,88.719c.048-.052-.467.447-.249.242v5.392q0,2.678,0,5.306c0,3.5,0,6.93.006,10.267.008,6.673.016,12.983.023,18.787v.206h.213l31.515-.1,8.8-.054,2.307-.023.585-.012a1.123,1.123,0,0,0,.19-.011,1.57,1.57,0,0,0-.214-.012l-.608-.011-2.348-.024-8.85-.053-9.7-.032h21.707a1.059,1.059,0,0,0,.009.133.814.814,0,0,0,.012-.173c0-.137.007-.312.012-.534q.009-.747.024-2.105c.013-1.879.031-4.6.055-8.047.026-6.992.063-16.947.107-28.9v-.2ZM357.786,111.41l-7.062,8.323L339.1,104.06l-14,24.152c.007-5.667.015-11.8.023-18.286,0-3.338,0-6.766.006-10.267q0-2.626,0-5.306V89.189l42.946-.033c.044,11.809.081,21.65.107,28.57.023,3.47.041,6.2.054,8.093q.015,1.382.024,2.144c.005.231.009.412.012.555,0,.021,0,.03,0,.047Z" transform="translate(-324.595 -88.716)"/>
                </g>
              </g>
            </g>
            <rect id="Rectángulo_57298" data-name="Rectángulo 57298" width="3.154" height="3.154" transform="translate(176.73 42.069)" fill="#263238"/>
            <rect id="Rectángulo_57299" data-name="Rectángulo 57299" width="3.154" height="3.154" transform="translate(236.42 42.069)" fill="#263238"/>
            <rect id="Rectángulo_57300" data-name="Rectángulo 57300" width="3.154" height="3.154" transform="translate(236.42 95.718)" fill="#263238"/>
            <rect id="Rectángulo_57301" data-name="Rectángulo 57301" width="3.154" height="3.154" transform="translate(177.174 95.718)" fill="#263238"/>
            <rect id="Rectángulo_57302" data-name="Rectángulo 57302" width="3.154" height="3.154" transform="translate(177.174 69.206)" fill="#263238"/>
            <rect id="Rectángulo_57303" data-name="Rectángulo 57303" width="3.154" height="3.154" transform="translate(206.441 96.236)" fill="#263238"/>
            <rect id="Rectángulo_57304" data-name="Rectángulo 57304" width="3.154" height="3.154" transform="translate(236.928 67.629)" fill="#263238"/>
            <rect id="Rectángulo_57305" data-name="Rectángulo 57305" width="3.154" height="3.154" transform="translate(206.451 42.354)" fill="#263238"/>
          </g>
        </g>
      </g>
    </g>
  </g>
</svg>
