<svg xmlns="http://www.w3.org/2000/svg" xmlns:xlink="http://www.w3.org/1999/xlink" width="260.248" height="261.601" viewBox="0 0 260.248 261.601">
  <defs>
    <clipPath id="clip-path">
      <path id="Trazado_97723" data-name="Trazado 97723" d="M256.261,242.8c.038,4.038-1.07,11.21-3.32,12.659a6.557,6.557,0,0,1-4.448.82s-2.166,3.468-4.538,3.365a7.407,7.407,0,0,1-4.038-1.615s-.115.256-.327.628v34.56a10.642,10.642,0,0,1-6.2,9.877,9.118,9.118,0,0,1-3.615.744H132.832c-5.435,0-9.832-4.75-9.832-10.621v-155.2l-30.965,5.57-.359.064a2.964,2.964,0,0,1-.891-.019c-2.756-.487-4.5-4.923-4.987-11.448-1.276.256-2.551.487-3.833.711-1.57.269-3.141.532-4.724.75l-2.372.32c-.788.083-1.583.186-2.378.25.769-.205,1.551-.372,2.327-.564l2.34-.494c1.558-.333,3.128-.609,4.7-.891,1.3-.218,2.6-.442,3.9-.628a59.527,59.527,0,0,1-.006-6.6l-2.7.135c-2.34.109-4.679.167-7.019.231-2.346.038-4.685.083-7.031.077s-4.685-.006-7.031-.09c2.34-.179,4.679-.295,7.025-.4s4.679-.173,7.019-.231,4.685-.09,7.031-.083l2.724.006a78.956,78.956,0,0,1,1.109-9.467l.019-.1c-1.34-.212-2.679-.436-4.019-.66-2.7-.455-5.4-.961-8.1-1.436-2.692-.532-5.39-1.032-8.076-1.59l-4.032-.84c-1.333-.308-2.679-.59-4.012-.917,1.359.186,2.718.4,4.07.6l4.064.673c2.7.449,5.4.961,8.1,1.436,2.692.532,5.39,1.032,8.076,1.59,1.327.276,2.654.551,3.98.84a78.24,78.24,0,0,1,2.666-10.6l-2.077-1.429c-1.961-1.346-3.891-2.73-5.82-4.115s-3.839-2.8-5.73-4.237-3.782-2.878-5.628-4.378c2,1.282,3.961,2.628,5.916,3.98s3.891,2.73,5.82,4.115,3.839,2.795,5.73,4.237l1.91,1.455a52.3,52.3,0,0,1,2.282-5.7c-.9-.8-1.788-1.634-2.666-2.468-1.019-.981-2.032-1.961-3.013-2.98s-1.968-2.032-2.9-3.1c1.109.878,2.179,1.814,3.237,2.75s2.09,1.9,3.115,2.872c.827.795,1.654,1.6,2.468,2.416,2.545-5.192,5.448-8.23,8-7.781a2.876,2.876,0,0,1,.846.288v-.006l.038.026L123,102.867V85.5c0-11.96,4.4-12.544,9.832-12.544h19.421c1.128,0,2.051,1.282,2.051,2.872v.686c0,3.724,2.038,3.737,4.538,3.737h44.906c2.525,0,4.551-.013,4.551-3.737v-.686c0-1.59.91-2.872,2.057-2.872h19.415c5.423,0,9.82,1.59,9.82,12.544v92.029a39.072,39.072,0,0,1,3.846,6.679c3.4,8.275,9.659,38.893,9.659,38.893l-1.378.109c.141,1,.25,1.916.327,2.743v.006C253.031,229.437,256.229,239.135,256.261,242.8Z" transform="translate(-58.66 -72.96)" fill="none"/>
    </clipPath>
  </defs>
  <g id="Grupo_179457" data-name="Grupo 179457" transform="translate(9265.707 -3308.16)">
    <g id="Grupo_177792" data-name="Grupo 177792" transform="translate(-9312.692 3271.53)">
      <g id="Background_Complete" data-name="Background Complete" transform="translate(54.406 36.631)">
        <g id="Grupo_46908" data-name="Grupo 46908" transform="translate(0 97.603)">
          <path id="Trazado_97594" data-name="Trazado 97594" d="M59.733,213.968a18.582,18.582,0,1,1,23.892,10.943A18.582,18.582,0,0,1,59.733,213.968Z" transform="translate(-58.563 -188.906)" fill="#ebebeb"/>
          <path id="Trazado_97595" data-name="Trazado 97595" d="M91.165,213.841C89.033,219.79,82.79,223.9,82.79,223.9s-7.024-2.562-10.464-7.86c-2.871-4.419-1.992-9.661,1.544-11.2,5.068-2.2,7.486,6.789,7.486,6.789s.278-9.307,5.724-8.333C90.875,203.981,92.939,208.878,91.165,213.841Z" transform="translate(-62.889 -194.049)" fill="#fff"/>
        </g>
        <g id="Grupo_46910" data-name="Grupo 46910" transform="translate(203.652 138.838)">
          <path id="Trazado_97596" data-name="Trazado 97596" d="M403.257,288.409a18.578,18.578,0,0,1-19.469-1.681,18.58,18.58,0,1,1,19.469,1.681Z" transform="translate(-376.293 -253.241)" fill="#ebebeb"/>
          <g id="Grupo_46909" data-name="Grupo 46909" transform="translate(7.495 10.813)">
            <path id="Trazado_97597" data-name="Trazado 97597" d="M408.033,276.25a5.654,5.654,0,1,1-5.149-6.117A5.655,5.655,0,0,1,408.033,276.25Z" transform="translate(-391.131 -270.111)" fill="#fff"/>
            <path id="Trazado_97598" data-name="Trazado 97598" d="M407.655,298.541l-.2,2.324a18.578,18.578,0,0,1-19.469-1.681l.2-2.316a9.771,9.771,0,1,1,19.47,1.672Z" transform="translate(-387.986 -276.51)" fill="#fff"/>
          </g>
        </g>
        <g id="Grupo_46912" data-name="Grupo 46912" transform="translate(186.848 0)">
          <circle id="Elipse_3885" data-name="Elipse 3885" cx="20.412" cy="20.412" r="20.412" transform="translate(0 15.999) rotate(-23.073)" fill="#ebebeb"/>
          <g id="xsrjP0" transform="translate(13.745 13.058)">
            <g id="Grupo_46911" data-name="Grupo 46911">
              <path id="Trazado_97599" data-name="Trazado 97599" d="M386.419,78.845c-.54-.339-1.01-.832-1.733-.763-.278.028-.216-.2-.218-.353q-.006-4.08-.006-8.156c0-.2.012-.36.228-.469,2.076-1.047,2.977-3.107,4.249-4.868a8.125,8.125,0,0,0,1.506-6.169c-.087-.612.2-.886.75-1.011a1.363,1.363,0,0,1,1.552.488,10.952,10.952,0,0,1,1.186,3.563,12.769,12.769,0,0,1-.378,3.055c-.095.747-.269,1.484-.41,2.241.182.132.394.063.589.066q3.445.006,6.891,0c.968,0,1.441.278,1.576.92a1.841,1.841,0,0,1-1,1.991c-.171.087-.482.008-.5.278s.3.245.458.356c.831.57.677,1.747-.285,2.427-.231.162-.68.087-.692.427-.005.27.415.267.605.458a1.555,1.555,0,0,1-.665,2.4,3.062,3.062,0,0,0-.4.156c-.114.077-.226.162,0,.319a1.354,1.354,0,0,1-.028,2.422l-.3.215a1.942,1.942,0,0,1-1.209.265q-5.4.011-10.805,0A1.281,1.281,0,0,1,386.419,78.845Z" transform="translate(-376.167 -57.004)" fill="#fff" fill-rule="evenodd"/>
              <path id="Trazado_97600" data-name="Trazado 97600" d="M371.531,80.405c0-1.727.008-3.456-.006-5.182,0-.352.033-.524.464-.519q3.162.038,6.32,0c.413,0,.478.138.475.505q-.017,5.215,0,10.429c0,.442-.118.567-.562.56-2.043-.023-4.087-.028-6.129,0-.509.008-.579-.171-.574-.615C371.547,83.861,371.531,82.134,371.531,80.405Z" transform="translate(-371.521 -63.359)" fill="#fff" fill-rule="evenodd"/>
            </g>
          </g>
        </g>
        <g id="Grupo_46913" data-name="Grupo 46913" transform="translate(12.588 190.623)">
          <path id="Trazado_97601" data-name="Trazado 97601" d="M100.719,372.947c1.055,6.842-2.808,14.063-2.808,14.063s-8.1,1.2-14.182-2.1c-5.072-2.755-6.964-8.262-4.362-11.587,3.73-4.769,10.755,2.627,10.755,2.627s-4.594-9.108,1.159-11.014C95.289,363.6,99.835,367.242,100.719,372.947Z" transform="translate(-78.203 -345.029)" fill="#ebebeb"/>
          <path id="Trazado_97602" data-name="Trazado 97602" d="M126.781,345.112c-3.063,4.072-8.852,5.747-8.852,5.747s-4.8-3.65-6.18-8.551c-1.154-4.089.774-7.915,3.863-8.252,4.429-.486,4.143,7.016,4.143,7.016s2.438-7.1,6.4-5.05C128.913,337.451,129.332,341.715,126.781,345.112Z" transform="translate(-90.126 -334.033)" fill="#ebebeb"/>
        </g>
      </g>
      <g id="Floor" transform="translate(46.985 290.47)">
        <path id="Trazado_97603" data-name="Trazado 97603" d="M46.985,432.981l32.531-.156,32.531-.057,65.062-.107,65.062.107,32.531.056,32.531.157-32.531.157-32.531.056-65.062.107-65.062-.107-32.531-.057Z" transform="translate(-46.985 -432.661)" fill="#263238"/>
      </g>
      <g id="Device" transform="translate(111.966 52.84)">
        <g id="Grupo_46938" data-name="Grupo 46938">
          <g id="Grupo_46937" data-name="Grupo 46937">
            <path id="Trazado_97604" data-name="Trazado 97604" d="M267.68,61.92H159.325a11.062,11.062,0,0,0-10.96,11.166v223.06a11.07,11.07,0,0,0,10.96,11.165H267.68a11.077,11.077,0,0,0,10.973-11.165V73.086A11.069,11.069,0,0,0,267.68,61.92ZM271.8,289.249c0,5.871-4.4,10.621-9.819,10.621H165.043c-5.435,0-9.832-4.75-9.832-10.621V81.54c0-11.96,4.4-12.544,9.832-12.544h19.415c1.128,0,2.051,1.282,2.051,2.871v.686c0,3.724,2.038,3.737,4.544,3.737h44.906c2.525,0,4.544-.013,4.544-3.737v-.686c0-1.59.91-2.871,2.058-2.871h19.421c5.422,0,9.819,1.59,9.819,12.544Z" transform="translate(-148.365 -61.92)" fill="#12263f"/>
            <path id="Trazado_97605" data-name="Trazado 97605" d="M252.266,76.235H240.017a.757.757,0,0,1-.757-.756h0a.757.757,0,0,1,.757-.757h12.249a.757.757,0,0,1,.757.757h0A.757.757,0,0,1,252.266,76.235Z" transform="translate(-181 -66.516)" fill="#fff"/>
            <line id="Línea_1518" data-name="Línea 1518" x1="0.365" transform="translate(6.48 214.164)" fill="none"/>
            <g id="Grupo_46936" data-name="Grupo 46936" transform="translate(6.842 7.076)">
              <path id="Trazado_97606" data-name="Trazado 97606" d="M275.636,85.5V293.213c0,5.871-4.4,10.621-9.819,10.621H168.877c-5.435,0-9.832-4.75-9.832-10.621V85.5c0-11.96,4.4-12.544,9.832-12.544h19.415c1.128,0,2.051,1.282,2.051,2.872v.686c0,3.724,2.038,3.737,4.544,3.737h44.906c2.525,0,4.544-.013,4.544-3.737v-.686c0-1.59.91-2.872,2.057-2.872h19.421C271.239,72.96,275.636,74.55,275.636,85.5Z" transform="translate(-159.042 -72.96)" fill="#fff"/>
              <path id="Trazado_97607" data-name="Trazado 97607" d="M275.631,85.5V101H159.04V85.5c0-11.96,4.4-12.544,9.832-12.544h19.421c1.128,0,2.051,1.282,2.051,2.872v.686c0,3.724,2.038,3.737,4.538,3.737h44.906c2.525,0,4.551-.013,4.551-3.737v-.686c0-1.59.91-2.872,2.057-2.872h19.415C271.234,72.96,275.631,74.55,275.631,85.5Z" transform="translate(-159.04 -72.96)" fill="#7d6eb2"/>
              <g id="Grupo_46915" data-name="Grupo 46915" transform="translate(7.605 13.796)">
                <path id="Trazado_97608" data-name="Trazado 97608" d="M174.349,101.289,170.9,98.062l3.445-3.227.535.569-2.837,2.658,2.837,2.658Z" transform="translate(-170.905 -94.61)" fill="#fff"/>
                <path id="Trazado_97609" data-name="Trazado 97609" d="M321.793,101.388h-2.3v-.8a.193.193,0,0,0-.108-.171,2.854,2.854,0,0,1-.258-.149.2.2,0,0,0-.2-.009l-.694.4-1.152-2,.693-.4a.192.192,0,0,0,.092-.181c0-.048,0-.1,0-.147s0-.1,0-.147a.2.2,0,0,0-.093-.181l-.693-.4,1.152-2,.692.4a.194.194,0,0,0,.2-.008,2.571,2.571,0,0,1,.258-.149.194.194,0,0,0,.108-.171v-.8h2.3v.8a.194.194,0,0,0,.108.171,2.647,2.647,0,0,1,.259.149.193.193,0,0,0,.2.008l.692-.4,1.152,2-.694.4a.192.192,0,0,0-.092.181c0,.05,0,.1,0,.147s0,.1,0,.144a.191.191,0,0,0,.09.182l.695.4-1.151,2-.694-.4a.2.2,0,0,0-.2.009,2.766,2.766,0,0,1-.258.149.193.193,0,0,0-.108.171Zm-1.824-.481h1.343v-.318a.672.672,0,0,1,.371-.6,2.377,2.377,0,0,0,.213-.124.67.67,0,0,1,.706-.022l.277.159.672-1.163-.279-.161a.668.668,0,0,1-.33-.622l0-.121,0-.124a.668.668,0,0,1,.333-.62l.277-.16-.671-1.163-.276.159a.672.672,0,0,1-.706-.022,2.2,2.2,0,0,0-.213-.123.671.671,0,0,1-.372-.6v-.318h-1.343v.318a.672.672,0,0,1-.371.6,2.039,2.039,0,0,0-.213.123.674.674,0,0,1-.706.022l-.276-.159-.671,1.163.276.16a.675.675,0,0,1,.333.622c0,.042,0,.082,0,.122s0,.081,0,.122a.674.674,0,0,1-.331.623l-.276.16L318.4,100l.277-.159a.669.669,0,0,1,.706.023,2.173,2.173,0,0,0,.213.122.674.674,0,0,1,.37.6Zm.671-1.238a1.734,1.734,0,1,1,1.735-1.733A1.735,1.735,0,0,1,320.64,99.669Zm0-2.988a1.253,1.253,0,1,0,1.254,1.254A1.255,1.255,0,0,0,320.64,96.682Z" transform="translate(-223.385 -94.484)" fill="#fff"/>
              </g>
              <g id="Grupo_46919" data-name="Grupo 46919" transform="translate(7.605 3.792)">
                <g id="u5Zjqx" transform="translate(14.092)">
                  <g id="Grupo_46916" data-name="Grupo 46916">
                    <path id="Trazado_97610" data-name="Trazado 97610" d="M197.094,79.749l-.188.187-.106.107a2.553,2.553,0,0,0-3.618,0c-.033-.035-.067-.071-.1-.106l-.185-.187-.005,0v0l.013-.011c.079-.07.156-.143.237-.21a2.933,2.933,0,0,1,1.276-.594c.12-.022.242-.033.363-.048.041-.005.31-.006.318-.005.083.006.165.01.247.019a2.8,2.8,0,0,1,.667.159,2.921,2.921,0,0,1,.451.212,2.822,2.822,0,0,1,.431.3c.067.058.132.119.2.178Z" transform="translate(-192.891 -78.876)" fill="#fff"/>
                    <path id="Trazado_97611" data-name="Trazado 97611" d="M194.109,81.1l-.3-.294a2.091,2.091,0,0,1,1.206-.606,2.115,2.115,0,0,1,1.815.6l-.3.3a1.715,1.715,0,0,0-2.426,0Z" transform="translate(-193.222 -79.343)" fill="#fff"/>
                    <path id="Trazado_97612" data-name="Trazado 97612" d="M196.572,81.863l-.295.295a.877.877,0,0,0-1.243,0l-.295-.294A1.288,1.288,0,0,1,196.572,81.863Z" transform="translate(-193.555 -79.811)" fill="#fff"/>
                  </g>
                  <path id="Trazado_97613" data-name="Trazado 97613" d="M196.286,82.806a.266.266,0,1,1-.266-.267A.266.266,0,0,1,196.286,82.806Z" transform="translate(-193.919 -80.191)" fill="#fff"/>
                </g>
                <g id="Grupo_46917" data-name="Grupo 46917" transform="translate(0 0.668)">
                  <path id="Trazado_97614" data-name="Trazado 97614" d="M170.905,80.69a.773.773,0,1,1,.772.772A.772.772,0,0,1,170.905,80.69Z" transform="translate(-170.905 -79.918)" fill="#fff"/>
                  <path id="Trazado_97615" data-name="Trazado 97615" d="M174.7,80.69a.773.773,0,1,1,.772.772A.772.772,0,0,1,174.7,80.69Z" transform="translate(-172.268 -79.918)" fill="#fff"/>
                  <path id="Trazado_97616" data-name="Trazado 97616" d="M178.5,80.69a.773.773,0,1,1,.772.772A.772.772,0,0,1,178.5,80.69Z" transform="translate(-173.632 -79.918)" fill="#fff"/>
                  <path id="Trazado_97617" data-name="Trazado 97617" d="M182.3,80.69a.773.773,0,1,1,.772.772A.772.772,0,0,1,182.3,80.69Z" transform="translate(-174.995 -79.918)" fill="#fff"/>
                  <path id="Trazado_97618" data-name="Trazado 97618" d="M186.093,80.69a.773.773,0,1,1,.772.772A.772.772,0,0,1,186.093,80.69Z" transform="translate(-176.358 -79.918)" fill="#fff"/>
                </g>
                <g id="Grupo_46918" data-name="Grupo 46918" transform="translate(93.951 0.213)">
                  <path id="Trazado_97619" data-name="Trazado 97619" d="M323.774,82.122h-6.29V79.208h6.29Zm-5.97-.32h5.649V79.528H317.8Z" transform="translate(-317.484 -79.208)" fill="#fff"/>
                  <rect id="Rectángulo_28296" data-name="Rectángulo 28296" width="4.055" height="1.924" transform="translate(0.522 0.495)" fill="#fff"/>
                  <rect id="Rectángulo_28297" data-name="Rectángulo 28297" width="0.559" height="1.559" transform="translate(6.294 0.678)" fill="#fff"/>
                </g>
              </g>
              <path id="Trazado_97620" data-name="Trazado 97620" d="M182.192,411.029H181.3V415.1h-1.656v-2.074h-2.933V415.1H175.06v-4.071h-.887l4.009-4.143Z" transform="translate(-164.473 -192.853)" fill="#ebebeb"/>
              <g id="Grupo_46920" data-name="Grupo 46920" transform="translate(97.24 214.033)">
                <rect id="Rectángulo_28298" data-name="Rectángulo 28298" width="9.664" height="1.381" fill="#ebebeb"/>
                <rect id="Rectángulo_28299" data-name="Rectángulo 28299" width="9.664" height="1.381" transform="translate(0 3.417)" fill="#ebebeb"/>
                <rect id="Rectángulo_28300" data-name="Rectángulo 28300" width="9.664" height="1.381" transform="translate(0 6.833)" fill="#ebebeb"/>
              </g>
              <g id="Grupo_46925" data-name="Grupo 46925" transform="translate(7.605 36.394)">
                <g id="Grupo_46923" data-name="Grupo 46923">
                  <g id="Grupo_46922" data-name="Grupo 46922">
                    <path id="Trazado_97621" data-name="Trazado 97621" d="M180.83,141.779a6.4,6.4,0,0,1-1.876.785,6.5,6.5,0,1,1,1.876-.785Z" transform="translate(-170.905 -129.74)" fill="#dbdbdb"/>
                    <g id="Grupo_46921" data-name="Grupo 46921" transform="translate(3.084 3.783)">
                      <path id="Trazado_97622" data-name="Trazado 97622" d="M181.924,137.622a1.979,1.979,0,1,1-1.979-1.979A1.979,1.979,0,0,1,181.924,137.622Z" transform="translate(-176.524 -135.643)" fill="#fff"/>
                      <path id="Trazado_97623" data-name="Trazado 97623" d="M182.558,145.333v.817a6.4,6.4,0,0,1-1.876.785,6.468,6.468,0,0,1-4.965-.788v-.814a3.42,3.42,0,0,1,6.841,0Z" transform="translate(-175.717 -137.894)" fill="#fff"/>
                    </g>
                  </g>
                </g>
                <g id="Grupo_46924" data-name="Grupo 46924" transform="translate(21.166 0.374)">
                  <rect id="Rectángulo_28301" data-name="Rectángulo 28301" width="41.35" height="3.41" fill="#ebebeb"/>
                  <rect id="Rectángulo_28302" data-name="Rectángulo 28302" width="36.093" height="2.259" transform="translate(0 5.685)" fill="#ebebeb"/>
                  <rect id="Rectángulo_28303" data-name="Rectángulo 28303" width="59.681" height="2.259" transform="translate(0 10.033)" fill="#ebebeb"/>
                </g>
              </g>
              <g id="Grupo_46926" data-name="Grupo 46926" transform="translate(0.003 54.793)">
                <rect id="Rectángulo_28304" data-name="Rectángulo 28304" width="116.571" height="81.633" transform="translate(116.571 81.633) rotate(180)" fill="#ebebeb"/>
                <path id="Trazado_97624" data-name="Trazado 97624" d="M180.3,189.241a9.657,9.657,0,1,0,9.657-9.658A9.657,9.657,0,0,0,180.3,189.241Z" transform="translate(-166.676 -166.035)" fill="#dbdbdb"/>
                <path id="Trazado_97625" data-name="Trazado 97625" d="M239.8,233.489h64.826l-32.413-43.935Z" transform="translate(-188.04 -169.616)" fill="#c7c7c7"/>
                <path id="Trazado_97626" data-name="Trazado 97626" d="M200.156,242.4h53.521l-26.76-28.61Z" transform="translate(-173.805 -178.318)" fill="#dbdbdb"/>
                <rect id="Rectángulo_28305" data-name="Rectángulo 28305" width="116.571" height="17.588" transform="translate(0 64.045)" fill="#dbdbdb"/>
              </g>
              <g id="Grupo_46931" data-name="Grupo 46931" transform="translate(7.605 167.433)">
                <g id="Grupo_46929" data-name="Grupo 46929">
                  <g id="Grupo_46928" data-name="Grupo 46928">
                    <path id="Trazado_97627" data-name="Trazado 97627" d="M180.83,346.221a6.4,6.4,0,0,1-1.876.785,6.5,6.5,0,1,1,1.876-.785Z" transform="translate(-170.905 -334.182)" fill="#dbdbdb"/>
                    <g id="Grupo_46927" data-name="Grupo 46927" transform="translate(3.084 3.784)">
                      <path id="Trazado_97628" data-name="Trazado 97628" d="M181.924,342.064a1.979,1.979,0,1,1-1.979-1.979A1.979,1.979,0,0,1,181.924,342.064Z" transform="translate(-176.524 -340.085)" fill="#fff"/>
                      <path id="Trazado_97629" data-name="Trazado 97629" d="M182.558,349.775v.817a6.4,6.4,0,0,1-1.876.785,6.466,6.466,0,0,1-4.965-.788v-.813a3.42,3.42,0,0,1,6.841,0Z" transform="translate(-175.717 -342.336)" fill="#fff"/>
                    </g>
                  </g>
                </g>
                <g id="Grupo_46930" data-name="Grupo 46930" transform="translate(21.166 0.374)">
                  <rect id="Rectángulo_28306" data-name="Rectángulo 28306" width="53.18" height="3.41" fill="#ebebeb"/>
                  <rect id="Rectángulo_28307" data-name="Rectángulo 28307" width="67.887" height="2.259" transform="translate(0 5.685)" fill="#ebebeb"/>
                  <rect id="Rectángulo_28308" data-name="Rectángulo 28308" width="23.126" height="2.259" transform="translate(0 10.034)" fill="#ebebeb"/>
                </g>
              </g>
              <g id="Grupo_46932" data-name="Grupo 46932" transform="translate(0.003 185.833)">
                <rect id="Rectángulo_28309" data-name="Rectángulo 28309" width="116.571" height="19.94" fill="#ebebeb"/>
                <path id="Trazado_97630" data-name="Trazado 97630" d="M199.363,390.42H181.185a9.659,9.659,0,0,1,18.178,0Z" transform="translate(-166.994 -370.48)" fill="#dbdbdb"/>
              </g>
              <g id="Grupo_46934" data-name="Grupo 46934" transform="translate(7.725 141.219)">
                <circle id="Elipse_3887" data-name="Elipse 3887" cx="3.859" cy="3.859" r="3.859" fill="#ebebeb"/>
                <g id="xsrjP0-2" data-name="xsrjP0" transform="translate(1.394 1.265)">
                  <g id="Grupo_46933" data-name="Grupo 46933">
                    <path id="Trazado_97631" data-name="Trazado 97631" d="M176.085,299.387c-.1-.064-.191-.158-.328-.144-.053.005-.041-.038-.041-.067,0-.515,0-1.028,0-1.542,0-.037,0-.068.043-.088.392-.2.563-.588.8-.92a1.537,1.537,0,0,0,.285-1.167c-.017-.115.037-.167.142-.191a.258.258,0,0,1,.293.092,2.073,2.073,0,0,1,.224.674,2.429,2.429,0,0,1-.072.578c-.017.141-.051.281-.078.424.035.025.075.012.112.012.435,0,.868,0,1.3,0,.183,0,.272.053.3.174a.347.347,0,0,1-.189.376c-.032.016-.091,0-.095.053s.056.046.087.067c.157.108.128.33-.054.459-.044.031-.129.016-.131.081s.078.05.114.087a.294.294,0,0,1-.126.454.558.558,0,0,0-.076.029c-.021.015-.042.031,0,.06a.256.256,0,0,1-.005.458l-.057.041a.372.372,0,0,1-.229.05q-1.021,0-2.042,0A.244.244,0,0,1,176.085,299.387Z" transform="translate(-174.147 -295.258)" fill="#fff" fill-rule="evenodd"/>
                    <path id="Trazado_97632" data-name="Trazado 97632" d="M173.27,299.681c0-.326,0-.653,0-.979,0-.067.006-.1.087-.1q.6.007,1.195,0c.078,0,.09.026.09.1q0,.986,0,1.972c0,.084-.022.108-.106.106-.386,0-.772-.005-1.158,0-.1,0-.11-.033-.109-.117C173.273,300.335,173.27,300.008,173.27,299.681Z" transform="translate(-173.268 -296.459)" fill="#fff" fill-rule="evenodd"/>
                  </g>
                </g>
              </g>
              <g id="Grupo_46935" data-name="Grupo 46935" transform="translate(15.829 141.218)">
                <path id="Trazado_97633" data-name="Trazado 97633" d="M183.847,298.058a3.859,3.859,0,1,1,4.664,2.833A3.859,3.859,0,0,1,183.847,298.058Z" transform="translate(-183.736 -293.283)" fill="#ffc727"/>
                <path id="Trazado_97634" data-name="Trazado 97634" d="M190.493,298.762a4.945,4.945,0,0,1-1.97,1.873,4.937,4.937,0,0,1-1.968-1.873,1.559,1.559,0,0,1,.588-2.272c1.1-.333,1.38,1.581,1.38,1.581s.282-1.913,1.382-1.581A1.56,1.56,0,0,1,190.493,298.762Z" transform="translate(-184.664 -294.42)" fill="#fff"/>
              </g>
              <rect id="Rectángulo_28310" data-name="Rectángulo 28310" width="54.767" height="2.229" transform="translate(29.411 144.573)" fill="#ebebeb"/>
              <path id="Trazado_97635" data-name="Trazado 97635" d="M159.045,319.137l14.571-.117,14.571-.042,29.143-.081,29.143.08,14.571.042,14.571.118-14.571.118-14.571.042-29.143.08-29.143-.081-14.571-.042Z" transform="translate(-159.042 -161.262)" fill="#ebebeb"/>
            </g>
          </g>
        </g>
      </g>
      <g id="Icons" transform="translate(56.783 77.015)">
        <g id="Grupo_46939" data-name="Grupo 46939" transform="translate(0 100.48)">
          <rect id="Rectángulo_28311" data-name="Rectángulo 28311" width="40.699" height="40.699" transform="translate(0 10.485) rotate(-14.929)" fill="#12263f"/>
          <path id="Trazado_97636" data-name="Trazado 97636" d="M93.306,291.055l-5.273,1.406c-.549-2.061-1.067-4-1.615-6.055l5.172-1.379c-.1-.466-.169-.831-.256-1.192-.388-1.6-.878-3.181-1.151-4.8a6.886,6.886,0,0,1,4.188-7.974,50.718,50.718,0,0,1,6.586-1.815c.5,1.878.958,3.593,1.469,5.51-.8.213-1.6.409-2.387.642a11.456,11.456,0,0,0-2.084.707,2.048,2.048,0,0,0-1.17,2.363c.351,1.563.81,3.1,1.257,4.778l6.013-1.6c.274,2.048.549,3.946.751,5.851.02.185-.378.531-.639.609-1.44.426-2.9.792-4.47,1.212l4.142,15.534-6.4,1.707C96.069,301.419,94.7,296.3,93.306,291.055Z" transform="translate(-70.942 -261.013)" fill="#fff"/>
        </g>
        <g id="Grupo_46941" data-name="Grupo 46941" transform="translate(188.933 142.994)">
          <rect id="Rectángulo_28312" data-name="Rectángulo 28312" width="40.811" height="40.811" transform="translate(4.023 0) rotate(5.657)" fill="#12263f"/>
          <g id="Grupo_46940" data-name="Grupo 46940" transform="translate(6.531 6.467)">
            <path id="Trazado_97637" data-name="Trazado 97637" d="M398.769,341.9c.385-4.068-1.893-6.948-5.92-7.386q-8.355-.911-16.73-1.657a6.3,6.3,0,0,0-7.211,5.94c-.314,2.779-.558,5.568-.834,8.35-.27,2.723-.558,5.448-.806,8.174-.377,4.159,1.895,7.068,6.005,7.517q8.266.909,16.552,1.64a6.354,6.354,0,0,0,7.3-6.058Q397.994,350.163,398.769,341.9ZM394.46,358.2c-.283,2.567-1.808,3.852-4.383,3.615q-8.279-.767-16.548-1.639c-2.582-.271-3.84-1.828-3.6-4.389q.79-8.351,1.654-16.7c.263-2.548,1.834-3.871,4.381-3.636q8.28.762,16.548,1.639c2.551.27,3.825,1.868,3.6,4.413-.244,2.786-.544,5.566-.82,8.349S394.767,355.422,394.46,358.2Z" transform="translate(-367.227 -332.82)" fill="#fff"/>
            <path id="Trazado_97638" data-name="Trazado 97638" d="M388.279,345.295a7.846,7.846,0,1,0,6.973,8.691A7.834,7.834,0,0,0,388.279,345.295Zm-1.386,13a5.3,5.3,0,0,1-4.609-5.646,5.23,5.23,0,0,1,10.409,1.027A5.3,5.3,0,0,1,386.893,358.291Z" transform="translate(-371.698 -337.285)" fill="#fff"/>
            <path id="Trazado_97639" data-name="Trazado 97639" d="M406.928,345.384a1.626,1.626,0,0,1-2.022,1.43A1.643,1.643,0,0,1,403.4,344.7a1.736,1.736,0,0,1,2.048-1.473A1.758,1.758,0,0,1,406.928,345.384Z" transform="translate(-380.199 -336.555)" fill="#fff"/>
          </g>
        </g>
        <g id="Grupo_46942" data-name="Grupo 46942" transform="translate(189.385 48.133)">
          <rect id="Rectángulo_28313" data-name="Rectángulo 28313" width="30.351" height="30.35" transform="translate(10.175 0) rotate(19.587)" fill="#26aab7"/>
          <path id="Trazado_97640" data-name="Trazado 97640" d="M367.065,201.756a10.445,10.445,0,0,0,7.051.3c-2.345-1.733-3.107-2.909-2.957-4.539l1.794.541a5.142,5.142,0,0,1-1.863-5.7l1.643,1.126c-1.051-3.071-.776-5.066.978-6.395a13.915,13.915,0,0,0,7.662,7.979c.088-.3.151-.533.222-.759a4.549,4.549,0,0,1,4.031-3.423,4.6,4.6,0,0,1,4.739,2.36.967.967,0,0,0,.927.561c.8-.014,1.6-.017,2.488-.025a4.8,4.8,0,0,1-2.52,1.6l0,.145,2.379.216c.019.039.037.079.056.117-.765.367-1.516.768-2.3,1.086a1.236,1.236,0,0,0-.82.8,13.535,13.535,0,0,1-16.155,8.652,13.739,13.739,0,0,1-7.019-4.238C367.287,202.04,367.178,201.9,367.065,201.756Z" transform="translate(-361.09 -179.171)" fill="#fff"/>
        </g>
        <g id="Grupo_46944" data-name="Grupo 46944" transform="translate(189.043 0)">
          <rect id="Rectángulo_28314" data-name="Rectángulo 28314" width="26.374" height="26.374" transform="matrix(0.949, -0.316, 0.316, 0.949, 0, 8.343)" fill="#ffc727"/>
          <g id="Grupo_46943" data-name="Grupo 46943" transform="translate(6.955 6.879)">
            <path id="Trazado_97641" data-name="Trazado 97641" d="M371.547,132.538c-.081-1.571-.171-3.025-.219-4.482a1.559,1.559,0,0,0-.506-1.147,9.758,9.758,0,1,1,16.337-9.7,9.837,9.837,0,0,1-5.788,11.837,10.464,10.464,0,0,1-4.878.663,1.543,1.543,0,0,0-.9.226C374.268,130.756,372.969,131.616,371.547,132.538Zm1.517-2.925c.836-.541,1.533-1.024,2.264-1.448a1.389,1.389,0,0,1,.851-.167,8.678,8.678,0,0,0,4.054-.272,8.119,8.119,0,0,0,4.7-11.549,7.608,7.608,0,0,0-7.8-4.114,8.121,8.121,0,0,0-4.641,14.178,1.506,1.506,0,0,1,.418.866C373,127.9,373.013,128.7,373.064,129.613Z" transform="translate(-368.06 -110.369)" fill="#fff"/>
            <path id="Trazado_97642" data-name="Trazado 97642" d="M374.887,121.328c.347-1.056,1.246-1.17,2-.382.294.308.376.418.685.779a1.191,1.191,0,0,1,.23,1.545c-.231.406-.114.656.229.92a6.842,6.842,0,0,0,3.6,1.434.651.651,0,0,0,.787-.472c.488-1.242.5-1.235,1.831-1.077l.458.056a1.133,1.133,0,0,1,.935,1.815,2.723,2.723,0,0,1-2.379,1.493,9.935,9.935,0,0,1-7.041-2.4,3.756,3.756,0,0,1-1.4-1.858A3.279,3.279,0,0,1,374.887,121.328Z" transform="translate(-370.45 -113.982)" fill="#fff"/>
          </g>
        </g>
      </g>
      <g id="Character" transform="translate(54.468 59.916)">
        <g id="Grupo_46999" data-name="Grupo 46999">
          <g id="Grupo_46998" data-name="Grupo 46998" clip-path="url(#clip-path)">
            <g id="Grupo_46997" data-name="Grupo 46997" transform="translate(-0.001 15.359)">
              <g id="Grupo_46996" data-name="Grupo 46996" transform="translate(0 0)">
                <g id="Grupo_46960" data-name="Grupo 46960" transform="translate(60.479 117.888)">
                  <g id="Grupo_46952" data-name="Grupo 46952">
                    <g id="Grupo_46948" data-name="Grupo 46948" transform="translate(0 183.468)">
                      <path id="Trazado_97643" data-name="Trazado 97643" d="M154.019,631.376c2.234.721,65.925-.1,68.327-1.677.924-.582,1.345-9.87,1.531-21.105,0-.117,0-.235,0-.352.044-2.316.074-4.7.077-7.117,0-.333,0-.665.012-1l-3.091-33.041-42.605.427,4.2,32.731.049,1.3.257,6.776.025.7s-24.237,11.221-26.7,13.229C153.667,624.24,151.784,630.665,154.019,631.376Z" transform="translate(-153.018 -567.086)" fill="#ad6359"/>
                      <path id="Trazado_97644" data-name="Trazado 97644" d="M154.019,649.885c2.234.721,65.925-.1,68.327-1.677.924-.582,1.345-9.87,1.531-21.106,0-.117,0-.235,0-.352.044-2.316.074-4.7.077-7.117,0-.333,0-.665.012-1l-41.491.116.049,1.3.257,6.776.025.7s-24.237,11.221-26.7,13.229C153.667,642.749,151.784,649.174,154.019,649.885Z" transform="translate(-153.018 -585.595)" fill="#ebebeb"/>
                      <g id="Grupo_46947" data-name="Grupo 46947" transform="translate(0 41.053)">
                        <path id="Trazado_97645" data-name="Trazado 97645" d="M154.011,654.421c1.15.37,18.453.331,35.367-.01,3.4-.068,6.781-.146,10.006-.233,12.062-.331,22.029-.828,22.955-1.433.916-.575,1.334-9.607,1.52-20.636,0-.156.01-.311.01-.467,0-.117,0-.244.01-.361h-.048l-41.048.078.02.7s-24.24,11.214-26.7,13.221S151.78,653.71,154.011,654.421Z" transform="translate(-153.016 -631.187)" fill="#a6a6a6"/>
                        <g id="Grupo_46946" data-name="Grupo 46946" transform="translate(1.521)">
                          <g id="Grupo_46945" data-name="Grupo 46945">
                            <path id="Trazado_97646" data-name="Trazado 97646" d="M155.558,663.109c10.733-.4,54.06-1.015,64.7-.6.087,0,.087.062,0,.067-10.629.632-53.96.892-64.7.706C155.333,663.281,155.331,663.117,155.558,663.109Z" transform="translate(-155.389 -642.35)" fill="#263238"/>
                            <path id="Trazado_97647" data-name="Trazado 97647" d="M192.2,631.488c4.214-.844,9.39-.262,12.657,2.707.127.115-.038.293-.176.251a59.433,59.433,0,0,0-12.457-2.425A.27.27,0,0,1,192.2,631.488Z" transform="translate(-168.528 -631.135)" fill="#263238"/>
                            <path id="Trazado_97648" data-name="Trazado 97648" d="M187.48,634.417c4.215-.843,9.39-.261,12.658,2.706.127.115-.039.293-.176.252A59.447,59.447,0,0,0,187.5,634.95.27.27,0,0,1,187.48,634.417Z" transform="translate(-166.833 -632.187)" fill="#263238"/>
                            <path id="Trazado_97649" data-name="Trazado 97649" d="M182.759,637.346c4.215-.844,9.391-.262,12.658,2.707.127.115-.038.293-.176.251a59.429,59.429,0,0,0-12.457-2.425A.27.27,0,0,1,182.759,637.346Z" transform="translate(-165.138 -633.238)" fill="#263238"/>
                          </g>
                        </g>
                        <path id="Trazado_97650" data-name="Trazado 97650" d="M209.747,654.411c3.4-.068,6.781-.146,10.006-.233,12.062-.331,22.029-.828,22.955-1.433.916-.575,1.334-9.607,1.52-20.636,0-.156.01-.311.01-.467,0-.117,0-.244.01-.361H244.2C238.577,635.228,218.76,648.419,209.747,654.411Z" transform="translate(-173.385 -631.187)" fill="#263238"/>
                      </g>
                    </g>
                    <g id="Grupo_46951" data-name="Grupo 46951" transform="translate(21.186)">
                      <path id="Trazado_97651" data-name="Trazado 97651" d="M191.854,505.685h45.87s-9.236-107.133-8.876-109c.458-2.4,3.167-13.241,6.772-27.407,1.13-4.434,2.348-9.187,3.614-14.118,3.42-13.328,7.19-27.894,10.474-40.57,4.93-18.989,8.779-33.74,8.779-33.74H219.611s-4.53,14.361-10.239,33.048c-9.3,30.369-21.737,72.166-22.964,82.328C184.42,412.63,191.854,505.685,191.854,505.685Z" transform="translate(-186.07 -280.847)" fill="#26aab7"/>
                      <g id="Grupo_46950" data-name="Grupo 46950" transform="translate(7.717 9.737)">
                        <g id="Grupo_46949" data-name="Grupo 46949" transform="translate(0 206.942)">
                          <path id="Trazado_97652" data-name="Trazado 97652" d="M198.209,619.234c7-.146,4.992-.2,12-.271,3.428-.033,25.959-.229,29.162.3a.075.075,0,0,1,0,.143c-3.2.53-25.734.334-29.162.3-7.007-.068-4.994-.125-12-.271A.1.1,0,0,1,198.209,619.234Z" transform="translate(-198.11 -618.901)" fill="#263238"/>
                        </g>
                        <path id="Trazado_97653" data-name="Trazado 97653" d="M238.72,395.587c1.5-6.631,3.751-13.129,5.708-19.637q5.963-19.836,12-39.652,3.011-9.91,6.051-19.811,1.538-5,3.093-9.992c1.021-3.255,2.182-6.483,3.1-9.768.374-1.336.579-.6.1,1.095-.967,3.421-1.922,6.846-2.92,10.259q-2.963,10.138-5.965,20.265-5.965,20.158-12.033,40.285-3.028,10.1-6.072,20.186a82.692,82.692,0,0,0-2.479,9.764,44.965,44.965,0,0,0-.405,10.446c.44,7.018,1.253,14.025,1.9,21.027l1.948,21.049q1.938,20.944,3.843,41.892c.159,1.77.314,3.54.451,5.312.045.593-.851.548-.913-.022-1.511-13.807-2.669-27.659-3.966-41.487q-1.935-20.64-3.866-41.281c-.322-3.454-.69-6.915-.693-10.389A42.853,42.853,0,0,1,238.72,395.587Z" transform="translate(-212.29 -296.038)" fill="#263238"/>
                      </g>
                    </g>
                    <path id="Trazado_97654" data-name="Trazado 97654" d="M245.286,280.847c2.7,20.879,7.843,60.027,11.594,88.427,8.768-34.412,22.867-88.427,22.867-88.427Z" transform="translate(-186.145 -280.847)" fill="#263238"/>
                  </g>
                  <g id="Grupo_46959" data-name="Grupo 46959" transform="translate(48.603)">
                    <g id="Grupo_46956" data-name="Grupo 46956" transform="translate(0 184.337)">
                      <path id="Trazado_97655" data-name="Trazado 97655" d="M229.834,632.477c2.232.73,65.925.136,68.333-1.429.926-.578,1.381-9.864,1.608-21.1q0-.176,0-.352c.052-2.315.09-4.7.1-7.117,0-.333,0-.665.015-1,.149-16.216-1.021-33.042-1.021-33.042l-41.632.271,1.163,32.735.044,1.3.233,6.776.022.7s-24.278,11.132-26.747,13.131C229.509,625.339,227.6,631.758,229.834,632.477Z" transform="translate(-228.844 -568.442)" fill="#ad6359"/>
                      <path id="Trazado_97656" data-name="Trazado 97656" d="M229.834,650.966c2.232.729,65.925.136,68.333-1.429.926-.578,1.381-9.864,1.608-21.1q0-.176,0-.352c.052-2.315.09-4.7.1-7.117,0-.333,0-.665.015-1l-41.491-.035.044,1.3.233,6.776.022.7s-24.278,11.132-26.747,13.131C229.509,643.828,227.6,650.247,229.834,650.966Z" transform="translate(-228.844 -586.931)" fill="#ebebeb"/>
                      <g id="Grupo_46955" data-name="Grupo 46955" transform="translate(0 40.899)">
                        <path id="Trazado_97657" data-name="Trazado 97657" d="M229.834,655.488c2.232.73,65.925.136,68.333-1.429.926-.578,1.381-9.864,1.608-21.1q0-.176,0-.352l-41.1-.076.022.7s-24.278,11.132-26.747,13.131C229.509,648.35,227.6,654.769,229.834,655.488Z" transform="translate(-228.844 -632.351)" fill="#a6a6a6"/>
                        <g id="Grupo_46954" data-name="Grupo 46954" transform="translate(1.519)">
                          <g id="Grupo_46953" data-name="Grupo 46953">
                            <path id="Trazado_97658" data-name="Trazado 97658" d="M231.383,664.173c10.734-.363,54.063-.817,64.7-.361.087,0,.087.062,0,.067-10.631.593-53.962.7-64.7.47C231.158,664.345,231.156,664.181,231.383,664.173Z" transform="translate(-231.214 -643.514)" fill="#263238"/>
                            <path id="Trazado_97659" data-name="Trazado 97659" d="M268.141,632.59c4.217-.827,9.391-.227,12.647,2.753.126.115-.04.293-.177.251a59.377,59.377,0,0,0-12.449-2.47A.27.27,0,0,1,268.141,632.59Z" transform="translate(-244.394 -632.251)" fill="#263238"/>
                            <path id="Trazado_97660" data-name="Trazado 97660" d="M263.41,635.5c4.217-.828,9.391-.228,12.647,2.752.126.116-.04.294-.177.251a59.442,59.442,0,0,0-12.449-2.47A.27.27,0,0,1,263.41,635.5Z" transform="translate(-242.695 -633.296)" fill="#263238"/>
                            <path id="Trazado_97661" data-name="Trazado 97661" d="M258.678,638.414c4.218-.828,9.391-.228,12.647,2.752.127.116-.039.293-.177.251a59.425,59.425,0,0,0-12.448-2.47A.27.27,0,0,1,258.678,638.414Z" transform="translate(-240.996 -634.342)" fill="#263238"/>
                          </g>
                        </g>
                      </g>
                    </g>
                    <g id="Grupo_46957" data-name="Grupo 46957" transform="translate(7.382)">
                      <path id="Trazado_97662" data-name="Trazado 97662" d="M240.361,280.847s.9,18.6,5.154,33.331c.341,1.218.711,2.416,1.111,3.566a69.112,69.112,0,0,1,11.2,5.758s.448,14.965.9,31.654c.5,18.658,1.013,39.469.906,43.883-.39,16.514,2.065,107.318,2.065,107.318l45.861.185s-8.291-101.4-8.233-107.455c.088-9.724-2.222-52.7-4-84.043-1.092-19.31-1.988-34.2-1.988-34.2Z" transform="translate(-240.361 -280.847)" fill="#26aab7"/>
                      <path id="Trazado_97663" data-name="Trazado 97663" d="M276.047,619.819c7.006-.116,4.994-.182,12-.219,3.429-.019,25.96-.119,29.161.426a.074.074,0,0,1,0,.142c-3.206.517-25.735.225-29.164.177-7.006-.1-4.994-.146-12-.321A.1.1,0,0,1,276.047,619.819Z" transform="translate(-253.138 -402.466)" fill="#26aab7"/>
                      <path id="Trazado_97664" data-name="Trazado 97664" d="M316.815,291.125c.844,25.586,1.739,51.174,2.883,76.749,1.148,25.663,2.7,51.316,4.842,76.915,1.2,14.3,2.331,34.42,3.874,48.689.01.1-.136.131-.149.033-3.339-25.38-5.2-56.763-6.843-82.3s-2.754-51.118-3.625-76.692c-.492-14.466-.869-28.938-1.3-43.406C316.49,290.9,316.809,290.92,316.815,291.125Z" transform="translate(-267.697 -284.479)" fill="#26aab7"/>
                    </g>
                    <g id="Grupo_46958" data-name="Grupo 46958" transform="translate(11.313 35.764)">
                      <path id="Trazado_97665" data-name="Trazado 97665" d="M246.922,336.669a85.155,85.155,0,0,1,13.111,6.867.152.152,0,0,1-.138.27c-4.425-2.15-8.941-4.22-13.242-6.61A.3.3,0,0,1,246.922,336.669Z" transform="translate(-246.495 -336.644)" fill="#263238"/>
                    </g>
                    <path id="Trazado_97666" data-name="Trazado 97666" d="M242.765,304.539c.365,1.966.842,3.912,1.267,5.867.4,1.834.692,3.7,1.176,5.517a9.39,9.39,0,0,0,2.57,4.624c.72.669,1.512,1.26,2.279,1.873.413.33.86.647,1.29.981-.056-.26-.1-.524-.148-.791q-.2-1.118-.382-2.238-.417-2.484-.8-4.975c-.5-3.262-.958-6.56-1.639-9.789a.105.105,0,0,1,.2-.051c.813,3.2,1.71,6.367,2.418,9.595.347,1.583,1.586,9.4,1.641,9.952.056.571.1,1.144.124,1.718a6.817,6.817,0,0,1,0,1.755c-.033.142-.206.119-.266.023l-.008.006a6.9,6.9,0,0,1-.5-1.7c-.144-.558-.27-1.124-.37-1.691-.037-.2-.065-.414-.094-.624-.77-.468-1.486-1.086-2.206-1.608-.776-.561-1.566-1.109-2.3-1.726a8.812,8.812,0,0,1-2.807-4.386,31.909,31.909,0,0,1-.92-5.617c-.249-2.221-.431-4.454-.74-6.667C242.543,304.459,242.74,304.406,242.765,304.539Z" transform="translate(-233.769 -289.326)" fill="#263238"/>
                  </g>
                </g>
                <g id="Grupo_46995" data-name="Grupo 46995">
                  <g id="Grupo_46974" data-name="Grupo 46974">
                    <g id="Grupo_46973" data-name="Grupo 46973">
                      <path id="Trazado_97667" data-name="Trazado 97667" d="M228.368,193.884c-2.628,20.946-7.22,56.077-14.646,58.919-1.286.492-6.756,1.577-10.494-2.632-6.3-7.1-17.2-31.01-20.244-38.7-1.35-3.411,20.888-14.542,22.792-11.113,2.667,4.8,5.467,12.031,6,11.79.886-.4,2.4-9.321,8.34-21.843C227.5,174.742,229.346,186.1,228.368,193.884Z" transform="translate(-103.275 -127.662)" fill="#ad6359"/>
                      <g id="Grupo_46971" data-name="Grupo 46971">
                        <path id="Trazado_97668" data-name="Trazado 97668" d="M172.8,202.149c2.19,4.7,10.43,12.569,13.147,13.7s16.557-12.431,16.2-15.432-8.95-18.264-13.694-20.613S170.531,197.276,172.8,202.149Z" transform="translate(-99.547 -126.612)" fill="#d08b73"/>
                        <g id="Grupo_46961" data-name="Grupo 46961" transform="translate(92.249 45.747)">
                          <path id="Trazado_97669" data-name="Trazado 97669" d="M211.931,193.5a43.012,43.012,0,0,1,1.144-12.458c1.346-4.814,3.889-11.81,1.327-12.631-5.259-1.685-11.594,15.764-11.594,15.764s-1.559,8.147,3.5,10.278A5.455,5.455,0,0,0,211.931,193.5Z" transform="translate(-202.583 -168.295)" fill="#d08b73"/>
                        </g>
                        <g id="Grupo_46968" data-name="Grupo 46968">
                          <g id="Grupo_46963" data-name="Grupo 46963" transform="translate(79.705 46.289)">
                            <g id="Grupo_46962" data-name="Grupo 46962" transform="translate(0 6.259)">
                              <path id="Trazado_97670" data-name="Trazado 97670" d="M190.819,202.875l-7.8-1.375L187,178.905l9.873,1.74Z" transform="translate(-183.014 -178.905)" fill="#ffc727"/>
                              <path id="Trazado_97671" data-name="Trazado 97671" d="M196.869,180.645l-2.306,8.48-3.748,13.752-7.8-1.375L187,178.9Z" transform="translate(-183.012 -178.905)" fill="#ffc727"/>
                              <path id="Trazado_97672" data-name="Trazado 97672" d="M198.249,180.645l-2.306,8.48-9.087-1.6,1.519-8.619Z" transform="translate(-184.392 -178.905)" opacity="0.1"/>
                            </g>
                            <rect id="Rectángulo_28315" data-name="Rectángulo 28315" width="12.474" height="9.475" transform="translate(3.55 0) rotate(9.996)" fill="#ffc727"/>
                          </g>
                          <g id="Grupo_46966" data-name="Grupo 46966" transform="translate(23.482)">
                            <g id="Grupo_46964" data-name="Grupo 46964" transform="translate(71.173 30.665)">
                              <path id="Trazado_97673" data-name="Trazado 97673" d="M216.046,160.594l-9.71-.728,2.662-15.1,9.374,2.635Z" transform="translate(-206.336 -144.765)" fill="#ffc727"/>
                            </g>
                            <path id="Trazado_97674" data-name="Trazado 97674" d="M170.089,124.745l-3.928,22.285-16.35-.9-39.642,7.134L119.6,99.743l34.813,20.263Z" transform="translate(-100.635 -97.935)" fill="#f5ca56"/>
                            <ellipse id="Elipse_3888" data-name="Elipse 3888" cx="27.306" cy="8.777" rx="27.306" ry="8.777" transform="matrix(0.174, -0.985, 0.985, 0.174, 0, 53.783)" fill="#ffc727"/>
                            <ellipse id="Elipse_3889" data-name="Elipse 3889" cx="24.241" cy="7.186" rx="24.241" ry="7.186" transform="matrix(0.174, -0.985, 0.985, 0.174, 1.733, 50.499)" opacity="0.2"/>
                            <path id="Trazado_97675" data-name="Trazado 97675" d="M119.733,137.779c-.31,1.756-.669,3.455-1.068,5.083a5.42,5.42,0,0,1-7.974-5.682l.445-2.524a5.417,5.417,0,0,1,9.4-2.649C120.351,133.868,120.082,135.8,119.733,137.779Z" transform="translate(-100.793 -108.86)" fill="#ffc727"/>
                            <g id="Grupo_46965" data-name="Grupo 46965" transform="translate(55.167 21.241)">
                              <path id="Trazado_97676" data-name="Trazado 97676" d="M200.142,160.672l-18.778-1.409,5.147-29.2,18.128,5.1Z" transform="translate(-181.364 -130.061)" fill="#ffc727"/>
                              <path id="Trazado_97677" data-name="Trazado 97677" d="M200.142,160.672l-18.778-1.409,5.147-29.2,18.128,5.1Z" transform="translate(-181.364 -130.061)" opacity="0.2"/>
                            </g>
                            <path id="Trazado_97678" data-name="Trazado 97678" d="M122.908,106.151a16.959,16.959,0,0,1,1.895,5.808,38.658,38.658,0,0,1,.482,6.125c.029,1.025-.036,2.049-.064,3.073-.085,1.02-.139,2.044-.249,3.063-.126,1.015-.215,2.037-.372,3.048s-.3,2.026-.479,3.034a67.315,67.315,0,0,1-3.184,11.853,35.011,35.011,0,0,1-2.666,5.538,14.542,14.542,0,0,1-4.07,4.546,15.018,15.018,0,0,0,3.823-4.692A34.963,34.963,0,0,0,120.514,142a71.338,71.338,0,0,0,3.03-11.8,73.2,73.2,0,0,0,1.292-12.115,38.86,38.86,0,0,0-.316-6.08A17.661,17.661,0,0,0,122.908,106.151Z" transform="translate(-102.083 -100.236)" opacity="0.2"/>
                          </g>
                          <g id="Grupo_46967" data-name="Grupo 46967" transform="translate(0 1.268)">
                            <path id="Trazado_97679" data-name="Trazado 97679" d="M97.327,98.9c1.113.879,2.178,1.81,3.236,2.748s2.091,1.9,3.119,2.871,2.034,1.962,3.016,2.979l1.472,1.528c.474.526.964,1.036,1.425,1.576-.561-.435-1.094-.9-1.642-1.349l-1.595-1.4c-1.063-.933-2.091-1.9-3.118-2.873s-2.033-1.962-3.015-2.98S98.258,99.972,97.327,98.9Z" transform="translate(-72.542 -98.901)" fill="#263238"/>
                            <path id="Trazado_97680" data-name="Trazado 97680" d="M99.077,163.421c-1.547.4-3.107.736-4.668,1.059s-3.128.61-4.7.891c-1.571.265-3.143.529-4.723.745l-2.37.32c-.794.083-1.584.189-2.382.254.772-.208,1.552-.375,2.328-.563l2.34-.5c1.559-.33,3.128-.611,4.7-.89s3.143-.529,4.723-.744S97.485,163.563,99.077,163.421Z" transform="translate(-66.407 -122.066)" fill="#263238"/>
                            <path id="Trazado_97681" data-name="Trazado 97681" d="M63.834,154.353c2.339-.185,4.68-.3,7.02-.4s4.682-.171,7.024-.231c2.341-.045,4.683-.088,7.027-.083l3.514.011c1.172.028,2.344.033,3.516.079-1.169.1-2.34.156-3.509.235l-3.511.168c-2.341.11-4.682.171-7.024.23-2.342.044-4.684.088-7.027.081S66.179,154.432,63.834,154.353Z" transform="translate(-60.517 -118.553)" fill="#263238"/>
                            <path id="Trazado_97682" data-name="Trazado 97682" d="M76.919,99.629c2,1.286,3.962,2.628,5.917,3.979s3.888,2.73,5.817,4.117,3.84,2.8,5.73,4.237l2.835,2.161c.931.739,1.875,1.461,2.795,2.216-1.005-.637-1.986-1.308-2.979-1.961L94.1,112.362c-1.959-1.345-3.889-2.731-5.817-4.118s-3.839-2.8-5.73-4.238S78.766,101.129,76.919,99.629Z" transform="translate(-65.215 -99.162)" fill="#263238"/>
                            <path id="Trazado_97683" data-name="Trazado 97683" d="M91.017,136.3c-2.721-.374-5.429-.818-8.134-1.272s-5.4-.961-8.1-1.439c-2.692-.529-5.389-1.031-8.076-1.584l-4.028-.844c-1.338-.3-2.681-.587-4.016-.911,1.361.181,2.716.4,4.074.6l4.06.668c2.706.454,5.4.961,8.1,1.44,2.691.531,5.389,1.03,8.075,1.586S88.344,135.66,91.017,136.3Z" transform="translate(-58.659 -110.155)" fill="#263238"/>
                          </g>
                        </g>
                        <g id="Grupo_46970" data-name="Grupo 46970" transform="translate(70.152 47.125)">
                          <path id="Trazado_97684" data-name="Trazado 97684" d="M193.437,181.593c-.3,2.732-3.347.819-3.347.819s3.727,3.813,2.332,6.512c-1.352,2.6-4.955.156-5.216-.016.2.2,3.528,3.8,1.847,6.365-1.75,2.667-4.946-.406-5.152-.605.124.25,1.711,3.584-.01,5.244-2.959,2.852-7.25-5.56-10.455-6.453,0,0-2.133,5.259-2.227,5.4,0,0-4.246-7.92-2.8-12.175a2.869,2.869,0,0,1,3-1.976s-1.651-2.4-.391-4.466c.65-1.058,2.919-.959,2.919-.959a3.6,3.6,0,0,1-.006-3.744c.981-1.413,3.105-1.094,3.105-1.094s-.312-2.453,1.16-3.57C181.16,168.615,194.067,175.742,193.437,181.593Z" transform="translate(-168.108 -170.445)" fill="#d08b73"/>
                          <g id="Grupo_46969" data-name="Grupo 46969" transform="translate(3.484 3.922)">
                            <path id="Trazado_97685" data-name="Trazado 97685" d="M182.562,176.639a.039.039,0,0,1,.024-.074,25.573,25.573,0,0,1,12.86,8.129c.1.128-.06.352-.2.233A52.374,52.374,0,0,0,182.562,176.639Z" transform="translate(-176.772 -176.563)" fill="#263238"/>
                            <path id="Trazado_97686" data-name="Trazado 97686" d="M177.114,184.081c-.053-.023-.014-.111.045-.094a23.955,23.955,0,0,1,13.478,9.74c.106.169.033.427-.105.242C188.22,190.846,181.468,186.02,177.114,184.081Z" transform="translate(-174.816 -179.228)" fill="#263238"/>
                            <path id="Trazado_97687" data-name="Trazado 97687" d="M185.95,203.039c-3.159-4.615-7.479-7.752-12.379-10.337-.063-.034-.01-.12.051-.107,2.742.611,5.694,2.585,7.861,4.314a14.745,14.745,0,0,1,4.628,6.019C186.151,203.023,186.017,203.137,185.95,203.039Z" transform="translate(-173.543 -182.319)" fill="#263238"/>
                          </g>
                          <path id="Trazado_97688" data-name="Trazado 97688" d="M193.168,189.107c.124.154-.238.166-.119.324.5.664,3.172,4.919,2,6.279-.938,1.088-3.05.582-3.786.07l-1.849-1.289,1.288,1.854a9.2,9.2,0,0,1,1.309,2.685,3.3,3.3,0,0,1-.2,2.689,1.884,1.884,0,0,1-2.2.889,5.7,5.7,0,0,1-2.4-1.54l-1.881-1.9,1.152,2.4a8.633,8.633,0,0,1,.7,2.1,3.564,3.564,0,0,1-.122,2.056,1.7,1.7,0,0,1-1.456,1.04,3.753,3.753,0,0,1-1.961-.752,29.514,29.514,0,0,1-3.5-3.029c-.568-.536-1.139-1.076-1.736-1.587a5.576,5.576,0,0,0-1.991-1.234,6.023,6.023,0,0,1,1.845,1.393c.549.55,1.074,1.127,1.6,1.706a25.189,25.189,0,0,0,3.415,3.28,4.381,4.381,0,0,0,2.322.976,2.406,2.406,0,0,0,2.207-1.45,4.367,4.367,0,0,0,.221-2.547,9.533,9.533,0,0,0-.745-2.347l-.728.5a6.543,6.543,0,0,0,2.822,1.848,2.73,2.73,0,0,0,1.845-.1,3.082,3.082,0,0,0,1.36-1.218,4.16,4.16,0,0,0,.254-3.4,10.006,10.006,0,0,0-1.486-2.93l-.56.565c.956.62,3.256,1.443,4.923-.062C197.595,194.08,193.9,189.835,193.168,189.107Z" transform="translate(-171.092 -177.146)" fill="#263238"/>
                          <path id="Trazado_97689" data-name="Trazado 97689" d="M202.4,187.22a5.529,5.529,0,0,0,1.649.356,1.275,1.275,0,0,0,1.167-.558,2.6,2.6,0,0,0,.242-1.456c-.04-.552-.11-1.131-.206-1.725a4.384,4.384,0,0,1,.8,1.633,2.571,2.571,0,0,1-.185,1.959,1.828,1.828,0,0,1-.852.686,1.9,1.9,0,0,1-1.035.056A2.958,2.958,0,0,1,202.4,187.22Z" transform="translate(-180.421 -175.253)" fill="#263238"/>
                        </g>
                      </g>
                      <g id="Grupo_46972" data-name="Grupo 46972" transform="translate(77.966 53.619)">
                        <path id="Trazado_97690" data-name="Trazado 97690" d="M180.3,218.314l24.31-19.552s5.895,12.177,6.241,12.128,4.2-16.209,10.6-26.275,7.939.857,6.581,9.17-7.758,54.342-13.508,58.562-11.153-1.061-13.479-3.3C197.836,245.953,180.3,218.314,180.3,218.314Z" transform="translate(-180.299 -180.577)" fill="#00223d"/>
                        <path id="Trazado_97691" data-name="Trazado 97691" d="M187.588,234.12c.761-.781,8.4-6.738,10.091-8s3.38-2.514,5.073-3.768c1.749-1.3,3.468-2.7,5.315-3.853a.076.076,0,0,1,.095.119c-1.6,1.475-3.408,2.759-5.119,4.1q-2.532,1.986-5.071,3.966c-1.693,1.317-9.381,7.042-10.31,7.554C187.583,234.286,187.536,234.173,187.588,234.12Z" transform="translate(-182.908 -194.189)" fill="#fff"/>
                        <path id="Trazado_97692" data-name="Trazado 97692" d="M227.964,227.871c.674,1.435,1.258,2.907,1.82,4.386s1.074,2.977,1.556,4.485c.465,1.513.917,3.032,1.279,4.575a41.113,41.113,0,0,1,.881,4.671c-.237-.758-.43-1.522-.675-2.275-.212-.759-.449-1.512-.681-2.265l-1.415-4.514-1.409-4.519-.7-2.265C228.41,229.389,228.171,228.636,227.964,227.871Z" transform="translate(-197.413 -197.557)" fill="#fff"/>
                      </g>
                    </g>
                  </g>
                  <g id="Grupo_46975" data-name="Grupo 46975" transform="translate(108.517 49.641)">
                    <path id="Trazado_97693" data-name="Trazado 97693" d="M228.079,258.81c1.052,1.043,65.689-2.377,66-2.8.848-1.14-22.268-69.933-37.422-80.816-3.259-2.341-12.01.794-14.258,3.05-1.41,1.415-4.481,10.356-6.489,17.751C231.89,210.8,227.163,257.894,228.079,258.81Z" transform="translate(-227.963 -174.37)" fill="#fff"/>
                  </g>
                  <g id="Grupo_46989" data-name="Grupo 46989" transform="translate(109.137 7.161)">
                    <path id="Trazado_97694" data-name="Trazado 97694" d="M251.163,174.8c-2.561,1.9-4.53,11.735,1.332,13.067s11.3-7.926,12.1-10.917S256.705,170.689,251.163,174.8Z" transform="translate(-236.017 -131.35)" fill="#ffc727"/>
                    <g id="Grupo_46988" data-name="Grupo 46988">
                      <g id="Grupo_46977" data-name="Grupo 46977" transform="translate(10.612 30.29)">
                        <g id="Grupo_46976" data-name="Grupo 46976" transform="translate(0.004)">
                          <path id="Trazado_97695" data-name="Trazado 97695" d="M251.778,180.235c3.635.467,9.154-5.592,11.1-10.237.131-.319-.663-3.445-1.449-7.289-.468-2.334-.933-4.945-1.186-7.358l-14.747,5.264a38.664,38.664,0,0,1,2.434,9.111,5.5,5.5,0,0,1,0,1c0,.046-.008.1-.005.166C247.813,172.806,248.265,179.782,251.778,180.235Z" transform="translate(-245.493 -155.351)" fill="#d08b73"/>
                        </g>
                        <path id="Trazado_97696" data-name="Trazado 97696" d="M259.539,155.742c-.155,3.062-1.317,14.1-10.059,15.213a10.559,10.559,0,0,1-1.56.081.613.613,0,0,1,.007-.17,5.646,5.646,0,0,0,0-1,38.862,38.862,0,0,0-2.441-9.112Z" transform="translate(-245.487 -155.491)" fill="#263238"/>
                      </g>
                      <g id="Grupo_46987" data-name="Grupo 46987">
                        <g id="Grupo_46978" data-name="Grupo 46978" transform="translate(1.22 4.671)">
                          <path id="Trazado_97697" data-name="Trazado 97697" d="M255.224,122.919c2.151,5.214.793,21-2.7,24.823-5.06,5.542-14.081,6.885-18.976.635-4.745-6.059-2.611-26.6,1.357-30.15C240.751,113,252.048,115.216,255.224,122.919Z" transform="translate(-230.835 -115.381)" fill="#d08b73"/>
                        </g>
                        <path id="Trazado_97698" data-name="Trazado 97698" d="M265.254,165.573s0-.006,0-.006" transform="translate(-241.972 -128.729)" fill="none" stroke="#f4a69d" stroke-linecap="round" stroke-linejoin="round" stroke-width="0"/>
                        <g id="Grupo_46984" data-name="Grupo 46984" transform="translate(2.661 17.716)">
                          <g id="Grupo_46979" data-name="Grupo 46979" transform="translate(8.865 4.362)">
                            <path id="Trazado_97699" data-name="Trazado 97699" d="M247.062,144.148c.012-.04.079.057.074.1-.12,1.061-.079,2.3.855,2.727.029.013.021.067-.014.059C246.816,146.774,246.778,145.134,247.062,144.148Z" transform="translate(-246.915 -143.114)" fill="#263238"/>
                            <path id="Trazado_97700" data-name="Trazado 97700" d="M248.129,142.54c1.721.009,1.577,3.451-.018,3.443C246.542,145.974,246.686,142.532,248.129,142.54Z" transform="translate(-246.942 -142.54)" fill="#263238"/>
                          </g>
                          <g id="Grupo_46980" data-name="Grupo 46980" transform="translate(0.688 4.015)">
                            <path id="Trazado_97701" data-name="Trazado 97701" d="M237.108,143.806c-.006-.041-.085.047-.086.09-.011,1.068-.2,2.288-1.183,2.6-.03.01-.029.063.006.06C237.03,146.442,237.269,144.819,237.108,143.806Z" transform="translate(-234.753 -142.644)" fill="#263238"/>
                            <path id="Trazado_97702" data-name="Trazado 97702" d="M235.607,142.007c-1.709-.2-1.988,3.232-.4,3.419C236.76,145.611,237.039,142.176,235.607,142.007Z" transform="translate(-234.156 -141.999)" fill="#263238"/>
                          </g>
                          <path id="Trazado_97703" data-name="Trazado 97703" d="M249.512,138.776a13.511,13.511,0,0,1-1.313-.526,2.284,2.284,0,0,1-1.237-.792.73.73,0,0,1,.154-.876,1.809,1.809,0,0,1,1.827-.11,2.656,2.656,0,0,1,1.479,1.211A.777.777,0,0,1,249.512,138.776Z" transform="translate(-238.035 -135.93)" fill="#263238"/>
                          <path id="Trazado_97704" data-name="Trazado 97704" d="M233.962,137.969a13.34,13.34,0,0,0,1.383-.3,2.284,2.284,0,0,0,1.352-.572.728.728,0,0,0-.005-.89,1.805,1.805,0,0,0-1.783-.415,2.655,2.655,0,0,0-1.662.945A.777.777,0,0,0,233.962,137.969Z" transform="translate(-233.083 -135.734)" fill="#263238"/>
                          <path id="Trazado_97705" data-name="Trazado 97705" d="M248.09,159.717c-.265.239-.535.572-.923.588a2.823,2.823,0,0,1-1.135-.316.037.037,0,0,0-.048.053,1.436,1.436,0,0,0,1.329.636,1.136,1.136,0,0,0,.878-.908C248.21,159.709,248.129,159.683,248.09,159.717Z" transform="translate(-237.713 -144.339)" fill="#263238"/>
                          <g id="Grupo_46982" data-name="Grupo 46982" transform="translate(3.249 0.374)">
                            <g id="Grupo_46981" data-name="Grupo 46981">
                              <path id="Trazado_97706" data-name="Trazado 97706" d="M244.294,148.082A3.634,3.634,0,0,1,241.8,149.6a4.568,4.568,0,0,1-1.309.005,1.319,1.319,0,0,1-.248-.039c-.078-.013-.147-.025-.232-.046a.265.265,0,0,1-.2-.247v-.008a.483.483,0,0,1,.014-.109v-.008l.006-.094c.012-.822.144-2.067.144-2.067-.306.138-1.865.761-1.822.334a54.686,54.686,0,0,1,1.869-10.928.1.1,0,0,1,.194.035c-.212,3.418-1.024,6.775-1.292,10.2a6.383,6.383,0,0,1,1.735-.448c.115.038-.3,2.4-.274,2.772a.13.13,0,0,0,.005.04,5.035,5.035,0,0,0,3.807-1.009C244.28,147.925,244.361,148,244.294,148.082Z" transform="translate(-238.153 -136.318)" fill="#263238"/>
                            </g>
                          </g>
                          <g id="Grupo_46983" data-name="Grupo 46983" transform="translate(6.203 12.031)">
                            <path id="Trazado_97707" data-name="Trazado 97707" d="M242.76,155.926a4.277,4.277,0,0,0,1.77,1.247,1.924,1.924,0,0,0,1.17.019c.833-.26.819-1.036.634-1.691a4.611,4.611,0,0,0-.424-1A5.535,5.535,0,0,1,242.76,155.926Z" transform="translate(-242.76 -154.504)" fill="#263238"/>
                            <path id="Trazado_97708" data-name="Trazado 97708" d="M245.521,157.732a1.924,1.924,0,0,0,1.17.019c.833-.26.819-1.036.634-1.691A1.985,1.985,0,0,0,245.521,157.732Z" transform="translate(-243.751 -155.063)" fill="#f392b9"/>
                          </g>
                        </g>
                        <path id="Trazado_97709" data-name="Trazado 97709" d="M256.293,133.39c.386-1.379,3.945-16.236,3.553-17.855-.358-1.475-1.97-.872-1.995-.956s-.073-1.429-.906-1.931a2.256,2.256,0,0,0-1.8.033s-.253-1.417-1.145-1.8a1.8,1.8,0,0,0-1.742.376,2.371,2.371,0,0,0-1.424-1.69,1.54,1.54,0,0,0-1.72.654s-.378-1.352-1.308-1.613-1.732.738-1.732.738a2.041,2.041,0,0,0-1.64-1.247,1.781,1.781,0,0,0-1.568,1.218,2.429,2.429,0,0,0-1.73-1.222c-1.061-.031-1.427,1.291-1.427,1.291s-.433-1.179-1.431-1.1-1.234,1.474-1.234,1.474-.56-1.3-1.734-.917c-1.8.585-2.029,9.2-2.44,12.943,0,0,.5-1.79,1.269-1.856s1.338,1.152,2.763,1.467c2.032.449,5.414-1.935,8.215-1.336,2.722.582,4.74,3.441,5.721,7.717C251.942,132.594,255.378,136.662,256.293,133.39Z" transform="translate(-230.344 -108.094)" fill="#263238"/>
                        <g id="Grupo_46985" data-name="Grupo 46985" transform="translate(0 19.147)">
                          <path id="Trazado_97710" data-name="Trazado 97710" d="M246.152,147.493a4.4,4.4,0,0,1-3.542-5.1h0a4.393,4.393,0,1,1,3.542,5.1Zm-2.964-5a3.8,3.8,0,1,0,3.477-3.12A3.812,3.812,0,0,0,243.187,142.493Z" transform="translate(-233.817 -138.257)" fill="#ffc727"/>
                          <path id="Trazado_97711" data-name="Trazado 97711" d="M232,146.745c-1.8-.084-3.175-2.12-3.062-4.54a5.248,5.248,0,0,1,1.068-3.025,2.737,2.737,0,0,1,4.68.217,5.237,5.237,0,0,1,.785,3.111c-.106,2.29-1.506,4.114-3.182,4.234A2.55,2.55,0,0,1,232,146.745Zm-1.534-7.2a4.66,4.66,0,0,0-.942,2.686c-.1,2.1,1.027,3.857,2.5,3.925s2.759-1.581,2.857-3.677a4.666,4.666,0,0,0-.689-2.761,2.343,2.343,0,0,0-1.816-1.165,1.843,1.843,0,0,0-.223,0A2.419,2.419,0,0,0,230.465,139.547Z" transform="translate(-228.931 -137.966)" fill="#ffc727"/>
                          <path id="Trazado_97712" data-name="Trazado 97712" d="M241.234,144.5l.4-.432c-.64-.59-2.144-1.413-3.268-.316l.41.42C239.78,143.183,241.175,144.442,241.234,144.5Z" transform="translate(-232.318 -139.849)" fill="#ffc727"/>
                          <path id="Trazado_97713" data-name="Trazado 97713" d="M266.9,146.685l.534-.245c-.115-.249-1.155-2.439-2.455-2.713-1.215-.253-9.113.12-9.448.137l.028.586c2.264-.11,8.361-.346,9.3-.148C265.711,144.483,266.618,146.084,266.9,146.685Z" transform="translate(-238.479 -140.004)" fill="#ffc727"/>
                        </g>
                        <g id="Grupo_46986" data-name="Grupo 46986" transform="translate(21.882 20.399)">
                          <path id="Trazado_97714" data-name="Trazado 97714" d="M263.642,144.273s3.137-5.289,5.512-4.207.279,8.566-2.324,9.763a2.73,2.73,0,0,1-3.758-1.19Z" transform="translate(-263.071 -139.919)" fill="#d08b73"/>
                          <path id="Trazado_97715" data-name="Trazado 97715" d="M269.324,143.47c.042-.007.056.053.019.071-1.82.9-2.678,2.716-3.235,4.573a1.508,1.508,0,0,1,2.219-.579c.051.031.01.111-.044.1a1.68,1.68,0,0,0-1.8.723,8.13,8.13,0,0,0-.77,1.557c-.076.175-.385.108-.336-.09l.012-.045C265.163,147.393,266.772,143.9,269.324,143.47Z" transform="translate(-263.896 -141.194)" fill="#263238"/>
                        </g>
                      </g>
                    </g>
                  </g>
                  <g id="Grupo_46994" data-name="Grupo 46994" transform="translate(137.251 51.513)">
                    <g id="Grupo_46993" data-name="Grupo 46993">
                      <g id="Grupo_46992" data-name="Grupo 46992" transform="translate(2.299 1.401)">
                        <path id="Trazado_97716" data-name="Trazado 97716" d="M283.171,181.529c20.917,14.383,36.014,36.934,37.467,41.7,3.516,11.528,8.769,31.855,9.578,40.984.3,3.375-25.711,2.745-26.144-.852-1.356-11.264-6.2-35.773-6.325-36.2-.867-2.964-8.245-15.8-15.839-29.771S274.367,175.476,283.171,181.529Z" transform="translate(-276.379 -179.476)" fill="#ad6359"/>
                        <g id="Grupo_46991" data-name="Grupo 46991" transform="translate(23.361 83.862)">
                          <path id="Trazado_97717" data-name="Trazado 97717" d="M319.23,345.906a4.036,4.036,0,0,0,4.379-1.435,5.988,5.988,0,0,0,3.5,2.088c2.441.355,4.068-3.317,4.068-3.317a7.38,7.38,0,0,0,4.038,1.615c2.37.1,4.54-3.366,4.54-3.366a6.544,6.544,0,0,0,4.446-.817c2.249-1.451,3.358-8.622,3.32-12.658s-3.927-15.452-4.448-17.7l-25.911.021s-4.98,18.151-4.262,22.891C313.5,337.218,316.248,344.888,319.23,345.906Z" transform="translate(-312.825 -310.314)" fill="#d08b73"/>
                          <g id="Grupo_46990" data-name="Grupo 46990" transform="translate(7.733 19.559)">
                            <path id="Trazado_97718" data-name="Trazado 97718" d="M327.525,356.119c-1.662-4.091-2.024-8.451-2.633-12.783a.076.076,0,0,1,.15-.019c.556,4.315,1.96,8.463,2.686,12.747A.106.106,0,0,1,327.525,356.119Z" transform="translate(-324.891 -341.7)" fill="#263238"/>
                            <path id="Trazado_97719" data-name="Trazado 97719" d="M340.411,354.471a11.478,11.478,0,0,1-.475-2.972q-.144-1.594-.233-3.192c-.121-2.132-.194-4.268-.2-6.4,0-.095.144-.119.15-.02.124,2.125.281,4.248.495,6.367q.16,1.589.346,3.177a13.726,13.726,0,0,1,.21,3.006A.152.152,0,0,1,340.411,354.471Z" transform="translate(-330.136 -341.185)" fill="#263238"/>
                            <path id="Trazado_97720" data-name="Trazado 97720" d="M354.4,352.358a8.01,8.01,0,0,1-.285-2.7q-.053-1.458-.121-2.917c-.092-1.945-.184-3.889-.344-5.828-.008-.1.142-.117.15-.02.172,1.97.37,3.938.525,5.91q.114,1.452.212,2.905a7.514,7.514,0,0,1-.039,2.648A.054.054,0,0,1,354.4,352.358Z" transform="translate(-335.217 -340.83)" fill="#263238"/>
                          </g>
                        </g>
                      </g>
                      <path id="Trazado_97721" data-name="Trazado 97721" d="M301.547,262.857l28.427-2.293s-6.262-30.62-9.658-38.9S300,192.978,282.366,180.882c-12-8.228-11.262-1.191-5.717,9.709s18.595,35.833,19.21,37.805S301.547,262.857,301.547,262.857Z" transform="translate(-272.792 -177.29)" fill="#00223d"/>
                      <path id="Trazado_97722" data-name="Trazado 97722" d="M318.4,300.468c1.063-.247,10.711-1.135,12.811-1.283s4.2-.292,6.3-.434c2.171-.146,4.377-.4,6.554-.374a.076.076,0,0,1,.015.151c-2.142.379-4.358.483-6.522.689q-3.2.3-6.41.6c-2.137.195-11.7.863-12.756.793C318.3,300.6,318.325,300.484,318.4,300.468Z" transform="translate(-289.144 -220.764)" fill="#fff"/>
                    </g>
                  </g>
                </g>
              </g>
            </g>
          </g>
        </g>
      </g>
    </g>
  </g>
</svg>
