<svg xmlns="http://www.w3.org/2000/svg" xmlns:xlink="http://www.w3.org/1999/xlink" width="256.228" height="270.923" viewBox="0 0 256.228 270.923">
  <defs>
    <clipPath id="clip-path">
      <rect id="Rectángulo_57278" data-name="Rectángulo 57278" width="256.227" height="270.923" fill="none"/>
    </clipPath>
    <clipPath id="clip-path-2">
      <rect id="Rectángulo_57269" data-name="Rectángulo 57269" width="252.227" height="270.923" fill="none"/>
    </clipPath>
    <clipPath id="clip-path-4">
      <rect id="Rectángulo_57270" data-name="Rectángulo 57270" width="3.618" height="3.576" fill="none"/>
    </clipPath>
    <clipPath id="clip-path-5">
      <rect id="Rectángulo_57271" data-name="Rectángulo 57271" width="3.611" height="3.559" fill="none"/>
    </clipPath>
    <clipPath id="clip-path-6">
      <rect id="Rectángulo_57272" data-name="Rectángulo 57272" width="14.165" height="21.708" fill="none"/>
    </clipPath>
    <clipPath id="clip-path-7">
      <rect id="Rectángulo_57273" data-name="Rectángulo 57273" width="78.247" height="47.36" fill="none"/>
    </clipPath>
    <linearGradient id="linear-gradient" x1="0.5" x2="0.5" y2="1" gradientUnits="objectBoundingBox">
      <stop offset="0" stop-color="#7e53c5"/>
      <stop offset="1" stop-color="#080383"/>
    </linearGradient>
    <linearGradient id="linear-gradient-2" x1="0.5" x2="0.5" y2="1" gradientUnits="objectBoundingBox">
      <stop offset="0" stop-color="#fdbe41"/>
      <stop offset="1" stop-color="#d09f40"/>
    </linearGradient>
  </defs>
  <g id="Grupo_179454" data-name="Grupo 179454" transform="translate(8626 -2088.849)">
    <g id="Grupo_177761" data-name="Grupo 177761" transform="translate(-8626 2088.849)">
      <g id="Enmascarar_grupo_177760" data-name="Enmascarar grupo 177760" clip-path="url(#clip-path)">
        <g id="Grupo_177743" data-name="Grupo 177743">
          <g id="Grupo_177742" data-name="Grupo 177742" clip-path="url(#clip-path-2)">
            <path id="Trazado_220799" data-name="Trazado 220799" d="M276.156,43.092a17.48,17.48,0,0,1-2.665,5.7l2.623,2.451,0,0,11.188,10.1-.263.122s9.682-6.764,12.36-8.971c2.208-1.821,8.118-5.577,8.6-9.223a3.128,3.128,0,0,0-1.734-3.2,2.446,2.446,0,0,0-2.553.2s2.6-3.053.545-5.061-3.668-.435-3.668-.435,2.548-3.882.183-6.038a3.073,3.073,0,0,0-3.454-.18l.959-1.027,4.95-5.3a3.326,3.326,0,0,0,.024-4.589,3.237,3.237,0,0,0-4.633.04l-13.94,14.537.709-7.923c.179-2.058-2.6-3.55-3.838-2.794,0,0-1.9.74-2.419,3.964-.389,2.41-2.974,17.623-2.974,17.623" transform="translate(-106.274 -6.484)" fill="#f5f5f5"/>
            <path id="Trazado_220800" data-name="Trazado 220800" d="M276.1,42.985s.011-.135.049-.4.1-.657.177-1.156c.166-1.028.407-2.522.717-4.444s.707-4.3,1.159-7.045q.342-2.063.73-4.406a7.566,7.566,0,0,1,.715-2.361,4.139,4.139,0,0,1,1.8-1.895l-.02.01a2.092,2.092,0,0,1,1.588-.113,3.77,3.77,0,0,1,1.425.78,3.029,3.029,0,0,1,.933,1.395,3.86,3.86,0,0,1,.085.429c.006.146,0,.3,0,.441-.024.278-.049.556-.073.838-.2,2.249-.4,4.609-.621,7.064l-.253-.115,12.675-13.244.853-.89a6.171,6.171,0,0,1,.931-.869,3.372,3.372,0,0,1,5.232,3.453,3.625,3.625,0,0,1-.5,1.259,7.421,7.421,0,0,1-.866,1.017l-1.8,1.925-3.65,3.906-.213-.271a3.349,3.349,0,0,1,2.391-.388,3.393,3.393,0,0,1,.972.388,1.518,1.518,0,0,1,.416.337,3.093,3.093,0,0,1,.34.4,3.342,3.342,0,0,1,.6,1.958,7.528,7.528,0,0,1-1.217,3.77l-.266-.219a2.494,2.494,0,0,1,2.488-.487A3.536,3.536,0,0,1,304,34.7a3.489,3.489,0,0,1,.456.441l.21.245.164.281a3.093,3.093,0,0,1,.13,2.473,6.794,6.794,0,0,1-1.18,2.133l-.223-.251a2.641,2.641,0,0,1,2.506-.306,3.3,3.3,0,0,1,2.065,2.979,4.546,4.546,0,0,1-.2,1.23,7.824,7.824,0,0,1-1.15,2.119c-1.957,2.517-4.51,4.255-6.8,6.026-2.266,1.834-4.559,3.45-6.721,5.01l-6.2,4.376-.127-.221.263-.121-.032.21L276,51.195l.119,0,0,0-.058.062L276,51.2l-2.612-2.463-.044-.042.036-.05a17.886,17.886,0,0,0,2.2-4.114c.191-.5.314-.888.392-1.149s.128-.394.128-.394a11.441,11.441,0,0,1-.453,1.568,17.3,17.3,0,0,1-2.157,4.172l-.008-.092,2.633,2.44-.119,0,0,0,.056-.061.062.056,11.216,10.063.144.129-.175.082-.262.122-.128-.221,6.184-4.4c2.157-1.568,4.437-3.184,6.7-5.023,2.3-1.779,4.828-3.521,6.73-5.978a7.513,7.513,0,0,0,1.1-2.023,4.229,4.229,0,0,0,.18-1.124,2.963,2.963,0,0,0-1.856-2.673,2.3,2.3,0,0,0-2.2.276l-.968.679.745-.93a6.48,6.48,0,0,0,1.112-2.016,2.752,2.752,0,0,0-.106-2.207,3.451,3.451,0,0,0-1.745-1.448,2.154,2.154,0,0,0-2.134.408l-.851.753.585-.973a7.206,7.206,0,0,0,1.159-3.577,2.66,2.66,0,0,0-2.056-2.745,2.994,2.994,0,0,0-2.144.352l-.97.54.758-.811,3.651-3.905,1.8-1.924a7.088,7.088,0,0,0,.828-.967,3.276,3.276,0,0,0,.457-1.139,3.042,3.042,0,0,0-4.705-3.11,5.917,5.917,0,0,0-.88.824l-.854.89-12.7,13.218-.291.3.038-.417c.224-2.455.438-4.815.643-7.062a4.332,4.332,0,0,0,0-1.61,2.765,2.765,0,0,0-.849-1.273,3.528,3.528,0,0,0-1.322-.732,1.859,1.859,0,0,0-1.392.079h0l-.018.009a3.939,3.939,0,0,0-1.684,1.774,7.344,7.344,0,0,0-.7,2.289q-.4,2.34-.757,4.4c-.475,2.743-.883,5.1-1.217,7.037-.338,1.917-.6,3.407-.781,4.432-.091.5-.161.877-.211,1.149s-.084.388-.084.388" transform="translate(-106.217 -6.377)" fill="#e0e0e0"/>
            <path id="Trazado_220801" data-name="Trazado 220801" d="M280.989,85.278,267.207,72.4a2.6,2.6,0,0,1-.124-3.668l.125-.133a2.6,2.6,0,0,1,3.668-.124l13.783,12.882a2.6,2.6,0,0,1,.124,3.668l-.125.133a2.6,2.6,0,0,1-3.668.124" transform="translate(-103.512 -26.335)" fill="#f5f5f5"/>
            <path id="Trazado_220802" data-name="Trazado 220802" d="M280.882,85.169c.013-.015.149.122.459.3a2.611,2.611,0,0,0,1.5.321,2.581,2.581,0,0,0,1.052-.33,3.152,3.152,0,0,0,.946-.908,2.492,2.492,0,0,0-.131-2.962l-14.053-13.1a2.448,2.448,0,0,0-2.416-.531,2.8,2.8,0,0,0-1.691,1.763A2.435,2.435,0,0,0,267.053,72c.582.578,1.219,1.153,1.8,1.708l6.291,5.931,4.221,4.021,1.135,1.106a3.346,3.346,0,0,1,.38.4,3.323,3.323,0,0,1-.427-.352l-1.18-1.058-4.3-3.94-6.342-5.876c-.6-.563-1.2-1.1-1.832-1.722a2.769,2.769,0,0,1-.588-2.595,3.139,3.139,0,0,1,1.911-2,2.792,2.792,0,0,1,2.762.606c5.483,5.143,10.45,9.753,14.007,13.2a2.7,2.7,0,0,1,.1,3.227,3.3,3.3,0,0,1-1.025.942,2.69,2.69,0,0,1-1.124.32,2.59,2.59,0,0,1-1.541-.4,1.8,1.8,0,0,1-.423-.361" transform="translate(-103.405 -26.226)" fill="#e0e0e0"/>
            <path id="Trazado_220803" data-name="Trazado 220803" d="M304.015,41.125a21.931,21.931,0,0,1,2.534-2.967,21.908,21.908,0,0,1,2.789-2.728A22.026,22.026,0,0,1,306.8,38.4a21.965,21.965,0,0,1-2.788,2.729" transform="translate(-118.134 -13.767)" fill="#e0e0e0"/>
            <path id="Trazado_220804" data-name="Trazado 220804" d="M312.626,49.453a7.881,7.881,0,0,1,1.455-1.812,7.858,7.858,0,0,1,1.71-1.574,7.851,7.851,0,0,1-1.455,1.812,7.876,7.876,0,0,1-1.71,1.574" transform="translate(-121.479 -17.899)" fill="#e0e0e0"/>
            <path id="Trazado_220805" data-name="Trazado 220805" d="M317.763,58.618a7.881,7.881,0,0,1,1.455-1.812,7.875,7.875,0,0,1,1.71-1.574,7.849,7.849,0,0,1-1.455,1.812,7.856,7.856,0,0,1-1.71,1.574" transform="translate(-123.475 -21.461)" fill="#e0e0e0"/>
            <path id="Trazado_220806" data-name="Trazado 220806" d="M315.086,7.765a23.616,23.616,0,0,1-1.539-3.742A23.58,23.58,0,0,1,312.336.161,23.609,23.609,0,0,1,313.875,3.9a23.587,23.587,0,0,1,1.212,3.861" transform="translate(-121.365 -0.062)" fill="#e0e0e0"/>
            <path id="Trazado_220807" data-name="Trazado 220807" d="M322.793,8.589a38.9,38.9,0,0,1,2.77-4.391A38.932,38.932,0,0,1,328.622,0a38.829,38.829,0,0,1-2.77,4.392,38.868,38.868,0,0,1-3.059,4.2" transform="translate(-125.431 0)" fill="#e0e0e0"/>
            <path id="Trazado_220808" data-name="Trazado 220808" d="M327.125,18.02a51.083,51.083,0,0,1,8.237-1.744,25.578,25.578,0,0,1-4.082,1.042,25.608,25.608,0,0,1-4.155.7" transform="translate(-127.115 -6.318)" fill="#e0e0e0"/>
            <path id="Trazado_220809" data-name="Trazado 220809" d="M27.947,231.115,8.316,310.492h5.167L33.6,231.115Z" transform="translate(-3.232 -89.808)" fill="#f5f5f5"/>
            <path id="Trazado_220810" data-name="Trazado 220810" d="M97.309,231.115l18.368,79.377h-5.168L91.657,231.115Z" transform="translate(-35.616 -89.808)" fill="#f5f5f5"/>
            <path id="Trazado_220811" data-name="Trazado 220811" d="M71.406,301.132H65.391l-.9-91.1H70.51Z" transform="translate(-25.062 -81.613)" fill="#f5f5f5"/>
            <rect id="Rectángulo_57267" data-name="Rectángulo 57267" width="84.882" height="54.381" transform="translate(0 74.911)" fill="#ebebeb"/>
            <rect id="Rectángulo_57268" data-name="Rectángulo 57268" width="42.604" height="5.251" transform="translate(21.163 140.474)" fill="#f5f5f5"/>
            <path id="Trazado_220812" data-name="Trazado 220812" d="M9.093,172.006a5.878,5.878,0,0,1,.058.995H9.035c-.087-2.66-.151-11.471-.151-21.913.024-6.3.045-12,.061-16.2.028-2.03.05-3.692.067-4.909.016-.542.029-.984.039-1.335a1.978,1.978,0,0,1,.042-.465,1.937,1.937,0,0,1,.042.465c.01.351.023.793.039,1.335.017,1.216.039,2.879.067,4.909.016,4.2.037,9.9.061,16.2,0,10.442-.064,19.253-.151,21.913H9.035a5.878,5.878,0,0,1,.058-.995" transform="translate(-3.452 -49.808)" fill="#f5f5f5"/>
            <path id="Trazado_220813" data-name="Trazado 220813" d="M19.425,172.006a5.878,5.878,0,0,1,.058.995h-.116c-.087-2.66-.151-11.471-.151-21.913.024-6.3.045-12,.061-16.2.028-2.03.05-3.692.067-4.909.016-.542.029-.984.039-1.335a1.978,1.978,0,0,1,.042-.465,1.937,1.937,0,0,1,.042.465c.01.351.023.793.039,1.335.017,1.216.039,2.879.067,4.909.016,4.2.037,9.9.061,16.2,0,10.442-.064,19.253-.151,21.913h-.116a5.878,5.878,0,0,1,.058-.995" transform="translate(-7.467 -49.808)" fill="#f5f5f5"/>
            <path id="Trazado_220814" data-name="Trazado 220814" d="M29.758,172.006a5.879,5.879,0,0,1,.058.995H29.7c-.087-2.66-.151-11.471-.151-21.913.024-6.3.045-12,.061-16.2.028-2.03.05-3.692.067-4.909.016-.542.029-.984.039-1.335a2.021,2.021,0,0,1,.042-.465,1.937,1.937,0,0,1,.042.465c.01.351.023.793.039,1.335.017,1.216.039,2.879.067,4.909.016,4.2.037,9.9.061,16.2,0,10.442-.064,19.253-.151,21.913H29.7a5.878,5.878,0,0,1,.058-.995" transform="translate(-11.482 -49.808)" fill="#f5f5f5"/>
            <path id="Trazado_220815" data-name="Trazado 220815" d="M40.09,172.006a5.878,5.878,0,0,1,.058.995h-.116c-.087-2.66-.151-11.471-.151-21.913.024-6.3.045-12,.061-16.2.028-2.03.05-3.692.067-4.909.016-.542.029-.984.039-1.335a2.021,2.021,0,0,1,.042-.465,1.936,1.936,0,0,1,.042.465c.01.351.023.793.039,1.335.017,1.216.039,2.879.067,4.909.016,4.2.037,9.9.061,16.2,0,10.442-.064,19.253-.151,21.913h-.116a5.878,5.878,0,0,1,.058-.995" transform="translate(-15.497 -49.808)" fill="#f5f5f5"/>
            <path id="Trazado_220816" data-name="Trazado 220816" d="M50.423,172.006a5.879,5.879,0,0,1,.058.995h-.116c-.087-2.66-.151-11.471-.151-21.913.024-6.3.045-12,.061-16.2.028-2.03.05-3.692.067-4.909.016-.542.029-.984.039-1.335a2.021,2.021,0,0,1,.042-.465,1.937,1.937,0,0,1,.042.465c.01.351.023.793.039,1.335.017,1.216.039,2.879.067,4.909.016,4.2.037,9.9.061,16.2,0,10.442-.064,19.253-.151,21.913h-.116a5.878,5.878,0,0,1,.058-.995" transform="translate(-19.512 -49.808)" fill="#f5f5f5"/>
            <path id="Trazado_220817" data-name="Trazado 220817" d="M60.755,172.006a5.877,5.877,0,0,1,.058.995H60.7c-.087-2.66-.151-11.471-.151-21.913.024-6.3.045-12,.061-16.2.028-2.03.05-3.692.067-4.909.016-.542.029-.984.039-1.335a1.978,1.978,0,0,1,.042-.465,1.937,1.937,0,0,1,.042.465c.01.351.023.793.039,1.335.017,1.216.039,2.879.067,4.909.016,4.2.037,9.9.061,16.2,0,10.442-.064,19.253-.151,21.913H60.7a5.879,5.879,0,0,1,.058-.995" transform="translate(-23.527 -49.808)" fill="#f5f5f5"/>
            <path id="Trazado_220818" data-name="Trazado 220818" d="M71.088,172.006a5.879,5.879,0,0,1,.058.995H71.03c-.087-2.66-.151-11.471-.151-21.913.024-6.3.045-12,.061-16.2.028-2.03.05-3.692.067-4.909.016-.542.029-.984.039-1.335a1.977,1.977,0,0,1,.042-.465,1.937,1.937,0,0,1,.042.465c.01.351.023.793.039,1.335.017,1.216.039,2.879.067,4.909.016,4.2.037,9.9.061,16.2,0,10.442-.064,19.253-.151,21.913H71.03a5.879,5.879,0,0,1,.058-.995" transform="translate(-27.542 -49.808)" fill="#f5f5f5"/>
            <path id="Trazado_220819" data-name="Trazado 220819" d="M81.421,172.006a5.878,5.878,0,0,1,.058.995h-.116c-.087-2.66-.151-11.471-.151-21.913.024-6.3.045-12,.061-16.2.028-2.03.05-3.692.067-4.909.016-.542.029-.984.039-1.335a1.937,1.937,0,0,1,.042-.465,1.936,1.936,0,0,1,.042.465c.01.351.023.793.039,1.335.017,1.216.039,2.879.067,4.909.016,4.2.037,9.9.061,16.2,0,10.442-.064,19.253-.151,21.913h-.116a5.879,5.879,0,0,1,.058-.995" transform="translate(-31.558 -49.808)" fill="#f5f5f5"/>
            <path id="Trazado_220820" data-name="Trazado 220820" d="M91.753,172.006a5.879,5.879,0,0,1,.058.995H91.7c-.087-2.66-.151-11.471-.151-21.913.024-6.3.045-12,.061-16.2.028-2.03.05-3.692.067-4.909.016-.542.029-.984.039-1.335a1.978,1.978,0,0,1,.042-.465,1.937,1.937,0,0,1,.042.465c.01.351.023.793.039,1.335.017,1.216.039,2.879.067,4.909.016,4.2.037,9.9.061,16.2,0,10.442-.064,19.253-.151,21.913H91.7a5.877,5.877,0,0,1,.058-.995" transform="translate(-35.573 -49.808)" fill="#f5f5f5"/>
            <path id="Trazado_220821" data-name="Trazado 220821" d="M102.086,172.006a5.879,5.879,0,0,1,.058.995h-.116c-.087-2.66-.151-11.471-.151-21.913.024-6.3.045-12,.061-16.2.028-2.03.05-3.692.067-4.909.016-.542.029-.984.039-1.335a1.937,1.937,0,0,1,.042-.465,1.937,1.937,0,0,1,.042.465c.01.351.023.793.039,1.335.017,1.216.039,2.879.067,4.909.016,4.2.037,9.9.061,16.2,0,10.442-.064,19.253-.151,21.913h-.116a5.878,5.878,0,0,1,.058-.995" transform="translate(-39.588 -49.808)" fill="#f5f5f5"/>
            <path id="Trazado_220822" data-name="Trazado 220822" d="M112.418,172.006a5.88,5.88,0,0,1,.058.995h-.116c-.087-2.66-.151-11.471-.151-21.913.024-6.3.045-12,.061-16.2.028-2.03.05-3.692.067-4.909.016-.542.029-.984.039-1.335a1.936,1.936,0,0,1,.042-.465,1.938,1.938,0,0,1,.042.465c.01.351.023.793.039,1.335.017,1.216.039,2.879.067,4.909.016,4.2.037,9.9.061,16.2,0,10.442-.064,19.253-.151,21.913h-.116a5.877,5.877,0,0,1,.058-.995" transform="translate(-43.603 -49.808)" fill="#f5f5f5"/>
            <path id="Trazado_220823" data-name="Trazado 220823" d="M122.751,172.006a5.879,5.879,0,0,1,.058.995h-.116c-.087-2.66-.151-11.471-.151-21.913.024-6.3.045-12,.061-16.2.028-2.03.05-3.692.067-4.909.016-.542.029-.984.039-1.335a1.936,1.936,0,0,1,.042-.465,1.938,1.938,0,0,1,.042.465c.01.351.023.793.039,1.335.017,1.216.039,2.879.067,4.909.016,4.2.037,9.9.061,16.2,0,10.442-.064,19.253-.151,21.913h-.116a5.878,5.878,0,0,1,.058-.995" transform="translate(-47.618 -49.808)" fill="#f5f5f5"/>
            <path id="Trazado_220824" data-name="Trazado 220824" d="M133.083,172.006a5.878,5.878,0,0,1,.058.995h-.116c-.087-2.66-.151-11.471-.151-21.913.024-6.3.045-12,.061-16.2.028-2.03.05-3.692.067-4.909.016-.542.029-.984.039-1.335a1.978,1.978,0,0,1,.042-.465,1.936,1.936,0,0,1,.042.465c.01.351.023.793.039,1.335.017,1.216.039,2.879.067,4.909.016,4.2.037,9.9.061,16.2,0,10.442-.064,19.253-.151,21.913h-.116a5.877,5.877,0,0,1,.058-.995" transform="translate(-51.633 -49.808)" fill="#f5f5f5"/>
          </g>
        </g>
        <g id="Grupo_177757" data-name="Grupo 177757">
          <g id="Grupo_177756" data-name="Grupo 177756" clip-path="url(#clip-path-2)">
            <path id="Trazado_220825" data-name="Trazado 220825" d="M212.739,44.458l-4.766,42.917c-.81,7.3-3.492,17.854-14.973,16.047-9.843-2.32-11.322-12.092-10.558-18.9.362-3.23.657-5.925.673-6.259,0,0-10.811-2.241-10.4-13.142.2-5.268,1.492-16.085,2.776-25.857a20.319,20.319,0,0,1,21.17-17.635l1.051.053c11.3,1.231,16.57,11.517,15.027,22.78" transform="translate(-67.11 -8.393)" fill="#936760"/>
            <path id="Trazado_220826" data-name="Trazado 220826" d="M189.549,112.058a26.353,26.353,0,0,0,14.4-3.482s-3.86,7.784-14.681,6.257Z" transform="translate(-73.545 -42.191)" fill="#6f4c47"/>
            <path id="Trazado_220827" data-name="Trazado 220827" d="M206.519,60.475c.188.245,1.557-.6,3.371-.429,1.813.148,3.053,1.229,3.272,1.019.106-.092-.068-.518-.606-1a4.557,4.557,0,0,0-2.592-1.094,4.4,4.4,0,0,0-2.71.623c-.6.386-.827.776-.734.886" transform="translate(-80.242 -22.906)" fill="#263238"/>
            <path id="Trazado_220828" data-name="Trazado 220828" d="M205.862,66.769a1.474,1.474,0,0,0,1.344,1.556,1.41,1.41,0,0,0,1.584-1.251,1.474,1.474,0,0,0-1.343-1.557,1.41,1.41,0,0,0-1.585,1.252" transform="translate(-79.993 -25.456)" fill="#263238"/>
            <path id="Trazado_220829" data-name="Trazado 220829" d="M193.912,72.25a11.069,11.069,0,0,0-2.695-.627c-.426-.066-.825-.171-.883-.467a2.176,2.176,0,0,1,.349-1.253q.68-1.522,1.428-3.192c1.988-4.547,3.45-8.294,3.266-8.373s-1.944,3.543-3.933,8.09q-.72,1.683-1.376,3.214a2.48,2.48,0,0,0-.306,1.667,1.074,1.074,0,0,0,.671.66,2.889,2.889,0,0,0,.721.138,10.921,10.921,0,0,0,2.756.142" transform="translate(-73.716 -22.669)" fill="#263238"/>
            <path id="Trazado_220830" data-name="Trazado 220830" d="M209.161,49.846c.125.422,1.609.3,3.33.6,1.728.267,3.1.861,3.348.5.111-.174-.113-.576-.657-1.006a5.51,5.51,0,0,0-2.448-1.027,5.454,5.454,0,0,0-2.639.186c-.649.233-.986.544-.933.743" transform="translate(-81.274 -18.977)" fill="#263238"/>
            <path id="Trazado_220831" data-name="Trazado 220831" d="M181.372,49.838c.149.35,1.6.162,3.32.32,1.719.128,3.107.553,3.33.234.1-.153-.147-.481-.71-.814a6.019,6.019,0,0,0-2.477-.731,6.216,6.216,0,0,0-2.589.308c-.626.234-.938.516-.874.682" transform="translate(-70.475 -18.972)" fill="#263238"/>
            <path id="Trazado_220832" data-name="Trazado 220832" d="M235.455,71.957c.19-.071,7.6-1.839,6.985,5.6s-7.951,5.288-7.946,5.074.961-10.672.961-10.672" transform="translate(-91.121 -27.871)" fill="#936760"/>
            <path id="Trazado_220833" data-name="Trazado 220833" d="M238.581,81.589c.035-.021.122.1.333.219a1.3,1.3,0,0,0,.967.1,3.216,3.216,0,0,0,1.719-2.754,4.3,4.3,0,0,0-.21-1.884A1.5,1.5,0,0,0,240.5,76.2a.661.661,0,0,0-.793.292c-.117.2-.082.352-.122.362-.023.017-.15-.138-.064-.44a.828.828,0,0,1,.331-.441.984.984,0,0,1,.732-.131,1.827,1.827,0,0,1,1.258,1.264,4.419,4.419,0,0,1,.279,2.11c-.171,1.494-1.053,2.833-2.154,3.055a1.39,1.39,0,0,1-1.168-.294c-.215-.2-.241-.372-.214-.383" transform="translate(-92.706 -29.461)" fill="#6f4c47"/>
            <path id="Trazado_220834" data-name="Trazado 220834" d="M198.4,87.1c-.057-.2,1.445-.452,2.633-1.686a8.389,8.389,0,0,0,1.263-1.806c.282-.511.487-.827.564-.793s.009.394-.182.964a5.5,5.5,0,0,1-1.22,2.046,4.462,4.462,0,0,1-2.069,1.213c-.593.159-.977.126-.989.061" transform="translate(-77.096 -32.179)" fill="#263238"/>
            <path id="Trazado_220835" data-name="Trazado 220835" d="M180.49,56.643c.188.245,1.557-.6,3.371-.429,1.813.148,3.053,1.229,3.272,1.019.106-.092-.068-.518-.606-1a4.559,4.559,0,0,0-2.592-1.094,4.4,4.4,0,0,0-2.71.623c-.6.386-.827.776-.734.886" transform="translate(-70.128 -21.417)" fill="#263238"/>
            <path id="Trazado_220836" data-name="Trazado 220836" d="M180.292,63.608a1.474,1.474,0,0,0,1.345,1.556,1.41,1.41,0,0,0,1.584-1.251,1.474,1.474,0,0,0-1.343-1.557,1.41,1.41,0,0,0-1.585,1.252" transform="translate(-70.057 -24.228)" fill="#263238"/>
            <path id="Trazado_220837" data-name="Trazado 220837" d="M216.576,39.991c-.547,2.075-1.842,6.8-3.7,6.381-3.676-.837-3.45,5.049-5.222,4.356-1.747-.684-2.189-5.368-1.991-7.234.615-5.824,2.85-10.01.389-16.66a8.874,8.874,0,0,0-7.5-4.422,9.026,9.026,0,0,0-7.67,4.293c-.377-2.035-1.441-5.092-3.283-6.034a5.277,5.277,0,0,0-5.8.617,4.294,4.294,0,0,0-.632,5.607,2.053,2.053,0,0,1-2.317-.773,3.505,3.505,0,0,0,.974,2.61,3.233,3.233,0,0,1-1.885-1.249l.6,2.523c-3.081.153-6.166-2.762-7.083-5.4-1.39-4-.483-8.079,1.683-11.712A12.671,12.671,0,0,1,183.5,6.586c4.23-.059,7.818,1.862,9.539,5.727,2.7-2.006,8.244-2.807,11.337-1.486a9.874,9.874,0,0,1,5.8,7.7,5.889,5.889,0,0,1,5.852,1c.137.106.27.216.4.33a8.789,8.789,0,0,1,2.74,8.048c-.2,1.178-.574,2.4-.792,3.348-.646,2.812-1.807,8.747-1.807,8.747" transform="translate(-66.366 -2.559)" fill="#263238"/>
            <path id="Trazado_220838" data-name="Trazado 220838" d="M181.763,31.408a1.119,1.119,0,0,1-.25-.189,4.359,4.359,0,0,1-.621-.651,6.174,6.174,0,0,1-1.278-3.034,5.847,5.847,0,0,1,1.329-4.645,6.309,6.309,0,0,1,5.45-2.2,7.146,7.146,0,0,1,2.943,1.076,9.563,9.563,0,0,1,2.193,1.915,11.406,11.406,0,0,1,2.307,4.311,11.2,11.2,0,0,1,.435,3.27,8.873,8.873,0,0,1-.068.895,1.172,1.172,0,0,1-.057.308,13.534,13.534,0,0,0-.525-4.408,11.455,11.455,0,0,0-2.313-4.183A8.052,8.052,0,0,0,186.355,21a6.053,6.053,0,0,0-5.189,2.078,5.659,5.659,0,0,0-1.329,4.426,6.3,6.3,0,0,0,1.153,2.986c.456.619.8.89.773.915" transform="translate(-69.772 -8.023)" fill="#455a64"/>
            <path id="Trazado_220839" data-name="Trazado 220839" d="M178.98,33.289a1.963,1.963,0,0,1-.226-.346c-.138-.232-.339-.577-.588-1.027a22.3,22.3,0,0,1-1.786-3.975,11.5,11.5,0,0,1-.542-2.976,8.357,8.357,0,0,1,.546-3.435,6.658,6.658,0,0,1,2.4-3,8.092,8.092,0,0,1,3.882-1.385,9.829,9.829,0,0,1,4.086.557,12.826,12.826,0,0,1,3.379,1.822,9.959,9.959,0,0,1,3.764,5.2,7.233,7.233,0,0,1-.113,4.331,5.885,5.885,0,0,1-.514,1.073,2.042,2.042,0,0,1-.245.333,9.736,9.736,0,0,0,.642-1.446,7.3,7.3,0,0,0,.013-4.23,9.831,9.831,0,0,0-3.723-5.021,10.944,10.944,0,0,0-7.262-2.3,7.825,7.825,0,0,0-3.733,1.324,6.39,6.39,0,0,0-2.307,2.849,8.164,8.164,0,0,0-.553,3.316,11.476,11.476,0,0,0,.493,2.92,24.587,24.587,0,0,0,1.68,3.983l.534,1.054a1.96,1.96,0,0,1,.17.377" transform="translate(-68.325 -6.651)" fill="#455a64"/>
            <path id="Trazado_220840" data-name="Trazado 220840" d="M241.342,45.039c-.039-.046.651-.555,1.5-1.615a10.557,10.557,0,0,0,1.829-9.97c-.419-1.293-.883-2.014-.831-2.043a1.932,1.932,0,0,1,.347.49,8.815,8.815,0,0,1,.7,1.48,10.165,10.165,0,0,1-1.869,10.188A8.837,8.837,0,0,1,241.84,44.7a1.946,1.946,0,0,1-.5.334" transform="translate(-93.781 -12.205)" fill="#455a64"/>
            <path id="Trazado_220841" data-name="Trazado 220841" d="M230.611,46.017c-.013-.031.356-.168.917-.57a5.231,5.231,0,0,0,1.765-2.229l.287-.7-.05.752c-.068,1.015-.146,2.185-.23,3.453l-.238-.135a9.437,9.437,0,0,0,2.3-2.358,9.337,9.337,0,0,0,1.521-3.829,9.609,9.609,0,0,0-.1-3.382A12.984,12.984,0,0,0,235.7,34.07c.01-.006.057.053.141.173a6.015,6.015,0,0,1,.333.542A8.908,8.908,0,0,1,237,36.973a9.429,9.429,0,0,1-3.768,9.866l-.265.185L233,46.7c.105-1.267.2-2.435.286-3.449l.237.057a5.119,5.119,0,0,1-1.914,2.248,4.38,4.38,0,0,1-.721.375.823.823,0,0,1-.274.081" transform="translate(-89.612 -13.239)" fill="#455a64"/>
            <path id="Trazado_220842" data-name="Trazado 220842" d="M218.576,26.615a6.852,6.852,0,0,0-1.715-2.04,6.11,6.11,0,0,0-2.617-1.145,6.448,6.448,0,0,0-3.459.394,7.454,7.454,0,0,0-2.857,2.029,8.88,8.88,0,0,0-1.507,2.468,17.254,17.254,0,0,0-.725,2.6,2.565,2.565,0,0,1,.035-.733,9.08,9.08,0,0,1,.481-1.945,8.664,8.664,0,0,1,1.494-2.578,7.551,7.551,0,0,1,2.962-2.133,6.593,6.593,0,0,1,3.628-.386A6.133,6.133,0,0,1,217,24.4a5.36,5.36,0,0,1,1.3,1.535,3.492,3.492,0,0,1,.228.5c.043.117.061.18.051.185" transform="translate(-79.925 -8.952)" fill="#455a64"/>
            <path id="Trazado_220843" data-name="Trazado 220843" d="M216.7,19.248a10.063,10.063,0,0,0-2-.72,7.2,7.2,0,0,0-4.927.812,8.984,8.984,0,0,0-3.418,3.72c-.6,1.178-.779,1.991-.836,1.975a1.814,1.814,0,0,1,.1-.575,8.783,8.783,0,0,1,.536-1.5,8.669,8.669,0,0,1,3.461-3.9,7.1,7.1,0,0,1,5.135-.756,5.463,5.463,0,0,1,1.483.594,1.706,1.706,0,0,1,.471.346" transform="translate(-79.857 -7.041)" fill="#455a64"/>
            <path id="Trazado_220844" data-name="Trazado 220844" d="M147.588,292.3l68.331.931s19.109-8,24.359-8.211,15.671.452,20.491,8.211c4.982,8.019,5.679,22.167-9.676,32.45-14.952,10.012-83.329,19.264-92.7,18.413L141.113,320.9s-.181-19.007,0-19.913,3.077-9.051,3.077-9.051Z" transform="translate(-54.803 -110.74)" fill="#263238"/>
            <path id="Trazado_220845" data-name="Trazado 220845" d="M213.573,349.422l35.4,13.15L232.841,406.7c-4.121-1.8-4.237-27.725-4.237-27.725l-23.03-7.495Z" transform="translate(-79.883 -135.78)" fill="#43a99b"/>
            <g id="Grupo_177746" data-name="Grupo 177746" transform="translate(151.485 228.087)" opacity="0.6">
              <g id="Grupo_177745" data-name="Grupo 177745">
                <g id="Grupo_177744" data-name="Grupo 177744" clip-path="url(#clip-path-4)">
                  <path id="Trazado_220846" data-name="Trazado 220846" d="M248.073,373.814a1.92,1.92,0,0,1,2.513-.494,1.845,1.845,0,0,1,.511,2.486,2.024,2.024,0,0,1-2.663.509,1.915,1.915,0,0,1-.245-2.645" transform="translate(-247.761 -373.047)" fill="#fff"/>
                </g>
              </g>
            </g>
            <path id="Trazado_220847" data-name="Trazado 220847" d="M265.288,370.087l-3.574-1.327-14.163,42.9s.136,2.278,1.6,2.561Z" transform="translate(-96.194 -143.294)" fill="#263238"/>
            <path id="Trazado_220848" data-name="Trazado 220848" d="M242.4,396.763c.218.072.709-.97,1.79-1.777,1.06-.836,2.193-1.041,2.18-1.27.031-.215-1.375-.364-2.666.636s-1.519,2.385-1.3,2.411" transform="translate(-94.164 -152.931)" fill="#263238"/>
            <path id="Trazado_220849" data-name="Trazado 220849" d="M242.782,406.222c.191.126.9-.674,2.078-1.072,1.167-.434,2.22-.258,2.289-.476.108-.19-1.1-.8-2.556-.278s-2.015,1.746-1.81,1.825" transform="translate(-94.325 -157.062)" fill="#263238"/>
            <path id="Trazado_220850" data-name="Trazado 220850" d="M247.549,414.64c.118-.179-.849-.872-2.232-.751s-2.221.958-2.075,1.115c.133.186,1.005-.236,2.142-.319,1.134-.109,2.065.161,2.164-.045" transform="translate(-94.514 -160.825)" fill="#263238"/>
            <path id="Trazado_220851" data-name="Trazado 220851" d="M234,392.185c.229-.018.293-1.116.822-2.3.5-1.2,1.26-2,1.116-2.177-.11-.181-1.246.452-1.849,1.86s-.3,2.665-.089,2.621" transform="translate(-90.824 -150.644)" fill="#263238"/>
            <path id="Trazado_220852" data-name="Trazado 220852" d="M225.128,385.3a4.415,4.415,0,0,0,.8-2.215,10.58,10.58,0,0,0,.135-2.572,11.074,11.074,0,0,0-.209-1.516,2.892,2.892,0,0,0-.276-.857,1,1,0,0,0-1.11-.518,1.259,1.259,0,0,0-.838.764,3.059,3.059,0,0,0-.188.871,8.46,8.46,0,0,0-.031,1.547,8.3,8.3,0,0,0,.592,2.527c.574,1.37,1.251,2.014,1.319,1.956.107-.072-.385-.817-.787-2.145a9.4,9.4,0,0,1-.39-2.377,8.725,8.725,0,0,1,.073-1.412c.048-.512.19-.912.442-.955.1-.015.128-.009.229.139a2.335,2.335,0,0,1,.2.63,12.327,12.327,0,0,1,.24,1.411,13.046,13.046,0,0,1,.038,2.436,16.124,16.124,0,0,0-.237,2.285" transform="translate(-86.804 -146.725)" fill="#263238"/>
            <path id="Trazado_220853" data-name="Trazado 220853" d="M222.018,388.684c.061-.064-.555-.774-1.922-1.363a7.616,7.616,0,0,0-4.078-.511,1.946,1.946,0,0,0-1.631,1,1.1,1.1,0,0,0,.279,1.148,3.21,3.21,0,0,0,.727.523,5.231,5.231,0,0,0,1.488.545,5.413,5.413,0,0,0,2.628-.109c1.459-.444,2.045-1.25,1.979-1.294a19.12,19.12,0,0,1-2.112.746,5.412,5.412,0,0,1-2.333-.061,4.832,4.832,0,0,1-1.262-.507c-.444-.24-.758-.555-.646-.713.076-.221.566-.464,1.006-.508a7.788,7.788,0,0,1,1.4-.109,8.443,8.443,0,0,1,2.362.378c1.317.413,2.04.938,2.116.833" transform="translate(-83.282 -150.275)" fill="#263238"/>
            <path id="Trazado_220854" data-name="Trazado 220854" d="M149.119,340.5,114.858,356.4l19.553,42.726c3.967-2.117,2.046-27.972,2.046-27.972l22.369-9.281Z" transform="translate(-44.632 -132.314)" fill="#43a99b"/>
            <g id="Grupo_177749" data-name="Grupo 177749" transform="translate(84.411 224.128)" opacity="0.6">
              <g id="Grupo_177748" data-name="Grupo 177748">
                <g id="Grupo_177747" data-name="Grupo 177747" clip-path="url(#clip-path-5)">
                  <path id="Trazado_220855" data-name="Trazado 220855" d="M141.278,367.22a1.919,1.919,0,0,0-2.544-.295,1.844,1.844,0,0,0-.315,2.518,2.025,2.025,0,0,0,2.7.3,1.914,1.914,0,0,0,.037-2.656" transform="translate(-138.059 -366.573)" fill="#fff"/>
                </g>
              </g>
            </g>
            <path id="Trazado_220856" data-name="Trazado 220856" d="M114.858,365.476l3.458-1.6,17.491,41.651s.043,2.281-1.4,2.679Z" transform="translate(-44.632 -141.395)" fill="#263238"/>
            <path id="Trazado_220857" data-name="Trazado 220857" d="M148.39,389.734c-.212.089-.784-.912-1.925-1.631-1.121-.75-2.267-.865-2.273-1.1-.047-.211,1.343-.47,2.708.425s1.7,2.258,1.489,2.3" transform="translate(-56.03 -150.306)" fill="#263238"/>
            <path id="Trazado_220858" data-name="Trazado 220858" d="M148.531,399.168c-.18.14-.948-.6-2.155-.905-1.2-.341-2.234-.083-2.32-.294-.122-.182,1.033-.885,2.526-.478s2.145,1.582,1.949,1.677" transform="translate(-55.975 -154.41)" fill="#263238"/>
            <path id="Trazado_220859" data-name="Trazado 220859" d="M144.506,407.9c-.131-.169.778-.937,2.166-.924s2.289.781,2.155.948c-.117.2-1.02-.157-2.16-.15-1.139-.02-2.046.323-2.161.125" transform="translate(-56.148 -158.146)" fill="#263238"/>
            <path id="Trazado_220860" data-name="Trazado 220860" d="M157.552,384.447c-.23,0-.38-1.09-1-2.232-.6-1.156-1.412-1.892-1.283-2.082.1-.19,1.278.353,1.99,1.709s.505,2.633.294,2.605" transform="translate(-60.329 -147.699)" fill="#263238"/>
            <path id="Trazado_220861" data-name="Trazado 220861" d="M165.712,376.843a4.419,4.419,0,0,1-.968-2.145,10.576,10.576,0,0,1-.336-2.553,11.016,11.016,0,0,1,.089-1.528,2.9,2.9,0,0,1,.208-.876,1,1,0,0,1,1.066-.6,1.259,1.259,0,0,1,.9.7,3.067,3.067,0,0,1,.256.854,8.4,8.4,0,0,1,.153,1.539,8.3,8.3,0,0,1-.393,2.566c-.464,1.411-1.089,2.106-1.162,2.053-.112-.063.32-.844.616-2.2a9.4,9.4,0,0,0,.2-2.4,8.79,8.79,0,0,0-.184-1.4c-.088-.507-.261-.893-.515-.917-.1-.007-.129,0-.218.157a2.33,2.33,0,0,0-.15.643,12.482,12.482,0,0,0-.129,1.426,13.023,13.023,0,0,0,.154,2.432,16.2,16.2,0,0,1,.415,2.26" transform="translate(-63.886 -143.433)" fill="#263238"/>
            <path id="Trazado_220862" data-name="Trazado 220862" d="M165.846,380.034c-.066-.059.492-.815,1.809-1.51a7.614,7.614,0,0,1,4.025-.83,1.944,1.944,0,0,1,1.705.871,1.1,1.1,0,0,1-.188,1.167,3.191,3.191,0,0,1-.684.579,5.274,5.274,0,0,1-1.441.661,5.413,5.413,0,0,1-2.629.1c-1.489-.328-2.137-1.085-2.074-1.134a19.271,19.271,0,0,0,2.164.577,5.427,5.427,0,0,0,2.32-.243,4.85,4.85,0,0,0,1.219-.605c.424-.275.712-.613.588-.761a1.345,1.345,0,0,0-1.043-.428,7.778,7.778,0,0,0-1.4,0,8.431,8.431,0,0,0-2.325.563c-1.281.515-1.96,1.1-2.044,1" transform="translate(-64.443 -146.759)" fill="#263238"/>
            <path id="Trazado_220863" data-name="Trazado 220863" d="M110.1,290.173s-29.507-11.02-40.368-9.594c-6.073.8-15.568,5.431-16.292,13.215s1.175,18.2,11.674,23.265,52.4,23.874,62.361,26.77,34.78,9.679,34.78,9.679l9.431-26.875s-51.449-17.814-54.164-19.8-9.594-4.706-9.594-4.706Z" transform="translate(-20.713 -108.979)" fill="#263238"/>
            <path id="Trazado_220864" data-name="Trazado 220864" d="M264.353,301.178a1.07,1.07,0,0,1-.2-.053l-.592-.18c-.521-.157-1.291-.382-2.3-.621a27.467,27.467,0,0,0-3.7-.643,27.161,27.161,0,0,0-4.965.006,28.821,28.821,0,0,0-5.9,1.125,20.58,20.58,0,0,0-3.115,1.215l-3.212,1.568c-4.414,2.11-9.344,4.27-14.594,6.344-10.515,4.213-20.608,6.212-27.8,7.847-3.61.8-6.529,1.456-8.54,1.935l-2.317.548-.6.137a1.12,1.12,0,0,1-.208.036,1.047,1.047,0,0,1,.2-.068l.6-.167c.526-.141,1.3-.357,2.3-.607,2-.515,4.916-1.207,8.52-2.034,7.187-1.692,17.253-3.723,27.736-7.923,5.244-2.071,10.17-4.221,14.585-6.313l3.214-1.554a20.576,20.576,0,0,1,3.162-1.217,28.688,28.688,0,0,1,5.963-1.1,26.865,26.865,0,0,1,5,.041,26.325,26.325,0,0,1,3.71.7c1,.259,1.77.5,2.285.681l.583.21a1.058,1.058,0,0,1,.194.084" transform="translate(-72.392 -116.329)" fill="#455a64"/>
            <path id="Trazado_220865" data-name="Trazado 220865" d="M301.3,295.468c-.01.051-.9-.109-2.343-.265a35.32,35.32,0,0,0-11.282.58c-1.422.3-2.289.554-2.3.5a2.464,2.464,0,0,1,.591-.238c.385-.137.953-.305,1.662-.485a29.616,29.616,0,0,1,11.36-.584c.724.107,1.306.216,1.7.312a2.458,2.458,0,0,1,.611.176" transform="translate(-110.891 -114.509)" fill="#455a64"/>
            <path id="Trazado_220866" data-name="Trazado 220866" d="M115.032,305.258c-.034.045-.852-.589-2.266-1.465a30.082,30.082,0,0,0-12.145-4.286c-1.651-.205-2.684-.225-2.684-.281a3.2,3.2,0,0,1,.727-.038,19.153,19.153,0,0,1,1.981.1,26.84,26.84,0,0,1,12.242,4.32,19.506,19.506,0,0,1,1.6,1.168,3.224,3.224,0,0,1,.542.486" transform="translate(-38.057 -116.259)" fill="#455a64"/>
            <path id="Trazado_220867" data-name="Trazado 220867" d="M128.789,340.018s.079.026.23.088l.67.281c.594.24,1.452.647,2.606,1.09,2.3.912,5.695,2.162,10.05,3.595,8.716,2.848,21.245,6.477,36.237,10.253l-.17.091,9.122-25.321.088.2-11.3-4.637-62.509-25.726-.021-.009-.015-.016c-2.544-2.694-4.885-5.067-7.08-6.982a47.8,47.8,0,0,0-5.935-4.472A43.771,43.771,0,0,0,96.7,286.18l-1.093-.51c-.246-.116-.368-.183-.368-.183s.131.048.38.155l1.107.484a40.531,40.531,0,0,1,4.108,2.227,47.019,47.019,0,0,1,5.983,4.444c2.211,1.909,4.569,4.278,7.124,6.962l-.036-.025,62.548,25.629,11.3,4.64.14.057-.051.142-9.148,25.311-.045.123-.125-.032c-14.994-3.8-27.516-7.471-36.222-10.368-4.351-1.457-7.742-2.734-10.031-3.673-1.149-.456-2-.879-2.592-1.132l-.661-.3c-.147-.069-.22-.109-.22-.109" transform="translate(-37.006 -110.936)" fill="#455a64"/>
            <path id="Trazado_220868" data-name="Trazado 220868" d="M256.4,142.548s8.5,4.894,10.217,10.645c1.046,3.491,8.971,48.158,10.225,56.965,1.266,8.892-1.392,15.332-5.148,18.253s-15.141,6.814-15.141,6.814l-16.018,5.188-4.591-11.685,15.247-21.9-1.475-14.755Z" transform="translate(-91.683 -55.392)" fill="#43a99b"/>
            <path id="Trazado_220869" data-name="Trazado 220869" d="M177.254,127.014l-6.386-3.644s-5.814,6.8-13.743,5.966a19.932,19.932,0,0,1-12.625-6.9l-23.646,4.816c-1.587.318-4.48,1.32-7.247,5.273-3.087,4.411-17.718,23.968-17.718,23.968H85.64a7.6,7.6,0,0,0-6.732,4.062c-1.749,3.33-3.849,7.784-3.644,9.63.347,3.119-.255,11.686,3.929,14.36,1.327.848,6.076,3.393,9.759,3.219,5.436-.256,11.75-3.087,15.388-5.631,3.08-2.153,10.245-9.6,13-12.506l0,.045,1.769,62.033,62-1.766,12.848-95.205s-16.074-7.717-16.7-7.717" transform="translate(-29.241 -47.575)" fill="#43a99b"/>
            <path id="Trazado_220870" data-name="Trazado 220870" d="M143.7,157.111c.088,0,.25,7.688.362,17.172s.131,17.176.043,17.177-.249-7.687-.361-17.173-.131-17.174-.043-17.175" transform="translate(-55.817 -61.051)" fill="#263238"/>
            <path id="Trazado_220871" data-name="Trazado 220871" d="M263,239.123c0,.032-.526.084-1.462.263a18.01,18.01,0,0,0-3.839,1.222,24.972,24.972,0,0,0-5.111,3.087,44.637,44.637,0,0,0-5.385,4.98c-1.775,1.914-3.392,3.809-4.915,5.49a59.359,59.359,0,0,1-4.223,4.3,30.007,30.007,0,0,1-3.174,2.54c-.389.281-.715.464-.928.6a1.783,1.783,0,0,1-.338.187,1.709,1.709,0,0,1,.3-.241c.2-.154.514-.353.891-.648a35.677,35.677,0,0,0,3.094-2.605c1.252-1.164,2.653-2.642,4.157-4.333s3.118-3.59,4.9-5.511a43.176,43.176,0,0,1,5.44-5,24.288,24.288,0,0,1,5.2-3.06,16.629,16.629,0,0,1,3.906-1.138,10.493,10.493,0,0,1,1.1-.126,1.744,1.744,0,0,1,.385-.015" transform="translate(-90.785 -92.917)" fill="#263238"/>
            <path id="Trazado_220872" data-name="Trazado 220872" d="M274.913,232.249c.009.057-.939.188-2.416.6a22.444,22.444,0,0,0-10.154,6.049c-1.063,1.1-1.628,1.875-1.675,1.84a2.731,2.731,0,0,1,.359-.569,14.805,14.805,0,0,1,1.151-1.425,20.4,20.4,0,0,1,10.262-6.114,14.815,14.815,0,0,1,1.8-.334,2.691,2.691,0,0,1,.671-.045" transform="translate(-101.291 -90.245)" fill="#263238"/>
            <g id="Grupo_177752" data-name="Grupo 177752" transform="translate(58.233 109.519)" opacity="0.3">
              <g id="Grupo_177751" data-name="Grupo 177751">
                <g id="Grupo_177750" data-name="Grupo 177750" clip-path="url(#clip-path-6)">
                  <path id="Trazado_220873" data-name="Trazado 220873" d="M95.242,200.721c3.281.895,7.223-3.828,10.2-6.782,1.551-1.538,3.162-3.178,3.734-5.284a8.4,8.4,0,0,0-.515-5.291,19.492,19.492,0,0,0-2.183-4.24c.275,2.548.9,6.452.045,9.654a17.141,17.141,0,0,1-4.2,6.812c-1.9,2.133-4.146,4.373-7.082,5.131" transform="translate(-95.242 -179.124)"/>
                </g>
              </g>
            </g>
            <path id="Trazado_220874" data-name="Trazado 220874" d="M116.275,197.914c-.062-.02.319-1.082.626-2.861a21.822,21.822,0,0,0,.3-3.15,21.656,21.656,0,0,0-1.2-7.616,21.777,21.777,0,0,0-1.257-2.9c-.841-1.6-1.53-2.491-1.477-2.528a3.771,3.771,0,0,1,.5.609,8.125,8.125,0,0,1,.532.761c.193.306.43.646.639,1.052a19.694,19.694,0,0,1,1.336,2.913,20.525,20.525,0,0,1,1.219,7.722,19.631,19.631,0,0,1-.372,3.183c-.075.451-.2.847-.284,1.2a8.084,8.084,0,0,1-.271.887,3.751,3.751,0,0,1-.292.736" transform="translate(-44.012 -69.5)" fill="#263238"/>
            <path id="Trazado_220875" data-name="Trazado 220875" d="M190.955,126.346c.042.083-.684.506-1.444,1.189s-1.27,1.348-1.348,1.3a4.662,4.662,0,0,1,2.792-2.485" transform="translate(-73.114 -49.092)" fill="#263238"/>
            <path id="Trazado_220876" data-name="Trazado 220876" d="M202.094,132.481c.067.067-.557.737-1.059,1.726s-.693,1.881-.787,1.866a4.562,4.562,0,0,1,1.846-3.592" transform="translate(-77.801 -51.478)" fill="#263238"/>
            <path id="Trazado_220877" data-name="Trazado 220877" d="M220.492,136.475a9.908,9.908,0,0,1-.71-1.85,9.908,9.908,0,0,1-.633-1.878,7.212,7.212,0,0,1,1.343,3.727" transform="translate(-85.153 -51.583)" fill="#263238"/>
            <path id="Trazado_220878" data-name="Trazado 220878" d="M231.383,130.712c-.095.021-.337-1.061-1.037-2.2s-1.533-1.867-1.471-1.941a5.41,5.41,0,0,1,2.508,4.144" transform="translate(-88.936 -49.181)" fill="#263238"/>
            <path id="Trazado_220879" data-name="Trazado 220879" d="M263.183,166.2c.087.012-.962,8.485-2.344,18.923s-2.573,18.895-2.66,18.883.962-8.483,2.344-18.925,2.573-18.893,2.66-18.881" transform="translate(-100.322 -64.585)" fill="#263238"/>
            <path id="Trazado_220880" data-name="Trazado 220880" d="M106.041,188.644a4.524,4.524,0,0,1-.019.876,6.689,6.689,0,0,1-.127,1.02c-.034.2-.07.412-.108.634s-.115.454-.177.7a18.905,18.905,0,0,1-1.222,3.329,22.758,22.758,0,0,1-2.278,3.7,19.513,19.513,0,0,1-3.028,3.119,13.042,13.042,0,0,1-3.04,1.834c-.235.1-.454.2-.668.275l-.622.173-.54.147c-.168.037-.327.045-.467.065a4.617,4.617,0,0,1-.873.07,15.706,15.706,0,0,0,3.08-.936,13.6,13.6,0,0,0,2.947-1.856,20.3,20.3,0,0,0,2.96-3.085,23.925,23.925,0,0,0,2.266-3.634,20.329,20.329,0,0,0,1.269-3.261,30.451,30.451,0,0,0,.647-3.169" transform="translate(-36.088 -73.304)" fill="#263238"/>
            <g id="Grupo_177755" data-name="Grupo 177755" transform="translate(88.677 138.889)" opacity="0.3">
              <g id="Grupo_177754" data-name="Grupo 177754">
                <g id="Grupo_177753" data-name="Grupo 177753" clip-path="url(#clip-path-7)">
                  <path id="Trazado_220881" data-name="Trazado 220881" d="M217.224,274.519c2.628-1.271,3.226-4.681,3.495-7.589q1.179-12.782,2.358-25.564c.369-4.006.55-8.58-2.276-11.444-2.581-2.616-6.68-2.773-10.355-2.762-22.687.066-42.723.728-65.41.794l1.156,39.686Z" transform="translate(-145.035 -227.16)"/>
                </g>
              </g>
            </g>
            <path id="Trazado_220882" data-name="Trazado 220882" d="M129.04,236.277l2.416,46.029a3.36,3.36,0,0,0,3.374,3.164l73.321.128a3.362,3.362,0,0,0,3.373-3.177l2.8-45.247c.092-1.88-1.245-4.379-3.148-4.416l-78.694.007a3.358,3.358,0,0,0-3.441,3.512" transform="translate(-50.141 -90.446)" fill="#e0e0e0"/>
            <path id="Trazado_220883" data-name="Trazado 220883" d="M129.036,236.182s-.006-.057-.008-.172a2.907,2.907,0,0,1,.028-.512,3.306,3.306,0,0,1,.869-1.793,3.355,3.355,0,0,1,1.226-.835,4.315,4.315,0,0,1,1.771-.247l4.458-.015,28.409-.053,42.133-.038,2.992,0a2.652,2.652,0,0,1,1.515.386,3.777,3.777,0,0,1,1.119,1.1,5.29,5.29,0,0,1,.921,2.968q-.092,1.54-.183,3.1-.382,6.214-.78,12.678c-.531,8.612-1.082,17.528-1.645,26.66l-.106,1.711c-.048.574-.04,1.124-.141,1.724a3.509,3.509,0,0,1-2.211,2.595,4.319,4.319,0,0,1-1.722.23l-1.686,0-3.355-.007-13.164-.025-24.885-.053-22.518-.054-5.2-.013-1.271,0a10.764,10.764,0,0,1-1.273-.04,3.509,3.509,0,0,1-2.2-1.215,3.548,3.548,0,0,1-.818-2.317q-.061-1.2-.122-2.377-.12-2.351-.236-4.6c-.607-11.975-1.1-21.666-1.438-28.37-.163-3.345-.289-5.944-.375-7.714-.039-.877-.068-1.548-.089-2.007s-.02-.684-.02-.684.023.231.052.682.068,1.129.121,2c.1,1.77.246,4.367.435,7.711.364,6.7.89,16.393,1.54,28.365q.12,2.246.246,4.6.063,1.176.127,2.376a3.3,3.3,0,0,0,.766,2.171,3.258,3.258,0,0,0,2.045,1.125,10.571,10.571,0,0,0,1.239.035h1.27l5.2,0,22.518.024,24.885.034,13.164.02,3.355.005,1.686,0a3.983,3.983,0,0,0,1.609-.21,3.189,3.189,0,0,0,2.01-2.359c.091-.522.09-1.118.136-1.68l.106-1.711c.566-9.132,1.118-18.048,1.652-26.66q.4-6.458.788-12.678.094-1.551.185-3.086a4.994,4.994,0,0,0-.866-2.792,2.727,2.727,0,0,0-2.39-1.359H207.92l-42.133-.03-28.408-.048-4.457-.015a4.244,4.244,0,0,0-1.742.226,3.344,3.344,0,0,0-2.092,2.559,6.661,6.661,0,0,0-.051.68" transform="translate(-50.137 -90.35)" fill="#263238"/>
            <path id="Trazado_220884" data-name="Trazado 220884" d="M201.246,272.487a4.319,4.319,0,1,1-4.319-4.318,4.319,4.319,0,0,1,4.319,4.318" transform="translate(-74.845 -104.206)" fill="#fff"/>
            <path id="Trazado_220885" data-name="Trazado 220885" d="M201.145,272.4c-.035,0-.019-.385-.2-1.039a4.3,4.3,0,0,0-1.579-2.3,4.194,4.194,0,0,0-3.966-.575,4.13,4.13,0,0,0-1.931,1.458,4.151,4.151,0,0,0,0,4.92,4.132,4.132,0,0,0,1.931,1.459,4.2,4.2,0,0,0,3.966-.575,4.309,4.309,0,0,0,1.579-2.3c.176-.655.16-1.041.2-1.039a.9.9,0,0,1,.018.277,3.4,3.4,0,0,1-.094.792,4.3,4.3,0,0,1-1.562,2.453,4.381,4.381,0,0,1-1.86.85,4.452,4.452,0,0,1-2.342-.178,4.4,4.4,0,0,1-2.083-1.549,4.439,4.439,0,0,1,0-5.29,4.4,4.4,0,0,1,2.082-1.549,4.445,4.445,0,0,1,2.342-.177,4.372,4.372,0,0,1,1.86.849,4.3,4.3,0,0,1,1.562,2.453,3.4,3.4,0,0,1,.094.792.9.9,0,0,1-.018.277" transform="translate(-74.744 -104.122)" fill="#263238"/>
            <path id="Trazado_220886" data-name="Trazado 220886" d="M133.071,246.847c.088,0,.449,7.732.807,17.274s.577,17.285.489,17.288-.449-7.73-.807-17.276-.577-17.283-.489-17.287" transform="translate(-51.702 -95.921)" fill="#263238"/>
            <path id="Trazado_220887" data-name="Trazado 220887" d="M94.712,129.572c-.429-.363,1.449-7.592,1.449-7.592s-4.974-8.116-5.1-10.734,1.963-7.984,1.963-7.984L107.288,99.6s4.583,8.508,5.5,11.519-1.571,13.221-1.571,13.221l-2.417,5.236s-7.289,5.76-14.086,0" transform="translate(-35.381 -38.701)" fill="#936760"/>
            <path id="Trazado_220888" data-name="Trazado 220888" d="M89.431,101.694a31.509,31.509,0,0,1-1.5-3.168c-.9-2.142-2.013-4.243,0-5.442a2.627,2.627,0,0,1,2.15-.339s-.309-1.8.769-2.481a2.321,2.321,0,0,1,2.115-.183s-.34-2.543,1.211-3.623a3.765,3.765,0,0,1,3.952-.112S96.9,75.213,96.79,74.623c-.391-2.165.41-4.081,2.564-3.546.789.2,1.228,1.028,2.153,4.653s2.413,9.814,2.413,9.814,2.506,4.354,3.689,6.716,3.523,7.739,3.718,9.163c.5,3.684-1.653,8.56-1.653,8.56l-15.167.88s-4.5-8.112-5.078-9.168" transform="translate(-33.728 -27.584)" fill="#936760"/>
            <path id="Trazado_220889" data-name="Trazado 220889" d="M91.1,107.36A12.571,12.571,0,0,1,92.269,109l1.2,1.825a7.719,7.719,0,0,1,.652,1.14,2.321,2.321,0,0,1,.179,1.447,1.458,1.458,0,0,1-.958,1.123,1.9,1.9,0,0,1-1.359-.168,6.132,6.132,0,0,1-1.014-.627c-.3-.215-.571-.42-.817-.612-.492-.385-.874-.714-1.131-.95s-.389-.377-.375-.394c.031-.036.631.444,1.64,1.164A13.487,13.487,0,0,0,92.1,114.1a1.627,1.627,0,0,0,1.143.138,1.147,1.147,0,0,0,.742-.9,2.033,2.033,0,0,0-.155-1.255,7.945,7.945,0,0,0-.612-1.1l-1.142-1.862a12.657,12.657,0,0,1-.984-1.759" transform="translate(-34.446 -41.718)" fill="#6f4c47"/>
            <path id="Trazado_220890" data-name="Trazado 220890" d="M112.95,106.613a7.05,7.05,0,0,1,1.1-4.577c.084.041-.337,1.011-.636,2.268s-.375,2.311-.469,2.309" transform="translate(-43.863 -39.649)" fill="#6f4c47"/>
            <path id="Trazado_220891" data-name="Trazado 220891" d="M113.22,112.948a10.054,10.054,0,0,0-5.074-2.648,19.1,19.1,0,0,0-5.777-.222c-1.543.14-3.3.539-4.007,1.92a3.3,3.3,0,0,0,1.516,4.07,7.681,7.681,0,0,0,4.649.706,19.547,19.547,0,0,1,4.765-.2" transform="translate(-38.121 -42.73)" fill="#936760"/>
            <path id="Trazado_220892" data-name="Trazado 220892" d="M109.194,116.486c0,.027-.427-.04-1.2-.032a31.993,31.993,0,0,0-3.251.309,13.79,13.79,0,0,1-2.276.1,6.178,6.178,0,0,1-2.555-.642,3.925,3.925,0,0,1-1.9-2.207,2.988,2.988,0,0,1-.108-1.579,2.7,2.7,0,0,1,.836-1.4,5.443,5.443,0,0,1,2.916-1.132,24.582,24.582,0,0,1,2.882-.174,14.576,14.576,0,0,1,4.822.73,9.656,9.656,0,0,1,2.894,1.562,6.812,6.812,0,0,1,.664.6,1.142,1.142,0,0,1,.2.24c-.021.022-.317-.291-.939-.742a10.3,10.3,0,0,0-2.89-1.447,14.839,14.839,0,0,0-4.749-.65,25.383,25.383,0,0,0-2.841.189,5.185,5.185,0,0,0-2.744,1.059,2.388,2.388,0,0,0-.741,1.236,2.685,2.685,0,0,0,.094,1.411,3.644,3.644,0,0,0,1.74,2.046,5.981,5.981,0,0,0,2.433.638,14.105,14.105,0,0,0,2.238-.057,25.523,25.523,0,0,1,3.275-.208,7.49,7.49,0,0,1,.891.083,1.119,1.119,0,0,1,.3.073" transform="translate(-38.023 -42.637)" fill="#6f4c47"/>
            <path id="Trazado_220893" data-name="Trazado 220893" d="M92.832,107.111c1.6,2.424,3,5.087,4.35,7.658a4.75,4.75,0,0,0,1.524,1.982c.575.355,2-.289,2.642-.508l-4.381-9.97" transform="translate(-36.073 -41.296)" fill="#936760"/>
            <path id="Trazado_220894" data-name="Trazado 220894" d="M96.965,106.272a4.616,4.616,0,0,1,.389.743l.97,2.088c.812,1.777,1.925,4.262,3.167,7.076l.068.155-.162.058c-.473.169-.981.382-1.529.52a3.132,3.132,0,0,1-.67.1,1.163,1.163,0,0,1-.359-.038.964.964,0,0,1-.33-.163,3.412,3.412,0,0,1-.882-.943c-.451-.707-.769-1.417-1.124-2.075-.688-1.326-1.319-2.514-1.867-3.5s-1.006-1.777-1.327-2.322a6.519,6.519,0,0,1-.478-.859,5.223,5.223,0,0,1,.583.793c.353.526.845,1.3,1.417,2.276s1.227,2.155,1.93,3.475c.361.652.7,1.376,1.124,2.039a3.127,3.127,0,0,0,.8.856,1.318,1.318,0,0,0,1.1.052c.518-.13,1.011-.335,1.5-.509l-.094.213c-1.233-2.817-2.311-5.317-3.071-7.118l-.882-2.127a4.6,4.6,0,0,1-.284-.789" transform="translate(-36.072 -41.295)" fill="#6f4c47"/>
            <path id="Trazado_220895" data-name="Trazado 220895" d="M97.661,100.2q2.112,5.3,4.225,10.6a7.25,7.25,0,0,0,1.136,2.125,2.456,2.456,0,0,0,2.127.927,2.513,2.513,0,0,0,1.876-2.443,7.92,7.92,0,0,0-.791-3.216,67.062,67.062,0,0,1-3.03-9.916" transform="translate(-37.949 -38.188)" fill="#936760"/>
            <path id="Trazado_220896" data-name="Trazado 220896" d="M103.2,98.276a1.35,1.35,0,0,1,.106.323l.251.936c.218.813.536,1.988.983,3.424s1.022,3.131,1.749,4.98a10.291,10.291,0,0,1,.885,3.031,3.284,3.284,0,0,1-.319,1.683,2.469,2.469,0,0,1-1.271,1.244,2.133,2.133,0,0,1-1.774-.144,3.327,3.327,0,0,1-1.247-1.175,18.717,18.717,0,0,1-1.278-2.879l-1.928-4.927-1.274-3.332-.331-.912a1.408,1.408,0,0,1-.1-.326,1.347,1.347,0,0,1,.155.3l.387.89c.34.82.8,1.935,1.368,3.294l1.991,4.9a19.053,19.053,0,0,0,1.266,2.817,3.026,3.026,0,0,0,1.132,1.065,1.819,1.819,0,0,0,1.513.128,2.161,2.161,0,0,0,1.1-1.087,2.969,2.969,0,0,0,.292-1.525,10.157,10.157,0,0,0-.847-2.943c-.715-1.863-1.271-3.573-1.691-5.022s-.706-2.636-.888-3.459c-.089-.412-.155-.732-.193-.951a1.359,1.359,0,0,1-.044-.337" transform="translate(-37.948 -38.188)" fill="#6f4c47"/>
            <path id="Trazado_220897" data-name="Trazado 220897" d="M91.8,140.845s-9.676,28.518-10.058,29.918,1.909,11.586,6.111,14,12.349-7.638,13.368-11.331,0-9.931,0-9.931l6.522-24.573" transform="translate(-31.747 -53.988)" fill="#936760"/>
            <path id="Trazado_220898" data-name="Trazado 220898" d="M110.884,132.3a1.828,1.828,0,0,1-.91-.119,5.082,5.082,0,0,1-3.194-2.929,1.829,1.829,0,0,1-.2-.9,6.482,6.482,0,0,0,4.3,3.945" transform="translate(-41.411 -49.877)" fill="#6f4c47"/>
          </g>
        </g>
        <g id="Grupo_177759" data-name="Grupo 177759">
          <g id="Grupo_177758" data-name="Grupo 177758" clip-path="url(#clip-path-2)">
            <path id="Trazado_220899" data-name="Trazado 220899" d="M94.265,51.95H25.643a3.232,3.232,0,0,1-3.232-3.232V29.684a3.232,3.232,0,0,1,3.232-3.231H94.265A3.232,3.232,0,0,1,97.5,29.684V48.718a3.232,3.232,0,0,1-3.232,3.232" transform="translate(-8.709 -10.279)" fill="url(#linear-gradient)"/>
            <path id="Trazado_220900" data-name="Trazado 220900" d="M101.882,51.889H35.894a3.453,3.453,0,0,1-3.449-3.449V29.757a3.453,3.453,0,0,1,3.449-3.449h65.988a3.453,3.453,0,0,1,3.449,3.449V48.44a3.452,3.452,0,0,1-3.449,3.449M35.894,26.919a2.841,2.841,0,0,0-2.838,2.838V48.44a2.841,2.841,0,0,0,2.838,2.838h65.988a2.841,2.841,0,0,0,2.838-2.838V29.757a2.841,2.841,0,0,0-2.838-2.838Z" transform="translate(-12.608 -10.223)" fill="#12263f"/>
            <path id="Trazado_220901" data-name="Trazado 220901" d="M44.993,44.959a2.938,2.938,0,0,1,5.092-1.814l-.793.732a1.716,1.716,0,0,0-1.341-.625,1.707,1.707,0,1,0,0,3.415,1.7,1.7,0,0,0,1.341-.633l.793.732a2.933,2.933,0,0,1-5.092-1.807" transform="translate(-17.484 -16.398)" fill="#fff"/>
            <path id="Trazado_220902" data-name="Trazado 220902" d="M54.674,42.35h1.235v4.329h2.676v1.006H54.674Z" transform="translate(-21.246 -16.456)" fill="#fff"/>
            <rect id="Rectángulo_57275" data-name="Rectángulo 57275" width="1.235" height="5.336" transform="translate(38.03 25.893)" fill="#fff"/>
            <path id="Trazado_220903" data-name="Trazado 220903" d="M65.739,44.959a2.938,2.938,0,0,1,5.092-1.814l-.793.732a1.716,1.716,0,0,0-1.341-.625,1.707,1.707,0,1,0,0,3.415,1.7,1.7,0,0,0,1.341-.633l.793.732a2.933,2.933,0,0,1-5.092-1.807" transform="translate(-25.545 -16.398)" fill="#fff"/>
            <path id="Trazado_220904" data-name="Trazado 220904" d="M77.364,45.589l-.717.747v1.349H75.42V42.35h1.227v2.492L79.01,42.35h1.372l-2.21,2.378,2.34,2.957h-1.44Z" transform="translate(-29.307 -16.457)" fill="#fff"/>
            <path id="Trazado_220905" data-name="Trazado 220905" d="M93.059,42.35v5.336H91.824V45.5H89.4v2.188H88.166V42.35H89.4v2.1h2.424v-2.1Z" transform="translate(-34.26 -16.456)" fill="#fff"/>
            <path id="Trazado_220906" data-name="Trazado 220906" d="M102.365,46.695v.991H98.234V42.35h4.032v.991h-2.8V44.5h2.477v.96H99.461v1.235Z" transform="translate(-38.172 -16.456)" fill="#fff"/>
            <path id="Trazado_220907" data-name="Trazado 220907" d="M109.993,47.685,108.964,46.2h-1.135v1.486h-1.235V42.35H108.9c1.425,0,2.317.739,2.317,1.936a1.735,1.735,0,0,1-1.1,1.684l1.2,1.715Zm-1.159-4.329h-1.006v1.86h1.006c.754,0,1.135-.351,1.135-.93s-.381-.93-1.135-.93" transform="translate(-41.421 -16.457)" fill="#fff"/>
            <path id="Trazado_220908" data-name="Trazado 220908" d="M119.883,46.695v.991h-4.131V42.35h4.032v.991h-2.8V44.5h2.477v.96H116.98v1.235Z" transform="translate(-44.979 -16.456)" fill="#fff"/>
            <path id="Trazado_220909" data-name="Trazado 220909" d="M145.631,65.072a6.71,6.71,0,0,1-1.288-1.6,6.743,6.743,0,0,1-1.025-1.779,6.71,6.71,0,0,1,1.288,1.6,6.722,6.722,0,0,1,1.025,1.779" transform="translate(-55.688 -23.972)" fill="#12263f"/>
            <path id="Trazado_220910" data-name="Trazado 220910" d="M148.742,31.676a16.517,16.517,0,0,1-2.023-2.519,16.468,16.468,0,0,1-1.765-2.706,16.48,16.48,0,0,1,2.023,2.519,16.517,16.517,0,0,1,1.765,2.706" transform="translate(-56.325 -10.278)" fill="#12263f"/>
            <path id="Trazado_220911" data-name="Trazado 220911" d="M148.335,57.845a15.4,15.4,0,0,1-2.012-2.949c-.507-.844-.953-1.616-1.267-2.178a4.3,4.3,0,0,1-.473-.936,15.407,15.407,0,0,1,2.013,2.95c.507.844.952,1.615,1.267,2.178a4.3,4.3,0,0,1,.472.935" transform="translate(-56.181 -20.121)" fill="#12263f"/>
            <path id="Trazado_220912" data-name="Trazado 220912" d="M148.618,48.834a17.766,17.766,0,0,1-2.153-3.178c-.547-.907-1.027-1.736-1.367-2.339a4.983,4.983,0,0,1-.514-1,17.8,17.8,0,0,1,2.153,3.178c.547.907,1.027,1.736,1.367,2.339a4.981,4.981,0,0,1,.514,1" transform="translate(-56.181 -16.442)" fill="#12263f"/>
            <path id="Trazado_220913" data-name="Trazado 220913" d="M148.591,40.182a17.923,17.923,0,0,1-2.164-3.2c-.55-.912-1.033-1.745-1.375-2.352a5.017,5.017,0,0,1-.517-1.008,17.99,17.99,0,0,1,2.164,3.2c.55.912,1.032,1.745,1.375,2.352a5.02,5.02,0,0,1,.517,1.008" transform="translate(-56.162 -13.066)" fill="#12263f"/>
            <path id="Trazado_220914" data-name="Trazado 220914" d="M14.5,31.629a24.956,24.956,0,0,1-3.882-.852,24.91,24.91,0,0,1-3.8-1.16,24.918,24.918,0,0,1,3.882.852,24.9,24.9,0,0,1,3.8,1.16" transform="translate(-2.648 -11.504)" fill="#263238"/>
            <path id="Trazado_220915" data-name="Trazado 220915" d="M15.582,19.3a60.922,60.922,0,0,1-4.063-4.707A60.952,60.952,0,0,1,7.7,9.679a61.026,61.026,0,0,1,4.063,4.707A60.886,60.886,0,0,1,15.582,19.3" transform="translate(-2.992 -3.761)" fill="#263238"/>
            <path id="Trazado_220916" data-name="Trazado 220916" d="M29.2,17.625A10.791,10.791,0,0,1,28.35,14.4a10.791,10.791,0,0,1-.135-3.329c.092,0,.176,1.479.45,3.282s.622,3.243.533,3.269" transform="translate(-10.937 -4.303)" fill="#263238"/>
            <path id="Trazado_220917" data-name="Trazado 220917" d="M355.142,136.868H286.52a3.232,3.232,0,0,1-3.232-3.232V114.6a3.232,3.232,0,0,1,3.232-3.231h68.622a3.232,3.232,0,0,1,3.232,3.231v19.034a3.232,3.232,0,0,1-3.232,3.232" transform="translate(-110.081 -43.277)" fill="url(#linear-gradient-2)"/>
            <path id="Trazado_220918" data-name="Trazado 220918" d="M362.759,136.808H296.771a3.453,3.453,0,0,1-3.449-3.449V114.676a3.453,3.453,0,0,1,3.449-3.449h65.988a3.453,3.453,0,0,1,3.449,3.449v18.683a3.452,3.452,0,0,1-3.449,3.449m-65.988-24.97a2.841,2.841,0,0,0-2.838,2.838v18.683a2.841,2.841,0,0,0,2.838,2.838h65.988a2.841,2.841,0,0,0,2.838-2.838V114.676a2.841,2.841,0,0,0-2.838-2.838Z" transform="translate(-113.98 -43.221)" fill="#12263f"/>
            <path id="Trazado_220919" data-name="Trazado 220919" d="M305.87,129.877a2.938,2.938,0,0,1,5.092-1.814l-.793.732a1.717,1.717,0,0,0-1.341-.625,1.708,1.708,0,1,0,0,3.415,1.7,1.7,0,0,0,1.341-.633l.793.732a2.933,2.933,0,0,1-5.092-1.807" transform="translate(-118.856 -49.396)" fill="#fff"/>
            <path id="Trazado_220920" data-name="Trazado 220920" d="M315.551,127.268h1.235V131.6h2.676V132.6h-3.911Z" transform="translate(-122.618 -49.454)" fill="#fff"/>
            <rect id="Rectángulo_57276" data-name="Rectángulo 57276" width="1.235" height="5.336" transform="translate(197.534 77.814)" fill="#fff"/>
            <path id="Trazado_220921" data-name="Trazado 220921" d="M326.615,129.877a2.938,2.938,0,0,1,5.092-1.814l-.793.732a1.717,1.717,0,0,0-1.341-.625,1.708,1.708,0,1,0,0,3.415,1.7,1.7,0,0,0,1.341-.633l.793.732a2.933,2.933,0,0,1-5.092-1.807" transform="translate(-126.917 -49.396)" fill="#fff"/>
            <path id="Trazado_220922" data-name="Trazado 220922" d="M338.24,130.508l-.717.747V132.6H336.3v-5.335h1.227v2.492l2.363-2.492h1.373l-2.211,2.378,2.34,2.957h-1.44Z" transform="translate(-130.68 -49.454)" fill="#fff"/>
            <path id="Trazado_220923" data-name="Trazado 220923" d="M353.936,127.268V132.6H352.7v-2.188h-2.424V132.6h-1.234v-5.336h1.234v2.1H352.7v-2.1Z" transform="translate(-135.633 -49.454)" fill="#fff"/>
            <path id="Trazado_220924" data-name="Trazado 220924" d="M363.242,131.613v.991H359.11v-5.336h4.032v.991h-2.8v1.159h2.477v.961h-2.477v1.234Z" transform="translate(-139.545 -49.454)" fill="#fff"/>
            <path id="Trazado_220925" data-name="Trazado 220925" d="M370.87,132.6l-1.029-1.486h-1.135V132.6h-1.235v-5.336h2.309c1.425,0,2.317.74,2.317,1.936a1.735,1.735,0,0,1-1.1,1.684l1.2,1.715Zm-1.159-4.329h-1.006v1.86h1.006c.754,0,1.136-.351,1.136-.93s-.382-.93-1.136-.93" transform="translate(-142.793 -49.454)" fill="#fff"/>
            <path id="Trazado_220926" data-name="Trazado 220926" d="M380.76,131.613v.991h-4.131v-5.336h4.032v.991h-2.8v1.159h2.477v.961h-2.477v1.234Z" transform="translate(-146.352 -49.454)" fill="#fff"/>
            <path id="Trazado_220927" data-name="Trazado 220927" d="M406.508,149.99a13.239,13.239,0,0,1-2.312-3.379,13.238,13.238,0,0,1,2.312,3.379" transform="translate(-157.061 -56.97)" fill="#12263f"/>
            <path id="Trazado_220928" data-name="Trazado 220928" d="M409.619,116.6a16.519,16.519,0,0,1-2.023-2.519,16.469,16.469,0,0,1-1.765-2.706,16.478,16.478,0,0,1,2.023,2.519,16.519,16.519,0,0,1,1.765,2.706" transform="translate(-157.698 -43.276)" fill="#12263f"/>
            <path id="Trazado_220929" data-name="Trazado 220929" d="M409.212,142.763a15.4,15.4,0,0,1-2.012-2.949c-.508-.844-.953-1.616-1.267-2.178a4.3,4.3,0,0,1-.473-.936,15.408,15.408,0,0,1,2.013,2.95c.507.844.952,1.615,1.267,2.178a4.3,4.3,0,0,1,.472.935" transform="translate(-157.553 -53.118)" fill="#12263f"/>
            <path id="Trazado_220930" data-name="Trazado 220930" d="M409.495,133.753a17.767,17.767,0,0,1-2.153-3.178c-.547-.907-1.027-1.736-1.368-2.339a5,5,0,0,1-.513-1,17.8,17.8,0,0,1,2.153,3.178c.547.907,1.027,1.736,1.367,2.339a4.983,4.983,0,0,1,.514,1" transform="translate(-157.554 -49.44)" fill="#12263f"/>
            <path id="Trazado_220931" data-name="Trazado 220931" d="M409.467,125.1a17.876,17.876,0,0,1-2.164-3.195c-.55-.912-1.033-1.745-1.375-2.353a5.028,5.028,0,0,1-.517-1.007,17.94,17.94,0,0,1,2.164,3.195c.55.912,1.032,1.745,1.375,2.353a5.024,5.024,0,0,1,.517,1.007" transform="translate(-157.535 -46.064)" fill="#12263f"/>
            <path id="Trazado_220932" data-name="Trazado 220932" d="M275.375,116.548a49.692,49.692,0,0,1-7.684-2.012,49.689,49.689,0,0,1,7.684,2.012" transform="translate(-104.02 -44.502)" fill="#263238"/>
            <path id="Trazado_220933" data-name="Trazado 220933" d="M276.459,104.214a60.915,60.915,0,0,1-4.063-4.707,60.777,60.777,0,0,1-3.817-4.91,61.031,61.031,0,0,1,4.063,4.707,60.883,60.883,0,0,1,3.817,4.909" transform="translate(-104.365 -36.759)" fill="#263238"/>
            <path id="Trazado_220934" data-name="Trazado 220934" d="M290.075,102.543a10.8,10.8,0,0,1-.847-3.222,10.8,10.8,0,0,1-.135-3.329c.093,0,.176,1.479.45,3.282s.622,3.243.533,3.269" transform="translate(-112.31 -37.301)" fill="#263238"/>
          </g>
        </g>
      </g>
    </g>
  </g>
</svg>
